<svg xmlns="http://www.w3.org/2000/svg" width="1181" height="683" viewBox="0 0 1181 683" fill="none">
<path d="M21.6678 559.751C49.0061 607.4 96.3428 633.964 143.25 638.727C190.155 643.462 236.762 628.603 279.973 607.029C327.02 583.518 372.209 551.605 422.776 543.187C486.189 532.635 550.836 560.667 606.769 600.736C635.828 621.535 663.454 645.711 694.098 662.609C724.741 679.48 759.628 688.713 791.536 677.609C861.251 653.391 890.379 545.716 957.24 511.807C989.251 495.564 1025.45 498.587 1060.3 497.58C1095.15 496.574 1132.71 489.589 1156.71 459.129C1189.05 418.017 1184.39 350.132 1167.09 296.007C1138.59 206.847 1073.94 127.689 996.537 121.724C955.374 118.563 915.087 135.896 873.884 135.55C858.427 135.389 843.014 132.723 828.043 127.621C826.045 126.299 824.09 124.948 822.133 123.542C773.334 88.5486 749.421 46.7581 708 22.4999C678.254 5.07961 634.879 -1.35878 588.21 1.21337C501.985 9.56966 420.984 52.6447 357.732 123.778C311.86 175.662 275.935 241.859 222.582 281.658C175.462 316.779 118.908 328.114 69.0435 357.117C51.2697 367.442 34.0888 380.332 21.4694 398.788C-8.43089 442.539 -5.64713 512.127 21.6678 559.751Z" fill="url(#paint0_linear_2810_9118)"/>
<defs>
<linearGradient id="paint0_linear_2810_9118" x1="569.386" y1="0.628068" x2="603.364" y2="690.391" gradientUnits="userSpaceOnUse">
<stop stop-color="#2BD4D9"/>
<stop offset="1" stop-color="#5433ED"/>
</linearGradient>
</defs>
</svg>