<svg width="96" height="96" viewBox="0 0 96 96" fill="none" xmlns="http://www.w3.org/2000/svg">
<rect opacity="0.05" width="96" height="96" rx="10" fill="#2BD4D9"/>
<path fill-rule="evenodd" clip-rule="evenodd" d="M54.0131 22H26.9869C24.2325 22 22 24.2251 22 26.9696V48.2138C22 50.7904 24.0964 52.8795 26.6819 52.8795L26.6264 57L31.3165 52.8795H54.0131C56.7675 52.8795 59 50.6544 59 47.9099V26.9696C59 24.2251 56.7675 22 54.0131 22Z" fill="#2BD4D9"/>
<path fill-rule="evenodd" clip-rule="evenodd" d="M70.106 55.9469H60.801C61.5688 53.6613 61.9769 51.7376 62.0442 50.0973C62.2029 46.2276 60.3611 44.6961 58.7881 44.0918C58.7223 44.0662 58.6539 44.048 58.584 44.0375C57.3652 43.8465 56.9312 44.4153 56.6437 45.0582L56.606 45.1424C56.5639 45.2348 56.5364 45.333 56.5244 45.4337C56.1355 48.7347 54.7145 51.8322 52.4609 54.2915V72.7331C52.7123 72.8244 52.9691 72.9004 53.2298 72.9607C53.3004 72.9772 53.3726 72.986 53.4451 72.9871C54.2241 72.9953 55.1526 72.9995 56.2234 72.9995C57.2916 72.9995 58.5011 72.9952 59.8433 72.9871H68.6092C69.1218 72.9872 69.6252 72.8522 70.0679 72.5959C70.5106 72.3397 70.8767 71.9714 71.1288 71.5287C71.3809 71.086 71.51 70.5848 71.5027 70.0764C71.4955 69.568 71.3522 69.0706 71.0876 68.6352C71.6727 68.1955 72.0672 67.5515 72.191 66.8338C72.3148 66.1161 72.1587 65.3786 71.7542 64.771C72.322 64.2933 72.6821 63.6168 72.7595 62.8824C72.8369 62.1479 72.6257 61.4121 72.1698 60.8283C72.5696 60.4251 72.8403 59.9136 72.948 59.3582C73.0556 58.8028 72.9954 58.2282 72.7749 57.7067C72.5543 57.1851 72.1833 56.7398 71.7085 56.4268C71.2336 56.1138 70.6761 55.9466 70.106 55.9469ZM50.4696 56.1256C50.2942 55.849 50.0511 55.6211 49.7628 55.4631C49.4746 55.305 49.1507 55.2221 48.8213 55.2219H41.9489C41.4322 55.2224 40.9369 55.4261 40.5715 55.7885C40.2062 56.1508 40.0006 56.6421 40 57.1546V71.0657C40.0004 71.5784 40.2059 72.07 40.5712 72.4326C40.9366 72.7953 41.432 72.9993 41.9489 73H48.8213C49.1506 72.9998 49.4744 72.9169 49.7627 72.759C50.0509 72.6011 50.2941 72.3733 50.4696 72.097V56.1256ZM42.5183 58.8501C42.5183 58.5881 42.6232 58.3369 42.8099 58.1516C42.9967 57.9664 43.2499 57.8623 43.514 57.8623H44.2447C44.5088 57.8623 44.762 57.9664 44.9488 58.1516C45.1355 58.3369 45.2404 58.5881 45.2404 58.8501C45.2404 59.112 45.1355 59.3632 44.9488 59.5485C44.762 59.7337 44.5088 59.8378 44.2447 59.8378H43.5141C43.3833 59.8378 43.2538 59.8122 43.133 59.7626C43.0122 59.713 42.9024 59.6402 42.81 59.5485C42.7175 59.4568 42.6441 59.3479 42.5941 59.2281C42.5441 59.1082 42.5183 58.9798 42.5183 58.8501Z" fill="#5433ED"/>
</svg>
