<svg width="1208" height="466" viewBox="0 0 1208 466" fill="none" xmlns="http://www.w3.org/2000/svg">
<path d="M688.569 277.011C701.49 264.325 718.977 305.791 725.007 321.626L737.109 307.732C728.625 297.636 698.088 258.5 723.155 248.576C740.426 241.759 740.038 289.222 739.435 305.1L755.802 286.288C751.581 276.536 731.381 226.528 759.291 224.37C777.983 222.903 763.167 269.201 758.085 283.656L775.485 263.678C781.946 248.059 800.552 206.981 813.172 220.012C830.917 238.393 792.498 259.967 778.242 267.044L761.66 286.115C776.261 277.399 815.498 255.868 817.781 273.818C821.312 301.303 769.585 292.199 758.343 289.912L740.641 310.278C752.959 307.085 804.816 294.788 801.457 314.161C796.633 342.035 748.092 316.535 739.349 311.745L726.729 326.243C726.816 326.459 726.859 326.631 726.945 326.804C740.857 328.918 791.034 337.72 780.697 353.901C765.881 377.071 732.544 337.677 725.007 328.271L697.054 360.373L693.824 357.569L722.164 324.992C708.037 317.441 670.35 294.831 688.569 277.011Z" fill="#2CD3DB"/>
<path d="M702.136 347.299C713.507 339.921 726.859 336.469 737.196 334.268C757.31 329.997 773.332 329.349 787.631 332.24C806.496 336.037 822.992 346.091 839.574 356.964C840.608 357.655 841.125 358.906 840.866 360.114C840.608 361.322 839.66 362.228 838.411 362.444C818.771 365.594 800.079 372.196 782.85 382.076C776.347 385.787 770.015 390.016 763.856 394.115C757.137 398.602 750.16 403.219 742.967 407.232C723.93 417.846 687.88 429.367 673.408 405.161C666.818 394.158 671.685 380.566 679.955 368.959C686.588 359.683 695.288 351.7 702.136 347.299Z" fill="#2CD3DB"/>
<path d="M509.094 350.837C496.173 338.152 478.686 379.617 472.656 395.452L460.554 381.559C469.038 371.462 499.575 332.327 474.508 322.402C457.237 315.585 457.625 363.048 458.228 378.927L441.861 360.114C446.082 350.362 466.282 300.354 438.372 298.196C419.68 296.729 434.496 343.027 439.578 357.482L422.178 337.504C415.717 321.885 397.111 280.808 384.491 293.838C366.746 312.22 405.165 333.794 419.421 340.87L436.003 359.941C421.402 351.225 382.165 329.695 379.882 347.644C376.35 375.13 428.078 366.025 439.32 363.738L457.022 384.104C444.704 380.911 392.847 368.614 396.206 387.988C401.03 415.861 449.57 390.361 458.314 385.571L470.934 400.069C470.847 400.285 470.804 400.457 470.718 400.63C456.806 402.744 406.629 411.547 416.966 427.727C431.782 450.898 465.119 411.503 472.656 402.097L500.609 434.199L503.839 431.395L475.499 398.818C489.626 391.224 527.27 368.657 509.094 350.837Z" fill="#2CD3DB"/>
<path d="M462.449 330.342C458.96 310.709 451.896 291.681 441.732 274.551C440.956 273.3 442.205 271.747 443.627 272.178C461.975 277.831 480.495 284.044 495.398 296.039C508.491 306.524 517.967 320.849 525.805 335.692C531.577 346.652 536.659 358.216 538.124 370.556C540.191 387.729 534.893 424.707 513.315 428.159C486.267 432.43 472.613 397.653 468.737 377.114C465.808 361.624 465.205 345.832 462.449 330.342Z" fill="#2CD3DB"/>
<path d="M151.695 205.386C151.695 209.787 148.12 213.368 143.726 213.368C139.333 213.368 135.758 209.787 135.758 205.386C135.758 200.985 139.333 197.403 143.726 197.403C148.12 197.446 151.695 200.985 151.695 205.386Z" fill="white" stroke="#5633EF" stroke-width="1.5" stroke-miterlimit="10"/>
<path d="M1056.52 245.686C1059.71 245.686 1062.29 243.097 1062.29 239.904C1062.29 236.711 1059.71 234.122 1056.52 234.122C1053.33 234.122 1050.75 236.711 1050.75 239.904C1050.75 243.097 1053.33 245.686 1056.52 245.686Z" fill="#5633EF"/>
<path d="M425.02 50.7856C425.02 53.5903 422.738 55.834 419.981 55.834C417.182 55.834 414.942 53.5471 414.942 50.7856C414.942 47.981 417.225 45.7373 419.981 45.7373C422.738 45.7373 425.02 47.981 425.02 50.7856Z" fill="#5633EF"/>
<path d="M376.264 70.0293H327.853C324.666 70.0293 322.039 72.6182 322.039 75.8543V107.137C322.039 110.33 324.623 112.962 327.853 112.962H342.282L346.847 120.858L352.102 129.962L357.356 120.858L361.922 112.962H376.351C379.538 112.962 382.165 110.373 382.165 107.137V75.8543C382.079 72.6182 379.495 70.0293 376.264 70.0293Z" fill="white" stroke="#5633EF" stroke-width="1.5" stroke-miterlimit="10"/>
<path d="M401.762 195.633C391.641 189.377 385.352 201.588 385.309 201.631C385.266 201.545 378.978 189.377 368.856 195.633C357.227 202.796 368.598 225.492 385.309 230.972C402.021 225.492 413.391 202.839 401.762 195.633Z" fill="#5633EF" stroke="#5633EF" stroke-miterlimit="10"/>
<path d="M915.723 37.5822C908.66 33.2242 904.223 41.7244 904.223 41.8107C904.18 41.7676 899.787 33.2242 892.723 37.5822C884.583 42.5874 892.551 58.4659 904.223 62.3061C915.896 58.4227 923.864 42.5874 915.723 37.5822Z" fill="white" stroke="#5633EF" stroke-width="1.5" stroke-miterlimit="10"/>
<path d="M346.158 104.203C350.336 104.721 354.6 104.764 358.821 104.289C359.812 104.16 360.888 104.03 361.75 103.469C362.611 102.909 363.257 102.002 363.042 101.01C363.817 101.01 364.42 100.406 364.98 99.8881C365.195 99.6724 365.411 99.4567 365.583 99.1546C365.755 98.8094 365.755 98.4643 365.755 98.0759C365.712 96.9541 365.152 95.8754 364.162 95.3144C365.066 95.0556 365.841 94.2789 366.1 93.3728C366.358 92.4667 366.143 91.4311 365.54 90.6976C365.152 90.223 364.635 89.9641 364.076 89.7483C364.506 89.36 365.066 89.1874 365.411 88.7559C365.841 88.1087 365.626 87.2026 365.066 86.6848C364.506 86.167 363.688 85.9944 362.956 85.9081C361.577 85.7787 360.156 85.9513 358.735 86.0376C357.313 86.0807 355.806 85.8218 354.557 85.1746C354.298 83.3193 354.729 81.3776 354.255 79.5654C353.652 77.3648 351.542 75.6389 349.259 75.5094C348.829 75.4663 348.312 75.5526 348.053 75.8546C347.838 76.1135 347.795 76.4587 347.795 76.7607C347.795 78.2709 348.355 79.6948 348.699 81.1619C349.044 82.6289 349.13 84.2685 348.269 85.4767C347.924 85.9513 347.493 86.3396 347.192 86.8574C346.804 87.5909 344.952 88.0656 344.134 87.9793L346.158 104.203Z" fill="white" stroke="#5633EF" stroke-width="1.5" stroke-miterlimit="10"/>
<path d="M345.469 105.756H340.473C340.085 105.756 339.784 105.454 339.784 105.066V87.5908C339.784 87.2024 340.085 86.9004 340.473 86.9004H345.469C345.857 86.9004 346.158 87.2024 346.158 87.5908V105.066C346.158 105.454 345.857 105.756 345.469 105.756Z" fill="#211D53"/>
<path d="M342.799 90.0074C343.227 90.0074 343.574 89.6597 343.574 89.2308C343.574 88.8018 343.227 88.4541 342.799 88.4541C342.371 88.4541 342.023 88.8018 342.023 89.2308C342.023 89.6597 342.371 90.0074 342.799 90.0074Z" fill="white"/>
<path d="M910.684 132.465H862.273C859.085 132.465 856.458 135.054 856.458 138.29V169.572C856.458 172.765 859.042 175.397 862.273 175.397H876.701L881.267 183.293L886.521 192.398L891.776 183.293L896.341 175.397H910.77C913.957 175.397 916.585 172.808 916.585 169.572V138.29C916.455 135.097 913.871 132.465 910.684 132.465Z" fill="#5633EF" stroke="#5633EF" stroke-miterlimit="10"/>
<path d="M882.602 167.89C886.78 168.407 891.044 168.45 895.265 167.976C896.255 167.846 897.332 167.717 898.193 167.156C899.055 166.595 899.701 165.689 899.485 164.697C900.261 164.697 900.864 164.092 901.424 163.575C901.639 163.359 901.854 163.143 902.027 162.841C902.199 162.496 902.199 162.151 902.199 161.762C902.156 160.641 901.596 159.562 900.605 159.001C901.51 158.742 902.285 157.965 902.543 157.059C902.802 156.153 902.586 155.118 901.983 154.384C901.596 153.909 901.079 153.651 900.519 153.435C900.95 153.047 901.51 152.874 901.854 152.442C902.285 151.795 902.07 150.889 901.51 150.371C900.95 149.854 900.131 149.681 899.399 149.595C898.021 149.465 896.6 149.638 895.178 149.724C893.757 149.767 892.25 149.508 891.001 148.861C890.742 147.006 891.173 145.064 890.699 143.252C890.096 141.051 887.986 139.325 885.703 139.196C885.272 139.153 884.755 139.239 884.497 139.541C884.282 139.8 884.239 140.145 884.239 140.447C884.239 141.957 884.799 143.381 885.143 144.848C885.488 146.315 885.574 147.955 884.712 149.163C884.368 149.638 883.937 150.026 883.636 150.544C883.248 151.277 883.291 152.097 883.119 152.874C882.946 153.651 882.3 154.47 881.525 154.384L882.602 167.89Z" fill="white" stroke="#5633EF" stroke-width="1.5" stroke-miterlimit="10"/>
<path d="M881.913 169.443H876.917C876.529 169.443 876.228 169.141 876.228 168.752V151.277C876.228 150.889 876.529 150.587 876.917 150.587H881.913C882.301 150.587 882.602 150.889 882.602 151.277V168.752C882.602 169.141 882.301 169.443 881.913 169.443Z" fill="#121B46"/>
<path d="M880.018 152.917C880.018 153.349 879.673 153.694 879.242 153.694C878.812 153.694 878.467 153.349 878.467 152.917C878.467 152.486 878.812 152.141 879.242 152.141C879.673 152.141 880.018 152.486 880.018 152.917Z" fill="white"/>
<path d="M885.229 428.072H871.145C872.265 436.745 873.126 443.39 873.514 446.194C873.514 446.194 863.694 452.882 857.018 452.019C856.63 451.976 856.243 452.106 856.027 452.408C855.726 452.796 855.511 453.487 856.157 454.306C856.329 454.565 856.63 454.695 856.932 454.695H883.463C884.454 454.695 885.316 453.961 885.445 452.969C885.617 451.804 885.703 449.085 885.014 446.626L885.229 428.072Z" fill="white" stroke="#5633EF" stroke-width="1.5" stroke-miterlimit="10"/>
<path d="M869.724 448.567C869.724 448.567 872.093 450.121 872.437 451.717C872.61 452.537 875.151 452.408 877.649 452.062C880.19 451.717 882.516 450.639 884.583 449.171C884.971 448.913 885.358 448.697 885.617 448.783C886.521 448.956 886.435 454.479 885.358 454.953C884.368 455.385 860.033 455.04 856.157 454.953C855.855 454.953 855.64 454.694 855.597 454.436C855.597 453.486 855.726 451.631 857.147 451.458C859.085 451.07 869.724 448.567 869.724 448.567Z" fill="#121B46"/>
<path d="M917.661 428.072H903.577L907.023 446.583C906.721 449.042 907.324 451.761 907.669 452.926C907.97 453.918 908.961 454.651 909.952 454.651H932.004C932.004 453.702 932.047 452.753 932.047 451.804C925.802 450.639 918.437 446.194 918.437 446.194C918.35 443.39 918.049 436.745 917.661 428.072Z" fill="white" stroke="#5633EF" stroke-width="1.5" stroke-miterlimit="10"/>
<path d="M922.787 448.567C922.787 448.567 920.418 450.121 920.073 451.717C919.901 452.537 917.36 452.408 914.862 452.062C912.321 451.717 909.995 450.639 907.927 449.171C907.54 448.913 907.152 448.697 906.894 448.783C905.989 448.956 906.075 454.479 907.152 454.953C908.143 455.385 932.478 455.04 936.354 454.953C936.655 454.953 936.871 454.694 936.871 454.436C936.871 453.486 936.742 451.631 935.32 451.458C933.468 451.07 922.787 448.567 922.787 448.567Z" fill="#121B46"/>
<path d="M868.475 262.686C868.475 262.686 860.292 270.151 861.024 276.191C861.756 282.232 867.269 300.57 865.589 313.083C863.909 325.639 860.033 336.469 861.024 349.759C861.971 363.049 870.155 436.616 870.155 436.616C870.155 436.616 888.718 430.36 895.179 433.251C901.682 436.141 919.513 438.558 921.925 437.609C921.925 437.609 917.834 338.454 904.353 319.9C904.353 319.9 901.941 293.235 904.31 287.28C906.679 281.326 903.75 264.843 897.806 262.859C891.862 260.831 868.475 262.686 868.475 262.686Z" fill="#5633EF" stroke="#5633EF" stroke-miterlimit="10"/>
<path d="M874.418 271.963C874.418 271.963 890.225 272.222 901.079 266.785L874.418 271.963Z" fill="#5633EF"/>
<path d="M879.544 390.189C886.607 383.285 892.637 375.303 897.375 366.63L879.544 390.189Z" fill="#5633EF"/>
<path d="M889.062 388.29C891.388 384.709 893.585 381.041 895.695 377.287L889.062 388.29Z" fill="#5633EF"/>
<path d="M889.407 314.594C889.493 313.472 881.913 311.444 882.214 310.667C882.473 309.977 884.411 309.718 885.402 309.761C885.617 309.761 885.789 309.589 885.746 309.373C885.703 308.941 885.445 308.337 884.411 308.251C883.033 308.122 880.362 307.906 877.218 308.812C876.83 308.596 873.514 306.784 868.518 304.022C867.656 307 866.838 310.02 865.718 312.868C869.078 313.515 872.437 313.99 875.883 314.205V314.162C877.735 315.888 882.257 319.901 884.756 320.678C884.971 320.721 885.143 320.548 885.057 320.376C884.885 319.944 884.368 319.124 882.559 317.787C882.559 317.787 886.995 319.642 887.77 319.297C888.589 318.952 883.291 315.802 883.291 315.802C883.291 315.802 888.46 317.355 889.02 316.794C889.579 316.233 883.98 313.731 883.98 313.731C883.98 313.731 889.407 315.068 889.407 314.594Z" fill="white" stroke="#5633EF" stroke-width="1.5" stroke-miterlimit="10"/>
<path d="M865.847 265.103C865.847 265.103 855.381 275.846 849.481 284.174C843.58 292.502 842.374 297.075 843.838 302.253C845.303 307.431 854.305 310.451 856.975 311.314C859.645 312.177 872.609 314.55 872.609 314.55L874.763 306.827L859.688 298.154L875.108 275.976L865.847 265.103Z" fill="#5633EF" stroke="#5633EF" stroke-miterlimit="10"/>
<path d="M854.175 296.126L859.602 298.197L857.621 294.961" fill="#5633EF"/>
<path d="M906.248 318.909H860.722V290.172C860.722 289.784 861.024 289.438 861.454 289.438H905.559C905.946 289.438 906.291 289.741 906.291 290.172V318.909H906.248Z" fill="white" stroke="#5633EF" stroke-width="1.5" stroke-miterlimit="10"/>
<path d="M906.248 318.434H860.722V321.799H906.248V318.434Z" fill="white" stroke="#5633EF" stroke-width="1.5" stroke-miterlimit="10"/>
<path d="M887.598 305.404C887.598 307.647 885.746 309.503 883.506 309.503C881.267 309.503 879.415 307.647 879.415 305.404C879.415 303.16 881.267 301.305 883.506 301.305C885.746 301.305 887.598 303.16 887.598 305.404Z" fill="white" stroke="#5633EF" stroke-width="1.5" stroke-miterlimit="10"/>
<path d="M908.875 312.737L908.1 311.788C907.927 311.831 907.755 311.874 907.54 311.917C907.238 311.745 906.98 311.572 906.678 311.356C906.42 311.831 906.248 312.133 906.205 312.263C903.06 313.212 900.907 314.895 899.873 315.758C899.055 316.405 899.184 317.095 899.356 317.44C899.443 317.613 899.658 317.699 899.83 317.57C900.649 317.009 902.414 316.146 902.974 316.577C903.663 317.052 898.409 322.92 899.098 323.826C899.399 324.171 903.233 320.116 903.233 320.116C903.233 320.116 899.916 325.25 900.692 325.423C901.467 325.595 904.956 321.453 904.956 321.453C904.956 321.453 902.285 326.976 903.104 326.847C903.965 326.674 906.635 322.704 906.635 322.704C905.86 324.819 905.86 325.811 905.946 326.242C905.989 326.458 906.248 326.501 906.377 326.329C908.057 324.301 909.607 318.476 910.21 316.016C910.813 315.585 911.33 315.11 911.933 314.636C910.985 314.032 909.909 313.384 908.875 312.737Z" fill="white" stroke="#5633EF" stroke-width="1.5" stroke-miterlimit="10"/>
<path d="M899.787 264.282C899.787 264.282 903.879 265.965 906.161 267.432C908.444 268.899 930.023 287.323 930.238 292.631C930.496 297.938 911.33 316.535 911.33 316.535L906.377 311.573L914.086 295.392L893.154 275.975L899.787 264.282Z" fill="#5633EF" stroke="#5633EF" stroke-miterlimit="10"/>
<path d="M916.757 291.768L914.173 295.392L913.785 291.854" fill="#5633EF"/>
<path d="M904.482 286.547L897.461 282.75L903.836 289.05L904.482 286.547Z" fill="#121B46"/>
<path d="M898.863 240.953C898.476 239.716 897.146 238.735 895.816 239.034C896.417 221.799 881.954 224.103 881.954 224.103C872.857 224.87 871.827 234.469 871.912 239.375C871.612 239.204 871.355 239.076 871.183 239.034C869.853 238.692 868.522 239.716 868.136 240.953C867.836 241.935 868.05 243.044 868.608 243.94C869.08 244.665 869.853 245.347 870.668 245.646C870.84 245.731 871.612 245.859 872.256 245.817C873.672 257.079 883.929 255.97 883.929 255.97C892.855 256.397 895.172 250.211 895.687 245.774C896.03 245.731 896.288 245.689 896.374 245.646C897.189 245.347 897.961 244.665 898.434 243.94C898.949 243.044 899.163 241.935 898.863 240.953Z" fill="white"/>
<path d="M901.768 264.325C901.725 264.325 901.682 264.282 901.596 264.282C898.409 263.376 896.557 259.967 897.203 256.688C898.323 250.906 900.261 240.507 899.916 237.616C899.442 233.517 896.686 221.824 885.832 220.961C874.978 220.098 868.389 227.347 867.053 237.832C865.718 248.317 869.207 259.665 869.207 259.665C869.121 261.305 863.565 266.526 861.971 268.079C861.756 268.252 861.842 268.597 862.1 268.683C878.51 273.861 897.16 266.914 901.854 264.972C902.156 264.843 902.113 264.411 901.768 264.325ZM884.195 255.005C877.907 255.005 872.825 249.094 872.825 241.802C872.825 234.51 877.907 228.598 884.195 228.598C890.484 228.598 895.566 234.51 895.566 241.802C895.609 249.094 890.484 255.005 884.195 255.005Z" fill="#121B46"/>
<path d="M863.909 267.992C865.158 267.647 866.364 267.259 867.57 266.871C868.776 266.482 869.982 266.051 871.145 265.576C873.514 264.67 875.84 263.634 878.123 262.469C879.243 261.909 880.362 261.304 881.482 260.614C882.559 259.967 883.636 259.233 884.669 258.5C886.737 257.033 888.632 255.307 890.312 253.365C889.579 254.401 888.718 255.35 887.814 256.299C886.909 257.205 885.918 258.025 884.928 258.802C882.904 260.355 880.664 261.693 878.424 262.858C876.141 263.98 873.773 265.015 871.361 265.878C868.862 266.784 866.408 267.518 863.909 267.992Z" fill="white"/>
<path d="M877.175 253.193C875.754 252.502 874.505 251.51 873.471 250.388C872.394 249.223 871.533 247.885 870.93 246.418C870.758 246.073 870.671 245.685 870.542 245.297C870.413 244.908 870.284 244.563 870.241 244.132L870.025 242.967C869.982 242.578 869.982 242.19 869.939 241.802L869.896 241.198C869.896 240.982 869.896 240.809 869.939 240.593L870.025 239.428C870.025 239.213 870.069 239.04 870.112 238.868L870.241 238.307C870.327 237.918 870.413 237.53 870.456 237.142C870.413 237.918 870.284 238.695 870.284 239.472V240.637C870.284 240.809 870.284 241.025 870.284 241.198L870.327 241.758C870.37 242.147 870.413 242.535 870.456 242.88L870.715 244.002C870.758 244.39 870.93 244.736 871.016 245.124C871.145 245.469 871.231 245.857 871.404 246.203C871.964 247.627 872.782 248.921 873.773 250.129C874.031 250.431 874.289 250.69 874.548 250.992C874.806 251.251 875.108 251.51 875.366 251.769C875.883 252.287 876.486 252.761 877.175 253.193Z" fill="white"/>
<path d="M875.108 233.776C875.108 233.776 884.669 229.375 893.37 233.776C893.37 233.776 884.497 219.624 875.108 233.776Z" fill="white"/>
<path d="M751.667 455.084H488.937C484.07 455.084 480.151 451.157 480.151 446.281V22.394C480.151 17.5183 484.07 13.5918 488.937 13.5918H751.667C756.534 13.5918 760.454 17.5183 760.454 22.394V446.281C760.454 451.157 756.534 455.084 751.667 455.084Z" fill="white" stroke="#5633EF" stroke-width="1.5" stroke-miterlimit="10"/>
<path d="M652.821 24.2061H587.784V29.0386H652.821V24.2061Z" fill="#211D53"/>
<path d="M651.141 430.489H589.507V443.045H651.141V430.489Z" fill="#211D53"/>
<path d="M753.735 42.0693H486.913V422.42H753.735V42.0693Z" fill="white" stroke="#5633EF" stroke-width="1.5" stroke-miterlimit="10"/>
<path d="M753.735 42.0693H486.913V56.524H753.735V42.0693Z" fill="#211D53"/>
<path d="M510.602 322.403C516.525 322.403 521.326 317.593 521.326 311.659C521.326 305.725 516.525 300.915 510.602 300.915C504.679 300.915 499.877 305.725 499.877 311.659C499.877 317.593 504.679 322.403 510.602 322.403Z" fill="#5633EF" stroke="#5633EF" stroke-miterlimit="10"/>
<path d="M510.602 411.806C516.525 411.806 521.326 406.996 521.326 401.062C521.326 395.129 516.525 390.318 510.602 390.318C504.679 390.318 499.877 395.129 499.877 401.062C499.877 406.996 504.679 411.806 510.602 411.806Z" fill="#3CDEBC"/>
<path d="M540.234 322.403C546.157 322.403 550.959 317.593 550.959 311.659C550.959 305.725 546.157 300.915 540.234 300.915C534.311 300.915 529.509 305.725 529.509 311.659C529.509 317.593 534.311 322.403 540.234 322.403Z" fill="#5633EF" stroke="#5633EF" stroke-miterlimit="10"/>
<path d="M614.057 303.332H556.988V308.898H614.057V303.332Z" fill="white" stroke="#5633EF" stroke-width="1.5" stroke-miterlimit="10"/>
<path d="M738.789 329.394H501.815V334.96H738.789V329.394Z" fill="white" stroke="#5633EF" stroke-width="1.5" stroke-miterlimit="10"/>
<path d="M738.789 340.741H501.815V346.307H738.789V340.741Z" fill="white" stroke="#5633EF" stroke-width="1.5" stroke-miterlimit="10"/>
<path d="M558.884 352.09H501.815V357.656H558.884V352.09Z" fill="white" stroke="#5633EF" stroke-width="1.5" stroke-miterlimit="10"/>
<path d="M582.745 392.26H525.676V397.826H582.745V392.26Z" fill="white" stroke="#5633EF" stroke-width="1.5" stroke-miterlimit="10"/>
<path d="M521.043 110.214C522.409 104.441 518.845 98.6511 513.082 97.2828C507.318 95.9145 501.539 99.4856 500.173 105.259C498.808 111.033 502.372 116.822 508.135 118.19C513.898 119.559 519.678 115.988 521.043 110.214Z" fill="#5633EF" stroke="#5633EF" stroke-miterlimit="10"/>
<path d="M582.745 98.8955H525.676V104.462H582.745V98.8955Z" fill="white" stroke="#5633EF" stroke-width="1.5" stroke-miterlimit="10"/>
<path d="M648.987 313.73H556.988V319.297H648.987V313.73Z" fill="white" stroke="#5633EF" stroke-width="1.5" stroke-miterlimit="10"/>
<path d="M753.735 122.153H486.913V295.868H753.735V122.153Z" fill="#2CD3DB"/>
<path d="M679.74 311.4C671.169 311.4 662.511 307.431 655.706 304.281C646.791 300.182 641.062 289.05 642.914 279.514C644.206 272.869 649.117 267.26 655.103 265.534C655.749 265.361 656.395 265.189 657.041 265.059C658.032 264.844 659.023 264.628 659.927 264.283C663.244 262.988 665.828 259.58 666.862 255.178C667.766 251.425 667.508 247.369 667.249 243.485L667.206 242.838C666.775 236.15 666.603 229.074 669.015 222.558C671.255 216.561 676.811 210.261 684.176 209.7C685.08 209.614 685.942 209.657 686.803 209.657C688.009 209.7 689.172 209.7 690.292 209.485C695.59 208.535 698.949 203.012 701.662 198.568C704.376 194.124 708.769 188.212 714.971 188.299C718.848 188.385 722.595 191.017 724.361 194.9C725.868 198.223 725.997 202.365 724.662 206.464C724.318 207.629 723.844 208.794 723.413 209.916C721.992 213.497 720.657 216.863 722.035 220.013C722.638 221.437 723.715 222.558 724.834 223.767C725.265 224.198 725.653 224.63 726.04 225.104C731.64 231.576 732.415 241.932 727.849 249.181C724.834 253.97 719.967 257.293 715.23 260.529C709.286 264.585 703.644 268.425 701.749 274.897C700.758 278.22 701.016 281.715 701.275 285.382C701.49 288.532 701.706 291.768 701.103 294.961C699.854 301.347 695.073 306.956 688.612 309.631C685.77 310.883 682.755 311.4 679.74 311.4ZM685.64 211.124C685.21 211.124 684.736 211.124 684.305 211.167C677.586 211.685 672.461 217.51 670.393 223.076C668.068 229.29 668.24 236.193 668.671 242.752L668.714 243.399C668.972 247.412 669.23 251.511 668.283 255.524C667.12 260.356 664.234 264.153 660.444 265.62C659.41 266.009 658.377 266.267 657.343 266.483C656.697 266.613 656.094 266.742 655.491 266.915C650.021 268.468 645.499 273.646 644.336 279.773C642.613 288.575 648.083 299.19 656.309 302.987C665.268 307.129 677.586 312.781 688.181 308.38C694.168 305.877 698.648 300.657 699.81 294.745C700.37 291.768 700.155 288.618 699.94 285.555C699.681 281.93 699.423 278.133 700.457 274.552C702.481 267.605 708.597 263.463 714.498 259.407C719.106 256.257 723.844 253.021 726.73 248.49C730.993 241.759 730.261 232.137 725.05 226.14C724.662 225.708 724.274 225.277 723.887 224.845C722.724 223.594 721.475 222.3 720.786 220.66C719.235 216.949 720.7 213.152 722.164 209.441C722.595 208.32 723.069 207.198 723.413 206.076C724.619 202.279 724.49 198.525 723.155 195.548C721.604 192.139 718.374 189.852 715.057 189.766C709.544 189.723 705.539 195.202 702.998 199.345C700.155 204.048 696.58 209.873 690.636 210.952C689.344 211.167 688.095 211.167 686.846 211.124C686.416 211.124 686.028 211.124 685.64 211.124Z" fill="white"/>
<path d="M728.151 179.712C725.481 179.712 723.284 177.512 723.284 174.837C723.284 172.162 725.481 169.961 728.151 169.961C730.821 169.961 733.018 172.162 733.018 174.837C733.018 177.512 730.821 179.712 728.151 179.712ZM728.151 171.385C726.256 171.385 724.705 172.938 724.705 174.837C724.705 176.735 726.256 178.289 728.151 178.289C730.046 178.289 731.597 176.735 731.597 174.837C731.597 172.938 730.046 171.385 728.151 171.385Z" fill="white"/>
<path d="M706.659 153.996C706.659 154.988 705.84 155.808 704.85 155.808C703.859 155.808 703.041 154.988 703.041 153.996C703.041 153.003 703.859 152.184 704.85 152.184C705.84 152.227 706.659 153.003 706.659 153.996Z" fill="white"/>
<path d="M512.497 260.787C513.805 260.787 514.865 259.725 514.865 258.414C514.865 257.104 513.805 256.041 512.497 256.041C511.188 256.041 510.128 257.104 510.128 258.414C510.128 259.725 511.188 260.787 512.497 260.787Z" fill="white"/>
<path d="M727.763 271.272C725.265 271.272 723.241 269.244 723.241 266.742C723.241 264.239 725.265 262.211 727.763 262.211C730.261 262.211 732.286 264.239 732.286 266.742C732.286 269.244 730.261 271.272 727.763 271.272ZM727.763 263.678C726.083 263.678 724.705 265.059 724.705 266.742C724.705 268.424 726.083 269.805 727.763 269.805C729.443 269.805 730.821 268.424 730.821 266.742C730.821 265.059 729.486 263.678 727.763 263.678Z" fill="white"/>
<path d="M580.333 257.768C580.333 257.768 566.378 280.938 562.286 300.959H656.438C656.438 300.959 649.203 266.225 641.019 258.026L580.333 257.768Z" fill="#121B46"/>
<path d="M578.05 264.585L586.277 264.456L594.503 264.369L610.913 264.326L627.366 264.369L635.592 264.456L643.776 264.585L635.592 264.671L627.366 264.758L610.913 264.801L594.503 264.758L586.277 264.671L578.05 264.585Z" fill="white"/>
<path d="M587.612 265.103C587.095 266.872 586.363 268.554 585.501 270.151C584.64 271.79 583.649 273.301 582.443 274.725C581.237 276.105 579.816 277.357 578.136 278.176C577.318 278.565 576.413 278.867 575.509 278.996C574.604 279.083 573.657 279.039 572.795 278.867C574.604 279.039 576.413 278.694 578.007 277.831C579.601 277.011 580.936 275.76 582.099 274.423C583.262 273.042 584.295 271.575 585.2 269.978C585.673 269.202 586.104 268.382 586.492 267.562C586.879 266.785 587.267 265.966 587.612 265.103Z" fill="white"/>
<path d="M615.78 264.369C615.823 269.029 615.909 273.646 615.952 278.306L615.995 285.253V292.2V292.286L615.909 292.372L608.329 299.966L607.898 300.398V299.794C607.941 293.926 607.898 288.014 607.941 282.146L608.027 273.344L608.156 264.542L608.286 273.344L608.372 282.146C608.415 288.014 608.415 293.926 608.415 299.794L607.984 299.621L615.564 292.027L615.478 292.2V285.253L615.521 278.306C615.65 273.689 615.737 269.029 615.78 264.369Z" fill="white"/>
<path d="M637.1 264.585C637.1 265.405 637.143 266.268 637.229 267.088C637.315 267.907 637.444 268.727 637.617 269.547C638.004 271.143 638.521 272.74 639.469 274.078C640.373 275.415 641.708 276.451 643.259 277.012C643.431 277.098 643.646 277.141 643.862 277.184C644.077 277.227 644.249 277.314 644.465 277.314L645.068 277.443L645.671 277.486C646.101 277.529 646.489 277.529 646.92 277.529C647.351 277.529 647.738 277.486 648.169 277.486C646.532 277.831 644.809 277.875 643.173 277.4C641.536 276.925 640.072 275.803 639.124 274.423C638.177 272.999 637.617 271.359 637.315 269.676C636.97 267.907 636.884 266.225 637.1 264.585Z" fill="white"/>
<path d="M681.807 145.367C681.549 142.347 681.161 139.154 680.644 139.283C679.826 139.456 679.352 141.57 679.008 144.245C679.955 144.547 680.903 144.936 681.807 145.367Z" fill="#F28766"/>
<path d="M686.717 149.077C686.674 145.841 686.416 139.455 685.339 138.851C684.477 138.377 683.573 142.476 682.927 145.971C684.391 146.877 685.726 147.912 686.717 149.077Z" fill="#F28766"/>
<path d="M695.633 145.194C695.633 144.763 695.202 144.504 694.814 144.763C694.039 145.324 692.747 146.877 691.067 151.321C691.067 151.321 692.187 141.354 691.067 139.973C690.163 138.852 687.966 146.446 687.105 149.639C687.665 150.415 688.095 151.192 688.311 152.055C688.655 153.349 688.741 154.471 688.612 155.507C689.517 157.966 688.828 160.685 687.148 162.669L677.069 162.971C677.069 162.971 676.854 163.964 676.423 165.819C676.036 165.819 675.648 165.776 675.303 165.733C675.562 166.207 675.863 166.682 676.165 167.114C674.743 173.543 671.815 186.789 668.197 202.883C666.517 200.165 664.923 197.619 663.416 195.246C658.247 205.429 651.873 214.879 645.025 224.026C648.901 230.628 653.38 237.833 658.42 245.298C658.506 245.384 658.549 245.514 658.635 245.6C667.594 258.89 688.311 254.014 690.421 238.092C690.464 237.92 690.464 237.747 690.507 237.531C693.565 214.231 694.168 188.774 689.043 164.18C691.627 158.743 695.547 149.854 695.633 145.194Z" fill="white" stroke="#5633EF" stroke-width="1.5" stroke-miterlimit="10"/>
<path d="M670.523 140.577L684.477 166.725C685.08 167.847 686.373 168.408 687.622 168.062C690.206 167.329 694.254 165.732 695.288 162.41C696.796 157.491 684.219 133.069 684.219 133.069L670.523 140.577Z" fill="white" stroke="#5633EF" stroke-width="1.5" stroke-miterlimit="10"/>
<path d="M655.577 106.663L650.882 108.087C649.461 108.518 648.557 109.899 648.815 111.409C649.461 115.681 651.356 125.044 656.697 137.428C657.3 138.808 658.85 139.542 660.272 139.11L664.449 137.859L655.577 106.663Z" fill="#211D53"/>
<path d="M678.749 94.0195L656.568 100.664C653.294 101.657 653.424 111.71 656.869 123.145C660.272 134.579 665.699 143.079 668.972 142.087L691.153 135.442L678.749 94.0195Z" fill="#5633EF" stroke="#5633EF" stroke-miterlimit="10"/>
<path d="M690.852 112.962C694.255 124.396 694.384 134.493 691.153 135.442C687.88 136.435 682.453 127.934 679.051 116.5C675.648 105.066 675.519 94.9692 678.749 94.02C681.979 93.0707 687.449 101.528 690.852 112.962Z" fill="#211D53"/>
<path d="M720.614 67.2686L679.481 99.0256L679.61 101.873C680.127 112.617 683.573 123.361 689.387 132.336L740.641 132.638L720.614 67.2686Z" fill="white" stroke="#5633EF" stroke-width="1.5" stroke-miterlimit="10"/>
<path d="M747.748 94.7969C753.218 113.049 750.892 129.876 742.58 132.379C736.162 134.321 727.979 127.072 722.121 115.249C720.398 111.797 718.891 107.957 717.642 103.858C716.522 100.147 715.747 96.4797 715.273 92.9847C713.378 79.3499 716.22 68.2608 722.81 66.276C731.166 63.7734 742.321 76.5453 747.748 94.7969Z" fill="white" stroke="#5633EF" stroke-width="1.5" stroke-miterlimit="10"/>
<path d="M730.778 99.8885C734.181 111.236 734.568 122.024 732.372 129.143C726.643 124.397 721.044 115.163 717.642 103.815C714.239 92.467 713.852 81.68 716.048 74.5605C721.82 79.35 727.376 88.5405 730.778 99.8885Z" fill="#211D53"/>
<path d="M730.951 91.7334L735.387 106.62L722.078 115.206C720.355 111.754 718.848 107.914 717.599 103.815C716.479 100.104 715.703 96.4365 715.23 92.9415L730.951 91.7334Z" fill="#EBEBEB"/>
<path d="M736.593 98.1626C737.842 102.262 737.282 106.059 735.43 106.62C733.578 107.181 731.037 104.29 729.831 100.191C728.582 96.0915 729.141 92.2945 730.993 91.7335C732.845 91.1726 735.344 94.0204 736.593 98.1626Z" fill="#211D53"/>
<path d="M683.659 96.6094C683.659 96.6094 685.339 120.513 696.322 132.207" stroke="#5633EF" stroke-miterlimit="10"/>
<path d="M734.698 98.2925C735.214 100.45 735.042 102.305 734.267 102.478C733.535 102.65 732.501 101.054 731.984 98.9397C731.467 96.7823 731.64 94.9269 732.415 94.7543C733.147 94.5817 734.181 96.135 734.698 98.2925Z" fill="#5633EF"/>
<path d="M724.102 67.6572C724.102 67.6572 732.156 69.4694 736.98 76.7183C741.804 83.9672 752.141 104.333 749.126 119.435C746.111 134.494 737.583 130.783 737.583 130.783" stroke="#5633EF" stroke-miterlimit="10"/>
<path d="M676.423 168.322C676.423 168.322 671.599 157.707 672.073 155.291C672.547 152.875 678.017 146.964 680.601 147.913C683.185 148.862 679.223 156.37 679.223 156.37C679.223 156.37 685.683 164.223 684.951 168.192" fill="white"/>
<path d="M676.423 168.322C676.423 168.322 671.599 157.707 672.073 155.291C672.547 152.875 678.017 146.964 680.601 147.913C683.185 148.862 679.223 156.37 679.223 156.37C679.223 156.37 685.683 164.223 684.951 168.192" stroke="#5633EF" stroke-width="1.5" stroke-miterlimit="10"/>
<path d="M629.39 159.778C629.39 159.778 650.409 170.911 654.026 175.269C657.644 179.626 667.292 200.122 667.292 200.122L646.36 228.341C646.317 228.341 623.963 194.901 629.39 159.778Z" fill="#5633EF" stroke="#5633EF" stroke-miterlimit="10"/>
<path d="M633.568 167.07C632.663 165.56 632.405 164.093 632.534 162.755C631.328 161.892 630.294 160.943 629.347 159.778C628.959 158.441 628.098 155.161 627.452 151.451C626.892 148.128 626.461 144.504 626.763 141.656C626.892 140.232 627.193 139.024 627.71 138.118L595.795 120.125C595.838 120.211 595.838 120.341 595.838 120.427C596.355 123.404 600.188 146.704 596.226 159.045C593.814 160.166 590.885 160.943 587.224 161.073C583.262 161.202 579.428 162.626 576.542 165.344C573.441 168.278 570.685 173.197 570.642 181.395C573.571 181.741 576.499 182.345 579.385 182.862C588.085 184.416 596.786 186.099 605.529 187.566C616.77 189.421 628.313 189.852 639.727 191.104C639.253 182.647 637.573 173.801 633.568 167.07Z" fill="white" stroke="#5633EF" stroke-width="1.5" stroke-miterlimit="10"/>
<path d="M627.452 151.493C610.095 153.694 601.308 132.94 601.007 132.163C604.194 137.255 608.845 139.843 613.411 141.052C619.01 142.562 624.394 142.087 626.677 141.742C626.72 141.742 626.763 141.742 626.763 141.699C626.504 144.547 626.892 148.171 627.452 151.493Z" fill="#5633EF" stroke="#5633EF" stroke-miterlimit="10"/>
<path d="M642.57 187.954C643.044 189.68 643.603 191.406 644.293 193.046C645.886 196.843 648.04 200.424 648.987 204.437C650.71 211.815 648.083 219.452 645.455 226.572" fill="#5633EF"/>
<path d="M611.645 225.881C616.383 225.363 621.25 225.752 625.858 227.089L611.645 225.881Z" fill="#5633EF"/>
<path d="M577.964 289.568C579.17 288.662 582.874 290.301 584.597 291.509C584.941 291.768 585.415 291.639 585.63 291.25C586.018 290.474 586.276 289.093 584.511 287.755C582.271 285.986 577.748 282.578 571.116 280.722C570.383 279.385 558.884 258.803 545.144 233.734C549.322 229.031 553.414 224.414 557.376 220.013C556.041 218.762 554.663 217.51 553.327 216.216C547.125 210.305 540.708 204.695 534.549 198.827C532.826 200.683 531.103 202.624 529.337 204.609C525.375 209.096 521.326 213.886 517.277 218.977C512.109 225.45 511.937 234.554 516.761 241.285C519.948 245.729 523.35 250.13 526.925 254.445C537.305 267.044 549.193 278.91 562.717 288.791L562.76 288.748C564.138 293.882 567.627 305.964 571.202 310.106C571.503 310.451 571.977 310.322 572.063 309.89C572.278 308.984 572.192 306.913 570.513 302.512C570.513 302.512 576.284 310.71 578.05 311.012C579.816 311.314 574.001 299.88 574.001 299.88C574.001 299.88 581.453 308.38 583.046 308.035C584.64 307.647 577.533 297.032 577.533 297.032C577.533 297.032 585.717 305.36 586.276 304.583C587.741 302.642 576.543 290.603 577.964 289.568Z" fill="white" stroke="#5633EF" stroke-width="1.5" stroke-miterlimit="10"/>
<path d="M653.079 184.157C650.193 178.375 629.562 160.426 629.562 160.426C629.562 160.426 628.055 174.276 622.025 177.858C615.995 181.439 595.537 158.786 595.537 158.786C588.387 158.916 582.874 159.908 578.61 161.332C568.833 160.685 537.951 190.414 528.82 203.66L552.897 225.838L574.518 209.097C578.438 220.963 580.979 229.635 581.797 235.978C583.477 249.484 577.964 261.047 577.964 261.047H643.991C643.991 261.047 641.278 236.927 648.513 219.064C655.706 201.287 655.965 189.982 653.079 184.157Z" fill="#5633EF" stroke="#5633EF" stroke-miterlimit="10"/>
<path d="M594.891 161.246C594.891 161.246 611.559 183.942 621.81 182.388C632.06 180.835 630.768 160.9 630.768 160.9" stroke="white" stroke-miterlimit="10"/>
<path d="M643.819 112.53C643.474 103.124 642.311 93.4157 639.081 85.0449C634.903 74.301 615.263 70.1156 601.566 82.0677C595.192 87.5906 593.857 97.6442 594.244 106.835C593.9 106.662 593.598 106.533 593.426 106.49C590.627 105.799 587.827 107.913 587.009 110.545C586.363 112.617 586.793 114.99 587.999 116.845C588.99 118.355 590.583 119.822 592.306 120.47C592.737 120.642 594.675 120.944 596.01 120.858C597.303 126.899 600.404 132.465 605.141 136.434C608.415 139.153 617.33 143.64 625.901 143.209C637.315 142.605 641.751 134.881 642.957 130.437C644.809 123.404 643.862 114.472 643.819 112.53Z" fill="white" stroke="#5633EF" stroke-width="1.5" stroke-miterlimit="10"/>
<path d="M622.8 94.1059C621.982 93.3724 621.034 93.1566 620.087 93.1135C619.139 93.0703 618.106 93.1998 617.201 93.545C616.253 93.847 615.392 94.3648 614.66 95.012C613.885 95.6161 613.368 96.4359 612.937 97.2557C612.722 97.644 612.851 98.1618 613.282 98.4207C613.626 98.5933 614.014 98.5501 614.272 98.2912L614.358 98.205C614.918 97.6872 615.478 97.1694 616.081 96.8242C616.684 96.4359 617.33 96.2201 618.019 96.0475C618.709 95.875 619.398 95.7887 620.087 95.8318C620.776 95.875 621.551 95.875 622.326 95.7024L622.542 95.6592C623.016 95.5298 623.317 95.0551 623.188 94.5805C623.059 94.4079 622.929 94.2353 622.8 94.1059Z" fill="#121B46"/>
<path d="M640.847 88.195C640.072 84.7863 638.65 81.6797 636.281 79.0476C631.199 73.4815 623.016 71.9282 615.478 71.7556C610.396 71.6262 605.141 72.0145 600.576 74.215C593.34 77.71 588.99 85.0884 583.692 91.1291C575.767 100.147 565 106.576 553.327 109.251C543.766 111.452 533.86 111.193 524.083 112.056C514.306 112.919 504.227 115.163 496.733 121.505C490.875 126.424 486.913 133.63 480.108 137.082C476.317 139.024 472.01 139.584 467.832 140.145L460.941 141.052C450.776 142.389 445.048 153.78 450.389 162.539C450.432 162.582 450.475 162.669 450.475 162.712C454.007 168.364 459.649 172.722 461.759 179.065C463.698 184.847 462.362 191.147 462.836 197.23C463.568 206.766 468.995 215.655 476.49 221.609C483.984 227.564 493.416 230.757 502.935 231.792C506.424 232.18 509.912 232.267 513.444 232.094C512.97 227.477 514.306 222.688 517.364 218.848C521.412 213.799 525.461 209.01 529.423 204.479C529.466 204.393 529.553 204.35 529.639 204.264L528.906 203.616C538.037 190.37 569.134 160.425 578.782 161.331C581.108 160.813 583.305 160.813 585.286 161.245C585.975 161.115 586.707 161.072 587.396 161.029C591.057 160.9 594.029 160.123 596.398 159.044C600.231 147.049 596.743 124.828 596.054 120.729C594.675 120.858 592.823 120.513 592.393 120.384C590.67 119.736 589.076 118.312 588.085 116.759C586.879 114.904 586.449 112.574 587.095 110.459C587.87 108.043 590.325 106.102 592.909 106.36C594.115 108.432 595.58 110.33 597.259 112.013C597.776 112.531 598.422 113.048 599.155 113.005C600.102 112.962 600.748 112.013 601.179 111.15C601.739 110.071 602.773 108.949 603.332 107.827C610.181 108.216 617.158 105.152 621.508 99.845C622.843 98.2054 623.92 96.3932 625.04 94.6241C626.504 92.2078 627.969 89.7915 629.433 87.3752C632.663 90.9997 637.789 97.515 642.613 98.1191C642.484 98.2486 642.613 93.4591 640.847 88.195Z" fill="#211D53"/>
<path d="M410.29 415.561C407.792 416.467 405.725 417.2 404.303 417.718C400.944 415.949 397.886 415.69 396.335 415.604C395.259 415.561 394.914 416.121 394.785 416.553C394.742 416.769 394.871 416.941 395.086 416.984C396.12 417.114 398.058 417.718 398.187 418.451C398.36 419.314 390.305 420.134 390.219 421.299C390.176 421.774 395.948 421.342 395.948 421.342C395.948 421.342 389.875 422.982 390.349 423.629C390.822 424.276 396.378 423.543 396.378 423.543C396.378 423.543 390.521 425.916 391.296 426.391C392.071 426.865 396.852 425.7 396.852 425.7C394.785 426.779 394.139 427.556 393.923 427.944C393.837 428.16 393.967 428.332 394.182 428.332C396.292 428.03 400.039 425.83 402.581 424.19V424.276C405.983 424.579 409.343 424.665 412.702 424.579C411.798 421.644 410.979 418.624 410.29 415.561Z" fill="#F28766"/>
<path d="M447.115 376.641L432.299 407.233L404.863 416.423L405.94 425.657C405.94 425.657 438.458 423.672 443.67 418.408C448.924 413.144 458.831 387.816 459.218 385.313C459.563 382.768 447.115 376.641 447.115 376.641Z" fill="#5633EF" stroke="#5633EF" stroke-miterlimit="10"/>
<path d="M456.247 372.239C456.247 372.239 449.398 379.272 449.657 384.795C449.915 390.318 450.389 420.608 450.389 420.608L447.589 421.946L441.818 419.875C441.818 419.875 444.617 387.859 444.704 384.407C444.79 380.955 445.78 375.734 449.054 374.267C452.241 372.8 456.247 372.239 456.247 372.239Z" fill="#5633EF" stroke="#5633EF" stroke-miterlimit="10"/>
<path d="M367.263 433.51C355.074 435.063 346.718 436.185 346.718 436.185L344.005 447.835L368.426 448.094C367.823 443.304 367.478 438.429 367.263 433.51Z" fill="#5633EF" stroke="#5633EF" stroke-miterlimit="10"/>
<path d="M348.441 435.667C348.441 435.667 345.857 432.949 344.78 430.576C343.703 428.202 344.306 417.545 338.965 418.235V442.873L341.162 445.073H338.75V449.992C338.75 449.992 344.177 451.891 347.493 450.122C347.493 450.122 344.306 446.584 345.727 442.657C347.149 438.774 348.441 435.667 348.441 435.667Z" fill="#5633EF" stroke="#5633EF" stroke-miterlimit="10"/>
<path d="M360.974 432.69V449.216H477.997C477.997 449.216 473.905 425.57 464.387 422.55C454.868 419.573 360.974 432.69 360.974 432.69Z" fill="#211D53"/>
<path d="M370.235 429.928L353.179 439.42L351.8 447.575L355.72 452.149L359.467 450.898C359.467 450.898 359.51 450.855 359.639 450.811C360.845 450.294 367.909 447.403 377.858 443.261C375.188 438.946 372.603 434.501 370.235 429.928Z" fill="white" stroke="#5633EF" stroke-width="1.5" stroke-miterlimit="10"/>
<path d="M353.695 437.91C353.695 437.91 350.121 436.702 348.096 435.063C346.072 433.466 341.722 423.715 337.286 426.778L348.57 448.654L351.499 449.604L349.345 450.725L351.585 455.083C351.585 455.083 357.27 454.264 359.424 451.157C359.424 451.157 354.945 449.474 354.428 445.332C353.954 441.233 353.695 437.91 353.695 437.91Z" fill="#5633EF" stroke="white" stroke-miterlimit="10"/>
<path d="M360.759 433.811L367.607 447.921L410.764 430.748C410.764 430.748 460.424 458.449 473.776 453.185C487.128 447.921 487.86 422.248 482.433 419.184C477.006 416.121 447.46 420.22 447.46 420.22L445.953 421.557C445.953 421.557 416.492 409.088 409.472 409.433C402.494 409.735 360.759 433.811 360.759 433.811Z" fill="#211D53"/>
<path d="M368.167 447.359L410.979 430.532L408.653 427.641" stroke="white" stroke-miterlimit="10"/>
<path d="M482.218 374.914C480.797 373.576 478.902 372.886 476.963 372.8C475.154 372.757 473.733 372.368 472.527 371.807C470.589 365.723 472.441 354.246 472.699 352.779C472.699 352.736 472.699 352.693 472.743 352.606L457.022 361.452C457.28 361.883 457.452 362.487 457.496 363.178C457.625 364.602 457.452 366.371 457.151 368.01C456.85 369.823 456.419 371.462 456.247 372.109C454.954 373.663 453.275 374.483 450.992 375.691C451.035 376.295 450.992 376.899 450.863 377.503C450.174 381.171 451.38 386.305 451.207 390.102C450.992 394.546 450.863 398.948 450.906 403.392C450.949 408.915 451.164 414.179 451.595 419.529H481.357C480.495 411.59 482.52 399.767 484.759 386.693C485.879 380.264 484.199 376.769 482.218 374.914Z" fill="white" stroke="#5633EF" stroke-width="1.5" stroke-miterlimit="10"/>
<path d="M457.151 368.053C465.679 369.132 470.029 358.906 470.158 358.518C468.565 361.02 466.282 362.271 464.042 362.919C461.286 363.652 458.615 363.436 457.496 363.264H457.452C457.668 364.645 457.452 366.457 457.151 368.053Z" fill="#5633EF" stroke="#5633EF" stroke-miterlimit="10"/>
<path d="M456.16 372.498C456.16 372.498 452.844 379.402 455.256 380.998C457.668 382.551 472.7 371.851 472.7 371.851C472.7 371.851 480.883 372.8 483.166 378.625C485.448 384.45 482.218 420.22 482.218 420.22C482.218 420.22 454.524 421.903 447.546 420.22C447.546 420.22 447.675 402.486 446.814 396.92C445.953 391.354 446.469 381.99 448.192 378.193C449.097 376.165 456.16 372.498 456.16 372.498Z" fill="#2CD3DB"/>
<path d="M472.915 371.376C472.915 371.376 460.08 377.33 461.372 383.846C462.621 390.361 468.22 454.954 468.22 454.954C468.22 454.954 485.018 455.515 491.349 452.236C497.68 448.999 483.381 404.816 484.113 400.674C484.845 396.531 488.636 377.891 483.209 374.44C477.825 371.031 472.915 371.376 472.915 371.376Z" fill="#5633EF" stroke="#5633EF" stroke-miterlimit="10"/>
<path d="M469.082 448.741C469.082 448.741 480.538 455.386 491.952 448.611L469.082 448.741Z" fill="#5633EF"/>
<path d="M427.127 389.288L428.93 387.494L418.459 376.931L416.655 378.725L427.127 389.288Z" fill="#211D53"/>
<path d="M421.359 390.232C421.359 390.232 421.919 391.311 422.393 391.527C422.824 391.743 425.063 392.26 425.15 392.26C425.236 392.347 427.303 394.073 430.361 396.618C431.309 395.324 432.299 394.073 433.29 392.778C433.979 391.915 434.625 391.009 435.271 390.146C433.936 389.542 432.773 389.024 431.912 388.593L429.973 387.083C429.112 386.004 426.571 381.862 425.365 381.948C423.944 382.034 424.03 382.595 424.03 382.595C424.03 382.595 426.269 385.443 425.753 386.565C425.279 387.644 420.412 382.336 420.412 382.336L419.12 381.301C419.12 381.301 418.904 384.278 419.981 385.27C419.981 385.27 419.335 386.91 420.541 388.118C420.498 388.161 420.541 389.758 421.359 390.232Z" fill="white" stroke="#5633EF" stroke-width="1.5" stroke-miterlimit="10"/>
<path d="M471.666 376.079L461.932 400.501L430.706 387.125C430.706 387.125 425.279 393.986 425.839 394.201C426.399 394.374 454.007 421.342 465.593 419.357C477.136 417.372 484.931 383.371 484.931 383.371L471.666 376.079Z" fill="#5633EF" stroke="#5633EF" stroke-miterlimit="10"/>
<path d="M465.119 419.443C465.119 419.443 468.608 419.098 470.89 415.948C473.173 412.799 481.357 396.187 481.357 396.187" stroke="white" stroke-miterlimit="10"/>
<path d="M466.799 402.787L461.846 400.371L465.464 399.422" fill="#5633EF"/>
<path d="M467.143 382.033C467.143 382.033 469.814 373.835 475.801 374.051L467.143 382.033Z" fill="#5633EF"/>
<path d="M477.093 347.947C476.662 346.653 475.284 345.617 473.948 345.962C473.862 346.005 473.69 346.049 473.561 346.135C473.733 341.604 473.087 336.685 469.943 333.967C463.224 328.099 453.533 330.17 451.466 335.434C449.14 341.475 449.011 348.939 449.097 355.369C449.097 356.188 449.14 357.051 449.398 357.828C450.475 360.848 454.782 362.747 457.711 363.351C461.458 364.128 465.248 363.135 468.177 360.676C470.503 358.734 472.01 355.973 472.656 353.039C473.345 353.082 474.293 352.952 474.465 352.866C475.327 352.564 476.102 351.83 476.576 351.097C477.222 350.148 477.437 348.983 477.093 347.947Z" fill="white" stroke="#5633EF" stroke-width="1.5" stroke-miterlimit="10"/>
<path d="M477.782 341.474C477.265 339.835 476.447 337.936 474.767 337.634C475.413 336.21 475.413 334.484 474.724 333.061C474.121 331.809 473.087 330.86 471.924 330.083C470.331 329.048 468.522 328.314 466.626 328.055C463.741 327.624 460.769 328.185 457.926 328.746C456.419 329.048 454.567 329.264 453.102 329.566C451.595 328.401 449.269 329.005 448.063 330.472C446.857 331.939 446.556 333.967 446.599 335.865C446.685 339.619 447.891 343.2 449.269 346.738C449.355 345.271 449.528 343.848 449.743 342.424C450.26 340.87 451.164 339.446 452.327 338.238C455.945 341.906 461.716 343.2 466.54 341.474C466.67 342.683 466.971 343.761 467.488 344.883C468.048 346.221 469.038 347.558 470.417 347.817C471.02 347.947 471.795 347.731 472.01 347.127C472.183 346.609 473.561 346.091 473.561 346.134C473.733 346.048 473.862 346.005 473.948 345.962C475.327 345.617 476.705 346.652 477.093 347.947C477.437 348.982 477.222 350.147 476.619 351.053C476.145 351.787 475.327 352.52 474.508 352.822C474.293 352.909 473.345 353.081 472.656 352.995C472.312 354.548 471.752 356.058 470.934 357.396C472.096 357.525 473.302 357.439 474.336 356.921C475.8 356.145 476.662 354.548 477.394 353.038C478.04 351.701 478.643 350.32 478.902 348.853C479.246 346.393 478.557 343.891 477.782 341.474Z" fill="#211D53"/>
<path d="M337.587 157.879C334.787 154.557 330.653 152.313 326.303 152.313C321.134 152.27 315.707 154.859 311.099 152.615C304.896 149.595 304.38 139.8 298.091 136.996C293.698 135.011 288.745 137.427 284.007 138.333C275.996 139.843 267.253 136.607 262.17 130.221C260.189 127.762 258.768 124.871 256.528 122.627C252.35 118.442 245.761 117.191 240.118 118.83C234.476 120.47 229.781 124.742 226.939 129.919C224.742 133.932 223.149 138.894 218.928 140.62C214.104 142.605 208.332 139.11 203.465 141.008C199.977 142.389 198.038 146.316 197.866 150.07C197.737 152.745 198.34 155.377 199.115 157.923H337.587V157.879Z" fill="white" stroke="#5633EF" stroke-width="1.5" stroke-miterlimit="10"/>
<path d="M1066.47 221.911C1065.52 219.581 1063.24 217.683 1060.96 216.949C1057.6 215.871 1053.94 216.13 1050.84 214.36C1047.35 212.376 1044.55 207.975 1040.67 208.406C1037.57 208.751 1035.33 212.203 1032.27 212.893C1025.94 214.317 1021.72 203.703 1015.3 203.703C1011.47 203.703 1008.24 207.586 1004.41 207.716C999.409 207.888 996.136 202.15 993.078 197.619C988.555 190.888 980.76 185.322 974.084 188.903C969.648 191.319 967.365 196.885 964.953 201.804C962.541 206.723 958.88 211.815 953.97 211.815C948.801 211.815 943.59 206.119 939.11 209.053C937 210.434 935.966 213.411 936.009 216.173C936.009 218.114 936.44 220.013 937 221.911H1066.47Z" fill="white" stroke="#5633EF" stroke-width="1.5" stroke-miterlimit="10"/>
<path d="M154.623 360.373C158.457 358.345 163.065 358.259 166.941 360.244C176.934 365.249 188.175 368.097 200.106 368.097C225.862 368.097 249.895 354.548 263.376 332.672C263.936 331.766 263.635 330.601 262.687 330.04L252.566 324.172C244.727 319.598 234.735 320.289 227.843 326.2C220.22 332.715 210.4 336.512 200.063 336.512C173.876 336.512 153.159 312.781 158.112 285.684C160.524 272.524 169.224 261.132 181.241 255.351C197.694 247.411 215.654 250.82 227.929 261.391C234.691 267.216 244.512 267.907 252.264 263.419L262.644 257.379C263.549 256.861 263.85 255.653 263.333 254.747C244.512 224.198 205.016 209.959 169.224 226.096C146.526 236.322 130.332 257.853 126.671 282.534C124.172 299.448 127.446 315.499 134.768 329.048C136.921 333.06 137.007 337.893 134.897 341.949L116.678 376.554C115.774 378.237 117.626 380.049 119.305 379.186L154.623 360.373Z" fill="#2CD3DB"/>
<path d="M950.051 93.545C951.3 92.8978 952.807 92.8546 954.099 93.5018C957.372 95.1415 961.077 96.0907 964.996 96.0907C973.438 96.0907 981.363 91.6465 985.799 84.4407C985.971 84.1387 985.885 83.7503 985.584 83.5778L982.267 81.6361C979.683 80.1259 976.41 80.3416 974.127 82.2833C971.629 84.4407 968.399 85.6489 964.996 85.6489C956.382 85.6489 949.577 77.8391 951.213 68.9505C951.989 64.6357 954.874 60.8818 958.837 58.9833C964.221 56.3944 970.121 57.5163 974.17 60.9681C976.41 62.8666 979.64 63.1255 982.181 61.6153L985.584 59.6305C985.885 59.4579 985.971 59.0696 985.799 58.7676C979.597 48.7141 966.633 44.0541 954.874 49.3613C947.423 52.7268 942.082 59.8031 940.92 67.915C940.101 73.4811 941.178 78.7452 943.59 83.1894C944.322 84.527 944.322 86.0803 943.633 87.4179L937.646 98.7659C937.345 99.3268 937.948 99.9309 938.508 99.6289L950.051 93.545Z" fill="#2CD3DB"/>
<path d="M1081.33 313.428C1083.22 312.436 1085.46 312.393 1087.36 313.342C1092.23 315.801 1097.74 317.182 1103.6 317.182C1116.17 317.182 1127.97 310.58 1134.52 299.836C1134.78 299.405 1134.65 298.801 1134.18 298.542L1129.22 295.651C1125.39 293.407 1120.52 293.753 1117.12 296.644C1113.37 299.836 1108.59 301.692 1103.55 301.692C1090.76 301.692 1080.6 290.085 1083.05 276.839C1084.22 270.409 1088.48 264.843 1094.38 261.996C1102.43 258.112 1111.22 259.795 1117.21 264.93C1120.52 267.777 1125.3 268.123 1129.09 265.922L1134.18 262.988C1134.61 262.729 1134.78 262.125 1134.52 261.694C1125.3 246.764 1106.01 239.774 1088.48 247.67C1077.37 252.676 1069.44 263.204 1067.68 275.285C1066.47 283.57 1068.06 291.423 1071.64 298.024C1072.72 300.009 1072.72 302.339 1071.68 304.324L1062.77 321.238C1062.34 322.058 1063.24 322.964 1064.06 322.532L1081.33 313.428Z" fill="#2CD3DB"/>
<path d="M620.991 125.604C621.723 126.338 622.671 127.028 623.662 127.546C624.652 128.064 625.729 128.452 626.806 128.668C627.926 128.884 629.045 128.97 630.165 128.841C630.725 128.797 631.285 128.668 631.845 128.582C632.405 128.452 632.922 128.237 633.482 128.107C632.965 128.323 632.405 128.539 631.888 128.711C631.328 128.841 630.768 129.013 630.208 129.099C629.088 129.315 627.882 129.272 626.763 129.143C625.6 129.013 624.48 128.668 623.403 128.193C622.326 127.719 621.336 127.115 620.388 126.295L620.991 125.604Z" fill="#5633EF" stroke="#5433ED" stroke-width="0.25"/>
<path d="M619.01 128.625C619.096 128.064 619.312 127.503 619.57 126.985C619.828 126.467 620.087 125.993 620.431 125.518C620.776 125.086 621.163 124.655 621.594 124.267C622.025 123.878 622.499 123.533 623.059 123.317L621.163 126.036C620.862 126.467 620.517 126.899 620.173 127.33C619.785 127.805 619.441 128.236 619.01 128.625Z" fill="#5633EF" stroke="#5433ED" stroke-width="0.25"/>
<path d="M631.673 111.495C631.974 111.538 632.233 111.323 632.448 111.15L633.094 110.503C633.31 110.287 633.568 110.071 633.869 109.899C634.171 109.726 634.516 109.597 634.903 109.597C635.291 109.597 635.635 109.683 635.98 109.856C636.281 110.028 636.583 110.244 636.798 110.503C637.272 111.064 637.487 111.754 637.53 112.401C637.617 113.739 637.143 115.033 636.368 116.026C635.592 117.018 634.472 117.752 633.267 118.054C634.386 117.493 635.291 116.716 635.894 115.724C636.195 115.249 636.454 114.688 636.583 114.127C636.712 113.566 636.798 113.005 636.712 112.444C636.669 111.884 636.454 111.366 636.152 111.021C635.851 110.675 635.334 110.373 634.903 110.373C634.429 110.33 633.956 110.589 633.439 110.891C633.18 111.021 632.922 111.236 632.62 111.366C632.491 111.452 632.319 111.495 632.147 111.538C631.974 111.625 631.802 111.581 631.673 111.495Z" fill="#5633EF" stroke="#5433ED" stroke-width="0.25"/>
<path d="M665.139 221.868C665.225 221.609 664.148 212.203 668.11 202.883L665.139 221.868Z" fill="white"/>
<path d="M665.139 221.868C665.225 221.609 664.148 212.203 668.11 202.883" stroke="#5633EF" stroke-width="1.5" stroke-miterlimit="10"/>
<path d="M641.536 179.626C641.536 179.626 646.661 196.152 650.021 205.17C653.38 214.188 646.791 218.675 645.283 230.239C643.776 241.802 643.819 252.374 643.733 257.854" stroke="white" stroke-miterlimit="10"/>
<path d="M578.05 195.375C578.05 195.375 578.481 202.84 574.518 209.139" stroke="white" stroke-miterlimit="10"/>
<path d="M605.787 239.602C605.787 239.602 618.752 219.625 640.632 220.099" stroke="white" stroke-miterlimit="10"/>
<path d="M619.225 246.592C619.225 246.592 625.729 232.914 635.592 229.721" stroke="white" stroke-miterlimit="10"/>
<path d="M887.986 247.325C887.598 247.671 887.21 247.886 886.737 248.102C886.306 248.275 885.832 248.447 885.358 248.49C884.885 248.534 884.411 248.534 883.937 248.447C883.463 248.361 883.033 248.232 882.602 248.059C883.033 248.188 883.506 248.318 883.98 248.361C884.454 248.404 884.885 248.361 885.358 248.275C885.789 248.188 886.22 248.016 886.651 247.8C887.038 247.584 887.426 247.325 887.727 247.023L887.986 247.325Z" fill="#5633EF" stroke="#5433ED" stroke-width="0.25"/>
<path d="M888.632 248.145C888.244 247.843 887.986 247.498 887.684 247.109C887.426 246.764 887.167 246.376 886.909 245.987C887.383 246.16 887.727 246.505 888.029 246.85C888.158 247.023 888.287 247.239 888.416 247.454C888.503 247.67 888.589 247.929 888.632 248.145Z" fill="#5633EF" stroke="#5433ED" stroke-width="0.25"/>
<path d="M885.488 237.962C885.358 238.264 885.229 238.566 885.014 238.868C884.885 238.997 884.799 239.127 884.583 239.213C884.325 239.3 884.109 239.17 883.98 239.084C883.679 238.868 883.506 238.739 883.248 238.782C883.119 238.782 882.989 238.868 882.86 238.911C882.731 238.997 882.645 239.084 882.559 239.17C882.214 239.645 882.128 240.292 882.257 240.896C882.386 241.5 882.774 242.061 883.377 242.363C882.731 242.234 882.171 241.673 881.956 240.982C881.74 240.335 881.783 239.558 882.214 238.911C882.343 238.739 882.473 238.609 882.645 238.523C882.817 238.437 882.989 238.35 883.162 238.307C883.377 238.264 883.592 238.307 883.765 238.437C883.937 238.523 884.066 238.652 884.195 238.782C884.325 238.868 884.411 238.954 884.497 238.911C884.583 238.868 884.755 238.782 884.842 238.695C885.1 238.48 885.272 238.221 885.488 237.962Z" fill="#5633EF" stroke="#5433ED" stroke-width="0.25"/>
<path d="M462.707 398.56C462.707 398.56 468.306 376.641 474.379 375.217" stroke="white" stroke-miterlimit="10"/>
<path d="M425.796 394.158C425.796 394.158 444.101 411.806 454.653 416.293" stroke="white" stroke-miterlimit="10"/>
<path d="M454.696 346.695C454.696 346.695 452.585 345.487 452.542 347.213C452.499 348.939 454.911 350.794 454.911 350.794" fill="white"/>
<path d="M454.696 346.695C454.394 346.609 454.093 346.566 453.835 346.566C453.576 346.523 453.275 346.566 453.102 346.652C452.973 346.739 452.887 346.911 452.887 347.17C452.887 347.299 452.887 347.429 452.887 347.558C452.93 347.688 452.93 347.817 452.973 347.947C453.145 348.465 453.447 348.982 453.791 349.414C454.136 349.888 454.524 350.363 454.911 350.794C454.351 350.492 453.878 350.147 453.447 349.673C453.016 349.241 452.629 348.723 452.413 348.076C452.284 347.774 452.241 347.429 452.284 347.041C452.284 346.868 452.327 346.695 452.456 346.48C452.542 346.307 452.715 346.135 452.93 346.048C453.145 345.962 453.318 345.962 453.49 345.962C453.662 345.962 453.835 346.048 453.964 346.091C454.222 346.307 454.481 346.48 454.696 346.695Z" fill="#5633EF" stroke="#5633EF" stroke-width="0.25"/>
<path d="M453.878 357.224C453.878 357.224 454.782 357.698 456.333 357.267C458.529 356.619 459.477 355.454 459.821 354.894" fill="white"/>
<path d="M453.878 357.224C454.437 357.353 454.997 357.31 455.514 357.224C456.031 357.137 456.591 356.921 457.065 356.706C457.539 356.447 458.012 356.188 458.443 355.843C458.874 355.498 459.218 355.109 459.52 354.678L460.08 355.023C459.778 355.541 459.348 356.015 458.831 356.361C458.357 356.706 457.797 357.008 457.237 357.18C456.677 357.353 456.117 357.526 455.514 357.569C454.954 357.655 454.351 357.569 453.878 357.224Z" fill="#5633EF" stroke="#5633EF" stroke-width="0.25"/>
<path d="M459.089 353.47C459.089 353.47 458.874 355.282 461.932 355.368L459.089 353.47Z" fill="white"/>
<path d="M459.089 353.47C459.304 353.815 459.434 353.987 459.606 354.203C459.735 354.419 459.95 354.592 460.209 354.721C460.338 354.807 460.467 354.85 460.596 354.937L461.027 355.109L461.458 355.239C461.63 355.282 461.759 355.325 461.932 355.368C461.63 355.454 461.286 355.498 460.941 355.498C460.769 355.498 460.596 355.454 460.424 355.454C460.252 355.411 460.08 355.368 459.907 355.282C459.563 355.152 459.261 354.937 459.046 354.592C458.874 354.246 458.831 353.772 459.089 353.47Z" fill="#5633EF" stroke="#5633EF" stroke-width="0.25"/>
</svg>
