<svg width="578" height="344" viewBox="0 0 578 344" fill="none" xmlns="http://www.w3.org/2000/svg">
<path d="M255.205 49.5937C252.625 46.9182 249.472 45.1345 245.65 44.2108C233.96 41.376 220.805 46.2174 213.734 55.9641C207.396 64.7234 206.122 76.2537 207.013 87.0197C207.905 97.8174 210.708 108.36 211.6 119.158C212.396 128.746 202.331 136.581 195.642 141.932C194.432 142.92 193.062 144.353 193.636 145.818C194.018 146.774 195.101 147.188 196.056 147.474C207.173 150.755 220.041 146.869 227.462 137.951C227.526 140.626 227.622 143.334 227.685 146.009C232.049 145.468 235.839 142.378 238.069 138.588C240.299 134.797 241.222 130.338 241.636 125.943C243.07 111.291 238.642 97.3715 238.26 82.9108C237.846 66.6663 243.42 54.5308 253.708 56.3782C257.913 57.1426 259.919 55.7093 257.212 52.0145C256.607 51.1226 255.938 50.3263 255.205 49.5937Z" fill="#211D53"/>
<path d="M251.925 52.492C251.383 51.7594 248.007 34.8142 255.587 25.5772C263.136 16.3402 266.959 23.3476 266.258 31.5016C265.525 39.6876 259.887 48.7016 251.925 52.492Z" fill="#5633EF"/>
<path d="M254.313 52.1417C253.517 52.5876 236.285 53.4794 228.227 44.6883C220.168 35.8972 227.621 33.0943 235.616 34.9735C243.579 36.8209 251.701 43.7009 254.313 52.1417Z" fill="#5633EF"/>
<path d="M404.622 204.807C398.475 198.66 379.587 184.741 376.529 180.6C372.707 175.408 339.931 157.412 329.229 158.208C328.369 171.172 340.759 181.906 340.759 181.906L367.515 208.693C383.186 222.708 402.392 230.735 424.243 234.207C422.236 228.187 410.77 210.955 404.622 204.807Z" fill="white" stroke="#5633EF" stroke-miterlimit="10"/>
<path d="M316.87 148.302C318.813 148.238 336.109 142.059 349.869 152.506C363.056 162.54 393.601 189.518 393.601 189.518C393.601 189.518 375.86 208.12 358.055 216.911L334.803 180.345L316.87 148.302Z" fill="#2CD3DB" stroke="#5633EF" stroke-miterlimit="10"/>
<path d="M357.258 287.463C357.258 287.463 352.13 266.6 351.111 254.178C350.57 247.425 350.824 230.289 359.679 216.115C367.196 204.043 359.775 185.282 355.889 180.218C342.798 163.113 333.401 152.347 322.858 149.321C312.347 146.295 282.311 146.391 282.311 146.391C278.616 146.709 257.339 150.149 257.339 150.149C252.02 152.507 246.191 165.12 247.593 175.121C249.058 185.569 250.268 195.921 252.88 208.693C255.492 221.498 259.569 231.435 260.493 235.512C262.34 243.73 263.2 252.298 258.868 260.548C249.854 277.716 242.496 288.832 239.502 303.261" fill="white"/>
<path d="M357.258 287.463C357.258 287.463 352.13 266.6 351.111 254.178C350.57 247.425 350.824 230.289 359.679 216.115C367.196 204.043 359.775 185.282 355.889 180.218C342.798 163.113 333.401 152.347 322.858 149.321C312.347 146.295 282.311 146.391 282.311 146.391C278.616 146.709 257.339 150.149 257.339 150.149C252.02 152.507 246.191 165.12 247.593 175.121C249.058 185.569 250.268 195.921 252.88 208.693C255.492 221.498 259.569 231.435 260.493 235.512C262.34 243.73 263.2 252.298 258.868 260.548C249.854 277.716 242.496 288.832 239.502 303.261" stroke="#5633EF" stroke-miterlimit="10"/>
<path d="M159.267 220.351C165.033 210.349 172.486 207.833 181.946 200.73C191.438 193.627 210.931 178.052 222.939 169.898C236.572 160.629 247.274 152.315 257.467 152.411C257.467 152.411 259.123 152.092 261.99 160.183C264.856 168.273 264.57 188.053 258.008 193.309C251.447 198.564 198.254 228.059 198.254 228.059L159.267 220.351Z" fill="white" stroke="#5633EF" stroke-miterlimit="10"/>
<path d="M257.339 150.149C251.51 150.086 243.42 153.717 236.413 158.877C227.781 165.247 205.07 182.702 205.07 182.702C205.07 182.702 209.657 207.132 225.424 213.375C225.424 213.375 254.887 197.035 257.244 195.315C259.601 193.595 263.678 189.614 264.41 175.79C265.175 161.966 260.493 155.564 257.339 150.149Z" fill="#2CD3DB" stroke="#5633EF" stroke-miterlimit="10"/>
<path d="M270.781 36.9478C287.025 30.5137 298.97 31.7559 307.028 33.5396C340.696 18.3144 368.343 63.353 338.179 85.713C338.179 85.713 336.778 120.782 310.118 129.159L280.846 135.274C276.419 123.107 250.778 119.126 243.93 91.9878C235.839 66.347 253.422 43.8278 270.781 36.9478Z" fill="#211D53"/>
<path d="M322.604 49.625C328.656 52.0457 337.638 64.882 341.524 94.1539C344.805 118.966 337.288 126.197 333.529 128.586C329.771 130.975 322.668 134.064 314.928 133.969L316.871 148.27C316.871 148.27 320.438 154.8 321.521 160.661C322.604 166.521 319.387 174.007 319.387 174.007C319.387 174.007 303.62 169.069 296.836 164.961C286.611 158.781 282.885 150.723 282.885 150.723L278.171 115.049C278.171 115.049 274.157 120.241 266.704 116.45C258.709 112.373 257.021 103.136 261.098 97.4665C265.175 91.7969 274.794 92.9435 277.788 99.4095C277.788 99.4095 288.395 97.0843 302.346 84.9169C317.508 71.8257 319.928 60.6776 322.604 49.625Z" fill="white" stroke="#5633EF" stroke-miterlimit="10"/>
<path d="M314.736 133.491C306.614 133.682 289.542 131.516 285.974 125.464C285.974 125.464 287.471 129.382 292.982 132.822C298.524 136.262 315.405 138.459 315.405 138.459L314.736 133.491Z" fill="#5633EF"/>
<path d="M410.77 223.091C402.743 217.58 392.041 213.217 367.547 208.694C367.547 208.694 346.238 202.132 343.594 200.285C340.95 198.437 335.599 198.246 331.682 196.813C327.796 195.38 313.653 190.252 309.959 187.799C306.264 185.346 304.639 183.69 298.301 183.308C291.962 182.894 283.362 181.874 281.292 182.066C279.253 182.257 277.406 186.78 275.367 190.252C273.329 193.723 272.278 194.201 273.87 201.145C274.922 205.7 276.387 206.241 276.387 206.241C277.502 206.719 279.03 204.617 279.03 204.617C281.26 205.222 281.579 202.706 281.579 202.706C283.33 202.642 286.611 197.036 286.611 197.036L289.956 196.208C292.886 197.036 299.033 202.1 296.995 206.783C295.02 211.274 287.567 213.249 283.171 216.529C278.776 219.81 278.234 226.913 280.273 227.932C281.451 228.506 282.884 226.149 286.707 223.505C289.542 221.562 294.287 219.428 297.982 218.313C306.678 215.637 314.067 217.517 321.425 217.103C328.783 216.689 331.045 213.822 356.016 229.397C366.273 235.8 375.064 241.501 383.504 244.559C395.576 248.954 406.215 249.273 413.19 249.655C425.071 250.26 426.313 240.227 424.243 234.207" fill="white"/>
<path d="M410.77 223.091C402.743 217.58 392.041 213.217 367.547 208.694C367.547 208.694 346.238 202.132 343.594 200.285C340.95 198.437 335.599 198.246 331.682 196.813C327.796 195.38 313.653 190.252 309.959 187.799C306.264 185.346 304.639 183.69 298.301 183.308C291.962 182.894 283.362 181.874 281.292 182.066C279.253 182.257 277.406 186.78 275.367 190.252C273.329 193.723 272.278 194.201 273.87 201.145C274.922 205.7 276.387 206.241 276.387 206.241C277.502 206.719 279.03 204.617 279.03 204.617C281.26 205.222 281.579 202.706 281.579 202.706C283.33 202.642 286.611 197.036 286.611 197.036L289.956 196.208C292.886 197.036 299.033 202.1 296.995 206.783C295.02 211.274 287.567 213.249 283.171 216.529C278.776 219.81 278.234 226.913 280.273 227.932C281.451 228.506 282.884 226.149 286.707 223.505C289.542 221.562 294.287 219.428 297.982 218.313C306.678 215.637 314.067 217.517 321.425 217.103C328.783 216.689 331.045 213.822 356.016 229.397C366.273 235.8 375.064 241.501 383.504 244.559C395.576 248.954 406.215 249.273 413.19 249.655C425.071 250.26 426.313 240.227 424.243 234.207" stroke="#5633EF" stroke-miterlimit="10"/>
<path d="M299.32 188.627C295.912 188.563 291.23 188.723 289.892 189.009C288.554 189.264 283.649 192.736 282.757 193.278C281.897 193.819 281.483 197.195 280.75 199.393C280.081 201.463 280.336 202.005 281.26 202.61C281.26 202.61 279.221 202.323 280.145 199.17C281.037 196.112 281.356 193.023 282.375 192.163C283.394 191.335 288.681 188.309 289.701 188.086C290.72 187.863 299.32 188.627 299.32 188.627Z" fill="#5633EF"/>
<path d="M286.643 182.861C284.859 182.575 284.318 183.435 282.948 184.996C281.579 186.556 277.565 192.258 277.215 193.118C276.833 193.978 277.119 195.666 277.215 197.195C277.31 198.724 277.406 202.291 279.062 204.584C279.062 204.584 278.298 204.457 277.438 202.291C276.578 200.125 276.546 196.335 276.387 194.933C276.227 193.564 276.355 193.15 277.661 191.207C278.967 189.296 281.738 185.346 283.076 184.04C284.413 182.734 284.859 182.32 286.643 182.861Z" fill="#5633EF"/>
<path d="M159.267 220.351C153.502 230.353 151.655 238.124 155.381 242.361C158.248 245.641 163.504 245.196 170.957 245.578C178.092 245.928 191.342 244.336 200.579 239.144C214.053 231.563 221.156 227.454 232.176 226.467C242.656 225.543 247.274 222.995 253.071 222.485C259.887 221.88 267.054 221.689 271.768 224.078C276.482 226.467 276.928 227.55 277.979 228.027C278.457 228.25 279.19 227.741 279.317 226.212C279.444 224.747 279.062 222.804 278.139 221.116C276.291 217.771 270.908 215.637 265.143 214.586C259.378 213.535 255.173 210.668 254.313 207.196C253.453 203.756 254.6 199.679 255.173 199.17C255.173 199.17 257.084 199.743 258.581 199.966C260.588 200.284 263.359 200.284 263.359 200.284C263.359 200.284 265.589 203.215 267.245 204.361C268.615 205.317 269.921 205.699 270.59 205.126C270.59 205.126 271.927 207.355 273.775 207.547C275.622 207.77 275.973 206.846 275.973 206.846C275.973 206.846 275.367 203.31 275.208 201.845C275.049 200.348 275.049 198.087 274.826 196.94C274.603 195.793 273.647 195.061 270.876 192.098C268.105 189.136 266.831 186.461 265.493 186.174C264.156 185.887 261.671 186.461 261.671 186.461C261.671 186.461 261.13 186.238 258.9 186.461C256.702 186.684 253.613 187.034 250.077 187.289C246.541 187.544 242.433 187.384 241.445 188.372C240.458 189.359 238.897 191.78 236.699 194.328C234.501 196.876 229.501 201.622 226.761 203.979C224.659 205.763 222.812 207.037 221.219 208.12C219.627 209.203 216.76 210.732 214.753 211.305C210.804 212.452 204.975 212.707 197.426 213.344C192.361 213.758 186.214 213.981 180.258 214.49" fill="white"/>
<path d="M159.267 220.351C153.502 230.353 151.655 238.124 155.381 242.361C158.248 245.641 163.504 245.196 170.957 245.578C178.092 245.928 191.342 244.336 200.579 239.144C214.053 231.563 221.156 227.454 232.176 226.467C242.656 225.543 247.274 222.995 253.071 222.485C259.887 221.88 267.054 221.689 271.768 224.078C276.482 226.467 276.928 227.55 277.979 228.027C278.457 228.25 279.19 227.741 279.317 226.212C279.444 224.747 279.062 222.804 278.139 221.116C276.291 217.771 270.908 215.637 265.143 214.586C259.378 213.535 255.173 210.668 254.313 207.196C253.453 203.756 254.6 199.679 255.173 199.17C255.173 199.17 257.084 199.743 258.581 199.966C260.588 200.284 263.359 200.284 263.359 200.284C263.359 200.284 265.589 203.215 267.245 204.361C268.615 205.317 269.921 205.699 270.59 205.126C270.59 205.126 271.927 207.355 273.775 207.547C275.622 207.77 275.973 206.846 275.973 206.846C275.973 206.846 275.367 203.31 275.208 201.845C275.049 200.348 275.049 198.087 274.826 196.94C274.603 195.793 273.647 195.061 270.876 192.098C268.105 189.136 266.831 186.461 265.493 186.174C264.156 185.887 261.671 186.461 261.671 186.461C261.671 186.461 261.13 186.238 258.9 186.461C256.702 186.684 253.613 187.034 250.077 187.289C246.541 187.544 242.433 187.384 241.445 188.372C240.458 189.359 238.897 191.78 236.699 194.328C234.501 196.876 229.501 201.622 226.761 203.979C224.659 205.763 222.812 207.037 221.219 208.12C219.627 209.203 216.76 210.732 214.753 211.305C210.804 212.452 204.975 212.707 197.426 213.344C192.361 213.758 186.214 213.981 180.258 214.49" stroke="#5633EF" stroke-miterlimit="10"/>
<path d="M270.59 205.19C271.513 204.362 271.927 204.075 270.781 202.578C269.602 201.081 267.946 198.851 267.086 197.896C266.226 196.94 265.111 196.335 263.073 195.316C261.002 194.297 260.142 193.437 258.04 193.277C258.04 193.277 260.11 193.118 261.544 193.851C262.977 194.583 266.353 196.399 267.213 196.94C268.073 197.482 270.016 200.348 270.622 201.208C271.195 202.068 272.373 203.534 272.214 204.043C271.991 204.585 270.59 205.19 270.59 205.19Z" fill="#5633EF"/>
<path d="M270.59 205.19C270.972 205.731 272.978 206.464 274.061 205.827C275.176 205.158 275.081 204.68 274.412 203.151C273.743 201.622 273.201 199.52 272.787 198.023C272.373 196.526 272.182 195.284 270.812 194.201C268.296 192.226 262.372 187.289 261.639 186.461C261.639 186.461 267.5 190.856 268.551 191.557C270.335 192.768 272.66 194.328 272.947 195.507C273.233 196.654 274.444 201.272 274.698 201.877C275.335 203.502 275.718 204.744 275.495 205.158C275.081 206.018 273.807 207.834 270.59 205.19Z" fill="#5633EF"/>
<path d="M310.882 105.366C311.105 105.748 311.424 106.194 311.742 106.577C312.061 106.991 312.379 107.373 312.73 107.755C313.43 108.52 314.163 109.22 314.991 109.857C316.616 111.131 318.431 112.183 320.406 112.851C321.393 113.202 322.413 113.457 323.432 113.616C324.451 113.807 325.502 113.839 326.553 113.839C328.656 113.807 330.758 113.457 332.796 112.851C330.79 113.584 328.719 114.062 326.553 114.221C325.47 114.285 324.387 114.317 323.336 114.189C322.253 114.094 321.202 113.903 320.151 113.616C318.049 113.043 316.074 112.087 314.259 110.813C313.367 110.176 312.507 109.475 311.71 108.743C311.296 108.36 310.946 107.978 310.564 107.564C310.182 107.15 309.863 106.736 309.513 106.226L310.882 105.366Z" fill="#5633EF"/>
<path d="M306.391 108.806C306.71 108.042 307.187 107.405 307.729 106.832C308.27 106.258 308.844 105.749 309.513 105.335C310.15 104.92 310.85 104.538 311.615 104.252C312.347 103.997 313.144 103.806 313.972 103.837C313.367 104.379 312.793 104.857 312.188 105.303C311.615 105.749 311.01 106.194 310.404 106.64C309.799 107.054 309.194 107.5 308.525 107.851C307.888 108.201 307.187 108.552 306.391 108.806Z" fill="#5633EF"/>
<path d="M322.922 86.0635C323.368 86.7005 323.91 87.1783 324.515 87.4968C324.802 87.6561 325.12 87.7835 325.439 87.8472C325.757 87.9109 326.108 87.9746 326.394 87.9427C326.681 87.9109 326.968 87.8472 327.318 87.7516C327.509 87.6879 327.7 87.6561 327.955 87.6242C328.178 87.5924 328.465 87.5924 328.751 87.6242C329.325 87.7198 329.771 88.0064 330.121 88.2931C330.216 88.3568 330.28 88.4524 330.376 88.5161C330.439 88.5798 330.535 88.6753 330.599 88.7709C330.694 88.8664 330.758 88.962 330.822 89.0575C330.885 89.1531 330.949 89.2487 331.013 89.3761C331.491 90.2679 331.491 91.2235 331.299 92.0835C331.108 92.9435 330.726 93.7079 330.185 94.3449C329.643 94.982 328.974 95.5235 328.21 95.8101C327.445 96.1286 326.617 96.2242 325.885 96.0649C327.382 95.7464 328.528 94.7909 329.197 93.6442C329.548 93.0709 329.771 92.4338 329.834 91.7968C329.93 91.1598 329.834 90.5546 329.579 90.1087C329.548 90.0449 329.516 89.9812 329.484 89.9494C329.452 89.8857 329.42 89.8538 329.356 89.7901C329.325 89.7583 329.261 89.6946 329.197 89.6309C329.133 89.5672 329.102 89.5353 329.038 89.4716C328.815 89.2805 328.592 89.1531 328.433 89.1212C328.242 89.0575 327.987 89.0894 327.605 89.1531C327.222 89.2168 326.776 89.2805 326.299 89.2168C325.821 89.1531 325.439 89.0257 325.056 88.8346C324.674 88.6435 324.324 88.4205 324.005 88.1338C323.464 87.5605 323.05 86.8279 322.922 86.0635Z" fill="#5633EF"/>
<path d="M289.987 196.207C289.987 196.207 304.193 196.08 308.111 202.132C312.029 208.184 318.081 213.853 323.4 213.503" stroke="#5633EF" stroke-miterlimit="10"/>
<path d="M255.492 199.297C255.492 199.297 249.504 198.214 246.956 205.317C244.821 211.242 243.93 218.122 238.61 220.065" stroke="#5633EF" stroke-miterlimit="10"/>
<path d="M281.929 143.588C281.929 143.588 270.59 148.175 274.858 158.59C279.126 169.006 311.105 188.499 319.387 174.07C319.387 174.038 283.936 166.043 281.929 143.588Z" fill="#211D53" stroke="#5633EF" stroke-miterlimit="10"/>
<path d="M316.87 148.302C316.87 148.302 322.444 158.462 321.712 163.718C320.979 168.974 319.355 174.038 319.355 174.038C319.355 174.038 321.744 176.714 326.012 175.089C330.312 173.497 331.522 152.283 316.87 148.302Z" fill="#211D53" stroke="#5633EF" stroke-miterlimit="10"/>
</svg>
