<svg width="809" height="491" viewBox="0 0 809 491" fill="none" xmlns="http://www.w3.org/2000/svg">
<path d="M797.954 376.903C780.883 411.705 749.442 432.229 717.56 437.254C685.679 442.258 653.342 433.335 623.1 419.523C590.172 404.469 558.229 383.383 523.404 379.173C479.732 373.897 436.516 396.07 399.657 426.487C380.507 442.278 362.45 460.416 342.086 473.491C321.722 486.546 298.202 494.325 276.032 487.555C227.595 472.792 204.075 397.33 157.262 375.584C134.849 365.167 110.221 368.581 86.3825 369.086C62.5436 369.59 36.6561 365.943 19.2359 345.147C-4.23883 317.077 -3.34354 268.696 6.65637 229.646C23.1206 165.319 64.6225 106.831 117.293 99.8862C145.305 96.2004 173.408 107.103 201.541 105.415C212.094 104.76 222.533 102.327 232.588 98.1791C233.908 97.1703 235.198 96.1422 236.487 95.0752C265.607 71.0205 288.247 34.6475 319.612 15.7917C320.189 15.4425 320.766 15.1127 321.357 14.7829C323.804 12.7786 326.337 10.9522 328.945 9.31243C344.225 -0.290062 392.161 0.000950418 392.161 0.000950418C451.342 2.91939 508.122 30.6811 553.723 78.9935C586.803 114.241 613.57 160.004 651.354 186.406C684.723 209.704 723.736 215.776 758.774 234.631C771.262 241.343 783.432 249.898 792.673 262.566C814.57 292.595 815.01 342.121 797.954 376.903Z" fill="url(#paint0_linear_102_8865)"/>
<defs>
<linearGradient id="paint0_linear_102_8865" x1="405" y1="-1.07336" x2="405" y2="490.05" gradientUnits="userSpaceOnUse">
<stop stop-color="#2BD4D9"/>
<stop offset="0.364583" stop-color="#2BD4D9"/>
<stop offset="1" stop-color="#5433ED"/>
</linearGradient>
</defs>
</svg>
