<svg width="129" height="32" viewBox="0 0 129 32" fill="none" xmlns="http://www.w3.org/2000/svg">
<path d="M1.81793 12.6296C-0.749826 17.0699 0.87883 23.8121 3.72241 27.8993C5.14092 29.9396 6.57913 31.7772 8.54271 31.7772C8.58211 31.7772 8.61495 31.7772 8.65435 31.7772C9.58032 31.738 10.2436 31.4568 10.8938 31.1821C11.6161 30.8748 12.3714 30.5543 13.5469 30.5543C14.6633 30.5543 15.3791 30.8617 16.0687 31.1625C16.7517 31.4568 17.4478 31.7576 18.4854 31.738C20.6985 31.6988 22.0645 29.7173 23.2597 27.9712C24.5141 26.1467 25.1379 24.381 25.3546 23.7009L25.3612 23.6748C25.4006 23.5571 25.3415 23.4263 25.2299 23.3674C25.2299 23.3674 25.2167 23.3609 25.2102 23.3609C24.8227 23.2039 21.3946 21.6868 21.3618 17.5669C21.329 14.2187 23.9296 12.4464 24.4484 12.126L24.4746 12.1129C24.5338 12.0737 24.5732 12.0214 24.5863 11.956C24.5994 11.8906 24.5863 11.8187 24.5469 11.7663C22.7541 9.15053 20.0024 8.75816 18.8926 8.70585C18.7349 8.69277 18.5642 8.67969 18.4 8.67969C17.0997 8.67969 15.852 9.17015 14.8472 9.56252C14.1576 9.83718 13.56 10.0661 13.1463 10.0661C12.68 10.0661 12.0824 9.83064 11.3863 9.55598C10.4538 9.18977 9.40301 8.77124 8.28659 8.77124C8.26032 8.77124 8.23405 8.77124 8.20779 8.77124C5.62032 8.81048 3.17077 10.2884 1.81793 12.6296Z" fill="white"/>
<path d="M18.8991 1.50031C17.3295 1.5657 15.4448 2.52701 14.3152 3.84145C13.3564 4.94663 12.4239 6.78423 12.6669 8.64145C12.68 8.75917 12.7785 8.84418 12.8967 8.85726C13.0018 8.8638 13.1134 8.87034 13.2185 8.87034C14.7552 8.87034 16.4101 8.02674 17.5463 6.65998C18.7349 5.22129 19.3391 3.37715 19.1552 1.72265C19.1421 1.59186 19.0239 1.49377 18.8991 1.50031Z" fill="white"/>
<path d="M36.9785 1.375H39.96C40.7415 1.375 41.4376 1.53849 42.0418 1.85892C42.646 2.17936 43.1188 2.62405 43.4537 3.19298C43.7887 3.76192 43.9594 4.40279 43.9594 5.12868C43.9594 5.84802 43.7887 6.49544 43.4537 7.06437C43.1188 7.63331 42.646 8.078 42.0418 8.39843C41.4376 8.71887 40.7415 8.88236 39.96 8.88236H36.9785V1.375ZM39.914 8.37882C40.6102 8.37882 41.2209 8.24149 41.7528 7.96683C42.2848 7.69217 42.6919 7.30633 42.9809 6.81587C43.2699 6.32541 43.4143 5.75647 43.4143 5.12214C43.4143 4.48781 43.2699 3.92541 42.9809 3.42841C42.6919 2.93794 42.2848 2.55211 41.7528 2.27745C41.2209 2.00279 40.6102 1.86546 39.914 1.86546H37.5236V8.37882H39.914V8.37882Z" fill="white"/>
<path d="M46.4485 8.54972C46.0216 8.30776 45.6867 7.96771 45.4437 7.5361C45.2007 7.10449 45.0759 6.61403 45.0759 6.07125C45.0759 5.52847 45.2007 5.03801 45.4437 4.6064C45.6867 4.17479 46.0216 3.83474 46.4485 3.59277C46.8753 3.35081 47.3547 3.22656 47.8867 3.22656C48.4186 3.22656 48.898 3.35081 49.3249 3.59277C49.7517 3.83474 50.0867 4.17479 50.3297 4.6064C50.5726 5.03801 50.6974 5.52847 50.6974 6.07125C50.6974 6.61403 50.5726 7.10449 50.3297 7.5361C50.0867 7.96771 49.7517 8.30776 49.3249 8.54972C48.898 8.79168 48.4186 8.91594 47.8867 8.91594C47.3547 8.91594 46.8753 8.79168 46.4485 8.54972ZM49.0425 8.13119C49.384 7.92847 49.6532 7.65381 49.8503 7.29414C50.0473 6.93446 50.1458 6.52901 50.1458 6.07125C50.1458 5.61348 50.0473 5.20803 49.8503 4.84836C49.6532 4.48869 49.384 4.21403 49.0425 4.0113C48.701 3.80858 48.3135 3.71049 47.8867 3.71049C47.4532 3.71049 47.0723 3.80858 46.7309 4.0113C46.3894 4.21403 46.1201 4.48869 45.9231 4.84836C45.7261 5.20803 45.6276 5.61348 45.6276 6.07125C45.6276 6.52901 45.7261 6.93446 45.9231 7.29414C46.1201 7.65381 46.3894 7.92847 46.7309 8.13119C47.0723 8.33392 47.4598 8.43201 47.8867 8.43201C48.3135 8.43201 48.701 8.33392 49.0425 8.13119Z" fill="white"/>
<path d="M60.2197 3.27344L58.092 8.86472H57.5863L55.6949 4.0124L53.7905 8.86472H53.2979L51.1702 3.27344H51.689L53.5606 8.26308L55.4782 3.27344H55.9379L57.8424 8.25654L59.7338 3.27344H60.2197V3.27344Z" fill="white"/>
<path d="M65.8806 3.84255C66.2878 4.248 66.4914 4.83655 66.4914 5.60168V8.87143H65.9529V5.64745C65.9529 5.01966 65.7953 4.54228 65.4735 4.2153C65.1517 3.88833 64.7051 3.72484 64.1338 3.72484C63.4771 3.72484 62.9517 3.92102 62.5708 4.31339C62.1899 4.70576 61.9994 5.23546 61.9994 5.89596V8.87143H61.4609V3.28015H61.9797V4.48996C62.1702 4.09759 62.4592 3.79023 62.8466 3.56789C63.2275 3.34555 63.6806 3.23438 64.206 3.23438C64.9153 3.23437 65.4669 3.4371 65.8806 3.84255Z" fill="white"/>
<path d="M68.7045 0.921875H69.243V8.86738H68.7045V0.921875Z" fill="white"/>
<path d="M72.2705 8.54972C71.8436 8.30776 71.5087 7.96771 71.2657 7.5361C71.0227 7.10449 70.8979 6.61403 70.8979 6.07125C70.8979 5.52847 71.0227 5.03801 71.2657 4.6064C71.5087 4.17479 71.8436 3.83474 72.2705 3.59277C72.6974 3.35081 73.1768 3.22656 73.7087 3.22656C74.2406 3.22656 74.72 3.35081 75.1469 3.59277C75.5738 3.83474 75.9087 4.17479 76.1517 4.6064C76.3947 5.03801 76.5194 5.52847 76.5194 6.07125C76.5194 6.61403 76.3947 7.10449 76.1517 7.5361C75.9087 7.96771 75.5738 8.30776 75.1469 8.54972C74.72 8.79168 74.2406 8.91594 73.7087 8.91594C73.1768 8.91594 72.6974 8.79168 72.2705 8.54972ZM74.8645 8.13119C75.206 7.92847 75.4753 7.65381 75.6723 7.29414C75.8693 6.93446 75.9678 6.52901 75.9678 6.07125C75.9678 5.61348 75.8693 5.20803 75.6723 4.84836C75.4753 4.48869 75.206 4.21403 74.8645 4.0113C74.523 3.80858 74.1356 3.71049 73.7087 3.71049C73.2818 3.71049 72.8944 3.80858 72.5529 4.0113C72.2114 4.21403 71.9421 4.48869 71.7451 4.84836C71.5481 5.20803 71.4496 5.61348 71.4496 6.07125C71.4496 6.52901 71.5481 6.93446 71.7451 7.29414C71.9421 7.65381 72.2114 7.92847 72.5529 8.13119C72.8944 8.33392 73.2818 8.43201 73.7087 8.43201C74.1356 8.43201 74.523 8.33392 74.8645 8.13119Z" fill="white"/>
<path d="M81.6615 3.76408C82.0358 4.11721 82.2197 4.63383 82.2197 5.32048V8.86489H81.7009V7.87089C81.5236 8.19786 81.2609 8.4529 80.9128 8.63601C80.5713 8.81912 80.1576 8.91067 79.6782 8.91067C79.0543 8.91067 78.5618 8.7668 78.2006 8.47252C77.8394 8.17825 77.6555 7.79241 77.6555 7.31503C77.6555 6.85072 77.8197 6.47143 78.1546 6.18369C78.4895 5.89596 79.0215 5.75209 79.7504 5.75209H81.6746V5.30086C81.6746 4.7777 81.5301 4.38533 81.2478 4.11067C80.9654 3.84255 80.5516 3.70522 80.0066 3.70522C79.6322 3.70522 79.2776 3.77062 78.9361 3.89487C78.5946 4.02566 78.3057 4.19568 78.0692 4.41149L77.8 4.02566C78.0824 3.77715 78.4173 3.58097 78.8113 3.44364C79.2054 3.30631 79.6191 3.23438 80.046 3.23438C80.7486 3.23437 81.2872 3.41094 81.6615 3.76408ZM80.9457 8.14555C81.274 7.92974 81.517 7.62239 81.6812 7.21694V6.16408H79.7636C79.2119 6.16408 78.8113 6.26217 78.5618 6.46489C78.3122 6.66762 78.1875 6.94228 78.1875 7.28887C78.1875 7.65508 78.3254 7.94282 78.5946 8.15209C78.8639 8.36135 79.2513 8.46598 79.7439 8.46598C80.2233 8.47252 80.6173 8.36135 80.9457 8.14555Z" fill="white"/>
<path d="M89.437 0.921875V8.86738H88.9116V7.55294C88.6883 7.99108 88.3797 8.3246 87.9791 8.56002C87.5785 8.79544 87.1253 8.91316 86.6131 8.91316C86.0877 8.91316 85.6149 8.7889 85.1946 8.54694C84.7743 8.30498 84.4394 7.97147 84.1964 7.53986C83.9534 7.10825 83.8352 6.62433 83.8352 6.07501C83.8352 5.52569 83.9534 5.03523 84.1964 4.60362C84.4394 4.17201 84.7677 3.8385 85.1946 3.59653C85.6149 3.35457 86.0877 3.23686 86.6131 3.23686C87.1122 3.23686 87.5654 3.35457 87.966 3.58999C88.3665 3.82542 88.6752 4.15239 88.9051 4.57746V0.921875H89.437ZM87.7952 8.12841C88.1367 7.92569 88.4059 7.65103 88.603 7.29136C88.8 6.93168 88.8985 6.52623 88.8985 6.06847C88.8985 5.6107 88.8 5.20525 88.603 4.84558C88.4059 4.48591 88.1367 4.21125 87.7952 4.00852C87.4537 3.8058 87.0662 3.70771 86.6394 3.70771C86.2125 3.70771 85.8251 3.8058 85.4836 4.00852C85.1421 4.21125 84.8728 4.48591 84.6758 4.84558C84.4788 5.20525 84.3803 5.6107 84.3803 6.06847C84.3803 6.52623 84.4788 6.93168 84.6758 7.29136C84.8728 7.65103 85.1421 7.92569 85.4836 8.12841C85.8251 8.33114 86.2125 8.42923 86.6394 8.42923C87.0662 8.42923 87.4537 8.33114 87.7952 8.12841Z" fill="white"/>
<path d="M95.2292 8.54972C94.8024 8.30776 94.4674 7.96771 94.2244 7.5361C93.9815 7.10449 93.8567 6.61403 93.8567 6.07125C93.8567 5.52847 93.9815 5.03801 94.2244 4.6064C94.4674 4.17479 94.8024 3.83474 95.2292 3.59277C95.6561 3.35081 96.1355 3.22656 96.6674 3.22656C97.1994 3.22656 97.6788 3.35081 98.1056 3.59277C98.5325 3.83474 98.8674 4.17479 99.1104 4.6064C99.3534 5.03801 99.4782 5.52847 99.4782 6.07125C99.4782 6.61403 99.3534 7.10449 99.1104 7.5361C98.8674 7.96771 98.5325 8.30776 98.1056 8.54972C97.6788 8.79168 97.1994 8.91594 96.6674 8.91594C96.1355 8.91594 95.6561 8.79168 95.2292 8.54972ZM97.8167 8.13119C98.1582 7.92847 98.4274 7.65381 98.6244 7.29414C98.8215 6.93446 98.92 6.52901 98.92 6.07125C98.92 5.61348 98.8215 5.20803 98.6244 4.84836C98.4274 4.48869 98.1582 4.21403 97.8167 4.0113C97.4752 3.80858 97.0877 3.71049 96.6609 3.71049C96.234 3.71049 95.8465 3.80858 95.505 4.0113C95.1636 4.21403 94.8943 4.48869 94.6973 4.84836C94.5003 5.20803 94.4018 5.61348 94.4018 6.07125C94.4018 6.52901 94.5003 6.93446 94.6973 7.29414C94.8943 7.65381 95.1636 7.92847 95.505 8.13119C95.8465 8.33392 96.234 8.43201 96.6609 8.43201C97.0877 8.43201 97.4818 8.33392 97.8167 8.13119Z" fill="white"/>
<path d="M105.546 3.84255C105.953 4.248 106.157 4.83655 106.157 5.60168V8.87143H105.618V5.64745C105.618 5.01966 105.461 4.54228 105.139 4.2153C104.817 3.88833 104.371 3.72484 103.799 3.72484C103.143 3.72484 102.617 3.92102 102.236 4.31339C101.855 4.70576 101.665 5.23546 101.665 5.89596V8.87143H101.126V3.28015H101.645V4.48996C101.836 4.09759 102.125 3.79023 102.512 3.56789C102.893 3.34555 103.346 3.23438 103.872 3.23438C104.581 3.23437 105.139 3.4371 105.546 3.84255Z" fill="white"/>
<path d="M113.926 8.517C113.788 8.64779 113.617 8.74588 113.414 8.81127C113.21 8.87667 112.993 8.91591 112.777 8.91591C112.291 8.91591 111.91 8.78512 111.647 8.517C111.385 8.24888 111.247 7.87612 111.247 7.39874V3.74315H110.216V3.28539H111.247V2.0625H111.785V3.28539H113.571V3.74315H111.785V7.33988C111.785 7.7061 111.871 7.98076 112.048 8.1704C112.225 8.36005 112.481 8.4516 112.829 8.4516C113.177 8.4516 113.473 8.34697 113.703 8.1377L113.926 8.517Z" fill="white"/>
<path d="M119.83 3.84504C120.237 4.25049 120.441 4.83904 120.441 5.60416V8.87392H119.902V5.64994C119.902 5.02215 119.744 4.54476 119.423 4.21779C119.101 3.89081 118.654 3.72732 118.083 3.72732C117.426 3.72732 116.901 3.92351 116.52 4.31588C116.139 4.70825 115.949 5.23795 115.949 5.89844V8.87392H115.41V0.921875H115.949V4.44667C116.139 4.06084 116.428 3.76002 116.809 3.55076C117.19 3.34149 117.636 3.23686 118.155 3.23686C118.871 3.23686 119.423 3.43959 119.83 3.84504Z" fill="white"/>
<path d="M127.415 6.1955H122.588C122.601 6.63365 122.713 7.01948 122.923 7.35953C123.133 7.69959 123.416 7.96117 123.77 8.14427C124.125 8.32738 124.525 8.42547 124.972 8.42547C125.34 8.42547 125.675 8.36008 125.99 8.22929C126.305 8.0985 126.561 7.90231 126.771 7.64727L127.087 8.0004C126.844 8.29468 126.535 8.51703 126.167 8.67397C125.799 8.83092 125.399 8.9094 124.965 8.9094C124.407 8.9094 123.908 8.78515 123.468 8.54318C123.028 8.30122 122.687 7.96771 122.444 7.5361C122.194 7.10449 122.069 6.62057 122.069 6.07125C122.069 5.52847 122.188 5.03801 122.417 4.6064C122.647 4.17479 122.969 3.83474 123.383 3.59278C123.79 3.35081 124.25 3.22656 124.762 3.22656C125.274 3.22656 125.727 3.34427 126.134 3.58624C126.542 3.8282 126.857 4.16171 127.093 4.58678C127.323 5.01839 127.441 5.50231 127.441 6.04509L127.415 6.1955ZM123.685 3.96553C123.37 4.14209 123.114 4.38406 122.93 4.70449C122.739 5.02493 122.628 5.37806 122.601 5.78351H126.903C126.883 5.3846 126.771 5.02493 126.581 4.71103C126.391 4.39714 126.134 4.14863 125.819 3.97207C125.504 3.7955 125.149 3.70395 124.755 3.70395C124.355 3.70395 124 3.78896 123.685 3.96553Z" fill="white"/>
<path d="M44.9379 25.4423H38.5021L37.2347 28.4047H34.772L40.5642 15.5938H42.9153L48.7272 28.4047H46.2251L44.9379 25.4423ZM44.1499 23.572L41.7266 17.9676L39.3165 23.572H44.1499Z" fill="white"/>
<path d="M58.1445 19.1447C58.8998 19.5567 59.4908 20.1452 59.9177 20.9038C60.3445 21.6624 60.5612 22.5322 60.5612 23.5196C60.5612 24.5071 60.3445 25.3834 59.9177 26.1485C59.4908 26.9136 58.8998 27.5022 58.1445 27.9142C57.3893 28.3262 56.5356 28.5354 55.5833 28.5354C54.2568 28.5354 53.2126 28.0973 52.4377 27.2144V31.9556H50.1392V18.6346H52.326V19.9164C52.7069 19.452 53.1732 19.1055 53.7314 18.87C54.2896 18.6411 54.9069 18.5234 55.5768 18.5234C56.5356 18.5234 57.3959 18.7327 58.1445 19.1447ZM57.409 25.7365C57.9541 25.1741 58.2299 24.4352 58.2299 23.5196C58.2299 22.6041 57.9541 21.8651 57.409 21.3027C56.8639 20.7403 56.1678 20.4591 55.3207 20.4591C54.769 20.4591 54.2699 20.5834 53.8299 20.8319C53.3899 21.0804 53.0418 21.4401 52.7792 21.9044C52.523 22.3687 52.3917 22.9049 52.3917 23.5131C52.3917 24.1213 52.523 24.6575 52.7792 25.1218C53.0353 25.5861 53.3833 25.9458 53.8299 26.1943C54.2699 26.4428 54.769 26.567 55.3207 26.567C56.1678 26.5736 56.8639 26.2924 57.409 25.7365Z" fill="white"/>
<path d="M70.76 19.1447C71.5152 19.5567 72.1063 20.1452 72.5331 20.9038C72.96 21.6624 73.1767 22.5322 73.1767 23.5196C73.1767 24.5071 72.96 25.3834 72.5331 26.1485C72.1063 26.9136 71.5152 27.5022 70.76 27.9142C70.0048 28.3262 69.1511 28.5354 68.1988 28.5354C66.8723 28.5354 65.8281 28.0973 65.0531 27.2144V31.9556H62.7546V18.6346H64.9415V19.9164C65.3224 19.452 65.7887 19.1055 66.3469 18.87C66.9051 18.6411 67.5224 18.5234 68.1922 18.5234C69.1511 18.5234 70.0048 18.7327 70.76 19.1447ZM70.0245 25.7365C70.5696 25.1741 70.8454 24.4352 70.8454 23.5196C70.8454 22.6041 70.5696 21.8651 70.0245 21.3027C69.4794 20.7403 68.7833 20.4591 67.9361 20.4591C67.3845 20.4591 66.8854 20.5834 66.4454 20.8319C66.0054 21.0804 65.6573 21.4401 65.3946 21.9044C65.1385 22.3687 65.0072 22.9049 65.0072 23.5131C65.0072 24.1213 65.1385 24.6575 65.3946 25.1218C65.6508 25.5861 65.9988 25.9458 66.4454 26.1943C66.8854 26.4428 67.3845 26.567 67.9361 26.567C68.7833 26.5736 69.4794 26.2924 70.0245 25.7365Z" fill="white"/>
<path d="M81.7666 28.1726C80.8406 27.8914 80.1116 27.5187 79.5731 27.0544L80.4006 25.2037C80.926 25.6157 81.5761 25.9558 82.3379 26.2173C83.1063 26.4789 83.8746 26.6097 84.643 26.6097C85.6018 26.6097 86.311 26.4593 86.7839 26.1519C87.2567 25.8446 87.4931 25.4457 87.4931 24.9421C87.4931 24.5759 87.3618 24.2751 87.0991 24.0331C86.8364 23.7977 86.5015 23.6081 86.0943 23.4773C85.6872 23.3399 85.1355 23.1895 84.4394 23.0195C83.4609 22.7906 82.6663 22.5552 82.0621 22.3263C81.4579 22.0974 80.9325 21.7312 80.4991 21.2342C80.0657 20.7372 79.8489 20.0702 79.8489 19.2331C79.8489 18.5269 80.0394 17.8795 80.4269 17.304C80.8143 16.722 81.3922 16.2642 82.1737 15.9241C82.9486 15.5841 83.9074 15.4141 85.0304 15.4141C85.8119 15.4141 86.5869 15.5122 87.3486 15.7083C88.1104 15.9045 88.7672 16.1857 89.3122 16.5519L88.557 18.4026C87.9922 18.0756 87.4077 17.8206 86.7904 17.6506C86.1797 17.4805 85.5821 17.3955 85.0042 17.3955C84.0585 17.3955 83.3558 17.5525 82.9027 17.8729C82.443 18.1934 82.2131 18.6119 82.2131 19.135C82.2131 19.5013 82.3445 19.8021 82.6071 20.031C82.8698 20.2598 83.2048 20.4429 83.6119 20.5803C84.0191 20.7176 84.5707 20.868 85.2668 21.038C86.2257 21.2604 87.0071 21.4893 87.6179 21.7247C88.2286 21.9601 88.754 22.3263 89.1874 22.8168C89.6209 23.3072 89.8376 23.9612 89.8376 24.7917C89.8376 25.498 89.6471 26.1389 89.2597 26.7143C88.8722 27.2898 88.2877 27.7476 87.5063 28.0876C86.7248 28.4277 85.766 28.5977 84.6364 28.5977C83.6513 28.5912 82.6925 28.4538 81.7666 28.1726Z" fill="white"/>
<path d="M97.8956 27.8749C97.6263 28.0973 97.298 28.2608 96.9105 28.3719C96.523 28.4831 96.1159 28.5354 95.689 28.5354C94.612 28.5354 93.778 28.2542 93.1869 27.6918C92.5959 27.1294 92.3069 26.312 92.3069 25.2395V20.5376H90.6914V18.7065H92.3069V16.4766H94.6054V18.7065H97.2323V20.5376H94.6054V25.1872C94.6054 25.6646 94.7236 26.0242 94.9535 26.2793C95.1833 26.5278 95.5248 26.652 95.9648 26.652C96.4771 26.652 96.9105 26.5147 97.252 26.2466L97.8956 27.8749Z" fill="white"/>
<path d="M101.186 27.9011C100.391 27.476 99.7673 26.8809 99.3207 26.1158C98.8742 25.3507 98.6509 24.4875 98.6509 23.5262C98.6509 22.5649 98.8742 21.7016 99.3207 20.9431C99.7673 20.1845 100.391 19.5959 101.186 19.1643C101.98 18.7392 102.88 18.5234 103.872 18.5234C104.877 18.5234 105.776 18.7392 106.571 19.1643C107.366 19.5894 107.989 20.1845 108.436 20.9431C108.883 21.7016 109.106 22.5583 109.106 23.5262C109.106 24.4875 108.883 25.3507 108.436 26.1158C107.989 26.8809 107.366 27.476 106.571 27.9011C105.776 28.3262 104.877 28.542 103.872 28.542C102.88 28.542 101.987 28.3262 101.186 27.9011ZM105.967 25.7431C106.518 25.1807 106.794 24.4417 106.794 23.5262C106.794 22.6106 106.518 21.8717 105.967 21.3093C105.415 20.7469 104.719 20.4657 103.872 20.4657C103.025 20.4657 102.328 20.7469 101.783 21.3093C101.238 21.8717 100.963 22.6106 100.963 23.5262C100.963 24.4417 101.238 25.1807 101.783 25.7431C102.328 26.3055 103.025 26.5867 103.872 26.5867C104.719 26.5801 105.415 26.2989 105.967 25.7431Z" fill="white"/>
<path d="M116.993 18.5234V20.7011C116.796 20.6619 116.619 20.6488 116.461 20.6488C115.568 20.6488 114.865 20.9104 114.366 21.427C113.86 21.9436 113.611 22.6956 113.611 23.67V28.4112H111.312V18.6346H113.499V20.0602C114.162 19.0335 115.331 18.5234 116.993 18.5234Z" fill="white"/>
<path d="M128.045 24.2546H120.342C120.48 24.9739 120.828 25.5429 121.4 25.9679C121.971 26.3865 122.68 26.6023 123.521 26.6023C124.598 26.6023 125.484 26.2491 126.187 25.5429L127.422 26.9554C126.982 27.4786 126.423 27.8775 125.747 28.1456C125.071 28.4137 124.315 28.551 123.468 28.551C122.391 28.551 121.439 28.3352 120.618 27.9102C119.797 27.4851 119.16 26.89 118.714 26.1249C118.267 25.3598 118.044 24.4966 118.044 23.5352C118.044 22.5805 118.26 21.7238 118.694 20.9652C119.127 20.2001 119.731 19.605 120.506 19.1799C121.281 18.7549 122.148 18.5391 123.114 18.5391C124.072 18.5391 124.926 18.7483 125.675 19.1734C126.43 19.5919 127.014 20.187 127.441 20.9521C127.862 21.7173 128.078 22.5936 128.078 23.5941C128.078 23.738 128.065 23.9603 128.045 24.2546ZM121.248 21.0045C120.743 21.4361 120.428 22.0115 120.323 22.7374H125.891C125.793 22.0312 125.491 21.4557 124.992 21.0175C124.486 20.5794 123.862 20.357 123.12 20.357C122.385 20.357 121.761 20.5729 121.248 21.0045Z" fill="white"/>
</svg>
