<svg width="46" height="43" viewBox="0 0 46 43" fill="none" xmlns="http://www.w3.org/2000/svg">
<path fill-rule="evenodd" clip-rule="evenodd" d="M8.16672 0H20.8333V6.66672V12.3334H8.16672V0ZM22.8333 7.66672V12.3334H28.5V7.66672C28.5 7.66672 28.5 7.66672 28.4999 7.66672H22.8333ZM28.5 5.66672C28.5 5.66672 28.5 5.66672 28.4999 5.66672H22.8333V0H25.448C27.1336 0 28.5 1.36643 28.5 3.052V5.66672ZM6.16672 12.3334V7.66672H0.5V12.3334H6.16672ZM6.16672 0V5.66672H0.5V3.052C0.5 1.36643 1.86643 0 3.552 0H6.16672ZM0.5 14.3334H6.16672V20.3333H0.5V14.3334ZM0.5 22.3333V24.948C0.5 26.6336 1.86643 28 3.552 28H6.16672V22.3333H0.5ZM8.16672 14.3334H20.8333V21.3333V28H8.16672V14.3334ZM22.8333 28V22.3333H28.4999H28.5V24.948C28.5 26.6336 27.1336 28 25.448 28H22.8333ZM28.4999 20.3333H28.5V14.3334H22.8333V20.3333H28.4999Z" fill="#2BD4D9"/>
<path fill-rule="evenodd" clip-rule="evenodd" d="M15.2392 18H42.3567C43.1351 18 43.7663 18.6349 43.7663 19.4178V38.5936H13.8301V19.4178C13.8301 18.6349 14.4609 18 15.2392 18ZM26.2935 28.7435L28.8198 31.6735L32.9873 27.3821C33.238 27.1241 33.233 26.7109 32.9764 26.4588C32.7198 26.2068 32.3093 26.2118 32.0586 26.4697L28.8766 29.7462L27.274 27.888C27.0392 27.6155 26.6291 27.586 26.3585 27.8226C26.0874 28.0587 26.0583 28.4711 26.2935 28.7435Z" fill="#5433ED"/>
<path fill-rule="evenodd" clip-rule="evenodd" d="M12.4824 39.708V40.936C12.4824 41.8129 13.2413 42.5263 14.1745 42.5263H43.4218C44.3546 42.5263 45.1134 41.8129 45.1134 40.936V39.708H12.4824Z" fill="#5433ED"/>
</svg>
