<svg width="1440" height="800" viewBox="0 0 1440 800" fill="none" xmlns="http://www.w3.org/2000/svg">
<mask id="mask0_104_9562" style="mask-type:alpha" maskUnits="userSpaceOnUse" x="0" y="0" width="1440" height="800">
<rect width="1440" height="800" fill="#C4C4C4"/>
</mask>
<g mask="url(#mask0_104_9562)">
<path opacity="0.05" d="M1649.05 385.454C1636.51 360.34 1611.99 344.729 1586.59 340.002C1561.2 335.288 1534.99 340.353 1510.29 348.933C1483.4 358.287 1457.11 371.92 1429.05 373.576C1393.87 375.651 1359.96 358.439 1331.41 335.668C1316.58 323.846 1302.7 310.414 1286.81 300.456C1270.91 290.512 1252.31 284.161 1234.32 288.092C1195.01 296.66 1173.68 348.847 1135.44 362.387C1117.13 368.874 1097.5 365.551 1078.41 364.303C1059.31 363.056 1038.44 364.651 1023.79 378.623C1004.06 397.484 1003.18 431.542 1009.92 459.378C1021 505.233 1052.35 547.919 1094.34 554.776C1116.67 558.417 1139.56 551.802 1162.05 554.043C1170.49 554.899 1178.78 557.001 1186.7 560.294C1187.73 561.053 1188.73 561.824 1189.73 562.623C1212.28 580.63 1229.23 607.057 1253.75 621.492C1254.2 621.759 1254.66 622.013 1255.12 622.267C1257.01 623.768 1258.99 625.147 1261.02 626.398C1272.95 633.723 1286.85 636.054 1300.58 634.891C1304.18 635.169 1307.79 635.296 1311.39 635.314C1358.92 635.478 1405.35 618.081 1443.49 585.813C1471.17 562.264 1494.13 531.084 1525.28 513.932C1552.8 498.797 1584.27 495.988 1612.97 484.04C1623.2 479.787 1633.24 474.227 1641.06 465.664C1659.6 445.366 1661.58 410.554 1649.05 385.454Z" fill="#2BD4D9"/>
<path opacity="0.2" d="M1.21135 529.299C0.823189 528.906 0.190036 528.902 -0.202834 529.29C-0.595704 529.678 -0.599518 530.311 -0.211354 530.704L1.21135 529.299ZM256.5 632.501L257.03 633.349C257.059 633.331 257.088 633.311 257.115 633.29L256.5 632.501ZM1150.86 463.044L1151.37 462.185C1151.34 462.166 1151.31 462.15 1151.27 462.135L1150.86 463.044ZM1440.58 463.86C1441.03 463.54 1441.14 462.915 1440.82 462.465C1440.5 462.015 1439.87 461.909 1439.42 462.229L1440.58 463.86ZM3.29135 534.234C3.68125 534.625 4.31441 534.626 4.70556 534.236C5.09671 533.846 5.09771 533.213 4.70781 532.822L3.29135 534.234ZM11.7458 539.817C11.3522 539.429 10.7191 539.434 10.3316 539.828C9.94421 540.221 9.9492 540.855 10.3428 541.242L11.7458 539.817ZM17.4634 548.18C17.861 548.563 18.494 548.552 18.8774 548.154C19.2607 547.757 19.2492 547.124 18.8516 546.74L17.4634 548.18ZM26.0304 553.585C25.6285 553.207 24.9956 553.225 24.6168 553.627C24.238 554.029 24.2567 554.662 24.6586 555.041L26.0304 553.585ZM31.934 561.816C32.3405 562.19 32.9731 562.163 33.3469 561.757C33.7208 561.35 33.6943 560.718 33.2878 560.344L31.934 561.816ZM40.6297 567.007C40.2182 566.638 39.586 566.673 39.2176 567.085C38.8493 567.496 38.8842 568.128 39.2957 568.497L40.6297 567.007ZM46.7552 575.078C47.1721 575.44 47.8037 575.396 48.166 574.979C48.5283 574.563 48.4841 573.931 48.0672 573.569L46.7552 575.078ZM55.604 580.016C55.1814 579.66 54.5506 579.714 54.195 580.137C53.8394 580.559 53.8937 581.19 54.3163 581.546L55.604 580.016ZM61.9855 587.887C62.4143 588.235 63.0441 588.17 63.3922 587.741C63.7403 587.312 63.675 586.682 63.2462 586.334L61.9855 587.887ZM71.0013 592.511C70.566 592.171 69.9376 592.248 69.5977 592.684C69.2579 593.119 69.3353 593.747 69.7706 594.087L71.0013 592.511ZM77.6798 600.131C78.1222 600.461 78.7488 600.371 79.0794 599.928C79.41 599.486 79.3194 598.859 78.877 598.529L77.6798 600.131ZM86.8816 604.37C86.4316 604.05 85.8072 604.155 85.487 604.605C85.1667 605.054 85.2718 605.679 85.7217 605.999L86.8816 604.37ZM93.9055 611.671C94.3635 611.98 94.985 611.859 95.2936 611.401C95.6023 610.943 95.4813 610.321 95.0233 610.013L93.9055 611.671ZM103.311 615.433C102.844 615.137 102.227 615.276 101.931 615.742C101.635 616.209 101.774 616.826 102.24 617.122L103.311 615.433ZM110.735 622.324C111.211 622.604 111.824 622.447 112.105 621.971C112.386 621.495 112.228 620.882 111.752 620.601L110.735 622.324ZM120.356 625.486C119.871 625.221 119.264 625.401 119 625.886C118.735 626.371 118.915 626.978 119.4 627.242L120.356 625.486ZM128.241 631.839C128.736 632.084 129.336 631.881 129.581 631.386C129.826 630.891 129.623 630.292 129.128 630.047L128.241 631.839ZM138.074 634.24C137.569 634.017 136.978 634.245 136.755 634.75C136.532 635.256 136.76 635.846 137.265 636.069L138.074 634.24ZM146.495 639.888C147.01 640.086 147.589 639.829 147.787 639.314C147.986 638.799 147.729 638.22 147.214 638.022L146.495 639.888ZM156.528 641.324C156.002 641.154 155.439 641.442 155.268 641.967C155.098 642.493 155.387 643.057 155.912 643.227L156.528 641.324ZM165.508 646.017C166.043 646.155 166.588 645.833 166.725 645.298C166.863 644.763 166.541 644.218 166.006 644.08L165.508 646.017ZM175.63 646.22C175.087 646.118 174.565 646.477 174.464 647.019C174.363 647.562 174.721 648.085 175.264 648.186L175.63 646.22ZM185.152 649.654C185.701 649.715 186.195 649.319 186.255 648.77C186.315 648.221 185.919 647.727 185.37 647.666L185.152 649.654ZM195.191 648.348C194.639 648.332 194.179 648.767 194.164 649.319C194.148 649.871 194.583 650.331 195.136 650.347L195.191 648.348ZM205.15 650.192C205.702 650.159 206.122 649.686 206.089 649.134C206.056 648.583 205.583 648.163 205.031 648.196L205.15 650.192ZM214.809 647.162C214.263 647.245 213.888 647.756 213.972 648.302C214.055 648.848 214.565 649.223 215.111 649.139L214.809 647.162ZM224.936 647.162C225.472 647.027 225.797 646.484 225.663 645.948C225.529 645.413 224.985 645.087 224.45 645.222L224.936 647.162ZM233.866 642.382C233.346 642.566 233.073 643.137 233.257 643.658C233.441 644.179 234.012 644.452 234.533 644.267L233.866 642.382ZM243.803 640.504C244.304 640.274 244.524 639.68 244.294 639.178C244.063 638.676 243.469 638.456 242.967 638.687L243.803 640.504ZM251.712 634.195C251.232 634.468 251.064 635.078 251.338 635.558C251.611 636.038 252.221 636.206 252.701 635.933L251.712 634.195ZM261.102 630.197C261.539 629.859 261.62 629.231 261.283 628.794C260.946 628.357 260.318 628.276 259.88 628.613L261.102 630.197ZM267.922 622.478C267.481 622.811 267.393 623.438 267.726 623.879C268.058 624.32 268.685 624.407 269.126 624.075L267.922 622.478ZM277.217 618.038C277.661 617.71 277.755 617.084 277.427 616.64C277.1 616.196 276.473 616.101 276.029 616.429L277.217 618.038ZM284.2 610.466C283.752 610.789 283.651 611.415 283.975 611.862C284.298 612.31 284.923 612.411 285.371 612.088L284.2 610.466ZM293.586 606.224C294.037 605.906 294.145 605.282 293.827 604.831C293.508 604.38 292.884 604.272 292.433 604.59L293.586 606.224ZM300.727 598.801C300.272 599.115 300.158 599.737 300.472 600.192C300.786 600.646 301.409 600.76 301.863 600.447L300.727 598.801ZM310.2 594.755C310.657 594.446 310.778 593.824 310.469 593.366C310.16 592.909 309.538 592.788 309.08 593.097L310.2 594.755ZM317.492 587.48C317.031 587.784 316.905 588.405 317.209 588.866C317.513 589.326 318.134 589.453 318.594 589.149L317.492 587.48ZM327.046 583.629C327.51 583.33 327.643 582.711 327.343 582.247C327.044 581.783 326.425 581.65 325.961 581.949L327.046 583.629ZM334.484 576.505C334.017 576.8 333.878 577.418 334.173 577.884C334.468 578.351 335.085 578.491 335.552 578.196L334.484 576.505ZM344.115 572.847C344.584 572.557 344.73 571.941 344.44 571.471C344.15 571.001 343.533 570.855 343.064 571.146L344.115 572.847ZM351.695 565.873C351.222 566.159 351.071 566.773 351.356 567.246C351.642 567.719 352.256 567.87 352.729 567.585L351.695 565.873ZM361.394 562.409C361.87 562.128 362.028 561.515 361.747 561.04C361.466 560.564 360.853 560.406 360.377 560.687L361.394 562.409ZM369.112 555.586C368.634 555.862 368.47 556.474 368.746 556.952C369.022 557.43 369.634 557.594 370.112 557.318L369.112 555.586ZM378.88 552.312C379.361 552.041 379.531 551.431 379.259 550.95C378.988 550.469 378.378 550.299 377.897 550.57L378.88 552.312ZM386.727 545.642C386.243 545.909 386.068 546.517 386.334 547.001C386.601 547.485 387.209 547.66 387.693 547.393L386.727 545.642ZM396.556 542.559C397.042 542.297 397.223 541.691 396.961 541.204C396.699 540.718 396.092 540.537 395.606 540.799L396.556 542.559ZM404.534 536.04C404.045 536.298 403.858 536.902 404.115 537.391C404.373 537.88 404.977 538.067 405.466 537.809L404.534 536.04ZM414.418 533.147C414.909 532.895 415.102 532.292 414.849 531.801C414.596 531.31 413.993 531.116 413.502 531.369L414.418 533.147ZM422.515 526.784C422.022 527.032 421.823 527.633 422.071 528.126C422.319 528.62 422.92 528.819 423.414 528.571L422.515 526.784ZM432.458 524.076C432.954 523.833 433.159 523.234 432.915 522.738C432.672 522.242 432.073 522.038 431.577 522.281L432.458 524.076ZM440.675 517.867C440.177 518.106 439.967 518.703 440.206 519.201C440.444 519.699 441.042 519.909 441.54 519.67L440.675 517.867ZM450.658 515.352C451.158 515.117 451.374 514.522 451.14 514.022C450.906 513.522 450.311 513.306 449.81 513.54L450.658 515.352ZM458.998 509.293C458.496 509.523 458.274 510.116 458.504 510.618C458.733 511.121 459.326 511.342 459.829 511.113L458.998 509.293ZM469.031 506.963C469.536 506.738 469.762 506.147 469.538 505.642C469.313 505.138 468.722 504.911 468.217 505.136L469.031 506.963ZM477.467 501.067C476.961 501.287 476.728 501.876 476.948 502.383C477.168 502.89 477.757 503.122 478.264 502.902L477.467 501.067ZM487.551 498.919C488.059 498.704 488.297 498.117 488.082 497.609C487.866 497.1 487.279 496.862 486.771 497.078L487.551 498.919ZM496.104 493.177C495.593 493.388 495.35 493.972 495.561 494.483C495.771 494.993 496.356 495.236 496.866 495.026L496.104 493.177ZM506.208 491.222C506.721 491.016 506.969 490.434 506.763 489.921C506.557 489.409 505.975 489.16 505.462 489.366L506.208 491.222ZM514.87 485.636C514.356 485.837 514.102 486.417 514.304 486.931C514.505 487.446 515.085 487.7 515.599 487.498L514.87 485.636ZM525.021 483.862C525.537 483.666 525.796 483.088 525.6 482.572C525.403 482.056 524.826 481.797 524.31 481.993L525.021 483.862ZM533.77 478.441C533.252 478.633 532.987 479.208 533.179 479.726C533.371 480.244 533.946 480.508 534.464 480.317L533.77 478.441ZM543.951 476.853C544.47 476.666 544.74 476.094 544.553 475.574C544.366 475.054 543.793 474.785 543.273 474.972L543.951 476.853ZM552.812 471.588C552.29 471.77 552.016 472.341 552.198 472.862C552.38 473.383 552.95 473.658 553.472 473.476L552.812 471.588ZM563.009 470.19C563.532 470.013 563.812 469.445 563.635 468.922C563.457 468.399 562.889 468.119 562.366 468.296L563.009 470.19ZM571.957 465.09C571.432 465.263 571.147 465.828 571.32 466.353C571.493 466.877 572.058 467.162 572.583 466.99L571.957 465.09ZM582.196 463.873C582.722 463.705 583.013 463.142 582.845 462.616C582.677 462.09 582.114 461.8 581.588 461.968L582.196 463.873ZM591.23 458.939C590.703 459.102 590.407 459.662 590.57 460.189C590.733 460.717 591.293 461.013 591.821 460.849L591.23 458.939ZM601.473 457.914C602.002 457.756 602.303 457.198 602.145 456.669C601.986 456.14 601.429 455.84 600.9 455.998L601.473 457.914ZM610.617 453.14C610.086 453.293 609.781 453.848 609.934 454.378C610.087 454.909 610.642 455.214 611.172 455.061L610.617 453.14ZM620.878 452.303C621.41 452.154 621.721 451.602 621.572 451.071C621.424 450.539 620.872 450.228 620.34 450.376L620.878 452.303ZM630.081 447.704C629.548 447.848 629.232 448.397 629.376 448.93C629.519 449.463 630.068 449.779 630.601 449.636L630.081 447.704ZM640.38 447.05C640.914 446.911 641.235 446.366 641.097 445.831C640.958 445.296 640.412 444.975 639.878 445.114L640.38 447.05ZM649.675 442.62C649.139 442.754 648.813 443.297 648.947 443.833C649.081 444.369 649.624 444.695 650.16 444.561L649.675 442.62ZM659.947 442.166C660.484 442.037 660.815 441.497 660.686 440.96C660.557 440.423 660.018 440.092 659.481 440.221L659.947 442.166ZM669.35 437.903C668.812 438.027 668.475 438.564 668.599 439.102C668.723 439.64 669.26 439.976 669.798 439.853L669.35 437.903ZM679.645 437.637C680.184 437.519 680.525 436.985 680.407 436.446C680.288 435.906 679.755 435.565 679.215 435.684L679.645 437.637ZM689.078 433.562C688.537 433.676 688.191 434.206 688.305 434.747C688.419 435.287 688.949 435.633 689.489 435.519L689.078 433.562ZM699.406 433.484C699.947 433.376 700.299 432.849 700.19 432.307C700.082 431.766 699.555 431.415 699.013 431.523L699.406 433.484ZM708.939 429.584C708.397 429.687 708.04 430.211 708.144 430.753C708.247 431.296 708.771 431.652 709.313 431.549L708.939 429.584ZM719.209 429.713C719.753 429.615 720.114 429.095 720.016 428.552C719.918 428.008 719.397 427.647 718.854 427.745L719.209 429.713ZM728.847 425.991C728.303 426.084 727.937 426.601 728.029 427.145C728.122 427.689 728.639 428.056 729.183 427.963L728.847 425.991ZM739.143 426.314C739.688 426.227 740.06 425.714 739.972 425.168C739.884 424.623 739.371 424.252 738.826 424.34L739.143 426.314ZM748.788 422.79C748.242 422.873 747.866 423.382 747.948 423.928C748.03 424.474 748.54 424.85 749.086 424.768L748.788 422.79ZM759.109 423.311C759.655 423.234 760.037 422.728 759.96 422.182C759.883 421.635 759.378 421.253 758.831 421.33L759.109 423.311ZM768.854 419.974C768.307 420.046 767.921 420.547 767.992 421.095C768.063 421.643 768.565 422.029 769.112 421.958L768.854 419.974ZM779.093 420.709C779.642 420.644 780.033 420.146 779.967 419.597C779.901 419.049 779.404 418.658 778.855 418.724L779.093 420.709ZM788.941 417.566C788.392 417.626 787.996 418.12 788.056 418.669C788.116 419.218 788.61 419.614 789.159 419.554L788.941 417.566ZM799.198 418.506C799.748 418.452 800.149 417.962 800.094 417.412C800.04 416.863 799.55 416.461 799.001 416.516L799.198 418.506ZM809.035 415.573C808.485 415.622 808.079 416.108 808.127 416.658C808.176 417.208 808.662 417.614 809.212 417.565L809.035 415.573ZM819.31 416.723C819.861 416.68 820.272 416.199 820.229 415.649C820.186 415.098 819.705 414.687 819.155 414.73L819.31 416.723ZM829.24 413.996C828.689 414.034 828.272 414.51 828.309 415.061C828.346 415.612 828.823 416.029 829.374 415.992L829.24 413.996ZM839.417 415.37C839.968 415.339 840.39 414.867 840.359 414.315C840.328 413.764 839.856 413.342 839.304 413.373L839.417 415.37ZM849.445 412.856C848.893 412.881 848.466 413.349 848.491 413.901C848.516 414.452 848.984 414.879 849.536 414.854L849.445 412.856ZM859.613 414.452C860.165 414.433 860.597 413.97 860.578 413.418C860.559 412.866 860.096 412.434 859.544 412.453L859.613 414.452ZM869.633 412.164C869.081 412.176 868.644 412.634 868.656 413.186C868.669 413.739 869.127 414.176 869.679 414.163L869.633 412.164ZM879.805 413.988C880.357 413.981 880.8 413.528 880.793 412.976C880.787 412.424 880.334 411.981 879.782 411.988L879.805 413.988ZM889.882 411.93C889.329 411.93 888.882 412.377 888.882 412.93C888.881 413.482 889.329 413.93 889.881 413.93L889.882 411.93ZM899.965 413.99C900.518 413.997 900.971 413.554 900.977 413.002C900.984 412.45 900.541 411.997 899.989 411.99L899.965 413.99ZM910.132 412.172C909.579 412.159 909.121 412.596 909.108 413.148C909.095 413.7 909.531 414.158 910.084 414.171L910.132 412.172ZM920.144 414.474C920.696 414.494 921.159 414.063 921.179 413.511C921.199 412.959 920.768 412.496 920.216 412.476L920.144 414.474ZM930.335 412.906C929.784 412.879 929.315 413.304 929.288 413.856C929.261 414.407 929.686 414.876 930.238 414.903L930.335 412.906ZM940.331 415.46C940.882 415.494 941.356 415.075 941.39 414.524C941.424 413.972 941.005 413.498 940.453 413.464L940.331 415.46ZM950.505 414.148C949.954 414.107 949.474 414.52 949.433 415.071C949.392 415.622 949.805 416.102 950.356 416.143L950.505 414.148ZM960.451 416.963C961.002 417.012 961.487 416.605 961.535 416.055C961.584 415.505 961.177 415.02 960.627 414.971L960.451 416.963ZM970.7 415.926C970.151 415.871 969.66 416.271 969.604 416.82C969.548 417.37 969.948 417.86 970.498 417.916L970.7 415.926ZM980.49 419.002C981.039 419.066 981.535 418.672 981.599 418.124C981.662 417.575 981.269 417.079 980.72 417.015L980.49 419.002ZM990.81 418.255C990.262 418.184 989.76 418.57 989.689 419.118C989.618 419.666 990.004 420.167 990.552 420.239L990.81 418.255ZM1000.53 421.61C1001.07 421.69 1001.58 421.311 1001.66 420.764C1001.74 420.218 1001.36 419.71 1000.81 419.631L1000.53 421.61ZM1010.82 421.156C1010.27 421.069 1009.76 421.44 1009.67 421.986C1009.58 422.531 1009.95 423.044 1010.5 423.131L1010.82 421.156ZM1020.47 424.806C1021.02 424.902 1021.54 424.539 1021.63 423.995C1021.73 423.451 1021.36 422.932 1020.82 422.837L1020.47 424.806ZM1030.73 424.658C1030.18 424.554 1029.66 424.909 1029.56 425.452C1029.45 425.994 1029.81 426.518 1030.35 426.622L1030.73 424.658ZM1040.28 428.612C1040.82 428.725 1041.35 428.378 1041.46 427.837C1041.58 427.297 1041.23 426.767 1040.69 426.654L1040.28 428.612ZM1050.58 428.802C1050.04 428.681 1049.5 429.019 1049.38 429.557C1049.26 430.096 1049.6 430.631 1050.13 430.753L1050.58 428.802ZM1059.93 433.054C1060.47 433.185 1061.01 432.856 1061.14 432.32C1061.27 431.783 1060.94 431.242 1060.4 431.111L1059.93 433.054ZM1070.25 433.604C1069.72 433.464 1069.17 433.783 1069.03 434.317C1068.89 434.851 1069.21 435.398 1069.75 435.538L1070.25 433.604ZM1079.44 438.175C1079.97 438.325 1080.52 438.015 1080.67 437.484C1080.82 436.952 1080.51 436.4 1079.98 436.25L1079.44 438.175ZM1089.73 439.093C1089.2 438.934 1088.64 439.233 1088.48 439.762C1088.32 440.29 1088.62 440.848 1089.15 441.008L1089.73 439.093ZM1098.78 444.012C1099.3 444.182 1099.87 443.893 1100.04 443.368C1100.2 442.842 1099.92 442.278 1099.39 442.109L1098.78 444.012ZM1108.97 445.304C1108.45 445.124 1107.88 445.402 1107.7 445.924C1107.52 446.446 1107.8 447.015 1108.32 447.195L1108.97 445.304ZM1117.85 450.586C1118.37 450.777 1118.95 450.511 1119.14 449.993C1119.33 449.474 1119.06 448.899 1118.54 448.709L1117.85 450.586ZM1127.97 452.281C1127.45 452.08 1126.87 452.334 1126.67 452.848C1126.47 453.363 1126.72 453.943 1127.24 454.144L1127.97 452.281ZM1136.63 457.933C1137.14 458.145 1137.72 457.904 1137.94 457.394C1138.15 456.884 1137.91 456.299 1137.4 456.086L1136.63 457.933ZM1146.69 460.075C1146.18 459.851 1145.59 460.079 1145.37 460.584C1145.15 461.09 1145.37 461.68 1145.88 461.904L1146.69 460.075ZM1154.73 466.491C1155.2 466.771 1155.81 466.611 1156.09 466.135C1156.37 465.659 1156.21 465.046 1155.74 464.766L1154.73 466.491ZM1164.3 469.737C1163.82 469.462 1163.21 469.628 1162.94 470.107C1162.66 470.586 1162.83 471.198 1163.31 471.472L1164.3 469.737ZM1172.02 476.398C1172.5 476.666 1173.11 476.494 1173.38 476.011C1173.65 475.529 1173.48 474.92 1172.99 474.651L1172.02 476.398ZM1181.59 479.376C1181.11 479.113 1180.5 479.294 1180.24 479.779C1179.97 480.265 1180.16 480.872 1180.64 481.135L1181.59 479.376ZM1189.53 485.865C1190.02 486.121 1190.63 485.931 1190.88 485.442C1191.14 484.952 1190.95 484.348 1190.46 484.092L1189.53 485.865ZM1199.27 488.611C1198.78 488.363 1198.18 488.562 1197.93 489.056C1197.68 489.549 1197.88 490.15 1198.38 490.398L1199.27 488.611ZM1207.27 494.771C1207.76 495.01 1208.36 494.801 1208.6 494.303C1208.84 493.805 1208.63 493.208 1208.13 492.969L1207.27 494.771ZM1217.18 497.212C1216.68 496.982 1216.09 497.204 1215.86 497.706C1215.63 498.208 1215.85 498.802 1216.35 499.031L1217.18 497.212ZM1225.46 503.068C1225.96 503.286 1226.55 503.052 1226.77 502.544C1226.99 502.037 1226.75 501.449 1226.25 501.231L1225.46 503.068ZM1235.36 505.015C1234.84 504.81 1234.26 505.059 1234.06 505.572C1233.85 506.084 1234.1 506.666 1234.61 506.872L1235.36 505.015ZM1243.92 510.448C1244.44 510.638 1245.01 510.373 1245.2 509.854C1245.39 509.336 1245.13 508.761 1244.61 508.571L1243.92 510.448ZM1254 511.854C1253.47 511.681 1252.91 511.965 1252.73 512.489C1252.56 513.014 1252.85 513.579 1253.37 513.753L1254 511.854ZM1262.91 516.719C1263.44 516.873 1264 516.567 1264.15 516.037C1264.3 515.507 1264 514.952 1263.47 514.798L1262.91 516.719ZM1273.03 517.356C1272.5 517.225 1271.96 517.554 1271.82 518.091C1271.69 518.627 1272.02 519.168 1272.56 519.299L1273.03 517.356ZM1282.32 521.435C1282.86 521.539 1283.38 521.184 1283.49 520.642C1283.59 520.1 1283.24 519.575 1282.69 519.471L1282.32 521.435ZM1292.44 521.074C1291.9 521 1291.39 521.384 1291.32 521.931C1291.24 522.478 1291.63 522.982 1292.18 523.056L1292.44 521.074ZM1302.12 524.087C1302.67 524.126 1303.14 523.712 1303.18 523.161C1303.22 522.61 1302.81 522.131 1302.26 522.092L1302.12 524.087ZM1312.1 522.451C1311.55 522.45 1311.1 522.898 1311.1 523.45C1311.1 524.002 1311.55 524.45 1312.1 524.451L1312.1 522.451ZM1322.11 524.075C1322.66 524.033 1323.07 523.552 1323.03 523.002C1322.99 522.451 1322.51 522.039 1321.96 522.081L1322.11 524.075ZM1331.76 520.931C1331.22 521.018 1330.85 521.53 1330.93 522.075C1331.02 522.621 1331.53 522.993 1332.08 522.906L1331.76 520.931ZM1341.9 520.929C1342.43 520.798 1342.76 520.256 1342.63 519.72C1342.5 519.183 1341.96 518.855 1341.42 518.986L1341.9 520.929ZM1350.89 516.266C1350.37 516.439 1350.09 517.005 1350.26 517.529C1350.43 518.054 1351 518.338 1351.52 518.165L1350.89 516.266ZM1360.91 514.677C1361.42 514.466 1361.66 513.881 1361.45 513.371C1361.24 512.861 1360.66 512.618 1360.14 512.828L1360.91 514.677ZM1369.15 508.763C1368.65 509.005 1368.45 509.604 1368.69 510.1C1368.93 510.596 1369.53 510.802 1370.03 510.559L1369.15 508.763ZM1378.89 505.917C1379.37 505.648 1379.54 505.039 1379.27 504.556C1379 504.074 1378.4 503.901 1377.91 504.169L1378.89 505.917ZM1386.44 499.167C1385.97 499.456 1385.83 500.072 1386.12 500.543C1386.4 501.013 1387.02 501.161 1387.49 500.872L1386.44 499.167ZM1395.9 495.513C1396.36 495.209 1396.49 494.589 1396.19 494.127C1395.88 493.666 1395.26 493.538 1394.8 493.842L1395.9 495.513ZM1403.03 488.282C1402.58 488.596 1402.46 489.218 1402.78 489.673C1403.09 490.127 1403.71 490.241 1404.17 489.927L1403.03 488.282ZM1412.32 484.198C1412.77 483.877 1412.88 483.253 1412.56 482.803C1412.24 482.353 1411.61 482.248 1411.16 482.569L1412.32 484.198ZM1419.23 476.779C1418.78 477.103 1418.68 477.728 1419 478.175C1419.32 478.623 1419.95 478.724 1420.4 478.4L1419.23 476.779ZM1428.45 472.574C1428.9 472.25 1429 471.625 1428.67 471.177C1428.35 470.73 1427.72 470.63 1427.28 470.953L1428.45 472.574ZM1435.35 465.138C1434.9 465.46 1434.79 466.084 1435.12 466.533C1435.44 466.982 1436.06 467.085 1436.51 466.764L1435.35 465.138ZM-0.211354 530.704C0.95402 531.884 2.12161 533.06 3.29135 534.234L4.70781 532.822C3.54021 531.651 2.3747 530.476 1.21135 529.299L-0.211354 530.704ZM10.3428 541.242C12.7084 543.571 15.0821 545.884 17.4634 548.18L18.8516 546.74C16.4755 544.449 14.1067 542.141 11.7458 539.817L10.3428 541.242ZM24.6586 555.041C27.0767 557.32 29.5021 559.579 31.934 561.816L33.2878 560.344C30.8622 558.113 28.4429 555.859 26.0304 553.585L24.6586 555.041ZM39.2957 568.497C41.7762 570.717 44.2629 572.912 46.7552 575.078L48.0672 573.569C45.5826 571.409 43.1032 569.221 40.6297 567.007L39.2957 568.497ZM54.3163 581.546C56.8677 583.693 59.4243 585.807 61.9855 587.887L63.2462 586.334C60.6944 584.262 58.1468 582.155 55.604 580.016L54.3163 581.546ZM69.7706 594.087C72.403 596.142 75.0396 598.158 77.6798 600.131L78.877 598.529C76.2486 596.564 73.6231 594.558 71.0013 592.511L69.7706 594.087ZM85.7217 605.999C88.4468 607.939 91.175 609.831 93.9055 611.671L95.0233 610.013C92.3075 608.182 89.5934 606.3 86.8816 604.37L85.7217 605.999ZM102.24 617.122C105.071 618.915 107.903 620.65 110.735 622.324L111.752 620.601C108.938 618.939 106.124 617.215 103.311 615.433L102.24 617.122ZM119.4 627.242C122.347 628.847 125.294 630.38 128.241 631.839L129.128 630.047C126.206 628.6 123.281 627.078 120.356 625.486L119.4 627.242ZM137.265 636.069C140.344 637.43 143.421 638.705 146.495 639.888L147.214 638.022C144.171 636.85 141.124 635.588 138.074 634.24L137.265 636.069ZM155.912 643.227C159.115 644.263 162.314 645.195 165.508 646.017L166.006 644.08C162.854 643.269 159.694 642.348 156.528 641.324L155.912 643.227ZM175.264 648.186C178.567 648.801 181.864 649.293 185.152 649.654L185.37 647.666C182.134 647.311 178.887 646.826 175.63 646.22L175.264 648.186ZM195.136 650.347C198.485 650.44 201.824 650.391 205.15 650.192L205.031 648.196C201.764 648.391 198.484 648.439 195.191 648.348L195.136 650.347ZM215.111 649.139C218.401 648.637 221.676 647.98 224.936 647.162L224.45 645.222C221.251 646.024 218.037 646.669 214.809 647.162L215.111 649.139ZM234.533 644.267C237.64 643.169 240.73 641.917 243.803 640.504L242.967 638.687C239.949 640.074 236.915 641.304 233.866 642.382L234.533 644.267ZM252.701 635.933C254.149 635.109 255.592 634.248 257.03 633.349L255.97 631.653C254.555 632.538 253.135 633.385 251.712 634.195L252.701 635.933ZM257.115 633.29C258.441 632.255 259.77 631.224 261.102 630.197L259.88 628.613C258.546 629.643 257.214 630.676 255.885 631.713L257.115 633.29ZM269.126 624.075C271.812 622.048 274.509 620.036 277.217 618.038L276.029 616.429C273.316 618.431 270.613 620.448 267.922 622.478L269.126 624.075ZM285.371 612.088C288.099 610.119 290.837 608.165 293.586 606.224L292.433 604.59C289.678 606.535 286.934 608.493 284.2 610.466L285.371 612.088ZM301.863 600.447C304.632 598.535 307.411 596.638 310.2 594.755L309.08 593.097C306.286 594.984 303.501 596.885 300.727 598.801L301.863 600.447ZM318.594 589.149C321.402 587.295 324.219 585.455 327.046 583.629L325.961 581.949C323.129 583.778 320.306 585.622 317.492 587.48L318.594 589.149ZM335.552 578.196C338.397 576.399 341.252 574.616 344.115 572.847L343.064 571.146C340.195 572.918 337.335 574.704 334.484 576.505L335.552 578.196ZM352.729 567.585C355.609 565.845 358.498 564.12 361.394 562.409L360.377 560.687C357.475 562.401 354.581 564.13 351.695 565.873L352.729 567.585ZM370.112 557.318C373.027 555.635 375.95 553.966 378.88 552.312L377.897 550.57C374.961 552.228 372.033 553.899 369.112 555.586L370.112 557.318ZM387.693 547.393C390.64 545.768 393.594 544.156 396.556 542.559L395.606 540.799C392.639 542.399 389.679 544.013 386.727 545.642L387.693 547.393ZM405.466 537.809C408.443 536.241 411.427 534.687 414.418 533.147L413.502 531.369C410.506 532.911 407.517 534.468 404.534 536.04L405.466 537.809ZM423.414 528.571C426.422 527.058 429.437 525.56 432.458 524.076L431.577 522.281C428.55 523.767 425.53 525.268 422.515 526.784L423.414 528.571ZM441.54 519.67C444.573 518.216 447.613 516.776 450.658 515.352L449.81 513.54C446.76 514.968 443.714 516.41 440.675 517.867L441.54 519.67ZM459.829 511.113C462.891 509.715 465.958 508.331 469.031 506.963L468.217 505.136C465.139 506.507 462.066 507.893 458.998 509.293L459.829 511.113ZM478.264 502.902C481.355 501.559 484.45 500.232 487.551 498.919L486.771 497.078C483.665 498.393 480.564 499.722 477.467 501.067L478.264 502.902ZM496.866 495.026C499.976 493.743 503.09 492.475 506.208 491.222L505.462 489.366C502.339 490.622 499.219 491.892 496.104 493.177L496.866 495.026ZM515.599 487.498C518.736 486.271 521.877 485.059 525.021 483.862L524.31 481.993C521.16 483.192 518.013 484.406 514.87 485.636L515.599 487.498ZM534.464 480.317C537.623 479.147 540.785 477.993 543.951 476.853L543.273 474.972C540.102 476.113 536.934 477.269 533.77 478.441L534.464 480.317ZM553.472 473.476C556.648 472.365 559.827 471.27 563.009 470.19L562.366 468.296C559.179 469.378 555.994 470.475 552.812 471.588L553.472 473.476ZM572.583 466.99C575.785 465.935 578.99 464.896 582.196 463.873L581.588 461.968C578.376 462.993 575.165 464.034 571.957 465.09L572.583 466.99ZM591.821 460.849C595.037 459.855 598.254 458.877 601.473 457.914L600.9 455.998C597.675 456.962 594.452 457.943 591.23 458.939L591.821 460.849ZM611.172 455.061C614.407 454.126 617.642 453.206 620.878 452.303L620.34 450.376C617.098 451.282 613.857 452.203 610.617 453.14L611.172 455.061ZM630.601 449.636C633.86 448.758 637.12 447.896 640.38 447.05L639.878 445.114C636.612 445.961 633.346 446.825 630.081 447.704L630.601 449.636ZM650.16 444.561C653.422 443.746 656.685 442.948 659.947 442.166L659.481 440.221C656.212 441.005 652.944 441.804 649.675 442.62L650.16 444.561ZM669.798 439.853C673.081 439.098 676.363 438.359 679.645 437.637L679.215 435.684C675.927 436.407 672.639 437.147 669.35 437.903L669.798 439.853ZM689.489 435.519C692.796 434.824 696.102 434.146 699.406 433.484L699.013 431.523C695.703 432.186 692.391 432.866 689.078 433.562L689.489 435.519ZM709.313 431.549C712.614 430.92 715.913 430.308 719.209 429.713L718.854 427.745C715.551 428.341 712.246 428.954 708.939 429.584L709.313 431.549ZM729.183 427.963C732.506 427.396 735.826 426.847 739.143 426.314L738.826 424.34C735.503 424.873 732.176 425.424 728.847 425.991L729.183 427.963ZM749.086 424.768C752.43 424.265 755.771 423.779 759.109 423.311L758.831 421.33C755.487 421.799 752.139 422.286 748.788 422.79L749.086 424.768ZM769.112 421.958C772.443 421.524 775.77 421.108 779.093 420.709L778.855 418.724C775.526 419.123 772.192 419.54 768.854 419.974L769.112 421.958ZM789.159 419.554C792.51 419.187 795.857 418.838 799.198 418.506L799.001 416.516C795.652 416.848 792.299 417.198 788.941 417.566L789.159 419.554ZM809.212 417.565C812.584 417.266 815.95 416.986 819.31 416.723L819.155 414.73C815.787 414.992 812.414 415.274 809.035 415.573L809.212 417.565ZM829.374 415.992C832.728 415.766 836.076 415.559 839.417 415.37L839.304 413.373C835.956 413.562 832.601 413.77 829.24 413.996L829.374 415.992ZM849.536 414.854C852.902 414.701 856.261 414.567 859.613 414.452L859.544 412.453C856.185 412.569 852.818 412.703 849.445 412.856L849.536 414.854ZM869.679 414.163C873.062 414.085 876.438 414.027 879.805 413.988L879.782 411.988C876.407 412.027 873.024 412.085 869.633 412.164L869.679 414.163ZM889.881 413.93C893.252 413.93 896.613 413.95 899.965 413.99L899.989 411.99C896.629 411.95 893.26 411.93 889.882 411.93L889.881 413.93ZM910.084 414.171C913.447 414.252 916.8 414.353 920.144 414.474L920.216 412.476C916.865 412.354 913.503 412.253 910.132 412.172L910.084 414.171ZM930.238 414.903C933.613 415.068 936.977 415.254 940.331 415.46L940.453 413.464C937.092 413.257 933.719 413.071 930.335 412.906L930.238 414.903ZM950.356 416.143C953.733 416.395 957.098 416.668 960.451 416.963L960.627 414.971C957.265 414.675 953.891 414.401 950.505 414.148L950.356 416.143ZM970.498 417.916C973.842 418.256 977.173 418.618 980.49 419.002L980.72 417.015C977.393 416.631 974.053 416.268 970.7 415.926L970.498 417.916ZM990.552 420.239C993.891 420.673 997.217 421.131 1000.53 421.61L1000.81 419.631C997.494 419.15 994.159 418.691 990.81 418.255L990.552 420.239ZM1010.5 423.131C1013.84 423.666 1017.16 424.224 1020.47 424.806L1020.82 422.837C1017.5 422.253 1014.17 421.693 1010.82 421.156L1010.5 423.131ZM1030.35 426.622C1033.68 427.261 1036.99 427.924 1040.28 428.612L1040.69 426.654C1037.39 425.964 1034.06 425.299 1030.73 424.658L1030.35 426.622ZM1050.13 430.753C1053.42 431.495 1056.68 432.262 1059.93 433.054L1060.4 431.111C1057.15 430.317 1053.87 429.547 1050.58 428.802L1050.13 430.753ZM1069.75 435.538C1073 436.392 1076.23 437.271 1079.44 438.175L1079.98 436.25C1076.76 435.342 1073.52 434.46 1070.25 433.604L1069.75 435.538ZM1089.15 441.008C1092.38 441.983 1095.59 442.984 1098.78 444.012L1099.39 442.109C1096.19 441.077 1092.97 440.072 1089.73 439.093L1089.15 441.008ZM1108.32 447.195C1111.52 448.298 1114.7 449.428 1117.85 450.586L1118.54 448.709C1115.38 447.546 1112.19 446.411 1108.97 445.304L1108.32 447.195ZM1127.24 454.144C1130.39 455.378 1133.52 456.641 1136.63 457.933L1137.4 456.086C1134.28 454.789 1131.14 453.521 1127.97 452.281L1127.24 454.144ZM1145.88 461.904C1147.41 462.58 1148.93 463.263 1150.44 463.954L1151.27 462.135C1149.75 461.441 1148.22 460.754 1146.69 460.075L1145.88 461.904ZM1150.35 463.904C1151.82 464.777 1153.28 465.639 1154.73 466.491L1155.74 464.766C1154.29 463.917 1152.84 463.056 1151.37 462.185L1150.35 463.904ZM1163.31 471.472C1166.25 473.16 1169.16 474.801 1172.02 476.398L1172.99 474.651C1170.14 473.058 1167.24 471.421 1164.3 469.737L1163.31 471.472ZM1180.64 481.135C1183.65 482.763 1186.61 484.339 1189.53 485.865L1190.46 484.092C1187.55 482.571 1184.59 481 1181.59 479.376L1180.64 481.135ZM1198.38 490.398C1201.39 491.912 1204.35 493.369 1207.27 494.771L1208.13 492.969C1205.23 491.572 1202.28 490.12 1199.27 488.611L1198.38 490.398ZM1216.35 499.031C1219.44 500.441 1222.48 501.786 1225.46 503.068L1226.25 501.231C1223.28 499.955 1220.26 498.616 1217.18 497.212L1216.35 499.031ZM1234.61 506.872C1237.77 508.138 1240.88 509.329 1243.92 510.448L1244.61 508.571C1241.58 507.459 1238.5 506.274 1235.36 505.015L1234.61 506.872ZM1253.37 513.753C1256.62 514.828 1259.8 515.816 1262.91 516.719L1263.47 514.798C1260.38 513.902 1257.22 512.922 1254 511.854L1253.37 513.753ZM1272.56 519.299C1275.89 520.111 1279.14 520.822 1282.32 521.435L1282.69 519.471C1279.55 518.864 1276.33 518.161 1273.03 517.356L1272.56 519.299ZM1292.18 523.056C1295.57 523.515 1298.88 523.857 1302.12 524.087L1302.26 522.092C1299.06 521.865 1295.79 521.527 1292.44 521.074L1292.18 523.056ZM1312.1 524.451C1315.52 524.453 1318.85 524.325 1322.11 524.075L1321.96 522.081C1318.75 522.327 1315.47 522.453 1312.1 522.451L1312.1 524.451ZM1332.08 522.906C1335.42 522.375 1338.69 521.713 1341.9 520.929L1341.42 518.986C1338.27 519.757 1335.05 520.408 1331.76 520.931L1332.08 522.906ZM1351.52 518.165C1354.7 517.117 1357.82 515.951 1360.91 514.677L1360.14 512.828C1357.1 514.085 1354.02 515.234 1350.89 516.266L1351.52 518.165ZM1370.03 510.559C1373 509.103 1375.95 507.553 1378.89 505.917L1377.91 504.169C1375 505.79 1372.09 507.324 1369.15 508.763L1370.03 510.559ZM1387.49 500.872C1390.29 499.153 1393.09 497.363 1395.9 495.513L1394.8 493.842C1392.01 495.683 1389.22 497.461 1386.44 499.167L1387.49 500.872ZM1404.17 489.927C1406.86 488.063 1409.58 486.151 1412.32 484.198L1411.16 482.569C1408.43 484.518 1405.72 486.425 1403.03 488.282L1404.17 489.927ZM1420.4 478.4C1423.04 476.488 1425.73 474.543 1428.45 472.574L1427.28 470.953C1424.55 472.924 1421.87 474.867 1419.23 476.779L1420.4 478.4ZM1436.51 466.764C1437.86 465.8 1439.21 464.832 1440.58 463.86L1439.42 462.229C1438.05 463.203 1436.69 464.173 1435.35 465.138L1436.51 466.764Z" fill="#2BD4D9"/>
<g opacity="0.1">
<circle cx="724.58" cy="143.58" r="2.58013" fill="#2BD4D9"/>
<circle cx="740.061" cy="143.58" r="2.58013" fill="#2BD4D9"/>
<circle cx="755.542" cy="143.58" r="2.58013" fill="#2BD4D9"/>
<circle cx="771.023" cy="143.58" r="2.58013" fill="#2BD4D9"/>
<circle cx="786.503" cy="143.58" r="2.58013" fill="#2BD4D9"/>
<circle cx="801.984" cy="143.58" r="2.58013" fill="#2BD4D9"/>
<circle cx="817.465" cy="143.58" r="2.58013" fill="#2BD4D9"/>
<circle cx="832.946" cy="143.58" r="2.58013" fill="#2BD4D9"/>
<circle cx="848.426" cy="143.58" r="2.58013" fill="#2BD4D9"/>
<circle cx="863.907" cy="143.58" r="2.58013" fill="#2BD4D9"/>
<circle cx="879.388" cy="143.58" r="2.58013" fill="#2BD4D9"/>
<circle cx="894.869" cy="143.58" r="2.58013" fill="#2BD4D9"/>
<circle cx="724.58" cy="164.221" r="2.58013" fill="#2BD4D9"/>
<circle cx="740.061" cy="164.221" r="2.58013" fill="#2BD4D9"/>
<circle cx="755.542" cy="164.221" r="2.58013" fill="#2BD4D9"/>
<circle cx="771.023" cy="164.221" r="2.58013" fill="#2BD4D9"/>
<circle cx="786.503" cy="164.221" r="2.58013" fill="#2BD4D9"/>
<circle cx="801.984" cy="164.221" r="2.58013" fill="#2BD4D9"/>
<circle cx="817.465" cy="164.221" r="2.58013" fill="#2BD4D9"/>
<circle cx="832.946" cy="164.221" r="2.58013" fill="#2BD4D9"/>
<circle cx="848.426" cy="164.221" r="2.58013" fill="#2BD4D9"/>
<circle cx="863.907" cy="164.221" r="2.58013" fill="#2BD4D9"/>
<circle cx="879.388" cy="164.221" r="2.58013" fill="#2BD4D9"/>
<circle cx="894.869" cy="164.221" r="2.58013" fill="#2BD4D9"/>
<circle cx="724.58" cy="184.861" r="2.58013" fill="#2BD4D9"/>
<circle cx="740.061" cy="184.861" r="2.58013" fill="#2BD4D9"/>
<circle cx="755.542" cy="184.861" r="2.58013" fill="#2BD4D9"/>
<circle cx="771.023" cy="184.861" r="2.58013" fill="#2BD4D9"/>
<circle cx="786.503" cy="184.861" r="2.58013" fill="#2BD4D9"/>
<circle cx="801.984" cy="184.861" r="2.58013" fill="#2BD4D9"/>
<circle cx="817.465" cy="184.861" r="2.58013" fill="#2BD4D9"/>
<circle cx="832.946" cy="184.861" r="2.58013" fill="#2BD4D9"/>
<circle cx="848.426" cy="184.861" r="2.58013" fill="#2BD4D9"/>
<circle cx="863.907" cy="184.861" r="2.58013" fill="#2BD4D9"/>
<circle cx="879.388" cy="184.861" r="2.58013" fill="#2BD4D9"/>
<circle cx="894.869" cy="184.861" r="2.58013" fill="#2BD4D9"/>
<circle cx="724.58" cy="205.502" r="2.58013" fill="#2BD4D9"/>
<circle cx="740.061" cy="205.502" r="2.58013" fill="#2BD4D9"/>
<circle cx="755.542" cy="205.502" r="2.58013" fill="#2BD4D9"/>
<circle cx="771.023" cy="205.502" r="2.58013" fill="#2BD4D9"/>
<circle cx="786.503" cy="205.502" r="2.58013" fill="#2BD4D9"/>
<circle cx="801.984" cy="205.502" r="2.58013" fill="#2BD4D9"/>
<circle cx="817.465" cy="205.502" r="2.58013" fill="#2BD4D9"/>
<circle cx="832.946" cy="205.502" r="2.58013" fill="#2BD4D9"/>
<circle cx="848.426" cy="205.502" r="2.58013" fill="#2BD4D9"/>
<circle cx="863.907" cy="205.502" r="2.58013" fill="#2BD4D9"/>
<circle cx="879.388" cy="205.502" r="2.58013" fill="#2BD4D9"/>
<circle cx="894.869" cy="205.502" r="2.58013" fill="#2BD4D9"/>
<circle cx="724.58" cy="226.143" r="2.58013" fill="#2BD4D9"/>
<circle cx="740.061" cy="226.143" r="2.58013" fill="#2BD4D9"/>
<circle cx="755.542" cy="226.143" r="2.58013" fill="#2BD4D9"/>
<circle cx="771.023" cy="226.143" r="2.58013" fill="#2BD4D9"/>
<circle cx="786.503" cy="226.143" r="2.58013" fill="#2BD4D9"/>
<circle cx="801.984" cy="226.143" r="2.58013" fill="#2BD4D9"/>
<circle cx="817.465" cy="226.143" r="2.58013" fill="#2BD4D9"/>
<circle cx="832.946" cy="226.143" r="2.58013" fill="#2BD4D9"/>
<circle cx="848.426" cy="226.143" r="2.58013" fill="#2BD4D9"/>
<circle cx="863.907" cy="226.143" r="2.58013" fill="#2BD4D9"/>
<circle cx="879.388" cy="226.143" r="2.58013" fill="#2BD4D9"/>
<circle cx="894.869" cy="226.143" r="2.58013" fill="#2BD4D9"/>
<circle cx="724.58" cy="246.787" r="2.58013" fill="#2BD4D9"/>
<circle cx="740.061" cy="246.787" r="2.58013" fill="#2BD4D9"/>
<circle cx="755.542" cy="246.787" r="2.58013" fill="#2BD4D9"/>
<circle cx="771.023" cy="246.787" r="2.58013" fill="#2BD4D9"/>
<circle cx="786.503" cy="246.787" r="2.58013" fill="#2BD4D9"/>
<circle cx="801.984" cy="246.787" r="2.58013" fill="#2BD4D9"/>
<circle cx="817.465" cy="246.787" r="2.58013" fill="#2BD4D9"/>
<circle cx="832.946" cy="246.787" r="2.58013" fill="#2BD4D9"/>
<circle cx="848.426" cy="246.787" r="2.58013" fill="#2BD4D9"/>
<circle cx="863.907" cy="246.787" r="2.58013" fill="#2BD4D9"/>
<circle cx="879.388" cy="246.787" r="2.58013" fill="#2BD4D9"/>
<circle cx="894.869" cy="246.787" r="2.58013" fill="#2BD4D9"/>
<circle cx="724.58" cy="267.428" r="2.58013" fill="#2BD4D9"/>
<circle cx="740.061" cy="267.428" r="2.58013" fill="#2BD4D9"/>
<circle cx="755.542" cy="267.428" r="2.58013" fill="#2BD4D9"/>
<circle cx="771.023" cy="267.428" r="2.58013" fill="#2BD4D9"/>
<circle cx="786.503" cy="267.428" r="2.58013" fill="#2BD4D9"/>
<circle cx="801.984" cy="267.428" r="2.58013" fill="#2BD4D9"/>
<circle cx="817.465" cy="267.428" r="2.58013" fill="#2BD4D9"/>
<circle cx="832.946" cy="267.428" r="2.58013" fill="#2BD4D9"/>
<circle cx="848.426" cy="267.428" r="2.58013" fill="#2BD4D9"/>
<circle cx="863.907" cy="267.428" r="2.58013" fill="#2BD4D9"/>
<circle cx="879.388" cy="267.428" r="2.58013" fill="#2BD4D9"/>
<circle cx="894.869" cy="267.428" r="2.58013" fill="#2BD4D9"/>
<circle cx="724.58" cy="288.068" r="2.58013" fill="#2BD4D9"/>
<circle cx="740.061" cy="288.068" r="2.58013" fill="#2BD4D9"/>
<circle cx="755.542" cy="288.068" r="2.58013" fill="#2BD4D9"/>
<circle cx="771.023" cy="288.068" r="2.58013" fill="#2BD4D9"/>
<circle cx="786.503" cy="288.068" r="2.58013" fill="#2BD4D9"/>
<circle cx="801.984" cy="288.068" r="2.58013" fill="#2BD4D9"/>
<circle cx="817.465" cy="288.068" r="2.58013" fill="#2BD4D9"/>
<circle cx="832.946" cy="288.068" r="2.58013" fill="#2BD4D9"/>
<circle cx="848.426" cy="288.068" r="2.58013" fill="#2BD4D9"/>
<circle cx="863.907" cy="288.068" r="2.58013" fill="#2BD4D9"/>
<circle cx="879.388" cy="288.068" r="2.58013" fill="#2BD4D9"/>
<circle cx="894.869" cy="288.068" r="2.58013" fill="#2BD4D9"/>
</g>
<g opacity="0.1">
<circle cx="1242.58" cy="518.58" r="2.58013" fill="#2BD4D9"/>
<circle cx="1258.06" cy="518.58" r="2.58013" fill="#2BD4D9"/>
<circle cx="1273.54" cy="518.58" r="2.58013" fill="#2BD4D9"/>
<circle cx="1289.02" cy="518.58" r="2.58013" fill="#2BD4D9"/>
<circle cx="1304.5" cy="518.58" r="2.58013" fill="#2BD4D9"/>
<circle cx="1319.98" cy="518.58" r="2.58013" fill="#2BD4D9"/>
<circle cx="1335.46" cy="518.58" r="2.58013" fill="#2BD4D9"/>
<circle cx="1350.95" cy="518.58" r="2.58013" fill="#2BD4D9"/>
<circle cx="1366.43" cy="518.58" r="2.58013" fill="#2BD4D9"/>
<circle cx="1381.91" cy="518.58" r="2.58013" fill="#2BD4D9"/>
<circle cx="1397.39" cy="518.58" r="2.58013" fill="#2BD4D9"/>
<circle cx="1412.87" cy="518.58" r="2.58013" fill="#2BD4D9"/>
<circle cx="1242.58" cy="539.221" r="2.58013" fill="#2BD4D9"/>
<circle cx="1258.06" cy="539.221" r="2.58013" fill="#2BD4D9"/>
<circle cx="1273.54" cy="539.221" r="2.58013" fill="#2BD4D9"/>
<circle cx="1289.02" cy="539.221" r="2.58013" fill="#2BD4D9"/>
<circle cx="1304.5" cy="539.221" r="2.58013" fill="#2BD4D9"/>
<circle cx="1319.98" cy="539.221" r="2.58013" fill="#2BD4D9"/>
<circle cx="1335.46" cy="539.221" r="2.58013" fill="#2BD4D9"/>
<circle cx="1350.95" cy="539.221" r="2.58013" fill="#2BD4D9"/>
<circle cx="1366.43" cy="539.221" r="2.58013" fill="#2BD4D9"/>
<circle cx="1381.91" cy="539.221" r="2.58013" fill="#2BD4D9"/>
<circle cx="1397.39" cy="539.221" r="2.58013" fill="#2BD4D9"/>
<circle cx="1412.87" cy="539.221" r="2.58013" fill="#2BD4D9"/>
<circle cx="1242.58" cy="559.861" r="2.58013" fill="#2BD4D9"/>
<circle cx="1258.06" cy="559.861" r="2.58013" fill="#2BD4D9"/>
<circle cx="1273.54" cy="559.861" r="2.58013" fill="#2BD4D9"/>
<circle cx="1289.02" cy="559.861" r="2.58013" fill="#2BD4D9"/>
<circle cx="1304.5" cy="559.861" r="2.58013" fill="#2BD4D9"/>
<circle cx="1319.98" cy="559.861" r="2.58013" fill="#2BD4D9"/>
<circle cx="1335.46" cy="559.861" r="2.58013" fill="#2BD4D9"/>
<circle cx="1350.95" cy="559.861" r="2.58013" fill="#2BD4D9"/>
<circle cx="1366.43" cy="559.861" r="2.58013" fill="#2BD4D9"/>
<circle cx="1381.91" cy="559.861" r="2.58013" fill="#2BD4D9"/>
<circle cx="1397.39" cy="559.861" r="2.58013" fill="#2BD4D9"/>
<circle cx="1412.87" cy="559.861" r="2.58013" fill="#2BD4D9"/>
<circle cx="1242.58" cy="580.502" r="2.58013" fill="#2BD4D9"/>
<circle cx="1258.06" cy="580.502" r="2.58013" fill="#2BD4D9"/>
<circle cx="1273.54" cy="580.502" r="2.58013" fill="#2BD4D9"/>
<circle cx="1289.02" cy="580.502" r="2.58013" fill="#2BD4D9"/>
<circle cx="1304.5" cy="580.502" r="2.58013" fill="#2BD4D9"/>
<circle cx="1319.98" cy="580.502" r="2.58013" fill="#2BD4D9"/>
<circle cx="1335.46" cy="580.502" r="2.58013" fill="#2BD4D9"/>
<circle cx="1350.95" cy="580.502" r="2.58013" fill="#2BD4D9"/>
<circle cx="1366.43" cy="580.502" r="2.58013" fill="#2BD4D9"/>
<circle cx="1381.91" cy="580.502" r="2.58013" fill="#2BD4D9"/>
<circle cx="1397.39" cy="580.502" r="2.58013" fill="#2BD4D9"/>
<circle cx="1412.87" cy="580.502" r="2.58013" fill="#2BD4D9"/>
<circle cx="1242.58" cy="601.143" r="2.58013" fill="#2BD4D9"/>
<circle cx="1258.06" cy="601.143" r="2.58013" fill="#2BD4D9"/>
<circle cx="1273.54" cy="601.143" r="2.58013" fill="#2BD4D9"/>
<circle cx="1289.02" cy="601.143" r="2.58013" fill="#2BD4D9"/>
<circle cx="1304.5" cy="601.143" r="2.58013" fill="#2BD4D9"/>
<circle cx="1319.98" cy="601.143" r="2.58013" fill="#2BD4D9"/>
<circle cx="1335.46" cy="601.143" r="2.58013" fill="#2BD4D9"/>
<circle cx="1350.95" cy="601.143" r="2.58013" fill="#2BD4D9"/>
<circle cx="1366.43" cy="601.143" r="2.58013" fill="#2BD4D9"/>
<circle cx="1381.91" cy="601.143" r="2.58013" fill="#2BD4D9"/>
<circle cx="1397.39" cy="601.143" r="2.58013" fill="#2BD4D9"/>
<circle cx="1412.87" cy="601.143" r="2.58013" fill="#2BD4D9"/>
<circle cx="1242.58" cy="621.787" r="2.58013" fill="#2BD4D9"/>
<circle cx="1258.06" cy="621.787" r="2.58013" fill="#2BD4D9"/>
<circle cx="1273.54" cy="621.787" r="2.58013" fill="#2BD4D9"/>
<circle cx="1289.02" cy="621.787" r="2.58013" fill="#2BD4D9"/>
<circle cx="1304.5" cy="621.787" r="2.58013" fill="#2BD4D9"/>
<circle cx="1319.98" cy="621.787" r="2.58013" fill="#2BD4D9"/>
<circle cx="1335.46" cy="621.787" r="2.58013" fill="#2BD4D9"/>
<circle cx="1350.95" cy="621.787" r="2.58013" fill="#2BD4D9"/>
<circle cx="1366.43" cy="621.787" r="2.58013" fill="#2BD4D9"/>
<circle cx="1381.91" cy="621.787" r="2.58013" fill="#2BD4D9"/>
<circle cx="1397.39" cy="621.787" r="2.58013" fill="#2BD4D9"/>
<circle cx="1412.87" cy="621.787" r="2.58013" fill="#2BD4D9"/>
<circle cx="1242.58" cy="642.428" r="2.58013" fill="#2BD4D9"/>
<circle cx="1258.06" cy="642.428" r="2.58013" fill="#2BD4D9"/>
<circle cx="1273.54" cy="642.428" r="2.58013" fill="#2BD4D9"/>
<circle cx="1289.02" cy="642.428" r="2.58013" fill="#2BD4D9"/>
<circle cx="1304.5" cy="642.428" r="2.58013" fill="#2BD4D9"/>
<circle cx="1319.98" cy="642.428" r="2.58013" fill="#2BD4D9"/>
<circle cx="1335.46" cy="642.428" r="2.58013" fill="#2BD4D9"/>
<circle cx="1350.95" cy="642.428" r="2.58013" fill="#2BD4D9"/>
<circle cx="1366.43" cy="642.428" r="2.58013" fill="#2BD4D9"/>
<circle cx="1381.91" cy="642.428" r="2.58013" fill="#2BD4D9"/>
<circle cx="1397.39" cy="642.428" r="2.58013" fill="#2BD4D9"/>
<circle cx="1412.87" cy="642.428" r="2.58013" fill="#2BD4D9"/>
<circle cx="1242.58" cy="663.068" r="2.58013" fill="#2BD4D9"/>
<circle cx="1258.06" cy="663.068" r="2.58013" fill="#2BD4D9"/>
<circle cx="1273.54" cy="663.068" r="2.58013" fill="#2BD4D9"/>
<circle cx="1289.02" cy="663.068" r="2.58013" fill="#2BD4D9"/>
<circle cx="1304.5" cy="663.068" r="2.58013" fill="#2BD4D9"/>
<circle cx="1319.98" cy="663.068" r="2.58013" fill="#2BD4D9"/>
<circle cx="1335.46" cy="663.068" r="2.58013" fill="#2BD4D9"/>
<circle cx="1350.95" cy="663.068" r="2.58013" fill="#2BD4D9"/>
<circle cx="1366.43" cy="663.068" r="2.58013" fill="#2BD4D9"/>
<circle cx="1381.91" cy="663.068" r="2.58013" fill="#2BD4D9"/>
<circle cx="1397.39" cy="663.068" r="2.58013" fill="#2BD4D9"/>
<circle cx="1412.87" cy="663.068" r="2.58013" fill="#2BD4D9"/>
</g>
<path opacity="0.05" d="M364.555 202.763C352.042 177.061 327.529 161.103 302.142 156.291C276.755 151.492 250.534 156.708 225.827 165.522C198.925 175.13 172.611 189.119 144.554 190.846C109.369 193.011 75.4728 175.424 46.9506 152.138C32.1313 140.049 18.2668 126.311 2.38303 116.132C-13.5014 105.968 -32.0934 99.4846 -50.0923 103.53C-89.4155 112.347 -110.808 165.811 -149.065 179.719C-167.381 186.381 -187.008 183 -206.1 181.744C-225.192 180.488 -246.066 182.145 -260.73 196.469C-280.492 215.805 -281.402 250.68 -274.7 279.177C-263.667 326.119 -232.367 369.794 -190.38 376.768C-168.05 380.471 -145.156 373.672 -122.661 375.942C-114.224 376.809 -105.938 378.952 -98.0179 382.315C-96.9936 383.091 -95.9943 383.88 -94.9964 384.696C-72.4636 403.11 -55.5391 430.152 -31.0312 444.906C-30.5808 445.179 -30.1296 445.438 -29.6664 445.698C-27.7726 447.233 -25.8035 448.643 -23.7686 449.922C-11.8429 457.409 2.05298 459.781 15.7868 458.574C19.382 458.854 22.9966 458.981 26.5921 458.995C74.1293 459.11 120.578 441.243 158.757 408.159C186.46 384.013 209.456 352.06 240.632 334.461C268.164 318.933 299.641 316.021 328.361 303.754C338.598 299.388 348.641 293.683 356.475 284.906C375.038 264.1 377.057 228.451 364.555 202.763Z" fill="#2BD4D9"/>
<rect opacity="0.5" x="521.949" y="216.949" width="78.1734" height="56.5067" rx="3.7977" stroke="#F7F7F7" stroke-width="1.89885"/>
<rect x="534.125" y="241.535" width="13.4647" height="18.8374" rx="2.58027" fill="#2BD4D9" fill-opacity="0.4"/>
<rect x="554.303" y="230.035" width="13.4647" height="30.3356" rx="2.58027" fill="#2BD4D9" fill-opacity="0.19"/>
<rect x="574.482" y="234.93" width="13.4647" height="25.4427" rx="2.58027" fill="#BBD8E6"/>
<rect opacity="0.5" x="525.76" y="225.496" width="68.4262" height="41.4212" fill="white"/>
</g>
</svg>
