<svg width="336" height="526" viewBox="0 0 336 526" fill="none" xmlns="http://www.w3.org/2000/svg">
<path d="M139.214 110.017L158.495 114.595C158.495 114.595 155.227 139.066 135.51 135.687C135.51 135.687 147.112 128.057 139.214 110.017Z" fill="#150D3E"/>
<path d="M118.244 154.002L108.93 137.161C108.93 137.161 118.353 125.17 135.51 135.689C135.51 135.689 116.882 137.76 118.244 154.002Z" fill="#150D3E"/>
<path d="M161.273 39.1063C161.273 39.1063 182.788 30.3315 198.202 49.1892L221.46 64.3952C221.46 64.3952 217.266 48.2081 197.821 37.9073C178.812 27.879 161.273 39.1063 161.273 39.1063Z" fill="#5633EF"/>
<path d="M227.234 162.551L232.245 146.037C254.685 89.4094 234.151 68.9168 219.989 59.488C202.178 47.6066 183.278 45.8625 183.278 45.8625C182.788 45.808 182.298 45.7535 181.808 45.699C170.478 42.9739 161.546 43.7369 161.546 43.7369C76.3584 26.7324 69.2231 183.588 81.9685 193.072C94.6595 202.555 125.325 201.247 125.325 201.247C123.636 199.612 121.784 195.906 121.784 195.906C131.098 203.427 164.051 200.648 164.051 200.648C154.138 190.183 149.89 180.1 148.8 171.108L167.701 169.636C173.42 183.098 181.644 195.851 189.161 201.465C203.921 212.474 233.225 209.477 233.225 209.477C231.863 208.005 230.774 203.373 230.774 203.373C231.863 206.316 237.201 208.332 237.201 208.332C240.851 208.332 248.421 204.517 248.421 204.517C248.421 204.517 231.101 204.681 227.234 162.551Z" fill="#211D53"/>
<path d="M211.547 235.036C212.636 244.846 213.671 253.621 214.543 257.763C227.615 321.367 126.959 261.033 121.294 261.033C125.216 259.289 137.308 221.029 141.12 206.422C145.75 188.709 157.951 114.587 157.951 114.587L212.146 173.558L215.904 173.776C213.617 182.333 211.928 190.399 210.784 197.92C210.621 198.956 210.512 199.937 210.349 200.972C209.205 209.311 210.185 222.936 211.547 235.036Z" fill="white"/>
<path d="M196.024 287.194C176.579 287.194 147.711 273.46 132.024 265.993C126.36 263.268 122.22 261.306 121.294 261.306H119.987L121.185 260.761C124.943 259.126 136.817 221.683 140.848 206.368C145.423 188.873 157.569 115.296 157.678 114.587L157.787 114.042L212.309 173.34L216.286 173.612L216.177 173.939C213.998 182.006 212.309 190.126 211.057 198.084C210.893 199.065 210.784 200.1 210.621 201.081C209.695 207.949 210.076 219.394 211.819 235.036C212.8 243.756 213.889 253.458 214.815 257.763C217.375 270.19 215.741 278.801 209.913 283.379C206.427 286.05 201.579 287.194 196.024 287.194ZM121.948 260.87C123.582 261.306 127.177 263.05 132.242 265.448C152.341 275.04 194.117 294.933 209.532 282.834C215.142 278.419 216.721 269.972 214.216 257.763C213.344 253.403 212.2 243.756 211.22 234.981C209.477 219.285 209.041 207.785 210.022 200.863C210.131 199.882 210.294 198.847 210.457 197.811C211.656 189.963 213.344 181.897 215.469 173.939L211.983 173.721L211.928 173.667L158.114 115.132C156.97 121.945 145.75 189.745 141.393 206.422C138.016 219.339 126.577 256.292 121.948 260.87Z" fill="#5633EF"/>
<path d="M211.547 235.039C167.646 222.176 159.04 195.252 159.04 195.252C175.054 199.231 191.775 184.842 210.784 197.977C210.621 199.013 210.512 199.994 210.348 201.029C209.205 209.314 210.185 222.939 211.547 235.039Z" fill="#5633EF"/>
<path d="M138.833 99.2679C141.502 80.6828 150.979 69.2374 180.065 67.3844C232.19 64.0597 234.424 80.7918 238.672 97.7418C242.92 114.692 268.629 192.03 220.153 207.29C205.283 211.978 176.633 208.271 157.733 196.336" fill="white"/>
<path d="M138.397 99.2204C140.358 84.1234 147.602 74.2041 162.472 69.844C175.435 66.1923 189.106 66.1378 202.451 66.8464C216.122 67.8819 230.502 71.588 235.731 85.7585C238.127 92.0807 239.216 98.6754 241.177 105.107C246.406 124.455 250.764 144.402 249.565 164.568C247.986 191.274 233.606 209.859 205.501 209.695C188.834 209.532 171.895 205.281 157.733 196.343C172.058 204.899 188.943 208.823 205.501 208.878C215.414 208.932 225.491 206.262 233.225 199.885C243.737 191.383 247.713 177.539 248.585 164.459C250.056 141.023 243.628 118.078 237.637 95.6233C236.82 92.4077 236.003 89.1376 234.805 86.0855C229.739 72.2965 215.632 68.8629 202.396 67.8274C187.527 67.0644 166.666 66.9553 153.702 74.6401C146.404 78.8912 141.937 86.3035 140.14 94.4242C139.759 96.0593 139.486 97.6943 139.214 99.3294L138.397 99.2204Z" fill="#5633EF"/>
<path d="M217.266 65.9272C217.266 65.9272 195.261 125.825 161.001 134.872C126.741 143.919 111.762 134.817 111.762 134.817C111.762 134.817 133.331 114.325 138.56 77.7541C138.56 77.7541 200.217 37.5863 217.266 65.9272Z" fill="#211D53"/>
<path d="M211.765 70.7709C211.765 70.7709 228.541 84.0149 232.735 96.9318C236.874 109.849 240.088 136.228 247.877 135.247C247.877 135.247 263.237 94.8607 244.173 72.0245C223.911 47.8257 211.765 70.7709 211.765 70.7709Z" fill="#211D53"/>
<path d="M214.869 72.7875C214.869 72.7875 199.346 135.465 156.153 155.739C156.153 155.739 199.237 117.043 202.614 75.7306C206.046 34.4183 214.869 72.7875 214.869 72.7875Z" fill="#211D53"/>
<path d="M198.692 169.309C202.941 175.249 209.967 179.064 217.211 179.609C219.662 179.827 222.168 179.664 224.673 179.282C222.222 179.827 219.717 180.154 217.211 180.1C210.839 180.045 204.52 177.538 199.727 173.287C198.747 172.415 197.875 171.489 197.004 170.453L198.692 169.309Z" fill="#5633EF"/>
<path d="M192.701 174.381C195.152 170.293 199.183 166.26 203.704 164.57C199.673 167.513 196.459 171.165 192.701 174.381Z" fill="#5633EF"/>
<path d="M223.039 135.463C224.129 137.643 225.109 140.423 227.179 141.731C227.778 142.003 228.486 141.731 229.194 141.349C230.665 140.368 232.735 139.278 234.587 140.041C240.469 142.058 240.85 149.742 238.345 154.484C236.765 157.7 233.606 160.316 229.957 160.588C233.388 159.825 236.112 157.264 237.473 154.103C238.998 150.451 239.325 145.328 236.221 142.494C235.022 141.513 233.552 140.75 231.972 141.24C230.556 141.622 229.14 143.039 227.506 142.875C224.946 142.33 223.639 137.697 223.039 135.463Z" fill="#5633EF"/>
<path d="M133.036 170.839C150.153 170.839 164.028 154.246 164.028 133.778C164.028 113.31 150.153 96.7168 133.036 96.7168C115.92 96.7168 102.044 113.31 102.044 133.778C102.044 154.246 115.92 170.839 133.036 170.839Z" fill="#5633EF"/>
<path d="M118.898 114.589C118.898 114.589 104.899 47.4424 151.742 31.3098C195.969 16.1038 218.682 58.6152 218.682 58.6152C218.682 58.6152 199.455 28.1487 164.487 38.0135C142.863 44.1177 130.663 67.717 138.778 104.615L118.898 114.589Z" fill="#2CD3DB"/>
<path d="M118.625 115.186L118.516 114.695C118.462 114.532 115.03 97.6363 117.372 78.9967C119.551 61.7196 127.231 39.3739 151.578 30.9807C174.563 23.0779 191.721 30.9807 202.015 38.9924C213.181 47.6582 218.955 58.395 219.009 58.504L218.355 58.8856C218.301 58.8311 213.453 51.2553 204.466 44.9876C196.187 39.2104 182.516 33.3787 164.596 38.4474C141.338 44.9876 131.589 70.3309 139.16 104.613L139.214 104.885L118.625 115.186ZM170.26 28.4736C164.65 28.4736 158.495 29.4001 151.85 31.6892C127.885 39.9734 120.259 61.9922 118.135 79.0512C116.011 95.8377 118.625 111.153 119.17 114.041L138.397 104.449C134.584 86.954 135.183 71.4755 140.194 59.6486C144.933 48.4212 153.321 40.8455 164.432 37.6844C182.625 32.5612 196.514 38.5019 204.956 44.3881C208.606 46.8952 211.547 49.6203 213.78 52.0183C210.948 48.3667 206.863 43.7341 201.579 39.5919C194.39 33.9783 183.823 28.4736 170.26 28.4736Z" fill="#5633EF"/>
<path d="M154.388 131.6C154.388 111.107 146.926 97.5908 129.768 97.5908C112.611 97.5908 95.6171 112.688 95.6171 133.126C95.6171 153.564 106.238 168.661 123.341 168.661C140.498 168.661 154.388 152.038 154.388 131.6Z" fill="#5633EF"/>
<path d="M144.529 102.434C154.442 111.753 159.181 126.414 155.858 139.767C153.135 150.722 146.653 161.459 136.195 166.473C126.064 171.378 112.338 169.634 104.931 160.805C114.299 170.561 131.021 170.288 141.043 161.677C147.742 156.063 152.1 147.834 154.278 139.386C157.655 126.414 153.407 112.298 144.529 102.434Z" fill="white"/>
<path d="M194.172 197.428C177.505 195.303 165.685 186.31 158.713 179.116C151.142 171.376 147.547 164.182 147.384 163.91L149.345 162.929C149.508 163.201 163.779 191.324 194.444 195.248L194.172 197.428Z" fill="#5633EF"/>
<path d="M213.834 195.363C213.834 190.73 205.882 186.97 200.054 186.97C194.226 186.97 192.646 190.73 192.646 195.363C192.646 199.996 194.172 203.756 200.054 203.756C205.937 203.756 213.834 199.996 213.834 195.363Z" fill="#211D53"/>
<path d="M317.214 340.72C317.214 340.72 293.52 265.071 271.461 257.332C249.129 249.484 212.636 244.143 212.582 244.143L211.383 245.069C211.383 245.069 192.538 270.576 165.631 266.761C138.833 263 132.841 232.806 132.841 232.752C132.787 232.752 82.513 233.787 65.0289 246.105C46.1831 259.349 31.6947 319.355 31.259 324.424C30.8232 329.329 51.0307 360.177 81.2602 363.72C76.9573 470.325 74.125 511.692 91.7725 518.396C116.882 527.933 266.722 474.576 266.722 474.576C266.722 474.576 267.485 474.249 266.777 427.105C266.178 387.646 270.862 371.132 270.862 371.132C293.521 369.551 308.227 354.291 317.214 340.72Z" fill="#211D53"/>
<path d="M100.433 519.866C96.7836 519.866 93.7879 519.485 91.6637 518.722C83.3301 515.561 79.4084 505.151 78.1012 482.805C76.9029 461.168 78.2102 428.031 80.1165 382.14C80.3344 376.309 80.6067 370.313 80.8791 364.046C64.7022 362.029 52.1747 352.546 44.5492 344.861C35.7799 336.086 30.7144 327.039 30.9323 324.368C31.368 318.864 46.1287 258.912 64.8656 245.777C73.9617 239.4 91.9904 236.076 105.498 234.44C119.224 232.751 131.316 232.369 132.841 232.369L133.331 232.151V232.478L133.44 232.533L133.386 232.751C133.767 234.604 140.194 262.781 165.849 266.378C192.211 270.085 211.057 245.068 211.22 244.85L211.274 244.796L212.527 243.815C213.072 243.597 250.6 249.592 271.679 257.004C293.629 264.689 316.669 337.503 317.65 340.61L317.704 340.773L317.595 340.937C305.068 359.849 289.49 370.095 271.243 371.458C270.644 373.692 266.668 390.751 267.213 427.05C267.594 451.412 267.54 463.021 267.485 468.471C267.376 474.684 267.213 474.739 266.94 474.848C261.276 476.919 140.085 519.866 100.433 519.866ZM132.623 233.132C128.484 233.241 81.9139 234.713 65.3013 246.376C46.7823 259.402 32.1306 318.918 31.6948 324.423C31.2591 329.492 52.0112 359.903 81.3693 363.283L81.6961 363.337V363.664C81.4238 370.041 81.2059 376.2 80.9335 382.14C77.1753 473.812 75.6502 511.8 91.9905 518.013C116.283 527.224 260.295 476.483 266.45 474.303C266.559 473.376 267.049 467.163 266.45 427.104C265.851 388.081 270.535 371.185 270.535 371.022L270.59 370.749H270.862C288.891 369.496 304.36 359.358 316.778 340.664C315.471 336.631 292.431 265.125 271.352 257.713C249.783 250.137 215.196 244.905 212.691 244.578L211.656 245.341C210.839 246.431 194.444 267.523 171.023 267.523C169.226 267.523 167.428 267.414 165.576 267.141C140.085 263.599 133.331 236.403 132.623 233.132Z" fill="#5633EF"/>
<path d="M33.22 329.596C33.22 329.596 7.947 424.647 17.0431 441.706C19.5486 446.393 22.5988 461.054 40.1374 457.838C86.4348 449.391 177.396 404.699 203.649 385.624C239.87 359.299 208.715 365.676 174.237 368.728C139.759 371.78 80.5523 389.984 80.5523 389.984L81.2059 363.496C64.1576 361.752 43.7867 349.652 33.22 329.596Z" fill="white"/>
<path d="M35.5075 458.766C23.8515 458.766 19.9843 449.61 17.8056 444.432C17.3698 443.451 17.043 442.579 16.6617 441.925C7.51118 424.866 31.6948 333.358 32.7297 329.488L33.0565 328.289L33.6556 329.379C44.767 350.417 65.5736 361.372 81.2603 363.007L81.6961 363.061L81.0424 389.331C87.5786 387.369 141.992 371.073 174.182 368.239C178.485 367.857 182.733 367.421 186.819 367.04C205.12 365.187 218.355 363.824 220.098 368.348C221.351 371.563 216.34 377.014 203.921 386.061C190.522 395.817 160.674 411.949 129.573 426.229C108.222 436.039 68.1881 453.262 40.1917 458.385C38.5577 458.603 36.9237 458.766 35.5075 458.766ZM33.3833 330.905C30.4965 341.914 9.1452 425.793 17.4787 441.435C17.86 442.143 18.2413 443.015 18.6226 443.996C21.1281 449.991 25.3765 459.965 40.0283 457.295C86.9249 448.738 177.123 404.265 203.377 385.189C214.869 376.796 220.207 371.236 219.227 368.62C217.756 364.805 202.832 366.331 186.982 367.966C182.897 368.402 178.648 368.838 174.291 369.165C140.249 372.163 81.2603 390.203 80.7156 390.421L80.062 390.639L80.7156 363.933C65.0834 362.189 44.6581 351.343 33.3833 330.905Z" fill="#5633EF"/>
<path d="M80.5524 389.943C80.5524 389.943 70.2036 393.922 59.9092 398.282L80.5524 389.943Z" fill="white"/>
<path d="M60.0726 398.714L59.6913 397.842C69.9312 393.536 80.28 389.557 80.389 389.503L80.7158 390.429C80.6613 390.429 70.3125 394.463 60.0726 398.714Z" fill="#5633EF"/>
<path d="M315.362 343.454C315.362 343.454 334.752 400.408 333.391 419.484C332.029 438.396 306.974 447.77 235.349 425.425C163.724 403.079 159.04 393.923 147.82 392.288C136.872 390.653 102.884 388.527 91.827 386.62L74.1794 392.015C74.1794 392.015 91.8269 372.286 105.226 365.909C118.625 359.532 121.948 358.006 129.573 360.731C137.198 363.456 163.343 371.686 176.687 374.411C190.086 377.136 246.624 371.686 269.99 378.39L270.916 371.087C270.916 371.141 296.571 366.89 315.362 343.454Z" fill="white"/>
<path d="M301.691 438.937C299.621 438.937 297.388 438.882 295.1 438.719C279.522 437.738 259.369 433.432 235.186 425.911C188.997 411.522 170.424 402.475 160.402 397.625C154.737 394.899 151.632 393.373 147.711 392.774C142.754 392.065 133.059 391.193 122.819 390.321C110.564 389.286 97.9274 388.196 91.827 387.16L72.6544 393.046L73.7983 391.738C73.9617 391.52 91.6636 371.9 105.008 365.523C118.244 359.201 121.839 357.511 129.682 360.345C137.634 363.179 163.615 371.355 176.742 374.025C181.916 375.115 193.899 374.897 207.734 374.679C228.867 374.352 255.175 373.916 269.555 377.84L270.426 370.755L270.808 370.701C271.08 370.646 296.516 366.232 314.981 343.177L315.525 342.469L315.798 343.286C316.615 345.63 335.243 400.513 333.827 419.534C333.391 425.42 330.776 430.108 325.983 433.378C320.536 437.084 312.366 438.937 301.691 438.937ZM91.7726 386.125H91.8815C97.8729 387.16 110.618 388.25 122.928 389.34C133.168 390.212 142.863 391.084 147.874 391.793C151.959 392.392 155.118 393.918 160.837 396.698C170.805 401.549 189.378 410.541 235.458 424.93C292.758 442.806 316.016 438.937 325.439 432.506C329.959 429.399 332.465 424.984 332.901 419.425C334.153 401.876 317.595 351.516 315.199 344.431C297.769 365.632 274.511 370.919 271.352 371.518L270.426 379.039L269.882 378.876C255.72 374.843 229.14 375.279 207.789 375.606C193.899 375.824 181.916 376.042 176.579 374.952C163.397 372.281 137.362 364.106 129.41 361.217C122.165 358.601 119.061 359.909 105.444 366.395C94.3325 371.736 80.0076 386.561 75.7591 391.084L91.7726 386.125Z" fill="#5633EF"/>
<path d="M263.945 377.07C263.945 377.07 288.237 382.303 298.259 389.933L263.945 377.07Z" fill="white"/>
<path d="M297.987 390.315C288.183 382.849 264.108 377.562 263.836 377.508L264.054 376.581C265.034 376.799 288.564 381.922 298.586 389.552L297.987 390.315Z" fill="#5633EF"/>
<path d="M184.967 367.642C184.967 367.642 199.346 366.934 212.037 362.465C225.763 357.669 244.445 348.24 253.487 348.676C270.807 349.548 257.626 376.363 254.631 375.109C251.635 373.856 251.308 377.943 206.372 375.109" fill="white"/>
<path d="M233.77 376.639C227.234 376.639 218.41 376.366 206.318 375.603L206.372 374.622C237.8 376.584 247.278 375.167 251.254 374.567C252.942 374.295 253.705 374.186 254.74 374.622C254.794 374.622 255.066 374.622 255.666 374.077C258.389 371.461 263.563 360.561 261.112 353.966C260.023 350.968 257.409 349.333 253.432 349.17C247.278 348.897 236.275 353.366 225.599 357.672C221.024 359.525 216.34 361.433 212.146 362.904C199.51 367.319 185.076 368.082 184.967 368.082L184.912 367.101C185.076 367.101 199.346 366.338 211.819 361.978C215.959 360.506 220.643 358.598 225.218 356.745C235.948 352.385 247.06 347.862 253.432 348.189C257.844 348.407 260.677 350.26 261.984 353.639C264.598 360.615 259.206 372.06 256.319 374.785C255.557 375.494 254.903 375.767 254.358 375.494C253.596 375.167 253.051 375.222 251.417 375.494C248.912 375.985 244.336 376.639 233.77 376.639Z" fill="#5633EF"/>
<path d="M239.979 351.83C239.979 351.83 252.507 346.543 257.409 349.377C264.98 353.737 271.679 360.605 276.146 363.493C280.612 366.327 285.296 371.396 280.503 369.488C275.71 367.581 262.365 351.503 256.374 352.974C250.382 354.446 249.293 354.282 249.293 354.282" fill="white"/>
<path d="M282.083 370.418C281.592 370.418 280.939 370.2 280.34 369.982C278.488 369.273 275.546 366.603 272.115 363.496C266.723 358.645 260.023 352.596 256.483 353.413C250.546 354.83 249.348 354.776 249.239 354.776L249.348 353.795C249.402 353.795 250.546 353.849 256.265 352.487C260.296 351.506 266.941 357.501 272.769 362.787C275.982 365.676 278.978 368.401 280.666 369.055C281.374 369.328 281.756 369.437 281.974 369.437C281.647 368.619 279.087 365.949 275.873 363.932C274.021 362.787 271.897 360.989 269.392 358.918C265.742 355.866 261.603 352.432 257.136 349.87C252.507 347.2 240.251 352.269 240.143 352.323L239.761 351.451C240.306 351.233 252.561 346.11 257.627 349.053C262.147 351.669 266.341 355.157 269.991 358.209C272.442 360.28 274.566 362.024 276.363 363.169C278.597 364.586 283.608 368.565 282.845 370.036C282.791 370.309 282.464 370.418 282.083 370.418Z" fill="#5633EF"/>
<path d="M245.208 349.927C245.208 349.927 253.65 348.401 256.101 348.619C258.607 348.891 264.762 352.489 272.932 357.83C277.398 360.773 282.79 368.185 284.806 372.164C286.821 376.142 285.35 376.633 282.627 376.197C277.18 375.216 260.622 361.481 256.21 360.827C251.798 360.173 247.278 361.263 247.278 361.263" fill="white"/>
<path d="M284.098 376.906C283.607 376.906 283.063 376.852 282.573 376.743C279.631 376.252 273.858 372.274 268.193 368.458C263.237 365.134 258.171 361.646 256.156 361.373C251.853 360.774 247.441 361.809 247.441 361.809L247.223 360.883C247.386 360.828 251.853 359.793 256.319 360.392C258.552 360.719 263.563 364.098 268.792 367.641C274.348 371.402 280.013 375.271 282.79 375.762C284.152 375.98 284.915 375.925 285.187 375.598C285.35 375.326 285.514 374.617 284.424 372.437C282.464 368.458 277.126 361.155 272.768 358.267C266.45 354.179 258.879 349.383 256.156 349.11C253.814 348.892 245.48 350.364 245.371 350.364L245.208 349.383C245.535 349.328 253.759 347.857 256.265 348.075C258.607 348.293 263.727 351.072 273.313 357.395C277.834 360.392 283.281 367.859 285.35 371.947C286.385 374.018 286.603 375.326 286.004 376.089C285.514 376.743 284.86 376.906 284.098 376.906Z" fill="#5633EF"/>
<path d="M246.842 359.096C246.842 359.096 257.191 356.588 259.206 357.569C260.186 358.06 268.302 361.93 276.472 366.29C278.705 367.489 289.599 377.517 290.144 378.553C290.579 379.425 288.019 380.733 285.241 380.297C280.993 379.643 274.076 372.83 274.076 372.83C274.076 372.83 263.781 368.851 261.112 368.906C255.774 369.015 247.005 368.306 247.005 368.306" fill="white"/>
<path d="M286.331 380.892C285.949 380.892 285.568 380.837 285.187 380.783C281.047 380.129 274.62 374.025 273.803 373.207C270.263 371.845 263.291 369.337 261.167 369.337H261.112C255.829 369.446 247.06 368.738 246.951 368.738L247.005 367.757C247.114 367.757 255.829 368.465 261.058 368.356C263.781 368.302 273.803 372.172 274.184 372.335L274.293 372.39L274.348 372.444C274.402 372.499 281.211 379.148 285.241 379.802C286.93 380.074 288.564 379.638 289.326 379.039C289.544 378.875 289.599 378.766 289.599 378.712C289.109 377.84 278.433 367.92 276.145 366.667C269.065 362.852 261.984 359.418 259.642 358.274C259.26 358.11 259.043 357.947 258.879 357.892C257.517 357.238 250.818 358.492 246.842 359.473L246.624 358.546C247.713 358.274 257.191 355.985 259.315 357.075C259.424 357.129 259.696 357.238 260.077 357.456C262.42 358.601 269.5 362.034 276.581 365.849C278.869 367.103 289.817 377.131 290.416 378.33C290.579 378.657 290.525 379.039 290.307 379.42C289.817 380.238 288.183 380.892 286.331 380.892Z" fill="#5633EF"/>
<path d="M246.352 367.214C246.352 367.214 260.023 364.979 262.147 365.306C263.182 365.47 268.411 368.794 273.585 372.282C278.76 375.77 283.989 379.368 285.024 380.076C287.093 381.493 284.697 383.074 281.756 383.074C278.814 383.074 272.877 380.185 268.956 377.787C266.886 376.479 263.727 375.171 263.727 375.171C263.727 375.171 260.132 374.898 258.552 375.007C255.175 375.171 248.04 375.389 248.04 375.389" fill="white"/>
<path d="M281.81 383.507C278.433 383.507 272.006 380.128 268.792 378.166C266.94 377.021 264.217 375.822 263.727 375.659C263.182 375.604 260.077 375.441 258.716 375.495C255.393 375.659 248.258 375.877 248.203 375.877L248.149 374.895C248.203 374.895 255.339 374.677 258.661 374.514C260.241 374.459 263.727 374.677 263.89 374.677L264.054 374.732C264.162 374.786 267.213 376.095 269.337 377.348C273.422 379.855 279.087 382.58 281.864 382.58C283.716 382.58 285.241 381.926 285.405 381.327C285.514 381 285.132 380.673 284.86 380.509L283.989 379.91C282.137 378.602 277.725 375.604 273.422 372.715C264.707 366.884 262.637 365.903 262.147 365.848C260.459 365.576 250.273 367.156 246.515 367.756L246.352 366.775C246.896 366.666 260.132 364.54 262.311 364.867C262.91 364.976 264.816 365.794 273.967 371.898C278.324 374.786 282.681 377.839 284.588 379.147L285.459 379.746C286.549 380.509 286.549 381.272 286.385 381.654C285.895 382.853 283.716 383.507 281.81 383.507Z" fill="#5633EF"/>
<path d="M81.2058 363.452C81.2058 363.452 82.513 338.272 82.2952 320.014L81.2058 363.452Z" fill="#211D53"/>
<path d="M81.5871 363.506L80.8246 363.452C80.8246 363.179 82.1318 338.054 81.9139 320.014H82.6765C82.8944 338.054 81.5871 363.234 81.5871 363.506Z" fill="#5633EF"/>
<path d="M33.0638 329.197C33.0638 329.197 35.2291 344.363 54.5107 360.06C67.0918 370.301 81.3148 372.583 81.3148 372.583V363.718C81.3148 363.718 70.04 363.228 58.4384 355.706C46.2377 347.804 33.7175 331.377 33.0638 329.197Z" fill="#5633EF"/>
<path d="M315.362 343.44C315.362 343.44 312.87 351.888 301.596 363.225C295.495 369.383 285.841 374.343 285.841 374.343L283.499 369.983L282.137 367.857L292.377 363.225C292.377 363.225 309.371 353.523 315.362 343.44Z" fill="#5633EF"/>
</svg>
