<svg width="96" height="96" viewBox="0 0 96 96" fill="none" xmlns="http://www.w3.org/2000/svg">
<rect opacity="0.05" width="96" height="96" rx="10" fill="#2BD4D9"/>
<g clip-path="url(#clip0_4825_23388)">
<path d="M54.9233 44.3967L49.8833 39.3101C49.8599 39.2808 49.8294 39.2579 49.7947 39.2436C49.76 39.2293 49.7223 39.2241 49.685 39.2284C49.6474 39.2298 49.6104 39.2388 49.5763 39.2548C49.5422 39.2709 49.5117 39.2936 49.4867 39.3217L46.1267 42.8801C45.9094 43.1111 45.6474 43.2954 45.3565 43.4218C45.0657 43.5482 44.7521 43.6139 44.435 43.6151C44.1179 43.6139 43.8043 43.5482 43.5135 43.4218C43.2226 43.2954 42.9606 43.1111 42.7433 42.8801L35.5333 35.1917C35.482 35.1458 35.4155 35.1204 35.3467 35.1204C35.2778 35.1204 35.2113 35.1458 35.16 35.1917L23.9367 43.9417L22.49 42.0634L33.6667 33.3134C34.1796 32.9146 34.8233 32.7221 35.471 32.7739C36.1187 32.8258 36.7236 33.1181 37.1667 33.5934L44.365 41.2817L47.7017 37.7234C47.9404 37.466 48.229 37.2599 48.5499 37.1175C48.8708 36.9751 49.2173 36.8994 49.5683 36.8951C49.9194 36.8859 50.2687 36.9496 50.5939 37.0822C50.9192 37.2147 51.2135 37.4132 51.4583 37.6651L56.4983 42.7517L54.9233 44.3967Z" fill="#2BD4D9"/>
<path d="M52.4267 50H26.5733C25.3604 50 24.1972 49.6145 23.3395 48.9284C22.4818 48.2423 22 47.3117 22 46.3413V25.6587C22 24.6883 22.4818 23.7577 23.3395 23.0716C24.1972 22.3855 25.3604 22 26.5733 22H52.4267C53.6396 22 54.8028 22.3855 55.6605 23.0716C56.5182 23.7577 57 24.6883 57 25.6587V46.3413C57 47.3117 56.5182 48.2423 55.6605 48.9284C54.8028 49.6145 53.6396 50 52.4267 50ZM26.5733 23.8667C25.9792 23.8667 25.4095 24.0555 24.9894 24.3915C24.5693 24.7276 24.3333 25.1834 24.3333 25.6587V46.3413C24.3333 46.5767 24.3913 46.8097 24.5038 47.0271C24.6164 47.2445 24.7814 47.4421 24.9894 47.6085C25.1974 47.7749 25.4444 47.9069 25.7161 47.9969C25.9879 48.087 26.2792 48.1333 26.5733 48.1333H52.4267C52.7208 48.1333 53.0121 48.087 53.2839 47.9969C53.5556 47.9069 53.8026 47.7749 54.0106 47.6085C54.2186 47.4421 54.3836 47.2445 54.4962 47.0271C54.6087 46.8097 54.6667 46.5767 54.6667 46.3413V25.6587C54.6667 25.4233 54.6087 25.1903 54.4962 24.9729C54.3836 24.7555 54.2186 24.5579 54.0106 24.3915C53.8026 24.2251 53.5556 24.0931 53.2839 24.0031C53.0121 23.913 52.7208 23.8667 52.4267 23.8667H26.5733Z" fill="#2BD4D9"/>
<path d="M44.5517 31.6667C45.8404 31.6667 46.8851 30.622 46.8851 29.3333C46.8851 28.0447 45.8404 27 44.5517 27C43.2631 27 42.2184 28.0447 42.2184 29.3333C42.2184 30.622 43.2631 31.6667 44.5517 31.6667Z" fill="#2BD4D9"/>
<path d="M23 39.2884L34.2318 32.1942L36.3061 32L43.1064 37.6975C43.1064 37.6975 44.285 38.9646 45.2868 38.0952L48.6693 35.2742C48.6693 35.2742 49.3411 34.1181 50.7789 35.2742C52.2168 36.4304 56 40.2133 56 40.2133L55.9175 46.9004C55.9175 46.9004 55.5639 49 52.0989 49C48.6339 49 26.1704 48.7133 26.1704 48.7133C26.1704 48.7133 23 49.3237 23 46.2992C23 43.2748 23 39.2884 23 39.2884Z" fill="#2BD4D9"/>
<path d="M72.7617 44.8144C72.7617 42.7413 71.0751 41.0547 69.002 41.0547H68.25V44.1309C68.25 44.6971 67.7909 45.1562 67.2246 45.1562C66.6583 45.1562 66.1992 44.6971 66.1992 44.1309V41.0547H61.6875V44.1309C61.6875 44.6971 61.2284 45.1562 60.6621 45.1562C60.0958 45.1562 59.6367 44.6971 59.6367 44.1309V41.0547H55.125V44.1309C55.125 44.6971 54.6659 45.1562 54.0996 45.1562C53.5333 45.1562 53.0742 44.6971 53.0742 44.1309V41.0547H48.5625V44.1309C48.5625 44.6971 48.1034 45.1562 47.5371 45.1562C46.9708 45.1562 46.5117 44.6971 46.5117 44.1309V41.0547H45.7598C43.6866 41.0547 42 42.7413 42 44.8144V47.8906H72.7617V44.8144Z" fill="#5433ED"/>
<path d="M48.5625 40.0254C48.5625 39.4591 48.1034 39 47.5371 39C46.9708 39 46.5117 39.4591 46.5117 40.0254V41.0508H48.5625V40.0254Z" fill="#5433ED"/>
<path d="M68.25 40.0254C68.25 39.4591 67.7909 39 67.2246 39C66.6583 39 66.1992 39.4591 66.1992 40.0254V41.0508H68.25V40.0254Z" fill="#5433ED"/>
<path d="M61.6875 40.0254C61.6875 39.4591 61.2284 39 60.6621 39C60.0958 39 59.6367 39.4591 59.6367 40.0254V41.0508H61.6875V40.0254Z" fill="#5433ED"/>
<path d="M55.125 40.0254C55.125 39.4591 54.6659 39 54.0996 39C53.5333 39 53.0742 39.4591 53.0742 40.0254V41.0508H55.125V40.0254Z" fill="#5433ED"/>
<path d="M69.4805 56.9102C70.6326 56.9102 71.7378 57.1149 72.7617 57.4897V49.9375H42V65.3184C42 67.0146 43.38 68.3945 45.0762 68.3945H60.1026C59.9765 67.7759 59.9102 67.1358 59.9102 66.4805C59.9102 61.2034 64.2034 56.9102 69.4805 56.9102ZM65.6523 53.5264H67.3613C67.9276 53.5264 68.3867 53.9855 68.3867 54.5518C68.3867 55.118 67.9276 55.5771 67.3613 55.5771H65.6523C65.0861 55.5771 64.627 55.118 64.627 54.5518C64.627 53.9855 65.0861 53.5264 65.6523 53.5264ZM59.5684 53.5264H61.2773C61.8436 53.5264 62.3027 53.9855 62.3027 54.5518C62.3027 55.118 61.8436 55.5771 61.2773 55.5771H59.5684C59.0021 55.5771 58.543 55.118 58.543 54.5518C58.543 53.9855 59.0021 53.5264 59.5684 53.5264ZM49.1094 64.8057H47.4004C46.8341 64.8057 46.375 64.3466 46.375 63.7803C46.375 63.214 46.8341 62.7549 47.4004 62.7549H49.1094C49.6757 62.7549 50.1348 63.214 50.1348 63.7803C50.1348 64.3466 49.6757 64.8057 49.1094 64.8057ZM49.1094 60.1914H47.4004C46.8341 60.1914 46.375 59.7323 46.375 59.166C46.375 58.5997 46.8341 58.1406 47.4004 58.1406H49.1094C49.6757 58.1406 50.1348 58.5997 50.1348 59.166C50.1348 59.7323 49.6757 60.1914 49.1094 60.1914ZM55.1934 64.8057H53.4844C52.9181 64.8057 52.459 64.3466 52.459 63.7803C52.459 63.214 52.9181 62.7549 53.4844 62.7549H55.1934C55.7596 62.7549 56.2188 63.214 56.2188 63.7803C56.2188 64.3466 55.7596 64.8057 55.1934 64.8057ZM55.1934 60.1914H53.4844C52.9181 60.1914 52.459 59.7323 52.459 59.166C52.459 58.5997 52.9181 58.1406 53.4844 58.1406H55.1934C55.7596 58.1406 56.2188 58.5997 56.2188 59.166C56.2188 59.7323 55.7596 60.1914 55.1934 60.1914ZM55.1934 55.5771H53.4844C52.9181 55.5771 52.459 55.118 52.459 54.5518C52.459 53.9855 52.9181 53.5264 53.4844 53.5264H55.1934C55.7596 53.5264 56.2188 53.9855 56.2188 54.5518C56.2188 55.118 55.7596 55.5771 55.1934 55.5771ZM58.543 59.166C58.543 58.5997 59.0021 58.1406 59.5684 58.1406H61.2773C61.8436 58.1406 62.3027 58.5997 62.3027 59.166C62.3027 59.7323 61.8436 60.1914 61.2773 60.1914H59.5684C59.0021 60.1914 58.543 59.7323 58.543 59.166Z" fill="#5433ED"/>
<path d="M69.4805 58.9609C65.3342 58.9609 61.9609 62.3342 61.9609 66.4805C61.9609 70.6267 65.3342 74 69.4805 74C73.6267 74 77 70.6267 77 66.4805C77 62.3342 73.6267 58.9609 69.4805 58.9609ZM72.8984 67.5059H69.4805C68.9142 67.5059 68.4551 67.0468 68.4551 66.4805V63.0625C68.4551 62.4962 68.9142 62.0371 69.4805 62.0371C70.0468 62.0371 70.5059 62.4962 70.5059 63.0625V65.4551H72.8984C73.4647 65.4551 73.9238 65.9142 73.9238 66.4805C73.9238 67.0468 73.4647 67.5059 72.8984 67.5059Z" fill="#5433ED"/>
</g>
<defs>
<clipPath id="clip0_4825_23388">
<rect width="55" height="52" fill="white" transform="translate(22 22)"/>
</clipPath>
</defs>
</svg>
