<svg width="55" height="52" viewBox="0 0 55 52" fill="none" xmlns="http://www.w3.org/2000/svg">
<g clip-path="url(#clip0_4825_23667)">
<path d="M32.9233 22.3967L27.8833 17.3101C27.8599 17.2808 27.8294 17.2579 27.7947 17.2436C27.76 17.2293 27.7223 17.2241 27.685 17.2284C27.6474 17.2298 27.6104 17.2388 27.5763 17.2548C27.5422 17.2709 27.5117 17.2936 27.4867 17.3217L24.1267 20.8801C23.9094 21.1111 23.6474 21.2954 23.3565 21.4218C23.0657 21.5482 22.7521 21.6139 22.435 21.6151C22.1179 21.6139 21.8043 21.5482 21.5135 21.4218C21.2226 21.2954 20.9606 21.1111 20.7433 20.8801L13.5333 13.1917C13.482 13.1458 13.4155 13.1204 13.3467 13.1204C13.2778 13.1204 13.2113 13.1458 13.16 13.1917L1.93666 21.9417L0.48999 20.0634L11.6667 11.3134C12.1796 10.9146 12.8233 10.7221 13.471 10.7739C14.1187 10.8258 14.7236 11.1181 15.1667 11.5934L22.365 19.2817L25.7017 15.7234C25.9404 15.466 26.229 15.2599 26.5499 15.1175C26.8708 14.9751 27.2173 14.8994 27.5683 14.8951C27.9194 14.8859 28.2687 14.9496 28.5939 15.0822C28.9192 15.2147 29.2135 15.4132 29.4583 15.6651L34.4983 20.7517L32.9233 22.3967Z" fill="#2BD4D9"/>
<path d="M30.4267 28H4.57333C3.36041 28 2.19716 27.6145 1.3395 26.9284C0.481832 26.2423 0 25.3117 0 24.3413V3.65867C0 2.68833 0.481832 1.75773 1.3395 1.0716C2.19716 0.385466 3.36041 0 4.57333 0H30.4267C31.6396 0 32.8028 0.385466 33.6605 1.0716C34.5182 1.75773 35 2.68833 35 3.65867V24.3413C35 25.3117 34.5182 26.2423 33.6605 26.9284C32.8028 27.6145 31.6396 28 30.4267 28ZM4.57333 1.86667C3.97925 1.86667 3.4095 2.05547 2.98941 2.39153C2.56933 2.7276 2.33333 3.1834 2.33333 3.65867V24.3413C2.33333 24.5767 2.39127 24.8097 2.50384 25.0271C2.61641 25.2445 2.78141 25.4421 2.98941 25.6085C3.19742 25.7749 3.44435 25.9069 3.71612 25.9969C3.98789 26.087 4.27917 26.1333 4.57333 26.1333H30.4267C30.7208 26.1333 31.0121 26.087 31.2839 25.9969C31.5556 25.9069 31.8026 25.7749 32.0106 25.6085C32.2186 25.4421 32.3836 25.2445 32.4962 25.0271C32.6087 24.8097 32.6667 24.5767 32.6667 24.3413V3.65867C32.6667 3.42334 32.6087 3.19031 32.4962 2.9729C32.3836 2.75548 32.2186 2.55793 32.0106 2.39153C31.8026 2.22513 31.5556 2.09313 31.2839 2.00307C31.0121 1.91302 30.7208 1.86667 30.4267 1.86667H4.57333Z" fill="#2BD4D9"/>
<path d="M22.5517 9.66667C23.8404 9.66667 24.8851 8.622 24.8851 7.33333C24.8851 6.04467 23.8404 5 22.5517 5C21.2631 5 20.2184 6.04467 20.2184 7.33333C20.2184 8.622 21.2631 9.66667 22.5517 9.66667Z" fill="#2BD4D9"/>
<path d="M1 17.2884L12.2318 10.1942L14.3061 10L21.1064 15.6975C21.1064 15.6975 22.285 16.9646 23.2868 16.0952L26.6693 13.2742C26.6693 13.2742 27.3411 12.1181 28.7789 13.2742C30.2168 14.4304 34 18.2133 34 18.2133L33.9175 24.9004C33.9175 24.9004 33.5639 27 30.0989 27C26.6339 27 4.17036 26.7133 4.17036 26.7133C4.17036 26.7133 1 27.3237 1 24.2992C1 21.2748 1 17.2884 1 17.2884Z" fill="#2BD4D9"/>
<path d="M50.7617 22.8144C50.7617 20.7413 49.0751 19.0547 47.002 19.0547H46.25V22.1309C46.25 22.6971 45.7909 23.1562 45.2246 23.1562C44.6583 23.1562 44.1992 22.6971 44.1992 22.1309V19.0547H39.6875V22.1309C39.6875 22.6971 39.2284 23.1562 38.6621 23.1562C38.0958 23.1562 37.6367 22.6971 37.6367 22.1309V19.0547H33.125V22.1309C33.125 22.6971 32.6659 23.1562 32.0996 23.1562C31.5333 23.1562 31.0742 22.6971 31.0742 22.1309V19.0547H26.5625V22.1309C26.5625 22.6971 26.1034 23.1562 25.5371 23.1562C24.9708 23.1562 24.5117 22.6971 24.5117 22.1309V19.0547H23.7598C21.6866 19.0547 20 20.7413 20 22.8144V25.8906H50.7617V22.8144Z" fill="#5433ED"/>
<path d="M26.5625 18.0254C26.5625 17.4591 26.1034 17 25.5371 17C24.9708 17 24.5117 17.4591 24.5117 18.0254V19.0508H26.5625V18.0254Z" fill="#5433ED"/>
<path d="M46.25 18.0254C46.25 17.4591 45.7909 17 45.2246 17C44.6583 17 44.1992 17.4591 44.1992 18.0254V19.0508H46.25V18.0254Z" fill="#5433ED"/>
<path d="M39.6875 18.0254C39.6875 17.4591 39.2284 17 38.6621 17C38.0958 17 37.6367 17.4591 37.6367 18.0254V19.0508H39.6875V18.0254Z" fill="#5433ED"/>
<path d="M33.125 18.0254C33.125 17.4591 32.6659 17 32.0996 17C31.5333 17 31.0742 17.4591 31.0742 18.0254V19.0508H33.125V18.0254Z" fill="#5433ED"/>
<path d="M47.4805 34.9102C48.6326 34.9102 49.7378 35.1149 50.7617 35.4897V27.9375H20V43.3184C20 45.0146 21.38 46.3945 23.0762 46.3945H38.1026C37.9765 45.7759 37.9102 45.1358 37.9102 44.4805C37.9102 39.2034 42.2034 34.9102 47.4805 34.9102ZM43.6523 31.5264H45.3613C45.9276 31.5264 46.3867 31.9855 46.3867 32.5518C46.3867 33.118 45.9276 33.5771 45.3613 33.5771H43.6523C43.0861 33.5771 42.627 33.118 42.627 32.5518C42.627 31.9855 43.0861 31.5264 43.6523 31.5264ZM37.5684 31.5264H39.2773C39.8436 31.5264 40.3027 31.9855 40.3027 32.5518C40.3027 33.118 39.8436 33.5771 39.2773 33.5771H37.5684C37.0021 33.5771 36.543 33.118 36.543 32.5518C36.543 31.9855 37.0021 31.5264 37.5684 31.5264ZM27.1094 42.8057H25.4004C24.8341 42.8057 24.375 42.3466 24.375 41.7803C24.375 41.214 24.8341 40.7549 25.4004 40.7549H27.1094C27.6757 40.7549 28.1348 41.214 28.1348 41.7803C28.1348 42.3466 27.6757 42.8057 27.1094 42.8057ZM27.1094 38.1914H25.4004C24.8341 38.1914 24.375 37.7323 24.375 37.166C24.375 36.5997 24.8341 36.1406 25.4004 36.1406H27.1094C27.6757 36.1406 28.1348 36.5997 28.1348 37.166C28.1348 37.7323 27.6757 38.1914 27.1094 38.1914ZM33.1934 42.8057H31.4844C30.9181 42.8057 30.459 42.3466 30.459 41.7803C30.459 41.214 30.9181 40.7549 31.4844 40.7549H33.1934C33.7596 40.7549 34.2188 41.214 34.2188 41.7803C34.2188 42.3466 33.7596 42.8057 33.1934 42.8057ZM33.1934 38.1914H31.4844C30.9181 38.1914 30.459 37.7323 30.459 37.166C30.459 36.5997 30.9181 36.1406 31.4844 36.1406H33.1934C33.7596 36.1406 34.2188 36.5997 34.2188 37.166C34.2188 37.7323 33.7596 38.1914 33.1934 38.1914ZM33.1934 33.5771H31.4844C30.9181 33.5771 30.459 33.118 30.459 32.5518C30.459 31.9855 30.9181 31.5264 31.4844 31.5264H33.1934C33.7596 31.5264 34.2188 31.9855 34.2188 32.5518C34.2188 33.118 33.7596 33.5771 33.1934 33.5771ZM36.543 37.166C36.543 36.5997 37.0021 36.1406 37.5684 36.1406H39.2773C39.8436 36.1406 40.3027 36.5997 40.3027 37.166C40.3027 37.7323 39.8436 38.1914 39.2773 38.1914H37.5684C37.0021 38.1914 36.543 37.7323 36.543 37.166Z" fill="#5433ED"/>
<path d="M47.4805 36.9609C43.3342 36.9609 39.9609 40.3342 39.9609 44.4805C39.9609 48.6267 43.3342 52 47.4805 52C51.6267 52 55 48.6267 55 44.4805C55 40.3342 51.6267 36.9609 47.4805 36.9609ZM50.8984 45.5059H47.4805C46.9142 45.5059 46.4551 45.0468 46.4551 44.4805V41.0625C46.4551 40.4962 46.9142 40.0371 47.4805 40.0371C48.0468 40.0371 48.5059 40.4962 48.5059 41.0625V43.4551H50.8984C51.4647 43.4551 51.9238 43.9142 51.9238 44.4805C51.9238 45.0468 51.4647 45.5059 50.8984 45.5059Z" fill="#5433ED"/>
</g>
<defs>
<clipPath id="clip0_4825_23667">
<rect width="55" height="52" fill="white"/>
</clipPath>
</defs>
</svg>
