<svg width="676" height="676" viewBox="0 0 676 676" fill="none" xmlns="http://www.w3.org/2000/svg">
<path d="M417.618 218.562C422.312 216.062 427.883 216 432.64 218.375C444.846 224.5 458.553 227.937 473.075 227.937C504.496 227.937 533.79 211.5 550.251 184.875C550.94 183.75 550.564 182.312 549.438 181.687L537.044 174.5C527.468 168.937 515.325 169.75 506.875 176.937C497.549 184.875 485.593 189.437 473.012 189.437C441.09 189.437 415.803 160.625 421.874 127.625C424.816 111.625 435.394 97.8125 450.103 90.75C470.133 81.125 492.04 85.25 507 98.125C515.262 105.25 527.217 106.062 536.669 100.562L549.313 93.25C550.439 92.625 550.815 91.125 550.126 90.0625C527.155 52.9375 479.021 35.625 435.332 55.25C407.603 67.6875 387.886 93.8125 383.442 123.812C380.438 144.375 384.381 163.875 393.332 180.312C395.961 185.187 396.086 191.062 393.457 196L371.237 238.062C370.173 240.125 372.363 242.312 374.429 241.25L417.618 218.562Z" fill="#2CD3DB"/>
<path d="M348.641 407.75C354.712 410.375 369.547 410.062 369.547 410.062C369.672 410.062 366.354 400.375 366.104 399.75C362.849 392.937 352.521 381.687 344.197 382.812C338.188 383.625 334.808 389.687 336.185 395.312C337.499 401.187 343.446 405.5 348.641 407.75Z" fill="#1A2E35"/>
<path d="M172.756 276.437C172.756 276.437 63.6567 277.875 60.2767 285.625C56.8967 293.375 41.3738 387.312 40.3723 419.75C39.4334 452.188 38.9326 473.5 42.3126 477.375C45.6926 481.25 98.5834 511.75 98.5834 511.75L78.053 640.5L372.739 596.875C372.739 596.875 366.73 572.75 366.292 570.313C365.791 567.875 384.694 384.375 374.053 339.375C363.413 294.375 349.329 276.937 338.689 274C328.048 271.125 251.873 273.062 251.873 273.062L172.756 276.437Z" fill="#5633EF" stroke="white" stroke-width="4" stroke-miterlimit="10"/>
<path d="M230.841 315.438C227.274 317.5 223.456 319.438 219.512 321.125" stroke="white" stroke-width="3" stroke-miterlimit="10" stroke-linecap="round" stroke-linejoin="round"/>
<path d="M271.276 278.812C271.276 278.812 258.007 297.875 235.974 312.25" stroke="white" stroke-width="3" stroke-miterlimit="10" stroke-linecap="round" stroke-linejoin="round"/>
<path d="M264.829 298.188C264.829 298.188 254.814 312.313 245.989 317" stroke="white" stroke-width="3" stroke-miterlimit="10" stroke-linecap="round" stroke-linejoin="round"/>
<path d="M195.477 453.313L192.66 444.438" stroke="white" stroke-width="3" stroke-miterlimit="10" stroke-linecap="round" stroke-linejoin="round"/>
<path d="M211.062 501.563L198.419 462.375" stroke="white" stroke-width="3" stroke-miterlimit="10" stroke-linecap="round" stroke-linejoin="round"/>
<path d="M214.943 502.562L227.524 482.688" stroke="white" stroke-width="3" stroke-miterlimit="10" stroke-linecap="round" stroke-linejoin="round"/>
<path d="M243.548 490.938L274.093 456.562" stroke="white" stroke-width="3" stroke-miterlimit="10" stroke-linecap="round" stroke-linejoin="round"/>
<path d="M164.744 598.188L230.466 617.312" stroke="white" stroke-width="3" stroke-miterlimit="10" stroke-linecap="round" stroke-linejoin="round"/>
<path d="M145.59 592.625L156.92 595.875" stroke="white" stroke-width="3" stroke-miterlimit="10" stroke-linecap="round" stroke-linejoin="round"/>
<path d="M172.067 61.125C172.067 61.125 137.829 53.25 131.319 62.0625C124.81 70.875 137.829 79.1875 135.951 81C134.073 82.875 94.2645 103.188 97.5193 123.063C100.774 142.938 127.626 163.25 128.565 168.813C129.504 174.375 97.5193 176.188 93.3882 184.5C89.2571 192.813 83.1856 232.125 117.924 245.063C152.663 258 196.165 236.25 208.183 236.25C220.201 236.25 232.281 259.813 246.177 258.438C260.072 257.063 267.959 246.875 267.959 246.875C267.959 246.875 282.293 266.75 303.136 258.438C323.979 250.125 348.015 221 337.875 212.188C327.672 203.375 316.093 200.625 323.541 192.75C330.927 184.875 346.2 164.063 343.884 146.063C341.568 128.063 320.286 126.625 311.962 121.125C303.637 115.563 321.225 106.313 320.787 91.0625C320.349 75.8125 309.207 50.375 252.749 33.25C196.165 16.3125 168.374 24.625 165.62 38.9375C162.803 53.25 172.067 61.125 172.067 61.125Z" fill="#211D53" stroke="#5633EF" stroke-width="1.393" stroke-miterlimit="10"/>
<path d="M178.264 209.437C178.264 209.437 166.684 281.562 166.246 283.875C165.808 286.188 186.589 307 214.88 303.313C243.11 299.625 257.443 280.688 257.443 280.688L248.618 209.062C248.618 209.062 224.52 220.625 209.748 220.187C194.913 219.625 178.264 209.437 178.264 209.437Z" fill="white" stroke="#5633EF" stroke-width="1.5" stroke-miterlimit="10"/>
<path d="M173.507 248.125L222.266 238.75L178.264 209.438L173.507 248.125Z" fill="#5633EF"/>
<path d="M152.538 145.875C152.538 145.875 144.401 135.563 140.583 148.563C136.765 161.563 153.101 177.312 153.101 177.312L152.538 145.875Z" fill="white" stroke="#5633EF" stroke-width="1.5" stroke-miterlimit="10"/>
<path d="M269.399 145.875C269.399 145.875 277.536 135.563 281.354 148.563C285.172 161.563 268.835 177.312 268.835 177.312L269.399 145.875Z" fill="white" stroke="#5633EF" stroke-width="1.5" stroke-miterlimit="10"/>
<path d="M178.139 80.6875C178.139 80.6875 154.792 103.313 151.412 110.063C148.032 116.813 149.409 194.188 153.102 201.625C156.794 209.062 194.037 238.125 200.109 240.5C206.18 242.875 220.076 245.25 230.904 239.812C241.733 234.438 267.771 206.688 270.463 199.625C273.154 192.5 269.774 111.438 268.084 103.688C266.394 95.9375 225.459 68.1875 208.183 66.875C190.97 65.5 178.139 80.6875 178.139 80.6875Z" fill="white" stroke="#5633EF" stroke-width="1.5" stroke-miterlimit="10"/>
<path d="M196.478 66.8125C196.478 66.8125 231.467 98.6875 256.63 99.875C281.792 101.125 281.792 101.125 281.792 101.125C281.792 101.125 226.585 93.8125 209.372 56.4375C209.372 56.4375 190.344 40.5 196.478 66.8125Z" fill="#211D53" stroke="#5633EF" stroke-width="1.393" stroke-miterlimit="10"/>
<path d="M216.07 130L218.761 164.125" stroke="white" stroke-width="3" stroke-miterlimit="10" stroke-linecap="round" stroke-linejoin="round"/>
<path d="M221.453 171.25C221.077 172.25 220.639 173.188 220.138 174.125C219.637 175.063 219.074 175.938 218.386 176.813C217.76 177.688 217.009 178.5 216.257 179.25C215.444 180 214.567 180.688 213.441 181.25C212.877 181.5 212.251 181.75 211.563 181.813L211 181.875L210.499 181.813C210.186 181.813 209.873 181.75 209.56 181.688C208.371 181.438 207.244 180.938 206.305 180.313C205.366 179.688 204.553 178.938 203.864 178.063C203.176 177.25 202.55 176.313 202.174 175.313C204.052 176.313 205.804 177.375 207.557 178.063C208.433 178.438 209.247 178.688 210.061 178.813C210.249 178.875 210.436 178.875 210.687 178.875H211C211.062 178.875 211.125 178.875 211.25 178.875C211.563 178.875 211.939 178.75 212.314 178.563C213.816 177.875 215.444 176.625 216.946 175.313L221.453 171.25Z" fill="#5633EF"/>
<path d="M184.586 182.375C185.712 183.813 186.964 185.25 188.216 186.563C189.468 187.875 190.845 189.125 192.284 190.188C195.101 192.375 198.356 194.125 201.673 194.5C202.487 194.563 203.363 194.563 204.302 194.563C205.179 194.563 206.117 194.563 206.994 194.5C208.809 194.438 210.561 194.25 212.377 194C214.192 193.75 215.944 193.5 217.76 193.188C219.512 192.875 221.327 192.5 223.08 192.063L223.956 195.063C220.263 196.125 216.57 196.813 212.815 197.188C210.937 197.375 209.059 197.5 207.119 197.5C206.18 197.5 205.241 197.438 204.24 197.438C203.301 197.375 202.362 197.313 201.298 197.125C200.296 196.938 199.357 196.625 198.419 196.313C197.48 195.938 196.603 195.5 195.79 195C194.1 194 192.597 192.813 191.283 191.438C188.529 188.75 186.276 185.688 184.586 182.375Z" fill="#5633EF"/>
<path d="M220.076 124.625C220.076 124.625 231.906 115.813 236.663 112.813C241.42 109.75 256.63 115.5 256.63 115.5C256.63 115.5 245.113 109.063 239.041 108.063C235.098 107.375 224.019 113.625 219.637 118.688C217.322 121.438 218.448 124 220.076 124.625Z" fill="#211D53" stroke="#5633EF" stroke-width="1.393" stroke-miterlimit="10"/>
<path d="M195.727 126.25C195.727 126.25 194.037 121.5 188.278 121.188C182.52 120.875 157.17 127.625 161.551 127.625C165.933 127.625 184.21 127.313 188.967 127.313C193.724 127.313 195.727 126.25 195.727 126.25Z" fill="#211D53" stroke="#5633EF" stroke-width="1.393" stroke-miterlimit="10"/>
<path d="M80.1185 340.25C80.1185 340.25 90.3211 284.313 94.953 278.75C99.5848 273.188 150.034 232.063 152.851 229.313C155.605 226.563 175.51 196.5 176.449 200.188C177.387 203.875 174.133 220.063 168.124 228.875C162.115 237.688 153.79 248.313 153.79 248.313C153.79 248.313 184.836 256.188 186.651 258C188.529 259.875 199.044 282.875 199.608 285.75C200.609 290.688 199.17 296 194.976 296.375C191.158 296.688 166.246 283.875 166.246 283.875L146.341 286.625C146.341 286.625 132.008 304.188 122.243 307.438C112.541 310.688 108.849 311.125 108.849 311.125L109.287 345.313L80.1185 340.25Z" fill="white" stroke="#5633EF" stroke-width="1.5" stroke-miterlimit="10"/>
<path d="M155.23 258.875C155.23 258.875 182.27 262.5 183.897 263.812C185.524 265.125 199.545 285.75 199.545 285.75" stroke="white" stroke-width="3" stroke-miterlimit="10" stroke-linecap="round" stroke-linejoin="round"/>
<path d="M157.045 271.125C157.045 271.125 183.897 277.25 185.837 278.937C187.84 280.562 198.356 292.75 198.356 292.75" stroke="white" stroke-width="3" stroke-miterlimit="10" stroke-linecap="round" stroke-linejoin="round"/>
<path d="M198.919 506.937C198.919 506.937 162.553 500.188 161.113 499.688C159.674 499.188 133.948 491.438 130.568 490C127.188 488.563 85.9396 481.313 83.9992 484.188C82.0589 487.063 80.1185 504.063 79.6178 505.5C79.117 506.938 75.2363 513.75 76.2378 517.625C77.1767 521.5 76.2378 528.25 76.2378 528.25C76.2378 528.25 75.737 551 81.5581 551.5C87.3792 552 92.6996 530.188 92.6996 530.188C92.6996 530.188 100.962 535 117.924 536C134.887 536.937 151.349 528.75 151.349 528.75L196.416 539.375L198.919 506.937Z" fill="white" stroke="#5633EF" stroke-width="1.5" stroke-miterlimit="10"/>
<path d="M73.1708 330.375L121.993 339.25L120.115 369.688C120.115 369.688 130.881 374.813 134.199 404.812C137.453 434.812 146.842 504.5 144.526 509.625C142.21 514.75 127.626 537.25 93.8263 538.687C60.0263 540.062 41.7493 509.187 38.4319 499.312C35.1771 489.5 52.5152 424.937 53.4541 419.312C54.393 413.687 59.0874 375.25 63.2811 368.687C67.4748 362.125 72.67 357.938 72.67 357.938L73.1708 330.375Z" fill="#5633EF" stroke="white" stroke-width="4" stroke-miterlimit="10"/>
<path d="M103.528 365.5C106.282 365.813 109.036 366 111.665 366" stroke="white" stroke-width="3" stroke-miterlimit="10" stroke-linecap="round" stroke-linejoin="round"/>
<path d="M72.7327 358.062C72.7327 358.062 81.433 361.188 92.1364 363.563" stroke="white" stroke-width="3" stroke-miterlimit="10" stroke-linecap="round" stroke-linejoin="round"/>
<path d="M341.505 345.688L336.686 470.625C336.686 470.625 331.365 471.125 329.425 473.5C327.484 475.938 326.045 478.813 326.045 478.813C326.045 478.813 277.097 480.75 253.813 487.5C230.529 494.25 215.006 502.5 215.006 502.5L193.662 502L189.28 558.188L217.885 559.125C217.885 559.125 231.968 567.375 295.938 573.188C359.97 579 389.514 580.438 396.274 572.688C403.034 564.938 405.976 552.813 406.914 546.563C407.853 540.25 419.496 501.563 419.496 445.375C419.496 389.188 366.667 307.875 355.025 289.5C343.383 271.125 331.24 272.563 323.04 274.5" fill="#5633EF"/>
<path d="M341.505 345.688L336.686 470.625C336.686 470.625 331.365 471.125 329.425 473.5C327.484 475.938 326.045 478.813 326.045 478.813C326.045 478.813 277.097 480.75 253.813 487.5C230.529 494.25 215.006 502.5 215.006 502.5L193.662 502L189.28 558.188L217.885 559.125C217.885 559.125 231.968 567.375 295.938 573.188C359.97 579 389.514 580.438 396.274 572.688C403.034 564.938 405.976 552.813 406.914 546.563C407.853 540.25 419.496 501.563 419.496 445.375C419.496 389.188 366.667 307.875 355.025 289.5C343.383 271.125 331.24 272.563 323.04 274.5" stroke="white" stroke-width="4" stroke-miterlimit="10"/>
<path d="M366.417 462L336.623 470.625L364.79 444.438" stroke="white" stroke-width="3" stroke-miterlimit="10" stroke-linecap="round" stroke-linejoin="round"/>
<path d="M385.132 456.562L375.743 459.312" stroke="white" stroke-width="3" stroke-miterlimit="10" stroke-linecap="round" stroke-linejoin="round"/>
<path d="M325.982 478.812C325.982 478.812 357.028 481.25 369.609 486.063" stroke="white" stroke-width="3" stroke-miterlimit="10" stroke-linecap="round" stroke-linejoin="round"/>
<path d="M374.116 506.438C375.556 507.937 376.995 509.562 378.31 511.312" stroke="white" stroke-width="3" stroke-miterlimit="10" stroke-linecap="round" stroke-linejoin="round"/>
<path d="M338.563 485.625C338.563 485.625 354.024 489.313 368.17 500.938" stroke="white" stroke-width="3" stroke-miterlimit="10" stroke-linecap="round" stroke-linejoin="round"/>
<path d="M214.442 507.875L214.943 554.875" stroke="white" stroke-width="3" stroke-miterlimit="10" stroke-linecap="round" stroke-linejoin="round"/>
<path d="M191.158 543.25H211.563" stroke="white" stroke-width="3" stroke-miterlimit="10" stroke-linecap="round" stroke-linejoin="round"/>
<path d="M196.04 515.625L204.302 515.125" stroke="white" stroke-width="3" stroke-miterlimit="10" stroke-linecap="round" stroke-linejoin="round"/>
<path d="M345.699 666.688L219.387 647.688L215.131 632L454.86 592.875L451.793 647.625L345.699 666.688Z" fill="#211D53" stroke="#5633EF" stroke-width="1.393" stroke-miterlimit="10"/>
<path d="M667.925 407.25L404.849 423.875L345.949 666.5L614.972 639L667.925 407.25Z" fill="#2CD3DB"/>
<path d="M539.769 529.873C542.5 521.905 539.306 513.597 532.634 511.317C525.962 509.037 518.339 513.648 515.608 521.617C512.877 529.585 516.071 537.893 522.743 540.173C529.415 542.453 537.038 537.842 539.769 529.873Z" fill="#211D53"/>
<path d="M218.135 644L218.323 642.563L346.888 659.688L404.16 423.75L404.285 423.25L667.863 406.625L668.864 406.562L617.351 632.25L617.225 632.75L347.514 661.313H347.451L218.135 644ZM666.987 408.062L405.475 424.562L348.39 659.625L615.974 631.313L666.987 408.062Z" fill="white"/>
<path d="M607.148 244.563V244.5C607.148 239.125 603.267 234.188 597.384 234.188C592.689 234.188 589.998 237.562 589.059 240.687C588.12 237.562 585.429 234.188 580.734 234.188C574.85 234.188 570.97 239.125 570.97 244.5V244.563C570.907 245.75 570.97 257.688 589.059 267.438C607.148 257.688 607.211 245.75 607.148 244.563Z" fill="#211D53"/>
<path d="M557.325 294.5C557.325 291.813 555.447 289.438 552.567 289.438C550.314 289.438 549 291.062 548.562 292.562C548.123 291.062 546.809 289.438 544.556 289.438C541.676 289.438 539.799 291.812 539.799 294.437C539.799 294.437 539.799 294.438 539.799 294.5C539.799 295.062 539.799 300.875 548.562 305.562C557.325 300.875 557.325 295.125 557.325 294.5Z" fill="#211D53"/>
<path d="M388.95 40.5625C388.95 37.875 387.073 35.5 384.193 35.5C381.94 35.5 380.626 37.125 380.187 38.625C379.749 37.125 378.435 35.5 376.181 35.5C373.302 35.5 371.424 37.875 371.424 40.5C371.424 40.5 371.424 40.5 371.424 40.5625C371.424 41.125 371.424 46.9375 380.187 51.625C388.95 46.9375 388.95 41.125 388.95 40.5625Z" fill="#211D53"/>
</svg>
