<svg width="52" height="52" viewBox="0 0 52 52" fill="none" xmlns="http://www.w3.org/2000/svg">
<g clip-path="url(#clip0_4825_23360)">
<path fill-rule="evenodd" clip-rule="evenodd" d="M29.0231 0.28125H4.78767C2.31767 0.28125 0.315674 2.28834 0.315674 4.76399V23.9271C0.315674 26.2513 2.19559 28.1357 4.51411 28.1357L4.46437 31.8526L8.67015 28.1357H29.0231C31.4931 28.1357 33.4951 26.1286 33.4951 23.653V4.76399C33.4951 2.28834 31.4931 0.28125 29.0231 0.28125Z" fill="#2BD4D9"/>
<path fill-rule="evenodd" clip-rule="evenodd" d="M23.1104 20.2109H47.3458C49.8158 20.2109 51.8184 22.218 51.8184 24.6937V43.8574C51.8184 46.1815 49.9379 48.0654 47.6194 48.0654L47.6691 51.7828L43.4633 48.0654H23.1104C20.6404 48.0654 18.6384 46.0589 18.6384 43.5832V24.6937C18.6384 22.218 20.6404 20.2109 23.1104 20.2109Z" fill="#5433ED"/>
<path fill-rule="evenodd" clip-rule="evenodd" d="M20.6876 10.3659C20.6876 12.031 19.3413 13.3808 17.6801 13.3808C16.0189 13.3808 14.6726 12.031 14.6726 10.3659C14.6726 8.7013 16.0189 7.35156 17.6801 7.35156C19.3413 7.35156 20.6876 8.7013 20.6876 10.3659Z" fill="white"/>
<path fill-rule="evenodd" clip-rule="evenodd" d="M22.6351 19.0606C22.5266 16.0423 20.3499 13.6328 17.6798 13.6328C15.0097 13.6328 12.8336 16.0423 12.7251 19.0606H22.6351Z" fill="white"/>
<path fill-rule="evenodd" clip-rule="evenodd" d="M38.7406 31.7721C38.7406 33.4373 37.3943 34.787 35.7331 34.787C34.072 34.787 32.7256 33.4373 32.7256 31.7721C32.7256 30.1076 34.072 28.7578 35.7331 28.7578C37.3943 28.7578 38.7406 30.1076 38.7406 31.7721Z" fill="white"/>
<path fill-rule="evenodd" clip-rule="evenodd" d="M40.6883 40.4669C40.5797 37.4486 38.4036 35.0391 35.7336 35.0391C33.0635 35.0391 30.8868 37.4486 30.7783 40.4669H40.6883Z" fill="white"/>
</g>
<defs>
<clipPath id="clip0_4825_23360">
<rect width="52" height="52" fill="white"/>
</clipPath>
</defs>
</svg>
