<svg width="707" height="713" viewBox="0 0 707 713" fill="none" xmlns="http://www.w3.org/2000/svg">
<g clip-path="url(#clip0_2830_2057)">
<path d="M476.687 576.037C512.983 564.261 515.152 587.259 582.441 594.396C619.032 598.228 659.437 571.329 677.653 536.47C695.868 501.61 692.721 455.021 664.325 432.787C645.985 418.462 620.986 415.954 598.676 408.947C576.241 401.849 553.421 386.358 552.116 361.905C550.368 327.563 590.777 301.708 617.734 286.286C628.893 279.807 639.148 271.426 646.758 260.921C680.928 213.487 638.651 178.91 599.869 179.94C570.335 180.805 542.033 195.46 513.259 204.989C484.486 214.518 450.662 217.892 429.168 198.993C406.027 178.694 406.38 141.713 402.729 109.736C399.077 77.7585 382.301 41.0587 350.531 42.3843C326.617 43.3675 307.575 65.9787 295.942 88.3395C284.433 110.791 276.193 135.818 258.047 153.254C235.273 175.241 204.682 178.877 174.209 175.525C141.423 171.954 115.689 210.104 132.302 238.365C132.328 238.592 132.578 238.773 132.604 238.999C145.306 260.058 163.733 277.151 175.046 299.076C186.36 321.001 188.639 351.985 170.628 371.598C149.252 394.806 109.333 391.893 97.2619 427.459C90.3913 447.445 96.8027 468.524 111.53 481.272C144.53 509.754 188.499 501.039 229.62 500.455C262.762 500.123 299.997 508.581 313.709 538.484C329.327 572.057 307.994 615.683 316.863 652.272C324.995 685.415 361.045 706.536 394.694 697.627C428.245 688.854 454.405 651.428 451.04 616.955C451.238 616.682 444.139 586.576 476.687 576.037Z" stroke="#5633EF" stroke-width="1.5" stroke-miterlimit="10"/>
<path d="M608.937 567.595L186.242 509.118C175.899 507.668 168.698 498.109 170.138 487.693L206.208 223.132C207.649 212.715 217.141 205.464 227.484 206.914L650.178 265.39C660.521 266.841 667.722 276.4 666.282 286.816L630.212 551.377C628.772 561.793 619.28 569.045 608.937 567.595Z" fill="#211D53" stroke="#5633EF" stroke-width="1.393" stroke-miterlimit="10"/>
<path d="M639.892 287.777L255.436 234.588L220.556 490.287L605.011 543.476L639.892 287.777Z" fill="white" stroke="#5633EF" stroke-width="1.5" stroke-miterlimit="10"/>
<path d="M605.598 544.191L605.009 544.125L219.89 490.857L219.956 490.264L254.913 233.878L255.502 233.944L640.62 287.278L640.555 287.871L605.598 544.191ZM221.265 489.736L604.485 542.741L639.18 288.333L255.96 235.328L221.265 489.736Z" fill="white"/>
<path d="M664.318 291.167C664.318 291.365 561.869 277.323 435.591 259.852C309.247 242.382 206.928 228.076 206.928 227.878C206.928 227.681 309.313 241.723 435.656 259.193C562 276.664 664.318 290.97 664.318 291.167Z" fill="white"/>
<path d="M629.426 546.828C629.426 547.026 526.977 532.984 400.699 515.513C274.355 498.043 172.037 483.737 172.037 483.539C172.037 483.341 274.421 497.384 400.764 514.854C527.108 532.324 629.492 546.696 629.426 546.828Z" fill="white"/>
<path d="M229.906 356.5C229.841 356.5 230.102 354.984 229.841 352.347C229.513 349.71 228.4 345.82 224.996 342.392C223.294 340.744 221.134 339.227 218.515 338.37C215.897 337.513 212.82 337.184 209.809 337.909C208.303 338.238 206.798 338.766 205.357 339.557C203.917 340.348 202.608 341.337 201.43 342.59C199.073 345.029 197.436 348.325 196.913 351.885C196.454 355.445 197.109 359.071 198.746 362.104C199.531 363.62 200.579 364.938 201.757 366.059C202.935 367.18 204.179 368.169 205.619 368.894C208.369 370.41 211.38 370.938 214.129 370.806C216.879 370.674 219.432 369.817 221.461 368.696C225.651 366.323 227.811 362.895 228.793 360.455C229.71 358.016 229.841 356.5 229.906 356.5C229.906 356.5 229.906 356.895 229.775 357.555C229.71 357.884 229.644 358.346 229.513 358.873C229.382 359.401 229.251 359.994 228.989 360.587C228.073 363.093 225.913 366.718 221.658 369.158C219.563 370.344 216.944 371.267 214.129 371.399C211.314 371.531 208.172 371.004 205.292 369.487C203.852 368.762 202.477 367.773 201.299 366.587C200.055 365.4 199.007 364.015 198.222 362.433C196.52 359.335 195.8 355.577 196.258 351.819C196.782 348.127 198.484 344.633 200.971 342.128C202.15 340.875 203.59 339.821 205.095 339.03C206.601 338.238 208.107 337.645 209.743 337.315C212.886 336.59 216.028 336.986 218.777 337.843C221.527 338.766 223.752 340.348 225.454 342.062C228.859 345.622 229.971 349.644 230.233 352.281C230.299 352.94 230.299 353.533 230.299 354.061C230.299 354.588 230.299 355.05 230.233 355.379C229.971 356.17 229.971 356.5 229.906 356.5Z" fill="white"/>
<path d="M218.843 354.984C218.777 354.984 218.843 354.456 218.712 353.599C218.581 352.742 218.188 351.49 217.075 350.369C216.028 349.314 214.129 348.523 212.1 348.984C210.136 349.38 208.238 351.16 207.976 353.533C207.649 355.841 208.958 358.082 210.725 359.005C212.493 359.994 214.522 359.73 215.897 359.005C217.272 358.28 217.992 357.159 218.319 356.368C218.712 355.511 218.777 354.984 218.843 354.984C218.843 354.984 218.843 355.116 218.843 355.379C218.843 355.643 218.777 355.973 218.581 356.434C218.319 357.291 217.599 358.544 216.093 359.401C214.719 360.258 212.427 360.587 210.463 359.533C208.434 358.544 206.928 356.038 207.321 353.401C207.649 350.764 209.809 348.787 211.969 348.391C214.195 347.93 216.224 348.853 217.403 350.039C218.581 351.292 218.908 352.676 218.974 353.599C218.974 354.061 218.974 354.39 218.908 354.654C218.843 354.852 218.843 354.984 218.843 354.984Z" fill="white"/>
<path d="M228.531 347.139C228.597 347.27 226.371 348.457 223.556 349.776C220.741 351.028 218.384 351.951 218.319 351.819C218.254 351.687 220.479 350.501 223.294 349.182C226.109 347.93 228.466 347.007 228.531 347.139Z" fill="white"/>
<path d="M219.759 319.252C219.759 319.186 220.545 319.384 221.919 319.054C223.229 318.79 225.193 317.801 226.305 315.626C226.895 314.571 226.96 313.187 227.156 311.736C227.222 311.011 227.353 310.22 227.418 309.495C227.418 308.77 227.353 307.978 227.091 307.187C226.567 305.671 225.454 304.352 223.883 303.561C223.098 303.166 222.312 303.034 221.33 302.902C220.414 302.77 219.497 302.638 218.515 302.507C216.682 302.243 214.915 302.836 213.606 303.957C212.296 305.078 211.576 306.66 211.445 308.308C211.314 309.099 211.183 309.956 211.118 310.681C210.987 311.472 210.922 312.198 210.987 312.857C211.118 314.241 211.773 315.494 212.558 316.417C213.344 317.34 214.326 317.933 215.242 318.197C216.159 318.527 217.01 318.593 217.73 318.724C219.039 319.054 219.759 319.186 219.759 319.252C219.759 319.318 218.974 319.252 217.599 319.054C216.944 318.988 216.028 318.922 215.046 318.658C214.064 318.395 213.016 317.735 212.165 316.812C211.314 315.89 210.594 314.571 210.398 312.989C210.267 312.264 210.398 311.407 210.463 310.615C210.594 309.824 210.66 309.033 210.791 308.242C210.922 306.528 211.707 304.748 213.147 303.495C214.588 302.243 216.551 301.584 218.581 301.847C219.497 301.979 220.479 302.111 221.396 302.243C222.312 302.309 223.294 302.507 224.145 302.968C225.847 303.825 227.091 305.341 227.615 306.924C227.877 307.715 228.007 308.572 227.942 309.429C227.877 310.286 227.746 311.011 227.615 311.736C227.418 313.187 227.287 314.637 226.633 315.758C225.389 318.131 223.294 319.054 221.919 319.252C220.545 319.515 219.759 319.252 219.759 319.252Z" fill="white"/>
<path d="M223.229 293.87C223.229 293.804 224.014 294.002 225.389 293.673C226.698 293.409 228.662 292.42 229.775 290.244C230.364 289.19 230.43 287.805 230.626 286.355C230.692 285.63 230.822 284.839 230.888 284.113C230.888 283.388 230.822 282.597 230.561 281.806C230.037 280.29 228.924 278.971 227.353 278.18C226.567 277.784 225.782 277.653 224.8 277.521C223.883 277.389 222.967 277.257 221.985 277.125C220.152 276.862 218.384 277.455 217.075 278.576C215.766 279.696 215.046 281.279 214.915 282.927C214.784 283.718 214.653 284.575 214.588 285.3C214.457 286.091 214.391 286.816 214.457 287.541C214.588 288.926 215.242 290.179 216.028 291.101C216.813 292.024 217.795 292.618 218.712 292.881C219.628 293.211 220.479 293.277 221.199 293.409C222.443 293.739 223.229 293.87 223.229 293.87C223.229 293.87 222.443 293.87 221.068 293.673C220.414 293.607 219.497 293.541 218.515 293.277C217.533 293.013 216.486 292.354 215.635 291.431C214.784 290.508 214.064 289.19 213.868 287.607C213.737 286.882 213.868 286.025 213.933 285.234C214.064 284.443 214.129 283.652 214.26 282.861C214.391 281.147 215.177 279.367 216.617 278.114C218.057 276.862 220.021 276.202 222.05 276.466C222.967 276.598 223.949 276.73 224.865 276.862C225.782 276.927 226.764 277.125 227.615 277.587C229.317 278.444 230.561 279.96 231.084 281.542C231.346 282.333 231.477 283.19 231.412 284.047C231.346 284.904 231.215 285.63 231.084 286.355C230.888 287.805 230.757 289.256 230.102 290.376C228.859 292.75 226.764 293.673 225.389 293.87C224.014 294.2 223.229 293.87 223.229 293.87Z" fill="white"/>
<path d="M204.899 428.227C204.899 428.161 205.685 428.359 207.059 428.03C208.369 427.766 210.333 426.777 211.445 424.601C212.035 423.547 212.1 422.162 212.296 420.712C212.362 419.987 212.493 419.195 212.558 418.47C212.558 417.745 212.493 416.954 212.231 416.163C211.707 414.647 210.594 413.328 209.023 412.537C208.238 412.141 207.452 412.01 206.47 411.878C205.554 411.746 204.637 411.614 203.655 411.482C201.822 411.218 200.055 411.812 198.746 412.932C197.436 414.053 196.716 415.635 196.585 417.284C196.454 418.075 196.323 418.932 196.258 419.657C196.127 420.448 196.062 421.173 196.127 421.832C196.258 423.217 196.913 424.47 197.698 425.393C198.484 426.315 199.466 426.909 200.382 427.173C201.299 427.502 202.15 427.568 202.87 427.7C204.179 428.03 204.899 428.161 204.899 428.227C204.899 428.293 204.114 428.227 202.739 428.03C202.084 427.964 201.168 427.898 200.186 427.634C199.204 427.37 198.156 426.711 197.305 425.788C196.454 424.865 195.734 423.547 195.538 421.964C195.407 421.239 195.538 420.382 195.603 419.591C195.734 418.8 195.8 418.009 195.931 417.218C196.062 415.504 196.847 413.724 198.287 412.471C199.728 411.218 201.691 410.559 203.721 410.823C204.637 410.955 205.619 411.087 206.536 411.218C207.452 411.284 208.434 411.482 209.285 411.944C210.987 412.801 212.231 414.317 212.755 415.899C213.017 416.69 213.147 417.547 213.082 418.404C213.017 419.261 212.886 419.987 212.755 420.712C212.558 422.162 212.427 423.613 211.773 424.733C210.529 427.107 208.434 428.03 207.059 428.227C205.685 428.491 204.899 428.227 204.899 428.227Z" fill="white"/>
<path d="M208.369 402.846C208.369 402.78 209.154 402.978 210.529 402.648C211.838 402.384 213.802 401.395 214.915 399.22C215.504 398.165 215.57 396.781 215.766 395.33C215.831 394.605 215.962 393.814 216.028 393.089C216.028 392.364 215.962 391.573 215.7 390.781C215.177 389.265 214.064 387.947 212.493 387.155C211.707 386.76 210.922 386.628 209.94 386.496C209.023 386.364 208.107 386.233 207.125 386.101C205.292 385.837 203.524 386.43 202.215 387.551C200.906 388.672 200.186 390.254 200.055 391.902C199.924 392.693 199.793 393.55 199.728 394.275C199.597 395.067 199.531 395.792 199.597 396.451C199.728 397.835 200.382 399.088 201.168 400.011C201.953 400.934 202.935 401.527 203.852 401.791C204.768 402.121 205.619 402.187 206.339 402.318C207.583 402.648 208.369 402.846 208.369 402.846C208.369 402.912 207.583 402.846 206.208 402.648C205.554 402.582 204.637 402.516 203.655 402.252C202.673 401.989 201.626 401.33 200.775 400.407C199.924 399.484 199.204 398.165 199.007 396.583C198.877 395.858 199.007 395.001 199.073 394.21C199.204 393.418 199.269 392.627 199.4 391.836C199.531 390.122 200.317 388.342 201.757 387.09C203.197 385.837 205.161 385.178 207.19 385.441C208.107 385.573 209.089 385.705 210.005 385.837C210.922 385.903 211.904 386.101 212.755 386.562C214.457 387.419 215.7 388.935 216.224 390.518C216.486 391.309 216.617 392.166 216.551 393.023C216.486 393.88 216.355 394.605 216.224 395.33C216.028 396.781 215.897 398.231 215.242 399.352C213.998 401.725 211.904 402.648 210.529 402.846C209.154 403.175 208.369 402.846 208.369 402.846Z" fill="white"/>
<path d="M182.118 471.409C182.118 473.321 182.118 503.581 182.118 503.581C182.118 503.581 180.678 507.404 174.459 520.392C168.24 533.379 161.563 572.737 161.563 572.737L174.459 598.712L215.111 527.973C219.956 519.535 222.247 509.844 221.723 500.153L219.759 463.234L182.118 471.409Z" fill="white" stroke="#5633EF" stroke-width="1.5" stroke-miterlimit="10"/>
<path d="M159.337 427.37L112.662 435.281C112.662 435.281 117.375 448.137 117.702 449.39C118.946 454.004 121.63 465.871 120.059 477.012C118.03 491.187 116.262 508.459 117.179 516.568C118.095 524.677 126.147 602.733 126.147 602.733H155.016L161.432 453.675L159.337 427.37Z" fill="white" stroke="#5633EF" stroke-width="1.5" stroke-miterlimit="10"/>
<path d="M161.628 561.925C161.628 561.925 161.693 561.596 161.824 561.002C162.021 560.343 162.217 559.486 162.479 558.497C163.134 556.19 163.985 553.091 165.032 549.267C166.145 545.378 167.454 540.697 168.894 535.621C169.614 533.05 170.4 530.347 171.12 527.578C171.447 526.062 172.102 524.743 172.757 523.359C173.346 521.974 174 520.59 174.655 519.205C175.964 516.436 177.274 513.733 178.583 511.096C179.238 509.778 179.892 508.525 180.481 507.273C181.071 506.02 181.791 504.767 182.642 503.713C185.98 499.362 190.694 497.054 194.687 496.527C198.746 495.933 202.084 496.79 204.113 497.647C205.161 498.043 205.946 498.504 206.47 498.834C206.994 499.164 207.256 499.362 207.19 499.362C207.125 499.427 206.143 498.702 203.983 497.977C201.888 497.252 198.68 496.461 194.752 497.12C190.89 497.713 186.373 499.955 183.231 504.174C182.445 505.229 181.791 506.35 181.201 507.602C180.612 508.855 179.958 510.107 179.303 511.426C178.059 514.063 176.75 516.766 175.375 519.535C174.721 520.919 174.066 522.304 173.477 523.688C172.888 525.073 172.233 526.391 171.906 527.71C171.186 530.544 170.4 533.247 169.614 535.819C168.109 540.895 166.734 545.51 165.556 549.399C164.377 553.157 163.461 556.256 162.741 558.563C162.414 559.552 162.152 560.409 161.955 561.068C161.759 561.596 161.628 561.925 161.628 561.925Z" fill="#5633EF"/>
<path d="M154.558 628.642C154.689 625.016 152.529 615.918 150.827 611.897C149.059 607.81 149.845 604.909 149.845 604.909L140.222 600.492C137.014 599.041 133.414 598.514 130.009 599.305C126.213 600.162 125.558 601.942 125.427 604.315C124.903 614.336 125.623 623.038 125.1 626.796C124.38 631.807 130.009 654.683 130.402 654.815C130.795 654.947 157.897 660.353 157.897 660.353C157.897 660.353 162.348 657.65 162.61 653.958C162.872 650.2 154.427 632.268 154.558 628.642Z" fill="white"/>
<path d="M162.61 653.892C160.384 648.684 155.736 644.728 153.903 639.322C151.612 632.598 154.1 624.621 150.63 618.424C148.012 613.743 142.186 610.513 137.014 611.963C132.301 612.556 127.653 616.71 126.147 620.731C124.641 624.687 124.969 629.038 125.362 633.257C125.885 639.652 126.409 646.047 126.933 652.442C127.456 659.232 128.176 666.484 132.301 671.89C137.538 678.746 148.012 680.79 155.344 676.373C162.741 672.022 166.014 661.803 162.61 653.892Z" fill="#211D53" stroke="#5633EF" stroke-width="1.393" stroke-miterlimit="10"/>
<path d="M165.098 632.795C165.098 632.795 174.852 624.225 178.059 601.151C181.332 578.011 176.226 568.122 176.226 568.122C176.226 568.122 172.757 554.607 164.574 556.256C159.271 557.508 156.064 561.134 152.856 564.694L165.098 632.795Z" fill="white"/>
<path d="M168.502 562.189C168.043 561.793 167.52 561.398 166.996 561.134C162.086 558.958 155.867 561.134 152.463 565.419C148.863 569.902 147.946 576.099 148.47 581.901C148.863 586.186 149.976 590.471 149.059 594.69C148.077 599.173 145 602.799 142.644 606.623C139.043 612.556 136.883 619.347 136.556 626.269C136.228 632.202 137.407 638.795 143.953 641.564C147.226 643.014 151.023 642.948 154.362 641.761C161.366 639.256 165.818 632.927 168.96 626.467C178.321 607.282 178.714 583.878 170.138 564.364C169.745 563.573 169.156 562.848 168.502 562.189Z" fill="#211D53" stroke="#5633EF" stroke-width="1.393" stroke-miterlimit="10"/>
<path d="M141.793 609.787C141.727 609.919 140.745 609.458 138.978 609.062C138.127 608.864 137.079 608.667 135.901 608.601C134.788 608.535 133.479 608.535 132.235 608.996C129.813 609.985 127.849 611.633 126.671 612.886C125.493 614.204 125.1 615.259 124.969 615.193C124.903 615.193 125.1 614.007 126.213 612.556C127.325 611.106 129.289 609.392 131.908 608.271C133.283 607.744 134.657 607.81 135.901 607.941C137.079 608.073 138.192 608.337 139.043 608.601C140.876 609.062 141.858 609.721 141.793 609.787Z" fill="#211D53" stroke="#5633EF" stroke-width="1.393" stroke-miterlimit="10"/>
<path d="M137.079 605.107C137.014 605.37 135.246 605.107 133.086 605.568C130.926 606.03 129.355 607.019 129.224 606.821C129.093 606.689 130.533 605.304 132.89 604.777C135.246 604.25 137.145 604.909 137.079 605.107Z" fill="#211D53" stroke="#5633EF" stroke-width="1.393" stroke-miterlimit="10"/>
<path d="M157.438 640.377C157.438 640.377 157.307 640.509 156.98 640.707C156.653 640.904 156.26 641.168 155.671 641.432C154.493 642.025 152.66 642.684 150.303 642.948C147.946 643.146 144.935 642.816 142.186 641.102C140.811 640.245 139.502 639.19 138.52 637.74C137.472 636.29 136.752 634.641 136.294 632.861C135.312 629.301 135.312 625.741 135.77 622.643C136.294 619.544 137.21 616.841 138.192 614.666C139.174 612.49 140.091 610.842 140.745 609.655C141.4 608.535 141.793 607.941 141.858 607.941C141.924 607.941 141.596 608.601 141.007 609.787C140.418 610.974 139.567 612.688 138.716 614.864C137.865 617.039 136.948 619.676 136.49 622.709C136.097 625.741 136.163 629.17 137.079 632.598C137.538 634.312 138.258 635.894 139.174 637.212C140.091 638.531 141.334 639.586 142.644 640.377C145.197 642.025 148.012 642.421 150.303 642.289C152.594 642.157 154.427 641.564 155.605 641.102C156.784 640.641 157.373 640.311 157.438 640.377Z" fill="white"/>
<path d="M70.6345 316.813C71.0273 316.417 71.4855 315.956 71.9438 315.56C71.4855 316.022 71.0273 316.417 70.6345 316.813Z" fill="white" stroke="#5633EF" stroke-width="1.5" stroke-miterlimit="10"/>
<path d="M71.8784 315.56L77.0499 318.658C86.2802 316.549 95.445 313.648 103.235 308.176C110.96 302.77 117.179 294.464 118.423 285.036C101.075 292.024 85.1673 302.441 71.8784 315.56Z" fill="white" stroke="#5633EF" stroke-width="1.5" stroke-miterlimit="10"/>
<path d="M84.4472 278.312C87.393 271.587 100.093 244.294 100.093 244.294C100.093 244.294 83.858 230.384 72.8603 233.548C72.8603 233.548 55.6435 273.565 54.5961 277.257C54.5961 277.257 43.5983 301.254 54.5961 307.385C54.5961 307.385 65.0702 308.374 70.5691 300.727C76.0679 293.013 84.4472 278.312 84.4472 278.312Z" fill="white" stroke="#5633EF" stroke-width="1.5" stroke-miterlimit="10"/>
<path d="M9.42664 337.513L107.752 248.513L111.68 289.058L31.2258 361.972C24.745 367.839 14.7946 367.576 8.70654 361.247C2.16025 354.588 2.48756 343.776 9.42664 337.513Z" fill="#211D53" stroke="#5633EF" stroke-width="1.393" stroke-miterlimit="10"/>
<path d="M31.4877 361.378C31.3568 361.378 31.9459 359.401 31.0294 356.368C30.113 353.401 27.7563 349.644 24.3522 346.281C20.9481 342.919 17.1513 340.744 14.2709 339.491C11.3906 338.239 9.49213 337.843 9.49213 337.711C9.49213 337.645 10.0158 337.711 10.8668 337.909C11.7179 338.107 12.9617 338.436 14.4673 338.964C17.4131 340.084 21.4064 342.26 24.8759 345.688C28.3455 349.116 30.7021 353.006 31.5532 356.17C31.9459 357.753 31.9459 359.071 31.8805 359.994C31.7495 360.917 31.5531 361.378 31.4877 361.378Z" fill="white"/>
<path d="M35.2191 358.478C35.0881 358.478 35.6773 356.5 34.7608 353.467C33.8443 350.501 31.4877 346.743 28.0836 343.381C24.6795 340.018 20.8827 337.843 18.0023 336.59C15.1219 335.338 13.2235 334.942 13.2235 334.81C13.2235 334.744 13.7472 334.81 14.5982 335.008C15.4493 335.206 16.693 335.536 18.1987 336.063C21.1445 337.184 25.1378 339.359 28.6073 342.787C32.0768 346.216 34.4335 350.105 35.2845 353.27C35.6773 354.852 35.6773 356.17 35.6119 357.093C35.4155 358.082 35.2191 358.544 35.2191 358.478Z" fill="white"/>
<path d="M107.752 248.513L229.317 151.075C241.82 145.273 251.967 142.636 265.518 140.856C267.613 140.593 269.053 142.636 268.333 144.68C264.405 156.481 260.412 164.853 252.032 174.61L114.691 285.432L107.752 248.513Z" fill="#211D53" stroke="#5633EF" stroke-width="1.393" stroke-miterlimit="10"/>
<path d="M252.622 173.951C252.491 174.017 251.836 172.171 250.33 169.534C248.825 166.831 246.403 163.337 242.998 160.107C239.594 156.876 235.994 154.635 233.244 153.25C230.495 151.866 228.662 151.338 228.728 151.207C228.728 151.141 229.186 151.273 230.037 151.47C230.888 151.668 232.066 152.13 233.506 152.723C236.387 153.975 240.118 156.217 243.588 159.447C247.057 162.744 249.479 166.435 250.854 169.204C251.574 170.589 252.032 171.775 252.294 172.633C252.556 173.49 252.687 173.951 252.622 173.951Z" fill="white"/>
<path d="M271.868 138.879C271.409 138.483 270.755 138.747 270.231 139.076C269.184 139.736 268.071 140.395 267.023 140.988L267.744 143.823C268.922 142.834 270.035 141.845 271.213 140.79C271.475 140.527 271.802 140.263 271.933 139.933C272.195 139.604 272.195 139.142 271.868 138.879Z" fill="#211D53" stroke="#5633EF" stroke-width="1.393" stroke-miterlimit="10"/>
<path d="M268.529 143.823C268.333 143.757 268.267 142.9 267.613 142.109C267.023 141.252 266.107 141.054 266.107 140.856C266.107 140.724 266.369 140.659 266.827 140.724C267.285 140.79 267.809 141.12 268.267 141.647C268.66 142.175 268.856 142.768 268.856 143.23C268.791 143.625 268.66 143.823 268.529 143.823Z" fill="white"/>
<path d="M139.829 88.5112L139.567 173.094L175.637 174.808L176.685 154.239C176.685 154.239 189.515 156.81 192.788 144.812C194.883 137.164 194.36 78.0289 194.36 78.0289L139.829 88.5112Z" fill="white" stroke="#5633EF" stroke-width="1.5" stroke-miterlimit="10"/>
<path d="M199.073 84.0941C193.378 85.7422 192.134 95.1037 192.134 95.1037L183.231 114.881C178.714 111.321 172.626 111.519 171.448 119.562C170.596 125.364 177.797 126.55 177.797 126.55C173.608 133.67 170.793 139.472 164.705 146.262C158.159 153.646 154.427 154.371 147.357 154.503H139.502C139.502 154.503 135.639 141.911 128.504 110.464C120.583 75.5896 161.563 80.0726 169.156 71.1726C181.594 56.603 217.01 78.9519 199.073 84.0941Z" fill="#211D53" stroke="#5633EF" stroke-width="1.393" stroke-miterlimit="10"/>
<path d="M129.289 113.695C122.678 109.212 122.023 96.62 125.951 89.1044C129.813 81.5889 137.996 76.4467 146.375 76.3148C147.488 76.3148 148.666 76.3148 149.714 75.9193C151.285 75.3259 152.267 73.8096 153.314 72.4911C159.271 64.7119 165.098 57.0645 176.161 57.0645C177.928 57.0645 179.958 57.0645 183.1 58.7785C184.671 59.6356 186.897 62.6022 187.29 64.3163C189.384 63.3274 191.479 62.3385 193.77 61.943C196.062 61.6133 198.549 62.0089 200.251 63.5252C201.953 65.0415 202.608 67.8763 201.299 69.7882C205.03 69.5244 208.565 72.6889 209.154 76.3807C209.743 80.0726 204.441 82.7096 203.917 82.9733C203.917 82.9733 206.798 89.1044 199.924 92.7304C197.109 94.1807 193.509 92.4007 193.116 92.203" fill="#211D53"/>
<path d="M129.289 113.695C122.678 109.212 122.023 96.62 125.951 89.1044C129.813 81.5889 137.996 76.4467 146.375 76.3148C147.488 76.3148 148.666 76.3148 149.714 75.9193C151.285 75.3259 152.267 73.8096 153.314 72.4911C159.271 64.7119 165.098 57.0645 176.161 57.0645C177.928 57.0645 179.958 57.0645 183.1 58.7785C184.671 59.6356 186.897 62.6022 187.29 64.3163C189.384 63.3274 191.479 62.3385 193.77 61.943C196.062 61.6133 198.549 62.0089 200.251 63.5252C201.953 65.0415 202.608 67.8763 201.299 69.7882C205.03 69.5244 208.565 72.6889 209.154 76.3807C209.743 80.0726 204.441 82.7096 203.917 82.9733C203.917 82.9733 206.797 89.1044 199.924 92.7304C197.109 94.1807 193.509 92.4007 193.116 92.203" stroke="#5633EF" stroke-width="1.393" stroke-miterlimit="10"/>
<path d="M155.605 121.87C155.867 121.87 156.195 124.77 155.409 128.264C154.624 131.759 153.052 134.264 152.856 134.132C152.594 134 153.772 131.429 154.493 128.067C155.278 124.704 155.344 121.87 155.605 121.87Z" fill="white"/>
<path d="M159.991 117.716C160.253 117.716 160.319 120.551 159.664 123.913C159.075 127.276 157.962 129.913 157.766 129.781C157.504 129.715 158.159 127.012 158.748 123.716C159.337 120.419 159.73 117.65 159.991 117.716Z" fill="white"/>
<path d="M172.495 103.74C172.56 103.872 171.578 104.597 170.269 106.113C168.96 107.63 167.454 110.003 166.407 112.838C165.294 115.739 164.705 118.442 164.247 120.419C163.788 122.397 163.461 123.65 163.33 123.65C163.199 123.65 163.265 122.331 163.592 120.353C163.919 118.31 164.377 115.475 165.556 112.508C166.669 109.542 168.305 107.102 169.811 105.652C171.251 104.202 172.429 103.674 172.495 103.74Z" fill="white"/>
<path d="M177.536 94.2467C177.667 94.2467 177.994 95.0378 178.256 96.5541C178.452 98.0045 178.518 100.114 177.928 102.356C177.405 104.597 176.357 106.443 175.506 107.63C174.59 108.816 173.87 109.41 173.804 109.344C173.608 109.146 176.03 106.443 177.012 102.224C178.125 97.8067 177.208 94.2467 177.536 94.2467Z" fill="white"/>
<path d="M134.526 115.343C134.395 115.541 133.283 115.211 132.039 114.486C130.795 113.761 129.879 113.036 130.009 112.838C130.14 112.64 131.253 112.97 132.497 113.695C133.741 114.42 134.592 115.145 134.526 115.343Z" fill="white"/>
<path d="M151.94 106.311C152.201 106.377 152.005 108.157 150.892 110.003C149.779 111.849 148.274 112.838 148.143 112.64C147.946 112.442 149.125 111.256 150.107 109.541C151.154 107.827 151.678 106.245 151.94 106.311Z" fill="white"/>
<path d="M157.242 103.41C157.504 103.476 157.111 105.586 155.605 107.827C154.165 110.003 152.332 111.19 152.201 111.058C152.005 110.86 153.511 109.41 154.82 107.366C156.26 105.256 156.98 103.344 157.242 103.41Z" fill="white"/>
<path d="M183.885 68.0082C183.82 68.0741 183.231 67.4808 181.922 66.7556C180.612 66.0304 178.518 65.2393 175.899 65.1734C173.28 65.1075 170.007 65.7008 167.061 67.5467C164.05 69.3927 161.432 72.4253 159.533 75.9853C158.159 78.6223 157.177 81.3253 156.456 83.8964L156.326 84.4238L155.867 84.1601C153.183 82.7756 150.368 82.1164 147.815 82.1164C145.262 82.0504 143.037 82.5119 141.269 83.1053C137.734 84.3579 136.032 85.9401 135.901 85.8082C135.901 85.8082 136.294 85.3467 137.079 84.7534C137.93 84.0942 139.24 83.303 141.007 82.6438C142.775 81.9845 145.131 81.3912 147.75 81.3912C150.368 81.3912 153.38 81.9845 156.195 83.4349L155.54 83.6986C156.26 81.0616 157.177 78.2927 158.617 75.5238C160.581 71.766 163.396 68.6675 166.538 66.7556C169.68 64.8438 173.084 64.2504 175.834 64.4482C178.583 64.5801 180.743 65.503 182.053 66.3601C182.707 66.8216 183.165 67.1512 183.427 67.4808C183.755 67.8104 183.885 67.9423 183.885 68.0082Z" fill="white"/>
<path d="M202.804 72.623C202.739 72.623 203.786 72.3593 204.899 73.546C205.357 74.1393 205.815 75.0623 205.75 76.183C205.619 77.3037 204.834 78.4904 203.655 79.2156C202.477 79.9408 200.84 80.2045 199.269 79.8089C197.698 79.4793 196.192 78.6223 194.752 77.6334C193.312 76.6445 191.937 75.4578 190.366 74.6008C188.73 73.7437 186.962 73.0845 185.064 72.6889C181.201 71.9637 177.405 72.4252 174.197 73.4141C170.989 74.4689 168.24 76.0511 166.145 77.5015C161.955 80.5341 159.861 83.1052 159.73 82.9734C159.664 82.9074 160.188 82.2482 161.17 81.1934C162.152 80.1386 163.657 78.5563 165.752 76.9741C167.847 75.3919 170.596 73.6778 173.935 72.5571C177.274 71.4363 181.201 70.9748 185.26 71.7C187.289 72.0956 189.188 72.7548 190.824 73.6778C192.527 74.6008 193.901 75.8534 195.276 76.8423C196.651 77.8311 198.025 78.6223 199.466 79.0178C200.906 79.3474 202.281 79.2156 203.328 78.6223C204.375 78.0289 205.095 77.04 205.226 76.1171C205.357 75.1941 205.03 74.3371 204.637 73.7437C203.786 72.623 202.804 72.6889 202.804 72.623Z" fill="white"/>
<path d="M108.669 358.082C108.669 358.082 107.359 392.957 108.669 403.571C109.978 414.185 108.079 478.265 108.079 478.265C108.079 478.265 156.915 492.571 170.138 475.628C170.138 475.628 164.836 397.77 164.247 395.66C163.723 393.55 159.402 340.48 159.402 340.48L108.669 358.082Z" fill="#211D53"/>
<path d="M220.086 340.414C222.967 349.446 229.055 383.398 229.055 383.398V473.453C229.055 473.453 186.7 488.879 169.876 481.232L159.402 390.847V344.04L194.229 330.393L220.086 340.414Z" fill="#211D53"/>
<path d="M193.247 402.978C193.247 403.044 192.527 403.044 191.283 402.912C190.039 402.846 188.206 402.714 185.915 402.516C181.267 402.055 175.113 401.527 168.305 400.868C161.497 400.275 155.344 399.681 150.696 399.22C148.535 399.022 146.768 398.824 145.328 398.693C144.084 398.561 143.364 398.495 143.364 398.429C143.364 398.363 144.084 398.363 145.328 398.429C146.572 398.429 148.405 398.561 150.696 398.693C155.213 398.956 161.432 399.418 168.371 400.077C175.244 400.736 181.463 401.396 185.98 401.923C188.075 402.187 189.908 402.385 191.283 402.582C192.527 402.78 193.247 402.912 193.247 402.978Z" fill="white"/>
<path d="M161.497 400.143C161.694 400.143 163.788 418.273 166.08 440.621C168.371 463.036 170.073 481.166 169.876 481.166C169.68 481.166 167.585 463.036 165.294 440.687C163.003 418.339 161.301 400.143 161.497 400.143Z" fill="white"/>
<path d="M162.152 399.616C162.283 399.813 160.057 401.791 157.177 404.033C154.296 406.34 151.874 408.054 151.743 407.856C151.612 407.659 153.838 405.681 156.718 403.439C159.533 401.198 162.021 399.484 162.152 399.616Z" fill="white"/>
<path d="M227.811 377.53C227.746 377.596 226.436 377.003 224.407 375.684C222.378 374.432 219.759 372.454 217.141 369.883C214.522 367.378 212.493 364.741 211.184 362.763C209.874 360.785 209.22 359.467 209.285 359.401C209.416 359.335 210.202 360.522 211.642 362.433C213.082 364.279 215.177 366.784 217.73 369.29C220.283 371.795 222.836 373.773 224.734 375.157C226.633 376.607 227.877 377.399 227.811 377.53Z" fill="white"/>
<path d="M159.926 391.573C159.861 391.573 159.599 391.177 159.206 390.386C158.813 389.595 158.224 388.474 157.635 387.024C156.391 384.123 155.016 379.97 154.231 375.289C153.445 370.542 153.314 366.191 153.511 363.027C153.576 361.445 153.707 360.192 153.838 359.335C153.969 358.478 154.1 358.016 154.1 358.016C154.231 358.016 154.034 359.928 154.034 363.093C153.969 366.191 154.165 370.476 155.016 375.157C155.802 379.838 157.111 383.925 158.159 386.826C159.206 389.727 159.991 391.507 159.926 391.573Z" fill="white"/>
<path d="M275.141 365.202C271.737 360.719 267.285 352.94 265.452 349.644C262.048 334.876 248.759 277.85 245.944 272.181C242.737 265.654 236.91 233.548 236.91 233.548H207.583C208.041 234.933 217.272 274.95 217.272 274.95C217.272 274.95 232.524 316.087 246.861 343.974L253.8 355.116C253.734 358.214 253.734 362.829 253.865 364.081C254.062 366.059 256.746 369.487 258.251 370.938C259.757 372.322 261.917 377.333 262.245 378.849C262.572 380.365 264.536 384.255 266.762 384.321C269.053 384.387 268.725 380.695 268.464 379.047C268.267 377.398 264.994 371.267 264.994 371.267L268.005 371.465L270.82 376.805C270.82 376.805 270.82 380.167 271.344 384.321C271.868 388.474 274.683 389.133 274.683 389.133C275.206 394.341 278.479 394.539 278.479 394.539C279.003 396.715 282.604 396.715 282.604 396.715V380.958L275.141 365.202Z" fill="white" stroke="#5633EF" stroke-width="1.5" stroke-miterlimit="10"/>
<path d="M211.38 266.709C210.922 265.39 206.274 238.295 206.274 238.295L240.969 237.438C240.969 237.438 225.782 177.577 217.468 173.16C204.637 166.304 176.357 165.513 176.357 165.513H139.96C139.96 165.513 99.7001 176.72 92.4337 188.784L66.7722 238.493L100.158 250.821L105.919 243.635L111.68 294.332C111.68 294.332 108.276 340.018 108.276 346.941C108.276 353.863 108.734 358.148 108.734 358.148C108.734 358.148 184.344 337.447 202.739 343.513C221.134 349.578 223.883 355.181 223.883 355.181C223.883 355.181 225.52 334.876 221.265 327.097L211.38 266.709Z" fill="#5633EF" stroke="white" stroke-width="4" stroke-miterlimit="10"/>
<path d="M106.705 250.755C106.574 250.755 106.246 248.315 105.461 244.426C104.675 240.536 103.431 235.196 101.402 229.527C99.4382 223.857 97.147 218.847 95.445 215.287C94.594 213.638 93.9393 212.254 93.3502 211.067C92.8265 210.078 92.5646 209.551 92.6301 209.485C92.6955 209.485 93.0228 209.947 93.612 210.935C94.2012 211.858 94.9867 213.243 95.9687 215.023C97.8671 218.517 100.224 223.527 102.188 229.263C104.152 234.998 105.395 240.404 106.05 244.294C106.377 246.272 106.574 247.854 106.639 248.975C106.705 250.161 106.77 250.755 106.705 250.755Z" fill="#211D53" stroke="#5633EF" stroke-width="1.393" stroke-miterlimit="10"/>
<path d="M178.19 269.873C178.19 269.873 178.125 270.137 177.994 270.598C177.797 271.192 177.601 271.851 177.274 272.708C176.946 273.631 176.554 274.752 176.03 276.004C175.506 277.257 174.982 278.773 174.262 280.29C172.888 283.454 171.12 287.146 168.96 291.167C166.734 295.189 164.181 299.474 161.17 303.825C158.159 308.11 155.016 312.066 152.07 315.494C149.059 318.922 146.244 321.889 143.691 324.262C142.447 325.449 141.269 326.504 140.287 327.427C139.305 328.35 138.389 329.075 137.603 329.734C136.883 330.261 136.359 330.723 135.901 331.118C135.508 331.448 135.312 331.58 135.246 331.58C135.246 331.58 135.443 331.382 135.77 330.987C136.228 330.591 136.752 330.064 137.407 329.47C138.127 328.811 138.978 328.02 139.96 327.097C140.942 326.174 142.12 325.119 143.298 323.867C145.721 321.493 148.535 318.461 151.481 315.033C154.427 311.604 157.504 307.649 160.515 303.364C163.461 299.078 166.08 294.793 168.305 290.838C170.466 286.882 172.299 283.19 173.739 280.092C174.459 278.51 175.048 277.125 175.572 275.873C176.095 274.62 176.554 273.499 176.881 272.642C177.208 271.851 177.47 271.126 177.732 270.598C178.059 270.137 178.19 269.873 178.19 269.873Z" fill="#211D53"/>
<path d="M206.536 196.696C206.667 196.761 206.143 199.069 205.75 203.024C205.357 206.914 205.161 212.32 205.292 218.319C205.423 224.319 205.816 229.724 206.143 233.614C206.274 235.46 206.405 236.976 206.536 238.229C206.601 239.35 206.667 239.943 206.601 239.943C206.536 239.943 206.405 239.35 206.208 238.295C206.012 237.24 205.816 235.658 205.554 233.68C205.095 229.79 204.637 224.319 204.506 218.319C204.375 212.32 204.637 206.848 205.161 202.959C205.488 200.981 205.75 199.464 206.012 198.344C206.274 197.289 206.47 196.696 206.536 196.696Z" fill="white"/>
<g opacity="0.3">
<g opacity="0.3">
<path opacity="0.3" d="M97.278 219.506C97.278 219.506 99.4382 240.339 100.093 250.755L105.854 243.569C105.919 243.569 100.224 222.143 97.278 219.506Z" fill="black"/>
</g>
</g>
<path d="M150.696 293.145C146.702 299.54 142.971 307.253 140.418 314.307C152.07 304.748 161.366 292.354 167.258 278.444C160.253 281.147 154.689 286.75 150.696 293.145Z" fill="#211D53"/>
<path d="M265.78 372.059C265.714 372.125 264.863 371.663 263.554 370.806C262.245 369.883 260.412 368.565 258.906 366.587C257.4 364.609 256.811 362.236 256.811 360.653C256.811 359.005 257.138 358.082 257.204 358.082C257.335 358.082 257.204 359.071 257.4 360.653C257.531 362.17 258.12 364.279 259.561 366.191C261.001 368.037 262.703 369.422 263.881 370.41C265.06 371.333 265.845 371.993 265.78 372.059Z" fill="#211D53"/>
<path d="M271.671 371.993C271.671 372.19 269.576 372.124 267.089 371.861C264.536 371.531 262.572 371.136 262.572 370.938C262.572 370.74 264.667 370.806 267.154 371.07C269.707 371.399 271.737 371.795 271.671 371.993Z" fill="#211D53"/>
<path d="M273.439 374.564C273.504 374.498 274.355 375.289 275.403 376.937C276.45 378.519 277.628 380.958 278.087 383.859C278.61 386.76 278.479 389.397 278.479 391.243C278.479 393.155 278.479 394.276 278.349 394.276C278.218 394.276 278.021 393.155 277.89 391.243C277.759 389.331 277.759 386.76 277.236 383.991C276.319 378.321 273.177 374.695 273.439 374.564Z" fill="#211D53"/>
<path d="M274.617 387.749C274.552 387.815 274.159 387.221 273.962 386.167C273.701 385.112 273.701 383.661 273.308 382.211C272.915 380.827 271.802 379.838 271.279 378.849C270.755 377.86 270.82 377.135 270.951 377.135C271.082 377.135 271.148 377.728 271.802 378.519C272.13 378.915 272.522 379.376 272.981 379.904C273.439 380.431 273.897 381.156 274.093 381.947C274.552 383.595 274.421 385.046 274.552 386.035C274.617 387.09 274.748 387.683 274.617 387.749Z" fill="#211D53"/>
<path d="M299.1 114.156C297.136 111.453 292.75 111.849 290.263 114.09C287.775 116.332 286.728 119.694 285.615 122.858C284.502 126.023 283.127 129.319 280.312 131.165C284.633 129.385 290.066 125.825 294.06 124.177C297.987 122.529 301.588 117.65 299.1 114.156Z" fill="#2CD3DB"/>
<path d="M277.956 137.428C280.443 136.11 285.68 134.989 288.43 135.516C291.179 136.11 293.667 137.626 295.434 139.867C295.958 140.527 296.416 141.186 296.547 141.977C296.678 142.768 296.482 143.691 295.827 144.153C295.238 144.614 294.452 144.68 293.732 144.548C291.114 144.219 288.954 142.504 286.859 140.856C284.764 139.34 280.574 137.494 277.956 137.428Z" fill="#2CD3DB"/>
<path d="M338.444 433.633C348.067 430.139 358.803 431.458 367.247 437.259C388.981 452.29 414.315 462.575 442.137 466.399C502.232 474.705 562.72 450.708 601.212 403.637C602.783 401.725 602.456 398.824 600.492 397.242L578.758 380.167C561.869 366.916 538.433 365.268 520.431 376.937C500.53 389.793 476.374 395.462 452.349 392.166C391.272 383.727 350.423 321.362 370.717 259.325C380.602 229.197 404.496 205.332 434.478 195.575C475.392 182.258 516.241 196.102 541.51 224.846C555.453 240.734 578.169 245.547 597.677 237.438L623.797 226.626C626.088 225.703 627.201 222.934 626.219 220.693C592.047 142.9 504.458 96.6859 415.624 123.056C359.326 139.736 314.615 184.961 298.249 241.723C287.055 280.619 289.477 319.318 302.243 353.467C306.039 363.62 304.665 374.959 298.38 383.727L244.701 459.015C242.082 462.707 245.748 467.519 249.938 466.003L338.444 433.633Z" fill="#2CD3DB"/>
</g>
<defs>
<clipPath id="clip0_2830_2057">
<rect width="707" height="712" fill="white" transform="translate(0 0.5)"/>
</clipPath>
</defs>
</svg>
