<svg width="577" height="450" viewBox="0 0 577 450" fill="none" xmlns="http://www.w3.org/2000/svg">
<path d="M340.5 328.292L341.708 330.5C340.25 332.583 339.167 335.083 338.375 337.792C337.417 341.042 336.958 344.542 336.75 348.042C336.542 351.333 336.542 354.625 336.75 357.917C337.083 363.5 338.125 369.125 340.458 373.75L339.25 375H345.583C346.958 375 348.083 376.542 348.083 378.417V378.917C348.083 380.792 346.958 382.333 345.583 382.333H52.5416C43.2083 382.333 35.6666 371.958 35.6666 359.167V344.167C35.6666 331.375 43.2083 321 52.5416 321H345.583C346.958 321 348.083 322.542 348.083 324.417V324.917C348.083 326.792 346.958 328.333 345.583 328.333H340.5V328.292Z" fill="#2CD3DB"/>
<path d="M342.667 328.292L342.542 328.792L342.375 329.542C342.125 329.875 341.875 330.208 341.625 330.542C340.167 332.625 339.083 335.125 338.292 337.833C337.333 341.083 336.875 344.583 336.625 348.083C336.417 351.375 336.417 354.667 336.625 357.958C336.958 363.542 338.042 369.167 340.375 373.792C340.583 374.208 340.833 374.625 341.042 375.042H52.5C46.5416 375.042 41.6666 368.458 41.6666 360.292V343.083C41.6666 334.958 46.5 328.333 52.5 328.333H342.667V328.292Z" fill="white" stroke="#5633EF" stroke-miterlimit="10"/>
<path d="M342.625 329.208C342.542 329.292 342.458 329.417 342.375 329.542C340.542 331.792 339.208 334.667 338.292 337.833C337.333 341.083 336.875 344.583 336.625 348.083C336.417 351.375 336.417 354.667 336.625 357.958C337 364.083 338.25 370.208 341.042 375.042C341.167 375.25 340.792 375.458 340.708 375.458C340.5 375.5 340.25 375.458 340.125 375.208C340.083 375.167 340.042 375.083 340 375.042C338.458 372.333 337.375 369.208 336.667 365.875C335.333 359.625 335.208 352.792 335.75 346.333C336.333 339.833 338.042 333.25 341.75 328.875C341.917 328.667 342.208 328.667 342.417 328.75C342.458 328.75 342.458 328.792 342.5 328.792C342.667 328.875 342.792 329.042 342.625 329.208Z" fill="#211D53"/>
<path d="M133.417 362.875H67.6666C67.5416 362.875 67.2083 362.917 67.2083 363.208C67.2083 363.458 67.5416 363.542 67.6666 363.542H133.417C133.542 363.542 133.875 363.5 133.875 363.208C133.875 362.958 133.542 362.875 133.417 362.875Z" fill="#5633EF" stroke="#5633EF" stroke-miterlimit="10"/>
<path d="M206.958 342.583H92.625C92.0417 342.583 92.0417 343.25 92.625 343.25H206.958C207.5 343.25 207.5 342.583 206.958 342.583Z" fill="#5633EF" stroke="#5633EF" stroke-miterlimit="10"/>
<path d="M302.167 357.167H185.25C184.667 357.167 184.667 357.833 185.25 357.833H302.167C302.75 357.833 302.75 357.167 302.167 357.167Z" fill="#211D53"/>
<path d="M316.083 339.917H286.917C286.792 339.917 286.458 339.958 286.458 340.25C286.458 340.5 286.792 340.583 286.917 340.583H316.083C316.208 340.583 316.542 340.542 316.542 340.25C316.583 340 316.208 339.917 316.083 339.917Z" fill="#211D53"/>
<path d="M324.5 368.208H316.083C315.958 368.208 315.625 368.25 315.625 368.542C315.625 368.792 315.958 368.875 316.083 368.875H324.5C324.625 368.875 324.958 368.833 324.958 368.542C325 368.25 324.625 368.208 324.5 368.208Z" fill="#211D53"/>
<path d="M300.125 386.375L301.042 387.458C299.958 388.458 299.125 389.667 298.5 390.958C297.792 392.5 297.417 394.208 297.25 395.875C297.083 397.458 297.083 399.042 297.25 400.583C297.5 403.25 298.292 405.958 300.083 408.167L299.167 408.75H303.958C305 408.75 305.833 409.5 305.833 410.375V410.625C305.833 411.542 305 412.25 303.958 412.25H81.2083C74.1249 412.25 68.3749 407.292 68.3749 401.167V393.958C68.3749 387.833 74.1249 382.875 81.2083 382.875H303.958C305 382.875 305.833 383.625 305.833 384.5V384.75C305.833 385.667 305 386.375 303.958 386.375H300.125Z" fill="#211D53"/>
<path d="M301.792 386.375L301.708 386.625L301.583 386.958C301.375 387.125 301.208 387.292 301 387.417C299.875 388.417 299.042 389.625 298.458 390.917C297.708 392.458 297.375 394.167 297.208 395.833C297.042 397.417 297.042 399 297.208 400.542C297.458 403.208 298.292 405.917 300.042 408.125C300.208 408.333 300.375 408.542 300.542 408.708H81.2083C76.6666 408.708 72.9999 405.542 72.9999 401.667V393.458C72.9999 389.583 76.6666 386.417 81.2083 386.417H301.792V386.375Z" fill="white" stroke="#5633EF" stroke-miterlimit="10"/>
<path d="M156.75 394.125H105.625C105.542 394.125 105.292 394.167 105.292 394.292C105.292 394.417 105.5 394.458 105.625 394.458H156.708C156.792 394.458 157.042 394.417 157.042 394.292C157.042 394.125 156.833 394.125 156.75 394.125Z" fill="#5633EF" stroke="#5633EF" stroke-miterlimit="10"/>
<path d="M219.125 401.625H167.458C167.375 401.625 167.208 401.667 167.208 401.792C167.208 401.917 167.417 401.958 167.458 401.958H219.125C219.208 401.958 219.375 401.917 219.375 401.792C219.417 401.667 219.208 401.625 219.125 401.625Z" fill="#5633EF" stroke="#5633EF" stroke-miterlimit="10"/>
<path d="M221.417 393.833H203.542C203.167 393.833 202.25 393.875 202.25 394C202.25 394.125 203.167 394.167 203.542 394.167H221.417C221.792 394.167 222.708 394.125 222.708 394C222.708 393.833 221.792 393.833 221.417 393.833Z" fill="#5633EF" stroke="#5633EF" stroke-miterlimit="10"/>
<path d="M280.125 403.25H251.167C251.083 403.25 250.833 403.292 250.833 403.417C250.833 403.542 251.042 403.583 251.167 403.583H280.125C280.208 403.583 280.458 403.542 280.458 403.417C280.417 403.292 280.208 403.25 280.125 403.25Z" fill="#5633EF" stroke="#5633EF" stroke-miterlimit="10"/>
<path d="M289.333 393.458H257.958C257.875 393.458 257.625 393.5 257.625 393.625C257.625 393.75 257.833 393.792 257.958 393.792H289.333C289.417 393.792 289.667 393.75 289.667 393.625C289.625 393.458 289.417 393.458 289.333 393.458Z" fill="#5633EF" stroke="#5633EF" stroke-miterlimit="10"/>
<path d="M94.6666 394.542H86.0833C85.9999 394.542 85.7499 394.583 85.7499 394.708C85.7499 394.833 85.9583 394.875 86.0833 394.875H94.6666C94.7499 394.875 94.9999 394.833 94.9999 394.708C94.9583 394.583 94.7499 394.542 94.6666 394.542Z" fill="#211D53"/>
<path d="M386.25 54.1668V364.5C386.25 372.917 378.5 379.708 368.958 379.708H199.417C189.875 379.708 182.125 372.917 182.125 364.5V54.1668C182.125 45.7502 189.875 38.9585 199.417 38.9585H368.917C378.5 38.9585 386.25 45.7502 386.25 54.1668Z" fill="white" stroke="#211D53" stroke-miterlimit="10"/>
<path d="M240.833 103.542H203V141.375H240.833V103.542Z" fill="white" stroke="#5633EF" stroke-miterlimit="10"/>
<path d="M303.083 103.542H265.25V141.375H303.083V103.542Z" fill="white" stroke="#5633EF" stroke-miterlimit="10"/>
<path d="M363.625 103.542H325.792V141.375H363.625V103.542Z" fill="white" stroke="#5633EF" stroke-miterlimit="10"/>
<path d="M240.833 143.667H203V146.833H240.833V143.667Z" fill="#211D53"/>
<path d="M303.083 143.667H265.25V146.833H303.083V143.667Z" fill="#211D53"/>
<path d="M363.625 143.667H325.792V146.833H363.625V143.667Z" fill="#211D53"/>
<path d="M240.833 219.208H203V257.042H240.833V219.208Z" fill="white" stroke="#5633EF" stroke-miterlimit="10"/>
<path d="M303.083 219.208H265.25V257.042H303.083V219.208Z" fill="white" stroke="#5633EF" stroke-miterlimit="10"/>
<path d="M363.625 219.208H325.792V257.042H363.625V219.208Z" fill="white" stroke="#5633EF" stroke-miterlimit="10"/>
<path d="M240.833 259.292H203V262.458H240.833V259.292Z" fill="#211D53"/>
<path d="M303.083 259.292H265.25V262.458H303.083V259.292Z" fill="#211D53"/>
<path d="M363.625 259.292H325.792V262.458H363.625V259.292Z" fill="#211D53"/>
<path d="M240.833 280.417H203V318.25H240.833V280.417Z" fill="white" stroke="#5633EF" stroke-miterlimit="10"/>
<path d="M303.083 280.417H265.25V318.25H303.083V280.417Z" fill="white" stroke="#5633EF" stroke-miterlimit="10"/>
<path d="M363.625 280.417H325.792V318.25H363.625V280.417Z" fill="white" stroke="#5633EF" stroke-miterlimit="10"/>
<path d="M240.833 320.542H203V323.708H240.833V320.542Z" fill="#211D53"/>
<path d="M303.083 320.542H265.25V323.708H303.083V320.542Z" fill="#211D53"/>
<path d="M363.625 320.542H325.792V323.708H363.625V320.542Z" fill="#211D53"/>
<path d="M240.833 341.583H203V379.417H240.833V341.583Z" fill="white" stroke="#5633EF" stroke-miterlimit="10"/>
<path d="M229.542 359.792L217.542 352.875C217 352.542 216.292 352.959 216.292 353.584V367.459C216.292 368.084 216.958 368.5 217.542 368.167L229.542 361.25C230.083 360.917 230.083 360.125 229.542 359.792Z" fill="#2CD3DB"/>
<path d="M303.083 341.583H265.25V379.417H303.083V341.583Z" fill="white" stroke="#5633EF" stroke-miterlimit="10"/>
<path d="M293.167 377.584L303.833 377.542L295.583 365.167C295.208 364.625 294.417 364.625 294.042 365.167L290.167 371.042C289.875 371.5 289.167 371.5 288.833 371.042L280.458 358.458C280.083 357.917 279.292 357.917 278.917 358.458L266.292 377.584L285.833 377.542H292.167L293.167 377.584Z" fill="#5633EF" stroke="#5633EF" stroke-miterlimit="10"/>
<path d="M293 354.259C294.98 353.577 296.032 351.419 295.35 349.439C294.668 347.459 292.51 346.407 290.53 347.089C288.55 347.771 287.498 349.929 288.18 351.909C288.862 353.889 291.02 354.941 293 354.259Z" fill="#5633EF" stroke="#5633EF" stroke-miterlimit="10"/>
<path d="M363.625 341.583H325.792V379.417H363.625V341.583Z" fill="white" stroke="#5633EF" stroke-miterlimit="10"/>
<path d="M240.833 381.708H203V384.875H240.833V381.708Z" fill="#211D53"/>
<path d="M303.083 381.708H265.25V384.875H303.083V381.708Z" fill="#211D53"/>
<path d="M363.625 381.708H325.792V384.875H363.625V381.708Z" fill="#211D53"/>
<path d="M303.083 159.333H265.25V197.167H303.083V159.333Z" fill="white" stroke="#5633EF" stroke-miterlimit="10"/>
<path d="M363.625 159.333H325.792V197.167H363.625V159.333Z" fill="white" stroke="#5633EF" stroke-miterlimit="10"/>
<path d="M240.833 199.458H203V202.625H240.833V199.458Z" fill="#211D53"/>
<path d="M303.083 199.458H265.25V202.625H303.083V199.458Z" fill="#211D53"/>
<path d="M363.625 199.458H325.792V202.625H363.625V199.458Z" fill="#211D53"/>
<path d="M182.125 66.8752V64.6668C182.125 56.2502 189.875 49.4585 199.417 49.4585H368.917C378.458 49.4585 386.208 56.2502 386.208 64.6668V66.8752H182.125Z" fill="#2CD3DB"/>
<path d="M386.25 54.1668V56.3752H182.125V54.1668C182.125 45.7502 189.875 38.9585 199.417 38.9585H368.917C378.5 38.9585 386.25 45.7502 386.25 54.1668Z" fill="#5633EF" stroke="#5633EF" stroke-miterlimit="10"/>
<path d="M386.25 362.25V364.459C386.25 372.875 378.5 379.667 368.958 379.667H199.417C189.875 379.667 182.125 372.875 182.125 364.459V362.25H386.25Z" fill="#211D53"/>
<path d="M372.625 382.583H195.708C186.625 382.583 179.208 375.167 179.208 366.083V52.5417C179.208 43.4584 186.625 36.0417 195.708 36.0417H372.625C381.708 36.0417 389.125 43.4584 389.125 52.5417V366.083C389.125 375.208 381.75 382.583 372.625 382.583ZM195.708 41.8334C189.833 41.8334 185.042 46.6251 185.042 52.5001V366.042C185.042 371.917 189.833 376.708 195.708 376.708H372.625C378.5 376.708 383.292 371.917 383.292 366.042V52.5417C383.292 46.6667 378.5 41.8751 372.625 41.8751H195.708V41.8334Z" fill="#5633EF" stroke="#5633EF" stroke-miterlimit="10"/>
<path d="M254.417 46.5417C254.417 49.2917 252.042 51.5417 249.083 51.5417C246.125 51.5417 243.75 49.2917 243.75 46.5417C243.75 43.7917 246.125 41.5417 249.083 41.5417C252.042 41.5417 254.417 43.7917 254.417 46.5417Z" fill="#211D53"/>
<path d="M238.375 46.5417C238.375 49.2917 236 51.5417 233.042 51.5417C230.083 51.5417 227.708 49.2917 227.708 46.5417C227.708 43.7917 230.083 41.5417 233.042 41.5417C236 41.5417 238.375 43.7917 238.375 46.5417Z" fill="#5633EF" stroke="#5633EF" stroke-miterlimit="10"/>
<path d="M293.583 48.8335H274.75C274.458 48.8335 274.25 48.6252 274.25 48.3335V45.4585C274.25 45.1668 274.458 44.9585 274.75 44.9585H293.583C293.875 44.9585 294.083 45.1668 294.083 45.4585V48.3335C294.083 48.6252 293.875 48.8335 293.583 48.8335Z" fill="#211D53"/>
<path d="M325.792 78.5H242.542V87.25H325.792V78.5Z" fill="#5633EF" stroke="#5633EF" stroke-miterlimit="10"/>
<path d="M520.375 408.208L483.208 98.5835C483.167 98.2918 482.917 98.0835 482.667 98.0835L453.042 101.084C452.792 101.084 452.583 101.292 452.625 101.583L489.958 411.708C490 412 490.25 412.208 490.5 412.208L519.958 408.708C520.208 408.708 520.417 408.5 520.375 408.208Z" fill="#5633EF" stroke="#5633EF" stroke-miterlimit="10"/>
<path d="M487.417 134.292L486.833 129.292L456.333 131.792L456.958 136.75L487.417 134.292Z" fill="#211D53"/>
<path d="M486.25 123.625L485.625 118.667L455.083 121.333L455.667 126.333L486.25 123.625Z" fill="#211D53"/>
<path d="M517.375 381.5L516.792 376.542H485.792L486.417 381.5H517.375Z" fill="white" stroke="#211D53" stroke-miterlimit="10"/>
<path d="M485.792 407.083C488 404.292 485.833 397 485.5 394.583C484.75 389.292 484 384 483.25 378.708C482.292 371.833 481.292 364.958 480.333 358.083C479.167 349.917 478.042 341.792 476.875 333.625C475.583 324.5 474.292 315.375 473 306.292C471.625 296.5 470.208 286.708 468.833 276.958C467.417 266.833 465.958 256.667 464.542 246.542C463.083 236.333 461.667 226.125 460.208 215.917C458.792 205.958 457.375 196 455.958 186.042C454.625 176.625 453.292 167.25 451.958 157.833C450.75 149.292 449.542 140.75 448.333 132.208C447.292 124.833 446.25 117.458 445.208 110.083C444.375 104.167 443.542 98.25 442.708 92.3333C442.125 88.2083 441.542 84.0417 440.958 79.9167C440.667 77.9167 440.667 75.625 440.083 73.7083C439.25 71 433.667 73.9583 431.667 74.5C424.5 76.5417 417 77.2917 409.583 77.1667C403.292 77.0833 397.042 75.625 390.792 76.0417C390.542 76.0417 390.333 76.2917 390.375 76.5417C390.5 77.2917 390.583 78.0417 390.708 78.7917C391.167 81.9583 391.583 85.1667 392.042 88.3333C392.792 93.6667 393.542 99 394.292 104.333C395.292 111.458 396.292 118.625 397.292 125.75C398.5 134.333 399.708 142.917 400.917 151.5C402.292 161.167 403.625 170.833 405 180.5C406.458 190.875 407.917 201.292 409.375 211.667C410.875 222.417 412.375 233.167 413.917 243.917C415.417 254.667 416.917 265.417 418.458 276.167C419.917 286.583 421.375 296.958 422.833 307.375C424.208 317.042 425.542 326.75 426.917 336.417C428.125 345.042 429.333 353.625 430.542 362.25C431.542 369.417 432.542 376.583 433.542 383.75C434.292 389.125 435.042 394.5 435.792 399.875C436.125 402.292 436.167 410.875 439.042 411.5C439.917 411.708 440.792 411.458 441.625 411.167C443.833 410.375 445.833 409.125 447.958 408.125C453.5 405.5 459.708 404.458 465.875 404.25C470.542 404.083 475.375 404.417 479.5 406.583C480.917 407.333 482.375 408.333 483.958 408.125C484.667 408.042 485.333 407.667 485.792 407.083Z" fill="white" stroke="#5633EF" stroke-miterlimit="10"/>
<path d="M444.542 408.25L397.375 72.4167C397.125 70.6667 395.5 69.3333 393.708 69.4583L392.25 69.5416C390.25 69.6666 388.875 71.4167 389.125 73.375L436.208 409.208C436.458 410.958 438.083 412.292 439.875 412.167L441.417 412.042C443.417 411.958 444.833 410.25 444.542 408.25Z" fill="#5633EF" stroke="#5633EF" stroke-miterlimit="10"/>
<path d="M487 405.333L439.417 69.5416C439.167 67.7916 437.542 66.4583 435.75 66.5833C433.75 66.7083 432.333 68.4583 432.625 70.4583L480.125 406.25C480.375 408 482 409.333 483.792 409.208H483.833C485.875 409.042 487.292 407.292 487 405.333Z" fill="#5633EF" stroke="#5633EF" stroke-miterlimit="10"/>
<path d="M447.708 224.833C447.583 224.833 447.5 224.75 447.458 224.625L428.958 100.625C428.958 100.5 429.042 100.375 429.167 100.375C429.292 100.375 429.417 100.458 429.417 100.583L447.917 224.583C447.958 224.708 447.833 224.792 447.708 224.833Z" fill="#5633EF" stroke="#5633EF" stroke-miterlimit="10"/>
<path d="M434.5 277.292C434.375 277.292 434.292 277.208 434.25 277.083C431.083 255.5 427.792 233.583 424.625 212.375C422.25 196.625 419.833 180.375 417.458 164.375C417.458 164.25 417.542 164.125 417.667 164.125C417.792 164.125 417.917 164.208 417.917 164.333C420.292 180.333 422.75 196.583 425.083 212.333C428.25 233.542 431.583 255.458 434.708 277.042C434.75 277.167 434.667 277.292 434.5 277.292C434.542 277.292 434.542 277.292 434.5 277.292Z" fill="#5633EF"/>
<path d="M434.5 277.292C434.375 277.292 434.292 277.208 434.25 277.083C431.083 255.5 427.792 233.583 424.625 212.375C422.25 196.625 419.833 180.375 417.458 164.375C417.458 164.25 417.542 164.125 417.667 164.125C417.792 164.125 417.917 164.208 417.917 164.333C420.292 180.333 422.75 196.583 425.083 212.333C428.25 233.542 431.583 255.458 434.708 277.042C434.75 277.167 434.667 277.292 434.5 277.292ZM434.5 277.292C434.542 277.292 434.542 277.292 434.5 277.292Z" stroke="#5633EF" stroke-miterlimit="10"/>
<path d="M460.708 343.792C460.583 343.792 460.5 343.708 460.458 343.583C458.792 332.875 457.208 322 455.667 311.458C454.042 300.333 452.375 288.792 450.583 277.417C450.583 277.292 450.667 277.167 450.792 277.167C450.917 277.167 451.042 277.25 451.042 277.375C452.833 288.75 454.5 300.292 456.125 311.417C457.667 321.917 459.25 332.792 460.917 343.542C460.958 343.667 460.875 343.792 460.708 343.792C460.75 343.792 460.708 343.792 460.708 343.792Z" fill="#5633EF"/>
<path d="M460.708 343.792C460.583 343.792 460.5 343.708 460.458 343.583C458.792 332.875 457.208 322 455.667 311.458C454.042 300.333 452.375 288.792 450.583 277.417C450.583 277.292 450.667 277.167 450.792 277.167C450.917 277.167 451.042 277.25 451.042 277.375C452.833 288.75 454.5 300.292 456.125 311.417C457.667 321.917 459.25 332.792 460.917 343.542C460.958 343.667 460.875 343.792 460.708 343.792ZM460.708 343.792C460.75 343.792 460.708 343.792 460.708 343.792Z" stroke="#5633EF" stroke-miterlimit="10"/>
<path d="M417.792 115.333C417.667 115.333 417.583 115.25 417.542 115.125C416.833 109.292 415.875 103.417 414.958 97.7501C414.458 94.5834 413.917 91.2918 413.458 88.0418C413.458 87.9168 413.542 87.7917 413.667 87.7917C413.792 87.7917 413.917 87.8751 413.917 88.0001C414.417 91.2501 414.917 94.5417 415.417 97.7084C416.333 103.417 417.25 109.292 418 115.125C418.042 115.208 417.958 115.333 417.792 115.333C417.833 115.333 417.792 115.333 417.792 115.333Z" fill="#5633EF"/>
<path d="M417.792 115.333C417.667 115.333 417.583 115.25 417.542 115.125C416.833 109.292 415.875 103.417 414.958 97.7501C414.458 94.5834 413.917 91.2918 413.458 88.0418C413.458 87.9168 413.542 87.7917 413.667 87.7917C413.792 87.7917 413.917 87.8751 413.917 88.0001C414.417 91.2501 414.917 94.5417 415.417 97.7084C416.333 103.417 417.25 109.292 418 115.125C418.042 115.208 417.958 115.333 417.792 115.333ZM417.792 115.333C417.833 115.333 417.792 115.333 417.792 115.333Z" stroke="#5633EF" stroke-miterlimit="10"/>
<path d="M453 375.917C452.875 375.917 452.792 375.833 452.75 375.708C452.042 369.875 451.083 364 450.167 358.333C449.667 355.167 449.125 351.875 448.667 348.625C448.667 348.5 448.75 348.375 448.875 348.375C449 348.375 449.125 348.458 449.125 348.583C449.625 351.833 450.125 355.125 450.625 358.292C451.542 364 452.458 369.875 453.208 375.708C453.25 375.792 453.167 375.875 453 375.917Z" fill="#5633EF" stroke="#5633EF" stroke-miterlimit="10"/>
<path d="M107.417 249.25C106.583 255.458 106.625 285.75 108.375 285.708C112.583 285.625 125.917 264.083 130.125 264C138.583 263.833 147.042 263.625 155.5 263.458C159.167 263.375 159.458 262 159.667 258.583C159.833 255.333 159.5 252.083 159.208 248.833C158.583 242.5 157.917 236.167 157.208 229.833C156.875 226.75 156.167 223.042 153 221.708C149.833 220.375 145.625 220.667 142.292 220.708C142.083 220.708 141.875 220.708 141.667 220.708C137.417 220.542 134.083 221 130.042 221.25C128.292 221.375 126.417 221.375 124.5 221.333C124.333 221.333 124.208 221.333 124.042 221.333C120.667 221.208 116.917 220.083 113.583 221.375C111.542 222.167 112.417 224.708 112.083 226.875C111.125 233.125 108.25 242.875 107.417 249.25Z" fill="#211D53"/>
<path d="M151.583 413.667C151.208 413.333 150.792 413.042 150.417 412.708C149.875 412.25 149.292 411.75 148.708 411.333C148.667 409.833 148.75 408.333 148.792 406.875C148.917 403.375 149.083 399.917 149.25 396.417C149.5 391.417 149.75 386.417 150.083 381.375C150.375 376.458 150.708 371.5 151.083 366.583C151.458 361.625 152.167 356.625 152.25 351.667C152.333 347.333 153.417 343.25 153.958 338.917C154.167 337.417 154.208 335.958 154.208 334.458C154.458 325 154.708 315.542 154.958 306.042C155 304.458 155 302.792 154.125 301.5C152.958 299.833 150.167 298.917 148.25 298.792C144.333 298.583 140.375 298.583 136.458 298.875C135.333 298.958 134.208 299.042 133.167 299.458C132.125 299.875 131.167 300.625 130.75 301.667C130.458 302.417 130.5 303.25 130.542 304.042C130.958 310.458 133.417 316.583 133.833 322.958C134.208 328.167 134.583 333.5 134.125 338.708C133.708 343.583 132.708 348.375 132.5 353.292C131.875 366.542 134.417 379.583 136.875 392.458C138.208 399.417 139.083 406.5 139.583 413.583C139.625 414.125 139.667 414.708 139.792 415.208C139.667 415.875 139.75 416.667 140.333 417C140.625 417.167 140.958 417.208 141.292 417.25C141.417 417.25 141.5 417.292 141.625 417.292C142.083 417.417 142.542 417.458 143.042 417.417C145.75 417.667 148.417 417.917 151.125 417.958C151.875 417.958 152.625 418 153.417 417.917C154.125 417.833 154.958 417.583 155.042 416.917C155.083 416.542 154.75 416.167 154.458 415.875C153.542 415.125 152.542 414.458 151.583 413.667Z" fill="white" stroke="#5633EF" stroke-miterlimit="10"/>
<path d="M128.958 348.125C129.417 362 129.792 375.833 130.375 389.708C130.583 394.208 130.792 398.708 131.042 403.208C131.042 403.583 137.375 406.042 150.083 404.333C154.458 403.75 154.875 402.417 155.083 398.25C155.25 394.792 155.458 391.292 155.667 387.833C156.75 367.292 157.792 346.75 158.708 326.208C159.625 306.208 159.875 261.458 159.917 259.333C159.958 257.5 159.917 255.667 159.375 253.917C158.833 252.167 157.75 250.542 156.125 249.708C154.5 248.875 152.583 248.917 150.917 248.208C149.042 247.417 147.208 246.75 145.167 246.458C141.333 245.958 137.292 246.625 133.875 248.5C126.125 252.708 125.458 261.417 125.5 270.042C125.583 289.5 127.292 308.792 128.208 328.25C128.5 334.875 128.75 341.5 128.958 348.125Z" fill="#211D53"/>
<path d="M164.25 420.583H149.083C147.833 420.458 146.625 420.25 145.375 420.125C144.833 420.042 144.25 420 143.833 420.333C143.708 420.417 143.625 420.5 143.542 420.583H139C138.875 420.292 138.875 419.875 138.875 419.458C138.875 419.25 138.833 419.042 138.792 418.875C138.708 418.667 138.625 418.458 138.542 418.25C138.5 418.042 138.5 417.792 138.542 417.583C138.625 416.708 139.042 414.625 140.083 414.125C140.333 414 140.583 413.958 140.875 414.042C143.958 414.75 147.042 415.458 150.083 416.167C149.542 415.542 149.083 414.75 149.125 413.958C149.125 413.292 149.375 412.875 149.792 412.625C150.25 412.333 150.958 412.375 151.583 412.75C153.208 413.708 154.667 415 156.375 415.875C158.625 417.042 161.208 417.458 163.417 418.625C163.792 418.833 164.125 419.167 164.292 419.5C164.458 419.833 164.458 420.208 164.25 420.583Z" fill="#5633EF" stroke="#5633EF" stroke-miterlimit="10"/>
<path d="M164.25 420.583H149.083C147.833 420.458 146.625 420.25 145.375 420.125C144.833 420.042 144.25 420 143.833 420.333C143.708 420.417 143.625 420.5 143.542 420.583H139C138.875 420.292 138.875 419.875 138.875 419.458H164.292C164.458 419.833 164.458 420.208 164.25 420.583Z" fill="#211D53"/>
<path d="M156.042 414.833C155.667 414.708 155.125 414.75 154.833 415C153.75 415.792 152.875 416.667 152.083 417.708C151.833 418 152.5 418.208 152.708 418.25C153.083 418.292 153.583 418.25 153.792 417.917C154.5 416.958 155.375 416.125 156.333 415.417C156.667 415.208 156.292 414.917 156.042 414.833Z" fill="#211D53"/>
<path d="M113.875 355.583C113.25 352.958 111.125 350.5 108.417 350.458C105.25 350.375 103 353.417 101.5 356.208C93 372 91.2916 389.667 86.7916 406.708C86.5 407.125 86.2083 407.542 85.9583 407.958C85.5833 408.625 85.2499 409.542 85.8333 410.125C85.8749 410.208 85.9583 410.25 86.0416 410.292C86.0416 410.458 86.0416 410.667 86.0833 410.833C86.4583 412.708 89.0416 413.042 90.5833 413.458C91.5416 413.708 93.3333 414.542 94.1666 413.75C94.2083 413.708 94.2499 413.667 94.2916 413.583C94.8333 413.75 95.3333 413.958 95.875 414.125C96.5833 414.375 97.3333 414.583 98.0833 414.75C98.7916 414.875 99.6666 414.875 99.9166 414.25C100.042 413.875 99.8749 413.458 99.6666 413.083C99.0833 412 98.3333 411.083 97.6249 410.042C97.3333 409.625 97.0833 409.208 96.7916 408.792C96.5833 408.5 96.3749 408.167 96.2083 407.875C96.5833 406.833 96.9999 405.75 97.4166 404.708C98.7083 401.458 100 398.208 101.292 395C103.167 390.333 105.083 385.708 107 381.083C109.458 375.208 112.083 369.667 113.417 363.458C113.958 360.958 114.5 358.208 113.875 355.583Z" fill="white" stroke="#5633EF" stroke-miterlimit="10"/>
<path d="M103.958 325.625C102.208 335.083 95.8333 357.708 93.0833 366.958C90.75 374.875 88.625 382.833 86.6666 390.833C86.2916 392.333 85.2083 394.833 86.125 395.75C86.8333 396.458 90.3333 398.875 91.4166 399.333C95.375 401.083 104.917 403.417 105.625 403.042C106.208 402.75 106.5 402.125 106.75 401.542C109.708 394.625 112.625 387.75 115.458 380.792C118.208 374.042 121.667 367.042 123.458 360C127.042 345.875 131.083 331.708 134.333 317.417C137.292 304.25 140.125 291.167 139.75 277.542C139.667 274.5 138.917 271.042 139.333 268C139.792 264.75 141.542 261.042 140.458 257.958C139.375 254.833 136.125 252.458 133.208 251.25C129.833 249.875 126.167 249.5 122.5 249.333C119.625 249.167 116.708 249.125 113.917 249.917C107.5 251.75 108.542 253.542 108.167 259.333C106.875 280.208 105.5 317.25 103.958 325.625Z" fill="#211D53"/>
<path d="M107.792 420.375L93.25 416.042C92.0833 415.542 90.9583 415.042 89.8333 414.542C89.3333 414.333 88.7916 414.125 88.2916 414.292C88.1666 414.333 88.0416 414.417 87.9583 414.458L83.5833 413.167C83.5416 412.833 83.6666 412.458 83.7916 412.083C83.8333 411.875 83.875 411.667 83.875 411.5C83.875 411.292 83.8333 411.042 83.8333 410.833C83.8333 410.625 83.9166 410.375 84 410.167C84.3333 409.333 85.3333 407.5 86.5 407.292C86.75 407.25 87.0416 407.292 87.2916 407.417C90.0416 408.958 92.7916 410.542 95.5 412.083C95.1666 411.333 94.9583 410.458 95.2083 409.667C95.4166 409.042 95.7916 408.667 96.2083 408.583C96.75 408.417 97.375 408.667 97.9166 409.208C99.2083 410.625 100.208 412.25 101.583 413.583C103.375 415.333 105.75 416.458 107.542 418.25C107.875 418.583 108.083 418.958 108.125 419.333C108.208 419.708 108.125 420.083 107.792 420.375Z" fill="#5633EF" stroke="#5633EF" stroke-miterlimit="10"/>
<path d="M107.792 420.375L93.25 416.042C92.0833 415.542 90.9583 415.042 89.8333 414.542C89.3333 414.334 88.7916 414.125 88.2916 414.292C88.1666 414.333 88.0416 414.417 87.9583 414.459L83.5833 413.167C83.5416 412.833 83.6666 412.458 83.7916 412.083L108.125 419.334C108.208 419.709 108.125 420.084 107.792 420.375Z" fill="#211D53"/>
<path d="M101.583 412.5C101.25 412.25 100.75 412.167 100.375 412.292C99.1249 412.708 98 413.333 97 414.125C96.7083 414.375 97.2499 414.75 97.4583 414.833C97.7916 415 98.2916 415.083 98.625 414.833C99.5833 414.125 100.625 413.583 101.792 413.167C102.083 413.042 101.792 412.667 101.583 412.5Z" fill="#211D53"/>
<path d="M100.542 177.25C100 178.292 99.4583 179.375 98.9583 180.417C97 184.583 95.3333 188.958 93.7083 193.292C90.625 201.542 87.875 210.208 86.75 218.958C86.5416 220.458 86.5 222.042 87 223.458C87.875 225.833 90.5 227.75 93.0417 227.625C96.7083 227.417 99.875 223.292 101.417 220.5C104.25 215.333 106.417 209.708 108.542 204.083C110.542 198.833 112.542 193.583 113.708 188.042C114.75 183.208 115.042 177.833 112.792 173.583C111.375 170.875 108.542 169.125 105.667 170.042C104 170.583 103.083 172.625 102.167 174.167C101.625 175.208 101.083 176.208 100.542 177.25Z" fill="#2CD3DB"/>
<path d="M158.792 194.625C158.917 198.833 158.875 203 158.875 207.208C158.875 210.458 159.792 245.083 159.708 245.333C158.5 248.292 143.792 248.125 135.792 248.292C126.167 248.458 117.333 246.917 107.708 247.083C107.583 242.958 107.458 240.667 108.625 235C109.208 232.125 110.583 228.708 110.833 225.792C111.25 220.833 107.833 190.292 105.333 180.5C104.875 178.708 104.708 176.875 104.292 175.125C103.917 173.458 103.667 171.958 104.958 170.542C105.667 169.75 106.667 169.292 107.625 168.875C111.083 167.25 114.542 165.667 118 164.042C118.083 164 118.208 163.958 118.292 163.917C121 162.667 123.75 161.375 126.667 160.667C129.958 159.833 133.458 159.708 136.792 160.167C140.083 160.625 142.792 162.292 145.958 163.25C146.042 163.292 146.125 163.292 146.208 163.333C147.5 163.708 148.833 164.083 149.958 164.875C153.167 167.125 153.458 171.625 154.458 175.417C155.125 177.958 156.083 180.625 157.292 182.917C158.417 185.083 158.458 187.125 158.583 189.583C158.667 191.25 158.75 192.958 158.792 194.625Z" fill="#2CD3DB"/>
<path d="M171.542 202.042C170.292 199.542 168.875 197.125 167.792 195.042C165.042 189.583 162.667 183.958 160.583 178.208C159.5 175.25 158.542 172.208 156.75 169.625C155.125 167.25 152.708 165.208 149.792 164.667C147.75 164.292 146.458 165.917 145.833 167.792C144.583 171.542 145.583 176 146.458 179.75C148.833 189.5 153.167 198.708 157.75 207.625C159.625 211.292 161.792 216.792 165.458 219.083C166.208 219.542 167.042 219.792 167.875 219.958C168.792 220.125 169.708 220.167 170.583 219.875C172.125 219.375 173.042 217.417 173.667 216C175.625 211.583 173.833 206.583 171.542 202.042Z" fill="#2CD3DB"/>
<path d="M206.708 183.208C205.875 181.75 203.75 181.375 202.25 182.083C200.708 182.792 199.708 184.292 199 185.833C198.292 187.375 197.833 189.042 197 190.5C196.333 191.708 195.417 192.625 194.583 193.708C194.5 193.792 194.458 193.875 194.375 194C186.875 197.583 179.417 201.167 171.917 204.75C171.167 205.125 170.375 205.5 169.625 205.875C168.333 206.542 167.167 207.333 166.167 208.375C164.792 209.792 163.333 213.167 164 215.25C164.625 217.083 165.5 218.417 167.125 219.625C169.417 221.333 172.417 219.875 174.542 218.542C183.167 213.125 191.208 206.208 198.792 199.292C199.375 198.792 200.375 197.958 201 197.125C201.792 196.667 202.583 196.167 203.25 195.5C204.125 194.625 204.25 193.667 204.625 192.542C205.042 191.333 206.083 190.417 206.542 189.208C206.667 188.917 206.667 188.458 206.375 188.333C206.125 188.25 205.875 188.292 205.583 188.375C206.083 187.625 206.583 186.833 206.875 186C207.167 185.167 207.208 184.083 206.708 183.208Z" fill="white" stroke="#5633EF" stroke-miterlimit="10"/>
<path d="M154.375 206.375L126.042 211.333L121.5 183.375L149.833 178.208L154.375 206.375Z" fill="white" stroke="#5633EF" stroke-miterlimit="10"/>
<path d="M240.875 191.125L207.542 204L195.375 171.042L228.583 157.958L240.875 191.125Z" fill="white" stroke="#5633EF" stroke-miterlimit="10"/>
<path d="M146.083 207.584L153.875 206.25L146.333 198.209C146 197.834 145.417 197.959 145.208 198.417L143.083 203.209C142.917 203.584 142.417 203.667 142.125 203.375L134.458 195.209C134.125 194.834 133.542 194.959 133.333 195.417L126.417 210.959L140.708 208.542L145.333 207.75L146.083 207.584Z" fill="#5633EF" stroke="#5633EF" stroke-miterlimit="10"/>
<path d="M143.795 190.531C145.171 189.785 145.681 188.065 144.936 186.689C144.19 185.314 142.47 184.803 141.094 185.549C139.719 186.295 139.208 188.015 139.954 189.39C140.7 190.766 142.42 191.276 143.795 190.531Z" fill="#211D53"/>
<path d="M131.458 200.375C132.792 200.5 134.125 200.833 135.5 200.75C136.042 200.708 136.958 200.625 136.708 199.833C136.583 199.417 136.167 199.125 135.75 198.917C134.333 198.208 132.708 197.917 131.125 197.833C130.333 197.792 129.458 197.708 128.667 197.792C128.333 197.833 126.75 197.875 126.583 198.125C126.958 197.542 127.667 197.25 128.292 197.042C129.208 196.708 130.167 196.375 131.083 196.042C131.5 195.875 131.958 195.833 132.25 195.5C132.375 195.375 132.458 195.125 132.417 194.958C132.375 194.833 132.292 194.75 132.167 194.667C131.667 194.333 131 194.375 130.375 194.458C128.667 194.75 127 195.167 125.375 195.75C124 196.25 123.708 197.625 123.208 198.875C123.167 199 123.083 199.167 123.042 199.292C122.708 200 122.292 200.667 121.833 201.25C121.542 201.625 121.167 201.917 120.792 202.208C118.917 202.917 117.167 203.875 115.333 204.667C108.083 207.875 100 209.083 92.9167 212.75C90.2083 214.125 88.2083 216.292 87.5833 219.333C87.125 221.542 88.0417 225.208 89.8333 226.667C92.0417 228.5 95.25 227.292 97.5 226.208C102.917 223.5 108.167 220.417 113.125 216.917C115.625 215.167 118 213.333 120.375 211.417C120.833 211.042 121.292 210.667 121.75 210.25C122.167 210.292 122.625 210.292 123 210.167C123.917 209.958 124.75 209.375 125.458 208.792C126.5 207.875 127.208 207.25 128.667 207.25C130.125 207.25 131.583 207.625 133.042 207.708C133.417 207.75 133.875 207.708 134.167 207.417C134.5 207.042 134.333 206.458 134 206.125C133.667 205.792 133.167 205.667 132.708 205.542C131.458 205.208 130.208 204.792 129 204.292C128.5 204.083 128.167 203.583 128.917 203.458C130.083 203.292 131.292 203.417 132.458 203.583C133.458 203.708 134.542 204.125 135.542 203.917C136.792 203.667 136.292 202.375 135.417 201.875C134.292 201.25 133.167 201.042 131.917 201C131.208 201 130.542 200.875 129.833 200.875C129.625 200.875 127.917 200.792 127.875 200.958C128.25 200.125 130.667 200.292 131.458 200.375Z" fill="white" stroke="#5633EF" stroke-miterlimit="10"/>
<path d="M484.815 352.098L488.524 352.098L488.524 238.098L484.815 238.098L484.815 352.098Z" fill="#211D53"/>
<path d="M481.625 288.708C481.625 291.375 483.875 293.542 486.667 293.542C489.458 293.542 491.708 291.375 491.708 288.708C491.708 286.042 489.458 283.875 486.667 283.875C483.875 283.875 481.625 286.042 481.625 288.708Z" fill="#211D53"/>
<path d="M482.458 281.167C482.458 283.375 484.333 285.208 486.667 285.208C489 285.208 490.875 283.417 490.875 281.167C490.875 278.958 489 277.125 486.667 277.125C484.333 277.167 482.458 278.958 482.458 281.167Z" fill="#211D53"/>
<path d="M483.649 352.089L489.691 352.089L489.691 291.797L483.649 291.797L483.649 352.089Z" fill="#211D53"/>
<path d="M483.625 341.792H489.708C490.542 341.792 491.292 342.333 491.708 343.167L493.75 347.333H479.583L481.625 343.167C482.083 342.292 482.833 341.792 483.625 341.792Z" fill="#211D53"/>
<path d="M478.958 345.958H494.375C495 345.958 495.583 346.25 496.042 346.792L500.792 352.542H472.583L477.333 346.792C477.75 346.25 478.333 345.958 478.958 345.958Z" fill="#211D53"/>
<path d="M481.792 345.667H492.333C492.375 345.667 492.5 345.667 492.5 345.792C492.5 345.875 492.375 345.917 492.333 345.917H481.792C481.75 345.917 481.625 345.917 481.625 345.792C481.625 345.708 481.75 345.667 481.792 345.667Z" fill="#211D53"/>
<path d="M485.458 341.625H489.25C489.292 341.625 489.417 341.625 489.417 341.75C489.417 341.833 489.292 341.875 489.25 341.875H485.458C485.417 341.875 485.292 341.875 485.292 341.75C485.25 341.625 485.417 341.625 485.458 341.625Z" fill="#211D53"/>
<path d="M484.708 292.417H489.042C489.083 292.417 489.208 292.416 489.208 292.541C489.208 292.625 489.083 292.667 489.042 292.667H484.708C484.667 292.667 484.542 292.666 484.542 292.541C484.5 292.458 484.667 292.417 484.708 292.417Z" fill="#211D53"/>
<path d="M485.5 284.25H488.458C488.5 284.25 488.625 284.25 488.625 284.375C488.625 284.458 488.5 284.5 488.458 284.5H485.5C485.458 284.5 485.333 284.5 485.333 284.375C485.333 284.292 485.458 284.25 485.5 284.25Z" fill="#211D53"/>
<path d="M485.333 277.208H487.208C487.25 277.208 487.375 277.208 487.375 277.333C487.375 277.417 487.25 277.458 487.208 277.458H485.333C485.292 277.458 485.167 277.458 485.167 277.333C485.125 277.25 485.292 277.208 485.333 277.208Z" fill="#211D53"/>
<path d="M475.25 351.292C475.917 350.458 476.583 349.583 477.25 348.75C477.833 348.042 478.417 347.375 479.208 347C479.333 346.958 479.542 346.958 479.625 347.083C479.708 347.208 479.625 347.292 479.5 347.333C478.792 347.667 478.208 348.375 477.667 349C477.042 349.833 476.375 350.625 475.75 351.458C475.625 351.667 475.042 351.542 475.25 351.292Z" fill="white"/>
<path d="M482.292 344.459C482.542 343.834 482.917 343.292 483.292 342.792C483.333 342.75 483.417 342.708 483.458 342.708C483.542 342.708 483.625 342.708 483.708 342.708C483.792 342.75 483.917 342.833 483.833 342.958C483.458 343.417 483.125 343.959 482.875 344.542C482.792 344.75 482.167 344.667 482.292 344.459Z" fill="white"/>
<path d="M485 304.375V314.458C485 314.708 484.375 314.708 484.375 314.458V304.375C484.375 304.125 485 304.125 485 304.375Z" fill="white"/>
<path d="M485.083 318.958V328.042C485.083 328.292 484.458 328.292 484.458 328.042V318.958C484.458 318.708 485.083 318.708 485.083 318.958Z" fill="white"/>
<path d="M484.542 278.5C484.667 278.417 484.875 278.417 484.958 278.5C485.083 278.583 485.083 278.708 484.958 278.75C484.083 279.333 483.625 280.583 483.75 281.75C483.792 282 483.167 282.042 483.125 281.75C483 280.458 483.583 279.125 484.542 278.5Z" fill="white"/>
<path d="M483.708 286.208C483.792 286.083 484 286.083 484.125 286.125C484.208 286.167 484.333 286.25 484.25 286.375C483.458 287.333 483.125 288.75 483.375 290.083C483.417 290.292 482.792 290.375 482.75 290.083C482.458 288.708 482.875 287.208 483.708 286.208Z" fill="white"/>
<path d="M486.083 256.792V271.083C486.083 271.333 485.458 271.333 485.458 271.083V256.792C485.458 256.542 486.083 256.542 486.083 256.792Z" fill="white"/>
<path d="M498.333 244.917V266.667C498.333 266.958 497.708 266.958 497.708 266.667V244.917C497.708 244.625 498.333 244.625 498.333 244.917Z" fill="#2CD3DB"/>
<path d="M496.792 267.375C496.792 268.25 497.333 268.958 498.042 268.958C498.708 268.958 499.292 268.25 499.292 267.375C499.292 266.5 498.75 265.792 498.042 265.792C497.333 265.833 496.792 266.542 496.792 267.375Z" fill="#2CD3DB"/>
<path d="M469.375 192.833C469.792 191.5 470.917 190.625 472.167 190.625H478.667H493.375H499.875C501.167 190.625 502.292 191.5 502.667 192.833L517 240.542C517.625 242.625 516.208 244.75 514.208 244.75H493.375H478.667H457.833C455.833 244.75 454.417 242.625 455.042 240.542L469.375 192.833Z" fill="#2CD3DB"/>
<path d="M502.5 201C503.667 204.917 504.792 208.875 505.917 212.833C507.042 216.792 508.125 220.75 509.208 224.708C509.792 226.958 510.417 229.208 511 231.458C511.083 231.75 510.458 231.792 510.417 231.583C509.375 227.583 508.333 223.625 507.208 219.667C506.125 215.708 505 211.75 503.875 207.792C503.25 205.583 502.583 203.333 501.917 201.125C501.833 200.833 502.458 200.792 502.5 201Z" fill="white"/>
<path d="M463.125 223.708C463.958 220.708 464.792 217.708 465.667 214.75C466.5 211.75 467.333 208.75 468.208 205.792C468.667 204.083 469.167 202.417 469.625 200.708C469.708 200.458 470.292 200.5 470.208 200.833C469.375 203.833 468.542 206.833 467.667 209.792C466.833 212.792 466 215.792 465.125 218.75C464.667 220.458 464.167 222.125 463.708 223.833C463.667 224.042 463.042 224 463.125 223.708Z" fill="white"/>
<path d="M287.833 356.458L286.875 357.875C288 359.208 288.875 360.792 289.5 362.542C290.25 364.625 290.625 366.875 290.792 369.125C290.958 371.208 290.958 373.333 290.792 375.458C290.5 379.042 289.708 382.625 287.833 385.583L288.792 386.375H283.792C282.708 386.375 281.833 387.375 281.833 388.542V388.875C281.833 390.083 282.708 391.042 283.792 391.042H515.875C523.25 391.042 529.25 384.375 529.25 376.208V366.583C529.25 358.375 523.25 351.75 515.875 351.75H283.792C282.708 351.75 281.833 352.75 281.833 353.917V354.25C281.833 355.458 282.708 356.417 283.792 356.417H287.833V356.458Z" fill="#211D53"/>
<path d="M286.125 356.458L286.208 356.792L286.333 357.25C286.542 357.458 286.75 357.667 286.917 357.875C288.083 359.208 288.958 360.792 289.583 362.542C290.333 364.625 290.708 366.875 290.875 369.125C291.042 371.208 291.042 373.333 290.875 375.458C290.583 379.042 289.75 382.625 287.917 385.583C287.75 385.875 287.583 386.125 287.375 386.375H515.917C520.667 386.375 524.5 382.167 524.5 376.917V365.917C524.5 360.708 520.667 356.458 515.917 356.458H286.125Z" fill="white" stroke="#5633EF" stroke-miterlimit="10"/>
<path d="M451.833 378.625H503.917C504.042 378.625 504.292 378.667 504.292 378.833C504.292 379 504 379.042 503.917 379.042H451.833C451.708 379.042 451.458 379 451.458 378.833C451.458 378.625 451.75 378.625 451.833 378.625Z" fill="#2CD3DB"/>
<path d="M393.625 365.583H484.167C484.625 365.583 484.625 366 484.167 366H393.625C393.167 366.042 393.167 365.583 393.625 365.583Z" fill="#2CD3DB"/>
<path d="M318.208 374.917H410.792C411.25 374.917 411.25 375.333 410.792 375.333H318.208C317.75 375.375 317.75 374.917 318.208 374.917Z" fill="#2CD3DB"/>
<path d="M307.167 363.917H330.25C330.375 363.917 330.625 363.958 330.625 364.125C330.625 364.292 330.333 364.333 330.25 364.333H307.167C307.042 364.333 306.792 364.292 306.792 364.125C306.792 363.958 307.042 363.917 307.167 363.917Z" fill="#2CD3DB"/>
<path d="M300.5 382H307.167C307.292 382 307.542 382.042 307.542 382.208C307.542 382.375 307.25 382.417 307.167 382.417H300.5C300.375 382.417 300.125 382.375 300.125 382.208C300.125 382.042 300.375 382 300.5 382Z" fill="#2CD3DB"/>
<path d="M227.417 395.792L226.333 397.208C227.625 398.542 228.625 400.125 229.333 401.875C230.208 403.958 230.625 406.208 230.833 408.458C231 410.542 231.042 412.667 230.833 414.792C230.542 418.375 229.583 421.958 227.458 424.917L228.542 425.708H222.833C221.583 425.708 220.583 426.708 220.583 427.875V428.208C220.583 429.417 221.583 430.375 222.833 430.375H487.917C496.333 430.375 503.167 423.708 503.167 415.542V405.917C503.167 397.708 496.333 391.083 487.917 391.083H222.833C221.583 391.083 220.583 392.083 220.583 393.25V393.583C220.583 394.792 221.583 395.75 222.833 395.75H227.417V395.792Z" fill="#211D53"/>
<path d="M225.458 395.792L225.542 396.125L225.667 396.583C225.917 396.791 226.125 397 226.333 397.208C227.667 398.541 228.667 400.125 229.375 401.875C230.25 403.958 230.667 406.208 230.875 408.458C231.042 410.541 231.083 412.666 230.875 414.791C230.542 418.375 229.625 421.958 227.5 424.916C227.292 425.208 227.083 425.458 226.875 425.708H487.917C493.333 425.708 497.708 421.5 497.708 416.25V405.25C497.708 400.041 493.333 395.792 487.917 395.792H225.458Z" fill="white" stroke="#5633EF" stroke-miterlimit="10"/>
<path d="M398.042 406.167H458.833C458.958 406.167 459.208 406.208 459.208 406.375C459.208 406.542 458.917 406.583 458.833 406.583H398.042C397.917 406.583 397.667 406.542 397.667 406.375C397.667 406.208 397.917 406.167 398.042 406.167Z" fill="#2CD3DB"/>
<path d="M323.792 416.208H385.292C385.375 416.208 385.625 416.25 385.625 416.417C385.625 416.583 385.375 416.625 385.292 416.625H323.792C323.708 416.625 323.458 416.583 323.458 416.417C323.458 416.25 323.708 416.208 323.792 416.208Z" fill="#2CD3DB"/>
<path d="M321.083 405.75H342.375C342.833 405.75 343.917 405.792 343.917 405.958C343.917 406.125 342.792 406.167 342.375 406.167H321.083C320.625 406.167 319.542 406.125 319.542 405.958C319.542 405.792 320.667 405.75 321.083 405.75Z" fill="#2CD3DB"/>
<path d="M251.25 418.417H285.708C285.833 418.417 286.083 418.458 286.083 418.625C286.083 418.792 285.792 418.833 285.708 418.833H251.25C251.125 418.833 250.875 418.792 250.875 418.625C250.875 418.417 251.125 418.417 251.25 418.417Z" fill="#2CD3DB"/>
<path d="M240.292 405.25H277.625C277.75 405.25 278 405.292 278 405.458C278 405.625 277.708 405.667 277.625 405.667H240.292C240.167 405.667 239.917 405.625 239.917 405.458C239.917 405.292 240.167 405.25 240.292 405.25Z" fill="#2CD3DB"/>
<path d="M471.917 406.75H482.125C482.25 406.75 482.5 406.792 482.5 406.958C482.5 407.125 482.208 407.167 482.125 407.167H471.917C471.792 407.167 471.542 407.125 471.542 406.958C471.542 406.792 471.792 406.75 471.917 406.75Z" fill="#2CD3DB"/>
<path d="M446.375 422.333L451.542 418L456.667 422.333V406H446.375V422.333Z" fill="#211D53"/>
<path d="M327.792 328.75C327.583 328.333 327.458 327.875 327.375 327.417C327.083 325.583 328.167 324.167 329.708 323.083C332.708 321 336.542 320.375 340.167 320.625C343.833 320.875 347.375 321.875 350.917 322.75C363.917 326 377.333 327.75 390.75 327.958C390.792 327.958 390.875 327.958 390.917 327.958C391.417 327.958 391.875 327.958 392.375 327.958C392.667 327.958 392.917 327.958 393.208 327.958C393.5 327.958 393.75 327.958 394.042 327.958C394.542 327.958 395 327.958 395.5 327.958C395.542 327.958 395.625 327.958 395.667 327.958C409.083 327.75 422.458 326.042 435.5 322.75C439.042 321.875 442.583 320.833 446.25 320.625C449.917 320.375 453.708 321 456.708 323.083C458.25 324.167 459.333 325.583 459.042 327.417C458.958 327.875 458.833 328.333 458.625 328.75C459.292 331.083 459.208 333.625 458.542 335.958C457.667 338.917 455.917 341.583 453.5 343.5C450.917 345.583 447.708 346.75 444.5 347.708C429.292 352.375 413.25 353.5 397.333 353.5C395.958 353.5 394.583 353.5 393.208 353.417C391.833 353.5 390.458 353.5 389.083 353.5C373.167 353.458 357.125 352.333 341.917 347.708C338.75 346.75 335.542 345.583 332.917 343.5C330.542 341.583 328.75 338.917 327.875 335.958C327.208 333.625 327.125 331.083 327.792 328.75Z" fill="#2CD3DB"/>
<path d="M380.792 250.875C382.042 252.958 384.208 254.333 386.542 255.042C388.875 255.75 391.333 255.792 393.75 255.792C395.75 255.75 397.667 255.542 399.5 254.75C401.542 253.917 403.333 252.375 404.333 250.375C404.625 249.75 404.958 248.958 405.167 248.125C398.583 246.5 391.833 245.917 384.75 246.917C383.125 247.125 381.542 247.5 380 247.875C379.875 248.917 380.25 249.958 380.792 250.875Z" fill="white" stroke="#5633EF" stroke-miterlimit="10"/>
<path d="M360.125 263.167C360.125 263.417 360.167 263.667 360.208 263.917C360.167 264.5 360.125 265.083 360.125 265.667C360 269.5 360.625 273.417 361 277.25C361.25 279.708 361.542 282.125 361.833 284.542C362.042 286.417 362.25 288.292 362.417 290.167C363 296.708 363.167 303.292 363.167 309.833C363.167 313.667 362.5 317.542 362.167 321.333C362.042 322.667 361.875 324.167 362.167 325.458C362.458 326.583 363.417 327.333 364.375 327.917C367.167 329.625 370.208 330.875 373.375 331.667C376.542 332.458 379.833 332.75 383.125 333C392 333.708 401.083 334.333 409.75 332.292C413.917 331.333 417.917 329.75 421.917 328.208C422.917 327.833 424 327.292 424.25 326.292C424.375 325.833 424.292 325.375 424.208 324.917C423.375 319.958 422.542 314.875 422.542 309.792C422.542 303.25 422.667 296.667 423.292 290.125C423.458 288.25 423.667 286.375 423.875 284.5C424.167 282.083 424.458 279.625 424.708 277.208C425.083 273.375 425.708 269.458 425.583 265.625C425.542 265.042 425.542 264.458 425.5 263.875C425.542 263.625 425.583 263.375 425.625 263.125C425.625 263 425.625 262.875 425.625 262.75C425.667 261.042 425.25 259.333 424.875 257.708C424.875 257.667 424.833 257.583 424.833 257.542L424.792 257.5C425.333 254.708 419.833 252.792 417.75 251.792C413.833 249.875 409.917 248.875 405.75 247.875C405.333 247.75 404.917 247.667 404.458 247.583C403.333 247.333 402.167 247.083 401 246.917C400.25 246.792 399.458 246.708 398.708 246.667C396.917 246.5 395.167 246.417 393.458 246.458C393.25 246.458 393.083 246.458 392.875 246.458C392.667 246.458 392.5 246.458 392.292 246.458C391.25 246.458 390.208 246.458 389.125 246.542C388.833 246.542 388.542 246.583 388.25 246.583C387.958 246.583 387.667 246.625 387.375 246.667C387.25 246.667 387.125 246.667 387 246.708C386.25 246.792 385.5 246.875 384.708 246.958C383.458 247.125 382.208 247.375 381 247.667C380.667 247.75 380.333 247.833 379.958 247.917C378.708 248.208 377.5 248.542 376.292 248.875C375.917 249.042 375.542 249.208 375.167 249.375C374.167 249.833 373.167 250.292 372.167 250.75C370.375 251.583 368.458 252.167 366.625 252.958C365 253.667 363.792 254.75 362.292 255.75C360.292 257.125 360.042 260.583 360.083 262.833C360.125 262.917 360.125 263.042 360.125 263.167Z" fill="#211D53"/>
<path d="M438.542 295.125C439.917 300.708 441.417 306.208 442.375 311.875C442.958 315.375 443.5 320.75 439.542 322.458C436.542 323.75 432.208 322.542 430.042 320.167C428.042 317.917 426.958 315.042 425.917 312.208C421.208 299.417 416.958 286.333 411.792 273.792C410.5 270.667 411.333 266.25 412.333 263.125C414.458 256.458 420.292 254.5 425.833 258.667C426.917 259.458 428 260.292 428.75 261.417C429.208 262.125 429.5 262.875 429.792 263.667C431.208 267.375 432.375 271.208 433.417 275.042C435.208 281.708 436.875 288.417 438.542 295.125Z" fill="white" stroke="#5633EF" stroke-miterlimit="10"/>
<path d="M418.542 305.667C418.667 305.875 418.833 306.083 419.083 306.25C419.75 306.667 420.583 306.625 421.333 306.542C422.333 306.417 423.292 306.167 424.25 305.958C427.417 305.208 430.583 304.417 433.708 303.667C435.333 303.292 436.958 302.875 438.583 302.5C440.583 302.042 440.75 302.042 440.25 300.042C439.417 296.875 438.625 293.75 437.833 290.583C437.417 288.958 437 287.333 436.583 285.708C436.333 284.708 435.25 282.417 435.5 281.417C434 275.667 432.583 269.917 430.667 264.292C429.917 262.083 429.583 260.083 428 258.208C426.583 256.542 424.708 255.25 422.625 254.583C419 253.375 415.167 255.25 412.667 257.917C410.042 260.667 409.375 264.167 409.583 267.958C409.75 271.125 410.583 274.25 411.375 277.333C412.708 282.333 414 287.333 415.333 292.333C416 294.875 416.667 297.458 417.333 300C417.667 301.208 418.125 302.458 418.292 303.667C418.417 304.375 418.292 305.083 418.542 305.667Z" fill="#211D53"/>
<path d="M418 273.209C421.958 273.209 425.208 270 425.208 266V259.583H410.833V266.042C410.833 270 414.042 273.209 418 273.209Z" fill="#5633EF" stroke="#5633EF" stroke-miterlimit="10"/>
<path d="M413.91 275.195L422.119 275.195L422.119 272.195L413.91 272.195L413.91 275.195Z" fill="#5633EF" stroke="#5633EF" stroke-miterlimit="10"/>
<path d="M420.375 259.958H429.875C430.375 259.958 430.875 260.167 431.208 260.583C431.542 260.958 431.667 261.5 431.583 262L430.125 270C429.958 270.833 429.25 271.417 428.458 271.417H420.417V259.958H420.375ZM421.625 261.167V270.125H428.417C428.625 270.125 428.833 269.958 428.875 269.75L430.333 261.75C430.375 261.542 430.292 261.417 430.25 261.375C430.208 261.292 430.083 261.208 429.875 261.208H421.625V261.167Z" fill="#5633EF" stroke="#5633EF" stroke-miterlimit="10"/>
<path d="M432.792 257.75C432.167 257.042 431.292 256.5 430.333 256.417C430.083 256.417 429.833 256.417 429.583 256.5C429.083 256.667 428.75 257.167 428.625 257.667C428.5 258.167 428.583 258.708 428.75 259.208C429.208 260.417 430.208 261.417 431.458 261.833C432.083 262.042 432.792 262.083 433.333 261.75C435.208 260.75 433.792 258.833 432.792 257.75Z" fill="white" stroke="#5633EF" stroke-miterlimit="10"/>
<path d="M437 323C439.583 323 441.667 321.083 443.042 318.875C445.958 314.208 444.708 308.458 444.208 303.333C443.333 293.875 441.708 284.375 439.708 275.083C439.292 273.042 438.833 271.042 438.333 269.042C438.875 267.125 438.917 265.25 438.75 263.167C438.625 261.458 438.25 259.417 436.25 259.125C434.333 258.833 432.417 258.708 430.5 258.667C429.167 258.625 427 258.875 426.792 260.583C426.708 261.25 427 262 427.583 262.417C427 263 426.75 263.833 426.833 264.625C426.958 265.417 427.417 266.167 428.125 266.542C427.292 267.792 428.417 269.542 429.708 269.875C429.167 270.667 429.375 271.875 430.125 272.458C430.75 272.917 431.667 273.042 432.542 273.083C432.458 273.417 432.417 273.792 432.375 274.125C431.333 282.833 429.75 296.625 428.708 305.292" fill="white"/>
<path d="M437 323C439.583 323 441.667 321.083 443.042 318.875C445.958 314.208 444.708 308.458 444.208 303.333C443.333 293.875 441.708 284.375 439.708 275.083C439.292 273.042 438.833 271.042 438.333 269.042C438.875 267.125 438.917 265.25 438.75 263.167C438.625 261.458 438.25 259.417 436.25 259.125C434.333 258.833 432.417 258.708 430.5 258.667C429.167 258.625 427 258.875 426.792 260.583C426.708 261.25 427 262 427.583 262.417C427 263 426.75 263.833 426.833 264.625C426.958 265.417 427.417 266.167 428.125 266.542C427.292 267.792 428.417 269.542 429.708 269.875C429.167 270.667 429.375 271.875 430.125 272.458C430.75 272.917 431.667 273.042 432.542 273.083C432.458 273.417 432.417 273.792 432.375 274.125C431.333 282.833 429.75 296.625 428.708 305.292" stroke="#5633EF" stroke-miterlimit="10"/>
<path d="M433.542 262.083C431.833 262.042 429.208 262.333 427.5 262.333L433.542 262.083Z" fill="#5633EF"/>
<path d="M433.542 262.083C431.833 262.042 429.208 262.333 427.5 262.333" stroke="#5633EF" stroke-miterlimit="10"/>
<path d="M433.042 266.375C431.583 266.417 430.167 266.5 428.75 266.542C428.667 266.542 428.125 266.667 428.125 266.583" fill="#5633EF"/>
<path d="M433.042 266.375C431.583 266.417 430.167 266.5 428.75 266.542C428.667 266.542 428.125 266.667 428.125 266.583" stroke="#5633EF" stroke-miterlimit="10"/>
<path d="M433.333 269.833C432.292 269.917 431.25 269.958 430.208 269.917C430.125 269.917 429.417 269.792 429.417 269.708" fill="#5633EF"/>
<path d="M433.333 269.833C432.292 269.917 431.25 269.958 430.208 269.917C430.125 269.917 429.417 269.792 429.417 269.708" stroke="#5633EF" stroke-miterlimit="10"/>
<path d="M428.75 305.292C428 308.625 427.583 312.25 428.75 315.542" stroke="#5633EF" stroke-miterlimit="10"/>
<path d="M374.042 273.542C376 270.792 376.208 266.292 375.917 263.042C375.333 256.042 370.083 252.875 363.75 255.667C363.375 255.833 363.042 256 362.667 256.167C362 256.667 361.333 257.208 360.708 257.75C360.167 258.208 359.625 258.667 359.125 259.167C359 259.333 358.875 259.542 358.75 259.708C356.542 263 354.542 266.458 352.667 269.958C349.417 276.042 346.292 282.208 343.167 288.375C340.583 293.5 337.875 298.542 335.708 303.875C334.583 306.667 333.167 310.75 334.833 313.5C334.958 313.75 335.083 313.958 335.25 314.208C335.917 315.083 336.958 315.625 337.958 316.125C341.208 317.708 344.583 318.917 348.083 319.75C351.458 320.583 354.75 320.542 358.167 321.042C360.125 321.292 362.042 321.708 364 321.75C364.542 321.75 365.083 321.75 365.542 321.5C365.958 321.292 366.25 320.917 366.542 320.542C367.667 319.042 369.542 317.542 368.417 315.5C367.583 314 365.708 314.25 364.208 313.958C362.167 313.542 360.167 312.875 358.25 312.083C355.792 311.083 353.375 309.917 350.917 308.917C351.125 308.583 351.375 308.25 351.583 307.917C359.125 296.417 366.208 284.583 374.042 273.542Z" fill="white" stroke="#5633EF" stroke-miterlimit="10"/>
<path d="M339.958 292.5C339.958 291.5 341.292 289.708 341.75 288.833C342.375 287.542 343.042 286.292 343.708 285C345.458 281.625 347.125 278.25 348.917 274.875C351.25 270.542 353.625 266.167 356.583 262.25C358.292 260 360.292 257.167 362.667 255.583C364.708 254.208 367.333 252.458 369.917 252.917C372.792 253.417 375.25 255.333 376.708 257.833C378.667 261.125 378.542 264.667 377.458 268.333C376.583 271.417 375.083 274.25 373.625 277.083C371.208 281.667 368.833 286.25 366.417 290.833C365.208 293.167 363.958 295.5 362.75 297.833C362.167 298.917 361.417 300.042 361 301.208C360.75 301.833 360.75 302.583 360.375 303.083C360.208 303.292 360 303.458 359.708 303.542C358.958 303.792 358.167 303.583 357.458 303.333C356.5 303 355.625 302.542 354.75 302.083C351.833 300.625 347.958 299.75 345.042 298.292C342.75 297.125 341.5 295.208 339.333 294.042C339.5 293.5 339.708 293 339.958 292.5Z" fill="#211D53"/>
<path d="M372.958 322.958C372.917 323 372.917 323 372.917 323C373.792 323.5 374.792 323.75 375.75 323.875C376.25 323.958 376.75 324 377.25 324.042C377.583 324.083 378.042 324.208 378.167 324.542C378.333 324.875 378.042 325.167 377.792 325.333C376.5 326.167 374.458 325.458 373 325.333C370.083 325.083 367.083 324.208 364.625 322.583C363.792 322.042 362.25 321.083 361.833 320.167C361.458 319.292 361.833 317.958 362 317.083C362.292 315.458 362.583 314.5 363.792 313.917C364.125 313.75 364.5 313.625 364.958 313.5C365.792 313.292 366.667 313.25 367.5 312.958C368.167 312.75 368.875 312.583 369.583 312.458C371.458 312.083 373.25 311.542 375.167 311.708C375.417 311.708 375.708 311.75 375.875 311.958C376.125 312.208 376.083 312.708 375.833 312.958C375.583 313.25 375.208 313.375 374.875 313.458C374.458 313.542 374.042 313.625 373.625 313.667C373.125 313.708 372.5 313.708 372.292 314.167C372.167 314.375 372.208 314.667 372.333 314.833C372.75 315.458 374.083 315.583 374.75 315.75C375.125 315.833 375.5 315.875 375.917 315.958C376.625 316.083 377.333 316.167 378.083 316.208C378.917 316.25 379.75 316.167 380.542 316.292C380.833 316.333 381.333 316.458 381.458 316.792C381.708 317.5 380.333 318.083 379.875 318.167C379.208 318.292 378.542 318.208 377.875 318.125C376.75 318 375.625 317.958 374.542 317.75C374.083 317.667 374.583 318.042 374.75 318.125C374.958 318.208 375.208 318.208 375.458 318.25C375.958 318.375 376.458 318.5 376.958 318.583C377.958 318.792 378.958 318.958 379.958 318.917C380.542 318.875 381.125 318.792 381.708 318.833C382.125 318.875 382.625 319.125 382.458 319.625C382.292 320.125 381.792 320.542 381.292 320.708C380.875 320.875 380.292 321.042 379.833 321C379.375 320.958 378.875 321 378.417 320.958C377.292 320.875 376.208 320.583 375.083 320.417C374.833 320.375 374.167 320.167 374.25 320.625C374.333 320.958 374.875 321.125 375.167 321.208C376.125 321.5 377.125 321.667 378.125 321.708C378.625 321.75 379.125 321.75 379.625 321.708C380 321.708 380.542 321.542 380.917 321.583C381.375 321.667 381.292 322.208 381.125 322.542C380.875 322.958 380.458 323.292 380 323.458C379.375 323.708 378.667 323.667 377.958 323.625C377 323.583 376.083 323.5 375.125 323.333C374.792 323.292 374.417 323.125 374.083 323.042C373.875 323 373.667 322.917 373.417 322.875C373.333 322.875 373.208 322.833 373.125 322.833C373.125 322.875 373.042 322.917 372.958 322.958Z" fill="white" stroke="#5633EF" stroke-miterlimit="10"/>
<path d="M336.875 305.792C338.333 304.875 340.125 305.042 341.75 305.292C343.625 305.583 344.875 306.167 346.667 306.833C347.667 307.208 349.458 308.333 351.042 308.833" stroke="#5633EF" stroke-miterlimit="10"/>
<path d="M364.75 334.167H420.25C423.167 334.167 425.542 331.792 425.542 328.875V299C425.542 296.083 423.167 293.708 420.25 293.708H364.75C361.833 293.708 359.458 296.083 359.458 299V328.875C359.458 331.833 361.833 334.167 364.75 334.167Z" fill="white"/>
<path d="M389.625 315.708C389.625 316.875 390.917 317.792 392.5 317.792C394.083 317.792 395.375 316.833 395.375 315.708C395.375 314.542 394.083 313.625 392.5 313.625C390.917 313.625 389.625 314.583 389.625 315.708Z" fill="#211D53"/>
<path d="M362.667 295.667C363.542 295.125 364.625 295.083 365.625 295.167C365.75 295.167 365.958 295.25 365.875 295.417C365.833 295.583 365.542 295.583 365.417 295.542C364.667 295.458 363.833 295.5 363.167 295.958C362.583 296.375 362.208 297.083 362.333 297.792C362.375 298.042 361.625 298.083 361.583 297.792C361.417 296.917 361.958 296.083 362.667 295.667Z" fill="#5633EF" stroke="#5633EF" stroke-miterlimit="10"/>
<path d="M361.917 302.25V321.625C361.917 321.875 361.167 321.875 361.167 321.625V302.25C361.167 302 361.917 302 361.917 302.25Z" fill="#5633EF" stroke="#5633EF" stroke-miterlimit="10"/>
<path d="M407.333 295.125H416.042C416.167 295.125 416.417 295.167 416.417 295.333C416.417 295.5 416.125 295.542 416.042 295.542H407.333C407.208 295.542 406.958 295.5 406.958 295.333C406.958 295.167 407.208 295.125 407.333 295.125Z" fill="#5633EF" stroke="#5633EF" stroke-miterlimit="10"/>
<path d="M347.333 377.208C347.417 377.25 347.542 377.292 347.625 377.333C349.833 378 352.333 376.958 354.25 375.958C359.125 373.417 363.792 370.458 368.042 366.958C368.375 366.708 368.667 366.417 368.917 366.083C369.25 365.625 369.375 365.042 369.417 364.458C369.625 362.583 368.75 361.125 368.542 359.333C368.458 358.583 368.583 358.292 367.958 357.708C366.333 356.167 364.417 355.667 362.208 355.458C361.917 355.417 361.625 355.417 361.333 355.375C361.333 355.375 361.333 355.375 361.292 355.375C360.458 355.333 359.625 355.375 358.875 355.625C357.708 356.042 356.792 357 355.958 357.917C353.708 360.333 351.5 362.833 348.958 365C348 365.833 347.042 366.833 346.333 368C345.625 369.167 344.667 370.5 344.458 371.833C344.167 374 345.292 376.417 347.333 377.208Z" fill="#211D53"/>
<path d="M348.708 370.708C348.792 370.583 349.083 370.583 349.208 370.625C349.875 370.875 350.542 371.083 351.208 371.333C351.833 371.542 352.583 372 353.208 371.542C353.708 371.208 354.083 370.667 354.542 370.25C355 369.792 355.458 369.375 355.958 368.917C357.833 367.208 359.833 365.667 361.958 364.292C362.25 364.125 362.583 363.958 362.792 363.708C363.042 363.458 363.042 363.083 363.042 362.75C363.042 361.958 363.042 361.167 363 360.375C363 360.125 363.75 360.125 363.75 360.375C363.75 361.167 363.75 361.917 363.792 362.708C363.792 363 363.792 363.25 363.708 363.542C363.625 363.833 363.375 364 363.125 364.167C361.958 364.958 360.833 365.708 359.708 366.542C358.583 367.375 357.542 368.292 356.5 369.208C356 369.667 355.458 370.167 354.958 370.667C354.5 371.125 354.083 371.667 353.5 371.958C352.792 372.333 352 372.083 351.25 371.833C350.417 371.542 349.625 371.25 348.792 370.958C348.708 370.917 348.583 370.833 348.708 370.708Z" fill="white"/>
<path d="M347.333 377.208C347.417 377.25 347.542 377.292 347.625 377.333C347.583 377.167 347.5 377.042 347.417 376.917C347.292 376.667 347.125 376.417 347 376.167C346.458 375.208 346.042 374.208 346.083 373.083C346.083 372 346.417 370.958 346.917 370C347.958 368 349.708 366.5 351.375 365.042C353.167 363.5 354.792 361.875 356.292 360.125C356.875 359.458 357.458 358.792 358 358.125C358.583 357.625 359.167 357.167 359.75 356.667C360.25 356.25 360.792 355.833 361.292 355.375C360.458 355.333 359.625 355.375 358.875 355.625C357.708 356.042 356.792 357 355.958 357.917C353.708 360.333 351.5 362.833 348.958 365C348 365.833 347.042 366.833 346.333 368C345.625 369.167 344.667 370.5 344.458 371.833C344.167 374 345.292 376.417 347.333 377.208Z" fill="#5633EF" stroke="#5633EF" stroke-miterlimit="10"/>
<path d="M354.375 375.25C354.833 374.5 355.417 373.833 356.125 373.292C356.875 372.708 357.75 372.208 358.542 371.708C360.333 370.625 362.125 369.5 363.917 368.417L366.958 366.583C367.167 366.458 367.875 366.625 367.5 366.875L360.875 370.958C359.792 371.625 358.708 372.25 357.625 372.958C356.625 373.583 355.75 374.417 355.125 375.417C354.958 375.583 354.208 375.5 354.375 375.25Z" fill="white"/>
<path d="M360.333 365.333C360.458 365.25 360.708 365.25 360.875 365.333C361.542 365.708 362.208 366.042 362.875 366.375C362.625 365.5 362.25 364.667 361.75 363.875C361.625 363.625 362.333 363.542 362.458 363.792C363.042 364.708 363.458 365.708 363.708 366.792C364.042 366.917 364.333 367.042 364.667 367.167C364.875 367.25 365.125 367.333 365.333 367.417C365.542 367.5 365.75 367.583 365.958 367.583C366.083 367.583 366.375 367.583 366.417 367.708C366.458 367.875 366.25 367.917 366.167 367.958C365.625 368 365.167 367.833 364.667 367.667C364.375 367.583 364.083 367.458 363.833 367.333C363.958 368 364 368.667 364 369.333C364 369.583 363.25 369.583 363.25 369.333C363.25 368.542 363.167 367.75 363 367C362.083 366.583 361.167 366.167 360.292 365.667C360.208 365.542 360.208 365.417 360.333 365.333Z" fill="white"/>
<path d="M356.708 368.083C356.833 368 357.083 368 357.25 368.083C357.833 368.417 358.417 368.75 359.042 369.042C358.792 368.167 358.5 367.292 358.125 366.417C358 366.167 358.75 366.083 358.833 366.333C359.292 367.333 359.625 368.375 359.875 369.458C360.583 369.792 361.333 370.042 362.083 370.292C362.208 370.333 362.333 370.417 362.208 370.542C362.083 370.667 361.833 370.667 361.708 370.625C361.125 370.417 360.542 370.208 360 370C360.125 370.542 360.208 371.083 360.25 371.625C360.292 371.875 359.542 371.917 359.5 371.625C359.417 370.958 359.333 370.292 359.167 369.625C358.333 369.25 357.5 368.833 356.708 368.333C356.583 368.25 356.583 368.167 356.708 368.083Z" fill="white"/>
<path d="M355.083 370.416C355.292 370.5 355.5 370.625 355.667 370.75C355.542 370.208 355.417 369.666 355.292 369.125C355.25 368.875 356 368.833 356.042 369.125C356.167 369.833 356.375 370.541 356.5 371.25C357.167 371.625 357.875 371.958 358.583 372.291C358.708 372.375 358.708 372.5 358.583 372.583C358.417 372.666 358.208 372.666 358.042 372.583C357.583 372.375 357.083 372.125 356.625 371.875C356.792 372.625 356.917 373.333 356.958 374.083C356.958 374.333 356.208 374.375 356.208 374.083C356.125 373.166 355.958 372.291 355.75 371.416C355.583 371.333 355.417 371.25 355.25 371.166C355.083 371.083 354.958 371 354.792 370.916C354.708 370.875 354.667 370.833 354.583 370.791C354.375 370.875 354 370.791 354 370.625C354.208 370.208 354.875 370.291 355.083 370.416Z" fill="white"/>
<path d="M353.458 371.417C354.167 372.583 355.083 373.625 356.167 374.5C356.292 374.625 356.125 374.75 356.042 374.75C355.875 374.792 355.667 374.792 355.542 374.667C354.417 373.792 353.5 372.708 352.792 371.5C352.583 371.292 353.292 371.208 353.458 371.417Z" fill="white"/>
<path d="M368.333 365.417C368.292 364.833 368.167 364.25 368.167 364.125C367.958 363.125 367.708 362.208 367.083 361.417C366.333 360.458 365.167 359.792 363.958 359.875C363.792 359.875 363.625 359.917 363.5 359.792C363.417 359.667 363.417 359.542 363.458 359.375C363.542 358.708 363.708 358.042 364.083 357.5C364.833 356.417 366.708 356.25 367.875 355.833C369.5 355.25 371.083 354.708 372.708 354.125C375.917 353 379.167 351.875 382.375 350.75C383.042 350.5 383.75 350.292 384.458 350.25C386.25 350.167 387.75 351.917 388.625 353.292C390.333 356.042 390.417 359.958 387.625 362.083C385.292 363.833 381.75 363.958 378.958 364.5C375.542 365.208 372.125 365.875 368.708 366.583C368.667 366.583 368.667 366.583 368.625 366.583C368.417 366.625 368.25 366.667 368.042 366.667C368.333 366.667 368.375 366.042 368.333 365.417Z" fill="white" stroke="#5633EF" stroke-miterlimit="10"/>
<path d="M450.042 321.667C449.625 321.667 449.25 321.666 448.833 321.708C443.542 322 438.542 324.208 433.708 326.375C420.208 332.458 406.667 338.583 393.167 344.667C389.167 346.458 385.167 348.25 381.167 350.083C380.042 350.583 378.167 351.417 377.917 352.833C377.833 353.417 377.958 354 378.083 354.542C378.875 358.125 378.917 361.875 379.708 365.458C379.792 365.833 379.917 366.208 380.167 366.458C380.542 366.75 382.833 366.083 383.375 366C384.833 365.833 386.25 365.5 387.667 365.167C395.292 363.417 402.917 361.5 410.458 359.375C413.833 358.417 417.625 356.708 421.125 356.458C424.292 356.208 427.292 355.292 430.417 354.667C435.458 353.625 440.417 352.375 445.417 351.125C447.917 350.5 450.458 349.875 452.75 348.75C456.5 346.917 459.583 343.791 461.375 340.041C463.292 336 464.458 330.708 461.5 326.875C458.833 323.333 454.333 321.75 450.042 321.667Z" fill="#2CD3DB"/>
<path d="M438.375 377.208C438.292 377.25 438.167 377.292 438.083 377.333C435.875 378 433.375 376.958 431.417 375.958C426.542 373.417 421.875 370.458 417.625 366.958C417.292 366.708 417 366.417 416.75 366.083C416.417 365.625 416.292 365.042 416.25 364.458C416.042 362.583 416.917 361.125 417.125 359.333C417.208 358.583 417.083 358.292 417.708 357.708C419.333 356.167 421.25 355.667 423.458 355.458C423.75 355.417 424.042 355.417 424.333 355.375C424.333 355.375 424.333 355.375 424.375 355.375C425.208 355.333 426.042 355.375 426.792 355.625C427.958 356.042 428.875 357 429.708 357.917C431.958 360.333 434.167 362.833 436.708 365C437.667 365.833 438.625 366.833 439.333 368C440.042 369.167 441 370.5 441.208 371.833C441.542 374 440.417 376.417 438.375 377.208Z" fill="#211D53"/>
<path d="M437 370.708C436.917 370.583 436.625 370.583 436.5 370.625C435.833 370.875 435.167 371.083 434.5 371.333C433.875 371.542 433.125 372 432.5 371.542C432 371.208 431.625 370.667 431.167 370.25C430.708 369.792 430.25 369.375 429.75 368.917C427.875 367.208 425.875 365.667 423.75 364.292C423.458 364.125 423.125 363.958 422.917 363.708C422.667 363.458 422.667 363.083 422.667 362.75C422.667 361.958 422.667 361.167 422.708 360.375C422.708 360.125 421.958 360.125 421.958 360.375C421.958 361.167 421.958 361.917 421.917 362.708C421.917 363 421.917 363.25 422 363.542C422.083 363.833 422.333 364 422.583 364.167C423.75 364.958 424.875 365.708 426 366.542C427.125 367.375 428.167 368.292 429.208 369.208C429.708 369.667 430.25 370.167 430.75 370.667C431.208 371.125 431.625 371.667 432.208 371.958C432.917 372.333 433.708 372.083 434.458 371.833C435.292 371.542 436.083 371.25 436.917 370.958C437 370.917 437.083 370.833 437 370.708Z" fill="white"/>
<path d="M438.375 377.208C438.292 377.25 438.167 377.292 438.083 377.333C438.125 377.167 438.208 377.042 438.292 376.917C438.417 376.667 438.583 376.417 438.708 376.167C439.25 375.208 439.667 374.208 439.625 373.083C439.625 372 439.292 370.958 438.792 370C437.75 368 436 366.5 434.333 365.042C432.542 363.5 430.958 361.875 429.417 360.125C428.833 359.458 428.25 358.792 427.708 358.125C427.125 357.625 426.542 357.167 425.958 356.667C425.458 356.25 424.917 355.833 424.417 355.375C425.25 355.333 426.083 355.375 426.833 355.625C428 356.042 428.917 357 429.75 357.917C432 360.333 434.208 362.833 436.75 365C437.708 365.833 438.667 366.833 439.375 368C440.083 369.167 441.042 370.5 441.25 371.833C441.542 374 440.417 376.417 438.375 377.208Z" fill="#5633EF" stroke="#5633EF" stroke-miterlimit="10"/>
<path d="M431.333 375.25C430.875 374.5 430.292 373.833 429.583 373.292C428.833 372.708 427.958 372.208 427.167 371.708C425.375 370.625 423.583 369.5 421.792 368.417L418.75 366.583C418.542 366.458 417.833 366.625 418.208 366.875L424.833 370.958C425.917 371.625 427 372.25 428.083 372.958C429.083 373.583 429.958 374.417 430.583 375.417C430.75 375.583 431.458 375.5 431.333 375.25Z" fill="white"/>
<path d="M425.375 365.333C425.25 365.25 425 365.25 424.833 365.333C424.167 365.708 423.5 366.042 422.833 366.375C423.083 365.5 423.458 364.667 423.958 363.875C424.083 363.625 423.375 363.542 423.25 363.792C422.667 364.708 422.25 365.708 422 366.792C421.667 366.917 421.375 367.042 421.042 367.167C420.833 367.25 420.583 367.333 420.375 367.417C420.167 367.5 419.958 367.583 419.75 367.583C419.625 367.583 419.333 367.583 419.292 367.708C419.25 367.875 419.458 367.917 419.542 367.958C420.083 368 420.542 367.833 421.042 367.667C421.333 367.583 421.625 367.458 421.875 367.333C421.75 368 421.708 368.667 421.708 369.333C421.708 369.583 422.458 369.583 422.458 369.333C422.458 368.542 422.542 367.75 422.708 367C423.625 366.583 424.542 366.167 425.417 365.667C425.5 365.542 425.5 365.417 425.375 365.333Z" fill="white"/>
<path d="M428.958 368.083C428.833 368 428.583 368 428.417 368.083C427.833 368.417 427.25 368.75 426.625 369.042C426.875 368.167 427.167 367.292 427.542 366.417C427.667 366.167 426.917 366.083 426.833 366.333C426.375 367.333 426.042 368.375 425.792 369.458C425.083 369.792 424.333 370.042 423.583 370.292C423.458 370.333 423.333 370.417 423.458 370.542C423.583 370.667 423.833 370.667 423.958 370.625C424.542 370.417 425.125 370.208 425.667 370C425.542 370.542 425.458 371.083 425.417 371.625C425.375 371.875 426.125 371.917 426.167 371.625C426.25 370.958 426.333 370.292 426.5 369.625C427.333 369.25 428.167 368.833 428.958 368.333C429.125 368.25 429.125 368.167 428.958 368.083Z" fill="white"/>
<path d="M430.583 370.416C430.375 370.5 430.167 370.625 430 370.75C430.125 370.208 430.25 369.666 430.375 369.125C430.417 368.875 429.667 368.833 429.625 369.125C429.5 369.833 429.292 370.541 429.167 371.25C428.5 371.625 427.792 371.958 427.083 372.291C426.958 372.375 426.958 372.5 427.083 372.583C427.25 372.666 427.458 372.666 427.625 372.583C428.083 372.375 428.583 372.125 429.042 371.875C428.875 372.625 428.75 373.333 428.708 374.083C428.708 374.333 429.458 374.375 429.458 374.083C429.542 373.166 429.708 372.291 429.917 371.416C430.083 371.333 430.25 371.25 430.417 371.166C430.583 371.083 430.708 371 430.875 370.916C430.958 370.875 431 370.833 431.083 370.791C431.292 370.875 431.667 370.791 431.667 370.625C431.5 370.208 430.833 370.291 430.583 370.416Z" fill="white"/>
<path d="M432.25 371.417C431.542 372.583 430.625 373.625 429.542 374.5C429.417 374.625 429.583 374.75 429.667 374.75C429.833 374.792 430.042 374.792 430.167 374.667C431.292 373.792 432.208 372.708 432.917 371.5C433.125 371.292 432.375 371.208 432.25 371.417Z" fill="white"/>
<path d="M417.375 365.417C417.417 364.833 417.542 364.25 417.542 364.125C417.75 363.125 418 362.208 418.625 361.417C419.375 360.458 420.542 359.792 421.75 359.875C421.917 359.875 422.083 359.917 422.208 359.792C422.292 359.667 422.292 359.542 422.25 359.375C422.167 358.708 422 358.042 421.625 357.5C420.875 356.417 419 356.25 417.833 355.833C416.208 355.25 414.625 354.708 413 354.125C409.792 353 406.542 351.875 403.333 350.75C402.667 350.5 401.958 350.292 401.25 350.25C399.458 350.167 397.958 351.917 397.083 353.292C395.375 356.042 395.292 359.958 398.083 362.083C400.417 363.833 403.958 363.958 406.75 364.5C410.167 365.208 413.583 365.875 417 366.583C417.042 366.583 417.042 366.583 417.083 366.583C417.292 366.625 417.458 366.667 417.667 366.667C417.333 366.667 417.333 366.042 417.375 365.417Z" fill="white" stroke="#5633EF" stroke-miterlimit="10"/>
<path d="M335.667 321.667C336.083 321.667 336.458 321.666 336.875 321.708C342.167 322 347.167 324.208 352 326.375C369.5 334.291 387 342.167 404.542 350.083C405.667 350.583 407.542 351.417 407.792 352.833C407.875 353.417 407.75 354 407.625 354.542C406.833 358.125 406.792 361.875 406 365.458C405.917 365.833 405.792 366.208 405.542 366.458C405.167 366.75 402.875 366.083 402.333 366C400.875 365.833 399.458 365.5 398.042 365.167C390.417 363.417 382.792 361.5 375.25 359.375C371.875 358.417 368.083 356.708 364.583 356.458C361.417 356.208 358.417 355.292 355.292 354.667C350.25 353.625 345.292 352.375 340.292 351.125C337.792 350.5 335.25 349.875 332.958 348.75C329.208 346.917 326.125 343.791 324.333 340.041C322.417 336 321.25 330.708 324.208 326.875C326.833 323.333 331.375 321.75 335.667 321.667Z" fill="#2CD3DB"/>
<path d="M130.5 131.292L134.042 133.208C134.042 133.208 132.083 137.833 128.375 136.125C128.417 136.125 131.083 135.25 130.5 131.292Z" fill="#150D3E"/>
<path d="M124.042 138.833L123.083 135C123.083 135 125.583 133.167 128.375 136.125C128.417 136.125 124.625 135.542 124.042 138.833Z" fill="#150D3E"/>
<path d="M145 146.333L146.875 143.333C154.333 133.375 151.375 128.25 149.083 125.625C146.208 122.333 142.583 121 142.583 121C142.5 120.958 142.375 120.917 142.292 120.875C140.208 119.75 138.417 119.417 138.417 119.417C122.542 111.5 112.792 142 114.75 144.542C116.75 147.083 122.833 148.458 122.833 148.458C122.583 148.042 122.417 147.208 122.417 147.208C123.833 149.208 130.5 150.417 130.5 150.417C129.125 147.833 128.833 145.625 129.083 143.792L132.875 144.5C133.292 147.458 134.208 150.417 135.417 151.917C137.75 154.875 143.667 155.875 143.667 155.875C143.458 155.5 143.5 154.542 143.5 154.542C143.542 155.167 144.5 155.875 144.5 155.875C145.208 156.083 146.917 155.708 146.917 155.708C146.917 155.708 143.542 154.833 145 146.333Z" fill="#211D53"/>
<path d="M144.75 162.833C142.667 162.083 141.208 160.25 140.958 158.083C140.958 158.042 140.958 158 140.958 157.958C140.667 155.5 140.458 152.708 140.708 151C140.75 150.792 140.75 150.583 140.792 150.375C141.042 148.833 141.375 147.208 141.833 145.458L141.083 145.417L130 133.417C130 133.417 127.5 148.542 126.583 152.125C126.167 153.708 125.25 156.708 124.375 159.208C123.833 160.708 122.708 161.917 121.25 162.583C120.167 163.042 119.083 163.583 118 164.083C118.333 164.708 118.792 165.292 119.208 165.708C120.375 166.833 121.917 167.5 123.458 168.042C128.042 169.625 133 170.083 137.792 169.375C138.583 169.25 139.375 169.083 140.167 168.875C141.042 168.625 141.917 168.292 142.708 167.833C144.208 166.958 145.458 165.583 145.875 163.917C145.917 163.708 145.958 163.5 146 163.292C145.542 163.083 145.167 162.958 144.75 162.833Z" fill="white" stroke="#5633EF" stroke-miterlimit="10"/>
<path d="M140.958 157.958C132 155.333 130.25 149.833 130.25 149.833C133.5 150.625 136.917 147.708 140.792 150.375C140.75 150.583 140.75 150.792 140.708 151C140.458 152.708 140.667 155.5 140.958 157.958Z" fill="#5633EF"/>
<path d="M131 129.167C132.5 125.667 135 123.917 140.833 125.083C151.292 127.208 150.833 130.625 150.75 134.208C150.667 137.792 151.958 153.917 141.583 154.333C138.417 154.458 133.292 153.208 130.25 149.875" fill="white"/>
<path d="M130.708 129.042C133.208 122.583 139.833 124.167 145.083 125.792C147.625 126.625 150.625 128.208 151.042 131.167C151.292 132.583 151.125 133.917 151.167 135.25C151.417 144.75 149.917 157.75 137.042 154.042C134.458 153.292 131.958 151.917 130.25 149.833C131.208 150.75 132.292 151.542 133.5 152.125C135.833 153.292 138.5 153.958 141.083 153.958C150.292 153.833 150.417 142.042 150.333 135.208C150.333 132.542 150.75 129.958 148.292 128.25C146.208 126.708 143.5 126.083 141 125.5C139.708 125.208 138.417 125.042 137.125 125.083C134.333 125.083 132.333 126.708 131.292 129.25C131.292 129.292 130.708 129.042 130.708 129.042Z" fill="#5633EF"/>
<path d="M148.208 126.792C148.208 126.792 140.667 137.417 133.458 137.333C126.208 137.292 123.75 134.708 123.75 134.708C123.75 134.708 129.083 131.833 132.083 124.917C132.083 124.917 146.375 120.292 148.208 126.792Z" fill="#211D53"/>
<path d="M146.875 127.458C146.875 127.458 149.458 130.958 149.583 133.708C149.708 136.458 148.917 141.833 150.5 142.042C150.5 142.042 155.667 134.917 153.167 129.417C150.5 123.583 146.875 127.458 146.875 127.458Z" fill="#211D53"/>
<path d="M147.375 128C147.375 128 140.958 139.5 131.375 141.208C131.375 141.208 141.917 135.875 144.792 127.958C147.708 120 147.375 128 147.375 128Z" fill="#211D53"/>
<path d="M139.583 145.958C139.917 147.292 140.958 148.458 142.208 149.042C142.667 149.25 143.125 149.417 143.667 149.5C142.042 149.583 140.375 149.042 139.208 147.875C138.792 147.458 138.458 147.042 138.125 146.458L139.583 145.958Z" fill="#5633EF"/>
<path d="M137.583 146.792C138 145.792 139.208 145.167 140.292 145.458C139.5 146.167 138.667 146.75 137.583 146.792Z" fill="#5633EF"/>
<path d="M145.625 140.792C145.833 141.208 145.958 141.792 146.292 142.042C146.292 142 146.333 142 146.458 141.958C146.833 141.792 147.458 141.708 147.875 142C149.5 143.125 148.458 145.708 146.833 146.125C146.458 146.25 146.042 146.208 145.708 146.083C146.458 146 147 145.583 147.333 145.042C147.792 144.333 148.083 143.042 147.167 142.708C146.792 142.708 146.292 142.958 145.875 142.542C145.417 142 145.5 141.375 145.625 140.792Z" fill="#5633EF"/>
<path d="M405.625 200.917C403 198.667 400.083 197.958 398.5 197.708C398.417 199.75 398.333 201.792 398.25 203.833C396.75 202.125 394.875 200.708 392.875 199.75C388.125 197.458 383.583 198.208 381.958 198.583C381.292 200.083 380.667 201.542 380.125 202.917C378.917 205.917 378.042 208.583 377.417 210.708C377.042 211.917 376.75 213.042 376.458 214.083C376.375 214.417 376.25 214.875 376.125 215.417C375.542 217.958 374.625 221.917 374.792 226.125C374.917 228.25 374.958 229.75 375.292 230.958C375.5 231.833 375.875 232.5 376.417 233.167C378.167 235.125 380.833 235.375 384.042 235.417L384.167 239.208L384.375 246.167C384.375 246.167 384.333 246.167 384.333 246.208C383.542 246.75 382.708 247.208 381.75 247.458C381.333 247.583 381.167 247.542 381.083 247.75C381.042 247.833 381.042 247.917 381.042 248.042C381.042 248.458 381.375 249.042 381.542 249.417C382.458 251.625 384.167 253.292 386.083 254.208C386.5 254.417 386.875 254.542 387.292 254.708C387.875 256.417 388.5 257.75 389.167 257.708C390.25 257.708 391.458 256.708 392.625 255.333C394.542 255.333 396.417 255.167 398.25 254.542C400.417 253.792 402.5 252.25 403.667 249.958C403.917 249.458 404.542 248.25 404.333 247.708C404.125 247.125 402.625 246.333 402.083 245.958C401.917 245.833 401.75 245.708 401.583 245.542C401.292 243.583 401.042 241.583 400.75 239.625C400.625 238.792 400.5 237.958 400.417 237.083C400.042 234.333 399.75 228.167 400.333 227.708C406.625 222.833 409.542 221.083 410.25 212.875C410.625 209.958 410.625 205.208 405.625 200.917Z" fill="white" stroke="#5633EF" stroke-miterlimit="10"/>
<path d="M399.125 228.208C399.125 228.208 397.542 234.167 393 237.042C388.458 239.917 384.208 240.167 384.208 240.167L384.042 233.667L399.125 228.208Z" fill="#5633EF"/>
<g opacity="0.22">
<path d="M398.292 229.083C397.75 230.625 397.25 231.625 396.625 232.375C394.042 235.375 389.667 235.333 385.542 235.375C381.708 235.375 378.458 235.417 376.458 233.125C375.875 232.5 375.542 231.792 375.333 230.917C375.208 230.417 375.125 229.875 375.042 229.25C377.708 231.875 381.792 231.667 386.667 231.417C390.792 231.25 395.083 231.042 398.292 229.083Z" fill="#F8928C"/>
</g>
<path d="M389.125 221.25C386.583 221.25 384.5 219.167 384.5 216.625C384.5 214.083 386.583 212 389.125 212C391.667 212 393.75 214.083 393.75 216.625C393.792 219.167 391.708 221.25 389.125 221.25ZM389.125 213.042C387.167 213.042 385.542 214.667 385.542 216.625C385.542 218.583 387.167 220.208 389.125 220.208C391.083 220.208 392.708 218.583 392.708 216.625C392.708 214.625 391.125 213.042 389.125 213.042Z" fill="#211D53"/>
<path d="M378.25 217.292C375.708 217.292 373.625 215.208 373.625 212.667C373.625 210.125 375.708 208.042 378.25 208.042C380.792 208.042 382.875 210.125 382.875 212.667C382.875 215.208 380.792 217.292 378.25 217.292ZM378.25 209.042C376.292 209.042 374.667 210.667 374.667 212.625C374.667 214.583 376.292 216.208 378.25 216.208C380.208 216.208 381.833 214.583 381.833 212.625C381.833 210.667 380.208 209.042 378.25 209.042Z" fill="#211D53"/>
<path d="M374.917 219.875C376.5 219.917 378.667 220.042 380.667 220.5C385.542 221.542 389.167 223.667 391.458 225.292C393.917 225.042 398.667 221.792 400.125 219.125C400.292 220.083 399.458 224.75 399.25 227.292C398.792 232.667 395.958 234.458 395.5 234.708C393.125 235.917 389.958 237.167 386.083 237.917C383.875 238.333 381.833 238.5 380.083 238.5C379.333 238.458 378.292 238.333 377.083 237.917C376.792 237.833 376.542 237.708 376.292 237.583C374.875 236.917 374 235.542 373.875 234C373.625 230.5 373.417 226.542 374.333 222.333C374.5 221.458 374.708 220.625 374.917 219.875Z" fill="#211D53"/>
<path d="M385.375 214.5C384.5 213.083 382.208 213.083 382.208 213.083V212.042C382.333 212.042 385.083 212.083 386.292 213.958L385.375 214.5Z" fill="#211D53"/>
<path d="M393.583 217.083L393.542 216L406.5 217.083L406.083 217.417L393.583 217.083Z" fill="#211D53"/>
<path d="M401.333 205.917C399 206.25 393 207.042 386.292 204.333C383.208 203.083 380.708 202.083 378.75 199.417C378.125 198.542 375.167 194.25 376.792 189.292C377.875 185.917 381.125 182.25 384.708 182.167C392.125 182 397.792 197.167 402.125 195.625C403.292 195.208 403.5 193.958 404.5 194.042C406.5 194.167 407.833 199.458 408.625 204.042C406.917 204.667 404.458 205.458 401.333 205.917Z" fill="#211D53"/>
<path d="M383.917 226.208C381.375 227.167 378.417 226.417 376.542 224.5C378.292 225.667 380.542 226.042 382.5 225.208C382.75 225.125 383.042 224.958 383.208 224.833L383.917 226.208Z" fill="white"/>
<path d="M384.208 227.125C383.375 226.125 383.125 224.917 382.917 223.708C384 224.375 384.5 225.875 384.208 227.125Z" fill="white"/>
<path d="M384.375 214.458C384.375 214.458 383.125 215.708 382.542 215.458C381.958 215.208 382.042 214.042 380.667 214.292C379 214.583 378.042 217.792 379.917 219.167" fill="white"/>
<path d="M384.375 214.458C383.958 215.042 383.542 215.708 382.708 215.833C382 215.833 381.833 215.208 381.458 214.917C380.292 214.25 379.333 215.875 379.208 216.917C379.083 217.708 379.292 218.542 379.875 219.208C379.458 219 379.125 218.708 378.875 218.292C377.833 216.583 379 213.5 381.292 213.833C381.875 213.875 382.333 214.5 382.5 214.917C382.583 215.083 382.667 215.167 382.667 215.167C383.25 215.125 383.833 214.708 384.375 214.458Z" fill="#5633EF"/>
<path d="M401.125 217.625C401.125 217.625 404.875 213.167 406.917 214.542C408.958 215.917 405.875 222.625 403.25 223.333C400.625 224.042 399.917 221.625 399.917 221.625" fill="white"/>
<path d="M401.125 217.625C402.25 216.208 403.542 214.792 405.333 214.167C408.042 213.5 408.083 216.375 407.417 218.208C406.708 220.208 405.333 222.792 403.208 223.458C401.833 223.875 400.292 223.042 399.917 221.625C400.375 222.958 401.833 223.667 403.125 223.208C405.125 222.542 406.375 219.917 407.042 218.083C407.583 216.583 407.75 213.958 405.458 214.542C403.75 215.083 402.375 216.417 401.125 217.625Z" fill="#5633EF"/>
<path d="M349.458 325.25L404.5 350.083" stroke="#211D53" stroke-miterlimit="10"/>
<path d="M394.458 344.083C394.458 344.083 427.333 329.25 437.042 324.917L394.458 344.083Z" fill="white"/>
<path d="M394.458 344.083C394.458 344.083 427.333 329.25 437.042 324.917" stroke="#211D53" stroke-miterlimit="10"/>
<path d="M340.208 351.083C340.208 351.083 346.167 352.708 354.417 354.458C358.417 355.333 362.917 355.833 367.542 356.958C384.167 361 402.375 366.208 404.5 366.417" stroke="#211D53" stroke-miterlimit="10"/>
<path d="M363.375 293.917C363.375 293.917 362.375 278.583 362.458 270.667" stroke="#5633EF" stroke-miterlimit="10"/>
<path d="M421.625 293.917C421.625 293.917 422.958 285.458 422.917 278.417" stroke="#5633EF" stroke-miterlimit="10"/>
<path d="M108.583 204.083C108.583 204.083 113.542 195.333 114.542 188.042" stroke="white" stroke-miterlimit="10"/>
<path d="M158.958 210.583C158.958 210.583 160.625 188.042 158.958 185.458C157.292 182.875 154.667 175.542 153.458 170.958" stroke="white" stroke-miterlimit="10"/>
<path d="M139.458 288C139.583 303.792 128.042 342.542 128.042 342.542C128.042 342.542 122.542 367.083 115.5 380.833" stroke="#5633EF" stroke-miterlimit="10"/>
<path d="M172.292 204.583C172.292 204.583 166.5 207.875 166.625 213.292C166.75 218.708 168.458 220.292 168.458 220.292C168.458 220.292 164.25 218.792 163.833 214.208C163.417 209.625 168.333 206.5 172.292 204.583Z" fill="#5633EF"/>
<path d="M96.875 211.042C96.875 211.042 89.875 213.5 89.125 219.542C88.3333 225.542 91.625 227.167 94.5417 227.375C94.5417 227.375 90.2917 229.083 88.25 224.375C86.1667 219.708 88 214 96.875 211.042Z" fill="#5633EF"/>
<path d="M199.542 187.708C199.542 187.708 202.542 186.25 204.625 184.75C206.708 183.25 208.958 182.5 209.5 183.125C210.042 183.75 207.25 186.25 205.375 187.208C203.5 188.167 202.583 191.25 201.667 192.958" fill="white"/>
<path d="M199.542 187.708C199.542 187.708 202.542 186.25 204.625 184.75C206.708 183.25 208.958 182.5 209.5 183.125C210.042 183.75 207.25 186.25 205.375 187.208C203.5 188.167 202.583 191.25 201.667 192.958" stroke="#5633EF" stroke-miterlimit="10"/>
<path d="M225.083 177.625L211.5 174.958C210.875 174.833 210.375 175.417 210.583 176.042L215.083 189.167C215.292 189.75 216.083 189.917 216.5 189.458L225.625 179C225.958 178.5 225.708 177.75 225.083 177.625Z" fill="#211D53"/>
<path d="M342.917 187.167C340.708 187.167 338.583 186.375 336.875 184.958C334.958 183.333 333.75 181.042 333.542 178.542C333.333 176.042 334.083 173.583 335.708 171.667C337.333 169.75 339.625 168.542 342.125 168.333C344.625 168.125 347.083 168.875 349 170.5C350.917 172.125 352.125 174.417 352.333 176.917C352.542 179.417 351.792 181.875 350.167 183.792C348.542 185.708 346.25 186.917 343.75 187.125C343.458 187.167 343.208 187.167 342.917 187.167ZM342.958 169.958C342.75 169.958 342.5 169.958 342.292 170C340.208 170.167 338.333 171.167 337 172.75C335.667 174.333 335.042 176.333 335.208 178.417C335.375 180.5 336.375 182.375 337.958 183.708C339.542 185.042 341.542 185.667 343.625 185.5C345.708 185.333 347.583 184.333 348.917 182.75C350.25 181.167 350.875 179.167 350.708 177.083C350.542 175 349.542 173.125 347.958 171.792C346.542 170.583 344.792 169.958 342.958 169.958Z" fill="#5633EF" stroke="#5633EF" stroke-miterlimit="10"/>
<path d="M356.292 188.75C355.833 189.292 355.042 189.375 354.5 188.917L348.792 184.125L350.417 182.167L356.125 186.958C356.667 187.417 356.75 188.208 356.292 188.75Z" fill="#5633EF" stroke="#5633EF" stroke-miterlimit="10"/>
<path d="M292.25 141.292L302.917 141.25L294.667 128.875C294.292 128.333 293.5 128.333 293.125 128.875L289.25 134.75C288.958 135.208 288.25 135.208 287.917 134.75L279.583 122.208C279.208 121.667 278.417 121.667 278.042 122.208L265.417 141.334L284.958 141.292H291.292H292.25Z" fill="#5633EF" stroke="#5633EF" stroke-miterlimit="10"/>
<path d="M292.076 117.924C294.056 117.242 295.108 115.084 294.426 113.104C293.744 111.124 291.586 110.072 289.606 110.754C287.626 111.436 286.574 113.594 287.256 115.574C287.938 117.554 290.096 118.606 292.076 117.924Z" fill="#211D53"/>
<path d="M294.417 295.833V295.792C294.417 292.75 292.208 289.917 288.875 289.917C286.25 289.917 284.708 291.833 284.167 293.583C283.625 291.792 282.125 289.917 279.458 289.917C276.125 289.917 273.917 292.708 273.917 295.792V295.833C273.917 296.5 273.917 303.25 284.125 308.792C294.417 303.25 294.417 296.5 294.417 295.833Z" fill="#2CD3DB"/>
<path d="M277.833 249.708C279.352 249.708 280.583 248.477 280.583 246.958C280.583 245.439 279.352 244.208 277.833 244.208C276.315 244.208 275.083 245.439 275.083 246.958C275.083 248.477 276.315 249.708 277.833 249.708Z" fill="#5633EF" stroke="#5633EF" stroke-miterlimit="10"/>
<path d="M280.625 233.042H278.5V246.916H280.625V233.042Z" fill="#5633EF" stroke="#5633EF" stroke-miterlimit="10"/>
<path d="M289.542 242.916C289.542 244.458 288.292 245.666 286.792 245.666C285.25 245.666 284.042 244.416 284.042 242.916C284.042 241.375 285.292 240.167 286.792 240.167C288.292 240.167 289.542 241.416 289.542 242.916Z" fill="#5633EF" stroke="#5633EF" stroke-miterlimit="10"/>
<path d="M289.583 229H287.458V242.875H289.583V229Z" fill="#5633EF" stroke="#5633EF" stroke-miterlimit="10"/>
<path d="M289.542 229.042L278.5 234.875V233.042L289.542 227.208V229.042Z" fill="#5633EF" stroke="#5633EF" stroke-miterlimit="10"/>
<path d="M289.542 232.542L278.5 238.375V236.542L289.542 230.667V232.542Z" fill="#5633EF" stroke="#5633EF" stroke-miterlimit="10"/>
<path d="M221.958 309C227.826 309 232.583 304.877 232.583 299.792C232.583 294.706 227.826 290.583 221.958 290.583C216.09 290.583 211.333 294.706 211.333 299.792C211.333 304.877 216.09 309 221.958 309Z" fill="#211D53"/>
<path d="M214.25 304.958L212.375 310.333L219.083 308.208L214.25 304.958Z" fill="#211D53"/>
<path d="M212.75 227.583H231.125L231.167 233.75H230.292C230 231.542 229.167 230.042 227.833 229.292C227.083 228.875 225.917 228.625 224.417 228.583V244.667C224.417 245.792 224.625 246.542 225 246.917C225.375 247.292 226.208 247.458 227.458 247.458V248.25H216.583V247.458C217.792 247.458 218.583 247.292 218.958 246.917C219.333 246.542 219.542 245.792 219.542 244.708V228.625C218.042 228.667 216.917 228.917 216.125 229.333C214.667 230.125 213.833 231.625 213.667 233.792H212.792L212.75 227.583Z" fill="#2CD3DB"/>
<path d="M346.583 247.958C346.042 249.417 344.417 250.208 342.958 249.667C341.5 249.125 340.708 247.5 341.25 246.042C341.792 244.583 343.417 243.792 344.875 244.333C346.375 244.875 347.125 246.5 346.583 247.958Z" fill="#211D53"/>
<path d="M333.625 243.292L354.167 250.792L353.333 248.667C352.833 247.333 352.792 245.875 353.292 244.542L355.333 238.958C356.833 234.833 354.708 230.25 350.583 228.75C346.458 227.25 341.875 229.375 340.375 233.5L338.417 238.875C337.958 240.125 337.125 241.167 336 241.875L333.625 243.292Z" fill="#211D53"/>
<path d="M349.833 230.542L349.583 230.458C349.083 230.292 348.833 229.75 349.042 229.25L349.958 226.708C350.125 226.208 350.667 225.958 351.167 226.167L351.417 226.25C351.917 226.417 352.167 226.958 351.958 227.458L351.042 230C350.833 230.5 350.292 230.75 349.833 230.542Z" fill="#211D53"/>
<path d="M340.875 115.833C341.5 115.458 342.167 115.167 342.875 114.958L343.292 112.958L346.625 112.917L347.125 114.875C347.833 115.042 348.5 115.333 349.167 115.667L350.875 114.542L353.292 116.875L352.25 118.625C352.625 119.25 352.917 119.917 353.125 120.625L355.125 121.042L355.167 124.375L353.208 124.875C353.042 125.583 352.75 126.25 352.417 126.917L353.542 128.625L351.208 131.042L349.458 130C348.833 130.375 348.167 130.667 347.458 130.875L347.042 132.875L343.708 132.917L343.208 130.958C342.5 130.792 341.833 130.5 341.167 130.167L339.458 131.292L337.042 128.958L338.083 127.208C337.708 126.583 337.417 125.917 337.208 125.208L335.208 124.792L335.167 121.458L337.125 120.958C337.292 120.25 337.583 119.583 337.917 118.917L336.792 117.208L339.125 114.792L340.875 115.833ZM342.667 120.292C341.292 121.708 341.333 124 342.75 125.375C344.167 126.75 346.458 126.708 347.833 125.292C349.208 123.875 349.167 121.583 347.75 120.208C346.333 118.833 344.042 118.875 342.667 120.292Z" fill="#2CD3DB"/>
<path d="M295.417 183.875C296.208 182.042 295.792 179.917 294.5 178.417C293.208 176.917 291.083 176.208 289.167 176.667C288.833 174.75 287.5 173.042 285.708 172.25C283.958 171.458 281.792 171.583 280.125 172.625C278.458 173.625 277.375 175.5 277.292 177.458C275.958 177.667 274.792 178.5 274.125 179.667C273.458 180.833 273.542 182.625 274.042 183.875H295.417Z" fill="#2CD3DB"/>
<path d="M229.875 120.708C229.875 115.833 225.458 111.958 220.375 112.917C217.208 113.5 214.667 116.125 214.083 119.292C213.75 121.292 214.167 123.167 215.042 124.708L215.083 124.75C215.375 125.25 215.75 125.625 216.167 126.167L220.792 132.292C221.375 133.042 222.5 133.042 223.083 132.292L227.625 126.292C227.625 126.292 228.458 125.292 228.792 124.75V124.708C229.5 123.542 229.875 122.167 229.875 120.708ZM221.958 124.167C220.042 124.167 218.458 122.583 218.458 120.667C218.458 118.75 220.042 117.167 221.958 117.167C223.875 117.167 225.458 118.75 225.458 120.667C225.458 122.583 223.875 124.167 221.958 124.167Z" fill="#2CD3DB"/>
</svg>
