<svg width="577" height="450" viewBox="0 0 577 450" fill="none" xmlns="http://www.w3.org/2000/svg">
<g clip-path="url(#clip0_4106_5207)">
<path d="M365.25 232.755C360.708 231.505 357.958 226.922 359.167 222.547L383.708 139.922L396.208 143.422L375.625 227.172C374.458 231.547 369.792 234.047 365.25 232.755Z" fill="#A6D9FF"/>
<path opacity="0.4" d="M365.25 232.755C369.792 234.005 374.458 231.505 375.625 227.13L396.208 143.38L395.167 143.089C391.292 157.422 377.958 202.88 361 216.255L359.125 222.547C357.958 226.922 360.708 231.505 365.25 232.755Z" fill="black"/>
<path d="M524.875 96.3771C523 90.3354 524.375 83.5438 527.792 78.2521C531.208 72.9188 536.5 69.0021 542.25 66.3771C544.125 65.5021 546.125 64.7521 547.833 63.6271C552.333 60.6688 554.833 54.9188 553.958 49.5854C557 53.2938 558.042 58.3354 557.708 63.0854C557.375 67.8771 555.833 72.4605 554.083 76.9188C551.792 82.8354 549.125 88.7938 544.625 93.2521C540.125 97.7104 533.458 100.502 527.333 98.7938C526.75 98.6271 526.167 98.4188 525.75 98.0021C525.292 97.5854 525.042 96.9604 524.875 96.3771Z" fill="#211D53"/>
<path d="M406.667 265.002L486.792 140.002C488.167 137.835 490.75 137.669 492.917 139.085L501.958 145.086C504.167 146.544 504.083 149.085 502.5 151.21L414.333 270.294C412.958 272.169 410.375 272.711 408.375 271.544L408.292 271.502C405.958 270.21 405.208 267.211 406.667 265.002Z" fill="#211D53"/>
<path d="M484.833 141.919L524.042 91.9187C525.25 96.4187 529.833 99.5437 534.417 99.002L501.458 153.96C497 157.627 481.833 149.335 484.833 141.919Z" fill="#2CD3DB"/>
<path d="M504.583 37.9604L495.25 64.4188C491.875 64.6271 488.917 63.8354 486.417 61.6688L493.792 34.5854L504.583 37.9604Z" fill="#5633EF"/>
<path d="M479.5 113.461C481.375 114.044 481.917 115.836 481.25 117.752L421.542 298.961C420.583 301.877 418.125 303.752 415.833 303.294L415.75 303.252C413.083 302.836 411.75 299.502 412.75 296.127L467.5 113.211C468.042 111.336 469.875 110.627 471.708 111.169L479.5 113.461Z" fill="#FFCB86"/>
<path d="M479.5 113.461C481.375 114.044 481.917 115.836 481.25 117.752L421.542 298.961C420.583 301.877 418.125 303.752 415.833 303.294L415.75 303.252C413.083 302.836 411.75 299.502 412.75 296.127L467.5 113.211C468.042 111.336 469.875 110.627 471.708 111.169L479.5 113.461Z" fill="#211D53"/>
<path d="M495.292 64.4605L480.333 122.002C477.875 125.002 465.292 123.086 466.083 117.086L486.458 61.7522C488.708 63.0855 492.583 64.2939 495.292 64.4605Z" fill="#2CD3DB"/>
<path d="M489.25 64.7937C488.042 64.5437 487.417 64.2104 486.792 63.5437L468 116.294C468.292 118.71 469.792 119.419 471.958 119.96L489.25 64.7937Z" fill="#F6F6F6"/>
<path d="M298.042 70.2104C301.417 77.0021 300.833 80.0438 298.708 81.1271C296.583 82.2104 293.75 80.8354 290.375 74.0854C287 67.2938 286.417 56.5854 286.417 56.5854C286.417 56.5854 294.667 63.4188 298.042 70.2104Z" fill="#211D53"/>
<path d="M321.458 116.002L313 120.252L407.792 309.627C409.333 312.669 412.458 314.211 414.792 313.044C417.125 311.877 417.792 308.461 416.25 305.377L321.458 116.002Z" fill="#E0D380"/>
<path d="M325.333 122.252L300.375 76.8354L294.25 79.9188L315.625 127.085L325.333 122.252Z" fill="#2CD3DB"/>
<path d="M295.583 80.5854L315.375 124.502L318.375 123.002L296.833 79.9604L295.583 80.5854Z" fill="white"/>
<path d="M416.75 27.2937C416.917 34.877 416 37.377 414.792 37.377C413.583 37.4187 412.542 34.9604 412.375 27.377C412.208 19.7937 414.125 9.9187 414.125 9.9187C414.125 9.9187 416.583 19.7104 416.75 27.2937Z" fill="#211D53"/>
<path d="M412.167 72.7936C414.5 143.169 416.875 213.544 419.208 283.96C419.333 287.377 420.125 290.127 421 290.127C421.875 290.127 422.542 287.335 422.458 283.877C421.375 213.46 420.292 143.044 419.208 72.627L412.167 72.7936Z" fill="#211D53"/>
<path d="M420.125 78.7104C418.417 52.0854 417.417 37.2104 416.833 27.6687L412.375 27.7937C412.208 37.3354 412 52.252 411.542 78.9187L420.125 78.7104Z" fill="#2CD3DB"/>
<path d="M413.333 29.5436C413.208 37.4603 412.958 55.4603 412.625 77.5853L415.292 77.502C414.875 41.7103 414.708 40.3353 414.625 29.502L413.333 29.5436Z" fill="white"/>
<path d="M384.25 39.1688C389.458 51.2938 380.125 64.7521 376.875 64.9188C372.75 65.1271 374.292 62.0021 368.125 51.2938C361.125 39.1271 364.958 26.6271 375.292 16.9604C374.417 31.5854 380.583 30.6271 384.25 39.1688Z" fill="#5633EF"/>
<path d="M376.958 108.461C387.75 176.127 399.5 243.669 411.833 311.086C412.458 314.461 414.625 316.919 416.708 316.627C418.75 316.336 420.083 313.294 419.708 309.919C411.667 241.836 403 173.836 393.417 106.002L376.958 108.461Z" fill="#211D53"/>
<path d="M394.875 109.71C390.25 86.7521 386.75 69.5438 383.958 56.2104L371.375 58.0854C372.625 71.6688 374.333 89.1271 376.667 112.419L394.875 109.71Z" fill="#2CD3DB"/>
<path d="M373.125 59.627C374.167 70.9187 375.667 90.9604 377.625 110.294L382.125 109.627C379.417 91.752 376.375 70.5854 375.375 59.2937L373.125 59.627Z" fill="white"/>
<path d="M407.375 267.752L323.083 25.752L310.75 30.0436L395 272.044C396.125 275.294 399.792 276.919 403.208 275.752C406.625 274.544 408.5 270.96 407.375 267.752Z" fill="#211D53"/>
<path d="M323.911 25.45L309.942 30.3149L325.387 74.6624L339.356 69.7974L323.911 25.45Z" fill="#2CD3DB"/>
<path d="M314.623 29.9904L311.554 31.0593L326.149 72.9671L329.218 71.8982L314.623 29.9904Z" fill="white"/>
<path d="M317.274 6.40626L303.305 11.2712L309.938 30.3166L323.907 25.4517L317.274 6.40626Z" fill="#211D53"/>
<path d="M447.208 100.752L435.708 99.7104L416.25 311.085C415.917 314.502 418.25 317.502 421.417 317.794C424.583 318.085 427.417 315.544 427.708 312.169L447.208 100.752Z" fill="#211D53"/>
<path d="M447.958 103.835L449.417 56.7938L441.542 56.0854L434.417 102.585L447.958 103.835Z" fill="#2CD3DB"/>
<path d="M442.708 57.5437L436 101.335L439.333 101.669L444.333 57.7104L442.708 57.5437Z" fill="white"/>
<path d="M452.375 36.8354L442.333 35.9187L441.625 56.0854L449.417 56.7937L452.375 36.8354Z" fill="#211D53"/>
<path d="M460.542 158.21C506.542 188.252 534.167 234.169 529.75 302.71C524.208 389.21 450.25 450.919 388.042 413.044C356.5 393.835 373.875 340.627 368.833 322.585C362.667 300.502 341.75 296.96 309.542 315.252C277.333 333.544 224.208 318.919 220.917 259.669C217.625 200.419 323.042 68.4603 460.542 158.21Z" fill="#2CD3DB"/>
<path d="M277.083 290.21C262.333 292.877 248.208 283.085 245.542 268.335C242.875 253.585 252.667 239.46 267.417 236.794C282.167 234.127 296.292 243.919 298.958 258.669C301.625 273.419 291.833 287.544 277.083 290.21Z" fill="#5633EF" stroke="#5633EF" stroke-miterlimit="10"/>
<path d="M319.583 218.627C304.667 221.335 290.375 211.419 287.667 196.502C284.958 181.585 294.875 167.294 309.792 164.585C324.708 161.877 339 171.794 341.708 186.71C344.375 201.627 334.5 215.96 319.583 218.627Z" fill="#FF5555"/>
<path d="M400.958 203.252C386.375 205.919 372.417 196.21 369.75 181.627C367.083 167.044 376.792 153.085 391.375 150.419C405.958 147.752 419.917 157.46 422.583 172.044C425.208 186.627 415.542 200.627 400.958 203.252Z" fill="#211D53"/>
<path d="M467.708 250.294C452.958 252.96 438.833 243.169 436.167 228.419C433.5 213.669 443.25 199.544 458.042 196.877C472.792 194.21 486.917 203.96 489.583 218.752C492.208 233.502 482.458 247.627 467.708 250.294Z" fill="#5633EF" stroke="#5633EF" stroke-miterlimit="10"/>
<path d="M485.208 333.794C470.458 336.46 456.292 326.669 453.625 311.919C450.958 297.169 460.75 283.002 475.5 280.335C490.25 277.669 504.375 287.46 507.083 302.21C509.75 316.96 499.958 331.085 485.208 333.794Z" fill="#211D53"/>
<path d="M391.208 299.377C378.042 301.752 365.417 293.002 363.042 279.835C360.667 266.669 369.417 254.044 382.583 251.669C395.75 249.252 408.375 258.002 410.75 271.21C413.083 284.335 404.375 296.96 391.208 299.377Z" fill="white"/>
<path d="M435.75 395.002C421.792 397.544 408.417 388.252 405.875 374.294C403.333 360.335 412.583 346.96 426.542 344.419C440.5 341.877 453.875 351.127 456.417 365.085C458.958 379.085 449.708 392.46 435.75 395.002Z" fill="#5633EF" stroke="#5633EF" stroke-miterlimit="10"/>
<path d="M345.333 91.0469H79.875V257.047H345.333V91.0469Z" fill="#5633EF"/>
<path d="M215.667 386.667C213.417 386.667 211.625 384.875 211.625 382.625V252.5H219.708V382.583C219.708 384.833 217.917 386.667 215.667 386.667Z" fill="#211D53"/>
<path d="M128.292 386.128C125.75 386.128 123.917 383.753 124.5 381.294L155.667 253.961L163.333 255.836L132.083 383.128C131.625 384.919 130.083 386.128 128.292 386.128Z" fill="#211D53"/>
<path d="M305.5 386.167C308.125 386.167 310.083 383.708 309.458 381.167L278.042 254L270.417 255.875L301.625 383.083C302.042 384.875 303.667 386.125 305.5 386.167Z" fill="#211D53"/>
<path d="M290.542 313.625H141.583V317.792H290.542V313.625Z" fill="#211D53"/>
<path d="M274.292 83.9609H163.333V98.7526H274.292V83.9609Z" fill="#211D53"/>
<path d="M333.458 104.547H94.75V241.589H333.458V104.547Z" fill="white"/>
<path d="M218 132C210.983 143.5 179 149.462 179 171C179 192.538 196.462 210 218 210C239.538 210 257 192.538 257 171C257 149.462 239.538 132 218 132ZM201.626 156.96C204.077 156.96 205.972 158.744 206.193 160.86C206.417 162.755 205.637 164.425 203.521 165.43C202.406 165.985 201.961 165.988 201.737 165.654C201.626 165.429 201.737 165.208 201.961 164.984C203.966 163.314 203.967 161.975 203.742 160.083C203.632 158.855 202.741 158.075 201.847 158.075C197.948 158.075 192.377 166.765 193.157 173.119C193.492 175.57 194.941 178.469 198.061 178.469C199.062 178.469 200.174 178.134 201.181 177.688C202.806 176.83 203.778 176.161 204.747 175.089C204.509 172.212 207.035 168.439 210.762 168.439C212.436 168.439 213.772 169.105 213.882 170.334C214.103 172.004 212.657 172.225 212.212 172.225C211.766 172.225 210.983 172.115 210.983 171.673C210.873 171.224 211.987 171.445 211.877 170.444C211.763 169.775 211.097 169.554 210.427 169.554C208.087 169.554 206.752 172.784 207.083 174.79C207.197 175.683 207.642 176.574 208.536 176.574C209.202 176.574 210.207 175.566 210.541 174.12C210.762 173.119 211.656 172.45 212.436 172.45C212.768 172.45 212.988 172.56 213.102 173.005V173.454C212.992 173.899 212.657 175.235 212.771 175.569C212.771 175.794 212.881 176.125 213.323 176.125C213.622 176.125 214.74 175.54 215.848 174.633C216.229 172.716 216.671 170.415 216.671 170.223C216.781 169.443 217.116 168.663 218.676 168.663C219.011 168.663 219.232 168.774 219.342 169.219V169.667L218.9 171.673C220.347 169.778 222.465 168.442 223.801 168.442C224.36 168.442 224.806 168.774 224.806 169.333C224.806 169.668 224.806 170.223 224.581 170.782C224.136 172.007 223.577 173.902 223.242 175.573C223.242 176.018 223.356 176.463 223.915 176.463C224.471 176.463 226.141 175.794 227.477 174.013L227.5 174C227.493 173.779 227.477 173.564 227.477 173.343C227.477 172.007 227.591 170.893 227.815 170.113C228.036 169.222 229.151 168.442 229.82 168.442C230.155 168.442 230.486 168.667 230.486 168.998C230.486 169.112 230.486 169.333 230.376 169.443C229.931 170.893 229.596 172.229 229.596 173.568C229.596 174.347 229.707 175.459 229.928 176.129C229.928 176.239 230.041 176.353 230.155 176.353C230.376 176.353 231.936 174.907 233.047 173.012C232.046 172.342 231.487 171.228 231.487 169.892C231.487 167.552 232.937 166.326 234.276 166.326C235.391 166.326 236.281 167.106 236.281 168.667C236.281 169.667 235.947 170.779 235.391 171.786H235.722C236.076 171.798 236.428 171.734 236.755 171.6C237.082 171.466 237.377 171.263 237.62 171.007C237.723 170.838 237.875 170.705 238.056 170.626C239.144 169.245 240.753 168.221 242.638 168.221C244.198 168.221 245.641 168.888 245.755 170.113C245.976 171.786 244.526 172.121 244.081 172.121L244.075 172.115C243.626 172.115 242.849 172.001 242.849 171.556C242.849 171.11 243.854 171.335 243.74 170.334C243.63 169.664 242.96 169.44 242.291 169.44C240.061 169.44 238.618 172.336 238.949 174.676C239.06 175.569 239.505 176.57 240.396 176.57C241.065 176.57 242.069 175.569 242.515 174.12C242.736 173.229 243.63 172.45 244.41 172.45C244.744 172.45 244.962 172.56 245.076 173.005C245.076 173.229 245.076 173.675 244.631 175.124C244.078 176.125 244.075 176.684 244.185 177.129C244.296 178.02 244.741 178.689 245.189 179.024C245.3 179.135 245.41 179.356 245.41 179.356C245.41 179.58 245.3 179.804 244.965 179.804C244.855 179.804 244.744 179.804 244.631 179.69C242.96 179.024 242.291 177.91 242.066 176.795C241.4 177.575 240.62 178.02 239.726 178.02C238.28 178.02 236.834 176.684 236.606 175.011C236.542 174.298 236.625 173.58 236.85 172.901C236.19 173.324 235.479 173.561 234.825 173.561H234.273C232.82 175.68 231.26 177.13 230.145 177.796C229.767 177.997 229.348 178.113 228.92 178.134C228.699 178.134 228.364 178.02 228.254 177.796C227.945 177.302 227.747 176.522 227.626 175.628C226.063 177.341 223.905 178.244 222.904 178.244C221.79 178.244 221.123 177.575 221.013 176.457V175.235C221.344 172.784 222.238 171.335 222.238 170.889C222.235 170.831 222.21 170.775 222.169 170.733C222.128 170.691 222.072 170.666 222.014 170.662C221.234 170.662 218.673 173.34 218.224 175.124L217.889 176.57C217.668 177.575 216.664 178.244 215.998 178.244C215.663 178.244 215.439 178.131 215.329 177.685V177.24L215.478 176.483C214.064 177.49 212.65 178.134 211.984 178.134C210.983 178.134 210.424 177.575 210.314 176.795C209.644 177.685 208.867 178.134 207.863 178.134C206.719 178.134 205.601 177.354 205.062 176.207C204.269 177.1 203.362 178.004 202.293 178.689C200.733 179.694 198.952 180.474 196.833 180.474C194.941 180.474 193.268 179.469 192.377 178.579C191.038 177.354 190.261 175.459 190.148 173.675C189.481 168.215 192.822 161.195 197.948 158.075C199.176 157.408 200.401 156.96 201.626 156.96ZM233.379 167.656C233.041 167.656 232.82 168.215 232.82 168.771C232.82 169.661 233.265 170.665 233.824 171.224C234.042 170.616 234.154 169.975 234.156 169.329C234.156 168.215 233.711 167.656 233.376 167.656H233.379Z" fill="#211D53"/>
<path d="M194.5 146C209.5 137.795 215.5 137.001 218 131.996C209.5 131.497 197.853 135.818 194.5 139C190.756 142.552 191.632 147.569 194.5 146Z" fill="#211D53"/>
<path d="M289.792 249.297H141.583V264.755H289.792V249.297Z" fill="#211D53"/>
<path d="M167.394 216.38L140.831 183.133C140.857 182.088 139.883 182.348 140.161 182.146C140.462 182.113 141.079 181.638 141.926 180.845C141.926 180.845 143.818 178.415 145.358 176.667C145.358 176.667 148.149 173.017 149.96 171.384C150.276 171.165 151.843 170.26 152.504 169.453C152.858 168.995 152.987 168.537 152.336 168.262C152.336 168.262 151.848 168.055 151.074 168.144C151.074 168.144 150.213 167.684 149.395 168.106C149.395 168.106 147.442 168.943 145.903 170.915C145.903 170.915 144.071 172.827 143.006 173.528C143.006 173.528 141.076 174.311 139.789 175.462C136.221 176.864 133.925 177.3 132.405 179.985C131.3 181.916 134.911 186.387 136.62 187.718C136.674 187.741 157.849 223.667 157.849 223.667L167.394 216.38Z" fill="white" stroke="#5633EF" stroke-miterlimit="10"/>
<path d="M154.525 217.91C154.525 217.91 156.919 215.275 164.431 213.399L155.75 220.155L154.525 217.91Z" fill="#5633EF"/>
<path d="M161.581 242.075L136.663 258.023C134.21 259.512 131.271 259.804 128.536 258.935C125.8 258.066 123.624 256.026 122.544 253.361C122.262 252.666 122.089 252.017 121.977 251.298C121.962 251.26 121.946 251.221 121.969 251.167L121.83 249.604C121.812 245.79 122.27 235.059 126 233.502C126 233.502 133.874 231.865 140 229.786C148 231.286 160.002 227.204 160.002 227.204L157.842 223.539L167.395 216.383C167.395 216.383 174.614 222.988 173.593 229.786C172.573 236.584 161.581 242.075 161.581 242.075Z" fill="#211D53" stroke="white" stroke-width="1.393" stroke-miterlimit="10"/>
<path d="M154.995 220.289C154.525 220.794 154.444 221.592 154.787 222.217L157.642 227.039C157.954 227.587 158.628 227.809 159.223 227.612C164.746 225.598 167.498 223.403 171.092 219.293C171.338 219.013 171.352 218.603 171.133 218.287L167.055 213.107C166.751 212.69 166.162 212.569 165.715 212.796C160.959 215.039 158.182 216.839 154.995 220.289Z" fill="#211D53" stroke="white" stroke-width="1.393" stroke-miterlimit="10"/>
<path d="M174.745 403.509L167.245 407.426L175.495 422.551L191.662 431.218L193.245 428.759L192.12 425.468L184.912 421.426C184.912 421.426 183.162 420.343 182.745 418.843L174.745 403.509Z" fill="white" stroke="#5633EF" stroke-miterlimit="10"/>
<path d="M182.162 417.718C182.162 417.718 180.912 419.843 178.204 421.218C175.495 422.593 175.329 422.259 175.329 422.259L174.87 421.051L182.162 417.718Z" fill="#5633EF"/>
<path d="M175.495 422.593C175.495 422.593 172.329 425.801 173.079 432.926H206.579C207.204 432.884 208.037 432.468 207.954 431.843C207.579 428.801 200.662 429.384 199.995 429.134L192.162 425.551C192.162 425.551 192.537 428.218 183.245 425.634C178.829 424.343 175.495 422.593 175.495 422.593Z" fill="white" stroke="#5633EF" stroke-width="1.8358" stroke-miterlimit="10"/>
<path d="M172.954 431.051L207.787 431.343" stroke="#5633EF" stroke-width="1.8358" stroke-miterlimit="10"/>
<path d="M183.787 415.593C183.787 415.593 182.829 417.426 178.912 419.426C174.995 421.426 172.537 421.384 172.537 421.384C172.537 421.384 166.954 413.593 155.162 395.301C143.37 377.009 147.245 369.301 141.12 362.218C134.995 355.134 119.412 313.301 119.412 313.301L126.662 309.009L145.537 297.843L159.329 353.843C160.162 354.926 160.829 356.093 161.412 357.301C161.412 357.301 162.829 369.218 169.579 384.134C176.287 399.093 183.787 415.593 183.787 415.593Z" fill="#2CD3DB" stroke="#5633EF" stroke-width="1.393" stroke-miterlimit="10"/>
<path d="M122.662 420.051L113.954 421.634L116.329 437.301L118.37 441.884L132.579 445.843L134.162 443.384L133.037 440.093L126.662 436.759C126.662 436.759 124.787 435.676 124.329 434.176L122.662 420.051Z" fill="white" stroke="#5633EF" stroke-width="1.8358" stroke-miterlimit="10"/>
<path d="M124.204 433.301C124.204 433.301 122.287 434.801 119.662 435.551C117.037 436.259 116.162 436.176 116.162 436.176L115.829 430.676L124.204 433.301Z" fill="#5633EF"/>
<path d="M116.329 437.259C116.329 437.259 113.162 440.509 113.995 447.593L147.454 447.343C148.079 447.301 148.62 446.843 148.829 446.218C149.662 443.176 144.412 443.259 142.954 443.676C142.287 443.884 141.537 443.843 140.87 443.551L133.037 440.009C133.037 440.009 132.829 444.343 123.454 441.259C118.495 439.676 116.329 437.259 116.329 437.259Z" fill="white" stroke="#5633EF" stroke-width="1.8358" stroke-miterlimit="10"/>
<path d="M143.204 315.468C143.204 315.468 140.87 357.551 139.62 368.176C138.37 378.843 132.329 382.926 129.87 401.718C127.37 420.759 125.912 433.343 125.912 433.343C125.912 433.343 123.037 433.968 119.579 433.718C116.12 433.468 113.829 432.551 113.829 432.551C113.829 432.551 112.912 420.676 113.12 404.551C113.329 388.468 120.329 366.884 120.329 366.884C120.329 366.884 111.204 328.009 113.495 308.009C114.454 299.676 117.162 293.593 122.87 290.634C133.162 285.301 143.162 291.843 143.162 291.843L142.579 300.551" fill="#2CD3DB"/>
<path d="M143.204 315.468C143.204 315.468 140.87 357.551 139.62 368.176C138.37 378.843 132.329 382.926 129.87 401.718C127.37 420.759 125.912 433.343 125.912 433.343C125.912 433.343 123.037 433.968 119.579 433.718C116.12 433.468 113.829 432.551 113.829 432.551C113.829 432.551 112.912 420.676 113.12 404.551C113.329 388.468 120.329 366.884 120.329 366.884C120.329 366.884 111.204 328.009 113.495 308.009C114.454 299.676 117.162 293.593 122.87 290.634C133.162 285.301 143.162 291.843 143.162 291.843L142.579 300.551" stroke="#5633EF" stroke-width="1.393" stroke-miterlimit="10"/>
<path d="M137.537 236.342C134.662 237.467 128.912 233.592 126.412 230.217C126.245 229.967 126.245 227.259 126.12 223.967C126.037 221.967 125.12 214.592 124.829 212.551C124.787 212.134 138.704 219.051 138.704 219.051C138.704 219.051 138.037 223.467 138.537 226.967C138.579 227.259 138.662 227.551 138.745 227.801C138.745 227.842 138.787 227.884 138.787 227.926C139.287 229.467 140.329 235.259 137.537 236.342Z" fill="white" stroke="#5633EF" stroke-miterlimit="10"/>
<path d="M129.037 220.051C129.037 220.051 131.62 223.926 134.579 225.884C137.537 227.842 138.745 227.301 138.745 227.301L138.412 224.634C138.412 224.634 131.745 223.217 129.037 220.051Z" fill="#5633EF"/>
<path d="M127.995 219.009C133.995 225.468 141.329 225.968 143.287 222.593C146.537 217.009 143.87 198.593 140.287 195.926C134.995 192.009 125.704 194.759 123.62 201.468" fill="white"/>
<path d="M127.995 219.009C131.245 222.259 135.829 225.259 140.579 224.259C142.787 223.759 143.62 221.926 144.037 219.884C144.829 215.884 144.579 211.718 144.079 207.718C143.704 205.009 143.162 202.343 142.245 199.801C141.787 198.593 141.287 197.259 140.329 196.343C136.079 192.968 129.287 194.218 125.787 198.093C124.87 199.093 124.204 200.259 123.787 201.551L123.37 201.426C124.162 198.718 126.245 196.551 128.745 195.301C131.204 194.051 134.12 193.593 136.87 194.218C138.87 194.676 140.995 195.759 141.87 197.759C143.37 200.884 143.995 204.343 144.495 207.718C144.87 210.426 145.037 213.176 144.912 215.926C144.745 218.426 144.579 221.968 142.537 223.759C141.412 224.676 139.954 224.926 138.537 224.884C134.412 224.593 130.704 222.009 127.995 219.009Z" fill="#5633EF"/>
<path d="M125.745 219.843L124.954 212.384C124.954 212.384 128.495 209.426 126.62 205.551C126.62 205.551 136.662 206.843 137.12 198.759C137.12 198.759 138.454 202.218 142.995 202.301L143.704 205.551C144.745 205.259 146.912 202.051 144.37 199.801C144.37 199.801 146.579 195.426 143.954 192.634C139.995 188.468 135.287 192.593 135.287 192.593C135.287 192.593 132.912 190.634 129.204 191.134C125.495 191.634 123.995 195.009 123.995 195.009C123.995 195.009 119.037 195.968 118.204 199.509C117.37 203.051 119.204 205.426 119.204 205.426C119.204 205.426 117.62 208.134 118.412 211.093C120.454 219.051 125.745 219.843 125.745 219.843Z" fill="#211D53"/>
<path d="M128.787 205.509C129.162 205.551 130.745 205.634 132.204 205.384C133.204 205.217 134.162 204.801 134.454 204.592C135.579 203.967 136.37 202.926 136.745 201.676C136.954 201.051 137.079 200.426 137.12 199.759C137.204 199.092 137.162 198.467 137.079 197.801C137.412 199.092 137.454 200.467 137.079 201.759C136.745 203.092 135.87 204.259 134.662 204.967C134.495 205.051 133.912 205.426 133.162 205.592C131.079 206.051 129.37 205.801 128.745 205.676C128.079 205.551 127.454 205.426 126.787 205.259C127.495 205.384 128.162 205.467 128.787 205.509Z" fill="#211D53"/>
<path d="M126.412 212.134C126.412 212.134 123.37 207.968 121.454 209.051C119.537 210.134 121.912 216.259 124.162 217.051C126.454 217.843 127.204 215.759 127.204 215.759" fill="white"/>
<path d="M126.412 212.134C125.329 211.009 123.37 208.676 121.704 209.134C120.12 209.968 121.37 213.134 121.954 214.384C122.495 215.384 123.162 216.509 124.245 216.968C125.37 217.468 126.704 216.926 127.204 215.759C126.787 216.968 125.412 217.634 124.204 217.176C122.329 216.426 121.287 214.093 120.787 212.259C120.287 210.634 120.495 208.009 122.87 208.801C124.412 209.426 125.495 210.801 126.412 212.134Z" fill="#5633EF"/>
<path d="M140.037 208.634C140.037 208.634 141.495 207.301 141.87 208.676C142.245 210.051 140.62 211.968 140.62 211.968" fill="white"/>
<path d="M140.037 208.634C140.495 207.926 141.704 207.426 142.037 208.509C142.287 209.301 141.954 210.134 141.579 210.801C141.329 211.218 140.995 211.634 140.62 211.968C140.87 211.551 141.12 211.093 141.287 210.676C141.579 210.009 142.037 208.718 141.287 208.259C140.912 208.134 140.412 208.426 140.037 208.634Z" fill="#5633EF"/>
<path d="M142.62 216.968C142.62 216.968 141.954 217.509 140.662 217.426C138.745 217.343 137.787 216.551 137.412 216.134" fill="white"/>
<path d="M142.62 216.968C141.204 218.134 138.454 217.551 137.245 216.301L137.537 216.009C138.829 217.176 140.995 217.718 142.62 216.968Z" fill="#5633EF"/>
<path d="M137.704 214.884C137.704 214.884 138.245 216.301 135.745 216.926L137.704 214.884Z" fill="white"/>
<path d="M137.704 214.884C138.495 216.009 136.745 216.968 135.745 216.926C136.704 216.509 137.537 216.009 137.704 214.884Z" fill="#5633EF"/>
<path d="M148.287 306.509C148.162 309.551 138.579 311.551 129.537 311.843C126.662 311.926 123.454 311.301 121.162 311.176C117.995 310.968 116.37 311.384 115.87 311.343C114.537 311.218 112.287 310.884 111.704 309.676C111.62 309.509 111.412 307.884 111.912 305.676C112.079 304.884 112.912 304.384 113.12 303.384C113.37 302.176 112.995 300.593 113.204 299.218C113.495 297.176 114.245 295.509 114.245 295.509L113.787 278.718L113.537 277.343L112.245 269.218L111.329 263.343L109.329 250.426C109.079 247.259 109.579 244.093 110.787 241.218C110.829 241.134 110.87 241.009 110.912 240.884C111.412 239.718 112.079 238.634 112.912 237.718C113.329 237.176 113.787 236.718 114.204 236.301L114.995 235.634C114.995 235.593 115.037 235.551 115.079 235.593L116.204 234.593L116.329 234.468L122.204 230.134C122.204 230.134 122.954 231.301 130.329 233.301C137.704 235.259 139.745 234.509 139.745 234.509L142.037 238.634C144.12 241.176 145.745 244.093 146.954 247.093C147.745 249.009 148.37 250.968 148.829 253.051C149.704 256.926 149.745 260.926 149.412 264.884C148.995 269.634 148.079 274.426 147.37 278.926C147.12 280.384 146.995 281.843 146.912 283.343C146.579 289.301 146.329 293.509 146.829 299.384L148.287 306.509Z" fill="#211D53" stroke="white" stroke-width="1.393" stroke-miterlimit="10"/>
<path d="M121.87 229.718L126.745 225.634C126.745 225.634 128.495 227.968 133.079 229.801C137.662 231.634 138.245 231.176 138.245 231.176L139.579 239.843C139.579 239.843 132.787 236.468 128.079 233.926C123.37 231.384 121.87 229.718 121.87 229.718Z" fill="#211D53" stroke="white" stroke-width="1.393" stroke-miterlimit="10"/>
<path d="M141.079 235.426C141.079 235.426 141.704 236.259 142.829 237.759C143.37 238.509 144.079 239.426 144.87 240.426C145.662 241.509 146.537 242.634 147.412 244.009C148.245 245.426 149.245 247.176 149.954 248.801C150.745 250.384 151.495 252.426 152.162 254.384C152.454 255.384 152.745 256.426 153.037 257.509C153.245 258.593 153.412 259.718 153.62 260.801C153.662 261.134 153.745 261.218 153.745 261.801L153.787 262.593L153.87 264.176L153.995 267.343C153.954 269.509 153.912 271.718 153.912 273.843C154.037 275.884 154.162 277.884 154.245 279.843C154.37 281.843 154.412 283.801 154.62 285.551C154.87 287.301 155.079 288.968 155.287 290.509C155.662 293.551 155.995 296.134 156.287 298.009C156.579 299.843 156.704 300.926 156.704 300.926L152.37 305.551L147.12 301.676C147.12 301.676 147.079 300.593 146.995 298.759C146.912 296.926 146.87 294.218 146.829 290.884C146.787 289.259 146.787 287.468 146.745 285.551C146.745 283.676 146.912 281.801 146.995 279.801C147.12 277.759 147.245 275.634 147.329 273.468C147.579 271.426 147.87 269.384 148.12 267.301L148.329 264.134L148.454 262.551L148.495 261.759C148.537 261.843 148.495 261.343 148.495 261.176C148.454 260.218 148.37 259.259 148.329 258.301C148.162 257.343 147.995 256.426 147.87 255.468C147.454 253.634 147.079 251.926 146.412 250.176C145.829 248.343 145.245 247.051 144.62 245.634C143.954 244.259 143.12 242.968 142.537 241.843C141.87 240.718 141.287 239.759 140.829 238.968C139.87 237.384 139.579 236.301 139.579 236.301L141.079 235.426Z" fill="white" stroke="#5633EF" stroke-miterlimit="10"/>
<path d="M138.912 231.634L141.495 235.718L139.454 236.718L138.912 231.634Z" fill="white" stroke="#5633EF" stroke-miterlimit="10"/>
<path d="M73.2653 272.078C73.2653 272.078 49.0592 234.651 48.7897 234.77C48.5942 234.998 47.8546 235.293 46.7717 235.598C46.7717 235.598 43.7195 235.98 41.417 236.411C41.417 236.411 36.8532 236.959 34.498 237.665C34.1483 237.807 32.5878 238.722 31.5512 238.884C30.9671 238.962 30.5384 238.822 30.5985 238.113C30.5985 238.113 30.6637 237.575 31.1412 236.965C31.1412 236.965 31.2026 235.952 31.9772 235.474C31.9772 235.474 33.6993 234.211 36.2075 233.895C36.2075 233.895 38.8084 233.293 39.9039 232.725C39.9039 232.725 41.5458 231.484 43.1677 230.941C46.1822 228.578 47.7289 226.845 50.8136 226.886C53.0284 226.912 54.9891 231.728 55.6849 233.74C55.7074 233.82 83.1145 265.239 83.1145 265.239L73.2653 272.078Z" fill="white" stroke="#5633EF" stroke-miterlimit="10"/>
<path d="M113.5 275.497C113.5 275.497 112 268.997 111 267.997C103 272.997 97.7374 275.398 91.8538 276.794C87.4655 277.812 80.2745 278.406 75.9813 275.762C71.5853 273.059 70.1786 267.136 70.1786 267.136L79.8235 259.878L82.8834 263.215C82.8834 263.215 88.9625 260.207 95.1707 257.811C101.379 255.416 108.208 243.951 109 241.997C110.624 238.078 116.5 234.994 116.5 234.994" fill="#211D53"/>
<path d="M113.5 275.497C113.5 275.497 112 268.997 111 267.997C103 272.997 97.7374 275.398 91.8538 276.794C87.4655 277.812 80.2745 278.406 75.9813 275.762C71.5853 273.059 70.1786 267.136 70.1786 267.136L79.8235 259.878L82.8834 263.215C82.8834 263.215 88.9625 260.207 95.1707 257.811C101.379 255.416 108.208 243.951 109 241.997C110.624 238.078 116.5 234.994 116.5 234.994" stroke="white" stroke-width="1.393" stroke-miterlimit="10"/>
<path d="M76.8243 256.911C76.8243 256.911 73.1568 258.029 69.9455 259.538C66.7343 261.048 66.2968 261.647 66.2968 261.647L67.7196 263.627L76.8243 256.911Z" fill="#5633EF"/>
<path d="M77.7541 256.529C78.4134 256.257 79.1567 256.438 79.6067 256.96L83.178 261.193C83.5766 261.687 83.5967 262.374 83.217 262.87C79.5471 267.365 76.6091 269.231 71.633 271.236C71.2833 271.378 70.8947 271.228 70.6841 270.941L67.1867 265.432C66.8909 264.996 66.9848 264.407 67.3182 264.053C70.9618 260.388 73.5514 258.361 77.7541 256.529Z" fill="#211D53" stroke="white" stroke-width="1.393" stroke-miterlimit="10"/>
<path d="M140.704 193.427C134.912 198.635 127.787 202.802 119.329 205.927L116.704 201.427L138.079 188.927L140.704 193.427Z" fill="#5633EF"/>
<path d="M142.745 187.927C146.12 190.469 143.329 196.094 131.037 200.802C117.912 205.802 115.245 203.302 113.704 199.344C112.162 195.385 117.412 188.344 126.662 189.01C133.745 189.51 138.579 184.76 142.745 187.927Z" fill="#5633EF"/>
<path d="M127.912 191.385L128.245 191.177C128.329 188.469 127.87 186.094 126.245 184.469L123.954 185.135C126.037 186.802 127.162 188.969 127.912 191.385Z" fill="#211D53"/>
<path d="M145.636 166.401C152.083 168.956 159.611 167.985 165.707 164.668C171.802 161.351 176.533 155.909 179.9 149.852C180.991 147.862 181.958 145.759 183.382 143.971C187.011 139.284 193.488 137.03 199.227 138.44C195.417 134.817 190.002 133.279 184.763 133.228C179.524 133.177 174.345 134.527 169.343 136.065C162.672 138.076 155.961 140.552 150.689 145.1C145.417 149.648 141.846 156.734 143.212 163.569C143.34 164.194 143.513 164.867 143.929 165.345C144.353 165.851 144.985 166.144 145.636 166.401Z" fill="#211D53"/>
<path d="M150.126 163.269C150.126 163.269 150.783 163.343 151.96 163.441C153.125 163.603 154.781 163.587 156.877 163.227C157.899 163.009 158.925 162.609 160.06 162.267C161.126 161.795 162.293 161.262 163.384 160.571C164.421 159.805 165.602 159.117 166.554 158.166C167.585 157.281 168.537 156.33 169.435 155.304C173.11 151.268 175.67 146.54 178.037 143.472C178.67 142.768 179.195 142.006 179.812 141.548C180.359 140.96 180.943 140.694 181.452 140.48C181.937 140.183 182.408 140.343 182.712 140.251C183.033 140.214 183.18 140.2 183.18 140.2C183.18 140.2 183.017 140.159 182.706 140.132C182.413 140.16 181.9 139.862 181.327 140.064C180.738 140.212 179.974 140.382 179.282 140.892C178.493 141.281 177.852 141.958 177.064 142.648C174.154 145.518 171.181 149.977 167.722 153.828C166.87 154.809 166.002 155.735 165.053 156.595C164.185 157.521 163.151 158.195 162.241 158.983C161.261 159.641 160.273 160.27 159.352 160.82C158.361 161.239 157.423 161.734 156.518 162.037C155.588 162.257 154.758 162.507 153.983 162.741C153.199 162.946 152.477 162.953 151.898 163.037C150.768 163.196 150.126 163.269 150.126 163.269Z" fill="white"/>
<path d="M175.623 139.671C175.623 139.671 175.019 139.672 173.992 139.77C173.511 139.975 172.802 140.129 172.168 140.531C171.499 140.914 170.807 141.424 170.166 142.101C167.511 144.713 165.149 148.897 162.096 152.293C161.403 153.197 160.54 153.94 159.757 154.75C158.869 155.41 158.131 156.267 157.201 156.789C155.456 158.009 153.707 159.02 152.079 159.631C150.469 160.298 149.074 160.779 148.061 161.024C147.064 161.324 146.491 161.527 146.491 161.527C146.491 161.527 147.087 161.498 148.13 161.455C149.174 161.413 150.694 161.347 152.474 160.84C154.243 160.398 156.294 159.689 158.278 158.457C159.327 157.929 160.2 157.122 161.191 156.401C162.056 155.567 163.022 154.762 163.79 153.806C167.089 150.124 169.038 145.672 171.092 142.969C171.606 142.271 172.134 141.719 172.623 141.239C173.105 140.732 173.65 140.537 174.07 140.229C175.05 139.874 175.623 139.671 175.623 139.671Z" fill="white"/>
<path d="M163.813 143.87C163.813 143.87 163.479 144.062 162.92 144.411C162.413 144.836 161.517 145.166 160.615 145.68C158.675 146.657 155.888 147.527 153.243 149.17C152.598 149.636 151.928 150.019 151.373 150.579C150.811 151.02 150.15 151.733 149.805 152.29C149.36 152.817 148.995 153.41 148.747 154.088C148.462 154.748 148.153 155.324 148.054 155.898C147.412 158.175 147.512 158.205 147.412 158.175C147.412 158.175 147.973 159.334 148.182 158.727C148.32 158.082 148.745 157.289 149.248 156.353C149.427 155.846 149.823 155.455 150.13 154.97C150.409 154.493 150.879 154.05 151.352 153.515C151.808 152.924 152.217 152.68 152.798 152.203C153.296 151.751 153.919 151.412 154.497 151.027C155.653 150.255 156.962 149.589 158.163 148.865C159.372 148.168 160.456 147.358 161.372 146.689C162.29 145.929 162.923 145.225 163.305 144.688C163.612 144.203 163.813 143.87 163.813 143.87Z" fill="white"/>
<path d="M8.45399 248.309L100.505 200.692C102.996 199.337 103.588 196.894 102.206 194.412L96.3879 184.028C94.9529 181.471 92.2031 181.364 89.7518 182.948L3.28628 239.48C1.1338 240.853 0.331667 243.601 1.41742 245.901L1.44246 245.984C2.70039 248.654 5.91664 249.708 8.45399 248.309Z" fill="#211D53"/>
<path d="M100.505 200.687C100.505 200.687 100.737 200.858 103.236 199.531C105.735 198.204 150.464 167.691 150.464 167.691C150.786 163.85 147.419 158.192 143.567 155.73C143.567 155.73 97.556 178.084 93.6571 180.075C89.7665 182.093 89.9834 182.813 89.9834 182.813C93.1681 183.061 101.034 192.828 100.505 200.687Z" fill="#2CD3DB"/>
<path d="M93.9298 181.378C93.9298 181.378 97.3213 183.013 98.7404 186.118L145.447 159.659C145.447 159.659 144.517 157.976 142.987 157.109L93.9298 181.378Z" fill="white"/>
</g>
<defs>
<clipPath id="clip0_4106_5207">
<rect width="576.958" height="450" fill="white"/>
</clipPath>
</defs>
</svg>
