<svg width="577" height="450" viewBox="0 0 577 450" fill="none" xmlns="http://www.w3.org/2000/svg">
<path d="M28.2917 260.333L64.4584 255.917C73.0834 254.875 79.2084 247.042 78.1667 238.417L77.25 231.083C76.2084 222.458 68.3751 216.333 59.7501 217.375L23.5834 221.792C14.9584 222.833 8.83339 230.667 9.87506 239.292L10.7917 246.625C11.8334 255.25 19.6667 261.375 28.2917 260.333Z" fill="#211D53"/>
<path d="M40.6251 252.167L24.1667 269.291L24.2084 254.5L40.6251 252.167Z" fill="#211D53"/>
<path d="M389 86.875C388.75 85.75 388.458 84.9167 388.375 84.5417C388.833 84.25 389.25 84 389.583 83.625C390.125 83.0834 390.083 82.8334 390.958 83.2084C391.333 83.3334 391.625 83.5834 392.042 83.6667C392.792 84.0834 393.583 84.4167 394.375 84.75C394.375 84.75 397.667 86.375 397.708 86.25C398.875 84.5417 400.042 82.875 401.25 81.25C401.625 80.7917 401.958 80.25 402.375 79.7084C402.375 79.6667 402.417 79.5417 402.417 79.5417C402.417 79.5 402.417 79.4584 402.292 79.2917C401.833 78.5834 400.042 76.75 400.042 76.75C399.208 75.7917 398.292 74.7917 397.417 73.875C396.833 73.2917 397.125 73.2917 397.375 72.5834C397.542 72.0834 397.75 71.5 397.917 71.125C399.917 70.9167 401.917 70.7084 403.917 70.5417C404.167 70.5 404.375 70.4584 404.583 70.5L404.708 70.4584C405.417 70.4167 405.917 70.5834 406 69.75C405.958 69.1667 406.083 68.5417 406.167 67.9584C406.25 67.4167 406.333 66.875 406.333 66.2917C406.333 66.2084 406.375 66.125 406.375 66.0834C406.5 65.0417 406.542 64.0417 406.583 62.875C406.75 61.8334 406.792 62 405.792 61.6667C403.958 61.0834 402 60.4584 400.292 59.9167C399.667 59.7084 399.042 59.875 399 59.1667C398.958 58.6667 398.917 58.125 398.875 57.6667C398.625 56.75 399.042 56.8334 399.667 56.3334C400.292 55.8334 400.875 55.375 401.583 55C402.667 54.1667 403.917 53.3334 405.042 52.3334C405.417 52.0834 404.75 51.1667 404.542 50.75C403.833 49.0417 403.042 47.2917 402.208 45.5C402.167 45.3334 402.042 45.0834 401.875 44.8334C401.75 44.5 400.333 45 400.083 45.0834C398.875 45.2917 397.625 45.625 396.417 45.8334C395.792 46 395.208 46.125 394.542 46.2917C393.708 46.5 393.583 45.875 393 45.2084C392.583 44.5834 392.208 44.625 392.583 43.875C392.917 43.25 393.125 42.7084 393.375 42.1667C393.958 41 394.458 39.875 394.875 38.6667C395.125 38.3334 395.875 37.125 395.375 36.8334C393.708 35.5 391.917 34.2084 390.083 32.9167C389.833 32.7084 389.125 31.9584 388.833 32.2917C387.542 33.375 386.333 34.5417 385.042 35.6667C384.375 36.3334 383.417 37.75 382.667 37.375C382.125 37.25 381.667 36.9584 381.167 36.7917C380.417 36.5 380.667 36.125 380.625 35.4167C380.458 33.375 380.208 31.3334 379.958 29.2917C379.792 28.4167 379.917 28.5 379 28.375C377.792 28.3334 376.583 28.2084 375.375 28.0834C374.333 27.9167 373.375 27.7917 372.25 27.6667C371.333 27.625 371.542 28.375 371.25 29.1667C370.542 31.25 370.042 33.3334 369.375 35.4584C368.375 35.5417 367 36.125 366.5 35.2917C365.667 34.0834 364.792 32.9167 363.875 31.75C363.792 31.625 362.167 29.2084 362.042 29.25C361.375 29.5417 360.583 29.9167 359.875 30.2084C358.833 30.7084 357.625 31.1667 356.667 31.7084C356.292 31.9167 354.792 32.2917 354.625 32.6667C354.375 33.0834 355.25 35.75 355.417 36.2917C355.625 37.5417 356 38.7917 356.25 39.9584C356.542 40.8334 356.25 40.7084 355.625 41.1667C355 41.7084 354.75 42.2917 353.958 41.9584C352.208 41.0417 350.417 40.25 348.583 39.5C347.833 39.1667 347.25 38.5417 346.792 39.2084C345.458 41.125 344.208 43 342.917 44.8334C342.292 45.5834 342.25 45.4584 342.875 46.1667C344.125 47.7084 345.542 49.2084 346.917 50.7084C347.417 51.1667 347.875 51.3334 347.583 52.125C347.417 52.5834 347.125 53.0417 347.083 53.5834C346.792 54.4584 344.792 54.2084 343.958 54.3334C342.333 54.4167 340.708 54.625 339.208 54.7917C338.417 54.9167 338.458 59.4167 338.333 60.0834C338.333 61 338.25 61.9584 338.042 62.875C338.042 63.4167 339.375 63.5417 339.792 63.6667C340.875 64.0417 341.917 64.3334 342.917 64.6667C343.833 64.9584 345.708 65.125 345.833 66C345.875 66.625 345.917 67.0417 346.083 67.5834C346.167 68.375 345.833 68.375 345.208 68.75C344.125 69.5417 343.125 70.2917 342 71.0834C341.75 71.2084 339.625 72.75 339.708 72.9167C340 73.625 340.292 74.375 340.583 75.0834C341.083 76.1667 341.625 77.2917 342.125 78.5417C342.25 78.8334 342.625 80.375 343 80.5C343.458 80.75 346.042 79.7917 346.542 79.6667C347.792 79.375 348.958 79.2084 350.292 78.875C350.958 78.625 350.917 78.8334 351.458 79.5C351.917 80.125 352.542 80.4167 352.292 81.1667C351.375 83.0417 350.583 84.7917 349.75 86.6667C349.458 87.4167 348.875 87.9167 349.542 88.5C351.375 89.7917 353.25 91.1667 355.042 92.4584C355.75 93 355.583 93.125 356.292 92.5C357.625 91.2917 359.083 90.0834 360.333 88.8334C360.792 88.375 361.25 87.9167 361.708 87.5C362.208 87.75 362.708 87.9167 363.042 88.125C363.875 88.4167 364.167 88.25 364.208 89.1667C364.208 89.75 364.208 90.3334 364.333 90.9584C364.5 92.6667 364.667 94.4584 364.917 96.0834C365 96.8334 365.375 96.6667 366.042 96.7084C367.208 96.75 368.333 96.9167 369.458 97.0417C370.458 97.125 371.542 97.25 372.542 97.375C373.375 97.4584 373.333 96.6667 373.625 95.875C374.208 93.9584 374.833 92.125 375.333 90.125C375.625 89.25 377.042 89.375 378 89.2084C378.667 90.2084 379.333 91.1667 380 92.0834C380.833 93.2917 381.667 94.5 382.625 95.6667C382.833 96.0834 383.583 95.4584 384 95.2917C384.792 94.9167 385.625 94.5417 386.417 94.1667C387.625 93.6667 388.708 93.125 389.792 92.625C390.417 92.4584 389.625 89.1667 389 86.875ZM368.5 79.875C362.75 78.625 357.833 74.1667 355.917 68.375C351.625 56.25 361.75 43.5834 374.25 44.875C380.667 45.5417 386.333 50.0417 388.667 56.2084C390.708 61.3334 389.958 66.6667 387.625 71.5417C387.625 71.5417 387.583 71.625 387.458 71.5834C387.417 71.75 387.417 71.7084 387.458 71.5834C387.583 71.625 387.583 71.625 387.625 71.5417C383.75 78.25 375.917 81.625 368.5 79.875Z" fill="#2CD3DB"/>
<path d="M383.75 58.2086C382.083 53.8753 378.125 50.7086 373.667 50.2503C365 49.4169 357.917 58.2086 360.917 66.6253C362.25 70.7086 365.667 73.7086 369.667 74.6669C374.833 75.9169 380.292 73.5419 382.958 68.8753C382.958 68.8753 382.958 68.8753 382.958 68.9169C383 68.9169 383.042 68.8336 383.042 68.8336C384.667 65.5003 385.125 61.7919 383.75 58.2086ZM378.875 66.4586C378.875 66.4586 378.833 66.5003 378.833 66.4586C378.833 66.4586 378.833 66.4586 378.875 66.4586C377.25 69.3336 373.917 70.7919 370.708 70.0003C368.292 69.4586 366.167 67.5836 365.333 65.0836C363.542 59.9586 367.875 54.5003 373.167 55.0836C375.875 55.3753 378.292 57.2503 379.292 59.9169C380.208 62.1253 379.917 64.3753 378.875 66.4586Z" fill="#2CD3DB"/>
<path d="M365.875 78.6248C365.75 78.4998 365.75 78.4998 365.583 78.4165C365.667 78.4165 365.792 78.4998 365.875 78.6248Z" fill="#2CD3DB"/>
<path d="M152.042 36.7082C152.042 35.4582 151.042 34.4165 149.75 34.4165H87.375C86.125 34.4165 85.0833 35.4165 85.0833 36.7082L118.542 55.2498L152.042 36.7082Z" fill="#2CD3DB"/>
<path d="M119 57.9583C118.875 58.0417 118.708 58.0833 118.583 58.0833C118.417 58.0833 118.292 58.0417 118.167 57.9583L85.125 39.625V69.4583C85.125 71.9167 87.125 73.9583 89.625 73.9583H147.583C150.042 73.9583 152.083 71.9583 152.083 69.4583V39.625L119 57.9583Z" fill="#2CD3DB"/>
<path d="M538.5 321.083C519.875 321.083 504.708 305.917 504.708 287.292C504.708 268.667 519.875 253.5 538.5 253.5C557.125 253.5 572.292 268.667 572.292 287.292C572.292 305.917 557.125 321.083 538.5 321.083ZM538.5 257.333C521.958 257.333 508.542 270.792 508.542 287.292C508.542 303.833 522 317.25 538.5 317.25C555.042 317.25 568.458 303.792 568.458 287.292C568.458 270.792 555.042 257.333 538.5 257.333Z" fill="#211D53"/>
<path d="M556.667 285.75L530.375 270.583C529.167 269.875 527.667 270.75 527.667 272.125V302.5C527.667 303.875 529.167 304.75 530.375 304.042L556.667 288.875C557.833 288.167 557.833 286.417 556.667 285.75Z" fill="#211D53"/>
<path d="M520.958 65.625H46.125V376.167H520.958V65.625Z" fill="white" stroke="#211D53" stroke-miterlimit="10"/>
<path d="M372.667 299.542C372.75 297.875 372.708 296.625 372.708 296.083C373.417 295.875 374.125 295.708 374.75 295.333C375.667 294.833 375.75 294.458 376.833 295.333C377.333 295.667 377.625 296.083 378.125 296.417C379 297.292 379.958 298.042 380.917 298.875C380.917 298.875 384.833 302.417 384.917 302.25C387.167 300.333 389.458 298.5 391.833 296.75C392.542 296.292 393.208 295.667 394 295.083C394 295.042 394.125 294.875 394.125 294.875C394.167 294.833 394.167 294.75 394.042 294.458C393.708 293.333 391.917 290.083 391.958 290.042C391.208 288.375 390.333 286.667 389.5 285.042C388.917 284 389.292 284.125 389.958 283.25C390.417 282.625 390.875 281.917 391.25 281.417C394.125 281.917 396.958 282.458 399.75 283C400.125 283.042 400.458 283.042 400.708 283.208H400.875C401.875 283.417 402.5 283.833 402.917 282.75C403.125 281.958 403.5 281.125 403.875 280.333C404.167 279.625 404.542 278.875 404.75 278.125C404.792 278.042 404.833 277.917 404.875 277.875C405.5 276.5 405.917 275.125 406.458 273.5C407.125 272.125 407.083 272.375 405.833 271.5C403.583 269.958 401.083 268.333 398.917 266.875C398.167 266.375 397.208 266.333 397.417 265.333C397.542 264.625 397.708 263.875 397.833 263.208C397.833 261.833 398.417 262.125 399.458 261.708C400.5 261.292 401.5 260.875 402.667 260.625C404.5 259.917 406.583 259.25 408.5 258.333C409.125 258.125 408.583 256.583 408.458 255.917C408.167 253.25 407.792 250.542 407.333 247.708C407.333 247.417 407.25 247.083 407.167 246.625C407.167 246.125 404.958 246.25 404.625 246.25C402.875 246.083 401.042 246 399.25 245.833C398.333 245.792 397.458 245.75 396.5 245.708C395.25 245.667 395.333 244.75 394.792 243.625C394.458 242.583 393.917 242.542 394.708 241.625C395.417 240.917 395.917 240.25 396.5 239.583C397.75 238.208 398.875 236.833 399.958 235.333C400.417 234.958 401.917 233.625 401.417 233C399.625 230.5 397.667 228 395.708 225.5C395.417 225.125 394.75 223.792 394.208 224.125C391.958 225.125 389.833 226.25 387.583 227.292C386.375 227.958 384.542 229.542 383.583 228.708C382.917 228.292 382.375 227.75 381.75 227.333C380.833 226.667 381.333 226.208 381.542 225.208C382.125 222.333 382.625 219.375 383.042 216.5C383.167 215.208 383.292 215.375 382.083 214.875C380.458 214.333 378.833 213.708 377.208 213C375.833 212.333 374.542 211.792 373.083 211.208C371.875 210.833 371.792 211.917 371.125 212.917C369.292 215.5 367.792 218.167 366.042 220.833C364.625 220.542 362.458 220.833 362.125 219.458C361.458 217.458 360.75 215.5 359.958 213.5C359.917 213.292 358.625 209.292 358.458 209.292C357.417 209.458 356.167 209.625 355.083 209.792C353.458 210.083 351.583 210.208 350.042 210.583C349.417 210.708 347.208 210.625 346.875 211.125C346.375 211.583 346.5 215.625 346.5 216.417C346.292 218.25 346.292 220.083 346.167 221.833C346.208 223.125 345.875 222.833 344.792 223.25C343.708 223.75 343.125 224.458 342.167 223.667C340.083 221.667 337.958 219.875 335.75 218.125C334.833 217.375 334.333 216.25 333.417 217.042C330.792 219.167 328.333 221.25 325.792 223.25C324.625 224.083 324.625 223.833 325.208 225.083C326.333 227.708 327.667 230.333 328.958 232.958C329.5 233.792 330.042 234.208 329.333 235.167C328.917 235.75 328.333 236.208 328.083 236.958C327.292 238.042 324.667 236.917 323.458 236.75C321.167 236.208 318.875 235.875 316.708 235.5C315.583 235.375 313.833 241.583 313.375 242.458C313.042 243.75 312.542 245 311.833 246.208C311.625 246.958 313.375 247.625 313.917 248C315.292 248.958 316.583 249.75 317.833 250.625C318.958 251.375 321.458 252.375 321.333 253.625C321.125 254.5 321 255.125 321.042 255.917C320.833 257.042 320.375 256.917 319.375 257.208C317.542 257.875 315.875 258.5 314.042 259.125C313.667 259.167 310.083 260.5 310.167 260.75C310.292 261.833 310.417 263 310.5 264.125C310.792 265.833 311.042 267.583 311.25 269.5C311.292 269.917 311.208 272.208 311.708 272.542C312.25 273.083 316.167 272.792 316.917 272.833C318.75 272.958 320.458 273.167 322.417 273.208C323.458 273.167 323.333 273.417 323.792 274.542C324.167 275.583 324.917 276.25 324.25 277.167C322.25 279.375 320.417 281.458 318.583 283.75C317.917 284.667 316.875 285.167 317.583 286.208C319.625 288.708 321.625 291.375 323.583 293.875C324.333 294.917 324.083 295 325.25 294.417C327.583 293.25 330.083 292.167 332.292 290.958C333.125 290.542 333.875 290.083 334.708 289.667C335.292 290.208 335.917 290.667 336.333 291.042C337.333 291.792 337.833 291.625 337.5 292.917C337.25 293.75 337.042 294.542 336.958 295.458C336.5 297.875 336.042 300.417 335.708 302.792C335.5 303.875 336.125 303.792 337 304.125C338.583 304.667 340.083 305.375 341.542 305.958C342.917 306.458 344.333 307.042 345.667 307.667C346.792 308.125 347.042 307 347.75 306.042C349.292 303.583 350.875 301.333 352.375 298.792C353.125 297.708 355.042 298.458 356.417 298.583C356.917 300.208 357.458 301.833 358.042 303.375C358.708 305.375 359.375 307.417 360.208 309.333C360.333 310 361.625 309.458 362.292 309.333C363.542 309.167 364.833 308.958 366.083 308.75C367.958 308.542 369.667 308.208 371.333 307.958C372.417 307.792 372.667 303 372.667 299.542ZM347.167 281.75C339.708 277.708 334.708 269.583 334.375 260.875C333.333 242.458 352.292 229 369.042 235.75C377.625 239.208 383.667 247.708 384.417 257.167C385.167 265.042 382 272.125 376.833 277.917C376.833 277.917 376.75 278.042 376.583 277.875C376.458 278.083 376.5 278.042 376.583 277.875C376.75 278 376.75 278 376.833 277.917C368.875 285.542 356.708 287.125 347.167 281.75Z" fill="white"/>
<path d="M376.875 257.917C376.292 251.292 372.125 245.333 366.125 242.917C354.5 238.292 341.208 247.625 342 260.458C342.208 266.625 345.708 272.167 350.833 275.042C357.5 278.792 365.958 277.708 371.458 272.333C371.458 272.333 371.458 272.333 371.417 272.375C371.458 272.375 371.542 272.333 371.542 272.333C375.208 268.292 377.375 263.375 376.875 257.917ZM366.875 267.333C366.875 267.333 366.833 267.375 366.792 267.333C366.833 267.375 366.833 267.375 366.833 267.375C363.458 270.667 358.292 271.333 354.208 269C351.083 267.25 348.875 263.833 348.75 260.083C348.333 252.292 356.458 246.5 363.583 249.417C367.25 250.875 369.792 254.458 370.125 258.5C370.417 261.875 369.125 264.917 366.875 267.333Z" fill="white"/>
<path d="M344.083 278.917C343.958 278.708 343.958 278.708 343.792 278.5C343.875 278.542 344 278.708 344.083 278.917Z" fill="#F7F4F4"/>
<path d="M442.583 245.125C442.625 244.042 442.625 243.25 442.625 242.917C443.083 242.792 443.542 242.667 443.917 242.417C444.5 242.083 444.583 241.833 445.25 242.417C445.583 242.625 445.75 242.917 446.083 243.125C446.667 243.667 447.292 244.167 447.875 244.708C447.875 244.708 450.375 247 450.417 246.875C451.875 245.667 453.333 244.458 454.833 243.333C455.292 243.042 455.708 242.625 456.25 242.25C456.25 242.208 456.333 242.125 456.333 242.125C456.333 242.083 456.375 242.042 456.292 241.875C456.083 241.167 454.917 239.042 454.958 239.042C454.458 237.958 453.917 236.875 453.375 235.833C453 235.167 453.25 235.25 453.667 234.667C453.958 234.25 454.25 233.833 454.5 233.5C456.333 233.833 458.167 234.167 459.958 234.5C460.167 234.542 460.417 234.542 460.583 234.625H460.708C461.375 234.75 461.75 235.042 462.042 234.333C462.167 233.833 462.417 233.292 462.667 232.792C462.875 232.333 463.083 231.833 463.208 231.375C463.25 231.333 463.25 231.25 463.292 231.208C463.667 230.333 463.958 229.458 464.292 228.417C464.708 227.542 464.708 227.667 463.875 227.125C462.417 226.125 460.833 225.083 459.458 224.167C458.958 223.833 458.375 223.833 458.5 223.167C458.583 222.708 458.708 222.208 458.75 221.792C458.75 220.917 459.125 221.125 459.792 220.833C460.458 220.583 461.083 220.292 461.833 220.125C463 219.667 464.333 219.25 465.583 218.667C466 218.542 465.625 217.542 465.542 217.125C465.333 215.417 465.125 213.667 464.833 211.875C464.833 211.708 464.792 211.458 464.708 211.208C464.708 210.875 463.292 210.958 463.083 210.958C461.958 210.833 460.792 210.792 459.625 210.708C459.042 210.667 458.458 210.667 457.833 210.625C457 210.625 457.083 210 456.75 209.292C456.542 208.625 456.167 208.583 456.708 208C457.167 207.542 457.458 207.125 457.875 206.667C458.667 205.792 459.417 204.917 460.083 203.958C460.375 203.708 461.333 202.875 461 202.458C459.833 200.833 458.583 199.25 457.333 197.667C457.167 197.417 456.708 196.583 456.375 196.792C454.958 197.417 453.583 198.167 452.125 198.833C451.333 199.25 450.167 200.292 449.583 199.75C449.167 199.5 448.792 199.125 448.417 198.875C447.833 198.458 448.167 198.167 448.292 197.5C448.667 195.625 448.958 193.75 449.25 191.917C449.333 191.083 449.417 191.208 448.625 190.875C447.583 190.542 446.542 190.125 445.5 189.667C444.625 189.25 443.792 188.875 442.833 188.5C442.042 188.25 442 188.958 441.583 189.583C440.417 191.25 439.417 192.958 438.333 194.667C437.417 194.458 436.042 194.667 435.833 193.792C435.417 192.5 434.958 191.25 434.417 189.958C434.375 189.833 433.542 187.25 433.458 187.25C432.792 187.375 432 187.458 431.292 187.542C430.25 187.708 429.042 187.833 428.042 188.042C427.667 188.125 426.208 188.083 426 188.375C425.667 188.667 425.75 191.25 425.75 191.792C425.625 192.958 425.625 194.125 425.542 195.25C425.583 196.083 425.333 195.917 424.667 196.167C423.958 196.458 423.583 196.958 423 196.417C421.667 195.125 420.292 193.958 418.875 192.875C418.292 192.417 417.958 191.667 417.375 192.167C415.667 193.542 414.125 194.875 412.5 196.167C411.75 196.708 411.75 196.542 412.125 197.333C412.833 199 413.708 200.708 414.542 202.375C414.875 202.917 415.25 203.167 414.792 203.792C414.542 204.167 414.125 204.458 414 204.958C413.5 205.667 411.792 204.958 411.042 204.833C409.583 204.5 408.083 204.25 406.708 204.042C406 203.958 404.875 207.958 404.583 208.5C404.375 209.333 404.042 210.125 403.625 210.917C403.5 211.375 404.625 211.833 404.958 212.083C405.833 212.708 406.667 213.208 407.5 213.75C408.25 214.25 409.833 214.875 409.75 215.667C409.625 216.208 409.542 216.625 409.542 217.167C409.417 217.875 409.083 217.792 408.458 218C407.292 218.417 406.208 218.833 405.042 219.25C404.792 219.292 402.5 220.125 402.542 220.292C402.625 221 402.708 221.75 402.75 222.458C402.917 223.542 403.125 224.667 403.208 225.917C403.25 226.167 403.167 227.667 403.5 227.875C403.875 228.208 406.375 228.042 406.833 228.042C408 228.125 409.125 228.25 410.375 228.292C411.042 228.25 410.958 228.417 411.25 229.167C411.5 229.833 411.958 230.25 411.542 230.833C410.25 232.25 409.083 233.583 407.917 235.042C407.458 235.625 406.833 235.958 407.292 236.625C408.583 238.25 409.875 239.958 411.167 241.542C411.667 242.208 411.5 242.25 412.25 241.917C413.75 241.167 415.333 240.5 416.75 239.708C417.292 239.417 417.792 239.125 418.292 238.875C418.667 239.25 419.042 239.5 419.333 239.75C420 240.25 420.292 240.125 420.083 240.958C419.917 241.5 419.792 242 419.75 242.583C419.458 244.125 419.167 245.75 418.958 247.292C418.833 248 419.208 247.917 419.792 248.125C420.792 248.458 421.792 248.917 422.708 249.292C423.583 249.625 424.5 250 425.333 250.375C426.042 250.667 426.208 249.958 426.667 249.333C427.667 247.75 428.667 246.292 429.625 244.667C430.083 244 431.333 244.458 432.208 244.542C432.542 245.583 432.875 246.625 433.25 247.625C433.667 248.917 434.083 250.208 434.667 251.458C434.75 251.875 435.583 251.542 436 251.458C436.792 251.333 437.625 251.208 438.417 251.083C439.625 250.958 440.708 250.75 441.792 250.583C442.417 250.417 442.583 247.333 442.583 245.125ZM426.208 233.667C421.417 231.083 418.208 225.875 418 220.25C417.333 208.417 429.5 199.792 440.25 204.125C445.75 206.333 449.625 211.792 450.125 217.875C450.625 222.917 448.583 227.5 445.25 231.208C445.25 231.208 445.208 231.292 445.083 231.208C445 231.333 445.042 231.333 445.083 231.208C445.167 231.292 445.167 231.292 445.25 231.208C440.167 236.125 432.333 237.125 426.208 233.667Z" fill="#F7F4F4"/>
<path d="M445.292 218.375C444.917 214.125 442.25 210.292 438.375 208.75C430.917 205.75 422.375 211.792 422.875 220C423 223.958 425.25 227.5 428.542 229.375C432.833 231.792 438.25 231.083 441.792 227.625C441.833 227.625 441.875 227.583 441.875 227.583C444.208 225.042 445.583 221.917 445.292 218.375ZM438.833 224.417H438.792C438.833 224.458 438.833 224.458 438.833 224.417C436.667 226.542 433.333 226.958 430.708 225.458C428.708 224.333 427.292 222.125 427.208 219.75C426.958 214.75 432.167 211.042 436.708 212.917C439.042 213.875 440.708 216.167 440.917 218.75C441.125 220.917 440.292 222.875 438.833 224.417Z" fill="#F7F4F4"/>
<path d="M424.25 231.875C424.167 231.75 424.167 231.75 424.042 231.625C424.083 231.625 424.167 231.75 424.25 231.875Z" fill="#F7F4F4"/>
<path d="M520.958 65.625H376.833V376.167H520.958V65.625Z" fill="#2CD3DB"/>
<path d="M520.958 65.625H46.125V101.375H520.958V65.625Z" fill="#211D53"/>
<path d="M485.083 91.3333H469.375V75.625H485.083V91.3333ZM470.708 90.0417H483.792V76.9583H470.708V90.0417Z" fill="#E6E3E3"/>
<path d="M496.465 75.8057L495.523 76.7485L509.9 91.1262L510.843 90.1834L496.465 75.8057Z" fill="#E6E3E3"/>
<path d="M509.93 75.8347L495.552 90.2124L496.495 91.1552L510.873 76.7775L509.93 75.8347Z" fill="#E6E3E3"/>
<path d="M457.125 83.1665H442.75V84.4998H457.125V83.1665Z" fill="#E6E3E3"/>
<path d="M188.313 105.611L68.4291 114.486L75.3234 207.609L195.207 198.734L188.313 105.611Z" fill="white" stroke="#211D53" stroke-miterlimit="10"/>
<path d="M157.25 195L186.625 192.833L161.458 160.375C160.333 158.958 158.125 159.083 157.25 160.708L147.708 177.708C146.958 179.083 145.042 179.208 144.083 177.958L118.5 144.958C117.375 143.542 115.167 143.667 114.292 145.292L83.2917 200.5L137.167 196.5L154.667 195.208L157.25 195Z" fill="#5633EF" stroke="#5633EF" stroke-miterlimit="10"/>
<path d="M145.163 148.376C150.497 146.1 152.976 139.932 150.701 134.598C148.425 129.264 142.257 126.784 136.923 129.06C131.589 131.335 129.109 137.504 131.385 142.838C133.66 148.172 139.829 150.651 145.163 148.376Z" fill="#211D53"/>
<path d="M477.917 331.875L156.083 359.542C138.833 361.042 123.667 348.25 122.167 331C120.667 313.75 133.458 298.583 150.708 297.083L472.542 269.417C489.792 267.917 504.958 280.708 506.458 297.958C507.958 315.208 495.167 330.375 477.917 331.875Z" fill="#5633EF" stroke="#5633EF" stroke-miterlimit="10"/>
<path d="M155.542 353C141.917 354.167 129.917 344.042 128.75 330.458C127.583 316.833 137.708 304.833 151.292 303.667L473.125 276C486.75 274.833 498.75 284.958 499.917 298.542C501.083 312.167 490.958 324.167 477.375 325.333L155.542 353Z" fill="white"/>
<path d="M175.417 299.792L150.75 301.917C136.167 303.167 125.333 316.042 126.583 330.625C127.833 345.208 140.708 356.042 155.292 354.792L179.958 352.667L175.417 299.792Z" fill="#5633EF" stroke="#5633EF" stroke-miterlimit="10"/>
<path d="M151.042 340.167C148 340.167 145.083 339.125 142.708 337.125C140.042 334.875 138.417 331.75 138.125 328.333C137.833 324.875 138.875 321.542 141.125 318.875C143.375 316.208 146.5 314.583 149.917 314.292C153.375 314 156.708 315.042 159.375 317.292C162.042 319.542 163.667 322.667 163.958 326.083C164.25 329.542 163.208 332.875 160.958 335.542C158.708 338.208 155.583 339.833 152.167 340.125C151.792 340.167 151.417 340.167 151.042 340.167ZM151.083 316.542C150.792 316.542 150.458 316.542 150.167 316.583C147.333 316.833 144.75 318.167 142.917 320.333C141.083 322.5 140.208 325.292 140.458 328.125C140.708 330.958 142.042 333.542 144.208 335.375C146.375 337.208 149.167 338.083 152 337.833C154.833 337.583 157.417 336.25 159.25 334.083C161.083 331.917 161.958 329.125 161.708 326.292C161.458 323.458 160.125 320.875 157.958 319.042C156 317.417 153.583 316.542 151.083 316.542Z" fill="white"/>
<path d="M169.417 342.333C168.792 343.083 167.708 343.167 166.958 342.542L159.125 335.958L161.375 333.292L169.208 339.875C169.958 340.5 170.042 341.583 169.417 342.333Z" fill="white"/>
<path d="M190.667 304.875L194.167 345.792L190.667 304.875Z" fill="#FFA991"/>
<path d="M191.357 304.802L190.029 304.916L193.549 345.848L194.877 345.733L191.357 304.802Z" fill="#211D53"/>
<path d="M464.875 224.542L407.042 221C394.25 220.208 384.542 209.208 385.292 196.458L385.667 190.375C386.458 177.583 397.458 167.875 410.208 168.625L468.042 172.167C480.833 172.958 490.542 183.958 489.792 196.708L489.417 202.792C488.667 215.625 477.667 225.333 464.875 224.542Z" fill="white"/>
<path d="M446.125 214.708L469.708 236.458L468.5 216.5L446.125 214.708Z" fill="white"/>
<path d="M238.458 255.167L237.5 271C237.5 271.208 237.708 271.333 237.875 271.292L250.5 266.208C250.667 266.125 250.75 265.875 250.583 265.75L238.917 255C238.75 254.833 238.458 254.958 238.458 255.167Z" fill="#211D53"/>
<path d="M245.429 265.349L240.984 267.139L244.954 276.995L249.398 275.205L245.429 265.349Z" fill="#211D53"/>
<path d="M407.917 137.25L407.75 136.417C407.542 134.875 407.667 133.542 408.167 132.417C408.5 131.625 409.333 130.542 410.583 129.083C411.417 128.125 411.958 127.333 412.208 126.792C412.417 126.208 412.5 125.625 412.417 125.042C412.25 123.875 411.667 122.958 410.625 122.25C409.583 121.542 408.5 121.292 407.292 121.458C406.083 121.625 405.083 122.125 404.333 123C403.583 123.875 403.208 125.125 403.167 126.792L400.167 126.875C400.167 124.583 400.75 122.792 401.958 121.5C403.167 120.208 404.833 119.417 406.958 119.125C409.125 118.833 410.958 119.167 412.583 120.167C414.167 121.167 415.125 122.583 415.375 124.458C415.5 125.458 415.417 126.458 415.042 127.333C414.667 128.25 413.875 129.417 412.625 130.875C411.583 132.083 410.917 133 410.708 133.667C410.5 134.333 410.458 135.375 410.625 136.917L407.917 137.25ZM408.625 142.708L408.208 139.708L411.25 139.292L411.667 142.292L408.625 142.708Z" fill="#F7F4F4"/>
<path d="M408.792 152.875C398.458 152.875 389.458 145.25 388 134.75C387.25 129.208 388.667 123.667 392.083 119.208C395.458 114.75 400.417 111.875 405.958 111.083C411.5 110.333 417.042 111.75 421.5 115.167C425.958 118.542 428.833 123.5 429.625 129.042C430.375 134.583 428.958 140.125 425.542 144.583C422.167 149.042 417.208 151.917 411.667 152.708C410.708 152.792 409.75 152.875 408.792 152.875ZM408.833 113.375C408 113.375 407.125 113.417 406.292 113.542C401.417 114.208 397.083 116.75 394.083 120.667C391.083 124.583 389.833 129.458 390.5 134.333C391.875 144.417 401.208 151.5 411.333 150.125C421.417 148.75 428.5 139.417 427.125 129.292C426.458 124.417 423.917 120.083 420 117.083C416.708 114.667 412.833 113.375 408.833 113.375Z" fill="#F7F4F4"/>
<path d="M344.917 137.458H242.583V198.292H344.917V137.458Z" fill="#F7F4F4"/>
<path d="M351.833 134.083H235.667V200.667H351.833V134.083Z" fill="white"/>
<path d="M331.375 142.25H256.125C252.708 142.25 249.958 145 249.958 148.417C249.958 151.833 252.708 154.583 256.125 154.583H331.375C334.792 154.583 337.542 151.833 337.542 148.417C337.542 145 334.75 142.25 331.375 142.25Z" fill="#211D53"/>
<path d="M329.125 147.708H257.375V149.083H329.125V147.708Z" fill="#F7F4F4"/>
<path d="M302.042 153.375C304.78 153.375 307 151.155 307 148.417C307 145.678 304.78 143.458 302.042 143.458C299.303 143.458 297.083 145.678 297.083 148.417C297.083 151.155 299.303 153.375 302.042 153.375Z" fill="#5633EF" stroke="#5633EF" stroke-miterlimit="10"/>
<path d="M330.875 160.792H255.625C252.208 160.792 249.458 163.542 249.458 166.958C249.458 170.375 252.208 173.125 255.625 173.125H330.875C334.292 173.125 337.042 170.375 337.042 166.958C337.042 163.542 334.25 160.792 330.875 160.792Z" fill="#211D53"/>
<path d="M328.625 166.25H256.875V167.625H328.625V166.25Z" fill="#F7F4F4"/>
<path d="M261.292 171.917C264.03 171.917 266.25 169.697 266.25 166.958C266.25 164.22 264.03 162 261.292 162C258.553 162 256.333 164.22 256.333 166.958C256.333 169.697 258.553 171.917 261.292 171.917Z" fill="#5633EF" stroke="#5633EF" stroke-miterlimit="10"/>
<path d="M330.375 179.292H255.125C251.708 179.292 248.958 182.042 248.958 185.458C248.958 188.875 251.708 191.625 255.125 191.625H330.375C333.792 191.625 336.542 188.875 336.542 185.458C336.542 182.083 333.792 179.292 330.375 179.292Z" fill="#211D53"/>
<path d="M328.125 184.792H256.375V186.167H328.125V184.792Z" fill="#F7F4F4"/>
<path d="M271.208 190.417C273.947 190.417 276.167 188.197 276.167 185.458C276.167 182.72 273.947 180.5 271.208 180.5C268.47 180.5 266.25 182.72 266.25 185.458C266.25 188.197 268.47 190.417 271.208 190.417Z" fill="#5633EF" stroke="#5633EF" stroke-miterlimit="10"/>
<path d="M118.917 225.833L122.708 225.958L131.875 253.458C132.333 254.833 132.792 255.75 133.292 256.208C133.792 256.667 134.458 256.917 135.292 256.958H135.792L135.708 258.917L124.167 258.5L124.25 256.542C124.625 256.542 125 256.5 125.333 256.542C126.083 256.583 126.583 256.5 126.792 256.375C127.25 256.083 127.5 255.75 127.5 255.292C127.5 254.958 127.333 254.167 126.917 252.875L125 246.5L113.25 246.083L110.458 253.042C110.167 253.75 110 254.25 110 254.542C110 254.833 110.042 255.125 110.208 255.375C110.375 255.625 110.583 255.792 110.833 255.917C111.125 256.042 111.542 256.125 112.167 256.125C112.583 256.125 112.917 256.167 113.208 256.167L113.125 258.125L103.417 257.792L103.5 255.833C104.417 255.875 105.042 255.792 105.458 255.625C105.875 255.458 106.208 255.167 106.542 254.792C106.833 254.417 107.25 253.583 107.792 252.333L118.917 225.833ZM114.167 243.833L124.208 244.167L119.708 230.042L114.167 243.833Z" fill="white"/>
<path d="M154.833 246.083L154.917 243.542C154.958 241.833 154.542 240.583 153.583 239.792C152.625 239.042 151.292 238.625 149.542 238.542C148.667 238.5 147.917 238.583 147.25 238.792C146.583 238.958 146.042 239.25 145.625 239.583C145.208 239.917 144.917 240.333 144.708 240.792C144.625 240.958 144.417 241.625 144.083 242.75C143.667 244.125 142.917 244.792 141.833 244.75C141.208 244.708 140.708 244.5 140.333 244.083C139.958 243.667 139.792 243.083 139.833 242.417C139.875 241.375 140.292 240.417 141.083 239.458C141.875 238.5 143.083 237.708 144.667 237.125C146.25 236.542 148.083 236.292 150.208 236.333C152.208 236.417 153.875 236.75 155.292 237.417C156.667 238.083 157.708 239 158.333 240.167C158.792 240.958 158.958 242.417 158.875 244.5L158.583 253.458C158.542 254.75 158.542 255.542 158.625 255.958C158.792 256.625 159.042 257.125 159.458 257.5C159.875 257.833 160.417 258.042 161.125 258.042C161.833 258.083 162.708 257.917 163.708 257.625L163.625 259.667C162.333 260 161.167 260.125 160.125 260.125C159.042 260.083 158.083 259.917 157.375 259.583C156.625 259.25 156.042 258.792 155.583 258.167C155.125 257.542 154.833 256.833 154.708 256C152.792 257.375 151.083 258.375 149.542 258.917C148 259.458 146.5 259.708 144.958 259.625C142.833 259.542 141.083 258.917 139.792 257.708C138.5 256.5 137.875 255.125 137.917 253.542C137.958 252.583 138.208 251.708 138.75 250.875C139.25 250.042 140.042 249.292 141.083 248.708C142.125 248.083 143.708 247.583 145.875 247.167C148 246.708 151 246.375 154.833 246.083ZM154.75 248.125C151.125 248.542 148.875 248.833 148.042 249C146.333 249.333 145.125 249.708 144.375 250.167C143.625 250.625 143.083 251.083 142.75 251.625C142.417 252.167 142.25 252.708 142.208 253.333C142.167 253.958 142.333 254.542 142.667 255.125C143 255.708 143.458 256.167 144.083 256.5C144.708 256.833 145.375 257.042 146.083 257.042C147.083 257.083 148.25 256.875 149.542 256.458C150.833 256.042 152.5 255.125 154.542 253.792L154.75 248.125Z" fill="white"/>
<path d="M572.292 263.125C555.208 265.416 527.042 262.416 515.292 253.291C502.583 243.416 491.208 232.25 476.083 226.583C474.917 226.166 473.542 225.5 473.333 224.25C473.25 223.625 473.5 222.958 473.833 222.458C475.042 220.708 477.292 220.125 479.375 220.125C481.458 220.125 483.583 220.583 485.667 220.416C485.458 220.416 483.208 217.083 482.875 216.708C481.75 215.458 480.5 214.416 479.208 213.375C478.208 212.541 477.542 211.625 476.625 210.75C475.417 209.666 473.833 209.083 472.542 208.125C467.375 204.416 462.25 200.625 457.208 196.708C455.708 195.541 454.167 194.291 453.417 192.541C452.667 190.791 453.083 188.375 454.708 187.666C455.875 187.166 457.25 187.666 458.5 188.166C462.083 189.625 465.875 191.375 469.458 192.833C465.042 190.958 460.792 188.583 456.833 185.791C455.708 185 454.625 184.166 453.917 183C451.958 179.708 454.875 177.375 457.833 177.5C459.458 177.583 461.042 178.208 462.583 178.875C465.875 180.291 488.75 189.708 488.75 189.708C488.75 189.708 478.875 184.333 474.917 181.833C472.5 180.291 465.083 177.25 465.625 173.5C465.875 171.833 467.625 170.791 469.25 170.791C470.875 170.791 472.458 171.541 473.958 172.333C479.667 175.916 486.333 178.416 492.375 181.333C496.458 183.291 500.542 185.291 504.625 187.291C510 189.916 514.417 194.166 519.792 196.625C519.917 196.666 519.667 195.375 519.625 195.25C519.292 194.458 518.125 193.541 517.542 192.916C516.167 191.375 514.792 189.875 513.417 188.333C510.583 185.166 507.708 182.041 504.875 178.875C502.083 175.791 499.167 172.458 498.25 168.375C497.833 166.5 498.208 164 499.958 163.541C502.25 162.958 504.458 166.458 505.792 168.041C508.208 170.958 510.75 173.75 513.333 176.541C515.458 178.791 517.458 181.541 519.792 183.541C525.417 188.333 531.333 192.5 536.583 197.75C538.208 199.375 539.75 201.083 541.542 202.5C544.792 205.125 548.125 207.333 551.083 210.375C554.708 214.125 557.792 218.541 562.083 221.5C567.75 225.416 568.042 225.541 574.708 226.25" fill="white"/>
<path d="M572.292 263.125C555.208 265.416 527.042 262.416 515.292 253.291C502.583 243.416 491.208 232.25 476.083 226.583C474.917 226.166 473.542 225.5 473.333 224.25C473.25 223.625 473.5 222.958 473.833 222.458C475.042 220.708 477.292 220.125 479.375 220.125C481.458 220.125 483.583 220.583 485.667 220.416C485.458 220.416 483.208 217.083 482.875 216.708C481.75 215.458 480.5 214.416 479.208 213.375C478.208 212.541 477.542 211.625 476.625 210.75C475.417 209.666 473.833 209.083 472.542 208.125C467.375 204.416 462.25 200.625 457.208 196.708C455.708 195.541 454.167 194.291 453.417 192.541C452.667 190.791 453.083 188.375 454.708 187.666C455.875 187.166 457.25 187.666 458.5 188.166C462.083 189.625 465.875 191.375 469.458 192.833C465.042 190.958 460.792 188.583 456.833 185.791C455.708 185 454.625 184.166 453.917 183C451.958 179.708 454.875 177.375 457.833 177.5C459.458 177.583 461.042 178.208 462.583 178.875C465.875 180.291 488.75 189.708 488.75 189.708C488.75 189.708 478.875 184.333 474.917 181.833C472.5 180.291 465.083 177.25 465.625 173.5C465.875 171.833 467.625 170.791 469.25 170.791C470.875 170.791 472.458 171.541 473.958 172.333C479.667 175.916 486.333 178.416 492.375 181.333C496.458 183.291 500.542 185.291 504.625 187.291C510 189.916 514.417 194.166 519.792 196.625C519.917 196.666 519.667 195.375 519.625 195.25C519.292 194.458 518.125 193.541 517.542 192.916C516.167 191.375 514.792 189.875 513.417 188.333C510.583 185.166 507.708 182.041 504.875 178.875C502.083 175.791 499.167 172.458 498.25 168.375C497.833 166.5 498.208 164 499.958 163.541C502.25 162.958 504.458 166.458 505.792 168.041C508.208 170.958 510.75 173.75 513.333 176.541C515.458 178.791 517.458 181.541 519.792 183.541C525.417 188.333 531.333 192.5 536.583 197.75C538.208 199.375 539.75 201.083 541.542 202.5C544.792 205.125 548.125 207.333 551.083 210.375C554.708 214.125 557.792 218.541 562.083 221.5C567.75 225.416 568.042 225.541 574.708 226.25" stroke="#5633EF" stroke-miterlimit="10"/>
<path d="M506.333 168.833C505.917 169.667 504.917 170.083 504 170C503.083 169.916 502.208 169.333 501.542 168.666C499.75 166.791 499.292 163.5 500.917 161.542C501.042 161.667 501.208 161.75 501.333 161.875" fill="#5633EF"/>
<path d="M473.917 178.166C473.667 178.291 473.417 178.291 473.125 178.291C471.208 178.291 469.25 177.75 467.542 176.791C466.667 176.291 465.792 175.625 465.333 174.708C464.833 173.75 464.875 172.541 465.375 171.625C465.875 170.708 466.875 170.083 467.875 170.041C468.583 170 469.25 170.208 469.917 170.458C471.458 171.041 474.125 172.083 475.042 173.583C475.875 174.833 475.333 177.541 473.917 178.166Z" fill="#5633EF"/>
<path d="M459.917 184.208C458.25 184.541 456.583 183.791 455 183.125C453.875 182.666 452.75 182.208 451.875 181.333C451.042 180.458 450.583 179.041 451.167 178C451.875 176.791 453.583 176.75 454.958 176.958C457.042 177.291 460.75 178.041 462.292 179.708C463.958 181.583 461.833 183.833 459.917 184.208Z" fill="#5633EF"/>
<path d="M461.625 192.792C460.958 193.25 460.125 193.417 459.333 193.5C457 193.625 454.708 192.667 452.708 191.417C451.833 190.875 450.917 190 451.125 189C451.292 188.292 451.958 187.875 452.625 187.708C453.875 187.375 455.25 187.667 456.5 188C458.25 188.5 465.292 190.333 461.625 192.792Z" fill="#5633EF"/>
<path d="M479.375 228.125C477.292 227.625 475.25 227.083 473.208 226.5C472.792 226.375 472.375 226.25 472.083 226C471.75 225.75 471.5 225.292 471.625 224.875C471.75 224.375 472.292 224.125 472.792 223.958C474.708 223.417 476.75 223.417 478.667 223.958C479.667 224.25 480.625 224.708 481.375 225.458C482.125 226.208 482.583 227.292 482.417 228.333C482.375 228.542 482.208 228.792 482.042 228.667C481.625 229.292 479.833 228.708 479.375 228.125Z" fill="#5633EF"/>
<path d="M5.45837 209.292C14.8334 208 18.3334 205.5 33.25 208.25C40.0834 209.5 46.5 213.292 53.3334 213.458C60.75 213.625 68.0834 211.625 75.4167 210.792C85.875 209.625 99.4584 208.125 109.833 210.292C110.667 210.458 111.583 210.667 112.375 210.333C114.125 209.625 114.125 207.042 113.208 205.375C111.708 202.583 108.792 200.833 105.917 199.542C102.833 198.167 99.625 197.167 96.25 196.875C90.625 196.375 84.5834 197.833 79.5417 195.25C77.9584 194.417 80 193.042 81.1667 191.667C90.9584 180.375 103.25 171.292 116.875 165.208C123.625 162.208 131 159.75 136.042 154.333C136.667 153.667 137.25 152.917 137.333 152C137.458 150.667 136.292 149.458 135 149.042C133.708 148.625 132.292 148.833 130.958 149.083C120.75 150.875 110.792 154.292 101.625 159.125C96.875 161.625 92.2084 164.542 86.9584 165.542C86.6667 165.792 89.125 164.708 89.375 164.417C99.9584 152.25 115.625 145.125 125.333 132.292C126.458 130.792 127.542 129.125 127.75 127.25C127.958 125.375 127.042 123.25 125.25 122.625C123.542 122.042 121.75 122.958 120.292 124C116.25 126.833 112.917 130.5 109.167 133.708C104.458 137.792 98.25 139.625 93.2084 143.208C88.125 146.792 84.0834 151.625 78.125 153.917C78.25 151.583 81.8334 149.083 83.5834 147.542C90.0417 141.792 96.25 135.708 102.083 129.333C105.25 125.875 108.542 121.458 107.208 117C107 116.292 106.667 115.583 106.042 115.167C103.708 113.542 101.25 117.833 99.9584 119.25C92.625 127.125 83.125 132 75.7917 139.875C72.0417 143.875 68.5417 148.5 63.375 150.375C66.2917 141.625 68.75 132.75 70.7917 123.75C71.375 121.25 71.2917 117.667 68.7917 117.125C66.3334 116.583 64.75 119.542 63.9584 121.917C60.4584 132.292 55.2084 142.042 48.5417 150.667C43.75 156.875 34.625 169.167 26.5 171.208C25.25 171.542 8.12504 169.625 6.83337 169.458" fill="white"/>
<path d="M5.45837 209.292C14.8334 208 18.3334 205.5 33.25 208.25C40.0834 209.5 46.5 213.292 53.3334 213.458C60.75 213.625 68.0834 211.625 75.4167 210.792C85.875 209.625 99.4584 208.125 109.833 210.292C110.667 210.458 111.583 210.667 112.375 210.333C114.125 209.625 114.125 207.042 113.208 205.375C111.708 202.583 108.792 200.833 105.917 199.542C102.833 198.167 99.625 197.167 96.25 196.875C90.625 196.375 84.5834 197.833 79.5417 195.25C77.9584 194.417 80 193.042 81.1667 191.667C90.9584 180.375 103.25 171.292 116.875 165.208C123.625 162.208 131 159.75 136.042 154.333C136.667 153.667 137.25 152.917 137.333 152C137.458 150.667 136.292 149.458 135 149.042C133.708 148.625 132.292 148.833 130.958 149.083C120.75 150.875 110.792 154.292 101.625 159.125C96.875 161.625 92.2084 164.542 86.9584 165.542C86.6667 165.792 89.125 164.708 89.375 164.417C99.9584 152.25 115.625 145.125 125.333 132.292C126.458 130.792 127.542 129.125 127.75 127.25C127.958 125.375 127.042 123.25 125.25 122.625C123.542 122.042 121.75 122.958 120.292 124C116.25 126.833 112.917 130.5 109.167 133.708C104.458 137.792 98.25 139.625 93.2084 143.208C88.125 146.792 84.0834 151.625 78.125 153.917C78.25 151.583 81.8334 149.083 83.5834 147.542C90.0417 141.792 96.25 135.708 102.083 129.333C105.25 125.875 108.542 121.458 107.208 117C107 116.292 106.667 115.583 106.042 115.167C103.708 113.542 101.25 117.833 99.9584 119.25C92.625 127.125 83.125 132 75.7917 139.875C72.0417 143.875 68.5417 148.5 63.375 150.375C66.2917 141.625 68.75 132.75 70.7917 123.75C71.375 121.25 71.2917 117.667 68.7917 117.125C66.3334 116.583 64.75 119.542 63.9584 121.917C60.4584 132.292 55.2084 142.042 48.5417 150.667C43.75 156.875 34.625 169.167 26.5 171.208C25.25 171.542 8.12504 169.625 6.83337 169.458" stroke="#5633EF" stroke-miterlimit="10"/>
<path d="M114.375 208.75C113 207.042 110.792 206.208 108.625 206C107.458 205.875 106.167 206 105.25 206.75C104.333 207.5 104.083 209.125 105.042 209.833C105.417 210.125 105.875 210.208 106.292 210.292C108.5 210.75 110.708 211.25 112.958 211.708C113.792 211.875 114.375 211.958 115.208 211.708C115.875 211.25 115.875 210.208 115.458 209.542C115 208.917 114.875 209.375 114.375 208.75Z" fill="white" stroke="#5633EF" stroke-miterlimit="10"/>
<path d="M129.5 149.542C128.75 149.75 127.958 150.042 127.583 150.708C127.167 151.542 127.667 152.542 128.167 153.375C128.375 153.75 128.625 154.125 128.958 154.417C129.875 155.208 131.25 155.083 132.417 154.833C133.958 154.542 135.458 154.167 136.917 153.542C137.417 153.333 137.958 153.042 138.333 152.625C139.167 151.708 139.042 150.208 138.292 149.208C136.083 146.458 132.167 148.75 129.5 149.542Z" fill="white" stroke="#5633EF" stroke-miterlimit="10"/>
<path d="M119.417 125.917C118.75 126.833 118.292 127.792 118.375 128.708C118.458 129.458 118.917 130.167 119.458 130.708C119.833 131.042 120.25 131.375 120.708 131.542C121.625 131.792 122.625 131.375 123.458 130.875C125.583 129.625 127.708 127.833 129.292 125.958C129.458 125.75 129.667 125.5 129.708 125.208C129.75 125 129.667 124.792 129.625 124.583C129.167 123.167 127.125 120.875 125.458 121C124.667 121.042 124 121.625 123.417 122.125C122.375 123 120.583 124.375 119.417 125.917Z" fill="white" stroke="#5633EF" stroke-miterlimit="10"/>
<path d="M100.292 119C100.208 119.125 100.125 119.25 100 119.375C99.7084 119.792 99.375 120.25 99.2084 120.75C98.75 122.208 100.125 123.958 101.708 123.667C102.125 123.583 102.5 123.333 102.833 123.042C104.375 121.75 105.542 120.125 106.583 118.417C106.958 117.833 107.333 117.167 107.292 116.458C107.292 115.875 107 115.375 106.708 114.875C105.458 112.958 104.667 113.667 103.458 115.042C102.375 116.292 101.292 117.625 100.292 119Z" fill="white" stroke="#5633EF" stroke-miterlimit="10"/>
<path d="M64.4167 121.208C64.375 121.458 64.3334 121.75 64.3334 122C64.2917 122.292 64.2917 122.625 64.3334 122.917C64.5417 124.083 66.375 125.167 67.375 124.417C68.2917 123.75 68.625 122.583 68.9584 121.5C69.3334 120.208 70.25 118.417 70.25 117.083C70.25 115.917 68.2084 115.542 67.125 115.083C66.9584 115 66.75 114.917 66.5834 115C66.375 115.083 66.25 115.292 66.1667 115.5C65.25 117.333 64.7084 119.25 64.4167 121.208Z" fill="white" stroke="#5633EF" stroke-miterlimit="10"/>
<path d="M157.667 426.875C159.37 426.875 160.75 425.494 160.75 423.792C160.75 422.089 159.37 420.708 157.667 420.708C155.964 420.708 154.583 422.089 154.583 423.792C154.583 425.494 155.964 426.875 157.667 426.875Z" fill="#5633EF"/>
<path d="M191 442.25C192.703 442.25 194.083 440.869 194.083 439.167C194.083 437.464 192.703 436.083 191 436.083C189.297 436.083 187.917 437.464 187.917 439.167C187.917 440.869 189.297 442.25 191 442.25Z" fill="#5633EF"/>
<g clip-path="url(#clip0_4104_65337)">
<path d="M190.25 440.583C190.792 439 191.333 437.416 192.292 436.041C193.333 434.541 194.958 428.208 196.292 427C214.042 411.167 205.042 385.208 201.833 376.791C199.208 369.833 195.875 362.5 192 356.417L176.542 357.75C177.458 359.5 179.708 361.083 180.25 363.166C180.583 364.458 180.375 366.416 179.042 366.375C178.5 366.375 178.042 365.958 177.667 365.583C171.292 359.542 164.917 353.5 158.542 347.458C156.083 345.125 153.583 342.75 151.417 340.083C144.458 331.5 141.25 320.167 133.208 312.583C131.708 311.167 128.583 308.792 126.458 308.5C125.292 308.375 123.958 309.083 123.875 310.208C123.833 310.5 123.917 310.75 124 311C123.083 310.417 122.208 310.25 121.5 311.083C120.667 312.041 120.75 313.417 120.875 314.667C121.167 317.917 121.708 321.25 121.792 324.542C121.375 324.042 120.75 323.416 120.083 323.25C119.583 323.083 118.917 323.291 118.708 323.75C118.625 323.958 118.625 324.208 118.625 324.416C118.667 333.791 118.958 343.125 119.625 352.5C118.625 351 114.542 345.333 112.625 348.958C111.875 350.416 112.417 352.167 112.958 353.708C114.25 357.417 115.542 361.083 116.875 364.791C118.167 368.5 119.542 372.291 121.875 375.458C123.583 377.791 125.833 379.708 128 381.583C134.833 387.416 141.708 393.166 148.625 398.875C152.167 401.791 155.708 404.708 159.292 407.541C161.917 409.625 161.042 414.5 160.208 417.875C159.208 421.875 156.625 425.917 155 429.708C153.208 433.833 151.5 437.958 149.833 442.166L190.25 440.583ZM137.833 347.625C136.667 346.333 135.458 344.958 134.792 343.333C134.292 342.166 134.125 340.875 133.958 339.625C133.542 336.541 133.292 333.416 132.875 330.333C135.708 336.708 138.625 343.083 142.833 348.666C144.417 350.75 146.125 352.75 147.542 354.916C148.917 357 150 359.25 150.958 361.583C146.542 357.041 142.125 352.375 137.833 347.625Z" fill="white" stroke="#5633EF" stroke-miterlimit="10"/>
</g>
<path d="M119.75 352.083C120.208 354.417 120.833 356.667 121.667 358.875C122.25 360.417 122.917 361.917 123.792 363.25C125.125 365.25 126.958 366.875 128.708 368.583C132.542 372.292 136.083 376.292 139.208 380.625" fill="white"/>
<path d="M119.75 352.083C120.208 354.417 120.833 356.667 121.667 358.875C122.25 360.417 122.917 361.917 123.792 363.25C125.125 365.25 126.958 366.875 128.708 368.583C132.542 372.292 136.083 376.292 139.208 380.625" stroke="#5633EF" stroke-miterlimit="10"/>
<path d="M120.708 332.167C119.667 333 118.667 332.167 118.583 330.5C118.5 328.167 118.708 325.792 118.5 323.458C118.5 323.25 118.458 323 118.625 322.917C118.792 322.792 119.042 322.875 119.208 322.958C120.667 323.708 121.792 325.125 122.167 326.708C122.583 328.292 122.25 330.083 121.333 331.417C121.125 331.75 120.917 332 120.708 332.167Z" fill="#150D3E"/>
<path d="M124.75 316.833C124.667 315.417 124.125 313.583 123.625 312.542C123.292 311.833 120.5 308.583 120 310.542C119.875 311.083 119.958 311.667 120.083 312.208C120.333 313.583 120.583 314.917 120.875 316.292C121.042 317.208 121.042 319.125 121.708 319.792C123.042 321.083 124.458 319.208 124.708 317.917C124.75 317.583 124.792 317.25 124.75 316.833Z" fill="#150D3E"/>
<path d="M116.458 352.416C116.958 353.416 117.25 354.5 117.458 355.625C117.5 355.875 117.542 356.125 117.458 356.375C117.333 356.708 116.958 356.916 116.667 357.083C116.167 357.333 115.667 357.583 115.208 357.833C115.125 357.875 115.042 357.916 114.917 357.916C114.792 357.875 114.708 357.75 114.667 357.625C113.708 355.416 112.75 353.208 111.75 351C111.5 350.416 111.25 349.833 111.333 349.208C111.792 346.291 115.958 351.541 116.458 352.416Z" fill="#150D3E"/>
<path d="M121.667 324.625C122.542 330.583 123.417 336.5 124.292 342.458C124.5 343.833 124.708 345.208 125.125 346.541C125.583 348.041 126.292 349.458 127.083 350.833C128.5 353.375 130.125 355.833 131.917 358.166C136.042 363.458 141.167 368.291 143.292 374.666" fill="white"/>
<path d="M121.667 324.625C122.542 330.583 123.417 336.5 124.292 342.458C124.5 343.833 124.708 345.208 125.125 346.541C125.583 348.041 126.292 349.458 127.083 350.833C128.5 353.375 130.125 355.833 131.917 358.166C136.042 363.458 141.167 368.291 143.292 374.666" stroke="#5633EF" stroke-miterlimit="10"/>
<path d="M133 331.041C130.958 325.75 128.583 320.666 126.333 315.5L133 331.041Z" fill="white"/>
<path d="M133 331.041C130.958 325.75 128.583 320.666 126.333 315.5" stroke="#5633EF" stroke-miterlimit="10"/>
<path d="M125.208 309.208C124.583 308.833 123.667 308.5 123.167 309C122.875 309.291 122.833 309.791 122.917 310.166C123.042 310.583 123.292 310.916 123.542 311.25C124.625 312.708 128.375 319.875 130.667 317.625C133.167 315.25 126.958 310.291 125.208 309.208Z" fill="#150D3E"/>
<path d="M158.042 424.916C159.745 424.916 161.125 423.536 161.125 421.833C161.125 420.13 159.745 418.75 158.042 418.75C156.339 418.75 154.958 420.13 154.958 421.833C154.958 423.536 156.339 424.916 158.042 424.916Z" fill="#5633EF"/>
<path d="M155.333 424.708C157.036 424.708 158.417 423.328 158.417 421.625C158.417 419.922 157.036 418.542 155.333 418.542C153.63 418.542 152.25 419.922 152.25 421.625C152.25 423.328 153.63 424.708 155.333 424.708Z" fill="#5633EF"/>
<path d="M163.667 427.041C165.37 427.041 166.75 425.661 166.75 423.958C166.75 422.255 165.37 420.875 163.667 420.875C161.964 420.875 160.583 422.255 160.583 423.958C160.583 425.661 161.964 427.041 163.667 427.041Z" fill="#5633EF"/>
<path d="M169.542 429.041C171.245 429.041 172.625 427.661 172.625 425.958C172.625 424.255 171.245 422.875 169.542 422.875C167.839 422.875 166.458 424.255 166.458 425.958C166.458 427.661 167.839 429.041 169.542 429.041Z" fill="#5633EF"/>
<path d="M175.042 431.208C176.745 431.208 178.125 429.828 178.125 428.125C178.125 426.422 176.745 425.042 175.042 425.042C173.339 425.042 171.958 426.422 171.958 428.125C171.958 429.828 173.339 431.208 175.042 431.208Z" fill="#5633EF"/>
<path d="M180.5 433.583C182.203 433.583 183.583 432.203 183.583 430.5C183.583 428.797 182.203 427.417 180.5 427.417C178.797 427.417 177.417 428.797 177.417 430.5C177.417 432.203 178.797 433.583 180.5 433.583Z" fill="#5633EF"/>
<path d="M185.75 436.125C187.453 436.125 188.833 434.744 188.833 433.042C188.833 431.339 187.453 429.958 185.75 429.958C184.047 429.958 182.667 431.339 182.667 433.042C182.667 434.744 184.047 436.125 185.75 436.125Z" fill="#5633EF"/>
<path d="M190.833 439.375C192.536 439.375 193.917 437.994 193.917 436.292C193.917 434.589 192.536 433.208 190.833 433.208C189.13 433.208 187.75 434.589 187.75 436.292C187.75 437.994 189.13 439.375 190.833 439.375Z" fill="#5633EF"/>
<path d="M193.208 442.25C194.911 442.25 196.292 440.869 196.292 439.167C196.292 437.464 194.911 436.083 193.208 436.083C191.505 436.083 190.125 437.464 190.125 439.167C190.125 440.869 191.505 442.25 193.208 442.25Z" fill="#5633EF"/>
<g clip-path="url(#clip1_4104_65337)">
<path d="M514.125 430.168C508.792 422.709 503.208 415.418 497.417 408.334C494.583 404.876 491.708 401.418 488.75 398.043C486.042 394.918 482.375 391.834 480.208 388.334C478.417 385.376 476.083 381.001 477.958 378.209C480.5 374.418 483 370.542 485.5 366.709C490.375 359.209 495.208 351.626 499.958 344.001C501.5 341.542 503.042 339.043 503.958 336.334C505.25 332.626 505.375 328.584 505.5 324.668C505.625 320.751 505.75 316.834 505.875 312.918C505.917 311.293 505.917 309.459 504.75 308.293C501.833 305.376 499.667 312.042 499.167 313.792C497 304.667 494.417 295.667 491.667 286.709C491.583 286.501 491.542 286.251 491.375 286.084C491.042 285.667 490.375 285.709 489.917 286.001C489.375 286.376 488.958 287.167 488.708 287.751C487.833 284.584 487.292 281.293 486.625 278.084C486.375 276.876 486 275.501 484.917 274.834C484 274.292 483.167 274.709 482.5 275.542C482.5 275.251 482.458 275.001 482.375 274.751C481.958 273.668 480.458 273.417 479.417 273.876C477.5 274.751 475.208 278.001 474.208 279.793C468.833 289.418 469.167 301.251 465.125 311.501C463.875 314.667 462.208 317.667 460.542 320.667C456.292 328.334 452.042 336.043 447.792 343.709C447.542 344.168 447.208 344.709 446.708 344.876C445.458 345.334 444.625 343.501 444.583 342.168C444.458 340.043 446.125 336.543 446.458 334.584L432.083 335.834C430.208 342.793 428.542 354.292 428.125 361.709C427.625 370.709 426.833 398.168 448.542 407.876C450.208 408.626 457.417 417.626 458.417 419.001L486.271 424.584L514.125 430.168ZM472.042 331.834C472.25 329.334 472.625 326.876 473.292 324.459C474 321.959 475.042 319.543 475.917 317.043C478.25 310.459 479.125 303.501 479.875 296.584C480.417 299.626 481.125 302.709 481.667 305.751C481.875 307.001 482.083 308.293 482 309.543C481.833 311.293 481.125 312.959 480.375 314.543C477.667 320.334 474.875 326.126 472.042 331.834Z" fill="white" stroke="#5633EF" stroke-miterlimit="10"/>
</g>
<path d="M498.958 313.292C499.25 315.625 499.292 318 499.208 320.333C499.125 321.958 498.958 323.583 498.5 325.167C497.833 327.5 496.583 329.583 495.417 331.708C492.875 336.375 490.708 341.292 489 346.375" fill="white"/>
<path d="M498.958 313.292C499.25 315.625 499.292 318 499.208 320.333C499.125 321.958 498.958 323.583 498.5 325.167C497.833 327.5 496.583 329.583 495.417 331.708C492.875 336.375 490.708 341.292 489 346.375" stroke="#5633EF" stroke-miterlimit="10"/>
<path d="M492 294.583C493.25 295.042 493.917 293.958 493.5 292.375C492.875 290.125 491.958 287.917 491.458 285.667C491.417 285.458 491.333 285.25 491.167 285.167C490.958 285.083 490.75 285.25 490.625 285.417C489.458 286.583 488.833 288.25 488.958 289.917C489.042 291.542 489.875 293.125 491.208 294.167C491.5 294.333 491.75 294.5 492 294.583Z" fill="#150D3E"/>
<path d="M483.542 281.25C483.167 279.875 483.125 278 483.333 276.833C483.458 276.042 485.125 272.125 486.167 273.833C486.458 274.292 486.542 274.875 486.625 275.458C486.792 276.833 486.958 278.208 487.125 279.583C487.25 280.5 487.833 282.333 487.375 283.167C486.5 284.833 484.583 283.417 483.958 282.292C483.75 281.958 483.625 281.625 483.542 281.25Z" fill="#150D3E"/>
<path d="M502.208 312.667C502 313.75 502.083 314.917 502.208 316C502.25 316.25 502.292 316.5 502.417 316.708C502.625 317 503.042 317.083 503.417 317.125C503.958 317.208 504.5 317.292 505.042 317.375C505.125 317.375 505.25 317.417 505.333 317.375C505.458 317.292 505.5 317.167 505.5 317C505.75 314.625 506 312.208 506.292 309.833C506.375 309.208 506.417 308.542 506.125 308C504.792 305.375 502.375 311.667 502.208 312.667Z" fill="#150D3E"/>
<path d="M488.833 287.667C489.792 293.583 490.75 299.542 491.708 305.458C491.917 306.833 492.167 308.208 492.167 309.583C492.167 311.167 491.917 312.708 491.583 314.25C491 317.125 490.167 319.958 489.167 322.708C486.833 329 483.417 335.167 483.292 341.875" fill="white"/>
<path d="M488.833 287.667C489.792 293.583 490.75 299.542 491.708 305.458C491.917 306.833 492.167 308.208 492.167 309.583C492.167 311.167 491.917 312.708 491.583 314.25C491 317.125 490.167 319.958 489.167 322.708C486.833 329 483.417 335.167 483.292 341.875" stroke="#5633EF" stroke-miterlimit="10"/>
<path d="M479.958 297.25C480.333 291.583 481.042 286.042 481.625 280.417L479.958 297.25Z" fill="white"/>
<path d="M479.958 297.25C480.333 291.583 481.042 286.042 481.625 280.417" stroke="#5633EF" stroke-miterlimit="10"/>
<path d="M480.792 274.083C481.292 273.5 482.042 272.917 482.708 273.292C483.083 273.5 483.292 273.917 483.292 274.333C483.292 274.75 483.167 275.167 483.042 275.542C482.458 277.25 481.042 285.208 478.167 283.792C475.042 282.25 479.458 275.625 480.792 274.083Z" fill="#150D3E"/>
<path d="M484.167 218.458C484.167 218.458 495 231.625 503.708 237.667L484.167 218.458Z" fill="white"/>
<path d="M484.167 218.458C484.167 218.458 495 231.625 503.708 237.667" stroke="#5633EF" stroke-miterlimit="10"/>
<path d="M468.75 192.583C468.75 192.583 483.583 199.875 488 204.167C492.417 208.458 501.375 213.583 501.375 213.583" fill="white"/>
<path d="M468.75 192.583C468.75 192.583 483.583 199.875 488 204.167C492.417 208.458 501.375 213.583 501.375 213.583" stroke="#5633EF" stroke-miterlimit="10"/>
<path d="M488.708 189.75C488.708 189.75 496.042 192.458 497.792 193.5C499.542 194.542 510.125 201.833 513.5 203.583" fill="white"/>
<path d="M488.708 189.75C488.708 189.75 496.042 192.458 497.792 193.5C499.542 194.542 510.125 201.833 513.5 203.583" stroke="#5633EF" stroke-miterlimit="10"/>
<path d="M275.292 6.25016C275.333 8.0835 275.417 9.91683 275.458 11.7918C275.833 23.8752 276.25 36.1252 274.292 47.7085C273.375 53.5835 271.125 59.0418 268.875 64.5418C265.458 72.8752 262.417 81.9585 261.667 90.9585C261.458 93.5002 261.458 96.2085 262.583 98.5002C263.708 100.792 266.333 102.542 268.833 101.875C269.458 101.708 270.167 101.417 270.667 101.833C270.875 102 271 102.292 271.125 102.542C272 104.542 272.917 106.625 274.583 108.042C276.208 109.5 278.75 110.125 280.625 109C281.292 108.625 281.958 107.208 282.792 107.333C283.542 107.458 284.083 108.833 284.458 109.333C285.292 110.583 286.708 111.5 288.208 111.708C289.708 111.917 291.292 111.459 292.458 110.5C293.125 109.959 293.792 109.208 294.625 109.292C295.542 109.417 295.958 110.458 296.167 111.375C297.167 115.917 296.542 120.917 296.333 125.625C296.208 127.833 296.583 129.792 296.542 131.959C296.417 137.042 296.375 144.333 298.458 149C299.167 150.625 300.417 150.417 302.167 150.125C304 149.833 304.792 147.625 305.042 145.75C305.375 143.208 305.458 140.667 305.583 138.083C305.75 133.792 306.75 129.458 307.083 125.208C307.458 120.25 307.125 115.375 307.667 110.458C307.917 108.167 308.208 105.875 308.5 103.583C308.792 101.25 310.25 100.667 312 99.2085C315.292 96.4585 318.417 93.5002 321.292 90.3335C322.833 88.6252 324.333 86.8335 325.75 84.9585C327.375 82.7918 328.958 80.3752 328.917 77.6668C328.875 76.5002 328.583 75.3752 328.25 74.2502C327.75 72.5835 327.25 70.8752 326.792 69.2085C325.667 65.4168 323.75 62.1668 321.333 59.0418C318.667 55.6668 315.083 52.5835 313.333 48.5835C307.875 36.0835 314.875 19.2918 318.583 6.2085" fill="white"/>
<path d="M275.292 6.25016C275.333 8.0835 275.417 9.91683 275.458 11.7918C275.833 23.8752 276.25 36.1252 274.292 47.7085C273.375 53.5835 271.125 59.0418 268.875 64.5418C265.458 72.8752 262.417 81.9585 261.667 90.9585C261.458 93.5002 261.458 96.2085 262.583 98.5002C263.708 100.792 266.333 102.542 268.833 101.875C269.458 101.708 270.167 101.417 270.667 101.833C270.875 102 271 102.292 271.125 102.542C272 104.542 272.917 106.625 274.583 108.042C276.208 109.5 278.75 110.125 280.625 109C281.292 108.625 281.958 107.208 282.792 107.333C283.542 107.458 284.083 108.833 284.458 109.333C285.292 110.583 286.708 111.5 288.208 111.708C289.708 111.917 291.292 111.459 292.458 110.5C293.125 109.959 293.792 109.208 294.625 109.292C295.542 109.417 295.958 110.458 296.167 111.375C297.167 115.917 296.542 120.917 296.333 125.625C296.208 127.833 296.583 129.792 296.542 131.959C296.417 137.042 296.375 144.333 298.458 149C299.167 150.625 300.417 150.417 302.167 150.125C304 149.833 304.792 147.625 305.042 145.75C305.375 143.208 305.458 140.667 305.583 138.083C305.75 133.792 306.75 129.458 307.083 125.208C307.458 120.25 307.125 115.375 307.667 110.458C307.917 108.167 308.208 105.875 308.5 103.583C308.792 101.25 310.25 100.667 312 99.2085C315.292 96.4585 318.417 93.5002 321.292 90.3335C322.833 88.6252 324.333 86.8335 325.75 84.9585C327.375 82.7918 328.958 80.3752 328.917 77.6668C328.875 76.5002 328.583 75.3752 328.25 74.2502C327.75 72.5835 327.25 70.8752 326.792 69.2085C325.667 65.4168 323.75 62.1668 321.333 59.0418C318.667 55.6668 315.083 52.5835 313.333 48.5835C307.875 36.0835 314.875 19.2918 318.583 6.2085" stroke="#5633EF" stroke-miterlimit="10"/>
<path d="M302.333 142.292C302.708 142.5 303.042 142.708 303.292 143.042C303.542 143.375 303.708 143.75 303.792 144.125C304.333 145.917 305.042 151.167 302.833 152.208C302.333 152.458 301.75 152.458 301.208 152.417C300.833 152.375 300.458 152.292 300.125 152.083C297.917 150.875 297.875 146.167 298.375 144.125C298.542 143.458 298.833 142.792 299.333 142.292C300.208 141.417 300.875 141.542 301.917 142.083C302.083 142.167 302.208 142.208 302.333 142.292Z" fill="#150D3E"/>
<path d="M274.667 36.4167C273.875 35.3334 274.542 25.7084 274.792 24.9584C275.042 24.2084 281.125 27.5 295.625 28.375C310.125 29.25 311.458 27.25 312.458 27.5C313.458 27.75 312.583 37.125 311.958 38.875C311.625 39.7917 302.125 40.7084 292.458 39.9167C283.875 39.25 275.042 36.9167 274.667 36.4167Z" fill="#150D3E"/>
<path d="M300.375 40.7918C303.583 40.1251 302.833 27.7918 301.833 27.2918C300.833 26.7918 285.75 25.8751 284.917 26.4168C284.083 26.9584 284.167 38.8334 284.417 39.2084C285.167 40.2501 297.167 41.4584 300.375 40.7918Z" fill="white" stroke="#5633EF" stroke-miterlimit="10"/>
<path d="M285.208 38.8334C285.542 40.0418 299.458 40.4168 299.458 40.4168C302.5 39.7918 301.792 28.1251 300.833 27.6668C300.833 27.6668 285.958 26.1668 285.292 26.8751" fill="white"/>
<path d="M285.208 38.8334C285.542 40.0418 299.458 40.4168 299.458 40.4168C302.5 39.7918 301.792 28.1251 300.833 27.6668C300.833 27.6668 285.958 26.1668 285.292 26.8751" stroke="#5633EF" stroke-miterlimit="10"/>
<path d="M292 38.8753V37.542" stroke="#5633EF" stroke-miterlimit="10"/>
<path d="M285.083 33L286.583 33.0833" stroke="#5633EF" stroke-miterlimit="10"/>
<path d="M292.625 29.0833V27.75" stroke="#5633EF" stroke-miterlimit="10"/>
<path d="M300.792 33.6668L299.083 33.5835" stroke="#5633EF" stroke-miterlimit="10"/>
<path d="M288.542 36.5L292.583 33.2917L289.833 32.25" fill="white"/>
<path d="M288.542 36.5L292.583 33.2917L289.833 32.25" stroke="#5633EF" stroke-miterlimit="10"/>
<path d="M308.5 103.125C310.167 95.4168 311.042 92.8335 312.708 85.1252C313.125 83.2085 313.542 81.2918 314.208 79.4585C314.625 78.2502 315.167 77.0835 315.833 75.9585" stroke="#5633EF" stroke-miterlimit="10"/>
<defs>
<clipPath id="clip0_4104_65337">
<rect width="95" height="128" fill="white" transform="translate(112 308.001)"/>
</clipPath>
<clipPath id="clip1_4104_65337">
<rect width="86" height="141" fill="white" transform="translate(428 274.001)"/>
</clipPath>
</defs>
</svg>
