<svg width="1438" height="987" viewBox="0 0 1438 987" fill="none" xmlns="http://www.w3.org/2000/svg">
<path opacity="0.05" d="M0 -37H1440V557.276C1440 590.089 1415.18 617.587 1382.54 620.941L70.5417 755.752C32.807 759.629 0 730.02 0 692.087V-37Z" fill="#2BD4D9"/>
<path d="M734.353 461.369C721.84 435.666 697.327 419.708 671.941 414.896C646.553 410.098 620.332 415.313 595.625 424.127C568.723 433.735 542.409 447.725 514.352 449.452C479.167 451.616 445.271 434.03 416.749 410.744C401.93 398.655 388.065 384.916 372.181 374.738C356.297 364.573 337.705 358.09 319.706 362.135C280.383 370.953 258.99 424.417 220.733 438.324C202.417 444.987 182.79 441.606 163.698 440.35C144.606 439.094 123.732 440.751 109.068 455.074C89.3067 474.41 88.3965 509.286 95.0985 537.782C106.132 584.725 137.432 628.399 179.418 635.373C201.748 639.077 224.642 632.278 247.137 634.547C255.574 635.414 263.86 637.557 271.78 640.921C272.805 641.697 273.804 642.485 274.802 643.302C297.335 661.716 314.259 688.758 338.767 703.512C339.218 703.785 339.669 704.044 340.132 704.304C342.026 705.839 343.995 707.249 346.03 708.527C357.955 716.015 371.851 718.386 385.585 717.18C389.18 717.46 392.795 717.587 396.39 717.601C443.928 717.715 490.377 699.849 528.555 666.764C556.258 642.619 579.254 610.665 610.43 593.067C637.962 577.538 669.439 574.626 698.16 562.359C708.396 557.993 718.439 552.288 726.273 543.512C744.836 522.706 746.855 487.056 734.353 461.369Z" fill="url(#paint0_linear_4825_27042)"/>
<path d="M1255.05 695.238C1250.2 667.066 1231.11 644.906 1208.07 633.206C1185.02 621.519 1158.39 619.217 1132.2 620.792C1103.69 622.518 1074.52 628.616 1047.09 622.452C1012.7 614.72 985.052 588.38 964.153 558.065C953.292 542.323 943.808 525.264 931.393 511.06C918.972 496.869 902.925 485.46 884.512 484.326C844.29 481.83 808.839 527.208 768.221 529.897C748.774 531.189 730.868 522.469 712.883 515.94C694.898 509.41 674.39 505.181 656.314 514.848C631.945 527.907 621.347 561.146 619.837 590.381C617.344 638.538 635.225 689.208 673.602 707.612C694.014 717.395 717.896 717.249 738.866 725.7C746.727 728.885 754.087 733.254 760.755 738.692C761.522 739.723 762.262 740.759 762.993 741.822C779.498 765.788 788.211 796.477 807.633 817.479C807.99 817.867 808.351 818.241 808.723 818.62C810.114 820.622 811.612 822.525 813.209 824.32C822.574 834.836 835.258 840.988 848.784 843.659C852.158 844.93 855.594 846.06 859.043 847.076C904.663 860.44 954.252 856.234 1000.14 835.106C1033.48 819.643 1064.47 795.368 1099.32 787.16C1130.09 779.924 1161.13 785.904 1192.13 782.132C1203.18 780.793 1214.41 778.114 1224.38 771.87C1248.01 757.065 1259.89 723.392 1255.05 695.238Z" fill="url(#paint1_linear_4825_27042)"/>
<rect opacity="0.5" x="1153.95" y="251.949" width="78.1734" height="56.5067" rx="3.7977" stroke="#F3F3F3" stroke-width="1.89885"/>
<path d="M1182.49 269.184C1181.67 268.84 1180.84 269.667 1181.18 270.492L1189.25 289.846C1189.6 290.697 1190.82 290.656 1191.12 289.784L1193.66 282.288C1193.76 281.994 1193.99 281.763 1194.29 281.663L1201.78 279.117C1202.66 278.821 1202.7 277.602 1201.85 277.247L1182.49 269.184Z" fill="#AFA0F6"/>
<g opacity="0.1">
<circle cx="1250.58" cy="312.58" r="2.58013" fill="#2BD4D9"/>
<circle cx="1266.06" cy="312.58" r="2.58013" fill="#2BD4D9"/>
<circle cx="1281.54" cy="312.58" r="2.58013" fill="#2BD4D9"/>
<circle cx="1297.02" cy="312.58" r="2.58013" fill="#2BD4D9"/>
<circle cx="1312.5" cy="312.58" r="2.58013" fill="#2BD4D9"/>
<circle cx="1327.98" cy="312.58" r="2.58013" fill="#2BD4D9"/>
<circle cx="1343.46" cy="312.58" r="2.58013" fill="#2BD4D9"/>
<circle cx="1358.95" cy="312.58" r="2.58013" fill="#2BD4D9"/>
<circle cx="1374.43" cy="312.58" r="2.58013" fill="#2BD4D9"/>
<circle cx="1389.91" cy="312.58" r="2.58013" fill="#2BD4D9"/>
<circle cx="1405.39" cy="312.58" r="2.58013" fill="#2BD4D9"/>
<circle cx="1420.87" cy="312.58" r="2.58013" fill="#2BD4D9"/>
<circle cx="1250.58" cy="333.221" r="2.58013" fill="#2BD4D9"/>
<circle cx="1266.06" cy="333.221" r="2.58013" fill="#2BD4D9"/>
<circle cx="1281.54" cy="333.221" r="2.58013" fill="#2BD4D9"/>
<circle cx="1297.02" cy="333.221" r="2.58013" fill="#2BD4D9"/>
<circle cx="1312.5" cy="333.221" r="2.58013" fill="#2BD4D9"/>
<circle cx="1327.98" cy="333.221" r="2.58013" fill="#2BD4D9"/>
<circle cx="1343.46" cy="333.221" r="2.58013" fill="#2BD4D9"/>
<circle cx="1358.95" cy="333.221" r="2.58013" fill="#2BD4D9"/>
<circle cx="1374.43" cy="333.221" r="2.58013" fill="#2BD4D9"/>
<circle cx="1389.91" cy="333.221" r="2.58013" fill="#2BD4D9"/>
<circle cx="1405.39" cy="333.221" r="2.58013" fill="#2BD4D9"/>
<circle cx="1420.87" cy="333.221" r="2.58013" fill="#2BD4D9"/>
<circle cx="1250.58" cy="353.861" r="2.58013" fill="#2BD4D9"/>
<circle cx="1266.06" cy="353.861" r="2.58013" fill="#2BD4D9"/>
<circle cx="1281.54" cy="353.861" r="2.58013" fill="#2BD4D9"/>
<circle cx="1297.02" cy="353.861" r="2.58013" fill="#2BD4D9"/>
<circle cx="1312.5" cy="353.861" r="2.58013" fill="#2BD4D9"/>
<circle cx="1327.98" cy="353.861" r="2.58013" fill="#2BD4D9"/>
<circle cx="1343.46" cy="353.861" r="2.58013" fill="#2BD4D9"/>
<circle cx="1358.95" cy="353.861" r="2.58013" fill="#2BD4D9"/>
<circle cx="1374.43" cy="353.861" r="2.58013" fill="#2BD4D9"/>
<circle cx="1389.91" cy="353.861" r="2.58013" fill="#2BD4D9"/>
<circle cx="1405.39" cy="353.861" r="2.58013" fill="#2BD4D9"/>
<circle cx="1420.87" cy="353.861" r="2.58013" fill="#2BD4D9"/>
<circle cx="1250.58" cy="374.502" r="2.58013" fill="#2BD4D9"/>
<circle cx="1266.06" cy="374.502" r="2.58013" fill="#2BD4D9"/>
<circle cx="1281.54" cy="374.502" r="2.58013" fill="#2BD4D9"/>
<circle cx="1297.02" cy="374.502" r="2.58013" fill="#2BD4D9"/>
<circle cx="1312.5" cy="374.502" r="2.58013" fill="#2BD4D9"/>
<circle cx="1327.98" cy="374.502" r="2.58013" fill="#2BD4D9"/>
<circle cx="1343.46" cy="374.502" r="2.58013" fill="#2BD4D9"/>
<circle cx="1358.95" cy="374.502" r="2.58013" fill="#2BD4D9"/>
<circle cx="1374.43" cy="374.502" r="2.58013" fill="#2BD4D9"/>
<circle cx="1389.91" cy="374.502" r="2.58013" fill="#2BD4D9"/>
<circle cx="1405.39" cy="374.502" r="2.58013" fill="#2BD4D9"/>
<circle cx="1420.87" cy="374.502" r="2.58013" fill="#2BD4D9"/>
<circle cx="1250.58" cy="395.143" r="2.58013" fill="#2BD4D9"/>
<circle cx="1266.06" cy="395.143" r="2.58013" fill="#2BD4D9"/>
<circle cx="1281.54" cy="395.143" r="2.58013" fill="#2BD4D9"/>
<circle cx="1297.02" cy="395.143" r="2.58013" fill="#2BD4D9"/>
<circle cx="1312.5" cy="395.143" r="2.58013" fill="#2BD4D9"/>
<circle cx="1327.98" cy="395.143" r="2.58013" fill="#2BD4D9"/>
<circle cx="1343.46" cy="395.143" r="2.58013" fill="#2BD4D9"/>
<circle cx="1358.95" cy="395.143" r="2.58013" fill="#2BD4D9"/>
<circle cx="1374.43" cy="395.143" r="2.58013" fill="#2BD4D9"/>
<circle cx="1389.91" cy="395.143" r="2.58013" fill="#2BD4D9"/>
<circle cx="1405.39" cy="395.143" r="2.58013" fill="#2BD4D9"/>
<circle cx="1420.87" cy="395.143" r="2.58013" fill="#2BD4D9"/>
<circle cx="1250.58" cy="415.787" r="2.58013" fill="#2BD4D9"/>
<circle cx="1266.06" cy="415.787" r="2.58013" fill="#2BD4D9"/>
<circle cx="1281.54" cy="415.787" r="2.58013" fill="#2BD4D9"/>
<circle cx="1297.02" cy="415.787" r="2.58013" fill="#2BD4D9"/>
<circle cx="1312.5" cy="415.787" r="2.58013" fill="#2BD4D9"/>
<circle cx="1327.98" cy="415.787" r="2.58013" fill="#2BD4D9"/>
<circle cx="1343.46" cy="415.787" r="2.58013" fill="#2BD4D9"/>
<circle cx="1358.95" cy="415.787" r="2.58013" fill="#2BD4D9"/>
<circle cx="1374.43" cy="415.787" r="2.58013" fill="#2BD4D9"/>
<circle cx="1389.91" cy="415.787" r="2.58013" fill="#2BD4D9"/>
<circle cx="1405.39" cy="415.787" r="2.58013" fill="#2BD4D9"/>
<circle cx="1420.87" cy="415.787" r="2.58013" fill="#2BD4D9"/>
<circle cx="1250.58" cy="436.424" r="2.58013" fill="#2BD4D9"/>
<circle cx="1266.06" cy="436.424" r="2.58013" fill="#2BD4D9"/>
<circle cx="1281.54" cy="436.424" r="2.58013" fill="#2BD4D9"/>
<circle cx="1297.02" cy="436.424" r="2.58013" fill="#2BD4D9"/>
<circle cx="1312.5" cy="436.424" r="2.58013" fill="#2BD4D9"/>
<circle cx="1327.98" cy="436.424" r="2.58013" fill="#2BD4D9"/>
<circle cx="1343.46" cy="436.424" r="2.58013" fill="#2BD4D9"/>
<circle cx="1358.95" cy="436.424" r="2.58013" fill="#2BD4D9"/>
<circle cx="1374.43" cy="436.424" r="2.58013" fill="#2BD4D9"/>
<circle cx="1389.91" cy="436.424" r="2.58013" fill="#2BD4D9"/>
<circle cx="1405.39" cy="436.424" r="2.58013" fill="#2BD4D9"/>
<circle cx="1420.87" cy="436.424" r="2.58013" fill="#2BD4D9"/>
<circle cx="1250.58" cy="457.065" r="2.58013" fill="#2BD4D9"/>
<circle cx="1266.06" cy="457.065" r="2.58013" fill="#2BD4D9"/>
<circle cx="1281.54" cy="457.065" r="2.58013" fill="#2BD4D9"/>
<circle cx="1297.02" cy="457.065" r="2.58013" fill="#2BD4D9"/>
<circle cx="1312.5" cy="457.065" r="2.58013" fill="#2BD4D9"/>
<circle cx="1327.98" cy="457.065" r="2.58013" fill="#2BD4D9"/>
<circle cx="1343.46" cy="457.065" r="2.58013" fill="#2BD4D9"/>
<circle cx="1358.95" cy="457.065" r="2.58013" fill="#2BD4D9"/>
<circle cx="1374.43" cy="457.065" r="2.58013" fill="#2BD4D9"/>
<circle cx="1389.91" cy="457.065" r="2.58013" fill="#2BD4D9"/>
<circle cx="1405.39" cy="457.065" r="2.58013" fill="#2BD4D9"/>
<circle cx="1420.87" cy="457.065" r="2.58013" fill="#2BD4D9"/>
</g>
<g opacity="0.1">
<circle cx="1.0609" cy="312.58" r="2.58013" fill="#2BD4D9"/>
<circle cx="16.5417" cy="312.58" r="2.58013" fill="#2BD4D9"/>
<circle cx="32.0224" cy="312.58" r="2.58013" fill="#2BD4D9"/>
<circle cx="47.5032" cy="312.58" r="2.58013" fill="#2BD4D9"/>
<circle cx="62.984" cy="312.58" r="2.58013" fill="#2BD4D9"/>
<circle cx="78.4648" cy="312.58" r="2.58013" fill="#2BD4D9"/>
<circle cx="93.9455" cy="312.58" r="2.58013" fill="#2BD4D9"/>
<circle cx="109.426" cy="312.58" r="2.58013" fill="#2BD4D9"/>
<circle cx="124.907" cy="312.58" r="2.58013" fill="#2BD4D9"/>
<circle cx="140.388" cy="312.58" r="2.58013" fill="#2BD4D9"/>
<circle cx="155.869" cy="312.58" r="2.58013" fill="#2BD4D9"/>
<circle cx="1.0609" cy="333.221" r="2.58013" fill="#2BD4D9"/>
<circle cx="16.5417" cy="333.221" r="2.58013" fill="#2BD4D9"/>
<circle cx="32.0224" cy="333.221" r="2.58013" fill="#2BD4D9"/>
<circle cx="47.5032" cy="333.221" r="2.58013" fill="#2BD4D9"/>
<circle cx="62.984" cy="333.221" r="2.58013" fill="#2BD4D9"/>
<circle cx="78.4648" cy="333.221" r="2.58013" fill="#2BD4D9"/>
<circle cx="93.9455" cy="333.221" r="2.58013" fill="#2BD4D9"/>
<circle cx="109.426" cy="333.221" r="2.58013" fill="#2BD4D9"/>
<circle cx="124.907" cy="333.221" r="2.58013" fill="#2BD4D9"/>
<circle cx="140.388" cy="333.221" r="2.58013" fill="#2BD4D9"/>
<circle cx="155.869" cy="333.221" r="2.58013" fill="#2BD4D9"/>
<circle cx="1.0609" cy="353.861" r="2.58013" fill="#2BD4D9"/>
<circle cx="16.5417" cy="353.861" r="2.58013" fill="#2BD4D9"/>
<circle cx="32.0224" cy="353.861" r="2.58013" fill="#2BD4D9"/>
<circle cx="47.5032" cy="353.861" r="2.58013" fill="#2BD4D9"/>
<circle cx="62.984" cy="353.861" r="2.58013" fill="#2BD4D9"/>
<circle cx="78.4648" cy="353.861" r="2.58013" fill="#2BD4D9"/>
<circle cx="93.9455" cy="353.861" r="2.58013" fill="#2BD4D9"/>
<circle cx="109.426" cy="353.861" r="2.58013" fill="#2BD4D9"/>
<circle cx="124.907" cy="353.861" r="2.58013" fill="#2BD4D9"/>
<circle cx="140.388" cy="353.861" r="2.58013" fill="#2BD4D9"/>
<circle cx="155.869" cy="353.861" r="2.58013" fill="#2BD4D9"/>
<circle cx="1.06084" cy="374.502" r="2.58013" fill="#2BD4D9"/>
<circle cx="16.5417" cy="374.502" r="2.58013" fill="#2BD4D9"/>
<circle cx="32.0225" cy="374.502" r="2.58013" fill="#2BD4D9"/>
<circle cx="47.5032" cy="374.502" r="2.58013" fill="#2BD4D9"/>
<circle cx="62.9839" cy="374.502" r="2.58013" fill="#2BD4D9"/>
<circle cx="78.4648" cy="374.502" r="2.58013" fill="#2BD4D9"/>
<circle cx="93.9455" cy="374.502" r="2.58013" fill="#2BD4D9"/>
<circle cx="109.426" cy="374.502" r="2.58013" fill="#2BD4D9"/>
<circle cx="124.907" cy="374.502" r="2.58013" fill="#2BD4D9"/>
<circle cx="140.388" cy="374.502" r="2.58013" fill="#2BD4D9"/>
<circle cx="155.869" cy="374.502" r="2.58013" fill="#2BD4D9"/>
<circle cx="1.06084" cy="395.143" r="2.58013" fill="#2BD4D9"/>
<circle cx="16.5417" cy="395.143" r="2.58013" fill="#2BD4D9"/>
<circle cx="32.0225" cy="395.143" r="2.58013" fill="#2BD4D9"/>
<circle cx="47.5032" cy="395.143" r="2.58013" fill="#2BD4D9"/>
<circle cx="62.9839" cy="395.143" r="2.58013" fill="#2BD4D9"/>
<circle cx="78.4648" cy="395.143" r="2.58013" fill="#2BD4D9"/>
<circle cx="93.9455" cy="395.143" r="2.58013" fill="#2BD4D9"/>
<circle cx="109.426" cy="395.143" r="2.58013" fill="#2BD4D9"/>
<circle cx="124.907" cy="395.143" r="2.58013" fill="#2BD4D9"/>
<circle cx="140.388" cy="395.143" r="2.58013" fill="#2BD4D9"/>
<circle cx="155.869" cy="395.143" r="2.58013" fill="#2BD4D9"/>
<circle cx="1.06084" cy="415.787" r="2.58013" fill="#2BD4D9"/>
<circle cx="16.5417" cy="415.787" r="2.58013" fill="#2BD4D9"/>
<circle cx="32.0224" cy="415.787" r="2.58013" fill="#2BD4D9"/>
<circle cx="47.5032" cy="415.787" r="2.58013" fill="#2BD4D9"/>
<circle cx="62.9839" cy="415.787" r="2.58013" fill="#2BD4D9"/>
<circle cx="78.4648" cy="415.787" r="2.58013" fill="#2BD4D9"/>
<circle cx="93.9455" cy="415.787" r="2.58013" fill="#2BD4D9"/>
<circle cx="109.426" cy="415.787" r="2.58013" fill="#2BD4D9"/>
<circle cx="124.907" cy="415.787" r="2.58013" fill="#2BD4D9"/>
<circle cx="140.388" cy="415.787" r="2.58013" fill="#2BD4D9"/>
<circle cx="155.869" cy="415.787" r="2.58013" fill="#2BD4D9"/>
<circle cx="1.06084" cy="436.424" r="2.58013" fill="#2BD4D9"/>
<circle cx="16.5417" cy="436.424" r="2.58013" fill="#2BD4D9"/>
<circle cx="32.0225" cy="436.424" r="2.58013" fill="#2BD4D9"/>
<circle cx="47.5032" cy="436.424" r="2.58013" fill="#2BD4D9"/>
<circle cx="62.9839" cy="436.424" r="2.58013" fill="#2BD4D9"/>
<circle cx="78.4648" cy="436.424" r="2.58013" fill="#2BD4D9"/>
<circle cx="93.9455" cy="436.424" r="2.58013" fill="#2BD4D9"/>
<circle cx="109.426" cy="436.424" r="2.58013" fill="#2BD4D9"/>
<circle cx="124.907" cy="436.424" r="2.58013" fill="#2BD4D9"/>
<circle cx="140.388" cy="436.424" r="2.58013" fill="#2BD4D9"/>
<circle cx="155.869" cy="436.424" r="2.58013" fill="#2BD4D9"/>
<circle cx="1.06084" cy="457.065" r="2.58013" fill="#2BD4D9"/>
<circle cx="16.5417" cy="457.065" r="2.58013" fill="#2BD4D9"/>
<circle cx="32.0225" cy="457.065" r="2.58013" fill="#2BD4D9"/>
<circle cx="47.5032" cy="457.065" r="2.58013" fill="#2BD4D9"/>
<circle cx="62.9839" cy="457.065" r="2.58013" fill="#2BD4D9"/>
<circle cx="78.4648" cy="457.065" r="2.58013" fill="#2BD4D9"/>
<circle cx="93.9455" cy="457.065" r="2.58013" fill="#2BD4D9"/>
<circle cx="109.426" cy="457.065" r="2.58013" fill="#2BD4D9"/>
<circle cx="124.907" cy="457.065" r="2.58013" fill="#2BD4D9"/>
<circle cx="140.388" cy="457.065" r="2.58013" fill="#2BD4D9"/>
<circle cx="155.869" cy="457.065" r="2.58013" fill="#2BD4D9"/>
</g>
<rect opacity="0.5" x="214.949" y="210.949" width="78.1734" height="56.5067" rx="3.7977" stroke="#F3F3F3" stroke-width="1.89885"/>
<rect x="227.126" y="235.535" width="13.4647" height="18.8374" rx="2.58027" fill="#D4F7F8"/>
<rect x="247.304" y="224.035" width="13.4647" height="30.3356" rx="2.58027" fill="#E7FAFB"/>
<rect x="267.482" y="228.93" width="13.4647" height="25.4427" rx="2.58027" fill="#DDECF2"/>
<rect opacity="0.5" x="1159.95" y="536.949" width="78.1734" height="56.5067" rx="3.7977" stroke="#F3F3F3" stroke-width="1.89885"/>
<g opacity="0.5" clip-path="url(#clip0_4825_27042)">
<path d="M1203.58 575.953V573.767C1203.58 572.607 1203.12 571.495 1202.3 570.675C1201.48 569.855 1200.37 569.395 1199.21 569.395H1190.47C1189.31 569.395 1188.19 569.855 1187.37 570.675C1186.55 571.495 1186.09 572.607 1186.09 573.767V575.953" stroke="#A0F2F4" stroke-width="2.18604" stroke-linecap="round" stroke-linejoin="round"/>
<path d="M1194.84 565.025C1197.25 565.025 1199.21 563.068 1199.21 560.653C1199.21 558.239 1197.25 556.281 1194.84 556.281C1192.42 556.281 1190.47 558.239 1190.47 560.653C1190.47 563.068 1192.42 565.025 1194.84 565.025Z" stroke="#A0F2F4" stroke-width="2.18604" stroke-linecap="round" stroke-linejoin="round"/>
<path d="M1210.14 575.955V573.769C1210.14 572.8 1209.82 571.859 1209.22 571.094C1208.63 570.328 1207.8 569.781 1206.86 569.539" stroke="#82B9EE" stroke-width="2.18604" stroke-linecap="round" stroke-linejoin="round"/>
<path d="M1202.49 556.422C1203.43 556.663 1204.26 557.21 1204.86 557.976C1205.45 558.743 1205.78 559.687 1205.78 560.657C1205.78 561.628 1205.45 562.571 1204.86 563.338C1204.26 564.105 1203.43 564.652 1202.49 564.893" stroke="#82B9EE" stroke-width="2.18604" stroke-linecap="round" stroke-linejoin="round"/>
</g>
<rect opacity="0.5" x="79.9494" y="907.949" width="99.9827" height="77.5477" rx="3.7977" stroke="#F0F0F0" stroke-width="1.89885"/>
<path d="M141.329 946.726C142.537 946.726 143.696 947.206 144.55 948.06C145.405 948.915 145.885 950.073 145.885 951.282L145.885 964.948C145.885 966.156 145.405 967.315 144.55 968.169C143.696 969.023 142.537 969.503 141.329 969.503L118.552 969.503C117.344 969.503 116.185 969.023 115.331 968.169C114.477 967.315 113.997 966.156 113.997 964.948L113.997 951.282C113.997 950.073 114.477 948.915 115.331 948.06C116.185 947.206 117.344 946.726 118.552 946.726L118.552 935.338C118.552 932.317 119.752 929.421 121.888 927.285C124.024 925.149 126.92 923.949 129.941 923.949C132.961 923.949 135.858 925.149 137.994 927.285C140.129 929.421 141.329 932.317 141.329 935.338L141.329 946.726ZM129.941 962.67C131.149 962.67 132.308 962.19 133.162 961.336C134.016 960.481 134.496 959.323 134.496 958.115C134.496 956.906 134.016 955.748 133.162 954.893C132.308 954.039 131.149 953.559 129.941 953.559C128.733 953.559 127.574 954.039 126.72 954.893C125.865 955.748 125.385 956.906 125.385 958.115C125.385 959.323 125.865 960.481 126.72 961.336C127.574 962.19 128.733 962.67 129.941 962.67ZM136.774 946.726L136.774 935.338C136.774 933.525 136.054 931.787 134.773 930.506C133.491 929.225 131.753 928.505 129.941 928.505C128.129 928.505 126.391 929.225 125.109 930.506C123.828 931.787 123.108 933.525 123.108 935.338L123.108 946.726L136.774 946.726Z" fill="url(#paint2_linear_4825_27042)"/>
<rect opacity="0.5" x="99.8923" y="915.043" width="60.7536" height="58.4305" fill="white"/>
<defs>
<linearGradient id="paint0_linear_4825_27042" x1="434" y1="435.501" x2="314.5" y2="734.001" gradientUnits="userSpaceOnUse">
<stop stop-color="#2BD4D9"/>
<stop offset="1" stop-color="#5433ED"/>
</linearGradient>
<linearGradient id="paint1_linear_4825_27042" x1="1229.5" y1="650.502" x2="1014" y2="807.502" gradientUnits="userSpaceOnUse">
<stop stop-color="#2BD4D9"/>
<stop offset="1" stop-color="#5433ED"/>
</linearGradient>
<linearGradient id="paint2_linear_4825_27042" x1="129.941" y1="923.949" x2="129.941" y2="969.503" gradientUnits="userSpaceOnUse">
<stop stop-color="#5433ED"/>
<stop offset="1" stop-color="#5433ED" stop-opacity="0.22"/>
</linearGradient>
<clipPath id="clip0_4825_27042">
<rect width="26.2324" height="26.2324" fill="white" transform="translate(1185 553)"/>
</clipPath>
</defs>
</svg>
