<svg width="79" height="79" viewBox="0 0 79 79" fill="none" xmlns="http://www.w3.org/2000/svg">
<rect x="0.949425" y="0.949425" width="77.1012" height="77.1012" rx="3.7977" stroke="#2BD4D9" stroke-opacity="0.1" stroke-width="1.89885"/>
<path d="M47.5 52.5V49.5C47.5 47.9087 46.8679 46.3826 45.7426 45.2574C44.6174 44.1321 43.0913 43.5 41.5 43.5H29.5C27.9087 43.5 26.3826 44.1321 25.2574 45.2574C24.1321 46.3826 23.5 47.9087 23.5 49.5V52.5" stroke="#2BD4D9" stroke-width="2.18604" stroke-linecap="round" stroke-linejoin="round"/>
<path d="M35.5 37.5C38.8137 37.5 41.5 34.8137 41.5 31.5C41.5 28.1863 38.8137 25.5 35.5 25.5C32.1863 25.5 29.5 28.1863 29.5 31.5C29.5 34.8137 32.1863 37.5 35.5 37.5Z" stroke="#2BD4D9" stroke-width="2.18604" stroke-linecap="round" stroke-linejoin="round"/>
<path d="M56.5 52.4998V49.4998C56.499 48.1704 56.0565 46.879 55.242 45.8283C54.4276 44.7776 53.2872 44.0272 52 43.6948" stroke="#5433ED" stroke-width="2.18604" stroke-linecap="round" stroke-linejoin="round"/>
<path d="M46 25.6948C47.2906 26.0253 48.4346 26.7759 49.2515 27.8283C50.0684 28.8807 50.5118 30.1751 50.5118 31.5073C50.5118 32.8396 50.0684 34.1339 49.2515 35.1864C48.4346 36.2388 47.2906 36.9894 46 37.3198" stroke="#5433ED" stroke-width="2.18604" stroke-linecap="round" stroke-linejoin="round"/>
</svg>
