<svg xmlns="http://www.w3.org/2000/svg" width="1424" height="948" viewBox="0 0 1424 948" fill="none">
<path opacity="0.05" d="M0 -76H1440V518.276C1440 551.089 1415.18 578.587 1382.54 581.941L70.5417 716.752C32.807 720.629 0 691.02 0 653.087V-76Z" fill="#2BD4D9"/>
<path d="M734.353 422.369C721.84 396.666 697.327 380.708 671.941 375.896C646.553 371.098 620.332 376.313 595.625 385.127C568.723 394.735 542.409 408.725 514.352 410.452C479.167 412.616 445.271 395.03 416.749 371.744C401.93 359.655 388.065 345.916 372.181 335.738C356.297 325.573 337.705 319.09 319.706 323.135C280.383 331.953 258.99 385.417 220.733 399.324C202.417 405.987 182.79 402.606 163.698 401.35C144.606 400.094 123.732 401.751 109.068 416.074C89.3067 435.41 88.3965 470.286 95.0985 498.782C106.132 545.725 137.432 589.399 179.418 596.373C201.748 600.077 224.642 593.278 247.137 595.547C255.574 596.414 263.86 598.557 271.78 601.921C272.805 602.697 273.804 603.485 274.802 604.302C297.335 622.716 314.259 649.758 338.767 664.512C339.218 664.785 339.669 665.044 340.132 665.304C342.026 666.839 343.995 668.249 346.03 669.527C357.955 677.015 371.851 679.386 385.585 678.18C389.18 678.46 392.795 678.587 396.39 678.601C443.928 678.715 490.377 660.849 528.555 627.764C556.258 603.619 579.254 571.665 610.43 554.067C637.962 538.538 669.439 535.626 698.16 523.359C708.396 518.993 718.439 513.288 726.273 504.512C744.836 483.706 746.855 448.056 734.353 422.369Z" fill="url(#paint0_linear_4825_27042)"/>
<path d="M1255.05 656.238C1250.2 628.066 1231.11 605.906 1208.07 594.206C1185.02 582.519 1158.39 580.217 1132.2 581.792C1103.69 583.518 1074.52 589.616 1047.09 583.452C1012.7 575.72 985.052 549.38 964.153 519.065C953.292 503.323 943.808 486.264 931.393 472.06C918.972 457.869 902.925 446.46 884.512 445.326C844.29 442.83 808.839 488.208 768.221 490.897C748.774 492.189 730.868 483.469 712.883 476.94C694.898 470.41 674.39 466.181 656.314 475.848C631.945 488.907 621.347 522.146 619.837 551.381C617.344 599.538 635.225 650.208 673.602 668.612C694.014 678.395 717.896 678.249 738.866 686.7C746.727 689.885 754.087 694.254 760.755 699.692C761.522 700.723 762.262 701.759 762.993 702.822C779.498 726.788 788.211 757.477 807.633 778.479C807.99 778.867 808.351 779.241 808.723 779.62C810.114 781.622 811.612 783.525 813.209 785.32C822.574 795.836 835.258 801.988 848.784 804.659C852.158 805.93 855.594 807.06 859.043 808.076C904.663 821.44 954.252 817.234 1000.14 796.106C1033.48 780.643 1064.47 756.368 1099.32 748.16C1130.09 740.924 1161.13 746.904 1192.13 743.132C1203.18 741.793 1214.41 739.114 1224.38 732.87C1248.01 718.065 1259.89 684.392 1255.05 656.238Z" fill="url(#paint1_linear_4825_27042)"/>
<rect opacity="0.5" x="1153.95" y="212.949" width="78.1734" height="56.5067" rx="3.7977" stroke="#F3F3F3" stroke-width="1.89885"/>
<path d="M1182.49 230.184C1181.67 229.84 1180.84 230.667 1181.18 231.492L1189.25 250.846C1189.6 251.697 1190.82 251.656 1191.12 250.784L1193.66 243.288C1193.76 242.994 1193.99 242.763 1194.29 242.663L1201.78 240.117C1202.66 239.821 1202.7 238.602 1201.85 238.247L1182.49 230.184Z" fill="#AFA0F6"/>
<g opacity="0.1">
<circle cx="1250.58" cy="273.58" r="2.58013" fill="#2BD4D9"/>
<circle cx="1266.06" cy="273.58" r="2.58013" fill="#2BD4D9"/>
<circle cx="1281.54" cy="273.58" r="2.58013" fill="#2BD4D9"/>
<circle cx="1297.02" cy="273.58" r="2.58013" fill="#2BD4D9"/>
<circle cx="1312.5" cy="273.58" r="2.58013" fill="#2BD4D9"/>
<circle cx="1327.98" cy="273.58" r="2.58013" fill="#2BD4D9"/>
<circle cx="1343.46" cy="273.58" r="2.58013" fill="#2BD4D9"/>
<circle cx="1358.95" cy="273.58" r="2.58013" fill="#2BD4D9"/>
<circle cx="1374.43" cy="273.58" r="2.58013" fill="#2BD4D9"/>
<circle cx="1389.91" cy="273.58" r="2.58013" fill="#2BD4D9"/>
<circle cx="1405.39" cy="273.58" r="2.58013" fill="#2BD4D9"/>
<circle cx="1420.87" cy="273.58" r="2.58013" fill="#2BD4D9"/>
<circle cx="1250.58" cy="294.221" r="2.58013" fill="#2BD4D9"/>
<circle cx="1266.06" cy="294.221" r="2.58013" fill="#2BD4D9"/>
<circle cx="1281.54" cy="294.221" r="2.58013" fill="#2BD4D9"/>
<circle cx="1297.02" cy="294.221" r="2.58013" fill="#2BD4D9"/>
<circle cx="1312.5" cy="294.221" r="2.58013" fill="#2BD4D9"/>
<circle cx="1327.98" cy="294.221" r="2.58013" fill="#2BD4D9"/>
<circle cx="1343.46" cy="294.221" r="2.58013" fill="#2BD4D9"/>
<circle cx="1358.95" cy="294.221" r="2.58013" fill="#2BD4D9"/>
<circle cx="1374.43" cy="294.221" r="2.58013" fill="#2BD4D9"/>
<circle cx="1389.91" cy="294.221" r="2.58013" fill="#2BD4D9"/>
<circle cx="1405.39" cy="294.221" r="2.58013" fill="#2BD4D9"/>
<circle cx="1420.87" cy="294.221" r="2.58013" fill="#2BD4D9"/>
<circle cx="1250.58" cy="314.861" r="2.58013" fill="#2BD4D9"/>
<circle cx="1266.06" cy="314.861" r="2.58013" fill="#2BD4D9"/>
<circle cx="1281.54" cy="314.861" r="2.58013" fill="#2BD4D9"/>
<circle cx="1297.02" cy="314.861" r="2.58013" fill="#2BD4D9"/>
<circle cx="1312.5" cy="314.861" r="2.58013" fill="#2BD4D9"/>
<circle cx="1327.98" cy="314.861" r="2.58013" fill="#2BD4D9"/>
<circle cx="1343.46" cy="314.861" r="2.58013" fill="#2BD4D9"/>
<circle cx="1358.95" cy="314.861" r="2.58013" fill="#2BD4D9"/>
<circle cx="1374.43" cy="314.861" r="2.58013" fill="#2BD4D9"/>
<circle cx="1389.91" cy="314.861" r="2.58013" fill="#2BD4D9"/>
<circle cx="1405.39" cy="314.861" r="2.58013" fill="#2BD4D9"/>
<circle cx="1420.87" cy="314.861" r="2.58013" fill="#2BD4D9"/>
<circle cx="1250.58" cy="335.502" r="2.58013" fill="#2BD4D9"/>
<circle cx="1266.06" cy="335.502" r="2.58013" fill="#2BD4D9"/>
<circle cx="1281.54" cy="335.502" r="2.58013" fill="#2BD4D9"/>
<circle cx="1297.02" cy="335.502" r="2.58013" fill="#2BD4D9"/>
<circle cx="1312.5" cy="335.502" r="2.58013" fill="#2BD4D9"/>
<circle cx="1327.98" cy="335.502" r="2.58013" fill="#2BD4D9"/>
<circle cx="1343.46" cy="335.502" r="2.58013" fill="#2BD4D9"/>
<circle cx="1358.95" cy="335.502" r="2.58013" fill="#2BD4D9"/>
<circle cx="1374.43" cy="335.502" r="2.58013" fill="#2BD4D9"/>
<circle cx="1389.91" cy="335.502" r="2.58013" fill="#2BD4D9"/>
<circle cx="1405.39" cy="335.502" r="2.58013" fill="#2BD4D9"/>
<circle cx="1420.87" cy="335.502" r="2.58013" fill="#2BD4D9"/>
<circle cx="1250.58" cy="356.143" r="2.58013" fill="#2BD4D9"/>
<circle cx="1266.06" cy="356.143" r="2.58013" fill="#2BD4D9"/>
<circle cx="1281.54" cy="356.143" r="2.58013" fill="#2BD4D9"/>
<circle cx="1297.02" cy="356.143" r="2.58013" fill="#2BD4D9"/>
<circle cx="1312.5" cy="356.143" r="2.58013" fill="#2BD4D9"/>
<circle cx="1327.98" cy="356.143" r="2.58013" fill="#2BD4D9"/>
<circle cx="1343.46" cy="356.143" r="2.58013" fill="#2BD4D9"/>
<circle cx="1358.95" cy="356.143" r="2.58013" fill="#2BD4D9"/>
<circle cx="1374.43" cy="356.143" r="2.58013" fill="#2BD4D9"/>
<circle cx="1389.91" cy="356.143" r="2.58013" fill="#2BD4D9"/>
<circle cx="1405.39" cy="356.143" r="2.58013" fill="#2BD4D9"/>
<circle cx="1420.87" cy="356.143" r="2.58013" fill="#2BD4D9"/>
<circle cx="1250.58" cy="376.787" r="2.58013" fill="#2BD4D9"/>
<circle cx="1266.06" cy="376.787" r="2.58013" fill="#2BD4D9"/>
<circle cx="1281.54" cy="376.787" r="2.58013" fill="#2BD4D9"/>
<circle cx="1297.02" cy="376.787" r="2.58013" fill="#2BD4D9"/>
<circle cx="1312.5" cy="376.787" r="2.58013" fill="#2BD4D9"/>
<circle cx="1327.98" cy="376.787" r="2.58013" fill="#2BD4D9"/>
<circle cx="1343.46" cy="376.787" r="2.58013" fill="#2BD4D9"/>
<circle cx="1358.95" cy="376.787" r="2.58013" fill="#2BD4D9"/>
<circle cx="1374.43" cy="376.787" r="2.58013" fill="#2BD4D9"/>
<circle cx="1389.91" cy="376.787" r="2.58013" fill="#2BD4D9"/>
<circle cx="1405.39" cy="376.787" r="2.58013" fill="#2BD4D9"/>
<circle cx="1420.87" cy="376.787" r="2.58013" fill="#2BD4D9"/>
<circle cx="1250.58" cy="397.424" r="2.58013" fill="#2BD4D9"/>
<circle cx="1266.06" cy="397.424" r="2.58013" fill="#2BD4D9"/>
<circle cx="1281.54" cy="397.424" r="2.58013" fill="#2BD4D9"/>
<circle cx="1297.02" cy="397.424" r="2.58013" fill="#2BD4D9"/>
<circle cx="1312.5" cy="397.424" r="2.58013" fill="#2BD4D9"/>
<circle cx="1327.98" cy="397.424" r="2.58013" fill="#2BD4D9"/>
<circle cx="1343.46" cy="397.424" r="2.58013" fill="#2BD4D9"/>
<circle cx="1358.95" cy="397.424" r="2.58013" fill="#2BD4D9"/>
<circle cx="1374.43" cy="397.424" r="2.58013" fill="#2BD4D9"/>
<circle cx="1389.91" cy="397.424" r="2.58013" fill="#2BD4D9"/>
<circle cx="1405.39" cy="397.424" r="2.58013" fill="#2BD4D9"/>
<circle cx="1420.87" cy="397.424" r="2.58013" fill="#2BD4D9"/>
<circle cx="1250.58" cy="418.065" r="2.58013" fill="#2BD4D9"/>
<circle cx="1266.06" cy="418.065" r="2.58013" fill="#2BD4D9"/>
<circle cx="1281.54" cy="418.065" r="2.58013" fill="#2BD4D9"/>
<circle cx="1297.02" cy="418.065" r="2.58013" fill="#2BD4D9"/>
<circle cx="1312.5" cy="418.065" r="2.58013" fill="#2BD4D9"/>
<circle cx="1327.98" cy="418.065" r="2.58013" fill="#2BD4D9"/>
<circle cx="1343.46" cy="418.065" r="2.58013" fill="#2BD4D9"/>
<circle cx="1358.95" cy="418.065" r="2.58013" fill="#2BD4D9"/>
<circle cx="1374.43" cy="418.065" r="2.58013" fill="#2BD4D9"/>
<circle cx="1389.91" cy="418.065" r="2.58013" fill="#2BD4D9"/>
<circle cx="1405.39" cy="418.065" r="2.58013" fill="#2BD4D9"/>
<circle cx="1420.87" cy="418.065" r="2.58013" fill="#2BD4D9"/>
</g>
<g opacity="0.1">
<circle cx="1.06084" cy="273.58" r="2.58013" fill="#2BD4D9"/>
<circle cx="16.5416" cy="273.58" r="2.58013" fill="#2BD4D9"/>
<circle cx="32.0225" cy="273.58" r="2.58013" fill="#2BD4D9"/>
<circle cx="47.5032" cy="273.58" r="2.58013" fill="#2BD4D9"/>
<circle cx="62.9839" cy="273.58" r="2.58013" fill="#2BD4D9"/>
<circle cx="78.4647" cy="273.58" r="2.58013" fill="#2BD4D9"/>
<circle cx="93.9456" cy="273.58" r="2.58013" fill="#2BD4D9"/>
<circle cx="109.426" cy="273.58" r="2.58013" fill="#2BD4D9"/>
<circle cx="124.907" cy="273.58" r="2.58013" fill="#2BD4D9"/>
<circle cx="140.388" cy="273.58" r="2.58013" fill="#2BD4D9"/>
<circle cx="155.869" cy="273.58" r="2.58013" fill="#2BD4D9"/>
<circle cx="1.06084" cy="294.221" r="2.58013" fill="#2BD4D9"/>
<circle cx="16.5416" cy="294.221" r="2.58013" fill="#2BD4D9"/>
<circle cx="32.0225" cy="294.221" r="2.58013" fill="#2BD4D9"/>
<circle cx="47.5032" cy="294.221" r="2.58013" fill="#2BD4D9"/>
<circle cx="62.9839" cy="294.221" r="2.58013" fill="#2BD4D9"/>
<circle cx="78.4649" cy="294.221" r="2.58013" fill="#2BD4D9"/>
<circle cx="93.9454" cy="294.221" r="2.58013" fill="#2BD4D9"/>
<circle cx="109.426" cy="294.221" r="2.58013" fill="#2BD4D9"/>
<circle cx="124.907" cy="294.221" r="2.58013" fill="#2BD4D9"/>
<circle cx="140.388" cy="294.221" r="2.58013" fill="#2BD4D9"/>
<circle cx="155.869" cy="294.221" r="2.58013" fill="#2BD4D9"/>
<circle cx="1.06084" cy="314.861" r="2.58013" fill="#2BD4D9"/>
<circle cx="16.5416" cy="314.861" r="2.58013" fill="#2BD4D9"/>
<circle cx="32.0225" cy="314.861" r="2.58013" fill="#2BD4D9"/>
<circle cx="47.5032" cy="314.861" r="2.58013" fill="#2BD4D9"/>
<circle cx="62.9839" cy="314.861" r="2.58013" fill="#2BD4D9"/>
<circle cx="78.4649" cy="314.861" r="2.58013" fill="#2BD4D9"/>
<circle cx="93.9454" cy="314.861" r="2.58013" fill="#2BD4D9"/>
<circle cx="109.426" cy="314.861" r="2.58013" fill="#2BD4D9"/>
<circle cx="124.907" cy="314.861" r="2.58013" fill="#2BD4D9"/>
<circle cx="140.388" cy="314.861" r="2.58013" fill="#2BD4D9"/>
<circle cx="155.869" cy="314.861" r="2.58013" fill="#2BD4D9"/>
<circle cx="1.06084" cy="335.502" r="2.58013" fill="#2BD4D9"/>
<circle cx="16.5416" cy="335.502" r="2.58013" fill="#2BD4D9"/>
<circle cx="32.0225" cy="335.502" r="2.58013" fill="#2BD4D9"/>
<circle cx="47.5032" cy="335.502" r="2.58013" fill="#2BD4D9"/>
<circle cx="62.9839" cy="335.502" r="2.58013" fill="#2BD4D9"/>
<circle cx="78.4649" cy="335.502" r="2.58013" fill="#2BD4D9"/>
<circle cx="93.9454" cy="335.502" r="2.58013" fill="#2BD4D9"/>
<circle cx="109.426" cy="335.502" r="2.58013" fill="#2BD4D9"/>
<circle cx="124.907" cy="335.502" r="2.58013" fill="#2BD4D9"/>
<circle cx="140.388" cy="335.502" r="2.58013" fill="#2BD4D9"/>
<circle cx="155.869" cy="335.502" r="2.58013" fill="#2BD4D9"/>
<circle cx="1.06084" cy="356.143" r="2.58013" fill="#2BD4D9"/>
<circle cx="16.5416" cy="356.143" r="2.58013" fill="#2BD4D9"/>
<circle cx="32.0225" cy="356.143" r="2.58013" fill="#2BD4D9"/>
<circle cx="47.5032" cy="356.143" r="2.58013" fill="#2BD4D9"/>
<circle cx="62.9839" cy="356.143" r="2.58013" fill="#2BD4D9"/>
<circle cx="78.4649" cy="356.143" r="2.58013" fill="#2BD4D9"/>
<circle cx="93.9454" cy="356.143" r="2.58013" fill="#2BD4D9"/>
<circle cx="109.426" cy="356.143" r="2.58013" fill="#2BD4D9"/>
<circle cx="124.907" cy="356.143" r="2.58013" fill="#2BD4D9"/>
<circle cx="140.388" cy="356.143" r="2.58013" fill="#2BD4D9"/>
<circle cx="155.869" cy="356.143" r="2.58013" fill="#2BD4D9"/>
<circle cx="1.06084" cy="376.787" r="2.58013" fill="#2BD4D9"/>
<circle cx="16.5416" cy="376.787" r="2.58013" fill="#2BD4D9"/>
<circle cx="32.0225" cy="376.787" r="2.58013" fill="#2BD4D9"/>
<circle cx="47.5032" cy="376.787" r="2.58013" fill="#2BD4D9"/>
<circle cx="62.9839" cy="376.787" r="2.58013" fill="#2BD4D9"/>
<circle cx="78.4649" cy="376.787" r="2.58013" fill="#2BD4D9"/>
<circle cx="93.9454" cy="376.787" r="2.58013" fill="#2BD4D9"/>
<circle cx="109.426" cy="376.787" r="2.58013" fill="#2BD4D9"/>
<circle cx="124.907" cy="376.787" r="2.58013" fill="#2BD4D9"/>
<circle cx="140.388" cy="376.787" r="2.58013" fill="#2BD4D9"/>
<circle cx="155.869" cy="376.787" r="2.58013" fill="#2BD4D9"/>
<circle cx="1.06084" cy="397.424" r="2.58013" fill="#2BD4D9"/>
<circle cx="16.5416" cy="397.424" r="2.58013" fill="#2BD4D9"/>
<circle cx="32.0225" cy="397.424" r="2.58013" fill="#2BD4D9"/>
<circle cx="47.5032" cy="397.424" r="2.58013" fill="#2BD4D9"/>
<circle cx="62.9839" cy="397.424" r="2.58013" fill="#2BD4D9"/>
<circle cx="78.4649" cy="397.424" r="2.58013" fill="#2BD4D9"/>
<circle cx="93.9454" cy="397.424" r="2.58013" fill="#2BD4D9"/>
<circle cx="109.426" cy="397.424" r="2.58013" fill="#2BD4D9"/>
<circle cx="124.907" cy="397.424" r="2.58013" fill="#2BD4D9"/>
<circle cx="140.388" cy="397.424" r="2.58013" fill="#2BD4D9"/>
<circle cx="155.869" cy="397.424" r="2.58013" fill="#2BD4D9"/>
<circle cx="1.06084" cy="418.065" r="2.58013" fill="#2BD4D9"/>
<circle cx="16.5416" cy="418.065" r="2.58013" fill="#2BD4D9"/>
<circle cx="32.0225" cy="418.065" r="2.58013" fill="#2BD4D9"/>
<circle cx="47.5032" cy="418.065" r="2.58013" fill="#2BD4D9"/>
<circle cx="62.9839" cy="418.065" r="2.58013" fill="#2BD4D9"/>
<circle cx="78.4649" cy="418.065" r="2.58013" fill="#2BD4D9"/>
<circle cx="93.9454" cy="418.065" r="2.58013" fill="#2BD4D9"/>
<circle cx="109.426" cy="418.065" r="2.58013" fill="#2BD4D9"/>
<circle cx="124.907" cy="418.065" r="2.58013" fill="#2BD4D9"/>
<circle cx="140.388" cy="418.065" r="2.58013" fill="#2BD4D9"/>
<circle cx="155.869" cy="418.065" r="2.58013" fill="#2BD4D9"/>
</g>
<rect opacity="0.5" x="214.949" y="171.949" width="78.1734" height="56.5067" rx="3.7977" stroke="#F3F3F3" stroke-width="1.89885"/>
<rect x="227.125" y="196.535" width="13.4647" height="18.8374" rx="2.58027" fill="#D4F7F8"/>
<rect x="247.303" y="185.035" width="13.4647" height="30.3356" rx="2.58027" fill="#E7FAFB"/>
<rect x="267.482" y="189.93" width="13.4647" height="25.4427" rx="2.58027" fill="#DDECF2"/>
<rect opacity="0.5" x="1159.95" y="497.949" width="78.1734" height="56.5067" rx="3.7977" stroke="#F3F3F3" stroke-width="1.89885"/>
<g opacity="0.5" clip-path="url(#clip0_4825_27042)">
<path d="M1203.58 536.953V534.767C1203.58 533.607 1203.12 532.495 1202.3 531.675C1201.48 530.855 1200.37 530.395 1199.21 530.395H1190.47C1189.31 530.395 1188.19 530.855 1187.37 531.675C1186.55 532.495 1186.09 533.607 1186.09 534.767V536.953" stroke="#A0F2F4" stroke-width="2.18604" stroke-linecap="round" stroke-linejoin="round"/>
<path d="M1194.84 526.025C1197.25 526.025 1199.21 524.068 1199.21 521.653C1199.21 519.239 1197.25 517.281 1194.84 517.281C1192.42 517.281 1190.47 519.239 1190.47 521.653C1190.47 524.068 1192.42 526.025 1194.84 526.025Z" stroke="#A0F2F4" stroke-width="2.18604" stroke-linecap="round" stroke-linejoin="round"/>
<path d="M1210.14 536.955V534.769C1210.14 533.8 1209.82 532.859 1209.22 532.094C1208.63 531.328 1207.8 530.781 1206.86 530.539" stroke="#82B9EE" stroke-width="2.18604" stroke-linecap="round" stroke-linejoin="round"/>
<path d="M1202.49 517.422C1203.43 517.663 1204.26 518.21 1204.86 518.976C1205.45 519.743 1205.78 520.687 1205.78 521.657C1205.78 522.628 1205.45 523.571 1204.86 524.338C1204.26 525.105 1203.43 525.652 1202.49 525.893" stroke="#82B9EE" stroke-width="2.18604" stroke-linecap="round" stroke-linejoin="round"/>
</g>
<rect opacity="0.5" x="79.9494" y="868.949" width="99.9827" height="77.5477" rx="3.7977" stroke="#F0F0F0" stroke-width="1.89885"/>
<path d="M141.329 907.726C142.538 907.726 143.696 908.206 144.551 909.06C145.405 909.915 145.885 911.073 145.885 912.282L145.885 925.948C145.885 927.156 145.405 928.315 144.551 929.169C143.696 930.023 142.538 930.503 141.329 930.503L118.552 930.503C117.344 930.503 116.186 930.023 115.331 929.169C114.477 928.315 113.997 927.156 113.997 925.948L113.997 912.282C113.997 911.073 114.477 909.915 115.331 909.06C116.186 908.206 117.344 907.726 118.552 907.726L118.552 896.338C118.552 893.317 119.752 890.421 121.888 888.285C124.024 886.149 126.921 884.949 129.941 884.949C132.961 884.949 135.858 886.149 137.994 888.285C140.13 890.421 141.329 893.317 141.329 896.338L141.329 907.726ZM129.941 923.67C131.149 923.67 132.308 923.19 133.162 922.336C134.016 921.481 134.496 920.323 134.496 919.115C134.496 917.906 134.016 916.748 133.162 915.893C132.308 915.039 131.149 914.559 129.941 914.559C128.733 914.559 127.574 915.039 126.72 915.893C125.865 916.748 125.386 917.906 125.386 919.115C125.386 920.323 125.865 921.481 126.72 922.336C127.574 923.19 128.733 923.67 129.941 923.67ZM136.774 907.726L136.774 896.338C136.774 894.525 136.054 892.787 134.773 891.506C133.491 890.225 131.753 889.505 129.941 889.505C128.129 889.505 126.391 890.225 125.109 891.506C123.828 892.787 123.108 894.525 123.108 896.338L123.108 907.726L136.774 907.726Z" fill="url(#paint2_linear_4825_27042)"/>
<rect opacity="0.5" x="99.8923" y="876.043" width="60.7536" height="58.4305" fill="white"/>
<defs>
<linearGradient id="paint0_linear_4825_27042" x1="434" y1="396.501" x2="314.5" y2="695.001" gradientUnits="userSpaceOnUse">
<stop stop-color="#2BD4D9"/>
<stop offset="1" stop-color="#5433ED"/>
</linearGradient>
<linearGradient id="paint1_linear_4825_27042" x1="1229.5" y1="611.502" x2="1014" y2="768.502" gradientUnits="userSpaceOnUse">
<stop stop-color="#2BD4D9"/>
<stop offset="1" stop-color="#5433ED"/>
</linearGradient>
<linearGradient id="paint2_linear_4825_27042" x1="129.941" y1="884.949" x2="129.941" y2="930.503" gradientUnits="userSpaceOnUse">
<stop stop-color="#5433ED"/>
<stop offset="1" stop-color="#5433ED" stop-opacity="0.22"/>
</linearGradient>
<clipPath id="clip0_4825_27042">
<rect width="26.2324" height="26.2324" fill="white" transform="translate(1185 514)"/>
</clipPath>
</defs>
</svg>