<svg width="811" height="632" viewBox="0 0 811 632" fill="none" xmlns="http://www.w3.org/2000/svg">
<path d="M382.219 411.265C382.687 405.179 388.076 400.205 394.167 400.205H527.586L537.016 386.161C539.3 382.767 543.048 380.719 546.972 380.719H646.012C652.103 380.719 656.672 385.693 656.203 391.779L647.418 551.242L646.656 561.014C646.188 567.1 640.799 572.074 634.708 572.074H380.52C374.429 572.074 369.861 567.1 370.329 561.014L371.091 551.242L381.34 422.208L382.219 411.265Z" fill="#5633EF" stroke="#5633EF" stroke-miterlimit="10"/>
<path d="M642.732 389.969C643.611 389.969 644.431 390.32 645.017 390.964C645.602 391.607 645.895 392.426 645.895 393.304L638.691 544.165H393.289L400.61 389.969H642.732Z" fill="#5633EF" stroke="#5633EF" stroke-miterlimit="10"/>
<path d="M457.128 132.836H266.663C281.071 132.836 296.123 144.481 300.34 158.877L374.664 413.783H565.187L490.805 158.935C486.647 144.54 471.536 132.836 457.128 132.836Z" fill="white" stroke="#5633EF" stroke-miterlimit="10"/>
<path d="M270.119 132.836C255.711 132.836 248.214 147.231 252.431 161.627L253.719 165.665C257.936 180.06 249.62 191.706 235.212 191.706H425.735C440.143 191.706 448.402 180.06 444.243 165.665L443.072 161.627L442.31 158.935C438.093 144.54 446.293 132.894 460.701 132.894H270.119V132.836Z" fill="#5633EF" stroke="#5633EF" stroke-miterlimit="10"/>
<path d="M482.664 233.956H348.776L347.546 229.859H481.493L482.664 233.956Z" fill="#2CD3DB"/>
<path d="M469.135 256.776H355.395L354.223 252.68H467.905L469.135 256.776Z" fill="#2CD3DB"/>
<path d="M495.959 279.542H362.071L360.841 275.445H494.788L495.959 279.542Z" fill="#2CD3DB"/>
<path d="M482.664 302.362H368.69L367.518 298.266H481.493L482.664 302.362Z" fill="#2CD3DB"/>
<path d="M509.254 325.19H375.366L374.195 321.094H508.083L509.254 325.19Z" fill="#2CD3DB"/>
<path d="M471.536 347.424L382.043 348.01L380.813 343.913L470.306 343.328L471.536 347.424Z" fill="#2CD3DB"/>
<path d="M546.153 418.408H585.452L583.812 413.492H544.513L546.153 418.408Z" fill="white"/>
<path d="M565.305 429.056H588.966L587.385 424.141H563.665L565.305 429.056Z" fill="white"/>
<path d="M561.615 439.705H592.539L590.899 434.789H559.975L561.615 439.705Z" fill="white"/>
<path d="M313.049 243.317C312.757 243.317 312.464 243.2 312.288 243.024C312.229 242.965 312.171 242.907 312.171 242.848C312.112 242.79 312.112 242.731 312.054 242.673C312.054 242.614 311.995 242.556 311.995 242.497C311.995 242.439 311.995 242.38 311.995 242.263C311.995 242.205 311.995 242.146 311.995 242.029C311.995 241.971 312.054 241.912 312.054 241.854C312.054 241.795 312.112 241.737 312.171 241.678C312.229 241.62 312.229 241.561 312.288 241.503C312.698 241.093 313.401 241.093 313.811 241.503C313.986 241.678 314.104 241.971 314.104 242.263C314.104 242.556 313.986 242.848 313.811 243.024C313.752 243.083 313.694 243.141 313.635 243.141C313.576 243.2 313.518 243.2 313.459 243.258C313.401 243.258 313.342 243.317 313.284 243.317C313.225 243.258 313.166 243.317 313.049 243.317Z" fill="white"/>
<path d="M313.225 246.712C313.049 246.126 313.401 245.541 313.986 245.366C314.572 245.19 315.158 245.541 315.334 246.126C315.509 246.712 315.158 247.297 314.572 247.472C314.455 247.472 314.396 247.531 314.279 247.531C313.811 247.472 313.401 247.18 313.225 246.712Z" fill="white"/>
<path d="M315.509 251.629C315.451 251.629 315.392 251.629 315.275 251.629C315.216 251.629 315.158 251.571 315.099 251.571C315.041 251.571 314.982 251.512 314.924 251.454C314.865 251.395 314.806 251.395 314.748 251.337C314.689 251.278 314.631 251.22 314.631 251.161C314.572 251.103 314.572 251.044 314.514 250.986C314.514 250.927 314.455 250.869 314.455 250.81C314.455 250.752 314.455 250.693 314.455 250.576C314.455 250.518 314.455 250.459 314.455 250.342C314.455 250.283 314.514 250.225 314.514 250.166C314.514 250.108 314.572 250.049 314.631 249.991C314.689 249.932 314.689 249.874 314.748 249.815C314.806 249.757 314.865 249.698 314.924 249.698C314.982 249.64 315.041 249.64 315.099 249.581C315.158 249.581 315.216 249.523 315.275 249.523C315.626 249.464 315.978 249.581 316.271 249.815C316.329 249.874 316.388 249.932 316.388 249.991C316.446 250.049 316.446 250.108 316.505 250.166C316.505 250.225 316.564 250.283 316.564 250.342C316.564 250.4 316.564 250.459 316.564 250.576C316.564 250.869 316.446 251.161 316.271 251.337C316.212 251.395 316.154 251.454 316.095 251.454C316.036 251.512 315.978 251.512 315.919 251.571C315.861 251.571 315.802 251.629 315.744 251.629C315.626 251.629 315.568 251.629 315.509 251.629Z" fill="white"/>
<path d="M611.454 197.092L603.254 168.711H583.341L591.482 197.092H585.098L606.709 214.824L617.779 197.092H611.454Z" fill="#211D53"/>
<path d="M394.818 67.5919L391.831 57H380.586L383.631 67.5919H380L392.182 77.54L398.449 67.5919H394.818Z" fill="#211D53"/>
<path d="M381.909 103.411L378.336 92H362.523L366.095 103.411H361L378.161 117.456L386.946 103.411H381.909Z" fill="#211D53"/>
<path d="M123.033 247.125C126.43 247.125 130.061 249.875 131.057 253.269L141.892 288.907C142.946 292.301 141.013 295.052 137.616 295.052H84.319C80.922 295.052 77.2908 292.301 76.2951 288.907L65.4599 253.269C64.4057 249.875 66.3385 247.125 69.7354 247.125H123.033Z" fill="white" stroke="#5633EF" stroke-miterlimit="10"/>
<path d="M98.3755 281.009L92.2258 260.938L112.725 271.003L98.3755 281.009Z" fill="#211D53"/>
<path d="M136.85 224.411L133.336 213H117.523L121.037 224.411H116L133.102 238.456L141.887 224.411H136.85Z" fill="#211D53"/>
<path d="M679.626 422.39H560.087L526 312.375H645.597L679.626 422.39Z" fill="white" stroke="#5633EF" stroke-miterlimit="10"/>
<path d="M588.551 357.555L563.132 395.475H637.397L588.551 357.555Z" fill="#5633EF" stroke="#5633EF" stroke-miterlimit="10"/>
<path d="M627.734 370.25L610.866 395.471H660.181L627.734 370.25Z" fill="#5633EF" stroke="#5633EF" stroke-miterlimit="10"/>
<path d="M620.559 365.79C623.548 362.306 622.13 356.191 617.39 352.131C612.65 348.072 606.385 347.606 603.396 351.09C600.406 354.574 601.825 360.689 606.565 364.749C611.304 368.808 617.57 369.274 620.559 365.79Z" fill="#2CD3DB"/>
<path d="M661.118 396.23H562.371L562.254 395.879L539.588 322.672H638.276L638.393 323.023L661.118 396.23ZM563.191 395.176H659.654L637.515 323.725H541.052L563.191 395.176Z" fill="#2CD3DB"/>
<path d="M363.711 297.33H272.988L247.16 213.883H337.883L363.711 297.33Z" fill="white" stroke="#5633EF" stroke-miterlimit="10"/>
<path d="M294.6 248.117L275.331 276.908H331.674L294.6 248.117Z" fill="#5633EF" stroke="#5633EF" stroke-miterlimit="10"/>
<path d="M324.353 257.773L311.527 276.909H348.952L324.353 257.773Z" fill="#5633EF" stroke="#5633EF" stroke-miterlimit="10"/>
<path d="M318.95 254.406C321.223 251.756 320.14 247.102 316.53 244.01C312.92 240.918 308.151 240.56 305.877 243.21C303.604 245.86 304.687 250.514 308.297 253.606C311.907 256.698 316.676 257.056 318.95 254.406Z" fill="#2CD3DB"/>
<path d="M349.655 277.495H274.746L274.628 277.202L257.409 221.609H332.318L332.436 221.902L349.655 277.495ZM275.331 276.675H348.542L331.733 222.429H258.522L275.331 276.675Z" fill="#2CD3DB"/>
<path d="M705.749 177.544H597.749L567 78.1797H675.001L705.749 177.544Z" fill="white" stroke="#5633EF" stroke-miterlimit="10"/>
<path d="M623.519 118.969L600.56 153.202H667.621L623.519 118.969Z" fill="#5633EF" stroke="#5633EF" stroke-miterlimit="10"/>
<path d="M658.894 130.492L643.666 153.197H688.179L658.894 130.492Z" fill="#5633EF" stroke="#5633EF" stroke-miterlimit="10"/>
<path d="M652.365 126.395C655.06 123.254 653.78 117.741 649.507 114.081C645.234 110.422 639.586 110.001 636.891 113.141C634.197 116.282 635.476 121.795 639.749 125.455C644.022 129.114 649.671 129.535 652.365 126.395Z" fill="#2CD3DB"/>
<path d="M689.057 153.899H599.857L599.74 153.548L579.241 87.4219H668.382L668.499 87.773L689.057 153.899ZM600.618 152.963H687.769L667.797 88.4167H580.588L600.618 152.963Z" fill="#2CD3DB"/>
<path d="M364.707 561.016C366.64 567.102 373.199 572.076 379.291 572.076H637.871C643.962 572.076 647.359 567.102 645.426 561.016L597.869 411.208C595.936 405.123 589.376 400.148 583.285 400.148H324.705C318.613 400.148 315.216 405.123 317.149 411.208L364.707 561.016Z" fill="#2CD3DB"/>
<path d="M348.483 292.766C350.65 292.766 352.935 294.521 353.579 296.686L360.431 319.333C361.076 321.498 359.846 323.254 357.679 323.254H323.885C321.718 323.254 319.433 321.498 318.789 319.333L311.878 296.686C311.234 294.521 312.464 292.766 314.631 292.766H348.483Z" fill="white" stroke="#5633EF" stroke-miterlimit="10"/>
<path d="M332.787 314.304L328.921 301.547L341.924 307.925L332.787 314.304Z" fill="#211D53"/>
<path d="M488.17 199.726L484.304 186.969L497.306 193.347L488.17 199.726ZM486.061 189.017L488.814 197.97L495.257 193.464L486.061 189.017Z" fill="white"/>
<path d="M523.131 214.921C531.121 205.632 527.377 189.324 514.768 178.496C502.159 167.668 485.459 166.422 477.468 175.711C469.478 185.001 473.222 201.309 485.831 212.136C498.44 222.964 515.14 224.211 523.131 214.921Z" fill="#2CD3DB"/>
<path d="M502.163 201.539C505.385 201.539 507.2 198.965 506.205 195.746L502.398 183.34C501.402 180.122 498.005 177.547 494.842 177.547C491.621 177.547 489.805 180.122 490.801 183.34L494.608 195.746C495.545 198.965 498.942 201.539 502.163 201.539Z" fill="white"/>
<path d="M509.309 189.547H506.38L507.259 192.473H508.723L509.484 195.048C511.066 200.197 508.137 204.352 502.983 204.352C497.829 204.352 492.382 200.197 490.86 195.048L490.098 192.473H491.562L490.684 189.547H487.755C486.935 189.547 486.467 190.191 486.76 191.01L487.99 195.048C489.864 201.309 496.189 206.459 502.456 207.219L503.335 210.204H500.231C499.411 210.204 498.942 210.848 499.235 211.667C499.469 212.486 500.348 213.13 501.168 213.13H509.953C510.773 213.13 511.241 212.486 510.949 211.667C510.714 210.848 509.836 210.204 509.016 210.204H506.263L505.385 207.219C511.241 206.517 514.346 201.309 512.471 195.048L511.241 191.01C510.949 190.191 510.07 189.547 509.309 189.547Z" fill="white"/>
<path d="M564.704 235.359H529.094C526.81 235.359 525.521 237.232 526.166 239.514L531.905 259.293C532.55 261.576 534.951 263.448 537.235 263.448H542.858L544.732 269.944L548.832 263.448H572.786C575.071 263.448 576.359 261.576 575.715 259.293L569.975 239.514C569.389 237.232 566.988 235.359 564.704 235.359Z" fill="#211D53"/>
<path d="M553.927 249.582C554.396 251.162 553.459 252.508 551.877 252.508C550.296 252.508 548.597 251.221 548.129 249.582C547.66 248.002 548.597 246.656 550.179 246.656C551.819 246.656 553.517 247.944 553.927 249.582Z" fill="white"/>
<path d="M543.795 249.582C544.263 251.162 543.326 252.508 541.745 252.508C540.164 252.508 538.465 251.221 537.997 249.582C537.528 248.002 538.465 246.656 540.046 246.656C541.628 246.656 543.326 247.944 543.795 249.582Z" fill="white"/>
<path d="M564.118 249.582C564.587 251.162 563.65 252.508 562.068 252.508C560.487 252.508 558.788 251.221 558.32 249.582C557.851 248.002 558.788 246.656 560.37 246.656C561.951 246.656 563.65 247.944 564.118 249.582Z" fill="white"/>
<path d="M228.535 94.5078H208.446V95.5611H228.535V94.5078Z" fill="#2CD3DB"/>
<path d="M229.823 99.0156H209.734V100.069H229.823V99.0156Z" fill="#2CD3DB"/>
<path d="M231.053 103.461H210.964V104.514H231.053V103.461Z" fill="#2CD3DB"/>
<path d="M232.283 107.906H212.194V108.96H232.283V107.906Z" fill="#2CD3DB"/>
<path d="M233.572 112.352H213.483V113.405H233.572V112.352Z" fill="#2CD3DB"/>
<path d="M231.463 90.4107H225.372C225.138 90.4107 224.903 90.2352 224.845 90.0011L223.146 83.9152C223.088 83.6811 223.146 83.447 223.381 83.33C223.556 83.2129 223.849 83.2129 224.025 83.33L231.873 89.4159C232.049 89.5329 232.107 89.8255 232.049 90.0011C231.932 90.2352 231.697 90.4107 231.463 90.4107ZM225.782 89.3574H229.94L224.669 85.2026L225.782 89.3574Z" fill="#2CD3DB"/>
<path d="M241.42 123.242H211.433L200.188 83.2734H223.849L231.932 89.5349L241.42 123.242ZM212.253 122.13H240.014L230.995 90.1786L223.439 84.3268H201.535L212.253 122.13Z" fill="#2CD3DB"/>
<path d="M702.315 233.836H686.618V234.889H702.315V233.836Z" fill="#2CD3DB"/>
<path d="M703.252 237.352H687.555V238.405H703.252V237.352Z" fill="#2CD3DB"/>
<path d="M704.247 240.805H688.551V241.858H704.247V240.805Z" fill="#2CD3DB"/>
<path d="M705.243 244.258H689.547V245.311H705.243V244.258Z" fill="#2CD3DB"/>
<path d="M706.239 247.766H690.542V248.819H706.239V247.766Z" fill="#2CD3DB"/>
<path d="M704.54 230.854H699.796C699.562 230.854 699.328 230.678 699.269 230.444L697.922 225.704C697.863 225.47 697.922 225.236 698.156 225.119C698.332 225.002 698.625 225.002 698.801 225.119L704.892 229.859C705.067 229.976 705.126 230.269 705.067 230.444C705.009 230.737 704.774 230.854 704.54 230.854ZM700.206 229.801H703.017L699.445 226.992L700.206 229.801Z" fill="#2CD3DB"/>
<path d="M712.506 256.487H688.844L680 225.062H698.683L705.067 230.037L712.506 256.487ZM689.664 255.375H711.1L704.13 230.622L698.332 226.057H681.464L689.664 255.375Z" fill="#2CD3DB"/>
<path d="M229.648 154.959H175.413L159.951 105.102H214.185L229.648 154.959Z" fill="white" stroke="#5633EF" stroke-miterlimit="10"/>
<path d="M188.357 125.586L176.819 142.79H210.496L188.357 125.586Z" fill="#5633EF" stroke="#5633EF" stroke-miterlimit="10"/>
<path d="M206.103 131.32L198.43 142.79H220.862L206.103 131.32Z" fill="#5633EF" stroke="#5633EF" stroke-miterlimit="10"/>
<path d="M202.855 129.313C204.203 127.742 203.543 124.969 201.382 123.118C199.221 121.267 196.377 121.039 195.03 122.61C193.682 124.18 194.342 126.954 196.503 128.805C198.664 130.655 201.508 130.883 202.855 129.313Z" fill="#2CD3DB"/>
<path d="M221.272 143.141H176.467L176.409 142.965L166.101 109.727H210.906L210.964 109.902L221.272 143.141ZM176.819 142.614H220.569L210.554 110.195H166.803L176.819 142.614Z" fill="#2CD3DB"/>
<path d="M522.725 358.43C530.105 358.43 537.895 364.399 540.12 371.772L562.493 445.505C563.841 449.953 562.845 454.751 559.858 458.262L543.517 477.515L438.914 462.183C431.534 462.183 423.744 456.214 421.519 448.841L382.571 378.619L401.547 363.228C405.354 360.127 410.156 358.43 415.076 358.43H522.725Z" fill="#211D53"/>
<path d="M505.213 375.805C512.593 375.805 520.382 381.774 522.608 389.147L546.036 466.274C548.261 473.648 544.103 479.617 536.723 479.617H421.401C414.022 479.617 406.232 473.648 404.007 466.274L380.579 389.147C378.354 381.774 382.512 375.805 389.892 375.805H505.213Z" fill="white" stroke="#5633EF" stroke-miterlimit="10"/>
<path d="M413.26 370.54C409.922 370.949 407.521 370.949 406.115 367.848C401.488 357.724 392.937 334.434 400.902 313.835C406.174 300.201 415.72 289.55 432.822 284.459C463.981 275.155 493.148 293.764 505.038 304.004C508.493 306.989 508.552 312.255 505.213 315.357C502.343 317.99 498.009 318.049 495.081 315.532C494.261 314.83 492.328 313.25 492.328 313.25L495.784 311.144L490.63 307.632L487.291 309.446C487.291 309.446 485.886 308.51 485.71 308.393C474.172 300.786 457.011 293.295 439.206 299.206C426.673 303.361 418.649 309.856 415.193 319.161C409.512 334.668 415.837 350.644 420.347 361.586C422.163 366.444 418.297 369.896 413.26 370.54Z" fill="#5633EF"/>
<path d="M463.792 429.102C469.444 426.772 471.994 419.967 469.489 413.902C466.984 407.837 460.372 404.81 454.721 407.14C449.069 409.47 446.519 416.276 449.024 422.341C451.529 428.405 458.141 431.433 463.792 429.102Z" fill="#5633EF"/>
<path d="M466.148 449.773L458.007 423.674L463.044 422.094L471.653 449.773H466.148Z" fill="#5633EF"/>
<path d="M263.773 319.147C257.389 315.87 257.681 307.268 257.74 303.347C257.857 296.383 262.367 281.227 256.1 273.327C249.833 265.427 239.877 269.348 239.877 269.348L228.28 298.139C228.28 298.139 228.866 320.435 231.853 330.09C233.961 329.739 253.172 332.197 263.773 319.147Z" fill="#211D53"/>
<path d="M243.801 311.838C243.801 311.838 240.462 316.812 238.53 327.638C236.597 338.464 240.287 341.624 236.07 343.087C231.853 344.55 216.918 332.027 215.102 324.829C213.345 317.632 234.957 304.523 234.957 304.523L243.801 311.838Z" fill="white" stroke="#5633EF" stroke-miterlimit="10"/>
<path d="M240.931 318.092C233.551 314.464 222.423 300.829 222.423 300.829C223.946 300.771 231.033 296.733 232.614 297.494C236.655 299.483 241.926 305.101 244.503 309.373C243.215 313.469 241.985 316.103 240.931 318.092Z" fill="#5633EF"/>
<path d="M222.599 303.003C222.774 300.837 222.482 298.731 222.247 296.566C222.072 295.161 221.779 293.698 221.427 292.352C220.549 288.958 220.256 285.154 221.369 281.819C223.419 275.616 229.861 272.222 236.069 272.339C250.712 272.748 253.113 278.366 253.874 283.223C254.577 287.846 257.623 301.598 249.833 311.078C248.427 312.775 244.62 314.999 239.466 314.121C235.894 313.536 230.915 310.493 225.996 305.519" fill="white"/>
<path d="M222.599 303C222.774 300.484 222.364 298.026 222.013 295.568C221.603 293.11 220.725 290.711 220.549 288.253C220.315 285.737 220.549 283.162 221.486 280.822C223.419 276.082 228.28 272.98 233.258 272.278C235.777 271.927 238.295 272.161 240.814 272.453C243.273 272.804 245.792 273.331 248.076 274.443C253.582 277.135 253.992 281.875 254.812 287.317C255.866 294.69 255.69 302.824 251.532 309.262C249.599 312.773 245.851 314.704 241.926 314.645C235.484 314.704 230.154 309.847 225.937 305.516C229.627 308.735 233.61 312.012 238.354 313.475C242.981 314.762 248.603 313.299 250.946 308.852C254.987 302.532 255.163 294.632 254.167 287.376C253.406 282.167 253.113 277.603 247.842 274.97C244.562 273.331 240.755 272.804 237.065 272.629C230.974 272.102 224.356 275.087 221.896 280.88C220.9 283.162 220.666 285.679 220.842 288.136C220.959 290.653 221.837 292.993 222.189 295.451C222.482 298.026 222.833 300.484 222.599 303Z" fill="#5633EF"/>
<path d="M241.634 303.641C242.805 305.104 244.796 305.981 246.671 305.981C247.315 305.981 248.018 305.864 248.662 305.747C246.729 306.625 244.445 306.684 242.512 305.747C241.868 305.455 241.224 305.104 240.638 304.518C240.697 304.518 241.634 303.641 241.634 303.641Z" fill="#5633EF"/>
<path d="M240.111 305.633C240.404 304.287 241.341 303.058 242.629 302.648C241.809 303.76 241.224 304.755 240.111 305.633Z" fill="#5633EF"/>
<path d="M248.076 295.862C248.369 295.862 248.662 295.394 248.896 295.219C250.009 293.99 251.707 295.043 251.649 296.565C251.649 298.262 250.302 299.608 248.838 299.783C249.482 299.432 250.009 298.964 250.36 298.437C251.005 297.559 251.297 295.804 250.009 295.453C249.482 295.336 248.662 296.272 248.076 295.862Z" fill="#5633EF"/>
<path d="M255.924 391.422C255.924 391.422 266.818 393.821 271.328 394.348C275.838 394.875 286.614 393.412 290.948 392.885C295.283 392.358 298.68 391.598 299.558 389.901C300.437 388.204 300.378 384.517 295.692 384.224C291.007 383.932 261.781 377.202 258.619 378.607C255.456 379.953 255.924 391.422 255.924 391.422Z" fill="white" stroke="#5633EF" stroke-miterlimit="10"/>
<path d="M240.58 327.695C240.58 327.695 249.541 332.318 251.063 335.712C252.586 339.048 259.966 374.1 259.966 374.1C259.966 374.1 259.731 375.329 260.844 374.569C261.898 373.808 262.777 374.744 262.367 375.856C261.957 376.968 258.736 377.085 265.237 377.26C271.738 377.436 264.476 377.787 265.764 386.506C266.35 390.603 267.521 392.475 268.282 393.938C269.161 395.577 267.228 395.928 265.998 395.635C262.836 394.933 258.326 393.821 254.519 392.066C249.131 389.608 248.135 391.949 247.549 386.74C246.905 381.532 237.124 359.939 236.363 350.869C235.543 341.74 236.948 327.871 240.58 327.695Z" fill="#5633EF"/>
<path d="M241.106 383.284C241.106 383.284 241.868 374.857 245.616 370.351C249.072 366.196 250.36 361.164 248.252 348.758" stroke="white" stroke-miterlimit="10"/>
<path d="M219.202 521.914C219.202 521.914 215.278 537.539 215.278 539.821C215.278 542.103 221.72 549.769 224.649 546.843C227.577 543.917 236.304 521.914 236.304 521.914H219.202Z" fill="white" stroke="#5633EF" stroke-miterlimit="10"/>
<path d="M170.59 563.639C170.59 564.282 173.811 584.764 175.861 584.998C177.911 585.232 183.006 589.27 184.412 585.115C185.876 580.96 189.859 560.537 188.219 560.303C186.579 560.128 170.59 563.639 170.59 563.639Z" fill="white" stroke="#5633EF" stroke-miterlimit="10"/>
<path d="M236.304 404.407C236.304 404.407 238.998 415.526 239.232 419.271C239.467 422.958 268.224 465.384 269.864 473.752C271.504 482.062 234.488 530.398 232.38 537.479C230.271 544.559 218.733 535.372 215.922 528.35C215.395 527.004 225.117 489.201 236.187 477.556C236.187 477.556 235.777 476.034 236.304 475.742C236.831 475.449 235.777 473.927 236.011 473.401C236.304 472.874 196.302 441.976 207.371 417.75C218.558 393.406 234.43 395.981 236.304 404.407Z" fill="#211D53"/>
<path d="M202.217 379.128C202.217 379.128 184.881 399.61 184.061 413.303C183.241 426.996 177.442 477.381 176.798 489.904C176.154 502.427 169.946 509.507 169.126 530.75C168.306 551.933 166.197 571.069 169.126 572.356C172.054 573.585 185.583 577.74 188.395 574.463C191.206 571.127 198.293 513.662 204.501 501.198C207.371 495.521 206.785 493.649 207.312 488.616C207.957 482.647 209.538 473.753 210.534 470.358C212.408 464.097 225.586 420.969 231.326 413.83C237.065 406.69 219.085 376.963 202.217 379.128Z" fill="#211D53"/>
<path d="M227.226 321.194C227.226 321.194 208.25 315.518 198.761 322.657C189.215 329.855 167.954 351.39 167.076 357.3C166.373 362.099 170.707 365.317 173.928 369.004C176.154 371.637 178.614 359.758 191.557 366.019C191.557 366.019 188.863 360.226 188.219 358.821C187.575 357.417 188.336 358.646 187.575 357.71C186.813 356.773 189.039 357.183 188.102 355.896C187.223 354.667 212.174 342.436 217.972 339.51C223.77 336.584 230.506 329.913 227.226 321.194Z" fill="#5633EF"/>
<path d="M211.236 331.962C211.236 331.962 202.803 338.399 201.338 344.368C199.874 350.337 201.514 367.014 197.649 378.074C193.783 389.134 189.683 390.363 192.026 393.231C194.369 396.098 213.228 395.688 223.653 405.812C234.078 415.936 241.165 414.473 239.759 409.323C238.354 404.115 241.282 404.115 240.989 401.716C240.638 399.317 237.358 398.79 238.705 396.566C240.052 394.342 242.044 392.997 241.341 389.485C240.638 385.974 241.048 374.154 246.495 369.589C251.942 365.025 244.913 332.84 242.981 330.791C241.048 328.802 236.421 334.654 232.848 332.547C229.276 330.44 221.076 322.423 211.236 331.962Z" fill="#5633EF"/>
<path d="M224.297 310.375C224.297 310.375 232.321 330.271 234.254 331.968C236.187 333.665 239.115 324.536 239.115 324.536L244.094 329.452C244.094 329.452 241.341 343.204 237.885 340.688C234.43 338.171 234.137 332.729 234.137 332.729C234.137 332.729 233.551 340.161 228.631 337.879C223.712 335.596 215.629 317.28 224.297 310.375Z" fill="white" stroke="#5633EF" stroke-width="1.2838" stroke-miterlimit="10"/>
<path d="M250.009 380.246L307.933 389.609L317.07 379.544L316.309 376.325L306.821 371.702L303.131 376.033L300.554 370.708L292.178 369.303L286.087 376.384L281.929 367.665L272.148 366.085L266.76 370.415L263.128 372.522L252.879 361.754C251.942 348.997 243.567 339.459 230.33 337.293C214.926 334.777 200.343 345.31 197.824 360.759C195.306 376.15 205.848 390.721 221.31 393.237C233.024 395.168 244.152 389.726 250.009 380.246ZM214.868 355.317C219.319 356.019 222.306 360.174 221.603 364.622C220.9 369.069 216.742 372.053 212.291 371.351C207.84 370.649 204.853 366.494 205.555 362.047C206.258 357.541 210.417 354.615 214.868 355.317Z" fill="#211D53"/>
<path d="M248.896 377.086L306.821 386.449L315.957 376.384L310.569 369.361L305.708 368.542L302.018 372.872L299.441 367.547L291.066 366.143L285.033 373.224L280.875 364.504L271.211 362.866L265.178 369.947L261.02 361.227L253.23 359.94C252.293 347.183 242.747 336.24 229.51 334.075C214.106 331.558 199.523 342.092 197.004 357.541C194.486 372.931 205.028 387.502 220.49 390.018C232.087 391.95 243.157 386.507 248.896 377.086ZM213.931 352.098C218.382 352.801 221.369 356.955 220.666 361.403C219.963 365.85 215.805 368.835 211.354 368.132C206.903 367.43 203.916 363.275 204.618 358.828C205.263 354.381 209.48 351.396 213.931 352.098Z" fill="white" stroke="#5633EF" stroke-miterlimit="10"/>
<path d="M221.369 386.798C221.369 386.681 219.143 386.506 215.571 384.926C213.755 384.223 211.705 382.877 209.538 381.18C207.371 379.366 205.263 376.909 203.623 373.866C201.983 370.823 200.811 367.019 200.753 362.864C200.753 358.768 201.573 354.262 203.857 350.283C204.97 348.235 206.434 346.303 208.133 344.665C208.952 343.787 209.948 343.085 210.944 342.324C211.998 341.622 212.994 340.978 214.107 340.393C218.558 338.052 223.946 337.175 229.217 337.994C234.488 338.872 239.35 341.388 242.805 345.016C243.684 345.894 244.445 346.889 245.206 347.825C245.909 348.878 246.554 349.873 247.081 350.926C248.193 353.033 249.013 355.315 249.365 357.598C250.302 362.103 249.716 366.668 248.369 370.53C247.022 374.451 244.679 377.611 242.161 380.069C239.642 382.468 236.831 384.106 234.254 385.16C231.677 386.213 229.276 386.74 227.284 386.857C223.595 387.149 221.428 386.681 221.369 386.798C221.369 386.798 221.486 386.798 221.779 386.857C222.072 386.915 222.482 386.915 222.95 387.032C223.478 387.149 224.122 387.208 224.883 387.208C225.645 387.266 226.523 387.325 227.519 387.149C229.51 387.091 231.911 386.564 234.606 385.511C237.241 384.516 240.111 382.877 242.747 380.42C245.324 377.962 247.725 374.743 249.131 370.764C250.536 366.843 251.18 362.162 250.185 357.539C249.775 355.198 248.955 352.916 247.783 350.692C247.256 349.58 246.554 348.527 245.851 347.474C245.031 346.479 244.269 345.426 243.332 344.548C239.76 340.803 234.781 338.228 229.334 337.292C223.887 336.414 218.382 337.35 213.814 339.808C212.642 340.335 211.588 341.095 210.534 341.798C209.538 342.617 208.542 343.378 207.664 344.255C205.907 345.952 204.384 347.942 203.271 350.049C200.87 354.145 200.05 358.768 200.109 362.923C200.226 367.195 201.397 370.998 203.096 374.1C204.794 377.26 206.961 379.718 209.187 381.532C211.412 383.346 213.521 384.516 215.395 385.277C216.332 385.686 217.152 385.92 217.913 386.155C218.616 386.389 219.261 386.564 219.788 386.623C220.256 386.74 220.666 386.798 220.959 386.857C221.252 386.798 221.369 386.798 221.369 386.798Z" fill="#211D53"/>
<path d="M211.119 369.42C211.119 369.361 210.241 369.244 208.952 368.6C207.664 367.957 205.673 366.669 204.501 364.387C203.916 363.217 203.447 361.812 203.447 360.232C203.447 358.711 203.798 357.014 204.618 355.551C205.438 354.029 206.785 352.742 208.484 351.864C210.124 350.986 212.174 350.694 214.165 350.986C216.156 351.337 217.913 352.274 219.261 353.62C220.608 354.966 221.486 356.604 221.779 358.36C222.13 360.057 221.955 361.754 221.428 363.158C220.959 364.621 220.08 365.792 219.143 366.728C217.211 368.6 214.985 369.186 213.521 369.361C211.998 369.537 211.178 369.361 211.119 369.42C211.119 369.42 211.354 369.537 211.705 369.537C212.115 369.595 212.701 369.654 213.462 369.595C214.985 369.537 217.269 368.952 219.319 367.079C220.315 366.143 221.252 364.855 221.779 363.334C222.306 361.754 222.599 359.998 222.248 358.184C221.896 356.37 221.018 354.556 219.612 353.152C218.265 351.689 216.274 350.694 214.165 350.343C211.998 350.05 209.89 350.401 208.074 351.337C206.317 352.215 204.853 353.737 203.974 355.317C203.037 356.897 202.744 358.711 202.803 360.408C202.861 362.046 203.388 363.568 204.033 364.738C205.38 367.196 207.43 368.425 208.835 369.01C209.538 369.244 210.124 369.42 210.534 369.478C210.944 369.478 211.119 369.478 211.119 369.42Z" fill="#211D53"/>
<path d="M174.983 367.718C174.983 367.718 197.063 390.189 205.087 394.929C211.705 398.909 213.638 397.27 220.432 396.217C223.653 395.69 225.82 395.105 228.339 394.695C230.33 394.403 234.195 393.349 234.195 393.349C234.195 393.349 233.786 391.945 231.853 392.179C229.92 392.413 218.968 392.764 218.499 392.647C218.031 392.53 224.473 388.902 224.356 387.966C224.239 387.029 223.243 386.971 222.775 387.264C222.306 387.556 220.432 388.317 217.972 389.136C216.508 389.604 213.579 389.195 211.412 390.95C211.178 391.126 205.965 387.79 200.226 379.773C194.662 372.049 191.206 365.202 190.503 364.558C188.863 363.271 174.924 362.686 174.983 367.718Z" fill="white" stroke="#5633EF" stroke-miterlimit="10"/>
<path d="M252.352 275.787C252.352 275.787 248.72 270.813 242.395 268.414C236.07 266.014 227.929 265.956 221.193 273.973C214.458 281.99 217.913 296.912 210.827 301.009C204.384 304.754 193.432 308.382 192.377 321.841C200.226 331.029 211.764 335.242 223.653 336.763C224.356 336.822 225 336.88 225.703 336.997C226.933 335.183 227.753 332.901 227.929 329.449C228.221 324.006 226.874 318.447 228.163 315.814C230.681 310.664 235.66 312.888 236.245 295.976C236.421 291.119 241.107 294.279 246.495 289.188C253.582 282.458 252.41 280 252.352 275.787Z" fill="#211D53"/>
<path d="M187.575 357.13C187.575 357.13 184.119 352.624 177.911 353.97" stroke="white" stroke-miterlimit="10"/>
<path d="M187.575 357.129C187.575 357.129 185.115 351.453 180.254 350.984" stroke="white" stroke-miterlimit="10"/>
<path d="M260.024 374.742C260.024 374.742 255.924 376.732 253.64 381.998" stroke="white" stroke-miterlimit="10"/>
<path d="M262.308 375.797C262.308 375.797 260.141 378.372 259.497 381.298" stroke="white" stroke-miterlimit="10"/>
<path d="M290.831 389.488C290.831 389.488 293.467 387.264 297.391 386.621C301.081 386.035 306.118 387.03 306.938 387.03C308.636 387.03 313.087 382.056 313.849 381.939C314.61 381.822 314.493 382.817 313.849 383.695C313.205 384.572 308.343 390.366 307.758 390.483C307.231 390.541 294.404 392.414 292.237 392.707" fill="white"/>
<path d="M290.831 389.488C290.831 389.488 293.467 387.264 297.391 386.621C301.081 386.035 306.118 387.03 306.938 387.03C308.636 387.03 313.087 382.056 313.849 381.939C314.61 381.822 314.493 382.817 313.849 383.695C313.205 384.572 308.343 390.366 307.758 390.483C307.231 390.541 294.404 392.414 292.237 392.707" stroke="#5633EF" stroke-miterlimit="10"/>
<path d="M214.516 457.662C214.516 457.662 223.829 430.861 228.104 419.742" stroke="white" stroke-miterlimit="10"/>
<path d="M227.987 555.268C227.987 555.268 224.649 550.294 224.122 547.485C223.595 544.735 225.586 543.096 226.816 543.155C228.104 543.213 228.866 551.815 229.627 552.986C230.389 554.156 229.92 554.215 236.187 555.795C242.454 557.375 242.337 562.349 242.337 564.28C242.337 566.269 227.402 565.45 225.117 564.28C222.833 563.109 221.896 558.486 217.328 555.561C212.759 552.635 210.065 548.187 209.421 546.841C209.07 546.139 208.777 544.91 209.304 544.149C209.772 543.447 210.944 543.33 211.412 541.867C212.349 538.766 215.278 536.366 215.278 536.366C215.278 536.366 217.972 535.84 220.081 541.048C222.189 546.256 222.54 544.793 224.18 546.724" fill="white"/>
<path d="M227.987 555.268C227.987 555.268 224.649 550.294 224.122 547.485C223.595 544.735 225.586 543.096 226.816 543.155C228.104 543.213 228.866 551.815 229.627 552.986C230.389 554.156 229.92 554.215 236.187 555.795C242.454 557.375 242.337 562.349 242.337 564.28C242.337 566.269 227.402 565.45 225.117 564.28C222.833 563.109 221.896 558.486 217.328 555.561C212.759 552.635 210.065 548.187 209.421 546.841C209.07 546.139 208.777 544.91 209.304 544.149C209.772 543.447 210.944 543.33 211.412 541.867C212.349 538.766 215.278 536.366 215.278 536.366C215.278 536.366 217.972 535.84 220.081 541.048C222.189 546.256 222.54 544.793 224.18 546.724" stroke="#5633EF" stroke-miterlimit="10"/>
<path d="M210.709 542.984C210.709 542.984 214.165 548.544 216.801 550.884C219.436 553.284 223.477 556.151 224.297 557.848C225.059 559.545 226.172 561.652 230.213 562.413C234.254 563.173 241.634 562.413 242.219 562.003" fill="white"/>
<path d="M210.709 542.984C210.709 542.984 214.165 548.544 216.801 550.884C219.436 553.284 223.477 556.151 224.297 557.848C225.059 559.545 226.172 561.652 230.213 562.413C234.254 563.173 241.634 562.413 242.219 562.003" stroke="#5633EF" stroke-miterlimit="10"/>
<path d="M172.23 580.731C172.23 580.731 172.991 580.497 173.811 580.906C174.045 581.023 175.451 581.784 175.978 582.662C177.384 584.944 178.965 589.45 179.609 589.333C180.547 589.157 183.241 581.667 184.119 581.374C184.998 581.082 186.403 581.199 186.696 581.901C186.989 582.603 185.935 589.86 185.818 591.264C185.759 592.259 188.043 595.36 188.629 598.403C188.863 599.515 188.161 600.334 188.161 602.09C188.161 605.133 176.681 604.957 172.581 602.324C171.996 601.914 172.464 599.749 172.171 599.281C170.707 597.174 172.816 590.796 172.757 588.982C172.698 587.226 171.468 582.135 172.23 580.731Z" fill="white" stroke="#5633EF" stroke-miterlimit="10"/>
<path d="M175.334 581.253C176.037 579.264 182.948 579.264 183.299 581.487C183.709 583.77 180.195 592.489 180.195 592.489C180.195 592.489 174.69 583.009 175.334 581.253Z" fill="white" stroke="#5633EF" stroke-miterlimit="10"/>
<path d="M172.171 599.281C172.171 599.281 174.28 601.681 181.425 601.915C188.57 602.149 188.219 600.569 188.57 599.749" fill="white"/>
<path d="M172.171 599.281C172.171 599.281 174.28 601.681 181.425 601.915C188.57 602.149 188.219 600.569 188.57 599.749" stroke="#5633EF" stroke-miterlimit="10"/>
<path d="M171.703 596.232C171.703 596.232 172.171 593.832 180.195 594.184C188.219 594.535 188.512 597.753 188.512 597.753" fill="white"/>
<path d="M171.703 596.232C171.703 596.232 172.171 593.832 180.195 594.184C188.219 594.535 188.512 597.753 188.512 597.753" stroke="#5633EF" stroke-miterlimit="10"/>
<path d="M234.723 555.391C234.723 555.391 236.48 557.146 235.015 562.647L234.723 555.391Z" fill="white"/>
<path d="M234.723 555.391C234.723 555.391 236.48 557.146 235.015 562.647" stroke="#5633EF" stroke-miterlimit="10"/>
<path d="M177.15 590.678C177.15 590.678 178.321 589.859 182.597 589.508L177.15 590.678Z" fill="white"/>
<path d="M177.15 590.678C177.15 590.678 178.321 589.859 182.597 589.508" stroke="#5633EF" stroke-miterlimit="10"/>
<path d="M176.564 587.807C176.564 587.807 179.082 586.695 183.299 586.344L176.564 587.807Z" fill="white"/>
<path d="M176.564 587.807C176.564 587.807 179.082 586.695 183.299 586.344" stroke="#5633EF" stroke-miterlimit="10"/>
<path d="M175.861 585.002C175.861 585.002 178.555 583.539 183.651 583.539L175.861 585.002Z" fill="white"/>
<path d="M175.861 585.002C175.861 585.002 178.555 583.539 183.651 583.539" stroke="#5633EF" stroke-miterlimit="10"/>
<path d="M182.597 590.616C182.597 590.616 181.425 589.796 177.15 589.445" stroke="#5633EF" stroke-miterlimit="10"/>
<path d="M182.714 587.752C182.714 587.752 180.195 586.64 175.978 586.289" stroke="#5633EF" stroke-miterlimit="10"/>
<path d="M183.416 584.939C183.416 584.939 180.371 583.242 175.275 583.242" stroke="#5633EF" stroke-miterlimit="10"/>
<path d="M229.1 550.883C229.1 550.883 227.636 552.521 225.293 552.58L229.1 550.883Z" fill="white"/>
<path d="M229.1 550.883C229.1 550.883 227.636 552.521 225.293 552.58" stroke="#5633EF" stroke-miterlimit="10"/>
<path d="M228.514 547.836C228.514 547.836 226.289 549.416 224.063 549.533L228.514 547.836Z" fill="white"/>
<path d="M228.514 547.836C228.514 547.836 226.289 549.416 224.063 549.533" stroke="#5633EF" stroke-miterlimit="10"/>
<path d="M229.92 553.398C229.92 553.398 228.573 554.978 227.226 555.213L229.92 553.398Z" fill="white"/>
<path d="M229.92 553.398C229.92 553.398 228.573 554.978 227.226 555.213" stroke="#5633EF" stroke-miterlimit="10"/>
<path d="M226.289 554.043C226.289 554.043 228.69 553.984 230.506 553.984" stroke="#5633EF" stroke-miterlimit="10"/>
<path d="M224.707 551.757C224.707 551.757 228.339 551.054 229.276 551.874" stroke="#5633EF" stroke-miterlimit="10"/>
<path d="M223.829 548.483C223.829 548.483 226.757 548.425 228.69 548.659" stroke="#5633EF" stroke-miterlimit="10"/>
<path d="M229.334 565.102H202.803" stroke="#5633EF" stroke-miterlimit="10"/>
<path d="M213.814 559.016H195.423" stroke="#5633EF" stroke-miterlimit="10"/>
<path d="M215.219 559.016H217.738" stroke="#5633EF" stroke-miterlimit="10"/>
<path d="M208.367 561.062H192.612" stroke="#5633EF" stroke-miterlimit="10"/>
<path d="M743.488 241.625C745.89 241.625 748.467 243.615 749.228 246.014L756.959 271.411C757.721 273.81 756.315 275.8 753.914 275.8H715.961C713.56 275.8 710.983 273.81 710.222 271.411L702.49 246.014C701.729 243.615 703.135 241.625 705.536 241.625H743.488Z" fill="white" stroke="#5633EF" stroke-miterlimit="10"/>
<path d="M725.918 265.735L721.584 251.398L736.167 258.538L725.918 265.735Z" fill="#211D53"/>
<path d="M499.206 78C501.607 78 504.184 79.9896 504.945 82.3889L512.676 107.786C513.438 110.185 512.032 112.175 509.631 112.175H471.678C469.277 112.175 466.7 110.185 465.939 107.786L458.207 82.3889C457.446 79.9896 458.852 78 461.253 78H499.206Z" fill="white" stroke="#5633EF" stroke-miterlimit="10"/>
<path d="M481.693 102.165L477.359 87.8281L491.943 94.9674L481.693 102.165Z" fill="#211D53"/>
</svg>
