<svg width="135" height="32" viewBox="0 0 135 32" fill="none" xmlns="http://www.w3.org/2000/svg">
<path d="M37.9779 5.45718H33.8727L32.9714 7.43327H32.4158L35.6691 0.416016H36.1876L39.441 7.43327H38.8854L37.9779 5.45718ZM37.7865 5.02892L35.9222 0.978864L34.0702 5.02892H37.7865Z" fill="white"/>
<path d="M44.5401 2.2002L42.151 7.43101H41.6325L39.2557 2.2002H39.7928L41.8979 6.8804L44.0215 2.2002H44.5401Z" fill="white"/>
<path d="M48.7689 2.65961C49.1208 2.98998 49.2936 3.4733 49.2936 4.11568V7.43159H48.8059V6.50167C48.6392 6.80756 48.3923 7.04616 48.0651 7.21746C47.7441 7.38876 47.3552 7.47441 46.9045 7.47441C46.3181 7.47441 45.8551 7.33982 45.5156 7.06451C45.176 6.78921 45.0032 6.42825 45.0032 5.98164C45.0032 5.54727 45.1575 5.19243 45.4723 4.92324C45.7872 4.65406 46.2872 4.51946 46.9725 4.51946H48.7812V4.09732C48.7812 3.60789 48.6454 3.24082 48.38 2.98386C48.1145 2.73303 47.7256 2.60455 47.2132 2.60455C46.8613 2.60455 46.528 2.66573 46.207 2.78197C45.886 2.90433 45.6143 3.0634 45.3921 3.26529L45.139 2.90433C45.4044 2.67185 45.7193 2.48831 46.0897 2.35984C46.4601 2.23136 46.849 2.16406 47.2502 2.16406C47.9108 2.16406 48.417 2.32925 48.7689 2.65961ZM48.096 6.75862C48.4047 6.55673 48.6331 6.26919 48.7874 5.88987V4.90489H46.9848C46.4662 4.90489 46.0897 4.99666 45.8551 5.18631C45.6205 5.37597 45.5032 5.63292 45.5032 5.95717C45.5032 6.29977 45.6329 6.56896 45.886 6.76474C46.1391 6.96051 46.5033 7.0584 46.9663 7.0584C47.4169 7.06451 47.7873 6.96051 48.096 6.75862Z" fill="white"/>
<path d="M51.337 0.813912C51.2567 0.73438 51.2135 0.64261 51.2135 0.52637C51.2135 0.410129 51.2567 0.318361 51.337 0.23271C51.4172 0.153177 51.516 0.110352 51.6333 0.110352C51.7506 0.110352 51.8432 0.147059 51.9296 0.226592C52.0099 0.306125 52.0531 0.397894 52.0531 0.514134C52.0531 0.630374 52.0099 0.722143 51.9296 0.807794C51.8493 0.887327 51.7506 0.930153 51.6333 0.930153C51.5098 0.930153 51.4172 0.893445 51.337 0.813912ZM51.374 2.20268H51.8802V7.4335H51.374V2.20268Z" fill="white"/>
<path d="M54.0162 0H54.5224V7.43327H54.0162V0Z" fill="white"/>
<path d="M59.9365 2.65961C60.2884 2.98998 60.4612 3.4733 60.4612 4.11568V7.43159H59.9735V6.50167C59.8068 6.80756 59.5599 7.04616 59.2327 7.21746C58.9117 7.38876 58.5228 7.47441 58.0722 7.47441C57.4857 7.47441 57.0227 7.33982 56.6832 7.06451C56.3436 6.78921 56.1708 6.42825 56.1708 5.98164C56.1708 5.54727 56.3251 5.19243 56.6399 4.92324C56.9548 4.65406 57.4548 4.51946 58.1401 4.51946H59.9488V4.09732C59.9488 3.60789 59.813 3.24082 59.5476 2.98386C59.2821 2.73303 58.8932 2.60455 58.3808 2.60455C58.0289 2.60455 57.6956 2.66573 57.3746 2.78197C57.0536 2.90433 56.7819 3.0634 56.5597 3.26529L56.3066 2.90433C56.572 2.67185 56.8869 2.48831 57.2573 2.35984C57.6277 2.23136 58.0166 2.16406 58.4179 2.16406C59.0846 2.16406 59.5908 2.32925 59.9365 2.65961ZM59.2636 6.75862C59.5723 6.55673 59.8007 6.26919 59.955 5.88987V4.90489H58.1524C57.6338 4.90489 57.2573 4.99666 57.0227 5.18631C56.7881 5.37597 56.6708 5.63292 56.6708 5.95717C56.6708 6.29977 56.8005 6.56896 57.0536 6.76474C57.3067 6.96051 57.6709 7.0584 58.1339 7.0584C58.5845 7.06451 58.9611 6.96051 59.2636 6.75862Z" fill="white"/>
<path d="M66.5295 2.49611C66.9246 2.72247 67.2394 3.03449 67.4678 3.43827C67.6962 3.84205 67.8074 4.30089 67.8074 4.8148C67.8074 5.3287 67.6962 5.78755 67.4678 6.18521C67.2394 6.589 66.9308 6.90101 66.5295 7.12737C66.1344 7.35374 65.6838 7.46998 65.1961 7.46998C64.7269 7.46998 64.2948 7.35985 63.9182 7.13349C63.5355 6.90713 63.2453 6.59511 63.0354 6.19745V7.42715H62.5477V0H63.0539V3.39544C63.2638 3.01001 63.554 2.70412 63.9305 2.48999C64.3071 2.27586 64.7269 2.16574 65.1961 2.16574C65.6899 2.16574 66.1344 2.27586 66.5295 2.49611ZM66.2579 6.74194C66.5789 6.55229 66.8382 6.29534 67.0234 5.95885C67.2086 5.62236 67.3012 5.24305 67.3012 4.8148C67.3012 4.38655 67.2086 4.00724 67.0234 3.67075C66.8382 3.33426 66.5851 3.07731 66.2579 2.88766C65.9369 2.698 65.5726 2.60623 65.1652 2.60623C64.7578 2.60623 64.3997 2.698 64.0787 2.88766C63.7577 3.07731 63.5046 3.33426 63.3194 3.67075C63.1342 4.00724 63.0416 4.38655 63.0416 4.8148C63.0416 5.24305 63.1342 5.62236 63.3194 5.95885C63.5046 6.29534 63.7577 6.55229 64.0787 6.74194C64.3997 6.9316 64.7639 7.02337 65.1652 7.02337C65.5665 7.02337 65.9369 6.9316 66.2579 6.74194Z" fill="white"/>
<path d="M69.3752 0H69.8815V7.43327H69.3752V0Z" fill="white"/>
<path d="M76.4685 4.93378H71.9312C71.9435 5.34368 72.0485 5.70464 72.246 6.02277C72.4436 6.3409 72.709 6.58562 73.0424 6.75692C73.3757 6.92822 73.7523 7.01999 74.1721 7.01999C74.5178 7.01999 74.8326 6.95881 75.1289 6.83646C75.4252 6.7141 75.666 6.53056 75.8635 6.29196L76.1599 6.62233C75.9315 6.89764 75.6413 7.10564 75.2956 7.25247C74.9499 7.3993 74.5733 7.47272 74.1659 7.47272C73.6412 7.47272 73.172 7.35648 72.7584 7.13012C72.3448 6.90375 72.0238 6.59174 71.7954 6.18796C71.5608 5.78417 71.4435 5.33145 71.4435 4.81754C71.4435 4.30976 71.5546 3.85703 71.7707 3.44713C71.9867 3.04335 72.2892 2.72522 72.6781 2.49885C73.0609 2.27249 73.493 2.15625 73.9745 2.15625C74.456 2.15625 74.882 2.26637 75.2647 2.49274C75.6475 2.7191 75.9438 3.03111 76.166 3.42878C76.3821 3.83256 76.4932 4.28528 76.4932 4.79307L76.4685 4.93378ZM72.9621 2.84757C72.6658 3.01276 72.425 3.23912 72.2522 3.5389C72.0732 3.83868 71.9682 4.16904 71.9435 4.54835H75.987C75.9685 4.17516 75.8635 3.83868 75.6845 3.54502C75.5055 3.25136 75.2647 3.01888 74.9684 2.85369C74.6721 2.68851 74.3388 2.60286 73.9684 2.60286C73.5918 2.60286 73.2584 2.68239 72.9621 2.84757Z" fill="white"/>
<path d="M81.3576 7.13623C80.9563 6.90987 80.6415 6.59174 80.4131 6.18796C80.1847 5.78417 80.0674 5.32533 80.0674 4.81754C80.0674 4.30976 80.1847 3.85703 80.4131 3.44713C80.6415 3.04335 80.9563 2.72522 81.3576 2.49885C81.7589 2.27249 82.2095 2.15625 82.7096 2.15625C83.2096 2.15625 83.6602 2.27249 84.0615 2.49885C84.4628 2.72522 84.7776 3.04335 85.006 3.44713C85.2344 3.85091 85.3517 4.30976 85.3517 4.81754C85.3517 5.32533 85.2344 5.78417 85.006 6.18796C84.7776 6.59174 84.4628 6.90987 84.0615 7.13623C83.6602 7.3626 83.2096 7.47884 82.7096 7.47884C82.2095 7.47884 81.7589 7.3626 81.3576 7.13623ZM83.796 6.74469C84.1171 6.55503 84.3702 6.29808 84.5554 5.96159C84.7406 5.62511 84.8332 5.2458 84.8332 4.81754C84.8332 4.38929 84.7406 4.00998 84.5554 3.67349C84.3702 3.33701 84.1171 3.08006 83.796 2.8904C83.475 2.70074 83.1108 2.60898 82.7096 2.60898C82.3083 2.60898 81.9441 2.70074 81.6231 2.8904C81.302 3.08006 81.0489 3.33701 80.8637 3.67349C80.6785 4.00998 80.5859 4.38929 80.5859 4.81754C80.5859 5.2458 80.6785 5.62511 80.8637 5.96159C81.0489 6.29808 81.302 6.55503 81.6231 6.74469C81.9441 6.93434 82.3083 7.02611 82.7096 7.02611C83.1108 7.02611 83.475 6.93434 83.796 6.74469Z" fill="white"/>
<path d="M91.062 2.73133C91.4447 3.11064 91.6361 3.66126 91.6361 4.37705V7.43601H91.1299V4.41376C91.1299 3.82644 90.9817 3.37983 90.6792 3.07394C90.3767 2.76804 89.9569 2.61509 89.4199 2.61509C88.8025 2.61509 88.3087 2.79863 87.9506 3.16571C87.5926 3.53278 87.4136 4.02833 87.4136 4.64624V7.42989H86.9073V2.19908H87.395V3.33089C87.5741 2.96381 87.8457 2.67627 88.2099 2.46826C88.568 2.26025 88.9939 2.15625 89.4878 2.15625C90.1545 2.16237 90.6792 2.35202 91.062 2.73133Z" fill="white"/>
<path d="M98.9391 7.10479C98.8094 7.22715 98.6489 7.31892 98.4576 7.3801C98.2662 7.44128 98.0625 7.47798 97.8588 7.47798C97.4019 7.47798 97.0439 7.35562 96.7969 7.10479C96.55 6.85396 96.4204 6.50523 96.4204 6.05863V2.63871H95.4512V2.21046H96.4204V1.06641H96.9266V2.21046H98.6057V2.63871H96.9266V6.00356C96.9266 6.34617 97.0068 6.60312 97.1735 6.78054C97.3402 6.95796 97.5809 7.04361 97.9081 7.04361C98.2353 7.04361 98.5131 6.94572 98.7292 6.74995L98.9391 7.10479Z" fill="white"/>
<path d="M104.489 2.73471C104.872 3.11402 105.063 3.66463 105.063 4.38043V7.43939H104.557V4.41714C104.557 3.82982 104.409 3.38321 104.106 3.07731C103.804 2.77142 103.384 2.61847 102.847 2.61847C102.229 2.61847 101.736 2.80201 101.378 3.16908C101.019 3.53616 100.84 4.03171 100.84 4.64962V7.43327H100.334V0H100.84V3.29756C101.019 2.9366 101.291 2.65518 101.649 2.4594C102.007 2.26363 102.427 2.16574 102.915 2.16574C103.581 2.16574 104.106 2.3554 104.489 2.73471Z" fill="white"/>
<path d="M111.619 4.93378H107.082C107.094 5.34368 107.199 5.70464 107.397 6.02277C107.594 6.3409 107.86 6.58562 108.193 6.75692C108.526 6.92822 108.903 7.01999 109.323 7.01999C109.668 7.01999 109.983 6.95881 110.279 6.83646C110.576 6.7141 110.817 6.53056 111.014 6.29196L111.31 6.62233C111.082 6.89764 110.792 7.10564 110.446 7.25247C110.1 7.3993 109.724 7.47272 109.316 7.47272C108.792 7.47272 108.323 7.35648 107.909 7.13012C107.495 6.90375 107.174 6.59174 106.946 6.18796C106.711 5.78417 106.594 5.33145 106.594 4.81754C106.594 4.30976 106.705 3.85703 106.921 3.44713C107.137 3.04335 107.44 2.72522 107.829 2.49885C108.211 2.27249 108.644 2.15625 109.125 2.15625C109.607 2.15625 110.033 2.26637 110.415 2.49274C110.798 2.7191 111.094 3.03111 111.317 3.42878C111.533 3.83256 111.644 4.28528 111.644 4.79307L111.619 4.93378ZM108.106 2.84757C107.81 3.01276 107.569 3.23912 107.397 3.5389C107.217 3.83868 107.113 4.16904 107.088 4.54835H111.131C111.113 4.17516 111.008 3.83868 110.829 3.54502C110.65 3.25136 110.409 3.01888 110.113 2.85369C109.816 2.68851 109.483 2.60286 109.113 2.60286C108.736 2.60286 108.403 2.68239 108.106 2.84757Z" fill="white"/>
<path d="M40.472 19.7275H42.5462V24.3955C41.9413 24.8727 41.2313 25.2458 40.4165 25.5028C39.6078 25.7598 38.7744 25.8882 37.9163 25.8882C36.7125 25.8882 35.626 25.6313 34.6568 25.1113C33.6876 24.5912 32.9283 23.8754 32.3789 22.9578C31.8294 22.0401 31.5516 21.0123 31.5516 19.8621C31.5516 18.7119 31.8294 17.678 32.3789 16.7664C32.9283 15.8487 33.6938 15.1329 34.6691 14.6129C35.6445 14.0929 36.7372 13.8359 37.9533 13.8359C38.9411 13.8359 39.8424 13.995 40.6572 14.3193C41.4659 14.6435 42.1512 15.1146 42.7006 15.7447L41.3178 17.0846C40.4165 16.1913 39.33 15.7447 38.0583 15.7447C37.2249 15.7447 36.4841 15.916 35.8359 16.2648C35.1877 16.6135 34.6815 17.0968 34.3173 17.7208C33.953 18.3448 33.7678 19.0606 33.7678 19.8621C33.7678 20.6452 33.953 21.3487 34.3173 21.9728C34.6815 22.5968 35.1877 23.0862 35.8359 23.4472C36.4841 23.802 37.2187 23.9856 38.0398 23.9856C38.9657 23.9856 39.7744 23.7837 40.472 23.386V19.7275Z" fill="white"/>
<path d="M46.8181 25.2499C46.0835 24.8584 45.5156 24.3139 45.1019 23.6164C44.6883 22.919 44.4846 22.1298 44.4846 21.2488C44.4846 20.3678 44.6883 19.5786 45.1019 18.8873C45.5156 18.196 46.0835 17.6576 46.8181 17.266C47.5527 16.8745 48.3738 16.6787 49.2813 16.6787C50.2073 16.6787 51.0345 16.8745 51.7629 17.266C52.4975 17.6576 53.0655 18.196 53.4791 18.8873C53.8927 19.5786 54.0964 20.3678 54.0964 21.2488C54.0964 22.1298 53.8927 22.919 53.4791 23.6164C53.0655 24.3139 52.4975 24.8584 51.7629 25.2499C51.0283 25.6415 50.2011 25.8372 49.2813 25.8372C48.3738 25.8311 47.5527 25.6415 46.8181 25.2499ZM51.2073 23.2738C51.7135 22.7599 51.9666 22.0869 51.9666 21.2488C51.9666 20.4106 51.7135 19.7377 51.2073 19.2238C50.7011 18.7099 50.0591 18.4529 49.2813 18.4529C48.5034 18.4529 47.8676 18.7099 47.3675 19.2238C46.8675 19.7377 46.6144 20.4106 46.6144 21.2488C46.6144 22.0869 46.8675 22.7599 47.3675 23.2738C47.8676 23.7877 48.5096 24.0447 49.2813 24.0447C50.0591 24.0447 50.7011 23.7877 51.2073 23.2738Z" fill="white"/>
<path d="M57.714 25.2499C56.9794 24.8584 56.4114 24.3139 55.9978 23.6164C55.5842 22.919 55.3805 22.1298 55.3805 21.2488C55.3805 20.3678 55.5842 19.5786 55.9978 18.8873C56.4114 18.196 56.9794 17.6576 57.714 17.266C58.4486 16.8745 59.2697 16.6787 60.1771 16.6787C61.1031 16.6787 61.9303 16.8745 62.6588 17.266C63.3934 17.6576 63.9614 18.196 64.375 18.8873C64.7886 19.5786 64.9923 20.3678 64.9923 21.2488C64.9923 22.1298 64.7886 22.919 64.375 23.6164C63.9614 24.3139 63.3934 24.8584 62.6588 25.2499C61.9242 25.6415 61.097 25.8372 60.1771 25.8372C59.2635 25.8311 58.4424 25.6415 57.714 25.2499ZM62.1032 23.2738C62.6094 22.7599 62.8625 22.0869 62.8625 21.2488C62.8625 20.4106 62.6094 19.7377 62.1032 19.2238C61.597 18.7099 60.955 18.4529 60.1771 18.4529C59.3993 18.4529 58.7635 18.7099 58.2634 19.2238C57.7634 19.7377 57.5103 20.4106 57.5103 21.2488C57.5103 22.0869 57.7634 22.7599 58.2634 23.2738C58.7635 23.7877 59.4055 24.0447 60.1771 24.0447C60.955 24.0447 61.597 23.7877 62.1032 23.2738Z" fill="white"/>
<path d="M75.9683 16.781V24.3611C75.9683 27.5057 74.3448 29.078 71.1038 29.078C70.2395 29.078 69.4123 28.9679 68.6407 28.7538C67.8628 28.5335 67.2208 28.2215 66.7146 27.8055L67.6591 26.2332C68.0542 26.5575 68.5542 26.8144 69.153 27.0102C69.758 27.206 70.363 27.3038 70.9865 27.3038C71.9742 27.3038 72.7027 27.0775 73.1657 26.637C73.6287 26.1904 73.8571 25.5113 73.8571 24.5936V24.1225C73.499 24.5141 73.0607 24.8077 72.5422 25.0096C72.0236 25.2115 71.4557 25.3094 70.8383 25.3094C69.9803 25.3094 69.2086 25.1259 68.5172 24.7649C67.8258 24.4039 67.2764 23.89 66.8813 23.2354C66.48 22.5747 66.2825 21.8222 66.2825 20.9779C66.2825 20.1275 66.48 19.3811 66.8813 18.7265C67.2825 18.0719 67.8258 17.5702 68.5172 17.2093C69.2086 16.8544 69.9864 16.6709 70.8383 16.6709C71.4927 16.6709 72.0854 16.7749 72.6224 16.989C73.1595 17.2032 73.604 17.5274 73.962 17.9618V16.7749H75.9683V16.781ZM73.1225 22.8255C73.6348 22.3544 73.8879 21.7365 73.8879 20.9779C73.8879 20.2315 73.6287 19.6197 73.1225 19.1548C72.6101 18.6837 71.9557 18.4512 71.1532 18.4512C70.3445 18.4512 69.6839 18.6837 69.1716 19.1548C68.6592 19.6259 68.4061 20.2315 68.4061 20.9779C68.4061 21.7365 68.6592 22.3544 69.1716 22.8255C69.6839 23.3027 70.3445 23.5352 71.1532 23.5352C71.9495 23.5413 72.6101 23.3027 73.1225 22.8255Z" fill="white"/>
<path d="M78.734 13.3027H80.8453V25.7221H78.734V13.3027Z" fill="white"/>
<path d="M92.056 21.914H84.9814C85.1048 22.5747 85.4259 23.0947 85.9506 23.4801C86.4753 23.8656 87.1235 24.0552 87.9013 24.0552C88.8891 24.0552 89.7101 23.731 90.3521 23.0825L91.4818 24.3734C91.0744 24.8506 90.562 25.2176 89.9447 25.4623C89.3274 25.7071 88.6298 25.8294 87.852 25.8294C86.8642 25.8294 85.9876 25.6336 85.2345 25.2421C84.4813 24.8506 83.8949 24.3061 83.4874 23.6086C83.0738 22.9112 82.8701 22.122 82.8701 21.241C82.8701 20.3722 83.0677 19.5891 83.4689 18.8917C83.8702 18.1943 84.4258 17.6498 85.1295 17.2582C85.8395 16.8667 86.6358 16.6709 87.5248 16.6709C88.4014 16.6709 89.1854 16.8606 89.883 17.246C90.5744 17.6314 91.1176 18.1698 91.5065 18.8672C91.8955 19.5647 92.0868 20.3722 92.0868 21.2838C92.093 21.4429 92.0807 21.6509 92.056 21.914ZM85.8209 18.9468C85.3518 19.3444 85.0678 19.8706 84.969 20.5313H90.0867C89.9941 19.8828 89.7225 19.3628 89.2595 18.959C88.7965 18.5552 88.2224 18.3594 87.5371 18.3594C86.8581 18.3533 86.2839 18.5491 85.8209 18.9468Z" fill="white"/>
<path d="M106.52 14.4987C107.279 14.8352 107.859 15.3124 108.267 15.9364C108.674 16.5605 108.872 17.3007 108.872 18.1634C108.872 19.0138 108.668 19.7479 108.267 20.3781C107.859 21.0082 107.279 21.4915 106.52 21.828C105.761 22.1645 104.865 22.3297 103.841 22.3297H101.174V25.7129H98.9761V13.9971H103.841C104.872 13.9971 105.761 14.1684 106.52 14.4987ZM105.921 19.8886C106.415 19.4848 106.662 18.9098 106.662 18.1634C106.662 17.417 106.415 16.8419 105.921 16.4381C105.427 16.0343 104.699 15.8386 103.742 15.8386H101.174V20.4882H103.742C104.699 20.4943 105.427 20.2924 105.921 19.8886Z" fill="white"/>
<path d="M111.039 13.3027H113.15V25.7221H111.039V13.3027Z" fill="white"/>
<path d="M122.41 17.6253C123.114 18.2554 123.466 19.2098 123.466 20.4762V25.7132H121.472V24.6242C121.212 25.0157 120.842 25.3155 120.367 25.5174C119.885 25.7254 119.311 25.8294 118.638 25.8294C117.965 25.8294 117.373 25.7132 116.866 25.4868C116.36 25.2605 115.971 24.9423 115.693 24.5324C115.416 24.1225 115.28 23.6637 115.28 23.1498C115.28 22.3483 115.582 21.6998 116.181 21.2165C116.786 20.7332 117.731 20.4885 119.027 20.4885H121.36V20.3539C121.36 19.7299 121.169 19.2465 120.793 18.9162C120.416 18.5797 119.854 18.4145 119.113 18.4145C118.607 18.4145 118.107 18.494 117.619 18.647C117.132 18.8061 116.718 19.0202 116.379 19.3016L115.551 17.7782C116.027 17.4234 116.595 17.1481 117.255 16.9584C117.922 16.7688 118.626 16.6709 119.366 16.6709C120.694 16.677 121.706 16.9951 122.41 17.6253ZM120.49 23.9512C120.904 23.7126 121.194 23.37 121.36 22.9234V21.8834H119.181C117.965 21.8834 117.36 22.281 117.36 23.0702C117.36 23.4496 117.515 23.7493 117.817 23.9757C118.119 24.2021 118.545 24.3122 119.083 24.3122C119.607 24.3061 120.076 24.1898 120.49 23.9512Z" fill="white"/>
<path d="M134.442 16.7805L130.219 26.4346C129.824 27.4074 129.349 28.0864 128.781 28.4841C128.219 28.8818 127.534 29.0775 126.737 29.0775C126.287 29.0775 125.842 29.0041 125.404 28.8573C124.966 28.7105 124.608 28.5086 124.324 28.2577L125.169 26.716C125.373 26.9057 125.614 27.0586 125.885 27.1688C126.163 27.2789 126.441 27.3339 126.719 27.3339C127.089 27.3339 127.398 27.2361 127.639 27.0464C127.879 26.8567 128.102 26.5386 128.305 26.092L128.46 25.7433L124.527 16.7744H126.725L129.565 23.3879L132.417 16.7744H134.442V16.7805Z" fill="white"/>
<path d="M27.4956 14.4837L21.8224 11.2412L17.1554 15.7073L21.4211 19.7941L27.4956 16.3191C27.829 16.1294 28.0327 15.7868 28.0327 15.4014C28.0327 15.016 27.829 14.6734 27.4956 14.4837Z" fill="white"/>
<path d="M20.8595 10.683L14.6121 7.11011L0.932129 0.160156L16.39 14.9716L20.8595 10.683Z" fill="white"/>
<path d="M1.15454 31.0294L14.637 23.6696L20.4584 20.3414L16.3902 16.4443L1.15454 31.0294Z" fill="white"/>
<path d="M0.0185191 0.760742L0 30.6651L15.6184 15.7068L0.0185191 0.760742Z" fill="white"/>
</svg>
