<svg width="38" height="38" viewBox="0 0 38 38" fill="none" xmlns="http://www.w3.org/2000/svg">
<path d="M8.0167 26.6223C8.1298 26.5621 8.25605 26.5325 8.38343 26.536C8.51082 26.5396 8.63529 26.5763 8.745 26.6427C10.8602 27.9005 13.2632 28.5618 15.7091 28.5594C18.0899 28.5545 20.4299 27.9276 22.5079 26.7379C24.586 25.5482 26.3335 23.8352 27.5845 21.761C27.6089 21.7195 27.6247 21.6735 27.6315 21.6255C27.6383 21.5776 27.6359 21.5288 27.6241 21.4819C27.6122 21.435 27.5913 21.391 27.5627 21.3525C27.534 21.314 27.4981 21.2817 27.4571 21.2576L25.5586 20.1295C24.8408 19.6957 24.0095 19.5 23.1788 19.5693C22.3482 19.6385 21.5588 19.9694 20.9191 20.5165C19.6573 21.624 18.0904 22.3024 16.4354 22.4576C14.7804 22.6129 13.1193 22.2373 11.682 21.383C10.2447 20.5286 9.10238 19.2377 8.41328 17.6891C7.72417 16.1405 7.52248 14.4108 7.83592 12.7395C8.1016 11.3231 8.72725 10.0034 9.64977 8.9135C10.5723 7.8236 11.7589 7.00199 13.0904 6.53151C14.4218 6.06103 15.8508 5.95829 17.2334 6.23365C18.616 6.50902 19.9034 7.15276 20.9656 8.09997C21.5841 8.63619 22.3506 8.96165 23.1582 9.03105C23.9658 9.10046 24.7744 8.91036 25.4716 8.48722L27.4528 7.30771C27.4936 7.28333 27.5293 7.25088 27.5578 7.21226C27.5863 7.17363 27.6069 7.12959 27.6186 7.0827C27.6303 7.03581 27.6329 6.98699 27.6261 6.9391C27.6192 6.89121 27.6031 6.84518 27.5787 6.8037C26.618 5.20117 25.3575 3.8089 23.8695 2.70693C22.3816 1.60496 20.6955 0.815021 18.9084 0.382531C17.1213 -0.0499591 15.2685 -0.116469 13.4562 0.186821C11.6439 0.490112 9.90808 1.15723 8.34842 2.1498C6.78877 3.14238 5.43602 4.44085 4.36807 5.97056C3.30012 7.50027 2.53804 9.23105 2.12551 11.0634C1.71298 12.8957 1.65812 14.7935 1.96424 16.6476C2.27037 18.5017 2.93137 20.2756 3.90923 21.8672C3.97729 21.98 4.01516 22.1091 4.01913 22.2416C4.0231 22.3741 3.99308 22.5053 3.9319 22.6222L0.0419295 30.1614C0.00576222 30.2315 -0.00748515 30.3117 0.00405137 30.3901C0.0155879 30.4685 0.0511853 30.541 0.105921 30.5971C0.160656 30.6532 0.231665 30.6898 0.308224 30.7017C0.384783 30.7136 0.462989 30.7 0.531475 30.663L8.0167 26.6223Z" fill="#2BD4D9"/>
<path d="M21.3353 20.6338C19.3065 22.2023 18 24.6601 18 27.423C18 32.1597 21.8398 35.9995 26.5765 35.9995C31.3132 35.9995 35.153 32.1597 35.153 27.423C35.153 24.6601 33.8465 22.2023 31.8177 20.6338M26.5765 27.3172V15.8818" stroke="#5433ED" stroke-width="4"/>
</svg>
