<svg width="38" height="37" viewBox="0 0 38 37" fill="none" xmlns="http://www.w3.org/2000/svg">
<path d="M8.05667 25.8632C8.17033 25.8048 8.29721 25.7759 8.42523 25.7794C8.55325 25.7829 8.67835 25.8186 8.7886 25.8831C10.9143 27.1049 13.3293 27.7474 15.7874 27.7451C18.1801 27.7403 20.5317 27.1313 22.6202 25.9755C24.7086 24.8198 26.4647 23.1556 27.722 21.1405C27.7465 21.1002 27.7624 21.0555 27.7693 21.0089C27.7761 20.9624 27.7737 20.9149 27.7618 20.8694C27.7499 20.8238 27.7289 20.7811 27.7001 20.7437C27.6713 20.7063 27.6352 20.6749 27.594 20.6515L25.686 19.5556C24.9647 19.1341 24.1292 18.944 23.2944 19.0113C22.4596 19.0786 21.6663 19.4 21.0234 19.9315C19.7553 21.0075 18.1806 21.6665 16.5173 21.8173C14.8541 21.9681 13.1847 21.6033 11.7402 20.7733C10.2958 19.9433 9.14777 18.6892 8.45522 17.1847C7.76268 15.6803 7.55998 13.9999 7.87499 12.3763C8.14199 11.0002 8.77076 9.71816 9.69788 8.65934C10.625 7.60052 11.8175 6.80234 13.1556 6.34527C14.4937 5.88821 15.9299 5.7884 17.3193 6.05591C18.7088 6.32342 20.0026 6.94881 21.0701 7.86901C21.6917 8.38994 22.462 8.70612 23.2736 8.77355C24.0853 8.84097 24.8979 8.6563 25.5986 8.24522L27.5896 7.09934C27.6307 7.07565 27.6665 7.04414 27.6952 7.00661C27.7238 6.96908 27.7445 6.9263 27.7563 6.88075C27.7681 6.83519 27.7707 6.78777 27.7638 6.74124C27.7569 6.69471 27.7407 6.65 27.7162 6.6097C26.7507 5.05287 25.4839 3.7003 23.9886 2.62975C22.4932 1.5592 20.7987 0.791781 19.0026 0.371623C17.2066 -0.0485346 15.3446 -0.113148 13.5233 0.181494C11.702 0.476137 9.95748 1.12423 8.39005 2.0885C6.82261 3.05278 5.46312 4.31423 4.38984 5.80032C3.31657 7.28641 2.5507 8.96784 2.13611 10.7479C1.72152 12.528 1.66638 14.3717 1.97404 16.1729C2.28169 17.9742 2.94598 19.6974 3.92872 21.2437C3.99712 21.3532 4.03518 21.4787 4.03917 21.6074C4.04316 21.7361 4.01299 21.8636 3.9515 21.9771L0.0421385 29.3014C0.00579095 29.3695 -0.00752247 29.4474 0.00407157 29.5235C0.0156656 29.5997 0.0514405 29.6702 0.106449 29.7247C0.161457 29.7792 0.23282 29.8148 0.309761 29.8263C0.386702 29.8378 0.465297 29.8246 0.534125 29.7887L8.05667 25.8632Z" fill="#2BD4D9"/>
<path d="M32.8182 14.4395H20.3818C19.008 14.4411 17.691 14.9876 16.7195 15.959C15.7481 16.9304 15.2017 18.2474 15.2 19.6212V27.9121C15.2015 29.1062 15.6147 30.2633 16.3698 31.1883C17.1249 32.1133 18.1758 32.7497 19.3455 32.9902V36.2029C19.3454 36.3906 19.3963 36.5747 19.4928 36.7356C19.5892 36.8966 19.7275 37.0284 19.8929 37.1169C20.0583 37.2054 20.2447 37.2473 20.4321 37.2382C20.6195 37.2291 20.8009 37.1693 20.957 37.0652L26.9109 33.0939H32.8182C34.192 33.0922 35.5091 32.5458 36.4805 31.5743C37.4519 30.6029 37.9984 29.2859 38 27.9121V19.6212C37.9984 18.2474 37.4519 16.9304 36.4805 15.959C35.5091 14.9876 34.192 14.4411 32.8182 14.4395ZM26.6 29.9848C26.395 29.9848 26.1947 29.924 26.0242 29.8101C25.8538 29.6963 25.721 29.5344 25.6425 29.345C25.5641 29.1557 25.5436 28.9473 25.5836 28.7463C25.6236 28.5452 25.7223 28.3606 25.8672 28.2156C26.0121 28.0707 26.1968 27.972 26.3978 27.932C26.5989 27.892 26.8072 27.9125 26.9966 27.991C27.186 28.0694 27.3478 28.2022 27.4617 28.3727C27.5756 28.5431 27.6364 28.7435 27.6364 28.9484C27.6364 29.2233 27.5272 29.4869 27.3328 29.6813C27.1385 29.8756 26.8749 29.9848 26.6 29.9848ZM28.4375 23.1656C28.2075 23.3157 28.0155 23.517 27.8765 23.7539C27.7375 23.9907 27.6553 24.2565 27.6364 24.5305V25.8394C27.6364 26.1142 27.5272 26.3778 27.3328 26.5722C27.1385 26.7665 26.8749 26.8757 26.6 26.8757C26.3252 26.8757 26.0615 26.7665 25.8672 26.5722C25.6728 26.3778 25.5636 26.1142 25.5636 25.8394V24.5305C25.5784 23.9301 25.7356 23.3417 26.0222 22.814C26.3089 22.2862 26.7169 21.8342 27.2125 21.495C27.3554 21.3903 27.469 21.2508 27.5426 21.0897C27.6162 20.9287 27.6473 20.7514 27.633 20.5749C27.6186 20.3984 27.5592 20.2285 27.4606 20.0815C27.3619 19.9344 27.2272 19.8151 27.0693 19.7349C26.9114 19.6548 26.7356 19.6164 26.5586 19.6234C26.3817 19.6305 26.2095 19.6828 26.0585 19.7753C25.9075 19.8679 25.7828 19.9975 25.6961 20.152C25.6095 20.3064 25.5639 20.4805 25.5636 20.6576C25.5636 20.9325 25.4545 21.1961 25.2601 21.3904C25.0657 21.5848 24.8021 21.6939 24.5273 21.6939C24.2524 21.6939 23.9888 21.5848 23.7945 21.3904C23.6001 21.1961 23.4909 20.9325 23.4909 20.6576C23.4909 20.1262 23.6271 19.6036 23.8866 19.1398C24.146 18.676 24.52 18.2864 24.9729 18.0083C25.4257 17.7302 25.9423 17.5727 26.4733 17.5511C27.0043 17.5294 27.532 17.6442 28.006 17.8846C28.48 18.1249 28.8845 18.4827 29.1808 18.9238C29.4772 19.365 29.6555 19.8747 29.6988 20.4044C29.7421 20.9341 29.6488 21.466 29.428 21.9494C29.2072 22.4328 28.8662 22.8515 28.4375 23.1656Z" fill="#5433ED"/>
</svg>
