<svg width="38" height="38" viewBox="0 0 38 38" fill="none" xmlns="http://www.w3.org/2000/svg">
<path d="M8.2211 26.391C8.33707 26.3314 8.46654 26.302 8.59717 26.3055C8.72781 26.3091 8.85546 26.3455 8.96796 26.4113C11.1371 27.6581 13.6013 28.3137 16.1096 28.3113C18.5511 28.3065 20.9507 27.685 23.0818 26.5056C25.2129 25.3263 27.0048 23.6282 28.2878 21.5719C28.3128 21.5308 28.329 21.4852 28.336 21.4377C28.343 21.3902 28.3405 21.3418 28.3284 21.2953C28.3162 21.2488 28.2948 21.2052 28.2654 21.167C28.236 21.1288 28.1991 21.0968 28.1571 21.0729L26.2102 19.9547C25.4742 19.5246 24.6217 19.3306 23.7698 19.3992C22.9179 19.4679 22.1084 19.7959 21.4524 20.3382C20.1585 21.4362 18.5516 22.1087 16.8544 22.2625C15.1572 22.4164 13.4538 22.0442 11.9798 21.1972C10.5059 20.3503 9.33446 19.0706 8.62778 17.5354C7.9211 16.0003 7.71427 14.2856 8.0357 12.6288C8.30815 11.2247 8.94975 9.91649 9.89579 8.83606C10.8418 7.75563 12.0587 6.94117 13.4241 6.47477C14.7895 6.00837 16.255 5.90653 17.6728 6.1795C19.0906 6.45247 20.4108 7.09062 21.5001 8.0296C22.1344 8.56117 22.9204 8.88379 23.7486 8.9526C24.5768 9.0214 25.4061 8.83296 26.121 8.41349L28.1527 7.24423C28.1946 7.22006 28.2312 7.18789 28.2604 7.1496C28.2896 7.11131 28.3107 7.06765 28.3228 7.02117C28.3348 6.97469 28.3374 6.9263 28.3304 6.87882C28.3234 6.83134 28.3069 6.78572 28.2819 6.7446C27.2966 5.15599 26.004 3.77582 24.4781 2.68342C22.9522 1.59102 21.2231 0.80794 19.3905 0.379208C17.5578 -0.0495251 15.6578 -0.115458 13.7993 0.185198C11.9408 0.485854 10.1607 1.14717 8.56127 2.13113C6.96185 3.11508 5.57461 4.40227 4.47943 5.91869C3.38426 7.43511 2.60275 9.15086 2.1797 10.9673C1.75666 12.7837 1.70039 14.665 2.01432 16.503C2.32825 18.341 3.00611 20.0994 4.00889 21.6772C4.07869 21.789 4.11753 21.917 4.1216 22.0484C4.12567 22.1797 4.09488 22.3098 4.03214 22.4256L0.0429985 29.8994C0.00590913 29.9689 -0.00767599 30.0483 0.00415466 30.1261C0.0159853 30.2038 0.0524903 30.2757 0.108621 30.3313C0.164752 30.3869 0.237571 30.4232 0.316082 30.435C0.394594 30.4468 0.474793 30.4333 0.545025 30.3966L8.2211 26.391Z" fill="#2BD4D9"/>
<path d="M37.1274 14.7337C37.1274 16.8217 35.4349 18.5144 33.3469 18.5144C31.2588 18.5144 29.5663 16.8217 29.5663 14.7337C29.5663 12.6458 31.2588 10.9531 33.3469 10.9531C35.4349 10.9531 37.1274 12.6458 37.1274 14.7337Z" fill="#5433ED"/>
<path d="M33.3469 19.3873C30.7807 19.3873 28.6939 17.3003 28.6939 14.7341C28.6939 12.168 30.7807 10.0811 33.3469 10.0811C35.9131 10.0811 37.9999 12.168 37.9999 14.7341C37.9999 17.3003 35.9131 19.3873 33.3469 19.3873ZM33.3469 11.826C31.7428 11.826 30.4388 13.1312 30.4388 14.7341C30.4388 16.3371 31.7428 17.6424 33.3469 17.6424C34.951 17.6424 36.255 16.3371 36.255 14.7341C36.255 13.1312 34.951 11.826 33.3469 11.826Z" fill="#5433ED"/>
<path d="M37.1274 33.3462C37.1274 35.434 35.4349 37.1267 33.3469 37.1267C31.2588 37.1267 29.5663 35.434 29.5663 33.3462C29.5663 31.2581 31.2588 29.5654 33.3469 29.5654C35.4349 29.5654 37.1274 31.2581 37.1274 33.3462Z" fill="#5433ED"/>
<path d="M33.3469 37.9996C30.7807 37.9996 28.6939 35.9126 28.6939 33.3466C28.6939 30.7803 30.7807 28.6934 33.3469 28.6934C35.9131 28.6934 37.9999 30.7803 37.9999 33.3466C37.9999 35.9126 35.9131 37.9996 33.3469 37.9996ZM33.3469 30.4383C31.7428 30.4383 30.4388 31.7435 30.4388 33.3466C30.4388 34.9494 31.7428 36.2547 33.3469 36.2547C34.951 36.2547 36.255 34.9494 36.255 33.3466C36.255 31.7435 34.951 30.4383 33.3469 30.4383Z" fill="#5433ED"/>
<path d="M20.8419 24.0403C20.8419 26.1284 19.1492 27.8209 17.0612 27.8209C14.9734 27.8209 13.2806 26.1284 13.2806 24.0403C13.2806 21.9523 14.9734 20.2598 17.0612 20.2598C19.1492 20.2598 20.8419 21.9523 20.8419 24.0403Z" fill="#5433ED"/>
<path d="M17.0612 28.6927C14.4952 28.6927 12.4082 26.6059 12.4082 24.0397C12.4082 21.4735 14.4952 19.3867 17.0612 19.3867C19.6274 19.3867 21.7144 21.4735 21.7144 24.0397C21.7144 26.6059 19.6274 28.6927 17.0612 28.6927ZM17.0612 21.1316C15.4571 21.1316 14.1531 22.4367 14.1531 24.0397C14.1531 25.6428 15.4571 26.9478 17.0612 26.9478C18.6655 26.9478 19.9695 25.6428 19.9695 24.0397C19.9695 22.4367 18.6655 21.1316 17.0612 21.1316Z" fill="#5433ED"/>
<path d="M19.8079 23.4817C19.4029 23.4817 19.0097 23.271 18.7957 22.8942C18.4781 22.337 18.6736 21.6262 19.2308 21.3074L30.0246 15.1538C30.5819 14.8339 31.2926 15.0294 31.6115 15.5887C31.9291 16.146 31.7335 16.8567 31.1763 17.1756L20.3823 23.3292C20.2008 23.4327 20.0032 23.4817 19.8079 23.4817Z" fill="#5433ED"/>
<path d="M30.6006 33.0791C30.4051 33.0791 30.2074 33.0301 30.0259 32.9266L19.2319 26.773C18.6747 26.4554 18.4794 25.7447 18.797 25.1862C19.1133 24.6279 19.8251 24.4313 20.3836 24.7512L31.1776 30.9048C31.7348 31.2224 31.9301 31.9332 31.6125 32.4917C31.3974 32.8685 31.0042 33.0791 30.6006 33.0791Z" fill="#5433ED"/>
</svg>
