<svg width="37" height="38" viewBox="0 0 37 38" fill="none" xmlns="http://www.w3.org/2000/svg">
<path d="M16.6122 0H2.44958C1.09415 0 0 1.09906 0 2.45203V31.2116C0 32.5633 1.09415 33.6612 2.44958 33.6612H16.6122C17.9652 33.6612 19.0618 32.5633 19.0618 31.2116V2.45203C19.0618 1.09906 17.9652 0 16.6122 0ZM6.03625 1.48913H13.028C13.2047 1.48913 13.3482 1.75285 13.3482 2.07914C13.3482 2.40542 13.2047 2.67037 13.028 2.67037H6.03625C5.85838 2.67037 5.71732 2.40542 5.71732 2.07914C5.71732 1.75285 5.85838 1.48913 6.03625 1.48913ZM9.53214 31.241C8.66982 31.241 7.96819 30.5394 7.96819 29.6759C7.96819 28.8123 8.66982 28.1131 9.53214 28.1131C10.392 28.1131 11.0936 28.8123 11.0936 29.6759C11.0936 30.5394 10.392 31.241 9.53214 31.241ZM17.2268 25.8819H1.83626V4.13742H17.2268V25.8819Z" fill="#2BD4D9"/>
<path d="M19.2987 11.1416H11.9733C10.6266 11.1416 9.53149 12.2367 9.53149 13.5834V20.9088C9.53149 22.2555 10.6266 23.3506 11.9733 23.3506H19.2987C20.6454 23.3506 21.7405 22.2556 21.7405 20.9088V13.5834C21.7405 12.2367 20.6454 11.1416 19.2987 11.1416Z" fill="#5433ED"/>
<path d="M33.9496 11.1416H26.6242C25.2775 11.1416 24.1824 12.2367 24.1824 13.5834V20.9088C24.1824 22.2555 25.2775 23.3506 26.6242 23.3506H33.9496C35.2963 23.3506 36.3914 22.2556 36.3914 20.9088V13.5834C36.3914 12.2367 35.2963 11.1416 33.9496 11.1416Z" fill="#5433ED"/>
<path d="M19.2987 25.793H11.9733C10.6266 25.793 9.53149 26.8881 9.53149 28.2348V35.5602C9.53149 36.9069 10.6266 38.002 11.9733 38.002H19.2987C20.6454 38.002 21.7405 36.9069 21.7405 35.5602V28.2348C21.7405 26.8881 20.6454 25.793 19.2987 25.793Z" fill="#5433ED"/>
<path d="M34.1521 25.793H26.8267C25.48 25.793 24.3849 26.8881 24.3849 28.2348V35.5602C24.3849 36.9069 25.48 38.002 26.8267 38.002H34.1521C35.4988 38.002 36.5939 36.9069 36.5939 35.5602V28.2348C36.5939 26.8881 35.4988 25.793 34.1521 25.793Z" fill="#5433ED"/>
</svg>
