<svg width="33" height="38" viewBox="0 0 33 38" fill="none" xmlns="http://www.w3.org/2000/svg">
<path d="M8.57093 27.514C8.69184 27.4519 8.82682 27.4212 8.96301 27.4249C9.0992 27.4286 9.23228 27.4665 9.34957 27.5352C11.611 28.835 14.1801 29.5185 16.7951 29.5161C19.3405 29.511 21.8423 28.863 24.064 27.6335C26.2857 26.404 28.154 24.6336 29.4915 22.4899C29.5176 22.447 29.5345 22.3994 29.5418 22.3499C29.5491 22.3004 29.5465 22.2499 29.5338 22.2015C29.5212 22.153 29.4988 22.1076 29.4682 22.0677C29.4375 22.0279 29.3991 21.9946 29.3553 21.9696L27.3255 20.8038C26.5582 20.3554 25.6694 20.1531 24.7813 20.2247C23.8932 20.2964 23.0492 20.6383 22.3653 21.2037C21.0163 22.3484 19.341 23.0494 17.5716 23.2099C15.8022 23.3703 14.0263 22.9822 12.4896 22.0992C10.9529 21.2162 9.73167 19.8821 8.99492 18.2816C8.25817 16.6811 8.04254 14.8935 8.37765 13.1662C8.66169 11.7024 9.33059 10.3385 10.3169 9.21206C11.3032 8.08566 12.5718 7.23653 13.9953 6.75029C15.4189 6.26405 16.9467 6.15787 18.4248 6.44246C19.903 6.72705 21.2794 7.39235 22.415 8.37129C23.0763 8.92547 23.8958 9.26183 24.7592 9.33356C25.6227 9.40529 26.4872 9.20883 27.2326 8.77151L29.3507 7.55249C29.3943 7.52729 29.4325 7.49376 29.463 7.45384C29.4934 7.41392 29.5155 7.3684 29.528 7.31994C29.5405 7.27148 29.5433 7.22103 29.536 7.17153C29.5287 7.12204 29.5114 7.07447 29.4854 7.0316C28.4582 5.37539 27.1106 3.93649 25.5197 2.7976C23.9289 1.65872 22.1262 0.842321 20.2156 0.395344C18.3049 -0.0516325 16.3241 -0.120371 14.3865 0.193079C12.4489 0.506528 10.5931 1.19599 8.92558 2.22181C7.2581 3.24764 5.81183 4.5896 4.67005 6.17055C3.52827 7.7515 2.71351 9.54026 2.27246 11.434C1.83141 13.3277 1.77275 15.289 2.10004 17.2053C2.42733 19.1215 3.13403 20.9547 4.17949 22.5997C4.25225 22.7162 4.29274 22.8496 4.29699 22.9866C4.30123 23.1235 4.26913 23.2592 4.20372 23.3799L0.0448282 31.1717C0.00616058 31.2442 -0.00800263 31.327 0.00433146 31.408C0.0166655 31.489 0.054724 31.564 0.113243 31.622C0.171762 31.68 0.247681 31.7178 0.329533 31.7301C0.411385 31.7424 0.494997 31.7283 0.568218 31.6901L8.57093 27.514Z" fill="#2BD4D9"/>
<path d="M32.3404 13.7451H29.0329C27.5709 13.7451 26.1687 14.384 25.1349 15.5212C24.1011 16.6584 23.5203 18.2007 23.5203 19.8089V23.4472H20.2128V28.2983H23.5203V38.0004H27.9304V28.2983H31.2379L32.3404 23.4472H27.9304V19.8089C27.9304 19.4873 28.0465 19.1788 28.2533 18.9514C28.4601 18.724 28.7405 18.5962 29.0329 18.5962H32.3404V13.7451Z" fill="#5433ED"/>
</svg>
