<svg width="1440" height="800" viewBox="0 0 1440 800" fill="none" xmlns="http://www.w3.org/2000/svg">
<mask id="mask0_4825_22129" style="mask-type:alpha" maskUnits="userSpaceOnUse" x="0" y="0" width="1440" height="800">
<rect width="1440" height="800" fill="#C4C4C4"/>
</mask>
<g mask="url(#mask0_4825_22129)">
</g>
<mask id="mask1_4825_22129" style="mask-type:alpha" maskUnits="userSpaceOnUse" x="0" y="0" width="1440" height="800">
<rect width="1440" height="800" fill="#C4C4C4"/>
</mask>
<g mask="url(#mask1_4825_22129)">
<path opacity="0.2" d="M0.5 530.001C83 613.501 176.5 682.501 256.5 632.501C528.5 420.302 920.015 357.755 1150.86 463.044C1320.65 563.935 1359.38 520.339 1440 463.044" stroke="#2BD4D9" stroke-width="2" stroke-linecap="round" stroke-linejoin="round" stroke-dasharray="10 10"/>
<g opacity="0.1">
<circle cx="724.58" cy="143.58" r="2.58013" fill="#2BD4D9"/>
<circle cx="740.061" cy="143.58" r="2.58013" fill="#2BD4D9"/>
<circle cx="755.542" cy="143.58" r="2.58013" fill="#2BD4D9"/>
<circle cx="771.022" cy="143.58" r="2.58013" fill="#2BD4D9"/>
<circle cx="786.503" cy="143.58" r="2.58013" fill="#2BD4D9"/>
<circle cx="801.984" cy="143.58" r="2.58013" fill="#2BD4D9"/>
<circle cx="817.465" cy="143.58" r="2.58013" fill="#2BD4D9"/>
<circle cx="832.945" cy="143.58" r="2.58013" fill="#2BD4D9"/>
<circle cx="848.426" cy="143.58" r="2.58013" fill="#2BD4D9"/>
<circle cx="863.907" cy="143.58" r="2.58013" fill="#2BD4D9"/>
<circle cx="879.388" cy="143.58" r="2.58013" fill="#2BD4D9"/>
<circle cx="894.869" cy="143.58" r="2.58013" fill="#2BD4D9"/>
<circle cx="724.58" cy="164.221" r="2.58013" fill="#2BD4D9"/>
<circle cx="740.061" cy="164.221" r="2.58013" fill="#2BD4D9"/>
<circle cx="755.542" cy="164.221" r="2.58013" fill="#2BD4D9"/>
<circle cx="771.023" cy="164.221" r="2.58013" fill="#2BD4D9"/>
<circle cx="786.503" cy="164.221" r="2.58013" fill="#2BD4D9"/>
<circle cx="801.984" cy="164.221" r="2.58013" fill="#2BD4D9"/>
<circle cx="817.465" cy="164.221" r="2.58013" fill="#2BD4D9"/>
<circle cx="832.946" cy="164.221" r="2.58013" fill="#2BD4D9"/>
<circle cx="848.426" cy="164.221" r="2.58013" fill="#2BD4D9"/>
<circle cx="863.907" cy="164.221" r="2.58013" fill="#2BD4D9"/>
<circle cx="879.388" cy="164.221" r="2.58013" fill="#2BD4D9"/>
<circle cx="894.869" cy="164.221" r="2.58013" fill="#2BD4D9"/>
<circle cx="724.58" cy="184.861" r="2.58013" fill="#2BD4D9"/>
<circle cx="740.061" cy="184.861" r="2.58013" fill="#2BD4D9"/>
<circle cx="755.542" cy="184.861" r="2.58013" fill="#2BD4D9"/>
<circle cx="771.023" cy="184.861" r="2.58013" fill="#2BD4D9"/>
<circle cx="786.503" cy="184.861" r="2.58013" fill="#2BD4D9"/>
<circle cx="801.984" cy="184.861" r="2.58013" fill="#2BD4D9"/>
<circle cx="817.465" cy="184.861" r="2.58013" fill="#2BD4D9"/>
<circle cx="832.946" cy="184.861" r="2.58013" fill="#2BD4D9"/>
<circle cx="848.426" cy="184.861" r="2.58013" fill="#2BD4D9"/>
<circle cx="863.907" cy="184.861" r="2.58013" fill="#2BD4D9"/>
<circle cx="879.388" cy="184.861" r="2.58013" fill="#2BD4D9"/>
<circle cx="894.869" cy="184.861" r="2.58013" fill="#2BD4D9"/>
<circle cx="724.58" cy="205.502" r="2.58013" fill="#2BD4D9"/>
<circle cx="740.061" cy="205.502" r="2.58013" fill="#2BD4D9"/>
<circle cx="755.542" cy="205.502" r="2.58013" fill="#2BD4D9"/>
<circle cx="771.023" cy="205.502" r="2.58013" fill="#2BD4D9"/>
<circle cx="786.503" cy="205.502" r="2.58013" fill="#2BD4D9"/>
<circle cx="801.984" cy="205.502" r="2.58013" fill="#2BD4D9"/>
<circle cx="817.465" cy="205.502" r="2.58013" fill="#2BD4D9"/>
<circle cx="832.946" cy="205.502" r="2.58013" fill="#2BD4D9"/>
<circle cx="848.426" cy="205.502" r="2.58013" fill="#2BD4D9"/>
<circle cx="863.907" cy="205.502" r="2.58013" fill="#2BD4D9"/>
<circle cx="879.388" cy="205.502" r="2.58013" fill="#2BD4D9"/>
<circle cx="894.869" cy="205.502" r="2.58013" fill="#2BD4D9"/>
<circle cx="724.58" cy="226.143" r="2.58013" fill="#2BD4D9"/>
<circle cx="740.061" cy="226.143" r="2.58013" fill="#2BD4D9"/>
<circle cx="755.542" cy="226.143" r="2.58013" fill="#2BD4D9"/>
<circle cx="771.023" cy="226.143" r="2.58013" fill="#2BD4D9"/>
<circle cx="786.503" cy="226.143" r="2.58013" fill="#2BD4D9"/>
<circle cx="801.984" cy="226.143" r="2.58013" fill="#2BD4D9"/>
<circle cx="817.465" cy="226.143" r="2.58013" fill="#2BD4D9"/>
<circle cx="832.946" cy="226.143" r="2.58013" fill="#2BD4D9"/>
<circle cx="848.426" cy="226.143" r="2.58013" fill="#2BD4D9"/>
<circle cx="863.907" cy="226.143" r="2.58013" fill="#2BD4D9"/>
<circle cx="879.388" cy="226.143" r="2.58013" fill="#2BD4D9"/>
<circle cx="894.869" cy="226.143" r="2.58013" fill="#2BD4D9"/>
<circle cx="724.58" cy="246.787" r="2.58013" fill="#2BD4D9"/>
<circle cx="740.061" cy="246.787" r="2.58013" fill="#2BD4D9"/>
<circle cx="755.542" cy="246.787" r="2.58013" fill="#2BD4D9"/>
<circle cx="771.023" cy="246.787" r="2.58013" fill="#2BD4D9"/>
<circle cx="786.503" cy="246.787" r="2.58013" fill="#2BD4D9"/>
<circle cx="801.984" cy="246.787" r="2.58013" fill="#2BD4D9"/>
<circle cx="817.465" cy="246.787" r="2.58013" fill="#2BD4D9"/>
<circle cx="832.946" cy="246.787" r="2.58013" fill="#2BD4D9"/>
<circle cx="848.426" cy="246.787" r="2.58013" fill="#2BD4D9"/>
<circle cx="863.907" cy="246.787" r="2.58013" fill="#2BD4D9"/>
<circle cx="879.388" cy="246.787" r="2.58013" fill="#2BD4D9"/>
<circle cx="894.869" cy="246.787" r="2.58013" fill="#2BD4D9"/>
<circle cx="724.58" cy="267.428" r="2.58013" fill="#2BD4D9"/>
<circle cx="740.061" cy="267.428" r="2.58013" fill="#2BD4D9"/>
<circle cx="755.542" cy="267.428" r="2.58013" fill="#2BD4D9"/>
<circle cx="771.023" cy="267.428" r="2.58013" fill="#2BD4D9"/>
<circle cx="786.503" cy="267.428" r="2.58013" fill="#2BD4D9"/>
<circle cx="801.984" cy="267.428" r="2.58013" fill="#2BD4D9"/>
<circle cx="817.465" cy="267.428" r="2.58013" fill="#2BD4D9"/>
<circle cx="832.946" cy="267.428" r="2.58013" fill="#2BD4D9"/>
<circle cx="848.426" cy="267.428" r="2.58013" fill="#2BD4D9"/>
<circle cx="863.907" cy="267.428" r="2.58013" fill="#2BD4D9"/>
<circle cx="879.388" cy="267.428" r="2.58013" fill="#2BD4D9"/>
<circle cx="894.869" cy="267.428" r="2.58013" fill="#2BD4D9"/>
<circle cx="724.58" cy="288.068" r="2.58013" fill="#2BD4D9"/>
<circle cx="740.061" cy="288.068" r="2.58013" fill="#2BD4D9"/>
<circle cx="755.542" cy="288.068" r="2.58013" fill="#2BD4D9"/>
<circle cx="771.023" cy="288.068" r="2.58013" fill="#2BD4D9"/>
<circle cx="786.503" cy="288.068" r="2.58013" fill="#2BD4D9"/>
<circle cx="801.984" cy="288.068" r="2.58013" fill="#2BD4D9"/>
<circle cx="817.465" cy="288.068" r="2.58013" fill="#2BD4D9"/>
<circle cx="832.946" cy="288.068" r="2.58013" fill="#2BD4D9"/>
<circle cx="848.426" cy="288.068" r="2.58013" fill="#2BD4D9"/>
<circle cx="863.907" cy="288.068" r="2.58013" fill="#2BD4D9"/>
<circle cx="879.388" cy="288.068" r="2.58013" fill="#2BD4D9"/>
<circle cx="894.869" cy="288.068" r="2.58013" fill="#2BD4D9"/>
</g>
<g opacity="0.1">
<circle cx="1242.58" cy="518.58" r="2.58013" fill="#2BD4D9"/>
<circle cx="1258.06" cy="518.58" r="2.58013" fill="#2BD4D9"/>
<circle cx="1273.54" cy="518.58" r="2.58013" fill="#2BD4D9"/>
<circle cx="1289.02" cy="518.58" r="2.58013" fill="#2BD4D9"/>
<circle cx="1304.5" cy="518.58" r="2.58013" fill="#2BD4D9"/>
<circle cx="1319.98" cy="518.58" r="2.58013" fill="#2BD4D9"/>
<circle cx="1335.46" cy="518.58" r="2.58013" fill="#2BD4D9"/>
<circle cx="1350.95" cy="518.58" r="2.58013" fill="#2BD4D9"/>
<circle cx="1366.43" cy="518.58" r="2.58013" fill="#2BD4D9"/>
<circle cx="1381.91" cy="518.58" r="2.58013" fill="#2BD4D9"/>
<circle cx="1397.39" cy="518.58" r="2.58013" fill="#2BD4D9"/>
<circle cx="1412.87" cy="518.58" r="2.58013" fill="#2BD4D9"/>
<circle cx="1242.58" cy="539.221" r="2.58013" fill="#2BD4D9"/>
<circle cx="1258.06" cy="539.221" r="2.58013" fill="#2BD4D9"/>
<circle cx="1273.54" cy="539.221" r="2.58013" fill="#2BD4D9"/>
<circle cx="1289.02" cy="539.221" r="2.58013" fill="#2BD4D9"/>
<circle cx="1304.5" cy="539.221" r="2.58013" fill="#2BD4D9"/>
<circle cx="1319.98" cy="539.221" r="2.58013" fill="#2BD4D9"/>
<circle cx="1335.46" cy="539.221" r="2.58013" fill="#2BD4D9"/>
<circle cx="1350.95" cy="539.221" r="2.58013" fill="#2BD4D9"/>
<circle cx="1366.43" cy="539.221" r="2.58013" fill="#2BD4D9"/>
<circle cx="1381.91" cy="539.221" r="2.58013" fill="#2BD4D9"/>
<circle cx="1397.39" cy="539.221" r="2.58013" fill="#2BD4D9"/>
<circle cx="1412.87" cy="539.221" r="2.58013" fill="#2BD4D9"/>
<circle cx="1242.58" cy="559.861" r="2.58013" fill="#2BD4D9"/>
<circle cx="1258.06" cy="559.861" r="2.58013" fill="#2BD4D9"/>
<circle cx="1273.54" cy="559.861" r="2.58013" fill="#2BD4D9"/>
<circle cx="1289.02" cy="559.861" r="2.58013" fill="#2BD4D9"/>
<circle cx="1304.5" cy="559.861" r="2.58013" fill="#2BD4D9"/>
<circle cx="1319.98" cy="559.861" r="2.58013" fill="#2BD4D9"/>
<circle cx="1335.46" cy="559.861" r="2.58013" fill="#2BD4D9"/>
<circle cx="1350.95" cy="559.861" r="2.58013" fill="#2BD4D9"/>
<circle cx="1366.43" cy="559.861" r="2.58013" fill="#2BD4D9"/>
<circle cx="1381.91" cy="559.861" r="2.58013" fill="#2BD4D9"/>
<circle cx="1397.39" cy="559.861" r="2.58013" fill="#2BD4D9"/>
<circle cx="1412.87" cy="559.861" r="2.58013" fill="#2BD4D9"/>
<circle cx="1242.58" cy="580.502" r="2.58013" fill="#2BD4D9"/>
<circle cx="1258.06" cy="580.502" r="2.58013" fill="#2BD4D9"/>
<circle cx="1273.54" cy="580.502" r="2.58013" fill="#2BD4D9"/>
<circle cx="1289.02" cy="580.502" r="2.58013" fill="#2BD4D9"/>
<circle cx="1304.5" cy="580.502" r="2.58013" fill="#2BD4D9"/>
<circle cx="1319.98" cy="580.502" r="2.58013" fill="#2BD4D9"/>
<circle cx="1335.46" cy="580.502" r="2.58013" fill="#2BD4D9"/>
<circle cx="1350.95" cy="580.502" r="2.58013" fill="#2BD4D9"/>
<circle cx="1366.43" cy="580.502" r="2.58013" fill="#2BD4D9"/>
<circle cx="1381.91" cy="580.502" r="2.58013" fill="#2BD4D9"/>
<circle cx="1397.39" cy="580.502" r="2.58013" fill="#2BD4D9"/>
<circle cx="1412.87" cy="580.502" r="2.58013" fill="#2BD4D9"/>
<circle cx="1242.58" cy="601.143" r="2.58013" fill="#2BD4D9"/>
<circle cx="1258.06" cy="601.143" r="2.58013" fill="#2BD4D9"/>
<circle cx="1273.54" cy="601.143" r="2.58013" fill="#2BD4D9"/>
<circle cx="1289.02" cy="601.143" r="2.58013" fill="#2BD4D9"/>
<circle cx="1304.5" cy="601.143" r="2.58013" fill="#2BD4D9"/>
<circle cx="1319.98" cy="601.143" r="2.58013" fill="#2BD4D9"/>
<circle cx="1335.46" cy="601.143" r="2.58013" fill="#2BD4D9"/>
<circle cx="1350.95" cy="601.143" r="2.58013" fill="#2BD4D9"/>
<circle cx="1366.43" cy="601.143" r="2.58013" fill="#2BD4D9"/>
<circle cx="1381.91" cy="601.143" r="2.58013" fill="#2BD4D9"/>
<circle cx="1397.39" cy="601.143" r="2.58013" fill="#2BD4D9"/>
<circle cx="1412.87" cy="601.143" r="2.58013" fill="#2BD4D9"/>
<circle cx="1242.58" cy="621.787" r="2.58013" fill="#2BD4D9"/>
<circle cx="1258.06" cy="621.787" r="2.58013" fill="#2BD4D9"/>
<circle cx="1273.54" cy="621.787" r="2.58013" fill="#2BD4D9"/>
<circle cx="1289.02" cy="621.787" r="2.58013" fill="#2BD4D9"/>
<circle cx="1304.5" cy="621.787" r="2.58013" fill="#2BD4D9"/>
<circle cx="1319.98" cy="621.787" r="2.58013" fill="#2BD4D9"/>
<circle cx="1335.46" cy="621.787" r="2.58013" fill="#2BD4D9"/>
<circle cx="1350.95" cy="621.787" r="2.58013" fill="#2BD4D9"/>
<circle cx="1366.43" cy="621.787" r="2.58013" fill="#2BD4D9"/>
<circle cx="1381.91" cy="621.787" r="2.58013" fill="#2BD4D9"/>
<circle cx="1397.39" cy="621.787" r="2.58013" fill="#2BD4D9"/>
<circle cx="1412.87" cy="621.787" r="2.58013" fill="#2BD4D9"/>
<circle cx="1242.58" cy="642.428" r="2.58013" fill="#2BD4D9"/>
<circle cx="1258.06" cy="642.428" r="2.58013" fill="#2BD4D9"/>
<circle cx="1273.54" cy="642.428" r="2.58013" fill="#2BD4D9"/>
<circle cx="1289.02" cy="642.428" r="2.58013" fill="#2BD4D9"/>
<circle cx="1304.5" cy="642.428" r="2.58013" fill="#2BD4D9"/>
<circle cx="1319.98" cy="642.428" r="2.58013" fill="#2BD4D9"/>
<circle cx="1335.46" cy="642.428" r="2.58013" fill="#2BD4D9"/>
<circle cx="1350.95" cy="642.428" r="2.58013" fill="#2BD4D9"/>
<circle cx="1366.43" cy="642.428" r="2.58013" fill="#2BD4D9"/>
<circle cx="1381.91" cy="642.428" r="2.58013" fill="#2BD4D9"/>
<circle cx="1397.39" cy="642.428" r="2.58013" fill="#2BD4D9"/>
<circle cx="1412.87" cy="642.428" r="2.58013" fill="#2BD4D9"/>
<circle cx="1242.58" cy="663.068" r="2.58013" fill="#2BD4D9"/>
<circle cx="1258.06" cy="663.068" r="2.58013" fill="#2BD4D9"/>
<circle cx="1273.54" cy="663.068" r="2.58013" fill="#2BD4D9"/>
<circle cx="1289.02" cy="663.068" r="2.58013" fill="#2BD4D9"/>
<circle cx="1304.5" cy="663.068" r="2.58013" fill="#2BD4D9"/>
<circle cx="1319.98" cy="663.068" r="2.58013" fill="#2BD4D9"/>
<circle cx="1335.46" cy="663.068" r="2.58013" fill="#2BD4D9"/>
<circle cx="1350.95" cy="663.068" r="2.58013" fill="#2BD4D9"/>
<circle cx="1366.43" cy="663.068" r="2.58013" fill="#2BD4D9"/>
<circle cx="1381.91" cy="663.068" r="2.58013" fill="#2BD4D9"/>
<circle cx="1397.39" cy="663.068" r="2.58013" fill="#2BD4D9"/>
<circle cx="1412.87" cy="663.068" r="2.58013" fill="#2BD4D9"/>
</g>
<path opacity="0.05" d="M364.555 202.763C352.042 177.061 327.529 161.103 302.142 156.291C276.755 151.492 250.534 156.708 225.827 165.522C198.925 175.13 172.611 189.119 144.554 190.846C109.369 193.011 75.4728 175.424 46.9506 152.138C32.1313 140.049 18.2668 126.311 2.38302 116.132C-13.5014 105.968 -32.0934 99.4846 -50.0923 103.53C-89.4155 112.347 -110.808 165.811 -149.065 179.719C-167.381 186.381 -187.008 183 -206.1 181.744C-225.192 180.488 -246.066 182.145 -260.73 196.469C-280.492 215.805 -281.402 250.68 -274.7 279.177C-263.667 326.119 -232.367 369.794 -190.38 376.768C-168.05 380.471 -145.156 373.672 -122.661 375.942C-114.224 376.809 -105.938 378.952 -98.0179 382.315C-96.9936 383.091 -95.9943 383.88 -94.9964 384.696C-72.4636 403.11 -55.5391 430.152 -31.0312 444.906C-30.5808 445.179 -30.1296 445.438 -29.6664 445.698C-27.7726 447.233 -25.8035 448.643 -23.7686 449.922C-11.8429 457.409 2.05299 459.781 15.7868 458.574C19.382 458.854 22.9966 458.981 26.5921 458.995C74.1293 459.11 120.578 441.243 158.757 408.159C186.46 384.013 209.456 352.06 240.632 334.461C268.164 318.933 299.641 316.021 328.361 303.754C338.598 299.388 348.641 293.683 356.475 284.906C375.038 264.1 377.057 228.451 364.555 202.763Z" fill="#2BD4D9"/>
<rect opacity="0.5" x="521.949" y="216.949" width="78.1734" height="56.5067" rx="3.7977" stroke="#F7F7F7" stroke-width="1.89885"/>
<rect x="534.126" y="241.535" width="13.4647" height="18.8374" rx="2.58027" fill="#2BD4D9" fill-opacity="0.4"/>
<rect x="554.304" y="230.035" width="13.4647" height="30.3356" rx="2.58027" fill="#2BD4D9" fill-opacity="0.19"/>
<rect x="574.482" y="234.93" width="13.4647" height="25.4427" rx="2.58027" fill="#BBD8E6"/>
<rect opacity="0.5" x="525.76" y="225.496" width="68.4262" height="41.4212" fill="white"/>
</g>
<path d="M1740.16 517.742C1717.72 553.808 1676.38 575.078 1634.46 580.285C1592.54 585.472 1550.02 576.224 1510.26 561.91C1466.97 546.309 1424.97 524.457 1379.18 520.094C1321.76 514.626 1264.94 537.604 1216.48 569.127C1191.3 585.492 1167.55 604.289 1140.78 617.839C1114 631.369 1083.08 639.431 1053.93 632.414C990.246 617.115 959.321 538.911 897.77 516.375C868.302 505.579 835.921 509.117 804.577 509.64C773.233 510.163 739.196 506.383 716.292 484.832C685.427 455.741 686.604 405.602 699.752 365.133C721.399 298.469 775.967 237.856 845.218 230.658C882.049 226.839 918.999 238.137 955.989 236.388C969.864 235.709 983.589 233.188 996.81 228.889C998.545 227.844 1000.24 226.778 1001.94 225.673C1065.55 184.254 1107.68 126.698 1188.9 127.023C1188.9 127.023 1200.73 126.922 1206.62 127.143C1284.43 130.168 1359.09 158.938 1419.04 209.006C1462.54 245.535 1497.73 292.96 1547.41 320.322C1591.28 344.466 1642.58 350.759 1688.65 370.3C1705.07 377.256 1721.07 386.122 1733.22 399.249C1762.01 430.37 1762.59 481.696 1740.16 517.742Z" fill="url(#paint0_linear_4825_22129)"/>
<defs>
<linearGradient id="paint0_linear_4825_22129" x1="952.775" y1="273.021" x2="1639.63" y2="742.744" gradientUnits="userSpaceOnUse">
<stop stop-color="#2BD4D9"/>
<stop offset="1" stop-color="#5433ED"/>
</linearGradient>
</defs>
</svg>
