<svg width="1440" height="800" viewBox="0 0 1440 800" fill="none" xmlns="http://www.w3.org/2000/svg">
<mask id="mask0_3727_7584" style="mask-type:alpha" maskUnits="userSpaceOnUse" x="0" y="0" width="1440" height="800">
<rect width="1440" height="800" fill="#C4C4C4"/>
</mask>
<g mask="url(#mask0_3727_7584)">
<path d="M1739.16 542.742C1716.72 578.808 1675.38 600.078 1633.46 605.285C1591.54 610.472 1549.02 601.224 1509.26 586.91C1465.97 571.309 1423.97 549.457 1378.18 545.094C1320.76 539.626 1263.94 562.604 1215.48 594.127C1190.3 610.492 1166.55 629.289 1139.78 642.839C1113 656.369 1082.08 664.431 1052.93 657.414C989.245 642.115 958.321 563.911 896.77 541.375C867.302 530.579 834.921 534.117 803.577 534.64C772.233 535.163 738.196 531.383 715.292 509.832C684.427 480.741 685.604 430.602 698.752 390.133C720.399 323.469 774.966 262.856 844.218 255.658C881.049 251.839 917.999 263.137 954.989 261.388C968.864 260.709 982.589 258.188 995.809 253.889C997.545 252.844 999.241 251.778 1000.94 250.673C1064.55 209.254 1106.68 151.698 1187.9 152.023C1187.9 152.023 1199.73 151.922 1205.62 152.143C1283.43 155.168 1358.09 183.938 1418.04 234.006C1461.54 270.535 1496.73 317.96 1546.41 345.322C1590.28 369.466 1641.58 375.759 1687.65 395.3C1704.07 402.256 1720.07 411.122 1732.22 424.249C1761.01 455.37 1761.59 506.696 1739.16 542.742Z" fill="url(#paint0_linear_3727_7584)"/>
<path opacity="0.2" d="M0.5 530.001C83 613.501 176.5 682.501 256.5 632.501C528.5 420.302 920.015 357.755 1150.86 463.044C1320.65 563.935 1359.38 520.339 1440 463.044" stroke="#2BD4D9" stroke-width="2" stroke-linecap="round" stroke-linejoin="round" stroke-dasharray="10 10"/>
<g opacity="0.1">
<circle cx="724.58" cy="143.58" r="2.58013" fill="#2BD4D9"/>
<circle cx="740.061" cy="143.58" r="2.58013" fill="#2BD4D9"/>
<circle cx="755.542" cy="143.58" r="2.58013" fill="#2BD4D9"/>
<circle cx="771.022" cy="143.58" r="2.58013" fill="#2BD4D9"/>
<circle cx="786.503" cy="143.58" r="2.58013" fill="#2BD4D9"/>
<circle cx="801.984" cy="143.58" r="2.58013" fill="#2BD4D9"/>
<circle cx="817.465" cy="143.58" r="2.58013" fill="#2BD4D9"/>
<circle cx="832.945" cy="143.58" r="2.58013" fill="#2BD4D9"/>
<circle cx="848.426" cy="143.58" r="2.58013" fill="#2BD4D9"/>
<circle cx="863.907" cy="143.58" r="2.58013" fill="#2BD4D9"/>
<circle cx="879.388" cy="143.58" r="2.58013" fill="#2BD4D9"/>
<circle cx="894.869" cy="143.58" r="2.58013" fill="#2BD4D9"/>
<circle cx="724.58" cy="164.221" r="2.58013" fill="#2BD4D9"/>
<circle cx="740.061" cy="164.221" r="2.58013" fill="#2BD4D9"/>
<circle cx="755.542" cy="164.221" r="2.58013" fill="#2BD4D9"/>
<circle cx="771.022" cy="164.221" r="2.58013" fill="#2BD4D9"/>
<circle cx="786.503" cy="164.221" r="2.58013" fill="#2BD4D9"/>
<circle cx="801.984" cy="164.221" r="2.58013" fill="#2BD4D9"/>
<circle cx="817.465" cy="164.221" r="2.58013" fill="#2BD4D9"/>
<circle cx="832.945" cy="164.221" r="2.58013" fill="#2BD4D9"/>
<circle cx="848.426" cy="164.221" r="2.58013" fill="#2BD4D9"/>
<circle cx="863.907" cy="164.221" r="2.58013" fill="#2BD4D9"/>
<circle cx="879.388" cy="164.221" r="2.58013" fill="#2BD4D9"/>
<circle cx="894.869" cy="164.221" r="2.58013" fill="#2BD4D9"/>
<circle cx="724.58" cy="184.861" r="2.58013" fill="#2BD4D9"/>
<circle cx="740.061" cy="184.861" r="2.58013" fill="#2BD4D9"/>
<circle cx="755.542" cy="184.861" r="2.58013" fill="#2BD4D9"/>
<circle cx="771.022" cy="184.861" r="2.58013" fill="#2BD4D9"/>
<circle cx="786.503" cy="184.861" r="2.58013" fill="#2BD4D9"/>
<circle cx="801.984" cy="184.861" r="2.58013" fill="#2BD4D9"/>
<circle cx="817.465" cy="184.861" r="2.58013" fill="#2BD4D9"/>
<circle cx="832.945" cy="184.861" r="2.58013" fill="#2BD4D9"/>
<circle cx="848.426" cy="184.861" r="2.58013" fill="#2BD4D9"/>
<circle cx="863.907" cy="184.861" r="2.58013" fill="#2BD4D9"/>
<circle cx="879.388" cy="184.861" r="2.58013" fill="#2BD4D9"/>
<circle cx="894.869" cy="184.861" r="2.58013" fill="#2BD4D9"/>
<circle cx="724.58" cy="205.502" r="2.58013" fill="#2BD4D9"/>
<circle cx="740.061" cy="205.502" r="2.58013" fill="#2BD4D9"/>
<circle cx="755.542" cy="205.502" r="2.58013" fill="#2BD4D9"/>
<circle cx="771.022" cy="205.502" r="2.58013" fill="#2BD4D9"/>
<circle cx="786.503" cy="205.502" r="2.58013" fill="#2BD4D9"/>
<circle cx="801.984" cy="205.502" r="2.58013" fill="#2BD4D9"/>
<circle cx="817.465" cy="205.502" r="2.58013" fill="#2BD4D9"/>
<circle cx="832.945" cy="205.502" r="2.58013" fill="#2BD4D9"/>
<circle cx="848.426" cy="205.502" r="2.58013" fill="#2BD4D9"/>
<circle cx="863.907" cy="205.502" r="2.58013" fill="#2BD4D9"/>
<circle cx="879.388" cy="205.502" r="2.58013" fill="#2BD4D9"/>
<circle cx="894.869" cy="205.502" r="2.58013" fill="#2BD4D9"/>
<circle cx="724.58" cy="226.142" r="2.58013" fill="#2BD4D9"/>
<circle cx="740.061" cy="226.142" r="2.58013" fill="#2BD4D9"/>
<circle cx="755.542" cy="226.142" r="2.58013" fill="#2BD4D9"/>
<circle cx="771.022" cy="226.142" r="2.58013" fill="#2BD4D9"/>
<circle cx="786.503" cy="226.142" r="2.58013" fill="#2BD4D9"/>
<circle cx="801.984" cy="226.142" r="2.58013" fill="#2BD4D9"/>
<circle cx="817.465" cy="226.142" r="2.58013" fill="#2BD4D9"/>
<circle cx="832.945" cy="226.142" r="2.58013" fill="#2BD4D9"/>
<circle cx="848.426" cy="226.142" r="2.58013" fill="#2BD4D9"/>
<circle cx="863.907" cy="226.142" r="2.58013" fill="#2BD4D9"/>
<circle cx="879.388" cy="226.142" r="2.58013" fill="#2BD4D9"/>
<circle cx="894.869" cy="226.142" r="2.58013" fill="#2BD4D9"/>
<circle cx="724.58" cy="246.787" r="2.58013" fill="#2BD4D9"/>
<circle cx="740.061" cy="246.787" r="2.58013" fill="#2BD4D9"/>
<circle cx="755.542" cy="246.787" r="2.58013" fill="#2BD4D9"/>
<circle cx="771.022" cy="246.787" r="2.58013" fill="#2BD4D9"/>
<circle cx="786.503" cy="246.787" r="2.58013" fill="#2BD4D9"/>
<circle cx="801.984" cy="246.787" r="2.58013" fill="#2BD4D9"/>
<circle cx="817.465" cy="246.787" r="2.58013" fill="#2BD4D9"/>
<circle cx="832.945" cy="246.787" r="2.58013" fill="#2BD4D9"/>
<circle cx="848.426" cy="246.787" r="2.58013" fill="#2BD4D9"/>
<circle cx="863.907" cy="246.787" r="2.58013" fill="#2BD4D9"/>
<circle cx="879.388" cy="246.787" r="2.58013" fill="#2BD4D9"/>
<circle cx="894.869" cy="246.787" r="2.58013" fill="#2BD4D9"/>
<circle cx="724.58" cy="267.428" r="2.58013" fill="#2BD4D9"/>
<circle cx="740.061" cy="267.428" r="2.58013" fill="#2BD4D9"/>
<circle cx="755.542" cy="267.428" r="2.58013" fill="#2BD4D9"/>
<circle cx="771.022" cy="267.428" r="2.58013" fill="#2BD4D9"/>
<circle cx="786.503" cy="267.428" r="2.58013" fill="#2BD4D9"/>
<circle cx="801.984" cy="267.428" r="2.58013" fill="#2BD4D9"/>
<circle cx="817.465" cy="267.428" r="2.58013" fill="#2BD4D9"/>
<circle cx="832.945" cy="267.428" r="2.58013" fill="#2BD4D9"/>
<circle cx="848.426" cy="267.428" r="2.58013" fill="#2BD4D9"/>
<circle cx="863.907" cy="267.428" r="2.58013" fill="#2BD4D9"/>
<circle cx="879.388" cy="267.428" r="2.58013" fill="#2BD4D9"/>
<circle cx="894.869" cy="267.428" r="2.58013" fill="#2BD4D9"/>
<circle cx="724.58" cy="288.068" r="2.58013" fill="#2BD4D9"/>
<circle cx="740.061" cy="288.068" r="2.58013" fill="#2BD4D9"/>
<circle cx="755.542" cy="288.068" r="2.58013" fill="#2BD4D9"/>
<circle cx="771.022" cy="288.068" r="2.58013" fill="#2BD4D9"/>
<circle cx="786.503" cy="288.068" r="2.58013" fill="#2BD4D9"/>
<circle cx="801.984" cy="288.068" r="2.58013" fill="#2BD4D9"/>
<circle cx="817.465" cy="288.068" r="2.58013" fill="#2BD4D9"/>
<circle cx="832.945" cy="288.068" r="2.58013" fill="#2BD4D9"/>
<circle cx="848.426" cy="288.068" r="2.58013" fill="#2BD4D9"/>
<circle cx="863.907" cy="288.068" r="2.58013" fill="#2BD4D9"/>
<circle cx="879.388" cy="288.068" r="2.58013" fill="#2BD4D9"/>
<circle cx="894.869" cy="288.068" r="2.58013" fill="#2BD4D9"/>
</g>
<g opacity="0.1">
<circle cx="1242.58" cy="518.58" r="2.58013" fill="#2BD4D9"/>
<circle cx="1258.06" cy="518.58" r="2.58013" fill="#2BD4D9"/>
<circle cx="1273.54" cy="518.58" r="2.58013" fill="#2BD4D9"/>
<circle cx="1289.02" cy="518.58" r="2.58013" fill="#2BD4D9"/>
<circle cx="1304.5" cy="518.58" r="2.58013" fill="#2BD4D9"/>
<circle cx="1319.98" cy="518.58" r="2.58013" fill="#2BD4D9"/>
<circle cx="1335.46" cy="518.58" r="2.58013" fill="#2BD4D9"/>
<circle cx="1350.95" cy="518.58" r="2.58013" fill="#2BD4D9"/>
<circle cx="1366.43" cy="518.58" r="2.58013" fill="#2BD4D9"/>
<circle cx="1381.91" cy="518.58" r="2.58013" fill="#2BD4D9"/>
<circle cx="1397.39" cy="518.58" r="2.58013" fill="#2BD4D9"/>
<circle cx="1412.87" cy="518.58" r="2.58013" fill="#2BD4D9"/>
<circle cx="1242.58" cy="539.221" r="2.58013" fill="#2BD4D9"/>
<circle cx="1258.06" cy="539.221" r="2.58013" fill="#2BD4D9"/>
<circle cx="1273.54" cy="539.221" r="2.58013" fill="#2BD4D9"/>
<circle cx="1289.02" cy="539.221" r="2.58013" fill="#2BD4D9"/>
<circle cx="1304.5" cy="539.221" r="2.58013" fill="#2BD4D9"/>
<circle cx="1319.98" cy="539.221" r="2.58013" fill="#2BD4D9"/>
<circle cx="1335.46" cy="539.221" r="2.58013" fill="#2BD4D9"/>
<circle cx="1350.95" cy="539.221" r="2.58013" fill="#2BD4D9"/>
<circle cx="1366.43" cy="539.221" r="2.58013" fill="#2BD4D9"/>
<circle cx="1381.91" cy="539.221" r="2.58013" fill="#2BD4D9"/>
<circle cx="1397.39" cy="539.221" r="2.58013" fill="#2BD4D9"/>
<circle cx="1412.87" cy="539.221" r="2.58013" fill="#2BD4D9"/>
<circle cx="1242.58" cy="559.861" r="2.58013" fill="#2BD4D9"/>
<circle cx="1258.06" cy="559.861" r="2.58013" fill="#2BD4D9"/>
<circle cx="1273.54" cy="559.861" r="2.58013" fill="#2BD4D9"/>
<circle cx="1289.02" cy="559.861" r="2.58013" fill="#2BD4D9"/>
<circle cx="1304.5" cy="559.861" r="2.58013" fill="#2BD4D9"/>
<circle cx="1319.98" cy="559.861" r="2.58013" fill="#2BD4D9"/>
<circle cx="1335.46" cy="559.861" r="2.58013" fill="#2BD4D9"/>
<circle cx="1350.95" cy="559.861" r="2.58013" fill="#2BD4D9"/>
<circle cx="1366.43" cy="559.861" r="2.58013" fill="#2BD4D9"/>
<circle cx="1381.91" cy="559.861" r="2.58013" fill="#2BD4D9"/>
<circle cx="1397.39" cy="559.861" r="2.58013" fill="#2BD4D9"/>
<circle cx="1412.87" cy="559.861" r="2.58013" fill="#2BD4D9"/>
<circle cx="1242.58" cy="580.502" r="2.58013" fill="#2BD4D9"/>
<circle cx="1258.06" cy="580.502" r="2.58013" fill="#2BD4D9"/>
<circle cx="1273.54" cy="580.502" r="2.58013" fill="#2BD4D9"/>
<circle cx="1289.02" cy="580.502" r="2.58013" fill="#2BD4D9"/>
<circle cx="1304.5" cy="580.502" r="2.58013" fill="#2BD4D9"/>
<circle cx="1319.98" cy="580.502" r="2.58013" fill="#2BD4D9"/>
<circle cx="1335.46" cy="580.502" r="2.58013" fill="#2BD4D9"/>
<circle cx="1350.95" cy="580.502" r="2.58013" fill="#2BD4D9"/>
<circle cx="1366.43" cy="580.502" r="2.58013" fill="#2BD4D9"/>
<circle cx="1381.91" cy="580.502" r="2.58013" fill="#2BD4D9"/>
<circle cx="1397.39" cy="580.502" r="2.58013" fill="#2BD4D9"/>
<circle cx="1412.87" cy="580.502" r="2.58013" fill="#2BD4D9"/>
<circle cx="1242.58" cy="601.143" r="2.58013" fill="#2BD4D9"/>
<circle cx="1258.06" cy="601.143" r="2.58013" fill="#2BD4D9"/>
<circle cx="1273.54" cy="601.143" r="2.58013" fill="#2BD4D9"/>
<circle cx="1289.02" cy="601.143" r="2.58013" fill="#2BD4D9"/>
<circle cx="1304.5" cy="601.143" r="2.58013" fill="#2BD4D9"/>
<circle cx="1319.98" cy="601.143" r="2.58013" fill="#2BD4D9"/>
<circle cx="1335.46" cy="601.143" r="2.58013" fill="#2BD4D9"/>
<circle cx="1350.95" cy="601.143" r="2.58013" fill="#2BD4D9"/>
<circle cx="1366.43" cy="601.143" r="2.58013" fill="#2BD4D9"/>
<circle cx="1381.91" cy="601.143" r="2.58013" fill="#2BD4D9"/>
<circle cx="1397.39" cy="601.143" r="2.58013" fill="#2BD4D9"/>
<circle cx="1412.87" cy="601.143" r="2.58013" fill="#2BD4D9"/>
<circle cx="1242.58" cy="621.787" r="2.58013" fill="#2BD4D9"/>
<circle cx="1258.06" cy="621.787" r="2.58013" fill="#2BD4D9"/>
<circle cx="1273.54" cy="621.787" r="2.58013" fill="#2BD4D9"/>
<circle cx="1289.02" cy="621.787" r="2.58013" fill="#2BD4D9"/>
<circle cx="1304.5" cy="621.787" r="2.58013" fill="#2BD4D9"/>
<circle cx="1319.98" cy="621.787" r="2.58013" fill="#2BD4D9"/>
<circle cx="1335.46" cy="621.787" r="2.58013" fill="#2BD4D9"/>
<circle cx="1350.95" cy="621.787" r="2.58013" fill="#2BD4D9"/>
<circle cx="1366.43" cy="621.787" r="2.58013" fill="#2BD4D9"/>
<circle cx="1381.91" cy="621.787" r="2.58013" fill="#2BD4D9"/>
<circle cx="1397.39" cy="621.787" r="2.58013" fill="#2BD4D9"/>
<circle cx="1412.87" cy="621.787" r="2.58013" fill="#2BD4D9"/>
<circle cx="1242.58" cy="642.428" r="2.58013" fill="#2BD4D9"/>
<circle cx="1258.06" cy="642.428" r="2.58013" fill="#2BD4D9"/>
<circle cx="1273.54" cy="642.428" r="2.58013" fill="#2BD4D9"/>
<circle cx="1289.02" cy="642.428" r="2.58013" fill="#2BD4D9"/>
<circle cx="1304.5" cy="642.428" r="2.58013" fill="#2BD4D9"/>
<circle cx="1319.98" cy="642.428" r="2.58013" fill="#2BD4D9"/>
<circle cx="1335.46" cy="642.428" r="2.58013" fill="#2BD4D9"/>
<circle cx="1350.95" cy="642.428" r="2.58013" fill="#2BD4D9"/>
<circle cx="1366.43" cy="642.428" r="2.58013" fill="#2BD4D9"/>
<circle cx="1381.91" cy="642.428" r="2.58013" fill="#2BD4D9"/>
<circle cx="1397.39" cy="642.428" r="2.58013" fill="#2BD4D9"/>
<circle cx="1412.87" cy="642.428" r="2.58013" fill="#2BD4D9"/>
<circle cx="1242.58" cy="663.068" r="2.58013" fill="#2BD4D9"/>
<circle cx="1258.06" cy="663.068" r="2.58013" fill="#2BD4D9"/>
<circle cx="1273.54" cy="663.068" r="2.58013" fill="#2BD4D9"/>
<circle cx="1289.02" cy="663.068" r="2.58013" fill="#2BD4D9"/>
<circle cx="1304.5" cy="663.068" r="2.58013" fill="#2BD4D9"/>
<circle cx="1319.98" cy="663.068" r="2.58013" fill="#2BD4D9"/>
<circle cx="1335.46" cy="663.068" r="2.58013" fill="#2BD4D9"/>
<circle cx="1350.95" cy="663.068" r="2.58013" fill="#2BD4D9"/>
<circle cx="1366.43" cy="663.068" r="2.58013" fill="#2BD4D9"/>
<circle cx="1381.91" cy="663.068" r="2.58013" fill="#2BD4D9"/>
<circle cx="1397.39" cy="663.068" r="2.58013" fill="#2BD4D9"/>
<circle cx="1412.87" cy="663.068" r="2.58013" fill="#2BD4D9"/>
</g>
<path opacity="0.05" d="M364.555 202.763C352.042 177.061 327.529 161.103 302.142 156.291C276.755 151.492 250.534 156.708 225.827 165.522C198.925 175.13 172.611 189.119 144.553 190.846C109.369 193.011 75.4726 175.424 46.9505 152.138C32.1312 140.049 18.2667 126.311 2.3829 116.132C-13.5015 105.968 -32.0935 99.4846 -50.0925 103.53C-89.4157 112.347 -110.808 165.811 -149.065 179.719C-167.381 186.381 -187.008 183 -206.1 181.744C-225.193 180.488 -246.066 182.145 -260.73 196.469C-280.492 215.805 -281.402 250.68 -274.7 279.177C-263.667 326.119 -232.367 369.794 -190.38 376.768C-168.05 380.471 -145.156 373.672 -122.662 375.942C-114.224 376.809 -105.938 378.952 -98.0181 382.315C-96.9938 383.091 -95.9944 383.88 -94.9965 384.696C-72.4637 403.11 -55.5392 430.152 -31.0313 444.906C-30.5809 445.179 -30.1298 445.438 -29.6665 445.698C-27.7727 447.233 -25.8036 448.643 -23.7687 449.922C-11.843 457.409 2.05286 459.781 15.7867 458.574C19.3819 458.854 22.9965 458.981 26.592 458.995C74.1291 459.11 120.578 441.243 158.757 408.159C186.459 384.013 209.456 352.06 240.632 334.461C268.164 318.933 299.641 316.021 328.361 303.754C338.598 299.388 348.641 293.683 356.475 284.906C375.037 264.1 377.057 228.451 364.555 202.763Z" fill="#2BD4D9"/>
<rect opacity="0.5" x="360.949" y="268.949" width="78.1734" height="56.5067" rx="3.7977" stroke="#F7F7F7" stroke-width="1.89885"/>
<rect x="373.125" y="293.535" width="13.4647" height="18.8374" rx="2.58027" fill="#2BD4D9" fill-opacity="0.4"/>
<rect x="393.304" y="282.035" width="13.4647" height="30.3356" rx="2.58027" fill="#2BD4D9" fill-opacity="0.19"/>
<rect x="413.482" y="286.93" width="13.4647" height="25.4427" rx="2.58027" fill="#BBD8E6"/>
<rect opacity="0.5" x="364.76" y="277.496" width="68.4262" height="41.4212" fill="white"/>
</g>
<rect x="1072" y="36" width="124" height="48" rx="10" fill="#5433ED"/>
<path d="M1115.34 65C1114.65 65 1114.3 64.648 1114.3 63.944V54.712C1114.3 54.0187 1114.64 53.672 1115.33 53.672C1116.01 53.672 1116.35 54.0187 1116.35 54.712V63.256H1120.99C1121.59 63.256 1121.89 63.544 1121.89 64.12C1121.89 64.7067 1121.59 65 1120.99 65H1115.34ZM1126.74 65.16C1125.93 65.16 1125.23 64.9947 1124.63 64.664C1124.04 64.3333 1123.57 63.864 1123.24 63.256C1122.91 62.6373 1122.74 61.912 1122.74 61.08C1122.74 60.248 1122.91 59.528 1123.24 58.92C1123.57 58.312 1124.04 57.8427 1124.63 57.512C1125.23 57.1813 1125.93 57.016 1126.74 57.016C1127.56 57.016 1128.26 57.1813 1128.86 57.512C1129.45 57.8427 1129.92 58.312 1130.25 58.92C1130.58 59.528 1130.74 60.248 1130.74 61.08C1130.74 61.912 1130.58 62.6373 1130.25 63.256C1129.92 63.864 1129.45 64.3333 1128.86 64.664C1128.26 64.9947 1127.56 65.16 1126.74 65.16ZM1126.74 63.64C1127.34 63.64 1127.82 63.4267 1128.18 63C1128.55 62.5627 1128.73 61.9227 1128.73 61.08C1128.73 60.2267 1128.55 59.592 1128.18 59.176C1127.82 58.7493 1127.34 58.536 1126.74 58.536C1126.15 58.536 1125.67 58.7493 1125.3 59.176C1124.94 59.592 1124.76 60.2267 1124.76 61.08C1124.76 61.9227 1124.94 62.5627 1125.3 63C1125.67 63.4267 1126.15 63.64 1126.74 63.64ZM1136.2 68.04C1135.63 68.04 1135.07 67.9867 1134.52 67.88C1133.99 67.7733 1133.5 67.608 1133.07 67.384C1132.81 67.256 1132.66 67.0907 1132.6 66.888C1132.56 66.696 1132.58 66.5093 1132.67 66.328C1132.75 66.1467 1132.88 66.0133 1133.05 65.928C1133.23 65.8533 1133.42 65.864 1133.63 65.96C1134.1 66.1947 1134.54 66.344 1134.96 66.408C1135.38 66.4827 1135.74 66.52 1136.04 66.52C1137.47 66.52 1138.19 65.832 1138.19 64.456V63.384C1137.96 63.8213 1137.62 64.168 1137.15 64.424C1136.69 64.68 1136.18 64.808 1135.61 64.808C1134.91 64.808 1134.29 64.648 1133.77 64.328C1133.25 63.9973 1132.84 63.5387 1132.56 62.952C1132.27 62.3653 1132.12 61.6827 1132.12 60.904C1132.12 60.1253 1132.27 59.448 1132.56 58.872C1132.84 58.2853 1133.25 57.832 1133.77 57.512C1134.29 57.1813 1134.91 57.016 1135.61 57.016C1136.18 57.016 1136.69 57.1387 1137.15 57.384C1137.61 57.6293 1137.94 57.9653 1138.16 58.392V58.056C1138.16 57.7253 1138.24 57.4747 1138.41 57.304C1138.59 57.1333 1138.84 57.048 1139.15 57.048C1139.81 57.048 1140.14 57.384 1140.14 58.056V64.216C1140.14 65.4853 1139.8 66.44 1139.13 67.08C1138.46 67.72 1137.48 68.04 1136.2 68.04ZM1136.16 63.288C1136.77 63.288 1137.26 63.0747 1137.63 62.648C1137.99 62.2213 1138.17 61.64 1138.17 60.904C1138.17 60.168 1137.99 59.592 1137.63 59.176C1137.26 58.7493 1136.77 58.536 1136.16 58.536C1135.54 58.536 1135.05 58.7493 1134.68 59.176C1134.32 59.592 1134.14 60.168 1134.14 60.904C1134.14 61.64 1134.32 62.2213 1134.68 62.648C1135.05 63.0747 1135.54 63.288 1136.16 63.288ZM1143.36 55.576C1142.99 55.576 1142.7 55.4853 1142.48 55.304C1142.28 55.112 1142.18 54.8507 1142.18 54.52C1142.18 54.1787 1142.28 53.9173 1142.48 53.736C1142.7 53.5547 1142.99 53.464 1143.36 53.464C1144.15 53.464 1144.55 53.816 1144.55 54.52C1144.55 55.224 1144.15 55.576 1143.36 55.576ZM1143.36 65.112C1143.04 65.112 1142.8 65.016 1142.63 64.824C1142.46 64.632 1142.37 64.3653 1142.37 64.024V58.152C1142.37 57.4267 1142.7 57.064 1143.36 57.064C1144.04 57.064 1144.37 57.4267 1144.37 58.152V64.024C1144.37 64.3653 1144.29 64.632 1144.12 64.824C1143.95 65.016 1143.69 65.112 1143.36 65.112ZM1147.6 65.128C1146.94 65.128 1146.61 64.7867 1146.61 64.104V58.056C1146.61 57.384 1146.94 57.048 1147.59 57.048C1148.24 57.048 1148.56 57.384 1148.56 58.056V58.392C1148.83 57.944 1149.19 57.6027 1149.63 57.368C1150.09 57.1333 1150.6 57.016 1151.17 57.016C1153.02 57.016 1153.94 58.088 1153.94 60.232V64.104C1153.94 64.7867 1153.61 65.128 1152.95 65.128C1152.27 65.128 1151.94 64.7867 1151.94 64.104V60.328C1151.94 59.72 1151.82 59.2773 1151.59 59C1151.36 58.7227 1151.01 58.584 1150.53 58.584C1149.94 58.584 1149.47 58.7707 1149.12 59.144C1148.78 59.5067 1148.61 59.992 1148.61 60.6V64.104C1148.61 64.7867 1148.27 65.128 1147.6 65.128Z" fill="white"/>
<rect x="1216" y="36" width="124" height="48" rx="10" fill="#2BD4D9"/>
<path d="M1253.17 65.16C1252.46 65.16 1251.76 65.08 1251.08 64.92C1250.4 64.76 1249.82 64.52 1249.32 64.2C1249.07 64.04 1248.92 63.8427 1248.87 63.608C1248.81 63.3733 1248.83 63.1547 1248.92 62.952C1249.01 62.7387 1249.16 62.5947 1249.35 62.52C1249.55 62.4347 1249.78 62.472 1250.04 62.632C1250.5 62.9093 1251 63.112 1251.52 63.24C1252.05 63.368 1252.6 63.432 1253.17 63.432C1254.01 63.432 1254.63 63.2933 1255.01 63.016C1255.4 62.728 1255.59 62.36 1255.59 61.912C1255.59 61.5387 1255.45 61.2453 1255.17 61.032C1254.9 60.8187 1254.44 60.6427 1253.78 60.504L1252.02 60.136C1250.01 59.7093 1249.01 58.68 1249.01 57.048C1249.01 56.344 1249.2 55.7307 1249.57 55.208C1249.94 54.6853 1250.46 54.28 1251.12 53.992C1251.78 53.704 1252.55 53.56 1253.41 53.56C1254.05 53.56 1254.66 53.64 1255.24 53.8C1255.81 53.96 1256.33 54.1947 1256.79 54.504C1257 54.6533 1257.13 54.84 1257.17 55.064C1257.21 55.2773 1257.19 55.48 1257.09 55.672C1257 55.8533 1256.84 55.9813 1256.63 56.056C1256.42 56.12 1256.18 56.072 1255.91 55.912C1255.51 55.688 1255.11 55.528 1254.71 55.432C1254.3 55.336 1253.86 55.288 1253.4 55.288C1252.66 55.288 1252.08 55.4427 1251.67 55.752C1251.25 56.0613 1251.04 56.4667 1251.04 56.968C1251.04 57.352 1251.17 57.6613 1251.43 57.896C1251.68 58.12 1252.12 58.296 1252.74 58.424L1254.48 58.792C1255.54 59.016 1256.32 59.368 1256.84 59.848C1257.36 60.328 1257.62 60.968 1257.62 61.768C1257.62 62.44 1257.44 63.032 1257.08 63.544C1256.71 64.056 1256.2 64.456 1255.52 64.744C1254.86 65.0213 1254.08 65.16 1253.17 65.16ZM1260.34 55.576C1259.96 55.576 1259.67 55.4853 1259.46 55.304C1259.25 55.112 1259.15 54.8507 1259.15 54.52C1259.15 54.1787 1259.25 53.9173 1259.46 53.736C1259.67 53.5547 1259.96 53.464 1260.34 53.464C1261.13 53.464 1261.52 53.816 1261.52 54.52C1261.52 55.224 1261.13 55.576 1260.34 55.576ZM1260.34 65.112C1260.02 65.112 1259.77 65.016 1259.6 64.824C1259.43 64.632 1259.35 64.3653 1259.35 64.024V58.152C1259.35 57.4267 1259.68 57.064 1260.34 57.064C1261.01 57.064 1261.35 57.4267 1261.35 58.152V64.024C1261.35 64.3653 1261.26 64.632 1261.09 64.824C1260.92 65.016 1260.67 65.112 1260.34 65.112ZM1267.23 68.04C1266.66 68.04 1266.1 67.9867 1265.55 67.88C1265.02 67.7733 1264.53 67.608 1264.1 67.384C1263.84 67.256 1263.68 67.0907 1263.63 66.888C1263.59 66.696 1263.61 66.5093 1263.7 66.328C1263.78 66.1467 1263.91 66.0133 1264.08 65.928C1264.26 65.8533 1264.45 65.864 1264.66 65.96C1265.12 66.1947 1265.57 66.344 1265.98 66.408C1266.41 66.4827 1266.77 66.52 1267.07 66.52C1268.5 66.52 1269.22 65.832 1269.22 64.456V63.384C1268.99 63.8213 1268.64 64.168 1268.18 64.424C1267.72 64.68 1267.2 64.808 1266.64 64.808C1265.94 64.808 1265.32 64.648 1264.8 64.328C1264.28 63.9973 1263.87 63.5387 1263.58 62.952C1263.3 62.3653 1263.15 61.6827 1263.15 60.904C1263.15 60.1253 1263.3 59.448 1263.58 58.872C1263.87 58.2853 1264.28 57.832 1264.8 57.512C1265.32 57.1813 1265.94 57.016 1266.64 57.016C1267.2 57.016 1267.72 57.1387 1268.18 57.384C1268.63 57.6293 1268.97 57.9653 1269.18 58.392V58.056C1269.18 57.7253 1269.27 57.4747 1269.44 57.304C1269.62 57.1333 1269.87 57.048 1270.18 57.048C1270.84 57.048 1271.17 57.384 1271.17 58.056V64.216C1271.17 65.4853 1270.83 66.44 1270.16 67.08C1269.49 67.72 1268.51 68.04 1267.23 68.04ZM1267.18 63.288C1267.8 63.288 1268.29 63.0747 1268.66 62.648C1269.02 62.2213 1269.2 61.64 1269.2 60.904C1269.2 60.168 1269.02 59.592 1268.66 59.176C1268.29 58.7493 1267.8 58.536 1267.18 58.536C1266.56 58.536 1266.07 58.7493 1265.71 59.176C1265.35 59.592 1265.17 60.168 1265.17 60.904C1265.17 61.64 1265.35 62.2213 1265.71 62.648C1266.07 63.0747 1266.56 63.288 1267.18 63.288ZM1274.39 65.128C1273.73 65.128 1273.4 64.7867 1273.4 64.104V58.056C1273.4 57.384 1273.72 57.048 1274.38 57.048C1275.03 57.048 1275.35 57.384 1275.35 58.056V58.392C1275.62 57.944 1275.98 57.6027 1276.42 57.368C1276.88 57.1333 1277.39 57.016 1277.96 57.016C1279.8 57.016 1280.73 58.088 1280.73 60.232V64.104C1280.73 64.7867 1280.4 65.128 1279.74 65.128C1279.06 65.128 1278.73 64.7867 1278.73 64.104V60.328C1278.73 59.72 1278.61 59.2773 1278.38 59C1278.15 58.7227 1277.8 58.584 1277.32 58.584C1276.73 58.584 1276.26 58.7707 1275.91 59.144C1275.57 59.5067 1275.4 59.992 1275.4 60.6V64.104C1275.4 64.7867 1275.06 65.128 1274.39 65.128ZM1292.3 65.16C1290.76 65.16 1289.57 64.76 1288.75 63.96C1287.94 63.1493 1287.53 61.9547 1287.53 60.376V54.632C1287.53 53.9387 1287.88 53.592 1288.56 53.592C1289.24 53.592 1289.58 53.9387 1289.58 54.632V60.36C1289.58 61.3733 1289.81 62.136 1290.27 62.648C1290.74 63.1493 1291.42 63.4 1292.3 63.4C1294.11 63.4 1295.01 62.3867 1295.01 60.36V54.632C1295.01 53.9387 1295.35 53.592 1296.03 53.592C1296.7 53.592 1297.04 53.9387 1297.04 54.632V60.376C1297.04 61.9547 1296.64 63.1493 1295.84 63.96C1295.04 64.76 1293.86 65.16 1292.3 65.16ZM1300.39 68.008C1299.73 68.008 1299.39 67.672 1299.39 67V58.056C1299.39 57.384 1299.72 57.048 1300.37 57.048C1301.03 57.048 1301.36 57.384 1301.36 58.056V58.392C1301.59 57.976 1301.92 57.6453 1302.37 57.4C1302.82 57.144 1303.33 57.016 1303.91 57.016C1304.59 57.016 1305.19 57.1813 1305.7 57.512C1306.22 57.8427 1306.63 58.312 1306.91 58.92C1307.2 59.5173 1307.35 60.2373 1307.35 61.08C1307.35 61.912 1307.2 62.6373 1306.91 63.256C1306.63 63.864 1306.23 64.3333 1305.71 64.664C1305.2 64.9947 1304.6 65.16 1303.91 65.16C1303.35 65.16 1302.85 65.0427 1302.4 64.808C1301.97 64.5627 1301.63 64.2373 1301.39 63.832V67C1301.39 67.672 1301.06 68.008 1300.39 68.008ZM1303.35 63.64C1303.94 63.64 1304.42 63.4267 1304.79 63C1305.15 62.5627 1305.33 61.9227 1305.33 61.08C1305.33 60.2267 1305.15 59.592 1304.79 59.176C1304.42 58.7493 1303.94 58.536 1303.35 58.536C1302.75 58.536 1302.27 58.7493 1301.91 59.176C1301.54 59.592 1301.36 60.2267 1301.36 61.08C1301.36 61.9227 1301.54 62.5627 1301.91 63C1302.27 63.4267 1302.75 63.64 1303.35 63.64Z" fill="white"/>
<path d="M1238.89 105C1238.45 105 1238.23 104.784 1238.23 104.352C1238.23 103.936 1238.45 103.728 1238.89 103.728H1240.23V98.292L1239.21 98.904C1239.02 99.016 1238.85 99.044 1238.69 98.988C1238.53 98.932 1238.42 98.832 1238.34 98.688C1238.26 98.544 1238.23 98.388 1238.27 98.22C1238.3 98.044 1238.41 97.9 1238.6 97.788L1240.26 96.792C1240.42 96.696 1240.58 96.616 1240.74 96.552C1240.9 96.48 1241.05 96.444 1241.18 96.444C1241.35 96.444 1241.49 96.492 1241.6 96.588C1241.71 96.676 1241.77 96.824 1241.77 97.032V103.728H1242.99C1243.43 103.728 1243.65 103.936 1243.65 104.352C1243.65 104.784 1243.43 105 1242.99 105H1238.89ZM1249.29 105.096C1249.05 105.096 1248.86 105.032 1248.73 104.904C1248.59 104.768 1248.52 104.576 1248.52 104.328V103.392H1245.56C1245.31 103.392 1245.11 103.34 1244.96 103.236C1244.81 103.132 1244.74 102.972 1244.74 102.756C1244.74 102.62 1244.77 102.476 1244.84 102.324C1244.91 102.172 1245.03 101.972 1245.21 101.724L1248.5 96.96C1248.61 96.792 1248.73 96.664 1248.87 96.576C1249.01 96.488 1249.16 96.444 1249.34 96.444C1249.55 96.444 1249.72 96.508 1249.85 96.636C1249.99 96.756 1250.06 96.948 1250.06 97.212V102.12H1250.65C1251.11 102.12 1251.34 102.332 1251.34 102.756C1251.34 103.18 1251.11 103.392 1250.65 103.392H1250.06V104.328C1250.06 104.576 1249.99 104.768 1249.85 104.904C1249.72 105.032 1249.53 105.096 1249.29 105.096ZM1248.52 102.12V98.892L1246.31 102.12H1248.52ZM1252.98 102.384C1252.81 102.384 1252.66 102.328 1252.54 102.216C1252.43 102.096 1252.37 101.952 1252.37 101.784C1252.37 101.608 1252.43 101.464 1252.54 101.352C1252.66 101.24 1252.81 101.184 1252.98 101.184H1255.54C1255.71 101.184 1255.85 101.24 1255.96 101.352C1256.08 101.464 1256.14 101.608 1256.14 101.784C1256.14 101.952 1256.08 102.096 1255.96 102.216C1255.85 102.328 1255.71 102.384 1255.54 102.384H1252.98ZM1260.18 105.12C1259.67 105.12 1259.22 104.996 1258.83 104.748C1258.44 104.5 1258.14 104.148 1257.93 103.692C1257.71 103.228 1257.6 102.684 1257.6 102.06C1257.6 101.428 1257.71 100.888 1257.93 100.44C1258.14 99.984 1258.44 99.632 1258.83 99.384C1259.22 99.136 1259.67 99.012 1260.18 99.012C1260.6 99.012 1260.98 99.104 1261.31 99.288C1261.65 99.472 1261.9 99.716 1262.07 100.02V97.2C1262.07 96.696 1262.32 96.444 1262.81 96.444C1263.32 96.444 1263.57 96.696 1263.57 97.2V104.328C1263.57 104.84 1263.32 105.096 1262.82 105.096C1262.33 105.096 1262.08 104.84 1262.08 104.328V104.076C1261.91 104.396 1261.66 104.652 1261.32 104.844C1260.99 105.028 1260.61 105.12 1260.18 105.12ZM1260.6 103.98C1261.05 103.98 1261.41 103.82 1261.68 103.5C1261.96 103.172 1262.09 102.692 1262.09 102.06C1262.09 101.42 1261.96 100.944 1261.68 100.632C1261.41 100.312 1261.05 100.152 1260.6 100.152C1260.16 100.152 1259.8 100.312 1259.52 100.632C1259.25 100.944 1259.12 101.42 1259.12 102.06C1259.12 102.692 1259.25 103.172 1259.52 103.5C1259.8 103.82 1260.16 103.98 1260.6 103.98ZM1267.18 105.12C1266.75 105.12 1266.37 105.04 1266.04 104.88C1265.71 104.712 1265.45 104.488 1265.26 104.208C1265.07 103.928 1264.98 103.612 1264.98 103.26C1264.98 102.828 1265.09 102.488 1265.32 102.24C1265.54 101.984 1265.9 101.8 1266.41 101.688C1266.91 101.576 1267.59 101.52 1268.44 101.52H1268.86V101.268C1268.86 100.868 1268.77 100.58 1268.59 100.404C1268.42 100.228 1268.12 100.14 1267.7 100.14C1267.47 100.14 1267.22 100.168 1266.95 100.224C1266.68 100.28 1266.4 100.376 1266.11 100.512C1265.92 100.6 1265.76 100.612 1265.63 100.548C1265.5 100.476 1265.41 100.368 1265.36 100.224C1265.32 100.072 1265.33 99.92 1265.39 99.768C1265.45 99.616 1265.58 99.504 1265.76 99.432C1266.13 99.28 1266.48 99.172 1266.82 99.108C1267.16 99.044 1267.47 99.012 1267.75 99.012C1268.61 99.012 1269.24 99.212 1269.66 99.612C1270.08 100.004 1270.28 100.616 1270.28 101.448V104.328C1270.28 104.84 1270.05 105.096 1269.59 105.096C1269.12 105.096 1268.88 104.84 1268.88 104.328V104.064C1268.74 104.392 1268.53 104.652 1268.23 104.844C1267.94 105.028 1267.58 105.12 1267.18 105.12ZM1267.49 104.088C1267.88 104.088 1268.2 103.952 1268.46 103.68C1268.72 103.408 1268.86 103.064 1268.86 102.648V102.384H1268.45C1267.7 102.384 1267.17 102.444 1266.88 102.564C1266.59 102.676 1266.44 102.884 1266.44 103.188C1266.44 103.452 1266.54 103.668 1266.72 103.836C1266.9 104.004 1267.16 104.088 1267.49 104.088ZM1273.36 107.256C1273.08 107.256 1272.9 107.156 1272.79 106.956C1272.69 106.756 1272.69 106.528 1272.8 106.272L1273.49 104.76L1271.44 100.032C1271.32 99.768 1271.32 99.536 1271.44 99.336C1271.55 99.136 1271.77 99.036 1272.1 99.036C1272.28 99.036 1272.43 99.08 1272.54 99.168C1272.65 99.248 1272.75 99.404 1272.84 99.636L1274.28 103.236L1275.76 99.624C1275.84 99.4 1275.95 99.248 1276.07 99.168C1276.19 99.08 1276.35 99.036 1276.55 99.036C1276.8 99.036 1276.98 99.136 1277.09 99.336C1277.19 99.536 1277.19 99.764 1277.08 100.02L1274.16 106.68C1274.06 106.904 1273.94 107.056 1273.82 107.136C1273.7 107.216 1273.55 107.256 1273.36 107.256ZM1282.83 105.096C1282.33 105.096 1282.08 104.84 1282.08 104.328V100.26H1281.53C1281.13 100.26 1280.93 100.072 1280.93 99.696C1280.93 99.32 1281.13 99.132 1281.53 99.132H1282.08V99.12C1282.08 98.296 1282.29 97.68 1282.7 97.272C1283.12 96.856 1283.72 96.612 1284.5 96.54L1284.91 96.504C1285.12 96.488 1285.27 96.532 1285.37 96.636C1285.46 96.74 1285.51 96.868 1285.51 97.02C1285.52 97.164 1285.48 97.296 1285.4 97.416C1285.32 97.528 1285.21 97.592 1285.05 97.608L1284.89 97.62C1284.43 97.652 1284.1 97.768 1283.89 97.968C1283.68 98.168 1283.58 98.472 1283.58 98.88V99.132H1284.6C1285 99.132 1285.2 99.32 1285.2 99.696C1285.2 100.072 1285 100.26 1284.6 100.26H1283.58V104.328C1283.58 104.84 1283.33 105.096 1282.83 105.096ZM1286.94 105.096C1286.43 105.096 1286.17 104.84 1286.17 104.328V99.792C1286.17 99.288 1286.42 99.036 1286.9 99.036C1287.39 99.036 1287.64 99.288 1287.64 99.792V100.164C1287.92 99.476 1288.54 99.092 1289.48 99.012C1289.83 98.972 1290.02 99.168 1290.06 99.6C1290.1 100.024 1289.89 100.26 1289.44 100.308L1289.17 100.332C1288.19 100.428 1287.7 100.932 1287.7 101.844V104.328C1287.7 104.84 1287.44 105.096 1286.94 105.096ZM1293.79 105.12C1293.13 105.12 1292.55 104.996 1292.07 104.748C1291.59 104.5 1291.22 104.148 1290.96 103.692C1290.7 103.236 1290.57 102.696 1290.57 102.072C1290.57 101.464 1290.7 100.932 1290.95 100.476C1291.2 100.02 1291.55 99.664 1291.99 99.408C1292.44 99.144 1292.95 99.012 1293.51 99.012C1294.35 99.012 1295 99.276 1295.48 99.804C1295.97 100.332 1296.21 101.052 1296.21 101.964C1296.21 102.26 1296.02 102.408 1295.64 102.408H1292.01C1292.13 103.456 1292.73 103.98 1293.81 103.98C1294.02 103.98 1294.25 103.956 1294.51 103.908C1294.77 103.852 1295.02 103.76 1295.25 103.632C1295.46 103.512 1295.64 103.476 1295.78 103.524C1295.93 103.564 1296.03 103.648 1296.08 103.776C1296.15 103.904 1296.15 104.048 1296.11 104.208C1296.07 104.36 1295.95 104.492 1295.77 104.604C1295.49 104.78 1295.17 104.912 1294.8 105C1294.44 105.08 1294.1 105.12 1293.79 105.12ZM1293.57 100.032C1293.13 100.032 1292.78 100.168 1292.51 100.44C1292.23 100.712 1292.07 101.08 1292.01 101.544H1294.97C1294.93 101.056 1294.8 100.684 1294.56 100.428C1294.33 100.164 1294 100.032 1293.57 100.032ZM1300.41 105.12C1299.75 105.12 1299.18 104.996 1298.7 104.748C1298.22 104.5 1297.85 104.148 1297.58 103.692C1297.33 103.236 1297.2 102.696 1297.2 102.072C1297.2 101.464 1297.32 100.932 1297.57 100.476C1297.83 100.02 1298.17 99.664 1298.61 99.408C1299.06 99.144 1299.57 99.012 1300.14 99.012C1300.97 99.012 1301.63 99.276 1302.11 99.804C1302.59 100.332 1302.84 101.052 1302.84 101.964C1302.84 102.26 1302.65 102.408 1302.26 102.408H1298.64C1298.75 103.456 1299.35 103.98 1300.44 103.98C1300.65 103.98 1300.88 103.956 1301.13 103.908C1301.4 103.852 1301.65 103.76 1301.88 103.632C1302.09 103.512 1302.26 103.476 1302.41 103.524C1302.55 103.564 1302.65 103.648 1302.71 103.776C1302.77 103.904 1302.78 104.048 1302.73 104.208C1302.69 104.36 1302.58 104.492 1302.39 104.604C1302.11 104.78 1301.79 104.912 1301.42 105C1301.06 105.08 1300.73 105.12 1300.41 105.12ZM1300.2 100.032C1299.76 100.032 1299.4 100.168 1299.13 100.44C1298.86 100.712 1298.69 101.08 1298.64 101.544H1301.59C1301.56 101.056 1301.42 100.684 1301.18 100.428C1300.95 100.164 1300.62 100.032 1300.2 100.032ZM1310.21 105.12C1308.66 105.12 1307.88 104.352 1307.88 102.816V100.26H1307.26C1306.86 100.26 1306.66 100.072 1306.66 99.696C1306.66 99.32 1306.86 99.132 1307.26 99.132H1307.88V98.04C1307.88 97.536 1308.14 97.284 1308.64 97.284C1309.14 97.284 1309.38 97.536 1309.38 98.04V99.132H1310.66C1311.06 99.132 1311.26 99.32 1311.26 99.696C1311.26 100.072 1311.06 100.26 1310.66 100.26H1309.38V102.732C1309.38 103.116 1309.47 103.404 1309.64 103.596C1309.8 103.788 1310.08 103.884 1310.45 103.884C1310.59 103.884 1310.71 103.872 1310.81 103.848C1310.92 103.824 1311.01 103.808 1311.09 103.8C1311.18 103.792 1311.26 103.824 1311.33 103.896C1311.39 103.96 1311.42 104.096 1311.42 104.304C1311.42 104.464 1311.4 104.608 1311.34 104.736C1311.29 104.856 1311.2 104.94 1311.06 104.988C1310.96 105.02 1310.82 105.048 1310.66 105.072C1310.49 105.104 1310.34 105.12 1310.21 105.12ZM1313.02 105.096C1312.51 105.096 1312.25 104.84 1312.25 104.328V99.792C1312.25 99.288 1312.49 99.036 1312.98 99.036C1313.47 99.036 1313.71 99.288 1313.71 99.792V100.164C1314 99.476 1314.62 99.092 1315.56 99.012C1315.91 98.972 1316.1 99.168 1316.14 99.6C1316.18 100.024 1315.97 100.26 1315.51 100.308L1315.25 100.332C1314.27 100.428 1313.77 100.932 1313.77 101.844V104.328C1313.77 104.84 1313.52 105.096 1313.02 105.096ZM1317.81 97.932C1317.53 97.932 1317.31 97.864 1317.15 97.728C1317 97.584 1316.92 97.388 1316.92 97.14C1316.92 96.884 1317 96.688 1317.15 96.552C1317.31 96.416 1317.53 96.348 1317.81 96.348C1318.4 96.348 1318.7 96.612 1318.7 97.14C1318.7 97.668 1318.4 97.932 1317.81 97.932ZM1317.81 105.084C1317.57 105.084 1317.39 105.012 1317.26 104.868C1317.13 104.724 1317.07 104.524 1317.07 104.268V99.864C1317.07 99.32 1317.32 99.048 1317.81 99.048C1318.32 99.048 1318.57 99.32 1318.57 99.864V104.268C1318.57 104.524 1318.5 104.724 1318.38 104.868C1318.25 105.012 1318.06 105.084 1317.81 105.084ZM1322.18 105.12C1321.75 105.12 1321.37 105.04 1321.04 104.88C1320.71 104.712 1320.45 104.488 1320.26 104.208C1320.07 103.928 1319.98 103.612 1319.98 103.26C1319.98 102.828 1320.09 102.488 1320.32 102.24C1320.54 101.984 1320.91 101.8 1321.41 101.688C1321.91 101.576 1322.59 101.52 1323.44 101.52H1323.86V101.268C1323.86 100.868 1323.77 100.58 1323.59 100.404C1323.42 100.228 1323.12 100.14 1322.71 100.14C1322.47 100.14 1322.22 100.168 1321.95 100.224C1321.69 100.28 1321.41 100.376 1321.11 100.512C1320.92 100.6 1320.76 100.612 1320.63 100.548C1320.5 100.476 1320.41 100.368 1320.37 100.224C1320.33 100.072 1320.33 99.92 1320.39 99.768C1320.45 99.616 1320.58 99.504 1320.76 99.432C1321.13 99.28 1321.48 99.172 1321.82 99.108C1322.16 99.044 1322.47 99.012 1322.75 99.012C1323.61 99.012 1324.25 99.212 1324.66 99.612C1325.08 100.004 1325.29 100.616 1325.29 101.448V104.328C1325.29 104.84 1325.05 105.096 1324.59 105.096C1324.12 105.096 1323.88 104.84 1323.88 104.328V104.064C1323.75 104.392 1323.53 104.652 1323.23 104.844C1322.94 105.028 1322.59 105.12 1322.18 105.12ZM1322.49 104.088C1322.88 104.088 1323.21 103.952 1323.46 103.68C1323.73 103.408 1323.86 103.064 1323.86 102.648V102.384H1323.45C1322.7 102.384 1322.17 102.444 1321.88 102.564C1321.59 102.676 1321.45 102.884 1321.45 103.188C1321.45 103.452 1321.54 103.668 1321.72 103.836C1321.91 104.004 1322.16 104.088 1322.49 104.088ZM1328.93 105.12C1327.6 105.12 1326.93 104.372 1326.93 102.876V97.2C1326.93 96.696 1327.18 96.444 1327.67 96.444C1328.18 96.444 1328.43 96.696 1328.43 97.2V102.804C1328.43 103.524 1328.73 103.884 1329.33 103.884C1329.39 103.884 1329.45 103.884 1329.51 103.884C1329.57 103.876 1329.62 103.868 1329.68 103.86C1329.79 103.844 1329.87 103.876 1329.91 103.956C1329.95 104.028 1329.97 104.18 1329.97 104.412C1329.97 104.612 1329.93 104.768 1329.85 104.88C1329.77 104.992 1329.63 105.06 1329.45 105.084C1329.28 105.108 1329.11 105.12 1328.93 105.12Z" fill="#2BD4D9"/>
<path d="M127.601 86.5649C127.877 86.4213 128.186 86.3505 128.497 86.359C128.809 86.3676 129.113 86.4552 129.381 86.6137C134.553 89.6168 140.428 91.1959 146.408 91.1902C152.229 91.1785 157.951 89.6815 163.032 86.841C168.112 84.0005 172.385 79.9104 175.444 74.9578C175.503 74.8588 175.542 74.7488 175.559 74.6344C175.575 74.52 175.569 74.4034 175.54 74.2915C175.511 74.1795 175.46 74.0745 175.39 73.9825C175.32 73.8906 175.232 73.8135 175.132 73.7558L170.49 71.0624C168.735 70.0266 166.703 69.5593 164.672 69.7247C162.641 69.8901 160.711 70.6802 159.147 71.9863C156.062 74.6308 152.231 76.2505 148.184 76.6212C144.138 76.9919 140.076 76.0952 136.562 74.0552C133.048 72.0153 130.255 68.9331 128.57 65.2355C126.885 61.538 126.392 57.408 127.159 53.4176C127.808 50.0356 129.338 46.8847 131.593 44.2824C133.849 41.6801 136.75 39.7184 140.006 38.595C143.261 37.4717 146.755 37.2264 150.135 37.8838C153.516 38.5413 156.663 40.0783 159.26 42.34C160.773 43.6203 162.647 44.3974 164.621 44.5631C166.596 44.7288 168.573 44.2749 170.278 43.2646L175.121 40.4483C175.221 40.3901 175.309 40.3126 175.378 40.2204C175.448 40.1282 175.498 40.023 175.527 39.9111C175.556 39.7991 175.562 39.6826 175.545 39.5682C175.529 39.4538 175.489 39.344 175.429 39.2449C173.081 35.4186 169.999 32.0944 166.361 29.4632C162.723 26.8321 158.6 24.946 154.231 23.9134C149.861 22.8807 145.331 22.7219 140.9 23.4461C136.469 24.1702 132.225 25.7631 128.412 28.133C124.598 30.5029 121.291 33.6032 118.68 37.2557C116.069 40.9081 114.205 45.0406 113.197 49.4156C112.188 53.7906 112.054 58.3219 112.803 62.7488C113.551 67.1758 115.167 71.4111 117.558 75.2114C117.724 75.4807 117.817 75.7889 117.827 76.1053C117.836 76.4217 117.763 76.735 117.613 77.014L108.103 95.0152C108.014 95.1826 107.982 95.3739 108.01 95.5611C108.038 95.7483 108.125 95.9215 108.259 96.0554C108.393 96.1894 108.566 96.2769 108.754 96.3052C108.941 96.3335 109.132 96.3011 109.299 96.2128L127.601 86.5649Z" fill="#2BD4D9"/>
<path d="M159 49.7617H156.251C156.203 49.7618 156.156 49.781 156.122 49.8152C156.088 49.8494 156.069 49.8958 156.069 49.9442V63.5457C156.069 63.594 156.088 63.6403 156.122 63.6744C156.156 63.7085 156.203 63.7275 156.251 63.7274H159C159.024 63.7275 159.047 63.7228 159.069 63.7137C159.092 63.7046 159.112 63.6912 159.128 63.6743C159.145 63.6574 159.159 63.6373 159.168 63.6153C159.177 63.5932 159.182 63.5696 159.182 63.5457V49.9442C159.182 49.8959 159.162 49.8495 159.128 49.8153C159.094 49.7811 159.048 49.7618 159 49.7617Z" fill="#5433ED"/>
<path d="M251.458 61.14C250.607 61.1402 249.775 60.8879 249.067 60.4152C248.36 59.9425 247.808 59.2706 247.482 58.4844C247.156 57.6982 247.071 56.833 247.237 55.9983C247.403 55.1636 247.813 54.3969 248.415 53.7951C249.016 53.1932 249.783 52.7834 250.618 52.6173C251.452 52.4512 252.317 52.5364 253.103 52.862C253.89 53.1877 254.562 53.7392 255.035 54.4468C255.508 55.1543 255.76 55.9862 255.76 56.8373C255.758 57.9779 255.305 59.0715 254.498 59.8781C253.692 60.6848 252.599 61.1386 251.458 61.14ZM258.444 49.7621H256.807C256.529 49.7621 256.263 49.8724 256.066 50.0687C255.87 50.265 255.76 50.5313 255.76 50.8089C254.703 50.051 253.465 49.585 252.171 49.4575C250.877 49.3301 249.572 49.5457 248.387 50.0829C247.203 50.62 246.181 51.4596 245.424 52.5172C244.668 53.5748 244.203 54.813 244.077 56.1074C243.996 57.5044 244.305 58.8963 244.969 60.128C245.633 61.3597 246.626 62.383 247.837 63.0837C249.049 63.7844 250.431 64.1351 251.829 64.0968C253.228 64.0584 254.589 63.6325 255.76 62.8664V63.5568C255.76 63.5793 255.764 63.6017 255.773 63.6224C255.782 63.6432 255.794 63.6621 255.81 63.678C255.826 63.6939 255.845 63.7064 255.866 63.715C255.887 63.7236 255.909 63.7279 255.932 63.7278H258.444C258.468 63.7279 258.492 63.7232 258.514 63.714C258.537 63.7048 258.557 63.6912 258.575 63.6741C258.592 63.657 258.605 63.6367 258.614 63.6144C258.623 63.592 258.628 63.5681 258.628 63.5439V49.946C258.628 49.9219 258.623 49.8979 258.614 49.8756C258.605 49.8533 258.591 49.833 258.574 49.8159C258.557 49.7989 258.537 49.7853 258.514 49.7761C258.492 49.7668 258.468 49.7621 258.444 49.7621Z" fill="#5433ED"/>
<path d="M169.424 49.4143C168.529 49.3827 167.638 49.5318 166.803 49.8526C165.967 50.1735 165.205 50.6594 164.562 51.2815C163.918 51.9036 163.407 52.6491 163.058 53.4733C162.709 54.2975 162.53 55.1836 162.531 56.0785V63.5546C162.531 63.5776 162.536 63.6004 162.545 63.6217C162.553 63.643 162.566 63.6623 162.582 63.6786C162.599 63.6949 162.618 63.7078 162.639 63.7166C162.661 63.7254 162.684 63.7299 162.707 63.7299H165.469C165.515 63.73 165.561 63.7116 165.594 63.6787C165.627 63.6458 165.645 63.6012 165.645 63.5546V56.1159C165.646 55.5901 165.761 55.0708 165.985 54.5947C166.208 54.1185 166.532 53.6971 166.936 53.3601C167.34 53.023 167.813 52.7786 168.321 52.6441C168.829 52.5095 169.361 52.488 169.878 52.5812C170.755 52.7546 171.544 53.23 172.107 53.9246C172.67 54.6193 172.971 55.4892 172.959 56.3832V63.5546C172.959 63.6012 172.977 63.6458 173.01 63.6787C173.043 63.7116 173.088 63.73 173.135 63.7299H175.897C175.92 63.7299 175.943 63.7254 175.964 63.7166C175.985 63.7078 176.005 63.6949 176.021 63.6786C176.037 63.6623 176.051 63.643 176.06 63.6217C176.068 63.6004 176.073 63.5776 176.073 63.5546V56.0038C176.061 54.2495 175.355 52.5712 174.109 51.3362C172.863 50.1012 171.178 49.4101 169.424 49.4143Z" fill="#5433ED"/>
<path d="M201.966 49.413C200.622 49.3784 199.302 49.7628 198.186 50.513V45.0895C198.186 45.0653 198.182 45.0415 198.172 45.0192C198.163 44.9969 198.15 44.9767 198.132 44.9597C198.115 44.9426 198.095 44.9292 198.073 44.92C198.051 44.9108 198.027 44.9062 198.003 44.9063H195.257C195.209 44.9062 195.162 44.9254 195.128 44.9598C195.093 44.9941 195.074 45.0408 195.073 45.0895V63.5447C195.073 63.5689 195.078 63.5928 195.088 63.6151C195.097 63.6374 195.11 63.6577 195.128 63.6748C195.145 63.6919 195.165 63.7054 195.187 63.7147C195.209 63.7239 195.233 63.7286 195.257 63.7286H198.003C198.027 63.7287 198.051 63.724 198.074 63.7148C198.096 63.7056 198.116 63.692 198.133 63.6749C198.15 63.6578 198.163 63.6375 198.172 63.6152C198.182 63.5928 198.187 63.5689 198.186 63.5447V56.1146C198.187 55.5888 198.304 55.0694 198.527 54.5932C198.75 54.1171 199.074 53.6956 199.478 53.3586C199.882 53.0216 200.355 52.7772 200.863 52.6426C201.371 52.5081 201.903 52.4867 202.421 52.5799C203.298 52.7533 204.086 53.2287 204.649 53.9233C205.212 54.618 205.514 55.4879 205.501 56.3819V63.5447C205.501 63.5689 205.506 63.5929 205.515 63.6153C205.525 63.6376 205.538 63.6579 205.555 63.675C205.573 63.6921 205.593 63.7056 205.615 63.7148C205.637 63.724 205.662 63.7287 205.686 63.7286H208.431C208.455 63.7287 208.479 63.724 208.501 63.7148C208.524 63.7056 208.544 63.692 208.561 63.6749C208.578 63.6578 208.592 63.6375 208.601 63.6152C208.61 63.5928 208.615 63.5689 208.615 63.5447V56.0025C208.604 54.2483 207.897 52.57 206.651 51.335C205.405 50.1001 203.72 49.409 201.966 49.413Z" fill="#5433ED"/>
<path d="M234.262 49.413C232.919 49.3784 231.598 49.7628 230.483 50.513V45.0895C230.483 45.0653 230.478 45.0415 230.469 45.0192C230.459 44.9969 230.446 44.9767 230.429 44.9597C230.412 44.9426 230.391 44.9292 230.369 44.92C230.347 44.9108 230.323 44.9062 230.299 44.9063H227.553C227.529 44.9062 227.506 44.9108 227.483 44.92C227.461 44.9292 227.441 44.9426 227.424 44.9597C227.407 44.9767 227.393 44.9969 227.384 45.0192C227.374 45.0415 227.37 45.0653 227.37 45.0895V63.5447C227.37 63.5689 227.374 63.5928 227.383 63.6152C227.392 63.6375 227.406 63.6578 227.423 63.6749C227.44 63.692 227.46 63.7056 227.483 63.7148C227.505 63.724 227.529 63.7287 227.553 63.7286H230.299C230.323 63.7287 230.347 63.724 230.369 63.7148C230.391 63.7056 230.412 63.692 230.429 63.6749C230.446 63.6578 230.459 63.6375 230.469 63.6152C230.478 63.5928 230.483 63.5689 230.483 63.5447V56.1146C230.483 55.5888 230.599 55.0694 230.822 54.5932C231.045 54.1171 231.37 53.6956 231.774 53.3586C232.177 53.0216 232.65 52.7772 233.159 52.6426C233.667 52.5081 234.199 52.4867 234.716 52.5799C235.593 52.7533 236.382 53.2287 236.944 53.9233C237.507 54.618 237.809 55.4879 237.797 56.3819V63.5447C237.797 63.5689 237.802 63.5929 237.811 63.6153C237.82 63.6376 237.834 63.6579 237.851 63.675C237.868 63.6921 237.889 63.7056 237.911 63.7148C237.934 63.724 237.957 63.7287 237.981 63.7286H240.727C240.751 63.7286 240.775 63.7239 240.797 63.7147C240.819 63.7054 240.839 63.6919 240.856 63.6748C240.874 63.6577 240.887 63.6374 240.896 63.6151C240.906 63.5928 240.911 63.5689 240.911 63.5447V56.0025C240.899 54.2483 240.193 52.57 238.947 51.335C237.701 50.1001 236.016 49.409 234.262 49.413Z" fill="#5433ED"/>
<path d="M192.248 60.3225L191.229 59.7313C190.851 59.5129 190.414 59.417 189.979 59.4569C189.543 59.4968 189.131 59.6704 188.798 59.954C188.134 60.5183 187.311 60.8625 186.443 60.9392C185.575 61.0158 184.704 60.8211 183.951 60.3818C183.198 59.9426 182.6 59.2805 182.24 58.487C181.879 57.6934 181.774 56.8075 181.938 55.9516C182.078 55.2246 182.406 54.5472 182.891 53.9878C183.376 53.4284 184 53.0067 184.7 52.7653C185.399 52.5239 186.15 52.4713 186.877 52.6128C187.603 52.7544 188.28 53.085 188.838 53.5714C189.163 53.8463 189.565 54.0132 189.988 54.049C190.412 54.0848 190.837 53.9877 191.203 53.7711L192.246 53.164C192.268 53.1515 192.287 53.1348 192.302 53.115C192.316 53.0952 192.328 53.0726 192.334 53.0485C192.34 53.0245 192.341 52.9994 192.337 52.9748C192.334 52.9503 192.326 52.9267 192.313 52.9054C191.476 51.5383 190.215 50.482 188.723 49.8973C187.23 49.3126 185.588 49.2316 184.045 49.6665C182.502 50.1014 181.144 51.0285 180.176 52.3066C179.209 53.5847 178.686 55.1439 178.686 56.7467C178.687 58.3496 179.211 59.9085 180.179 61.1861C181.147 62.4636 182.506 63.3899 184.049 63.824C185.592 64.258 187.234 64.1761 188.726 63.5906C190.218 63.005 191.479 61.9481 192.315 60.5805C192.328 60.5593 192.336 60.5357 192.339 60.5112C192.343 60.4866 192.342 60.4616 192.336 60.4376C192.33 60.4136 192.319 60.3911 192.304 60.3713C192.289 60.3515 192.27 60.335 192.248 60.3225Z" fill="#5433ED"/>
<path d="M268.322 49.3967C265.009 49.4707 262.302 51.3501 262.302 55.8555C262.302 58.8743 262.303 62.6821 262.303 63.5636C262.303 63.5872 262.308 63.6105 262.317 63.6323C262.326 63.654 262.339 63.6738 262.356 63.6903C262.373 63.7069 262.393 63.72 262.415 63.7288C262.436 63.7376 262.46 63.742 262.484 63.7418H265.232C265.281 63.7417 265.328 63.7223 265.363 63.6878C265.397 63.6533 265.416 63.6066 265.416 63.5578V56.1414C265.416 53.4121 266.744 52.5356 268.422 52.509C268.799 52.5028 269.175 52.547 269.541 52.6404C269.895 52.7378 270.271 52.7146 270.611 52.5744C270.95 52.4341 271.233 52.1849 271.415 51.866L272.113 50.6073C272.143 50.5548 272.15 50.4929 272.134 50.4351C272.118 50.3772 272.079 50.3281 272.027 50.2983C270.893 49.6763 269.615 49.3653 268.322 49.3967Z" fill="#5433ED"/>
<path d="M218.696 55.0532C215.318 54.7364 214.966 54.3024 214.966 53.6264C214.966 53.3376 215.404 53.0832 215.593 52.987C216.897 52.3231 219.208 52.3001 221.146 53.1385C221.369 53.2334 221.61 53.2816 221.852 53.2801C222.971 53.2513 223.559 52.0336 223.817 51.2684C223.833 51.2171 223.832 51.1617 223.814 51.1109C223.796 51.0602 223.761 51.017 223.715 50.9883C220.613 49.0312 216.514 49.024 214.18 50.2123C213.508 50.502 212.932 50.9769 212.52 51.5814C212.108 52.1859 211.877 52.8951 211.852 53.6264C211.852 57.4334 215.64 57.6848 218.423 57.9463C221.695 58.2158 221.696 59.3171 221.696 59.6929C221.696 60.4616 220.418 61.0414 218.724 61.0414C217.373 61.0392 216.04 60.7343 214.821 60.1491C214.548 60.0166 214.246 59.9536 213.942 59.9659C213.907 59.9659 213.875 59.973 213.841 59.9759C213.779 59.9817 213.717 59.9889 213.657 60.0003C212.762 60.2044 212.265 61.2878 212.052 61.8963C212.034 61.9461 212.033 62.0005 212.049 62.0511C212.065 62.1016 212.096 62.1455 212.14 62.1758C214.1 63.4469 216.389 64.1158 218.724 64.0998C222.307 64.0998 224.809 62.3202 224.809 59.6929C224.809 57.7581 223.745 55.4684 218.696 55.0532Z" fill="#5433ED"/>
<path d="M153.359 60.3214L152.34 59.7301C151.962 59.5117 151.525 59.4159 151.089 59.4557C150.654 59.4956 150.242 59.6692 149.909 59.9528C149.245 60.5171 148.422 60.8613 147.553 60.938C146.685 61.0146 145.815 60.8199 145.062 60.3806C144.309 59.9414 143.711 59.2793 143.351 58.4858C142.99 57.6923 142.885 56.8064 143.049 55.9504C143.189 55.2234 143.517 54.5461 144.002 53.9868C144.487 53.4274 145.111 53.0058 145.811 52.7644C146.51 52.5231 147.261 52.4704 147.988 52.6119C148.714 52.7534 149.391 53.0839 149.949 53.5702C150.273 53.8451 150.676 54.012 151.099 54.0478C151.523 54.0836 151.947 53.9865 152.313 53.7699L153.357 53.1628C153.378 53.1503 153.397 53.1336 153.412 53.1138C153.427 53.094 153.438 53.0714 153.444 53.0473C153.45 53.0233 153.452 52.9982 153.448 52.9736C153.445 52.9491 153.436 52.9255 153.423 52.9042C152.586 51.5373 151.325 50.4813 149.833 49.8969C148.34 49.3125 146.699 49.2317 145.156 49.6667C143.613 50.1018 142.255 51.0289 141.288 52.307C140.321 53.5851 139.798 55.1441 139.799 56.7468C139.799 58.3496 140.324 59.9082 141.292 61.1856C142.26 62.4629 143.618 63.389 145.161 63.8229C146.704 64.2568 148.347 64.1748 149.838 63.5892C151.33 63.0037 152.59 61.9468 153.426 60.5793C153.438 60.558 153.447 60.5344 153.45 60.5099C153.454 60.4853 153.452 60.4604 153.446 60.4364C153.44 60.4124 153.43 60.3899 153.415 60.3701C153.4 60.3504 153.381 60.3338 153.359 60.3214Z" fill="#5433ED"/>
<path d="M276.734 55.3579C277.011 54.5353 277.538 53.8204 278.243 53.314C278.948 52.8076 279.794 52.5351 280.662 52.5351C281.53 52.5351 282.376 52.8076 283.081 53.314C283.785 53.8204 284.313 54.5353 284.59 55.3579H276.734ZM273.34 57.1525C273.413 58.6415 273.94 60.0726 274.85 61.2533C275.76 62.4341 277.01 63.308 278.431 63.7577C279.852 64.2073 281.378 64.2111 282.801 63.7686C284.225 63.326 285.479 62.4583 286.395 61.2821C286.429 61.2364 286.445 61.1794 286.438 61.1226C286.432 61.0658 286.405 61.0134 286.361 60.9761C284.843 59.7095 283.581 59.9257 282.739 60.3977C282.053 60.7316 281.302 60.9064 280.539 60.9092C279.924 60.892 279.319 60.74 278.769 60.4639C278.218 60.1879 277.735 59.7945 277.353 59.3114L277.351 59.3122L277.318 59.2655C277.143 59.0401 276.992 58.7975 276.867 58.5413C276.834 58.4797 276.804 58.4164 276.779 58.3516L276.763 58.3171H276.765C276.74 58.2586 276.725 58.1965 276.72 58.1332H286.706C287.032 58.1359 287.346 58.0153 287.586 57.7956C287.826 57.5759 287.974 57.2735 288 56.9492C288.02 55.1105 287.361 53.3291 286.148 51.947C284.935 50.5649 283.255 49.6795 281.429 49.4609C279.556 49.267 277.681 49.8003 276.19 50.9504C274.7 52.1006 273.708 53.7796 273.421 55.6402C273.323 56.138 273.296 56.6471 273.34 57.1525Z" fill="#5433ED"/>
<path d="M394.57 65.128C393.866 65.128 393.514 64.7653 393.514 64.04V54.808C393.514 54.0827 393.877 53.72 394.602 53.72H400.186C400.741 53.72 401.018 53.9867 401.018 54.52C401.018 55.0747 400.741 55.352 400.186 55.352H395.562V58.536H399.85C400.405 58.536 400.682 58.8027 400.682 59.336C400.682 59.8907 400.405 60.168 399.85 60.168H395.562V64.04C395.562 64.7653 395.231 65.128 394.57 65.128ZM406.041 65.16C405.156 65.16 404.393 64.9947 403.753 64.664C403.113 64.3333 402.617 63.864 402.265 63.256C401.924 62.648 401.753 61.928 401.753 61.096C401.753 60.2853 401.918 59.576 402.249 58.968C402.59 58.36 403.054 57.8853 403.641 57.544C404.238 57.192 404.916 57.016 405.673 57.016C406.782 57.016 407.657 57.368 408.297 58.072C408.948 58.776 409.273 59.736 409.273 60.952C409.273 61.3467 409.017 61.544 408.505 61.544H403.673C403.822 62.9413 404.622 63.64 406.073 63.64C406.35 63.64 406.66 63.608 407.001 63.544C407.353 63.4693 407.684 63.3467 407.993 63.176C408.27 63.016 408.505 62.968 408.697 63.032C408.889 63.0853 409.022 63.1973 409.097 63.368C409.182 63.5387 409.193 63.7307 409.129 63.944C409.076 64.1467 408.926 64.3227 408.681 64.472C408.308 64.7067 407.876 64.8827 407.385 65C406.905 65.1067 406.457 65.16 406.041 65.16ZM405.753 58.376C405.166 58.376 404.692 58.5573 404.329 58.92C403.966 59.2827 403.748 59.7733 403.673 60.392H407.609C407.566 59.7413 407.385 59.2453 407.065 58.904C406.756 58.552 406.318 58.376 405.753 58.376ZM413.593 65.16C413.028 65.16 412.521 65.0533 412.073 64.84C411.636 64.616 411.289 64.3173 411.033 63.944C410.788 63.5707 410.665 63.1493 410.665 62.68C410.665 62.104 410.814 61.6507 411.113 61.32C411.412 60.9787 411.897 60.7333 412.569 60.584C413.241 60.4347 414.142 60.36 415.273 60.36H415.833V60.024C415.833 59.4907 415.716 59.1067 415.481 58.872C415.246 58.6373 414.852 58.52 414.297 58.52C413.988 58.52 413.652 58.5573 413.289 58.632C412.937 58.7067 412.564 58.8347 412.169 59.016C411.913 59.1333 411.7 59.1493 411.529 59.064C411.358 58.968 411.241 58.824 411.177 58.632C411.124 58.4293 411.134 58.2267 411.209 58.024C411.294 57.8213 411.46 57.672 411.705 57.576C412.196 57.3733 412.665 57.2293 413.113 57.144C413.572 57.0587 413.988 57.016 414.361 57.016C415.502 57.016 416.35 57.2827 416.905 57.816C417.46 58.3387 417.737 59.1547 417.737 60.264V64.104C417.737 64.7867 417.428 65.128 416.809 65.128C416.18 65.128 415.865 64.7867 415.865 64.104V63.752C415.684 64.1893 415.396 64.536 415.001 64.792C414.606 65.0373 414.137 65.16 413.593 65.16ZM414.009 63.784C414.532 63.784 414.964 63.6027 415.305 63.24C415.657 62.8773 415.833 62.4187 415.833 61.864V61.512H415.289C414.286 61.512 413.588 61.592 413.193 61.752C412.809 61.9013 412.617 62.1787 412.617 62.584C412.617 62.936 412.74 63.224 412.985 63.448C413.23 63.672 413.572 63.784 414.009 63.784ZM423.511 65.16C421.442 65.16 420.407 64.136 420.407 62.088V58.68H419.575C419.042 58.68 418.775 58.4293 418.775 57.928C418.775 57.4267 419.042 57.176 419.575 57.176H420.407V55.72C420.407 55.048 420.743 54.712 421.415 54.712C422.076 54.712 422.407 55.048 422.407 55.72V57.176H424.103C424.636 57.176 424.903 57.4267 424.903 57.928C424.903 58.4293 424.636 58.68 424.103 58.68H422.407V61.976C422.407 62.488 422.519 62.872 422.743 63.128C422.967 63.384 423.33 63.512 423.831 63.512C424.012 63.512 424.172 63.496 424.311 63.464C424.45 63.432 424.572 63.4107 424.679 63.4C424.807 63.3893 424.914 63.432 424.999 63.528C425.084 63.6133 425.127 63.7947 425.127 64.072C425.127 64.2853 425.09 64.4773 425.015 64.648C424.951 64.808 424.828 64.92 424.647 64.984C424.508 65.0267 424.327 65.064 424.103 65.096C423.879 65.1387 423.682 65.16 423.511 65.16ZM429.06 65.16C427.14 65.16 426.18 64.0827 426.18 61.928V58.056C426.18 57.384 426.51 57.048 427.172 57.048C427.844 57.048 428.18 57.384 428.18 58.056V61.96C428.18 62.5147 428.292 62.9253 428.516 63.192C428.74 63.4587 429.097 63.592 429.588 63.592C430.121 63.592 430.558 63.4107 430.9 63.048C431.241 62.6747 431.412 62.184 431.412 61.576V58.056C431.412 57.384 431.742 57.048 432.404 57.048C433.076 57.048 433.411 57.384 433.411 58.056V64.104C433.411 64.7867 433.086 65.128 432.436 65.128C431.785 65.128 431.46 64.7867 431.46 64.104V63.832C430.937 64.7173 430.137 65.16 429.06 65.16ZM436.677 65.128C435.994 65.128 435.653 64.7867 435.653 64.104V58.056C435.653 57.384 435.978 57.048 436.629 57.048C437.28 57.048 437.605 57.384 437.605 58.056V58.552C437.989 57.6347 438.81 57.1227 440.069 57.016C440.528 56.9627 440.784 57.224 440.837 57.8C440.89 58.3653 440.613 58.68 440.005 58.744L439.653 58.776C438.341 58.904 437.685 59.576 437.685 60.792V64.104C437.685 64.7867 437.349 65.128 436.677 65.128ZM445.81 65.16C444.924 65.16 444.162 64.9947 443.522 64.664C442.882 64.3333 442.386 63.864 442.034 63.256C441.692 62.648 441.522 61.928 441.522 61.096C441.522 60.2853 441.687 59.576 442.018 58.968C442.359 58.36 442.823 57.8853 443.41 57.544C444.007 57.192 444.684 57.016 445.442 57.016C446.551 57.016 447.426 57.368 448.066 58.072C448.716 58.776 449.042 59.736 449.042 60.952C449.042 61.3467 448.786 61.544 448.274 61.544H443.442C443.591 62.9413 444.391 63.64 445.842 63.64C446.119 63.64 446.428 63.608 446.77 63.544C447.122 63.4693 447.452 63.3467 447.762 63.176C448.039 63.016 448.274 62.968 448.466 63.032C448.658 63.0853 448.791 63.1973 448.866 63.368C448.951 63.5387 448.962 63.7307 448.898 63.944C448.844 64.1467 448.695 64.3227 448.45 64.472C448.076 64.7067 447.644 64.8827 447.154 65C446.674 65.1067 446.226 65.16 445.81 65.16ZM445.522 58.376C444.935 58.376 444.46 58.5573 444.098 58.92C443.735 59.2827 443.516 59.7733 443.442 60.392H447.378C447.335 59.7413 447.154 59.2453 446.834 58.904C446.524 58.552 446.087 58.376 445.522 58.376ZM453.65 65.16C453.191 65.16 452.706 65.112 452.194 65.016C451.682 64.92 451.223 64.7547 450.818 64.52C450.594 64.392 450.455 64.2373 450.402 64.056C450.348 63.864 450.354 63.688 450.418 63.528C450.492 63.3573 450.61 63.2347 450.77 63.16C450.94 63.0853 451.138 63.1013 451.362 63.208C451.788 63.4107 452.188 63.5547 452.562 63.64C452.935 63.7147 453.303 63.752 453.666 63.752C454.178 63.752 454.556 63.6667 454.802 63.496C455.058 63.3147 455.186 63.08 455.186 62.792C455.186 62.344 454.855 62.056 454.194 61.928L452.594 61.624C451.239 61.368 450.562 60.664 450.562 59.512C450.562 59 450.7 58.5573 450.978 58.184C451.266 57.8107 451.66 57.5227 452.162 57.32C452.663 57.1173 453.239 57.016 453.89 57.016C454.828 57.016 455.666 57.224 456.402 57.64C456.604 57.7467 456.722 57.896 456.754 58.088C456.796 58.2693 456.775 58.4453 456.69 58.616C456.615 58.776 456.492 58.8933 456.322 58.968C456.151 59.032 455.954 59.0107 455.73 58.904C455.399 58.7333 455.079 58.6107 454.77 58.536C454.471 58.4613 454.183 58.424 453.906 58.424C453.383 58.424 452.994 58.5147 452.738 58.696C452.492 58.8773 452.37 59.1173 452.37 59.416C452.37 59.8853 452.674 60.1733 453.282 60.28L454.882 60.584C455.575 60.712 456.098 60.9467 456.45 61.288C456.812 61.6293 456.994 62.088 456.994 62.664C456.994 63.4427 456.69 64.056 456.082 64.504C455.474 64.9413 454.663 65.16 453.65 65.16Z" fill="#333336"/>
<path d="M516.643 65.128C515.961 65.128 515.619 64.776 515.619 64.072V54.76C515.619 54.0667 515.966 53.72 516.659 53.72H520.515C521.753 53.72 522.707 54.0293 523.379 54.648C524.051 55.2667 524.387 56.1307 524.387 57.24C524.387 58.3493 524.051 59.2187 523.379 59.848C522.707 60.4667 521.753 60.776 520.515 60.776H517.667V64.072C517.667 64.776 517.326 65.128 516.643 65.128ZM517.667 59.16H520.195C521.667 59.16 522.403 58.52 522.403 57.24C522.403 55.9707 521.667 55.336 520.195 55.336H517.667V59.16ZM526.892 65.128C526.21 65.128 525.868 64.7867 525.868 64.104V58.056C525.868 57.384 526.194 57.048 526.844 57.048C527.495 57.048 527.82 57.384 527.82 58.056V58.552C528.204 57.6347 529.026 57.1227 530.284 57.016C530.743 56.9627 530.999 57.224 531.052 57.8C531.106 58.3653 530.828 58.68 530.22 58.744L529.868 58.776C528.556 58.904 527.9 59.576 527.9 60.792V64.104C527.9 64.7867 527.564 65.128 526.892 65.128ZM533.286 55.576C532.913 55.576 532.619 55.4853 532.406 55.304C532.203 55.112 532.102 54.8507 532.102 54.52C532.102 54.1787 532.203 53.9173 532.406 53.736C532.619 53.5547 532.913 53.464 533.286 53.464C534.075 53.464 534.47 53.816 534.47 54.52C534.47 55.224 534.075 55.576 533.286 55.576ZM533.286 65.112C532.966 65.112 532.721 65.016 532.55 64.824C532.379 64.632 532.294 64.3653 532.294 64.024V58.152C532.294 57.4267 532.625 57.064 533.286 57.064C533.958 57.064 534.294 57.4267 534.294 58.152V64.024C534.294 64.3653 534.209 64.632 534.038 64.824C533.867 65.016 533.617 65.112 533.286 65.112ZM540.148 65.16C539.327 65.16 538.612 64.9947 538.004 64.664C537.396 64.3227 536.927 63.8427 536.596 63.224C536.266 62.6053 536.1 61.88 536.1 61.048C536.1 60.216 536.266 59.5013 536.596 58.904C536.927 58.296 537.396 57.832 538.004 57.512C538.612 57.1813 539.327 57.016 540.148 57.016C540.5 57.016 540.879 57.064 541.284 57.16C541.7 57.256 542.09 57.416 542.452 57.64C542.666 57.768 542.788 57.9333 542.82 58.136C542.863 58.3387 542.836 58.5253 542.74 58.696C542.655 58.8667 542.522 58.9893 542.34 59.064C542.17 59.1387 541.972 59.112 541.748 58.984C541.258 58.7067 540.783 58.568 540.324 58.568C539.631 58.568 539.092 58.7867 538.708 59.224C538.335 59.6507 538.148 60.264 538.148 61.064C538.148 61.8533 538.335 62.4773 538.708 62.936C539.092 63.384 539.631 63.608 540.324 63.608C540.783 63.608 541.258 63.4747 541.748 63.208C541.972 63.08 542.17 63.0533 542.34 63.128C542.511 63.2027 542.634 63.3307 542.708 63.512C542.783 63.6827 542.799 63.8693 542.756 64.072C542.714 64.264 542.591 64.424 542.388 64.552C542.036 64.7653 541.663 64.92 541.268 65.016C540.874 65.112 540.5 65.16 540.148 65.16ZM545.231 55.576C544.858 55.576 544.564 55.4853 544.351 55.304C544.148 55.112 544.047 54.8507 544.047 54.52C544.047 54.1787 544.148 53.9173 544.351 53.736C544.564 53.5547 544.858 53.464 545.231 53.464C546.02 53.464 546.415 53.816 546.415 54.52C546.415 55.224 546.02 55.576 545.231 55.576ZM545.231 65.112C544.911 65.112 544.666 65.016 544.495 64.824C544.324 64.632 544.239 64.3653 544.239 64.024V58.152C544.239 57.4267 544.57 57.064 545.231 57.064C545.903 57.064 546.239 57.4267 546.239 58.152V64.024C546.239 64.3653 546.154 64.632 545.983 64.824C545.812 65.016 545.562 65.112 545.231 65.112ZM549.469 65.128C548.808 65.128 548.477 64.7867 548.477 64.104V58.056C548.477 57.384 548.803 57.048 549.453 57.048C550.104 57.048 550.429 57.384 550.429 58.056V58.392C550.696 57.944 551.053 57.6027 551.501 57.368C551.96 57.1333 552.472 57.016 553.037 57.016C554.883 57.016 555.805 58.088 555.805 60.232V64.104C555.805 64.7867 555.475 65.128 554.813 65.128C554.141 65.128 553.805 64.7867 553.805 64.104V60.328C553.805 59.72 553.688 59.2773 553.453 59C553.229 58.7227 552.877 58.584 552.397 58.584C551.811 58.584 551.341 58.7707 550.989 59.144C550.648 59.5067 550.477 59.992 550.477 60.6V64.104C550.477 64.7867 550.141 65.128 549.469 65.128ZM561.645 68.04C561.069 68.04 560.509 67.9867 559.965 67.88C559.431 67.7733 558.946 67.608 558.509 67.384C558.253 67.256 558.098 67.0907 558.045 66.888C558.002 66.696 558.023 66.5093 558.109 66.328C558.194 66.1467 558.322 66.0133 558.493 65.928C558.674 65.8533 558.866 65.864 559.069 65.96C559.538 66.1947 559.981 66.344 560.397 66.408C560.823 66.4827 561.186 66.52 561.485 66.52C562.914 66.52 563.629 65.832 563.629 64.456V63.384C563.405 63.8213 563.058 64.168 562.589 64.424C562.13 64.68 561.618 64.808 561.053 64.808C560.349 64.808 559.735 64.648 559.213 64.328C558.69 63.9973 558.285 63.5387 557.997 62.952C557.709 62.3653 557.565 61.6827 557.565 60.904C557.565 60.1253 557.709 59.448 557.997 58.872C558.285 58.2853 558.69 57.832 559.213 57.512C559.735 57.1813 560.349 57.016 561.053 57.016C561.618 57.016 562.13 57.1387 562.589 57.384C563.047 57.6293 563.383 57.9653 563.597 58.392V58.056C563.597 57.7253 563.682 57.4747 563.853 57.304C564.034 57.1333 564.279 57.048 564.589 57.048C565.25 57.048 565.581 57.384 565.581 58.056V64.216C565.581 65.4853 565.245 66.44 564.573 67.08C563.901 67.72 562.925 68.04 561.645 68.04ZM561.597 63.288C562.215 63.288 562.706 63.0747 563.069 62.648C563.431 62.2213 563.613 61.64 563.613 60.904C563.613 60.168 563.431 59.592 563.069 59.176C562.706 58.7493 562.215 58.536 561.597 58.536C560.978 58.536 560.487 58.7493 560.125 59.176C559.762 59.592 559.581 60.168 559.581 60.904C559.581 61.64 559.762 62.2213 560.125 62.648C560.487 63.0747 560.978 63.288 561.597 63.288Z" fill="#333336"/>
<path d="M625.285 65C624.591 65 624.245 64.648 624.245 63.944V54.712C624.245 54.0187 624.586 53.672 625.269 53.672C625.951 53.672 626.293 54.0187 626.293 54.712V63.256H630.933C631.53 63.256 631.829 63.544 631.829 64.12C631.829 64.7067 631.53 65 630.933 65H625.285ZM636.975 65.16C636.09 65.16 635.327 64.9947 634.687 64.664C634.047 64.3333 633.551 63.864 633.199 63.256C632.858 62.648 632.687 61.928 632.687 61.096C632.687 60.2853 632.852 59.576 633.183 58.968C633.524 58.36 633.988 57.8853 634.575 57.544C635.172 57.192 635.85 57.016 636.607 57.016C637.716 57.016 638.591 57.368 639.231 58.072C639.882 58.776 640.207 59.736 640.207 60.952C640.207 61.3467 639.951 61.544 639.439 61.544H634.607C634.756 62.9413 635.556 63.64 637.007 63.64C637.284 63.64 637.594 63.608 637.935 63.544C638.287 63.4693 638.618 63.3467 638.927 63.176C639.204 63.016 639.439 62.968 639.631 63.032C639.823 63.0853 639.956 63.1973 640.031 63.368C640.116 63.5387 640.127 63.7307 640.063 63.944C640.01 64.1467 639.86 64.3227 639.615 64.472C639.242 64.7067 638.81 64.8827 638.319 65C637.839 65.1067 637.391 65.16 636.975 65.16ZM636.687 58.376C636.1 58.376 635.626 58.5573 635.263 58.92C634.9 59.2827 634.682 59.7733 634.607 60.392H638.543C638.5 59.7413 638.319 59.2453 637.999 58.904C637.69 58.552 637.252 58.376 636.687 58.376ZM644.527 65.16C643.962 65.16 643.455 65.0533 643.007 64.84C642.57 64.616 642.223 64.3173 641.967 63.944C641.722 63.5707 641.599 63.1493 641.599 62.68C641.599 62.104 641.748 61.6507 642.047 61.32C642.346 60.9787 642.831 60.7333 643.503 60.584C644.175 60.4347 645.076 60.36 646.207 60.36H646.767V60.024C646.767 59.4907 646.65 59.1067 646.415 58.872C646.18 58.6373 645.786 58.52 645.231 58.52C644.922 58.52 644.586 58.5573 644.223 58.632C643.871 58.7067 643.498 58.8347 643.103 59.016C642.847 59.1333 642.634 59.1493 642.463 59.064C642.292 58.968 642.175 58.824 642.111 58.632C642.058 58.4293 642.068 58.2267 642.143 58.024C642.228 57.8213 642.394 57.672 642.639 57.576C643.13 57.3733 643.599 57.2293 644.047 57.144C644.506 57.0587 644.922 57.016 645.295 57.016C646.436 57.016 647.284 57.2827 647.839 57.816C648.394 58.3387 648.671 59.1547 648.671 60.264V64.104C648.671 64.7867 648.362 65.128 647.743 65.128C647.114 65.128 646.799 64.7867 646.799 64.104V63.752C646.618 64.1893 646.33 64.536 645.935 64.792C645.54 65.0373 645.071 65.16 644.527 65.16ZM644.943 63.784C645.466 63.784 645.898 63.6027 646.239 63.24C646.591 62.8773 646.767 62.4187 646.767 61.864V61.512H646.223C645.22 61.512 644.522 61.592 644.127 61.752C643.743 61.9013 643.551 62.1787 643.551 62.584C643.551 62.936 643.674 63.224 643.919 63.448C644.164 63.672 644.506 63.784 644.943 63.784ZM651.885 65.128C651.202 65.128 650.861 64.7867 650.861 64.104V58.056C650.861 57.384 651.186 57.048 651.837 57.048C652.488 57.048 652.813 57.384 652.813 58.056V58.552C653.197 57.6347 654.018 57.1227 655.277 57.016C655.736 56.9627 655.992 57.224 656.045 57.8C656.098 58.3653 655.821 58.68 655.213 58.744L654.861 58.776C653.549 58.904 652.893 59.576 652.893 60.792V64.104C652.893 64.7867 652.557 65.128 651.885 65.128ZM658.279 65.128C657.617 65.128 657.287 64.7867 657.287 64.104V58.056C657.287 57.384 657.612 57.048 658.263 57.048C658.913 57.048 659.239 57.384 659.239 58.056V58.392C659.505 57.944 659.863 57.6027 660.311 57.368C660.769 57.1333 661.281 57.016 661.847 57.016C663.692 57.016 664.615 58.088 664.615 60.232V64.104C664.615 64.7867 664.284 65.128 663.623 65.128C662.951 65.128 662.615 64.7867 662.615 64.104V60.328C662.615 59.72 662.497 59.2773 662.263 59C662.039 58.7227 661.687 58.584 661.207 58.584C660.62 58.584 660.151 58.7707 659.799 59.144C659.457 59.5067 659.287 59.992 659.287 60.6V64.104C659.287 64.7867 658.951 65.128 658.279 65.128ZM667.798 55.576C667.425 55.576 667.131 55.4853 666.918 55.304C666.715 55.112 666.614 54.8507 666.614 54.52C666.614 54.1787 666.715 53.9173 666.918 53.736C667.131 53.5547 667.425 53.464 667.798 53.464C668.587 53.464 668.982 53.816 668.982 54.52C668.982 55.224 668.587 55.576 667.798 55.576ZM667.798 65.112C667.478 65.112 667.233 65.016 667.062 64.824C666.891 64.632 666.806 64.3653 666.806 64.024V58.152C666.806 57.4267 667.137 57.064 667.798 57.064C668.47 57.064 668.806 57.4267 668.806 58.152V64.024C668.806 64.3653 668.721 64.632 668.55 64.824C668.379 65.016 668.129 65.112 667.798 65.112ZM672.036 65.128C671.375 65.128 671.044 64.7867 671.044 64.104V58.056C671.044 57.384 671.369 57.048 672.02 57.048C672.671 57.048 672.996 57.384 672.996 58.056V58.392C673.263 57.944 673.62 57.6027 674.068 57.368C674.527 57.1333 675.039 57.016 675.604 57.016C677.449 57.016 678.372 58.088 678.372 60.232V64.104C678.372 64.7867 678.041 65.128 677.38 65.128C676.708 65.128 676.372 64.7867 676.372 64.104V60.328C676.372 59.72 676.255 59.2773 676.02 59C675.796 58.7227 675.444 58.584 674.964 58.584C674.377 58.584 673.908 58.7707 673.556 59.144C673.215 59.5067 673.044 59.992 673.044 60.6V64.104C673.044 64.7867 672.708 65.128 672.036 65.128ZM684.211 68.04C683.635 68.04 683.075 67.9867 682.531 67.88C681.998 67.7733 681.513 67.608 681.075 67.384C680.819 67.256 680.665 67.0907 680.611 66.888C680.569 66.696 680.59 66.5093 680.675 66.328C680.761 66.1467 680.889 66.0133 681.059 65.928C681.241 65.8533 681.433 65.864 681.635 65.96C682.105 66.1947 682.547 66.344 682.963 66.408C683.39 66.4827 683.753 66.52 684.051 66.52C685.481 66.52 686.195 65.832 686.195 64.456V63.384C685.971 63.8213 685.625 64.168 685.155 64.424C684.697 64.68 684.185 64.808 683.619 64.808C682.915 64.808 682.302 64.648 681.779 64.328C681.257 63.9973 680.851 63.5387 680.563 62.952C680.275 62.3653 680.131 61.6827 680.131 60.904C680.131 60.1253 680.275 59.448 680.563 58.872C680.851 58.2853 681.257 57.832 681.779 57.512C682.302 57.1813 682.915 57.016 683.619 57.016C684.185 57.016 684.697 57.1387 685.155 57.384C685.614 57.6293 685.95 57.9653 686.163 58.392V58.056C686.163 57.7253 686.249 57.4747 686.419 57.304C686.601 57.1333 686.846 57.048 687.155 57.048C687.817 57.048 688.147 57.384 688.147 58.056V64.216C688.147 65.4853 687.811 66.44 687.139 67.08C686.467 67.72 685.491 68.04 684.211 68.04ZM684.163 63.288C684.782 63.288 685.273 63.0747 685.635 62.648C685.998 62.2213 686.179 61.64 686.179 60.904C686.179 60.168 685.998 59.592 685.635 59.176C685.273 58.7493 684.782 58.536 684.163 58.536C683.545 58.536 683.054 58.7493 682.691 59.176C682.329 59.592 682.147 60.168 682.147 60.904C682.147 61.64 682.329 62.2213 682.691 62.648C683.054 63.0747 683.545 63.288 684.163 63.288ZM700.323 65.16C699.15 65.16 698.142 64.9253 697.299 64.456C696.467 63.976 695.827 63.304 695.379 62.44C694.931 61.5653 694.707 60.536 694.707 59.352C694.707 58.168 694.931 57.144 695.379 56.28C695.827 55.416 696.467 54.7493 697.299 54.28C698.142 53.8 699.15 53.56 700.323 53.56C700.91 53.56 701.486 53.6347 702.051 53.784C702.617 53.9333 703.113 54.1467 703.539 54.424C703.817 54.6053 703.982 54.824 704.035 55.08C704.089 55.3253 704.057 55.5547 703.939 55.768C703.822 55.9707 703.646 56.1093 703.411 56.184C703.177 56.248 702.915 56.184 702.627 55.992C702.297 55.7787 701.939 55.624 701.555 55.528C701.171 55.432 700.782 55.384 700.387 55.384C699.246 55.384 698.377 55.7307 697.779 56.424C697.182 57.1067 696.883 58.0827 696.883 59.352C696.883 60.6213 697.182 61.6027 697.779 62.296C698.377 62.9893 699.246 63.336 700.387 63.336C700.793 63.336 701.193 63.288 701.587 63.192C701.982 63.0853 702.355 62.9253 702.707 62.712C702.995 62.5307 703.251 62.472 703.475 62.536C703.699 62.6 703.865 62.7333 703.971 62.936C704.089 63.128 704.126 63.3413 704.083 63.576C704.041 63.8107 703.897 64.0187 703.651 64.2C703.225 64.5093 702.713 64.7493 702.115 64.92C701.529 65.08 700.931 65.16 700.323 65.16ZM709.212 65.16C708.327 65.16 707.564 64.9947 706.924 64.664C706.284 64.3333 705.788 63.864 705.436 63.256C705.095 62.648 704.924 61.928 704.924 61.096C704.924 60.2853 705.089 59.576 705.42 58.968C705.761 58.36 706.225 57.8853 706.812 57.544C707.409 57.192 708.087 57.016 708.844 57.016C709.953 57.016 710.828 57.368 711.468 58.072C712.119 58.776 712.444 59.736 712.444 60.952C712.444 61.3467 712.188 61.544 711.676 61.544H706.844C706.993 62.9413 707.793 63.64 709.244 63.64C709.521 63.64 709.831 63.608 710.172 63.544C710.524 63.4693 710.855 63.3467 711.164 63.176C711.441 63.016 711.676 62.968 711.868 63.032C712.06 63.0853 712.193 63.1973 712.268 63.368C712.353 63.5387 712.364 63.7307 712.3 63.944C712.247 64.1467 712.097 64.3227 711.852 64.472C711.479 64.7067 711.047 64.8827 710.556 65C710.076 65.1067 709.628 65.16 709.212 65.16ZM708.924 58.376C708.337 58.376 707.863 58.5573 707.5 58.92C707.137 59.2827 706.919 59.7733 706.844 60.392H710.78C710.737 59.7413 710.556 59.2453 710.236 58.904C709.927 58.552 709.489 58.376 708.924 58.376ZM715.18 65.128C714.518 65.128 714.188 64.7867 714.188 64.104V58.056C714.188 57.384 714.513 57.048 715.164 57.048C715.814 57.048 716.14 57.384 716.14 58.056V58.392C716.406 57.944 716.764 57.6027 717.212 57.368C717.67 57.1333 718.182 57.016 718.748 57.016C720.593 57.016 721.516 58.088 721.516 60.232V64.104C721.516 64.7867 721.185 65.128 720.524 65.128C719.852 65.128 719.516 64.7867 719.516 64.104V60.328C719.516 59.72 719.398 59.2773 719.164 59C718.94 58.7227 718.588 58.584 718.108 58.584C717.521 58.584 717.052 58.7707 716.7 59.144C716.358 59.5067 716.188 59.992 716.188 60.6V64.104C716.188 64.7867 715.852 65.128 715.18 65.128ZM727.291 65.16C725.222 65.16 724.187 64.136 724.187 62.088V58.68H723.355C722.822 58.68 722.555 58.4293 722.555 57.928C722.555 57.4267 722.822 57.176 723.355 57.176H724.187V55.72C724.187 55.048 724.523 54.712 725.195 54.712C725.857 54.712 726.187 55.048 726.187 55.72V57.176H727.883C728.417 57.176 728.683 57.4267 728.683 57.928C728.683 58.4293 728.417 58.68 727.883 58.68H726.187V61.976C726.187 62.488 726.299 62.872 726.523 63.128C726.747 63.384 727.11 63.512 727.611 63.512C727.793 63.512 727.953 63.496 728.091 63.464C728.23 63.432 728.353 63.4107 728.459 63.4C728.587 63.3893 728.694 63.432 728.779 63.528C728.865 63.6133 728.907 63.7947 728.907 64.072C728.907 64.2853 728.87 64.4773 728.795 64.648C728.731 64.808 728.609 64.92 728.427 64.984C728.289 65.0267 728.107 65.064 727.883 65.096C727.659 65.1387 727.462 65.16 727.291 65.16ZM733.786 65.16C732.9 65.16 732.138 64.9947 731.498 64.664C730.858 64.3333 730.362 63.864 730.01 63.256C729.668 62.648 729.498 61.928 729.498 61.096C729.498 60.2853 729.663 59.576 729.994 58.968C730.335 58.36 730.799 57.8853 731.386 57.544C731.983 57.192 732.66 57.016 733.418 57.016C734.527 57.016 735.402 57.368 736.042 58.072C736.692 58.776 737.018 59.736 737.018 60.952C737.018 61.3467 736.762 61.544 736.25 61.544H731.418C731.567 62.9413 732.367 63.64 733.818 63.64C734.095 63.64 734.404 63.608 734.746 63.544C735.098 63.4693 735.428 63.3467 735.738 63.176C736.015 63.016 736.25 62.968 736.442 63.032C736.634 63.0853 736.767 63.1973 736.842 63.368C736.927 63.5387 736.938 63.7307 736.874 63.944C736.82 64.1467 736.671 64.3227 736.426 64.472C736.052 64.7067 735.62 64.8827 735.13 65C734.65 65.1067 734.202 65.16 733.786 65.16ZM733.498 58.376C732.911 58.376 732.436 58.5573 732.074 58.92C731.711 59.2827 731.492 59.7733 731.418 60.392H735.354C735.311 59.7413 735.13 59.2453 734.81 58.904C734.5 58.552 734.063 58.376 733.498 58.376ZM739.786 65.128C739.103 65.128 738.762 64.7867 738.762 64.104V58.056C738.762 57.384 739.087 57.048 739.738 57.048C740.388 57.048 740.714 57.384 740.714 58.056V58.552C741.098 57.6347 741.919 57.1227 743.178 57.016C743.636 56.9627 743.892 57.224 743.946 57.8C743.999 58.3653 743.722 58.68 743.114 58.744L742.762 58.776C741.45 58.904 740.794 59.576 740.794 60.792V64.104C740.794 64.7867 740.458 65.128 739.786 65.128Z" fill="#333336"/>
<path d="M802.317 65.128C801.635 65.128 801.293 64.776 801.293 64.072V54.648C801.293 53.944 801.635 53.592 802.317 53.592C803 53.592 803.341 53.944 803.341 54.648V64.072C803.341 64.776 803 65.128 802.317 65.128ZM806.769 65.128C806.108 65.128 805.777 64.7867 805.777 64.104V58.056C805.777 57.384 806.102 57.048 806.753 57.048C807.404 57.048 807.729 57.384 807.729 58.056V58.392C807.996 57.944 808.353 57.6027 808.801 57.368C809.26 57.1333 809.772 57.016 810.337 57.016C812.182 57.016 813.105 58.088 813.105 60.232V64.104C813.105 64.7867 812.774 65.128 812.113 65.128C811.441 65.128 811.105 64.7867 811.105 64.104V60.328C811.105 59.72 810.988 59.2773 810.753 59C810.529 58.7227 810.177 58.584 809.697 58.584C809.11 58.584 808.641 58.7707 808.289 59.144C807.948 59.5067 807.777 59.992 807.777 60.6V64.104C807.777 64.7867 807.441 65.128 806.769 65.128ZM818.304 65.16C817.622 65.16 817.019 64.9947 816.496 64.664C815.984 64.3333 815.584 63.864 815.296 63.256C815.008 62.6373 814.864 61.912 814.864 61.08C814.864 60.2373 815.008 59.5173 815.296 58.92C815.584 58.312 815.984 57.8427 816.496 57.512C817.019 57.1813 817.622 57.016 818.304 57.016C818.859 57.016 819.36 57.1387 819.808 57.384C820.256 57.6293 820.592 57.9547 820.816 58.36V54.6C820.816 53.928 821.147 53.592 821.808 53.592C822.48 53.592 822.816 53.928 822.816 54.6V64.104C822.816 64.7867 822.486 65.128 821.824 65.128C821.163 65.128 820.832 64.7867 820.832 64.104V63.768C820.608 64.1947 820.272 64.536 819.824 64.792C819.376 65.0373 818.87 65.16 818.304 65.16ZM818.864 63.64C819.462 63.64 819.942 63.4267 820.304 63C820.667 62.5627 820.848 61.9227 820.848 61.08C820.848 60.2267 820.667 59.592 820.304 59.176C819.942 58.7493 819.462 58.536 818.864 58.536C818.267 58.536 817.787 58.7493 817.424 59.176C817.062 59.592 816.88 60.2267 816.88 61.08C816.88 61.9227 817.062 62.5627 817.424 63C817.787 63.4267 818.267 63.64 818.864 63.64ZM827.882 65.16C825.962 65.16 825.002 64.0827 825.002 61.928V58.056C825.002 57.384 825.333 57.048 825.994 57.048C826.666 57.048 827.002 57.384 827.002 58.056V61.96C827.002 62.5147 827.114 62.9253 827.338 63.192C827.562 63.4587 827.919 63.592 828.41 63.592C828.943 63.592 829.381 63.4107 829.722 63.048C830.063 62.6747 830.234 62.184 830.234 61.576V58.056C830.234 57.384 830.565 57.048 831.226 57.048C831.898 57.048 832.234 57.384 832.234 58.056V64.104C832.234 64.7867 831.909 65.128 831.258 65.128C830.607 65.128 830.282 64.7867 830.282 64.104V63.832C829.759 64.7173 828.959 65.16 827.882 65.16ZM837.34 65.16C836.881 65.16 836.396 65.112 835.884 65.016C835.372 64.92 834.913 64.7547 834.508 64.52C834.284 64.392 834.145 64.2373 834.092 64.056C834.038 63.864 834.044 63.688 834.108 63.528C834.182 63.3573 834.3 63.2347 834.46 63.16C834.63 63.0853 834.828 63.1013 835.052 63.208C835.478 63.4107 835.878 63.5547 836.252 63.64C836.625 63.7147 836.993 63.752 837.356 63.752C837.868 63.752 838.246 63.6667 838.492 63.496C838.748 63.3147 838.876 63.08 838.876 62.792C838.876 62.344 838.545 62.056 837.884 61.928L836.284 61.624C834.929 61.368 834.252 60.664 834.252 59.512C834.252 59 834.39 58.5573 834.668 58.184C834.956 57.8107 835.35 57.5227 835.852 57.32C836.353 57.1173 836.929 57.016 837.58 57.016C838.518 57.016 839.356 57.224 840.092 57.64C840.294 57.7467 840.412 57.896 840.444 58.088C840.486 58.2693 840.465 58.4453 840.38 58.616C840.305 58.776 840.182 58.8933 840.012 58.968C839.841 59.032 839.644 59.0107 839.42 58.904C839.089 58.7333 838.769 58.6107 838.46 58.536C838.161 58.4613 837.873 58.424 837.596 58.424C837.073 58.424 836.684 58.5147 836.428 58.696C836.182 58.8773 836.06 59.1173 836.06 59.416C836.06 59.8853 836.364 60.1733 836.972 60.28L838.572 60.584C839.265 60.712 839.788 60.9467 840.14 61.288C840.502 61.6293 840.684 62.088 840.684 62.664C840.684 63.4427 840.38 64.056 839.772 64.504C839.164 64.9413 838.353 65.16 837.34 65.16ZM845.954 65.16C843.885 65.16 842.85 64.136 842.85 62.088V58.68H842.018C841.485 58.68 841.218 58.4293 841.218 57.928C841.218 57.4267 841.485 57.176 842.018 57.176H842.85V55.72C842.85 55.048 843.186 54.712 843.858 54.712C844.519 54.712 844.85 55.048 844.85 55.72V57.176H846.546C847.079 57.176 847.346 57.4267 847.346 57.928C847.346 58.4293 847.079 58.68 846.546 58.68H844.85V61.976C844.85 62.488 844.962 62.872 845.186 63.128C845.41 63.384 845.773 63.512 846.274 63.512C846.455 63.512 846.615 63.496 846.754 63.464C846.893 63.432 847.015 63.4107 847.122 63.4C847.25 63.3893 847.357 63.432 847.442 63.528C847.527 63.6133 847.57 63.7947 847.57 64.072C847.57 64.2853 847.533 64.4773 847.458 64.648C847.394 64.808 847.271 64.92 847.09 64.984C846.951 65.0267 846.77 65.064 846.546 65.096C846.322 65.1387 846.125 65.16 845.954 65.16ZM849.695 65.128C849.012 65.128 848.671 64.7867 848.671 64.104V58.056C848.671 57.384 848.996 57.048 849.647 57.048C850.297 57.048 850.623 57.384 850.623 58.056V58.552C851.007 57.6347 851.828 57.1227 853.087 57.016C853.545 56.9627 853.801 57.224 853.855 57.8C853.908 58.3653 853.631 58.68 853.023 58.744L852.671 58.776C851.359 58.904 850.703 59.576 850.703 60.792V64.104C850.703 64.7867 850.367 65.128 849.695 65.128ZM856.088 55.576C855.715 55.576 855.422 55.4853 855.208 55.304C855.006 55.112 854.904 54.8507 854.904 54.52C854.904 54.1787 855.006 53.9173 855.208 53.736C855.422 53.5547 855.715 53.464 856.088 53.464C856.878 53.464 857.272 53.816 857.272 54.52C857.272 55.224 856.878 55.576 856.088 55.576ZM856.088 65.112C855.768 65.112 855.523 65.016 855.352 64.824C855.182 64.632 855.096 64.3653 855.096 64.024V58.152C855.096 57.4267 855.427 57.064 856.088 57.064C856.76 57.064 857.096 57.4267 857.096 58.152V64.024C857.096 64.3653 857.011 64.632 856.84 64.824C856.67 65.016 856.419 65.112 856.088 65.112ZM863.19 65.16C862.305 65.16 861.542 64.9947 860.902 64.664C860.262 64.3333 859.766 63.864 859.414 63.256C859.073 62.648 858.902 61.928 858.902 61.096C858.902 60.2853 859.068 59.576 859.398 58.968C859.74 58.36 860.204 57.8853 860.79 57.544C861.388 57.192 862.065 57.016 862.822 57.016C863.932 57.016 864.806 57.368 865.446 58.072C866.097 58.776 866.422 59.736 866.422 60.952C866.422 61.3467 866.166 61.544 865.654 61.544H860.822C860.972 62.9413 861.772 63.64 863.222 63.64C863.5 63.64 863.809 63.608 864.15 63.544C864.502 63.4693 864.833 63.3467 865.142 63.176C865.42 63.016 865.654 62.968 865.846 63.032C866.038 63.0853 866.172 63.1973 866.246 63.368C866.332 63.5387 866.342 63.7307 866.278 63.944C866.225 64.1467 866.076 64.3227 865.83 64.472C865.457 64.7067 865.025 64.8827 864.534 65C864.054 65.1067 863.606 65.16 863.19 65.16ZM862.902 58.376C862.316 58.376 861.841 58.5573 861.478 58.92C861.116 59.2827 860.897 59.7733 860.822 60.392H864.758C864.716 59.7413 864.534 59.2453 864.214 58.904C863.905 58.552 863.468 58.376 862.902 58.376ZM871.03 65.16C870.572 65.16 870.086 65.112 869.574 65.016C869.062 64.92 868.604 64.7547 868.198 64.52C867.974 64.392 867.836 64.2373 867.782 64.056C867.729 63.864 867.734 63.688 867.798 63.528C867.873 63.3573 867.99 63.2347 868.15 63.16C868.321 63.0853 868.518 63.1013 868.742 63.208C869.169 63.4107 869.569 63.5547 869.942 63.64C870.316 63.7147 870.684 63.752 871.046 63.752C871.558 63.752 871.937 63.6667 872.182 63.496C872.438 63.3147 872.566 63.08 872.566 62.792C872.566 62.344 872.236 62.056 871.574 61.928L869.974 61.624C868.62 61.368 867.942 60.664 867.942 59.512C867.942 59 868.081 58.5573 868.358 58.184C868.646 57.8107 869.041 57.5227 869.542 57.32C870.044 57.1173 870.62 57.016 871.27 57.016C872.209 57.016 873.046 57.224 873.782 57.64C873.985 57.7467 874.102 57.896 874.134 58.088C874.177 58.2693 874.156 58.4453 874.07 58.616C873.996 58.776 873.873 58.8933 873.702 58.968C873.532 59.032 873.334 59.0107 873.11 58.904C872.78 58.7333 872.46 58.6107 872.15 58.536C871.852 58.4613 871.564 58.424 871.286 58.424C870.764 58.424 870.374 58.5147 870.118 58.696C869.873 58.8773 869.75 59.1173 869.75 59.416C869.75 59.8853 870.054 60.1733 870.662 60.28L872.262 60.584C872.956 60.712 873.478 60.9467 873.83 61.288C874.193 61.6293 874.374 62.088 874.374 62.664C874.374 63.4427 874.07 64.056 873.462 64.504C872.854 64.9413 872.044 65.16 871.03 65.16Z" fill="#333336"/>
<path d="M932.462 65.128C932.088 65.128 931.822 65 931.662 64.744C931.502 64.488 931.507 64.1787 931.678 63.816L935.902 54.456C936.04 54.1467 936.206 53.928 936.398 53.8C936.6 53.6613 936.83 53.592 937.086 53.592C937.331 53.592 937.55 53.6613 937.742 53.8C937.944 53.928 938.115 54.1467 938.254 54.456L942.494 63.816C942.664 64.1893 942.675 64.504 942.526 64.76C942.376 65.0053 942.12 65.128 941.758 65.128C941.459 65.128 941.224 65.0587 941.054 64.92C940.894 64.7707 940.75 64.5467 940.622 64.248L939.822 62.392H934.318L933.534 64.248C933.395 64.5573 933.251 64.7813 933.102 64.92C932.952 65.0587 932.739 65.128 932.462 65.128ZM937.054 55.944L935.022 60.76H939.118L937.086 55.944H937.054ZM948.736 65.16C948.16 65.16 947.648 65.0373 947.2 64.792C946.752 64.536 946.416 64.1947 946.192 63.768V64.104C946.192 64.7867 945.866 65.128 945.216 65.128C944.554 65.128 944.224 64.7867 944.224 64.104V54.6C944.224 53.928 944.554 53.592 945.216 53.592C945.888 53.592 946.224 53.928 946.224 54.6V58.328C946.458 57.9333 946.794 57.6187 947.232 57.384C947.68 57.1387 948.181 57.016 948.736 57.016C949.429 57.016 950.032 57.1813 950.544 57.512C951.056 57.8427 951.456 58.312 951.744 58.92C952.032 59.5173 952.176 60.2373 952.176 61.08C952.176 61.912 952.032 62.6373 951.744 63.256C951.456 63.864 951.05 64.3333 950.528 64.664C950.016 64.9947 949.418 65.16 948.736 65.16ZM948.176 63.64C948.773 63.64 949.253 63.4267 949.616 63C949.978 62.5627 950.16 61.9227 950.16 61.08C950.16 60.2267 949.978 59.592 949.616 59.176C949.253 58.7493 948.773 58.536 948.176 58.536C947.578 58.536 947.098 58.7493 946.736 59.176C946.373 59.592 946.192 60.2267 946.192 61.08C946.192 61.9227 946.373 62.5627 946.736 63C947.098 63.4267 947.578 63.64 948.176 63.64ZM957.546 65.16C956.735 65.16 956.031 64.9947 955.434 64.664C954.836 64.3333 954.372 63.864 954.042 63.256C953.711 62.6373 953.546 61.912 953.546 61.08C953.546 60.248 953.711 59.528 954.042 58.92C954.372 58.312 954.836 57.8427 955.434 57.512C956.031 57.1813 956.735 57.016 957.546 57.016C958.356 57.016 959.06 57.1813 959.658 57.512C960.255 57.8427 960.719 58.312 961.05 58.92C961.38 59.528 961.546 60.248 961.546 61.08C961.546 61.912 961.38 62.6373 961.05 63.256C960.719 63.864 960.255 64.3333 959.658 64.664C959.06 64.9947 958.356 65.16 957.546 65.16ZM957.546 63.64C958.143 63.64 958.623 63.4267 958.986 63C959.348 62.5627 959.53 61.9227 959.53 61.08C959.53 60.2267 959.348 59.592 958.986 59.176C958.623 58.7493 958.143 58.536 957.546 58.536C956.948 58.536 956.468 58.7493 956.106 59.176C955.743 59.592 955.562 60.2267 955.562 61.08C955.562 61.9227 955.743 62.5627 956.106 63C956.468 63.4267 956.948 63.64 957.546 63.64ZM966.188 65.16C964.268 65.16 963.308 64.0827 963.308 61.928V58.056C963.308 57.384 963.639 57.048 964.3 57.048C964.972 57.048 965.308 57.384 965.308 58.056V61.96C965.308 62.5147 965.42 62.9253 965.644 63.192C965.868 63.4587 966.226 63.592 966.716 63.592C967.25 63.592 967.687 63.4107 968.028 63.048C968.37 62.6747 968.54 62.184 968.54 61.576V58.056C968.54 57.384 968.871 57.048 969.532 57.048C970.204 57.048 970.54 57.384 970.54 58.056V64.104C970.54 64.7867 970.215 65.128 969.564 65.128C968.914 65.128 968.588 64.7867 968.588 64.104V63.832C968.066 64.7173 967.266 65.16 966.188 65.16ZM976.366 65.16C974.297 65.16 973.262 64.136 973.262 62.088V58.68H972.43C971.897 58.68 971.63 58.4293 971.63 57.928C971.63 57.4267 971.897 57.176 972.43 57.176H973.262V55.72C973.262 55.048 973.598 54.712 974.27 54.712C974.931 54.712 975.262 55.048 975.262 55.72V57.176H976.958C977.491 57.176 977.758 57.4267 977.758 57.928C977.758 58.4293 977.491 58.68 976.958 58.68H975.262V61.976C975.262 62.488 975.374 62.872 975.598 63.128C975.822 63.384 976.185 63.512 976.686 63.512C976.867 63.512 977.027 63.496 977.166 63.464C977.305 63.432 977.427 63.4107 977.534 63.4C977.662 63.3893 977.769 63.432 977.854 63.528C977.939 63.6133 977.982 63.7947 977.982 64.072C977.982 64.2853 977.945 64.4773 977.87 64.648C977.806 64.808 977.683 64.92 977.502 64.984C977.363 65.0267 977.182 65.064 976.958 65.096C976.734 65.1387 976.537 65.16 976.366 65.16Z" fill="#333336"/>
<defs>
<linearGradient id="paint0_linear_3727_7584" x1="951.775" y1="298.021" x2="1638.63" y2="767.744" gradientUnits="userSpaceOnUse">
<stop stop-color="#2BD4D9"/>
<stop offset="1" stop-color="#5433ED"/>
</linearGradient>
</defs>
</svg>
