<svg width="1440" height="623" viewBox="0 0 1440 623" fill="none" xmlns="http://www.w3.org/2000/svg">
<path opacity="0.05" d="M709.353 349.367C696.84 323.665 672.327 307.707 646.941 302.895C621.553 298.097 595.332 303.312 570.625 312.126C543.723 321.734 517.409 335.723 489.352 337.451C454.167 339.615 420.271 322.029 391.749 298.743C376.93 286.654 363.065 272.915 347.181 262.737C331.297 252.572 312.705 246.089 294.706 250.134C255.383 258.952 233.99 312.415 195.733 326.323C177.417 332.986 157.79 329.605 138.698 328.349C119.606 327.093 98.732 328.749 84.0684 343.073C64.3067 362.409 63.3965 397.285 70.0985 425.781C81.1318 472.724 112.432 516.398 154.418 523.372C176.748 527.076 199.642 520.277 222.137 522.546C230.574 523.413 238.86 525.556 246.78 528.92C247.805 529.695 248.804 530.484 249.802 531.301C272.335 549.715 289.259 576.757 313.767 591.511C314.218 591.784 314.669 592.043 315.132 592.302C317.026 593.837 318.995 595.248 321.03 596.526C332.955 604.014 346.851 606.385 360.585 605.179C364.18 605.459 367.795 605.585 371.39 605.599C418.928 605.714 465.377 587.848 503.555 554.763C531.258 530.618 554.254 498.664 585.43 481.066C612.962 465.537 644.439 462.625 673.16 450.358C683.396 445.992 693.439 440.287 701.273 431.511C719.836 410.705 721.855 375.055 709.353 349.367Z" fill="#2BD4D9"/>
<path opacity="0.2" d="M0.732133 253.06C0.355937 252.656 -0.276816 252.633 -0.681162 253.009C-1.08551 253.385 -1.10833 254.018 -0.732133 254.422L0.732133 253.06ZM484.326 494.028L483.654 493.287L484.326 494.028ZM1150.86 253.741L1151.43 252.918C1151.39 252.896 1151.36 252.876 1151.33 252.858L1150.86 253.741ZM1440.64 254.512C1441.06 254.16 1441.12 253.53 1440.77 253.104C1440.42 252.678 1439.79 252.618 1439.36 252.97L1440.64 254.512ZM2.73807 258.151C3.11441 258.555 3.74717 258.578 4.15138 258.201C4.55559 257.825 4.57818 257.192 4.20184 256.788L2.73807 258.151ZM11.0968 264.187C10.7202 263.784 10.0874 263.761 9.68349 264.138C9.27959 264.515 9.25752 265.148 9.6342 265.552L11.0968 264.187ZM16.4718 272.876C16.8489 273.28 17.4817 273.301 17.8852 272.924C18.2888 272.547 18.3102 271.915 17.9332 271.511L16.4718 272.876ZM24.8157 278.869C24.4382 278.466 23.8054 278.445 23.4023 278.822C22.9991 279.2 22.9784 279.833 23.3559 280.236L24.8157 278.869ZM30.2722 287.612C30.6502 288.015 31.283 288.035 31.6857 287.657C32.0883 287.279 32.1083 286.646 31.7303 286.244L30.2722 287.612ZM38.5848 293.535C38.2063 293.133 37.5734 293.114 37.1713 293.492C36.7691 293.871 36.7501 294.504 37.1286 294.906L38.5848 293.535ZM44.0578 302.254C44.437 302.656 45.0699 302.674 45.4714 302.295C45.873 301.915 45.891 301.282 45.5118 300.881L44.0578 302.254ZM52.4494 308.214C52.0695 307.813 51.4366 307.796 51.0357 308.176C50.6349 308.556 50.6179 309.189 50.9979 309.59L52.4494 308.214ZM57.8767 316.833C58.2574 317.233 58.8904 317.249 59.2905 316.868C59.6906 316.488 59.7063 315.855 59.3256 315.455L57.8767 316.833ZM66.3206 322.79C65.939 322.391 65.306 322.377 64.9067 322.758C64.5074 323.14 64.4931 323.773 64.8747 324.172L66.3206 322.79ZM71.8424 331.446C72.2249 331.844 72.8579 331.857 73.2563 331.474C73.6547 331.092 73.6675 330.459 73.285 330.06L71.8424 331.446ZM80.2154 337.259C79.8319 336.862 79.1988 336.851 78.8014 337.234C78.4041 337.618 78.3929 338.251 78.7765 338.648L80.2154 337.259ZM85.8409 345.946C86.2256 346.342 86.8587 346.352 87.255 345.967C87.6512 345.582 87.6606 344.949 87.2759 344.553L85.8409 345.946ZM94.271 351.736C93.8851 351.341 93.252 351.333 92.8569 351.719C92.4619 352.105 92.4545 352.738 92.8405 353.133L94.271 351.736ZM99.8925 360.327C100.28 360.721 100.913 360.726 101.307 360.339C101.7 359.952 101.706 359.318 101.318 358.925L99.8925 360.327ZM108.415 366.113C108.027 365.721 107.393 365.718 107.001 366.106C106.609 366.495 106.606 367.128 106.995 367.521L108.415 366.113ZM114.031 374.592C114.421 374.982 115.055 374.983 115.445 374.592C115.836 374.202 115.836 373.569 115.446 373.178L114.031 374.592ZM122.643 380.349C122.251 379.96 121.617 379.963 121.229 380.355C120.84 380.747 120.842 381.38 121.234 381.769L122.643 380.349ZM128.38 388.824C128.774 389.211 129.407 389.205 129.794 388.811C130.181 388.417 130.175 387.784 129.781 387.397L128.38 388.824ZM136.979 394.432C136.583 394.047 135.95 394.056 135.565 394.452C135.18 394.848 135.189 395.481 135.585 395.866L136.979 394.432ZM142.849 402.888C143.248 403.271 143.881 403.258 144.263 402.86C144.646 402.462 144.633 401.829 144.235 401.446L142.849 402.888ZM151.455 408.343C151.054 407.962 150.421 407.979 150.041 408.379C149.661 408.78 149.677 409.413 150.078 409.793L151.455 408.343ZM157.471 416.764C157.874 417.142 158.507 417.121 158.884 416.718C159.262 416.315 159.241 415.682 158.838 415.305L157.471 416.764ZM166.147 422.101C165.742 421.726 165.109 421.752 164.734 422.157C164.36 422.563 164.385 423.196 164.791 423.57L166.147 422.101ZM172.278 430.425C172.687 430.796 173.319 430.766 173.69 430.357C174.062 429.948 174.031 429.316 173.622 428.944L172.278 430.425ZM181.067 435.647C180.655 435.279 180.023 435.315 179.655 435.727C179.287 436.139 179.323 436.771 179.735 437.139L181.067 435.647ZM187.31 443.835C187.726 444.199 188.357 444.157 188.721 443.741C189.085 443.326 189.043 442.694 188.627 442.33L187.31 443.835ZM196.217 448.906C195.797 448.547 195.166 448.595 194.807 449.014C194.447 449.434 194.496 450.065 194.915 450.424L196.217 448.906ZM202.61 456.947C203.033 457.302 203.664 457.246 204.019 456.823C204.373 456.4 204.318 455.769 203.894 455.414L202.61 456.947ZM211.64 461.824C211.212 461.474 210.582 461.538 210.233 461.965C209.883 462.393 209.947 463.023 210.374 463.372L211.64 461.824ZM218.226 469.7C218.658 470.044 219.287 469.972 219.631 469.539C219.974 469.107 219.902 468.478 219.47 468.134L218.226 469.7ZM227.382 474.327C226.944 473.99 226.316 474.072 225.979 474.509C225.642 474.946 225.723 475.574 226.161 475.912L227.382 474.327ZM234.208 482.011C234.651 482.341 235.278 482.249 235.608 481.806C235.938 481.363 235.846 480.737 235.403 480.407L234.208 482.011ZM243.492 486.322C243.043 486 242.418 486.103 242.097 486.552C241.775 487.001 241.877 487.625 242.326 487.947L243.492 486.322ZM250.613 493.77C251.068 494.083 251.691 493.968 252.004 493.513C252.316 493.058 252.201 492.435 251.746 492.122L250.613 493.77ZM260.021 497.683C259.56 497.38 258.94 497.509 258.637 497.971C258.334 498.432 258.462 499.052 258.924 499.355L260.021 497.683ZM267.495 504.832C267.964 505.124 268.58 504.98 268.872 504.511C269.164 504.042 269.02 503.426 268.551 503.134L267.495 504.832ZM277.102 508.296C276.625 508.017 276.013 508.177 275.734 508.654C275.455 509.13 275.615 509.743 276.092 510.022L277.102 508.296ZM284.906 515.008C285.391 515.272 285.998 515.094 286.263 514.609C286.527 514.124 286.349 513.517 285.864 513.252L284.906 515.008ZM294.761 517.921C294.268 517.673 293.666 517.871 293.418 518.365C293.17 518.858 293.368 519.459 293.861 519.707L294.761 517.921ZM302.901 524.056C303.403 524.286 303.996 524.066 304.226 523.564C304.457 523.062 304.236 522.468 303.734 522.238L302.901 524.056ZM312.989 526.256C312.478 526.047 311.894 526.291 311.685 526.802C311.476 527.314 311.72 527.898 312.231 528.107L312.989 526.256ZM321.674 531.729C322.194 531.914 322.767 531.644 322.952 531.123C323.138 530.603 322.867 530.031 322.347 529.845L321.674 531.729ZM331.816 532.968C331.288 532.808 330.73 533.107 330.57 533.636C330.41 534.165 330.71 534.723 331.238 534.882L331.816 532.968ZM341.028 537.547C341.565 537.677 342.106 537.347 342.236 536.811C342.365 536.274 342.036 535.733 341.499 535.603L341.028 537.547ZM351.302 537.669C350.758 537.572 350.238 537.934 350.141 538.478C350.044 539.021 350.406 539.541 350.949 539.638L351.302 537.669ZM360.96 541.097C361.509 541.159 362.004 540.764 362.065 540.215C362.127 539.666 361.732 539.171 361.183 539.11L360.96 541.097ZM371.13 539.879C370.579 539.855 370.113 540.284 370.089 540.836C370.066 541.387 370.495 541.854 371.047 541.877L371.13 539.879ZM381.194 541.933C381.746 541.915 382.179 541.454 382.162 540.902C382.145 540.35 381.683 539.916 381.131 539.934L381.194 541.933ZM391.092 539.245C390.543 539.304 390.146 539.797 390.205 540.346C390.264 540.895 390.756 541.292 391.306 541.233L391.092 539.245ZM401.33 539.769C401.873 539.669 402.232 539.147 402.131 538.604C402.03 538.061 401.509 537.702 400.966 537.803L401.33 539.769ZM410.717 535.613C410.183 535.755 409.864 536.302 410.005 536.836C410.146 537.37 410.694 537.688 411.228 537.547L410.717 535.613ZM420.939 534.594C421.461 534.415 421.739 533.846 421.559 533.323C421.379 532.801 420.81 532.523 420.288 532.703L420.939 534.594ZM429.59 529.135C429.081 529.35 428.843 529.937 429.059 530.445C429.274 530.954 429.861 531.192 430.369 530.976L429.59 529.135ZM439.551 526.728C440.045 526.48 440.244 525.879 439.996 525.385C439.748 524.892 439.147 524.693 438.654 524.941L439.551 526.728ZM447.491 520.158C447.014 520.436 446.851 521.047 447.128 521.525C447.405 522.003 448.017 522.165 448.495 521.888L447.491 520.158ZM457.08 516.582C457.542 516.279 457.67 515.659 457.367 515.197C457.064 514.736 456.444 514.607 455.983 514.91L457.08 516.582ZM464.186 509.224C463.74 509.55 463.643 510.175 463.968 510.622C464.294 511.068 464.919 511.165 465.366 510.84L464.186 509.224ZM473.448 504.645C473.878 504.299 473.947 503.67 473.602 503.239C473.256 502.808 472.626 502.739 472.196 503.085L473.448 504.645ZM479.833 496.688C479.417 497.051 479.374 497.682 479.737 498.099C480.1 498.515 480.732 498.558 481.148 498.195L479.833 496.688ZM488.767 491.35C489.176 490.979 489.208 490.347 488.837 489.937C488.466 489.528 487.833 489.497 487.424 489.868L488.767 491.35ZM494.928 483.077C494.519 483.447 494.487 484.08 494.857 484.489C495.227 484.899 495.86 484.931 496.269 484.561L494.928 483.077ZM503.724 477.835C504.134 477.466 504.167 476.833 503.797 476.423C503.428 476.013 502.795 475.98 502.385 476.349L503.724 477.835ZM509.842 469.644C509.431 470.013 509.397 470.645 509.766 471.056C510.135 471.467 510.767 471.501 511.178 471.132L509.842 469.644ZM518.728 464.367C519.14 463.999 519.175 463.367 518.807 462.955C518.438 462.543 517.806 462.508 517.395 462.876L518.728 464.367ZM524.9 456.178C524.487 456.545 524.451 457.177 524.818 457.59C525.185 458.002 525.817 458.039 526.23 457.671L524.9 456.178ZM533.699 451.033C534.113 450.666 534.151 450.034 533.784 449.621C533.418 449.208 532.786 449.17 532.372 449.536L533.699 451.033ZM539.979 442.807C539.565 443.172 539.525 443.804 539.891 444.218C540.256 444.632 540.888 444.672 541.302 444.306L539.979 442.807ZM548.857 437.655C549.272 437.291 549.313 436.659 548.949 436.244C548.585 435.829 547.953 435.788 547.538 436.153L548.857 437.655ZM555.05 429.574C554.634 429.938 554.591 430.569 554.954 430.985C555.318 431.401 555.949 431.444 556.365 431.081L555.05 429.574ZM564.024 424.412C564.441 424.05 564.486 423.419 564.124 423.002C563.762 422.585 563.13 422.54 562.713 422.902L564.024 424.412ZM570.332 416.309C569.914 416.67 569.867 417.301 570.228 417.72C570.589 418.138 571.22 418.185 571.639 417.824L570.332 416.309ZM579.206 411.318C579.626 410.959 579.674 410.328 579.315 409.908C578.956 409.489 578.324 409.44 577.905 409.799L579.206 411.318ZM585.633 403.203C585.212 403.561 585.161 404.192 585.519 404.612C585.877 405.033 586.508 405.084 586.929 404.726L585.633 403.203ZM594.609 398.22C595.031 397.864 595.084 397.233 594.728 396.811C594.372 396.389 593.741 396.335 593.319 396.691L594.609 398.22ZM600.969 390.262C600.546 390.616 600.49 391.247 600.844 391.671C601.199 392.094 601.829 392.15 602.253 391.796L600.969 390.262ZM610.052 385.297C610.477 384.944 610.536 384.314 610.183 383.889C609.831 383.464 609.2 383.405 608.775 383.758L610.052 385.297ZM616.536 377.351C616.109 377.701 616.047 378.332 616.398 378.758C616.748 379.185 617.378 379.247 617.805 378.896L616.536 377.351ZM625.556 372.559C625.985 372.211 626.049 371.581 625.701 371.152C625.352 370.724 624.723 370.659 624.294 371.008L625.556 372.559ZM632.182 364.626C631.752 364.972 631.683 365.602 632.03 366.032C632.376 366.462 633.005 366.53 633.436 366.184L632.182 364.626ZM641.27 359.916C641.702 359.572 641.774 358.943 641.43 358.511C641.086 358.079 640.457 358.007 640.025 358.351L641.27 359.916ZM647.919 352.108C647.485 352.45 647.409 353.078 647.75 353.513C648.092 353.947 648.72 354.022 649.155 353.681L647.919 352.108ZM657.122 347.46C657.559 347.121 657.638 346.493 657.3 346.057C656.961 345.62 656.333 345.541 655.897 345.879L657.122 347.46ZM663.831 339.767C663.392 340.102 663.309 340.73 663.644 341.169C663.98 341.607 664.607 341.691 665.046 341.355L663.831 339.767ZM673.094 335.243C673.535 334.911 673.623 334.284 673.29 333.843C672.958 333.402 672.331 333.314 671.89 333.646L673.094 335.243ZM679.967 327.605C679.523 327.934 679.431 328.56 679.76 329.004C680.089 329.447 680.715 329.54 681.159 329.211L679.967 327.605ZM689.208 323.287C689.654 322.961 689.752 322.336 689.426 321.89C689.101 321.444 688.475 321.346 688.029 321.671L689.208 323.287ZM696.257 315.72C695.808 316.042 695.705 316.667 696.026 317.116C696.348 317.565 696.973 317.668 697.422 317.346L696.257 315.72ZM705.594 311.543C706.046 311.225 706.154 310.601 705.837 310.15C705.519 309.698 704.895 309.589 704.443 309.907L705.594 311.543ZM712.726 304.14C712.271 304.454 712.156 305.076 712.47 305.531C712.783 305.986 713.406 306.1 713.861 305.787L712.726 304.14ZM722.189 300.109C722.647 299.8 722.768 299.178 722.459 298.72C722.15 298.263 721.529 298.142 721.071 298.45L722.189 300.109ZM729.401 292.896C728.94 293.2 728.812 293.82 729.116 294.281C729.42 294.743 730.041 294.87 730.502 294.566L729.401 292.896ZM738.993 289.039C739.457 288.74 739.592 288.121 739.293 287.657C738.994 287.192 738.376 287.058 737.911 287.356L738.993 289.039ZM746.385 281.98C745.917 282.273 745.775 282.89 746.068 283.358C746.361 283.826 746.978 283.968 747.446 283.675L746.385 281.98ZM756.031 278.375C756.503 278.088 756.653 277.473 756.365 277.001C756.078 276.529 755.463 276.38 754.991 276.667L756.031 278.375ZM763.638 271.483C763.162 271.764 763.004 272.377 763.285 272.853C763.566 273.329 764.179 273.487 764.654 273.206L763.638 271.483ZM773.33 268.166C773.809 267.892 773.976 267.281 773.702 266.802C773.428 266.322 772.817 266.156 772.338 266.43L773.33 268.166ZM781.161 261.475C780.677 261.742 780.502 262.35 780.768 262.834C781.035 263.317 781.643 263.493 782.127 263.226L781.161 261.475ZM790.913 258.469C791.401 258.21 791.586 257.604 791.327 257.117C791.068 256.629 790.463 256.443 789.975 256.703L790.913 258.469ZM798.977 252.016C798.485 252.267 798.29 252.869 798.541 253.361C798.792 253.853 799.394 254.048 799.886 253.797L798.977 252.016ZM808.831 249.334C809.327 249.092 809.533 248.493 809.291 247.997C809.049 247.5 808.45 247.294 807.954 247.537L808.831 249.334ZM817.106 243.175C816.605 243.408 816.388 244.003 816.621 244.503C816.854 245.004 817.449 245.221 817.949 244.988L817.106 243.175ZM827.073 240.852C827.579 240.629 827.807 240.038 827.584 239.533C827.361 239.028 826.771 238.799 826.265 239.022L827.073 240.852ZM835.56 235.031C835.05 235.244 834.81 235.829 835.022 236.339C835.235 236.849 835.82 237.09 836.33 236.877L835.56 235.031ZM845.629 233.114C846.144 232.912 846.397 232.332 846.195 231.818C845.994 231.304 845.414 231.05 844.899 231.252L845.629 233.114ZM854.345 227.671C853.826 227.86 853.56 228.435 853.75 228.953C853.94 229.472 854.514 229.739 855.033 229.549L854.345 227.671ZM864.5 226.208C865.023 226.03 865.303 225.462 865.125 224.939C864.948 224.416 864.38 224.136 863.857 224.314L864.5 226.208ZM873.455 221.186C872.928 221.35 872.634 221.911 872.799 222.438C872.963 222.965 873.524 223.259 874.051 223.095L873.455 221.186ZM883.675 220.225C884.206 220.074 884.514 219.521 884.363 218.99C884.212 218.458 883.659 218.15 883.128 218.301L883.675 220.225ZM892.873 215.671C892.338 215.808 892.015 216.353 892.152 216.888C892.289 217.423 892.833 217.746 893.368 217.609L892.873 215.671ZM903.13 215.258C903.669 215.136 904.007 214.601 903.885 214.062C903.763 213.523 903.228 213.185 902.689 213.307L903.13 215.258ZM912.566 211.22C912.024 211.327 911.671 211.852 911.777 212.394C911.884 212.936 912.409 213.289 912.951 213.183L912.566 211.22ZM922.83 211.393C923.375 211.303 923.743 210.788 923.653 210.243C923.562 209.698 923.047 209.33 922.502 209.42L922.83 211.393ZM932.486 207.917C931.939 207.991 931.555 208.495 931.629 209.042C931.703 209.589 932.207 209.973 932.754 209.899L932.486 207.917ZM942.721 208.708C943.27 208.651 943.669 208.159 943.612 207.61C943.555 207.06 943.064 206.661 942.514 206.719L942.721 208.708ZM952.571 205.832C952.021 205.872 951.606 206.35 951.646 206.901C951.686 207.452 952.165 207.866 952.716 207.826L952.571 205.832ZM962.739 207.26C963.291 207.237 963.72 206.772 963.697 206.22C963.675 205.668 963.209 205.239 962.657 205.261L962.739 207.26ZM972.748 205.012C972.196 205.017 971.752 205.469 971.757 206.021C971.762 206.573 972.213 207.017 972.766 207.012L972.748 205.012ZM982.808 207.085C983.36 207.098 983.818 206.66 983.831 206.108C983.844 205.556 983.407 205.098 982.855 205.085L982.808 207.085ZM992.935 205.481C992.384 205.45 991.912 205.873 991.882 206.424C991.851 206.976 992.274 207.447 992.825 207.478L992.935 205.481ZM1002.85 208.191C1003.4 208.239 1003.88 207.832 1003.93 207.282C1003.98 206.732 1003.57 206.247 1003.02 206.199L1002.85 208.191ZM1013.05 207.232C1012.5 207.167 1012.01 207.559 1011.94 208.107C1011.88 208.656 1012.27 209.153 1012.82 209.218L1013.05 207.232ZM1022.78 210.561C1023.33 210.643 1023.84 210.267 1023.92 209.72C1024 209.174 1023.62 208.665 1023.08 208.583L1022.78 210.561ZM1033.02 210.234C1032.47 210.135 1031.95 210.496 1031.86 211.039C1031.76 211.582 1032.12 212.103 1032.66 212.202L1033.02 210.234ZM1042.53 214.147C1043.07 214.262 1043.6 213.917 1043.71 213.377C1043.83 212.837 1043.48 212.306 1042.94 212.191L1042.53 214.147ZM1052.77 214.429C1052.23 214.299 1051.69 214.628 1051.56 215.165C1051.43 215.702 1051.76 216.242 1052.3 216.373L1052.77 214.429ZM1062.03 218.886C1062.56 219.031 1063.11 218.717 1063.26 218.184C1063.4 217.652 1063.09 217.102 1062.56 216.956L1062.03 218.886ZM1072.25 219.746C1071.72 219.586 1071.16 219.885 1071 220.414C1070.84 220.942 1071.14 221.501 1071.67 221.661L1072.25 219.746ZM1081.24 224.696C1081.76 224.87 1082.33 224.586 1082.5 224.062C1082.68 223.538 1082.39 222.972 1081.87 222.798L1081.24 224.696ZM1091.42 226.103C1090.9 225.916 1090.33 226.185 1090.14 226.705C1089.96 227.224 1090.23 227.797 1090.74 227.984L1091.42 226.103ZM1100.12 231.493C1100.64 231.693 1101.22 231.438 1101.42 230.923C1101.62 230.408 1101.36 229.828 1100.85 229.629L1100.12 231.493ZM1110.27 233.413C1109.76 233.201 1109.17 233.443 1108.96 233.953C1108.75 234.463 1108.99 235.048 1109.5 235.26L1110.27 233.413ZM1118.67 239.19C1119.17 239.413 1119.76 239.184 1119.99 238.679C1120.21 238.174 1119.98 237.583 1119.48 237.36L1118.67 239.19ZM1128.74 241.576C1128.24 241.341 1127.65 241.557 1127.41 242.057C1127.18 242.557 1127.39 243.153 1127.89 243.387L1128.74 241.576ZM1136.87 247.704C1137.37 247.948 1137.97 247.745 1138.21 247.249C1138.46 246.754 1138.25 246.154 1137.76 245.91L1136.87 247.704ZM1146.79 250.478C1146.3 250.224 1145.7 250.416 1145.44 250.906C1145.19 251.396 1145.38 252 1145.87 252.254L1146.79 250.478ZM1154.61 257.532C1155.06 257.844 1155.69 257.727 1156 257.271C1156.31 256.815 1156.19 256.193 1155.74 255.881L1154.61 257.532ZM1164.19 261.589C1163.73 261.282 1163.11 261.406 1162.8 261.866C1162.5 262.325 1162.62 262.946 1163.08 263.252L1164.19 261.589ZM1171.68 268.915C1172.15 269.216 1172.76 269.084 1173.07 268.621C1173.37 268.157 1173.23 267.538 1172.77 267.237L1171.68 268.915ZM1181.29 272.686C1180.82 272.392 1180.2 272.532 1179.91 272.999C1179.61 273.466 1179.75 274.084 1180.22 274.378L1181.29 272.686ZM1189.03 279.839C1189.51 280.127 1190.12 279.977 1190.41 279.505C1190.7 279.034 1190.55 278.418 1190.07 278.131L1189.03 279.839ZM1198.81 283.354C1198.34 283.075 1197.72 283.235 1197.45 283.712C1197.17 284.188 1197.33 284.801 1197.8 285.08L1198.81 283.354ZM1206.67 290.167C1207.15 290.437 1207.76 290.266 1208.03 289.784C1208.3 289.303 1208.13 288.693 1207.65 288.423L1206.67 290.167ZM1216.67 293.358C1216.18 293.098 1215.58 293.283 1215.32 293.77C1215.06 294.257 1215.24 294.863 1215.73 295.123L1216.67 293.358ZM1224.83 299.832C1225.32 300.08 1225.92 299.881 1226.17 299.387C1226.42 298.893 1226.22 298.292 1225.72 298.045L1224.83 299.832ZM1234.85 302.473C1234.35 302.239 1233.75 302.454 1233.52 302.955C1233.28 303.455 1233.5 304.05 1234 304.284L1234.85 302.473ZM1243.39 308.503C1243.9 308.721 1244.49 308.486 1244.7 307.979C1244.92 307.471 1244.69 306.883 1244.18 306.665L1243.39 308.503ZM1253.65 310.537C1253.14 310.337 1252.56 310.593 1252.36 311.108C1252.16 311.624 1252.42 312.203 1252.93 312.402L1253.65 310.537ZM1262.6 315.914C1263.12 316.091 1263.69 315.811 1263.87 315.288C1264.05 314.765 1263.77 314.197 1263.24 314.02L1262.6 315.914ZM1272.97 317.055C1272.43 316.904 1271.88 317.212 1271.73 317.743C1271.58 318.274 1271.89 318.827 1272.42 318.978L1272.97 317.055ZM1282.39 321.517C1282.93 321.637 1283.46 321.298 1283.58 320.759C1283.7 320.22 1283.36 319.685 1282.82 319.565L1282.39 321.517ZM1292.81 321.459C1292.26 321.374 1291.75 321.748 1291.66 322.294C1291.58 322.84 1291.95 323.351 1292.5 323.435L1292.81 321.459ZM1302.72 324.632C1303.27 324.675 1303.75 324.263 1303.8 323.712C1303.84 323.162 1303.43 322.681 1302.88 322.638L1302.72 324.632ZM1312.99 323.002C1312.44 323.006 1312 323.457 1312 324.01C1312 324.562 1312.45 325.006 1313.01 325.002L1312.99 323.002ZM1323.34 324.452C1323.89 324.397 1324.29 323.907 1324.24 323.357C1324.18 322.808 1323.69 322.407 1323.14 322.462L1323.34 324.452ZM1333.17 320.965C1332.63 321.073 1332.28 321.599 1332.38 322.141C1332.49 322.682 1333.02 323.034 1333.56 322.926L1333.17 320.965ZM1343.57 320.424C1344.1 320.265 1344.4 319.707 1344.24 319.178C1344.08 318.65 1343.52 318.35 1342.99 318.509L1343.57 320.424ZM1352.56 315.145C1352.05 315.351 1351.8 315.934 1352.01 316.446C1352.22 316.959 1352.8 317.207 1353.31 317.001L1352.56 315.145ZM1362.71 312.768C1363.21 312.522 1363.41 311.922 1363.16 311.427C1362.92 310.933 1362.32 310.731 1361.82 310.978L1362.71 312.768ZM1370.77 306.127C1370.29 306.405 1370.13 307.018 1370.41 307.495C1370.69 307.971 1371.3 308.132 1371.78 307.853L1370.77 306.127ZM1380.5 302.413C1380.96 302.108 1381.09 301.488 1380.78 301.027C1380.48 300.566 1379.86 300.44 1379.4 300.744L1380.5 302.413ZM1387.77 294.938C1387.33 295.262 1387.23 295.887 1387.55 296.335C1387.87 296.782 1388.5 296.883 1388.95 296.559L1387.77 294.938ZM1397.17 290.398C1397.61 290.06 1397.69 289.432 1397.35 288.995C1397.02 288.558 1396.39 288.477 1395.95 288.815L1397.17 290.398ZM1403.98 282.466C1403.55 282.813 1403.48 283.442 1403.83 283.872C1404.17 284.302 1404.8 284.369 1405.23 284.022L1403.98 282.466ZM1413.15 277.531C1413.58 277.178 1413.63 276.548 1413.28 276.123C1412.93 275.698 1412.3 275.639 1411.87 275.992L1413.15 277.531ZM1419.72 269.433C1419.29 269.788 1419.24 270.419 1419.6 270.842C1419.95 271.265 1420.58 271.319 1421 270.964L1419.72 269.433ZM1428.83 264.372C1429.26 264.016 1429.31 263.386 1428.96 262.963C1428.6 262.54 1427.97 262.486 1427.55 262.842L1428.83 264.372ZM1435.4 256.263C1434.97 256.616 1434.92 257.247 1435.27 257.671C1435.62 258.095 1436.25 258.153 1436.68 257.799L1435.4 256.263ZM-0.732133 254.422C0.427075 255.668 1.5838 256.911 2.73807 258.151L4.20184 256.788C3.04774 255.548 1.89118 254.306 0.732133 253.06L-0.732133 254.422ZM9.6342 265.552C11.9231 268.006 14.2023 270.448 16.4718 272.876L17.9332 271.511C15.6641 269.083 13.3854 266.641 11.0968 264.187L9.6342 265.552ZM23.3559 280.236C25.6714 282.709 27.9768 285.167 30.2722 287.612L31.7303 286.244C29.4355 283.799 27.1307 281.341 24.8157 278.869L23.3559 280.236ZM37.1286 294.906C39.4486 297.37 41.7583 299.819 44.0578 302.254L45.5118 300.881C43.213 298.447 40.9041 295.998 38.5848 293.535L37.1286 294.906ZM50.9979 309.59C53.301 312.019 55.5939 314.434 57.8767 316.833L59.3256 315.455C57.0437 313.056 54.7517 310.643 52.4494 308.214L50.9979 309.59ZM64.8747 324.172C67.2078 326.613 69.5303 329.038 71.8424 331.446L73.285 330.06C70.974 327.654 68.6526 325.23 66.3206 322.79L64.8747 324.172ZM78.7765 338.648C81.1422 341.099 83.4969 343.532 85.8409 345.946L87.2759 344.553C84.9333 342.14 82.5799 339.709 80.2154 337.259L78.7765 338.648ZM92.8405 353.133C95.2021 355.551 97.5527 357.949 99.8925 360.327L101.318 358.925C98.9802 356.548 96.6312 354.151 94.271 351.736L92.8405 353.133ZM106.995 367.521C109.351 369.898 111.697 372.255 114.031 374.592L115.446 373.178C113.113 370.844 110.77 368.488 108.415 366.113L106.995 367.521ZM121.234 381.769C123.627 384.143 126.009 386.495 128.38 388.824L129.781 387.397C127.413 385.07 125.034 382.721 122.643 380.349L121.234 381.769ZM135.585 395.866C138.018 398.231 140.44 400.572 142.849 402.888L144.235 401.446C141.828 399.133 139.41 396.795 136.979 394.432L135.585 395.866ZM150.078 409.793C152.554 412.144 155.018 414.468 157.471 416.764L158.838 415.305C156.389 413.011 153.928 410.691 151.455 408.343L150.078 409.793ZM164.791 423.57C167.299 425.885 169.795 428.17 172.278 430.425L173.622 428.944C171.143 426.693 168.652 424.412 166.147 422.101L164.791 423.57ZM179.735 437.139C182.273 439.404 184.798 441.636 187.31 443.835L188.627 442.33C186.12 440.135 183.6 437.907 181.067 435.647L179.735 437.139ZM194.915 450.424C197.493 452.635 200.058 454.809 202.61 456.947L203.894 455.414C201.348 453.281 198.789 451.111 196.217 448.906L194.915 450.424ZM210.374 463.372C213.005 465.522 215.622 467.631 218.226 469.7L219.47 468.134C216.874 466.071 214.264 463.967 211.64 461.824L210.374 463.372ZM226.161 475.912C228.857 477.99 231.54 480.023 234.208 482.011L235.403 480.407C232.744 478.426 230.07 476.399 227.382 474.327L226.161 475.912ZM242.326 487.947C245.103 489.939 247.865 491.88 250.613 493.77L251.746 492.122C249.01 490.24 246.258 488.307 243.492 486.322L242.326 487.947ZM258.924 499.355C261.796 501.24 264.653 503.066 267.495 504.832L268.551 503.134C265.723 501.376 262.88 499.559 260.021 497.683L258.924 499.355ZM276.092 510.022C279.045 511.75 281.983 513.413 284.906 515.008L285.864 513.252C282.959 511.667 280.039 510.014 277.102 508.296L276.092 510.022ZM293.861 519.707C296.89 521.232 299.902 522.682 302.901 524.056L303.734 522.238C300.759 520.874 297.768 519.435 294.761 517.921L293.861 519.707ZM312.231 528.107C315.394 529.402 318.542 530.61 321.674 531.729L322.347 529.845C319.244 528.737 316.125 527.54 312.989 526.256L312.231 528.107ZM331.238 534.882C334.517 535.872 337.78 536.761 341.028 537.547L341.499 535.603C338.288 534.826 335.06 533.947 331.816 532.968L331.238 534.882ZM350.949 539.638C354.3 540.238 357.637 540.725 360.96 541.097L361.183 539.11C357.904 538.742 354.611 538.261 351.302 537.669L350.949 539.638ZM371.047 541.877C374.442 542.019 377.824 542.039 381.194 541.933L381.131 539.934C377.811 540.038 374.477 540.019 371.13 539.879L371.047 541.877ZM391.306 541.233C394.658 540.873 397.999 540.386 401.33 539.769L400.966 537.803C397.684 538.41 394.394 538.89 391.092 539.245L391.306 541.233ZM411.228 537.547C414.473 536.689 417.709 535.706 420.939 534.594L420.288 532.703C417.104 533.799 413.914 534.768 410.717 535.613L411.228 537.547ZM430.369 530.976C433.435 529.678 436.496 528.262 439.551 526.728L438.654 524.941C435.636 526.456 432.615 527.854 429.59 529.135L430.369 530.976ZM448.495 521.888C451.36 520.226 454.221 518.458 457.08 516.582L455.983 514.91C453.153 516.766 450.323 518.515 447.491 520.158L448.495 521.888ZM465.366 510.84C468.061 508.872 470.755 506.807 473.448 504.645L472.196 503.085C469.525 505.229 466.856 507.275 464.186 509.224L465.366 510.84ZM481.148 498.195C482.431 497.075 483.714 495.933 484.998 494.768L483.654 493.287C482.38 494.443 481.106 495.577 479.833 496.688L481.148 498.195ZM484.998 494.768C486.256 493.626 487.513 492.487 488.767 491.35L487.424 489.868C486.169 491.005 484.913 492.145 483.654 493.287L484.998 494.768ZM496.269 484.561C498.762 482.308 501.247 480.066 503.724 477.835L502.385 476.349C499.907 478.581 497.422 480.824 494.928 483.077L496.269 484.561ZM511.178 471.132C513.703 468.865 516.219 466.61 518.728 464.367L517.395 462.876C514.885 465.121 512.368 467.376 509.842 469.644L511.178 471.132ZM526.23 457.671C528.727 455.447 531.217 453.234 533.699 451.033L532.372 449.536C529.889 451.738 527.398 453.952 524.9 456.178L526.23 457.671ZM541.302 444.306C543.829 442.077 546.347 439.86 548.857 437.655L547.538 436.153C545.026 438.358 542.506 440.576 539.979 442.807L541.302 444.306ZM556.365 431.081C558.926 428.844 561.479 426.622 564.024 424.412L562.713 422.902C560.167 425.113 557.612 427.337 555.05 429.574L556.365 431.081ZM571.639 417.824C574.169 415.641 576.691 413.473 579.206 411.318L577.905 409.799C575.388 411.955 572.864 414.125 570.332 416.309L571.639 417.824ZM586.929 404.726C589.496 402.542 592.056 400.374 594.609 398.22L593.319 396.691C590.764 398.847 588.203 401.017 585.633 403.203L586.929 404.726ZM602.253 391.796C604.86 389.613 607.46 387.447 610.052 385.297L608.775 383.758C606.181 385.909 603.579 388.078 600.969 390.262L602.253 391.796ZM617.805 378.896C620.396 376.767 622.98 374.655 625.556 372.559L624.294 371.008C621.715 373.105 619.129 375.22 616.536 377.351L617.805 378.896ZM633.436 366.184C636.054 364.077 638.666 361.987 641.27 359.916L640.025 358.351C637.418 360.425 634.803 362.516 632.182 364.626L633.436 366.184ZM649.155 353.681C651.818 351.588 654.474 349.514 657.122 347.46L655.897 345.879C653.245 347.936 650.585 350.013 647.919 352.108L649.155 353.681ZM665.046 341.355C667.736 339.297 670.418 337.26 673.094 335.243L671.89 333.646C669.211 335.666 666.524 337.706 663.831 339.767L665.046 341.355ZM681.159 329.211C683.849 327.215 686.532 325.24 689.208 323.287L688.029 321.671C685.349 323.628 682.661 325.606 679.967 327.605L681.159 329.211ZM697.422 317.346C700.153 315.388 702.877 313.454 705.594 311.543L704.443 309.907C701.721 311.822 698.992 313.76 696.257 315.72L697.422 317.346ZM713.861 305.787C716.643 303.869 719.419 301.976 722.189 300.109L721.071 298.45C718.295 300.322 715.514 302.219 712.726 304.14L713.861 305.787ZM730.502 294.566C733.338 292.697 736.169 290.854 738.993 289.039L737.911 287.356C735.081 289.176 732.244 291.023 729.401 292.896L730.502 294.566ZM747.446 283.675C750.314 281.88 753.175 280.113 756.031 278.375L754.991 276.667C752.128 278.409 749.26 280.18 746.385 281.98L747.446 283.675ZM764.654 273.206C767.552 271.495 770.443 269.816 773.33 268.166L772.338 266.43C769.443 268.084 766.543 269.768 763.638 271.483L764.654 273.206ZM782.127 263.226C785.061 261.608 787.989 260.022 790.913 258.469L789.975 256.703C787.042 258.261 784.104 259.852 781.161 261.475L782.127 263.226ZM799.886 253.797C802.872 252.275 805.854 250.787 808.831 249.334L807.954 247.537C804.966 248.995 801.974 250.488 798.977 252.016L799.886 253.797ZM817.949 244.988C820.995 243.572 824.036 242.193 827.073 240.852L826.265 239.022C823.216 240.369 820.163 241.753 817.106 243.175L817.949 244.988ZM836.33 236.877C839.433 235.583 842.533 234.328 845.629 233.114L844.899 231.252C841.789 232.471 838.676 233.731 835.56 235.031L836.33 236.877ZM855.033 229.549C858.191 228.392 861.346 227.279 864.5 226.208L863.857 224.314C860.688 225.39 857.517 226.509 854.345 227.671L855.033 229.549ZM874.051 223.095C877.26 222.093 880.468 221.136 883.675 220.225L883.128 218.301C879.904 219.217 876.68 220.179 873.455 221.186L874.051 223.095ZM893.368 217.609C896.622 216.778 899.876 215.994 903.13 215.258L902.689 213.307C899.417 214.047 896.145 214.835 892.873 215.671L893.368 217.609ZM912.951 213.183C916.243 212.537 919.536 211.94 922.83 211.393L922.502 209.42C919.189 209.97 915.877 210.57 912.566 211.22L912.951 213.183ZM932.754 209.899C936.074 209.451 939.396 209.053 942.721 208.708L942.514 206.719C939.169 207.066 935.826 207.466 932.486 207.917L932.754 209.899ZM952.716 207.826C956.053 207.585 959.394 207.396 962.739 207.26L962.657 205.261C959.292 205.398 955.93 205.589 952.571 205.832L952.716 207.826ZM972.766 207.012C976.108 206.983 979.456 207.007 982.808 207.085L982.855 205.085C979.481 205.007 976.112 204.983 972.748 205.012L972.766 207.012ZM992.825 207.478C996.161 207.662 999.501 207.9 1002.85 208.191L1003.02 206.199C999.654 205.905 996.292 205.666 992.935 205.481L992.825 207.478ZM1012.82 209.218C1016.13 209.612 1019.45 210.06 1022.78 210.561L1023.08 208.583C1019.73 208.079 1016.39 207.629 1013.05 207.232L1012.82 209.218ZM1032.66 212.202C1035.94 212.798 1039.23 213.446 1042.53 214.147L1042.94 212.191C1039.63 211.486 1036.32 210.834 1033.02 210.234L1032.66 212.202ZM1052.3 216.373C1055.53 217.159 1058.78 217.997 1062.03 218.886L1062.56 216.956C1059.29 216.063 1056.02 215.221 1052.77 214.429L1052.3 216.373ZM1071.67 221.661C1074.85 222.624 1078.04 223.635 1081.24 224.696L1081.87 222.798C1078.65 221.732 1075.45 220.714 1072.25 219.746L1071.67 221.661ZM1090.74 227.984C1093.86 229.107 1096.99 230.277 1100.12 231.493L1100.85 229.629C1097.7 228.406 1094.56 227.231 1091.42 226.103L1090.74 227.984ZM1109.5 235.26C1112.55 236.525 1115.6 237.835 1118.67 239.19L1119.48 237.36C1116.4 236 1113.33 234.684 1110.27 233.413L1109.5 235.26ZM1127.89 243.387C1130.88 244.784 1133.87 246.222 1136.87 247.704L1137.76 245.91C1134.74 244.423 1131.74 242.978 1128.74 241.576L1127.89 243.387ZM1145.87 252.254C1147.37 253.034 1148.88 253.824 1150.39 254.624L1151.33 252.858C1149.81 252.054 1148.3 251.261 1146.79 250.478L1145.87 252.254ZM1150.29 254.564C1151.74 255.565 1153.18 256.555 1154.61 257.532L1155.74 255.881C1154.31 254.906 1152.87 253.918 1151.43 252.918L1150.29 254.564ZM1163.08 263.252C1165.99 265.192 1168.85 267.079 1171.68 268.915L1172.77 267.237C1169.95 265.406 1167.09 263.523 1164.19 261.589L1163.08 263.252ZM1180.22 274.378C1183.2 276.257 1186.14 278.077 1189.03 279.839L1190.07 278.131C1187.19 276.375 1184.26 274.56 1181.29 272.686L1180.22 274.378ZM1197.8 285.08C1200.81 286.84 1203.76 288.536 1206.67 290.167L1207.65 288.423C1204.75 286.798 1201.81 285.109 1198.81 283.354L1197.8 285.08ZM1215.73 295.123C1218.82 296.767 1221.85 298.336 1224.83 299.832L1225.72 298.045C1222.76 296.556 1219.74 294.995 1216.67 293.358L1215.73 295.123ZM1234 304.284C1237.19 305.778 1240.32 307.183 1243.39 308.503L1244.18 306.665C1241.13 305.354 1238.02 303.958 1234.85 302.473L1234 304.284ZM1252.93 312.402C1256.22 313.675 1259.45 314.845 1262.6 315.914L1263.24 314.02C1260.11 312.96 1256.92 311.8 1253.65 310.537L1252.93 312.402ZM1272.42 318.978C1275.82 319.946 1279.14 320.79 1282.39 321.517L1282.82 319.565C1279.62 318.847 1276.33 318.012 1272.97 317.055L1272.42 318.978ZM1292.5 323.435C1295.99 323.976 1299.4 324.372 1302.72 324.632L1302.88 322.638C1299.6 322.383 1296.25 321.992 1292.81 321.459L1292.5 323.435ZM1313.01 325.002C1316.54 324.977 1319.98 324.79 1323.34 324.452L1323.14 322.462C1319.84 322.794 1316.46 322.977 1312.99 323.002L1313.01 325.002ZM1333.56 322.926C1336.97 322.247 1340.3 321.409 1343.57 320.424L1342.99 318.509C1339.78 319.476 1336.51 320.298 1333.17 320.965L1333.56 322.926ZM1353.31 317.001C1356.49 315.723 1359.62 314.308 1362.71 312.768L1361.82 310.978C1358.77 312.495 1355.69 313.888 1352.56 315.145L1353.31 317.001ZM1371.78 307.853C1374.71 306.141 1377.61 304.324 1380.5 302.413L1379.4 300.744C1376.53 302.638 1373.66 304.435 1370.77 306.127L1371.78 307.853ZM1388.95 296.559C1391.68 294.578 1394.42 292.522 1397.17 290.398L1395.95 288.815C1393.21 290.928 1390.49 292.972 1387.77 294.938L1388.95 296.559ZM1405.23 284.022C1407.85 281.908 1410.49 279.742 1413.15 277.531L1411.87 275.992C1409.21 278.199 1406.59 280.359 1403.98 282.466L1405.23 284.022ZM1421 270.964C1423.58 268.799 1426.19 266.598 1428.83 264.372L1427.55 262.842C1424.9 265.07 1422.29 267.267 1419.72 269.433L1421 270.964ZM1436.68 257.799C1437.99 256.708 1439.31 255.612 1440.64 254.512L1439.36 252.97C1438.03 254.072 1436.71 255.17 1435.4 256.263L1436.68 257.799Z" fill="#2BD4D9"/>
<path opacity="0.05" d="M1341.35 279.367C1328.84 253.665 1304.33 237.707 1278.94 232.895C1253.55 228.097 1227.33 233.312 1202.63 242.126C1175.72 251.734 1149.41 265.723 1121.35 267.451C1086.17 269.615 1052.27 252.029 1023.75 228.743C1008.93 216.654 995.065 202.915 979.181 192.737C963.297 182.572 944.705 176.089 926.706 180.134C887.383 188.952 865.99 242.415 827.733 256.323C809.417 262.986 789.79 259.605 770.698 258.349C751.606 257.093 730.732 258.749 716.068 273.073C696.307 292.409 695.397 327.285 702.098 355.781C713.132 402.724 744.432 446.398 786.418 453.372C808.748 457.076 831.642 450.277 854.137 452.546C862.574 453.413 870.86 455.556 878.78 458.92C879.805 459.695 880.804 460.484 881.802 461.301C904.335 479.715 921.259 506.757 945.767 521.511C946.218 521.784 946.669 522.043 947.132 522.302C949.026 523.837 950.995 525.248 953.03 526.526C964.955 534.014 978.851 536.385 992.585 535.179C996.18 535.459 999.795 535.585 1003.39 535.599C1050.93 535.714 1097.38 517.848 1135.56 484.763C1163.26 460.618 1186.25 428.664 1217.43 411.066C1244.96 395.537 1276.44 392.625 1305.16 380.358C1315.4 375.992 1325.44 370.287 1333.27 361.511C1351.84 340.705 1353.85 305.055 1341.35 279.367Z" fill="#2BD4D9"/>
<rect opacity="0.5" x="1233.95" y="283.949" width="99.9827" height="77.5477" rx="3.7977" stroke="#F0F0F0" stroke-width="1.89885"/>
<path d="M1295.33 322.723C1296.54 322.723 1297.7 323.203 1298.55 324.058C1299.4 324.912 1299.88 326.071 1299.88 327.279V340.945C1299.88 342.153 1299.4 343.312 1298.55 344.166C1297.7 345.02 1296.54 345.5 1295.33 345.5H1272.55C1271.34 345.5 1270.19 345.02 1269.33 344.166C1268.48 343.312 1268 342.153 1268 340.945V327.279C1268 326.071 1268.48 324.912 1269.33 324.058C1270.19 323.203 1271.34 322.723 1272.55 322.723V311.335C1272.55 308.315 1273.75 305.418 1275.89 303.282C1278.02 301.146 1280.92 299.947 1283.94 299.947C1286.96 299.947 1289.86 301.146 1291.99 303.282C1294.13 305.418 1295.33 308.315 1295.33 311.335V322.723ZM1283.94 338.667C1285.15 338.667 1286.31 338.187 1287.16 337.333C1288.02 336.479 1288.5 335.32 1288.5 334.112C1288.5 332.904 1288.02 331.745 1287.16 330.891C1286.31 330.037 1285.15 329.557 1283.94 329.557C1282.73 329.557 1281.57 330.037 1280.72 330.891C1279.87 331.745 1279.39 332.904 1279.39 334.112C1279.39 335.32 1279.87 336.479 1280.72 337.333C1281.57 338.187 1282.73 338.667 1283.94 338.667ZM1290.77 322.723V311.335C1290.77 309.523 1290.05 307.785 1288.77 306.503C1287.49 305.222 1285.75 304.502 1283.94 304.502C1282.13 304.502 1280.39 305.222 1279.11 306.503C1277.83 307.785 1277.11 309.523 1277.11 311.335V322.723H1290.77Z" fill="url(#paint0_linear_855_293)"/>
<rect opacity="0.5" x="1253.89" y="291.042" width="60.7536" height="58.4305" fill="white"/>
<g opacity="0.1">
<circle cx="184.58" cy="2.58013" r="2.58013" fill="#2BD4D9"/>
<circle cx="200.061" cy="2.58013" r="2.58013" fill="#2BD4D9"/>
<circle cx="215.542" cy="2.58013" r="2.58013" fill="#2BD4D9"/>
<circle cx="231.023" cy="2.58013" r="2.58013" fill="#2BD4D9"/>
<circle cx="246.503" cy="2.58013" r="2.58013" fill="#2BD4D9"/>
<circle cx="261.984" cy="2.58013" r="2.58013" fill="#2BD4D9"/>
<circle cx="277.465" cy="2.58013" r="2.58013" fill="#2BD4D9"/>
<circle cx="292.946" cy="2.58013" r="2.58013" fill="#2BD4D9"/>
<circle cx="308.426" cy="2.58013" r="2.58013" fill="#2BD4D9"/>
<circle cx="323.907" cy="2.58013" r="2.58013" fill="#2BD4D9"/>
<circle cx="339.388" cy="2.58013" r="2.58013" fill="#2BD4D9"/>
<circle cx="354.869" cy="2.58013" r="2.58013" fill="#2BD4D9"/>
<circle cx="184.58" cy="23.2212" r="2.58013" fill="#2BD4D9"/>
<circle cx="200.061" cy="23.2212" r="2.58013" fill="#2BD4D9"/>
<circle cx="215.542" cy="23.2212" r="2.58013" fill="#2BD4D9"/>
<circle cx="231.023" cy="23.2212" r="2.58013" fill="#2BD4D9"/>
<circle cx="246.503" cy="23.2212" r="2.58013" fill="#2BD4D9"/>
<circle cx="261.984" cy="23.2212" r="2.58013" fill="#2BD4D9"/>
<circle cx="277.465" cy="23.2212" r="2.58013" fill="#2BD4D9"/>
<circle cx="292.946" cy="23.2212" r="2.58013" fill="#2BD4D9"/>
<circle cx="308.426" cy="23.2212" r="2.58013" fill="#2BD4D9"/>
<circle cx="323.907" cy="23.2212" r="2.58013" fill="#2BD4D9"/>
<circle cx="339.388" cy="23.2212" r="2.58013" fill="#2BD4D9"/>
<circle cx="354.869" cy="23.2212" r="2.58013" fill="#2BD4D9"/>
<circle cx="184.58" cy="43.8621" r="2.58013" fill="#2BD4D9"/>
<circle cx="200.061" cy="43.8621" r="2.58013" fill="#2BD4D9"/>
<circle cx="215.542" cy="43.8621" r="2.58013" fill="#2BD4D9"/>
<circle cx="231.023" cy="43.8621" r="2.58013" fill="#2BD4D9"/>
<circle cx="246.503" cy="43.8621" r="2.58013" fill="#2BD4D9"/>
<circle cx="261.984" cy="43.8621" r="2.58013" fill="#2BD4D9"/>
<circle cx="277.465" cy="43.8621" r="2.58013" fill="#2BD4D9"/>
<circle cx="292.946" cy="43.8621" r="2.58013" fill="#2BD4D9"/>
<circle cx="308.426" cy="43.8621" r="2.58013" fill="#2BD4D9"/>
<circle cx="323.907" cy="43.8621" r="2.58013" fill="#2BD4D9"/>
<circle cx="339.388" cy="43.8621" r="2.58013" fill="#2BD4D9"/>
<circle cx="354.869" cy="43.8621" r="2.58013" fill="#2BD4D9"/>
<circle cx="184.58" cy="64.5032" r="2.58013" fill="#2BD4D9"/>
<circle cx="200.061" cy="64.5032" r="2.58013" fill="#2BD4D9"/>
<circle cx="215.542" cy="64.5032" r="2.58013" fill="#2BD4D9"/>
<circle cx="231.023" cy="64.5032" r="2.58013" fill="#2BD4D9"/>
<circle cx="246.503" cy="64.5032" r="2.58013" fill="#2BD4D9"/>
<circle cx="261.984" cy="64.5032" r="2.58013" fill="#2BD4D9"/>
<circle cx="277.465" cy="64.5032" r="2.58013" fill="#2BD4D9"/>
<circle cx="292.946" cy="64.5032" r="2.58013" fill="#2BD4D9"/>
<circle cx="308.426" cy="64.5032" r="2.58013" fill="#2BD4D9"/>
<circle cx="323.907" cy="64.5032" r="2.58013" fill="#2BD4D9"/>
<circle cx="339.388" cy="64.5032" r="2.58013" fill="#2BD4D9"/>
<circle cx="354.869" cy="64.5032" r="2.58013" fill="#2BD4D9"/>
<circle cx="184.58" cy="85.1443" r="2.58013" fill="#2BD4D9"/>
<circle cx="200.061" cy="85.1443" r="2.58013" fill="#2BD4D9"/>
<circle cx="215.542" cy="85.1443" r="2.58013" fill="#2BD4D9"/>
<circle cx="231.023" cy="85.1443" r="2.58013" fill="#2BD4D9"/>
<circle cx="246.503" cy="85.1443" r="2.58013" fill="#2BD4D9"/>
<circle cx="261.984" cy="85.1443" r="2.58013" fill="#2BD4D9"/>
<circle cx="277.465" cy="85.1443" r="2.58013" fill="#2BD4D9"/>
<circle cx="292.946" cy="85.1443" r="2.58013" fill="#2BD4D9"/>
<circle cx="308.426" cy="85.1443" r="2.58013" fill="#2BD4D9"/>
<circle cx="323.907" cy="85.1443" r="2.58013" fill="#2BD4D9"/>
<circle cx="339.388" cy="85.1443" r="2.58013" fill="#2BD4D9"/>
<circle cx="354.869" cy="85.1443" r="2.58013" fill="#2BD4D9"/>
<circle cx="184.58" cy="105.785" r="2.58013" fill="#2BD4D9"/>
<circle cx="200.061" cy="105.785" r="2.58013" fill="#2BD4D9"/>
<circle cx="215.542" cy="105.785" r="2.58013" fill="#2BD4D9"/>
<circle cx="231.023" cy="105.785" r="2.58013" fill="#2BD4D9"/>
<circle cx="246.503" cy="105.785" r="2.58013" fill="#2BD4D9"/>
<circle cx="261.984" cy="105.785" r="2.58013" fill="#2BD4D9"/>
<circle cx="277.465" cy="105.785" r="2.58013" fill="#2BD4D9"/>
<circle cx="292.946" cy="105.785" r="2.58013" fill="#2BD4D9"/>
<circle cx="308.426" cy="105.785" r="2.58013" fill="#2BD4D9"/>
<circle cx="323.907" cy="105.785" r="2.58013" fill="#2BD4D9"/>
<circle cx="339.388" cy="105.785" r="2.58013" fill="#2BD4D9"/>
<circle cx="354.869" cy="105.785" r="2.58013" fill="#2BD4D9"/>
<circle cx="184.58" cy="126.426" r="2.58013" fill="#2BD4D9"/>
<circle cx="200.061" cy="126.426" r="2.58013" fill="#2BD4D9"/>
<circle cx="215.542" cy="126.426" r="2.58013" fill="#2BD4D9"/>
<circle cx="231.023" cy="126.426" r="2.58013" fill="#2BD4D9"/>
<circle cx="246.503" cy="126.426" r="2.58013" fill="#2BD4D9"/>
<circle cx="261.984" cy="126.426" r="2.58013" fill="#2BD4D9"/>
<circle cx="277.465" cy="126.426" r="2.58013" fill="#2BD4D9"/>
<circle cx="292.946" cy="126.426" r="2.58013" fill="#2BD4D9"/>
<circle cx="308.426" cy="126.426" r="2.58013" fill="#2BD4D9"/>
<circle cx="323.907" cy="126.426" r="2.58013" fill="#2BD4D9"/>
<circle cx="339.388" cy="126.426" r="2.58013" fill="#2BD4D9"/>
<circle cx="354.869" cy="126.426" r="2.58013" fill="#2BD4D9"/>
<circle cx="184.58" cy="147.067" r="2.58013" fill="#2BD4D9"/>
<circle cx="200.061" cy="147.067" r="2.58013" fill="#2BD4D9"/>
<circle cx="215.542" cy="147.067" r="2.58013" fill="#2BD4D9"/>
<circle cx="231.023" cy="147.067" r="2.58013" fill="#2BD4D9"/>
<circle cx="246.503" cy="147.067" r="2.58013" fill="#2BD4D9"/>
<circle cx="261.984" cy="147.067" r="2.58013" fill="#2BD4D9"/>
<circle cx="277.465" cy="147.067" r="2.58013" fill="#2BD4D9"/>
<circle cx="292.946" cy="147.067" r="2.58013" fill="#2BD4D9"/>
<circle cx="308.426" cy="147.067" r="2.58013" fill="#2BD4D9"/>
<circle cx="323.907" cy="147.067" r="2.58013" fill="#2BD4D9"/>
<circle cx="339.388" cy="147.067" r="2.58013" fill="#2BD4D9"/>
<circle cx="354.869" cy="147.067" r="2.58013" fill="#2BD4D9"/>
</g>
<g opacity="0.1">
<circle cx="1085.58" cy="2.58013" r="2.58013" fill="#2BD4D9"/>
<circle cx="1101.06" cy="2.58013" r="2.58013" fill="#2BD4D9"/>
<circle cx="1116.54" cy="2.58013" r="2.58013" fill="#2BD4D9"/>
<circle cx="1132.02" cy="2.58013" r="2.58013" fill="#2BD4D9"/>
<circle cx="1147.5" cy="2.58013" r="2.58013" fill="#2BD4D9"/>
<circle cx="1162.98" cy="2.58013" r="2.58013" fill="#2BD4D9"/>
<circle cx="1178.46" cy="2.58013" r="2.58013" fill="#2BD4D9"/>
<circle cx="1193.95" cy="2.58013" r="2.58013" fill="#2BD4D9"/>
<circle cx="1209.43" cy="2.58013" r="2.58013" fill="#2BD4D9"/>
<circle cx="1224.91" cy="2.58013" r="2.58013" fill="#2BD4D9"/>
<circle cx="1240.39" cy="2.58013" r="2.58013" fill="#2BD4D9"/>
<circle cx="1255.87" cy="2.58013" r="2.58013" fill="#2BD4D9"/>
<circle cx="1085.58" cy="23.2212" r="2.58013" fill="#2BD4D9"/>
<circle cx="1101.06" cy="23.2212" r="2.58013" fill="#2BD4D9"/>
<circle cx="1116.54" cy="23.2212" r="2.58013" fill="#2BD4D9"/>
<circle cx="1132.02" cy="23.2212" r="2.58013" fill="#2BD4D9"/>
<circle cx="1147.5" cy="23.2212" r="2.58013" fill="#2BD4D9"/>
<circle cx="1162.98" cy="23.2212" r="2.58013" fill="#2BD4D9"/>
<circle cx="1178.46" cy="23.2212" r="2.58013" fill="#2BD4D9"/>
<circle cx="1193.95" cy="23.2212" r="2.58013" fill="#2BD4D9"/>
<circle cx="1209.43" cy="23.2212" r="2.58013" fill="#2BD4D9"/>
<circle cx="1224.91" cy="23.2212" r="2.58013" fill="#2BD4D9"/>
<circle cx="1240.39" cy="23.2212" r="2.58013" fill="#2BD4D9"/>
<circle cx="1255.87" cy="23.2212" r="2.58013" fill="#2BD4D9"/>
<circle cx="1085.58" cy="43.8621" r="2.58013" fill="#2BD4D9"/>
<circle cx="1101.06" cy="43.8621" r="2.58013" fill="#2BD4D9"/>
<circle cx="1116.54" cy="43.8621" r="2.58013" fill="#2BD4D9"/>
<circle cx="1132.02" cy="43.8621" r="2.58013" fill="#2BD4D9"/>
<circle cx="1147.5" cy="43.8621" r="2.58013" fill="#2BD4D9"/>
<circle cx="1162.98" cy="43.8621" r="2.58013" fill="#2BD4D9"/>
<circle cx="1178.46" cy="43.8621" r="2.58013" fill="#2BD4D9"/>
<circle cx="1193.95" cy="43.8621" r="2.58013" fill="#2BD4D9"/>
<circle cx="1209.43" cy="43.8621" r="2.58013" fill="#2BD4D9"/>
<circle cx="1224.91" cy="43.8621" r="2.58013" fill="#2BD4D9"/>
<circle cx="1240.39" cy="43.8621" r="2.58013" fill="#2BD4D9"/>
<circle cx="1255.87" cy="43.8621" r="2.58013" fill="#2BD4D9"/>
<circle cx="1085.58" cy="64.5032" r="2.58013" fill="#2BD4D9"/>
<circle cx="1101.06" cy="64.5032" r="2.58013" fill="#2BD4D9"/>
<circle cx="1116.54" cy="64.5032" r="2.58013" fill="#2BD4D9"/>
<circle cx="1132.02" cy="64.5032" r="2.58013" fill="#2BD4D9"/>
<circle cx="1147.5" cy="64.5032" r="2.58013" fill="#2BD4D9"/>
<circle cx="1162.98" cy="64.5032" r="2.58013" fill="#2BD4D9"/>
<circle cx="1178.46" cy="64.5032" r="2.58013" fill="#2BD4D9"/>
<circle cx="1193.95" cy="64.5032" r="2.58013" fill="#2BD4D9"/>
<circle cx="1209.43" cy="64.5032" r="2.58013" fill="#2BD4D9"/>
<circle cx="1224.91" cy="64.5032" r="2.58013" fill="#2BD4D9"/>
<circle cx="1240.39" cy="64.5032" r="2.58013" fill="#2BD4D9"/>
<circle cx="1255.87" cy="64.5032" r="2.58013" fill="#2BD4D9"/>
<circle cx="1085.58" cy="85.1443" r="2.58013" fill="#2BD4D9"/>
<circle cx="1101.06" cy="85.1443" r="2.58013" fill="#2BD4D9"/>
<circle cx="1116.54" cy="85.1443" r="2.58013" fill="#2BD4D9"/>
<circle cx="1132.02" cy="85.1443" r="2.58013" fill="#2BD4D9"/>
<circle cx="1147.5" cy="85.1443" r="2.58013" fill="#2BD4D9"/>
<circle cx="1162.98" cy="85.1443" r="2.58013" fill="#2BD4D9"/>
<circle cx="1178.46" cy="85.1443" r="2.58013" fill="#2BD4D9"/>
<circle cx="1193.95" cy="85.1443" r="2.58013" fill="#2BD4D9"/>
<circle cx="1209.43" cy="85.1443" r="2.58013" fill="#2BD4D9"/>
<circle cx="1224.91" cy="85.1443" r="2.58013" fill="#2BD4D9"/>
<circle cx="1240.39" cy="85.1443" r="2.58013" fill="#2BD4D9"/>
<circle cx="1255.87" cy="85.1443" r="2.58013" fill="#2BD4D9"/>
<circle cx="1085.58" cy="105.785" r="2.58013" fill="#2BD4D9"/>
<circle cx="1101.06" cy="105.785" r="2.58013" fill="#2BD4D9"/>
<circle cx="1116.54" cy="105.785" r="2.58013" fill="#2BD4D9"/>
<circle cx="1132.02" cy="105.785" r="2.58013" fill="#2BD4D9"/>
<circle cx="1147.5" cy="105.785" r="2.58013" fill="#2BD4D9"/>
<circle cx="1162.98" cy="105.785" r="2.58013" fill="#2BD4D9"/>
<circle cx="1178.46" cy="105.785" r="2.58013" fill="#2BD4D9"/>
<circle cx="1193.95" cy="105.785" r="2.58013" fill="#2BD4D9"/>
<circle cx="1209.43" cy="105.785" r="2.58013" fill="#2BD4D9"/>
<circle cx="1224.91" cy="105.785" r="2.58013" fill="#2BD4D9"/>
<circle cx="1240.39" cy="105.785" r="2.58013" fill="#2BD4D9"/>
<circle cx="1255.87" cy="105.785" r="2.58013" fill="#2BD4D9"/>
<circle cx="1085.58" cy="126.426" r="2.58013" fill="#2BD4D9"/>
<circle cx="1101.06" cy="126.426" r="2.58013" fill="#2BD4D9"/>
<circle cx="1116.54" cy="126.426" r="2.58013" fill="#2BD4D9"/>
<circle cx="1132.02" cy="126.426" r="2.58013" fill="#2BD4D9"/>
<circle cx="1147.5" cy="126.426" r="2.58013" fill="#2BD4D9"/>
<circle cx="1162.98" cy="126.426" r="2.58013" fill="#2BD4D9"/>
<circle cx="1178.46" cy="126.426" r="2.58013" fill="#2BD4D9"/>
<circle cx="1193.95" cy="126.426" r="2.58013" fill="#2BD4D9"/>
<circle cx="1209.43" cy="126.426" r="2.58013" fill="#2BD4D9"/>
<circle cx="1224.91" cy="126.426" r="2.58013" fill="#2BD4D9"/>
<circle cx="1240.39" cy="126.426" r="2.58013" fill="#2BD4D9"/>
<circle cx="1255.87" cy="126.426" r="2.58013" fill="#2BD4D9"/>
<circle cx="1085.58" cy="147.067" r="2.58013" fill="#2BD4D9"/>
<circle cx="1101.06" cy="147.067" r="2.58013" fill="#2BD4D9"/>
<circle cx="1116.54" cy="147.067" r="2.58013" fill="#2BD4D9"/>
<circle cx="1132.02" cy="147.067" r="2.58013" fill="#2BD4D9"/>
<circle cx="1147.5" cy="147.067" r="2.58013" fill="#2BD4D9"/>
<circle cx="1162.98" cy="147.067" r="2.58013" fill="#2BD4D9"/>
<circle cx="1178.46" cy="147.067" r="2.58013" fill="#2BD4D9"/>
<circle cx="1193.95" cy="147.067" r="2.58013" fill="#2BD4D9"/>
<circle cx="1209.43" cy="147.067" r="2.58013" fill="#2BD4D9"/>
<circle cx="1224.91" cy="147.067" r="2.58013" fill="#2BD4D9"/>
<circle cx="1240.39" cy="147.067" r="2.58013" fill="#2BD4D9"/>
<circle cx="1255.87" cy="147.067" r="2.58013" fill="#2BD4D9"/>
</g>
<defs>
<linearGradient id="paint0_linear_855_293" x1="1283.94" y1="299.947" x2="1283.94" y2="345.5" gradientUnits="userSpaceOnUse">
<stop stop-color="#5433ED"/>
<stop offset="1" stop-color="#5433ED" stop-opacity="0.22"/>
</linearGradient>
</defs>
</svg>
