<svg width="96" height="96" viewBox="0 0 96 96" fill="none" xmlns="http://www.w3.org/2000/svg">
<rect opacity="0.05" width="96" height="96" rx="10" fill="#2BD4D9"/>
<path fill-rule="evenodd" clip-rule="evenodd" d="M51.0231 22.2815H26.7877C24.3177 22.2815 22.3157 24.2886 22.3157 26.7642V45.9273C22.3157 48.2515 24.1956 50.1359 26.5141 50.1359L26.4644 53.8528L30.6702 50.1359H51.0231C53.4931 50.1359 55.4951 48.1289 55.4951 45.6532V26.7642C55.4951 24.2886 53.4931 22.2815 51.0231 22.2815Z" fill="#2BD4D9"/>
<path fill-rule="evenodd" clip-rule="evenodd" d="M45.1104 42.2118H69.3458C71.8158 42.2118 73.8184 44.2188 73.8184 46.6945V65.8582C73.8184 68.1824 71.9379 70.0662 69.6194 70.0662L69.6691 73.7837L65.4633 70.0662H45.1104C42.6404 70.0662 40.6384 68.0597 40.6384 65.5841V46.6945C40.6384 44.2188 42.6404 42.2118 45.1104 42.2118Z" fill="#5433ED"/>
<path fill-rule="evenodd" clip-rule="evenodd" d="M42.6874 32.3684C42.6874 34.0336 41.3411 35.3833 39.6799 35.3833C38.0187 35.3833 36.6724 34.0336 36.6724 32.3684C36.6724 30.7039 38.0187 29.3541 39.6799 29.3541C41.3411 29.3541 42.6874 30.7039 42.6874 32.3684Z" fill="white"/>
<path fill-rule="evenodd" clip-rule="evenodd" d="M44.6351 41.0579C44.5265 38.0396 42.3499 35.6301 39.6798 35.6301C37.0097 35.6301 34.8336 38.0396 34.7251 41.0579H44.6351Z" fill="white"/>
<path fill-rule="evenodd" clip-rule="evenodd" d="M60.7409 53.7758C60.7409 55.441 59.3945 56.7907 57.7333 56.7907C56.0722 56.7907 54.7258 55.441 54.7258 53.7758C54.7258 52.1113 56.0722 50.7615 57.7333 50.7615C59.3945 50.7615 60.7409 52.1113 60.7409 53.7758Z" fill="white"/>
<path fill-rule="evenodd" clip-rule="evenodd" d="M62.688 62.4652C62.5795 59.4469 60.4034 57.0374 57.7333 57.0374C55.0633 57.0374 52.8866 59.4469 52.7781 62.4652H62.688Z" fill="white"/>
</svg>
