<?xml version="1.0" encoding="utf-8"?>
<!-- Generator: Adobe Illustrator 26.2.1, SVG Export Plug-In . SVG Version: 6.00 Build 0)  -->
<svg version="1.1" id="Layer_1" xmlns="http://www.w3.org/2000/svg" xmlns:xlink="http://www.w3.org/1999/xlink" x="0px" y="0px"
	 viewBox="0 0 1384.9 948.1" style="enable-background:new 0 0 1384.9 948.1;" xml:space="preserve">
<style type="text/css">
	.st0{fill:#150D3E;}
	.st1{fill:#5633EF;}
	.st2{fill:#2DD2D8;}
	.st3{fill:#FFFFFF;}
	.st4{fill:#2CD3DB;}
	.st5{fill:#FFFFFF;stroke:#5633EF;stroke-miterlimit:10;}
	.st6{fill:#5333ED;}
	.st7{fill:#5633EF;stroke:#5633EF;stroke-miterlimit:10;}
	.st8{fill:#FFFFFF;stroke:#5633EF;stroke-width:2.2462;stroke-miterlimit:10;}
	.st9{fill:none;stroke:#5633EF;stroke-width:1.5;stroke-miterlimit:10;}
	.st10{fill:#ED975D;}
	.st11{fill:#2CD3DB;stroke:#5633EF;stroke-width:1.393;stroke-miterlimit:10;}
	.st12{fill:#211D53;}
	.st13{fill:#211D53;stroke:#5633EF;stroke-width:1.393;stroke-miterlimit:10;}
	.st14{fill:#5633EF;stroke:#5633EF;stroke-width:1.5;stroke-miterlimit:10;}
	.st15{fill:none;stroke:#5633EF;stroke-miterlimit:10;}
	.st16{fill:#FFB27D;}
	.st17{fill:#7F2722;}
	.st18{fill:#FFFFFF;stroke:#5633EF;stroke-width:1.2838;stroke-miterlimit:10;}
	.st19{fill:#5633EF;stroke:#FFFFFF;stroke-width:1.393;stroke-miterlimit:10;}
	.st20{fill:#211D53;stroke:#FFFFFF;stroke-width:1.393;stroke-miterlimit:10;}
	.st21{fill:none;stroke:#FFFFFF;stroke-width:1.393;stroke-miterlimit:10;}
	.st22{fill:none;stroke:#5633EF;stroke-width:1.393;stroke-miterlimit:10;}
	.st23{clip-path:url(#SVGID_00000030448768704532616140000006830230072170357377_);fill:#FFFFFF;}
	
		.st24{clip-path:url(#SVGID_00000030448768704532616140000006830230072170357377_);fill:#5633EF;stroke:#5633EF;stroke-miterlimit:10;}
	.st25{fill:#FFFFFF;stroke:#5633EF;stroke-width:1.8358;stroke-miterlimit:10;}
	.st26{opacity:0.4;fill:#AF444A;}
	.st27{fill:#FFFFFF;stroke:#5633EF;stroke-width:2;stroke-miterlimit:10;}
	.st28{fill:none;stroke:#5633EF;stroke-width:2;stroke-miterlimit:10;}
	.st29{fill:#211D53;stroke:#211D53;stroke-width:11;stroke-miterlimit:10;}
	.st30{fill:#211D53;stroke:#211D53;stroke-width:6;stroke-miterlimit:10;}
	.st31{fill:#211D53;stroke:#211D53;stroke-width:3;stroke-miterlimit:10;}
	.st32{fill:#211D53;stroke:#211D53;stroke-width:8;stroke-miterlimit:10;}
	.st33{fill:#211D53;stroke:#5633EF;stroke-width:2;stroke-miterlimit:10;}
	.st34{fill:url(#SVGID_00000004515552701939139380000012844330006560541877_);}
	.st35{fill:url(#SVGID_00000078734513472591973900000009029532826414885535_);}
	.st36{fill-rule:evenodd;clip-rule:evenodd;fill:#5633EF;stroke:#5633EF;stroke-miterlimit:10;}
	.st37{fill:#2CD3DB;stroke:#5633EF;stroke-width:2;stroke-miterlimit:10;}
	.st38{fill:#F5938C;}
	.st39{fill:#F8928C;}
	.st40{opacity:0.22;}
	.st41{fill:#020202;}
	.st42{fill:#2CD3DB;stroke:#5633EF;stroke-width:5;stroke-miterlimit:10;}
	.st43{fill:#FAFAFA;}
	.st44{fill:#E0E0E0;}
	.st45{opacity:0.6;}
	.st46{opacity:0.6;fill:#FFFFFF;enable-background:new    ;}
	.st47{fill:#5433ED;stroke:#5433ED;stroke-miterlimit:10;}
	.st48{fill:#EB996E;}
	.st49{fill:#5433ED;stroke:#5633EF;stroke-width:0.5;stroke-miterlimit:10;}
	.st50{fill:#2CD3DB;stroke:#5433ED;stroke-width:2;stroke-miterlimit:10;}
	.st51{fill:#F7F8F8;}
	.st52{fill:#150D3E;stroke:#5633EF;stroke-miterlimit:10;}
	.st53{fill:#FFFFFF;stroke:#5633EF;stroke-width:0.75;stroke-miterlimit:10;}
	.st54{fill:#5633EF;stroke:#FFFFFF;stroke-width:0.5;stroke-miterlimit:10;}
	.st55{fill:#150D3E;stroke:#FFFFFF;stroke-width:0.5;stroke-miterlimit:10;}
	.st56{fill:#5633EF;stroke:#FFFFFF;stroke-width:0.75;stroke-miterlimit:10;}
	.st57{fill:#3C1DCC;stroke:#FFFFFF;stroke-miterlimit:10;}
	.st58{fill:#2CD3DB;stroke:#FFFFFF;stroke-width:0.5;stroke-miterlimit:10;}
	.st59{fill:#8A9EDD;}
	.st60{fill:#7689D6;}
	.st61{fill:#F5FAFF;}
	.st62{fill:#F7F8F8;stroke:#5633EF;stroke-miterlimit:10;}
	.st63{fill:#696969;}
	.st64{fill:#2CD3DB;stroke:#FFFFFF;stroke-miterlimit:10;}
	.st65{fill:#1D3F70;}
	.st66{fill:#D8B09A;}
	.st67{fill:#F4D4BE;}
	.st68{fill:#FFFFFF;stroke:#5633EF;stroke-width:0.5;stroke-miterlimit:10;}
	.st69{fill:#2CD3DB;stroke:#F7F8F8;stroke-width:0.5;stroke-miterlimit:10;}
	.st70{fill:#5433ED;}
	.st71{fill:none;stroke:#FFFFFF;stroke-width:3;stroke-miterlimit:10;}
	.st72{fill:#2CD3DB;stroke:#5633EF;stroke-miterlimit:10;}
	.st73{fill:#5633EF;stroke:#FFFFFF;stroke-miterlimit:10;}
	.st74{fill:#211D53;stroke:#FFFFFF;stroke-miterlimit:10;}
	.st75{fill:#FFFFFF;stroke:#211D53;stroke-width:1.393;stroke-miterlimit:10;}
	.st76{clip-path:url(#XMLID_00000054962146687696193110000006126441132391051397_);fill:#211D53;}
	.st77{clip-path:url(#XMLID_00000092446697878656155630000017148522170397560222_);fill:#211D53;}
	.st78{clip-path:url(#XMLID_00000092446697878656155630000017148522170397560222_);}
	.st79{opacity:0.21;fill:#D18161;}
	.st80{clip-path:url(#XMLID_00000085957495396537426100000005355253211877485753_);}
	.st81{clip-path:url(#XMLID_00000032646584718459248940000016664599775842142114_);fill:#211D53;}
	.st82{clip-path:url(#XMLID_00000033352926600998298270000014913560183231749802_);fill:#211D53;}
	.st83{clip-path:url(#XMLID_00000013909654672417427590000016674384737400040841_);fill:#211D53;}
	.st84{clip-path:url(#XMLID_00000013909654672417427590000016674384737400040841_);}
	.st85{clip-path:url(#XMLID_00000060735803937768841940000015174093905908306584_);}
	.st86{clip-path:url(#XMLID_00000176015851992483055680000000205382674141971637_);fill:#211D53;}
	.st87{fill:#1A2E35;}
	.st88{fill:#5633EF;stroke:#FFFFFF;stroke-width:4;stroke-miterlimit:10;}
	.st89{fill:none;stroke:#FFFFFF;stroke-width:3;stroke-linecap:round;stroke-linejoin:round;stroke-miterlimit:10;}
	.st90{fill:none;stroke:#211D53;stroke-width:1.393;stroke-miterlimit:10;}
	.st91{fill:none;stroke:#4E585D;stroke-miterlimit:10;}
	.st92{fill:#F6F6F6;}
	.st93{fill:#251462;}
	.st94{fill:#050233;}
	.st95{fill:#00B0F9;}
	.st96{fill:#D5EDFF;}
	.st97{fill:#211D53;stroke:#5633EF;stroke-miterlimit:10;}
	.st98{fill:#121B46;}
	.st99{fill:#3CDEBC;}
	.st100{clip-path:url(#SVGID_00000167357280472837241450000004076669349051968910_);}
	.st101{fill:#F28766;}
	.st102{fill:none;stroke:#FFFFFF;stroke-miterlimit:10;}
	.st103{fill:#FFFFFF;stroke:#5633EF;stroke-width:3;stroke-miterlimit:10;}
	.st104{fill:#2CD3DB;stroke:#5633EF;stroke-width:3;stroke-miterlimit:10;}
	.st105{fill:none;stroke:#5633EF;stroke-width:3;stroke-miterlimit:10;}
	.st106{fill:#211D53;stroke:#5633EF;stroke-width:3;stroke-miterlimit:10;}
	.st107{fill:none;stroke:#5633EF;stroke-linecap:round;stroke-linejoin:round;stroke-miterlimit:10;}
	.st108{fill:#FFFFFF;stroke:#5633EF;stroke-linecap:round;stroke-miterlimit:10;}
	.st109{fill:none;stroke:#5633EF;stroke-linecap:round;stroke-miterlimit:10;}
	.st110{fill:#FFFFFF;stroke:#5633EF;stroke-linejoin:round;stroke-miterlimit:10;}
	.st111{fill:none;stroke:#000000;stroke-width:1.0596;stroke-miterlimit:10;}
	.st112{clip-path:url(#SVGID_00000143602029923681922570000004312249544450458299_);}
	.st113{fill:#FFFFFF;stroke:#5633EF;stroke-width:2;stroke-linecap:round;stroke-miterlimit:10;}
	.st114{fill:none;stroke:#5633EF;stroke-width:2;stroke-linecap:round;stroke-miterlimit:10;}
	.st115{fill:#AE4F32;}
	.st116{fill:#5633EF;stroke:#5633EF;stroke-width:0.75;stroke-miterlimit:10;}
	.st117{fill:#211D53;stroke:#211D53;stroke-miterlimit:10;}
</style>
<g>
	<g>
		<g>
			<path class="st104" d="M332.5,908.9c0,6.2,5.1,11.3,11.3,11.3h730.7c6.2,0,11.3-5.1,11.3-11.3v-780c0-6.2-5.1-11.3-11.3-11.3
				H343.9c-6.2,0-11.3,5.1-11.3,11.3V908.9z"/>
			<rect x="358.6" y="137.9" class="st103" width="701.3" height="701.3"/>
			<path class="st103" d="M358.6,839.2c0-109.3,0-337.6,0-438.1c106.3,1.1,227.5,22,346.8,152.4c68.6,75,263.2-57.4,354.5,123.6
				c0,42.2,0,120.6,0,162.1C1022.9,839.2,472.4,839.2,358.6,839.2z"/>
		</g>
		<g>
			<path class="st12" d="M364,870.5c1.6-10,16.5-13.6,24.1-3.1c7.6-10.5,22.6-6.9,24.1,3.1c2.1,13.4-12,24.6-24.1,31.5
				C376,895.1,361.9,883.9,364,870.5z"/>
			<path class="st7" d="M464.8,891.5c1.7-2.9,2.7-6.3,2.7-9.9c0-11-8.9-19.9-19.9-19.9c-11,0-19.9,8.9-19.9,19.9
				c0,11,8.9,19.9,19.9,19.9c3.6,0,7-1,9.9-2.7l10,2.7L464.8,891.5z"/>
			<g>
				<path class="st3" d="M501.8,865c0,1.9-1.5,3.4-3.4,3.4s-3.4-1.5-3.4-3.4c0-1.9,1.5-3.4,3.4-3.4S501.8,863.2,501.8,865z"/>
				<path class="st3" d="M501.8,898c0,1.9-1.5,3.4-3.4,3.4s-3.4-1.5-3.4-3.4c0-1.9,1.5-3.4,3.4-3.4S501.8,896.2,501.8,898z"/>
				<path class="st3" d="M501.8,881.5c0,1.9-1.5,3.4-3.4,3.4s-3.4-1.5-3.4-3.4c0-1.9,1.5-3.4,3.4-3.4S501.8,879.7,501.8,881.5z"/>
			</g>
		</g>
	</g>
	<g>
		<g>
			<path class="st12" d="M975.6,330.1c-21.9-12.8-22.2-37.4-26-60c-3.8-22.6-20.9-41.6-54.9-56.6c-33.9-15.1-38.1-51.7-38.1-84.1
				c0-32.4-26.4-107.8-106.3-119.1C670.4-1.1,624.2,77.2,629,95.4c6,22.3,18.4,16.4,23.8,17.5c2.3,12.7,18,74.4-2.2,91
				C574.4,266.3,564.5,333,592,358.7c27.5,25.7,116.7,32.3,187.1,65c59.9,27.9,163.7,9.2,200-31.3
				C1001.5,367.6,984.6,335.4,975.6,330.1z"/>
		</g>
		<g>
			<g>
				<path class="st7" d="M865.3,320.9c25.2,7.1,38.7,10.5,53.6,28.3c13.3,16,121.7,229.6,121.7,229.6L965.9,598l-88.2-121
					c0,0-46.4,69-58.8,104.1c-12.4,35.1,25.2,138.3,76.1,258.2c-162.4,0-270.6,0-370.2,0c33.9-59.9,82.6-165.4,82.6-208.4
					s-16-68.4-23.8-118.8c-17,17-46.4,44.5-73.4,62c-31.7-9-36.7-43.2-36.7-43.2s66.3-134,95.7-190.2c14.5-27.8,35.9-40.2,69.9-40.2
					C714.8,318.6,760.1,344.6,865.3,320.9z"/>
				<g>
					<defs>
						<path id="SVGID_00000031175145713121382580000016657582149548115110_" d="M865.3,320.9c25.2,7.1,38.7,10.5,53.6,28.3
							c13.3,16,121.7,229.6,121.7,229.6L965.9,598l-88.2-121c0,0-46.4,69-58.8,104.1c-12.4,35.1,25.2,138.3,76.1,258.2
							c-162.4,0-270.6,0-370.2,0c33.9-59.9,82.6-165.4,82.6-208.4s-16-68.4-23.8-118.8c-17,17-46.4,44.5-73.4,62
							c-31.7-9-36.7-43.2-36.7-43.2s66.3-134,95.7-190.2c14.5-27.8,35.9-40.2,69.9-40.2C714.8,318.6,760.1,344.6,865.3,320.9z"/>
					</defs>
					<clipPath id="SVGID_00000017507263488777429990000016255360674231028883_">
						<use xlink:href="#SVGID_00000031175145713121382580000016657582149548115110_"  style="overflow:visible;"/>
					</clipPath>
					<g style="clip-path:url(#SVGID_00000017507263488777429990000016255360674231028883_);">
						<g>
							<path class="st3" d="M776.4,494.1c-3.1-2.3-4.5-4.7-4.3-7.2c0.2-2.4,2.1-4.4,3.8-5.7c-2.2-0.3-4.7-1.1-6.3-3.1
								c-1.4-1.8-1.6-4.2-0.8-7.2c1.3-4.8,4.2-5.8,6.4-5.8c2,0,3.9,0.8,5.5,1.7c-0.6-2.1-1-4.8,0.3-7c1.3-2.1,3.8-3.2,7.6-3.2
								c3.8,0,6.3,1.1,7.6,3.2c1.2,2,1,4.5,0.5,6.4c1.4-0.9,3.2-1.8,5.1-1.8c2.1,0,5,1.1,6.6,6.5c1.1,3.4,0.9,6.1-0.5,7.9
								c-1.2,1.7-3.4,2.6-6.3,2.7c1.6,1.3,3.2,3.2,3.4,5.6c0.2,2.4-1.2,4.8-4.2,6.9c-2.1,1.5-4,2.2-5.7,2.2c0,0,0,0,0,0
								c-3.5,0-5.4-2.9-6.4-5.4c-1,2.5-2.8,5.5-6.3,5.5C780.5,496.5,778.5,495.7,776.4,494.1z M789.5,487.1c0,0.1,1.1,7.3,5.5,7.3h0
								c1.3,0,2.9-0.6,4.6-1.9c2.4-1.7,3.5-3.5,3.4-5.2c-0.3-3.4-5.4-6-5.5-6.1c-0.4-0.2-0.6-0.7-0.5-1.2c0.2-0.5,0.6-0.7,1.1-0.6
								c0,0,5.9,1.2,8.1-1.7c1-1.3,1-3.4,0.2-6.2c-1.1-3.4-2.7-5.1-4.8-5.1c-3.2,0-6.5,3.5-6.6,3.6c-0.3,0.4-0.9,0.4-1.3,0.1
								c-0.4-0.3-0.5-0.8-0.3-1.3c0-0.1,2.7-5.1,0.9-8.1c-0.9-1.5-2.9-2.2-5.9-2.2c-3,0-5,0.8-5.9,2.2c-1.8,3,0.9,8,0.9,8.1
								c0.2,0.4,0.1,0.9-0.2,1.2c-0.4,0.3-0.9,0.3-1.2,0c0,0-3.7-3-6.9-3c-2.2,0-3.7,1.4-4.5,4.4c-0.7,2.3-0.5,4.2,0.5,5.5
								c1.7,2.2,5.4,2.5,7,2.5c0.5,0,0.9,0,0.9,0c0.5,0,0.9,0.3,1,0.7c0.1,0.5-0.1,0.9-0.5,1.1c-0.1,0-5.2,2.5-5.5,5.9
								c-0.2,1.7,1,3.6,3.5,5.4c1.8,1.3,3.4,2,4.7,2c4.3,0,5.3-7.3,5.3-7.4c0.1-0.5,0.5-0.9,1-0.9c0,0,0,0,0,0
								C789,486.3,789.4,486.6,789.5,487.1z"/>
							<path class="st3" d="M782.7,476.6c0,3.3,2.7,5.9,5.9,5.9c3.3,0,5.9-2.7,5.9-5.9c0-3.3-2.7-5.9-5.9-5.9
								C785.4,470.7,782.7,473.3,782.7,476.6z"/>
						</g>
						<g>
							<path class="st3" d="M732.1,458.2c-3.8-0.6-6.2-2-7.1-4.3c-0.9-2.3-0.2-4.9,0.7-6.8c-2,0.8-4.7,1.3-7,0.2c-2-1-3.4-3-4.1-6
								c-1.1-4.9,1-7.1,2.9-8.1c1.7-0.9,3.9-1.1,5.6-1.1c-1.5-1.5-3.1-3.8-3-6.3c0.1-2.5,1.9-4.6,5.2-6.4c3.3-1.8,6.1-2,8.2-0.7
								c2,1.2,2.9,3.5,3.4,5.5c0.8-1.5,2-3.1,3.7-3.9c1.9-1,4.9-1.3,8.9,2.6c2.5,2.5,3.6,4.9,3.3,7.2c-0.3,2-1.8,3.9-4.3,5.4
								c2,0.4,4.4,1.4,5.6,3.3c1.3,2.1,1.2,4.8-0.5,8.1c-1.1,2.3-2.5,3.9-4,4.7c0,0,0,0,0,0c-3.1,1.6-6.1,0-8.2-1.8
								c0.3,2.7,0.1,6.2-3,7.8C736.8,458.4,734.7,458.6,732.1,458.2z M740.4,445.8c0,0.1,4.4,6,8.3,3.9h0c1.2-0.6,2.2-1.9,3.2-3.8
								c1.3-2.6,1.5-4.7,0.6-6.2c-1.9-2.9-7.6-2.8-7.7-2.8c-0.5,0-0.9-0.3-1-0.8c-0.1-0.5,0.2-0.9,0.7-1.1c0,0,5.8-1.7,6.4-5.3
								c0.2-1.6-0.7-3.5-2.7-5.5c-2.5-2.5-4.7-3.3-6.6-2.3c-2.8,1.5-4.1,6.2-4.1,6.2c-0.1,0.5-0.6,0.8-1.1,0.7
								c-0.5-0.1-0.8-0.5-0.8-1c0-0.1,0-5.8-2.9-7.6c-1.5-0.9-3.6-0.6-6.3,0.8c-2.7,1.4-4.1,3-4.2,4.7c-0.2,3.4,4.6,6.7,4.6,6.7
								c0.4,0.3,0.5,0.8,0.4,1.2c-0.2,0.4-0.6,0.7-1.1,0.6c0,0-4.6-0.9-7.5,0.6c-2,1-2.6,3-1.9,6c0.5,2.4,1.5,3.9,3,4.6
								c2.5,1.2,6-0.4,7.3-1.1c0.5-0.2,0.8-0.4,0.8-0.4c0.4-0.3,0.9-0.2,1.2,0.2c0.3,0.3,0.3,0.9,0.1,1.3c0,0-3.4,4.6-2.2,7.8
								c0.7,1.6,2.5,2.7,5.6,3.1c2.2,0.3,3.9,0.2,5.1-0.4c3.8-2,1.3-9,1.2-9.1c-0.2-0.5,0-1,0.5-1.2c0,0,0,0,0,0
								C739.6,445.3,740.1,445.5,740.4,445.8z"/>
							<path class="st3" d="M729.5,439.7c1.5,2.9,5.1,4,8,2.5c2.9-1.5,4-5.1,2.5-8c-1.5-2.9-5.1-4-8-2.5
								C729.1,433.2,728,436.8,729.5,439.7z"/>
						</g>
						<g>
							<path class="st3" d="M772.1,406.6c-1.7-3.4-1.9-6.2-0.6-8.3c1.3-2.1,3.9-3,6-3.4c-1.8-1.2-3.7-3.1-4.2-5.6
								c-0.4-2.2,0.4-4.5,2.5-6.8c3.3-3.7,6.4-3.3,8.3-2.3c1.8,0.9,3.2,2.5,4.1,3.9c0.4-2.1,1.3-4.8,3.4-6.1
								c2.1-1.3,4.8-1.1,8.2,0.5c3.3,1.7,5.1,3.8,5.3,6.3c0.2,2.3-1.1,4.4-2.5,6c1.7-0.2,3.7-0.1,5.3,0.7c1.9,0.9,3.9,3.2,3,8.7
								c-0.6,3.5-1.9,5.8-4,6.9c-1.8,0.9-4.2,0.8-6.8-0.4c0.8,1.9,1.4,4.3,0.6,6.5c-0.9,2.3-3.2,3.7-6.9,4.3
								c-2.5,0.4-4.6,0.2-6.1-0.6c0,0,0,0,0,0c-3.1-1.6-3.5-5-3.3-7.7c-2,1.8-5,3.6-8.1,2.1C774.8,410.5,773.3,408.9,772.1,406.6z
								 M787,406.2c0,0.1-2.3,7,1.6,9l0,0c1.2,0.6,2.8,0.7,4.9,0.4c2.9-0.5,4.7-1.5,5.4-3.1c1.3-3.2-2.1-7.8-2.2-7.9
								c-0.3-0.4-0.3-0.9,0.1-1.3c0.4-0.3,0.9-0.4,1.3-0.1c0,0,4.8,3.7,8,2.1c1.5-0.7,2.5-2.6,2.9-5.4c0.6-3.5-0.1-5.7-2-6.7
								c-2.8-1.4-7.4,0.2-7.5,0.2c-0.5,0.2-1,0-1.2-0.5c-0.2-0.4-0.1-1,0.3-1.2c0.1,0,4.7-3.4,4.5-6.8c-0.1-1.7-1.6-3.3-4.2-4.7
								c-2.7-1.4-4.8-1.6-6.3-0.6c-2.9,1.8-2.8,7.6-2.8,7.6c0,0.5-0.3,0.9-0.8,1c-0.5,0.1-0.9-0.1-1.1-0.6c0,0-1.9-4.3-4.8-5.8
								c-2-1-3.9-0.4-6,1.9c-1.6,1.8-2.3,3.5-2,5.1c0.5,2.7,3.8,4.6,5.1,5.3c0.5,0.2,0.8,0.4,0.8,0.4c0.4,0.2,0.7,0.6,0.6,1.1
								c-0.1,0.5-0.5,0.8-1,0.8c-0.1,0-5.7-0.1-7.6,2.7c-0.9,1.5-0.7,3.6,0.7,6.4c1,2,2.1,3.3,3.3,3.9c3.9,1.9,8.1-4.2,8.1-4.2
								c0.3-0.4,0.8-0.5,1.2-0.3l0,0C787,405.2,787.2,405.7,787,406.2z"/>
							<path class="st3" d="M785.7,393.8c-1.5,2.9-0.3,6.5,2.6,8c2.9,1.5,6.5,0.3,7.9-2.6c1.5-2.9,0.3-6.5-2.6-8
								C790.7,389.7,787.2,390.8,785.7,393.8z"/>
						</g>
						<g>
							<path class="st3" d="M661.4,407.3c-3.1-2.2-4.6-4.6-4.5-7c0.2-2.5,2-4.4,3.7-5.8c-2.2-0.2-4.7-0.9-6.3-2.9
								c-1.4-1.8-1.8-4.2-1-7.2c1.2-4.8,4-5.9,6.2-6c2-0.1,4,0.7,5.5,1.5c-0.7-2.1-1.1-4.8,0.1-7c1.2-2.2,3.7-3.3,7.5-3.4
								c3.7-0.1,6.3,0.9,7.6,3c1.2,1.9,1.1,4.4,0.6,6.4c1.4-1,3.2-1.9,5-1.9c2.1-0.1,5,1,6.8,6.3c1.2,3.4,1.1,6-0.2,7.9
								c-1.2,1.7-3.3,2.7-6.2,2.9c1.6,1.3,3.3,3.2,3.6,5.5c0.3,2.4-1.1,4.8-4,7c-2,1.5-3.9,2.4-5.7,2.4c0,0,0,0,0,0
								c-3.5,0.1-5.5-2.7-6.6-5.2c-0.9,2.6-2.7,5.6-6.2,5.7C665.5,409.6,663.5,408.9,661.4,407.3z M674.3,400c0,0.1,1.3,7.3,5.7,7.2
								l0,0c1.3,0,2.8-0.7,4.5-2c2.3-1.8,3.4-3.6,3.2-5.3c-0.4-3.4-5.6-5.9-5.6-5.9c-0.4-0.2-0.7-0.7-0.5-1.2
								c0.1-0.5,0.6-0.8,1.1-0.7c0,0,6,1,8-1.9c0.9-1.4,0.9-3.4,0-6.2c-1.1-3.3-2.8-5-4.9-5c-3.2,0.1-6.4,3.7-6.5,3.8
								c-0.3,0.4-0.9,0.4-1.3,0.2c-0.4-0.3-0.5-0.8-0.3-1.2c0-0.1,2.6-5.2,0.7-8.1c-0.9-1.5-2.9-2.2-5.9-2.1c-3,0.1-5,0.9-5.8,2.4
								c-1.7,3,1.1,8,1.2,8c0.2,0.4,0.1,0.9-0.2,1.2c-0.4,0.3-0.9,0.3-1.2,0c0,0-3.8-2.9-7-2.8c-2.2,0.1-3.6,1.5-4.4,4.5
								c-0.6,2.4-0.4,4.2,0.6,5.5c1.8,2.2,5.5,2.3,7.1,2.3c0.5,0,0.9-0.1,0.9-0.1c0.5-0.1,0.9,0.2,1,0.7c0.1,0.5-0.1,0.9-0.5,1.2
								c0,0-5.1,2.6-5.4,6c-0.1,1.8,1.1,3.5,3.6,5.3c1.8,1.3,3.4,1.9,4.8,1.9c4.3-0.1,5.1-7.5,5.1-7.6c0-0.5,0.4-0.9,0.9-0.9l0,0
								C673.8,399.1,674.2,399.5,674.3,400z"/>
							<path class="st3" d="M667.2,389.6c0.1,3.3,2.8,5.8,6.1,5.8c3.3-0.1,5.8-2.8,5.8-6.1c-0.1-3.3-2.8-5.8-6.1-5.8
								C669.7,383.6,667.1,386.4,667.2,389.6z"/>
						</g>
						<g>
							<path class="st3" d="M723,381.3c-3.1-2.2-4.6-4.6-4.5-7c0.2-2.5,2-4.4,3.7-5.8c-2.2-0.2-4.7-0.9-6.3-2.9
								c-1.4-1.8-1.8-4.2-1-7.2c1.2-4.8,4-5.9,6.2-6c2-0.1,4,0.7,5.5,1.5c-0.7-2.1-1.1-4.8,0.1-7c1.2-2.2,3.7-3.3,7.5-3.4
								c3.7-0.1,6.3,0.9,7.6,3c1.2,1.9,1.1,4.4,0.6,6.4c1.4-1,3.2-1.9,5-1.9c2.1-0.1,5,1,6.8,6.3c1.2,3.4,1.1,6-0.2,7.9
								c-1.2,1.7-3.3,2.7-6.2,2.9c1.6,1.3,3.3,3.2,3.6,5.5c0.3,2.4-1.1,4.8-4,7c-2,1.5-3.9,2.4-5.7,2.4c0,0,0,0,0,0
								c-3.5,0.1-5.5-2.7-6.6-5.2c-0.9,2.6-2.7,5.6-6.2,5.7C727.2,383.6,725.2,382.8,723,381.3z M735.9,374c0,0.1,1.3,7.3,5.7,7.2
								l0,0c1.3,0,2.8-0.7,4.5-2c2.3-1.8,3.4-3.6,3.2-5.3c-0.4-3.4-5.6-5.9-5.6-5.9c-0.4-0.2-0.7-0.7-0.5-1.2
								c0.1-0.5,0.6-0.8,1.1-0.7c0,0,6,1.1,8-1.9c0.9-1.4,0.9-3.4,0-6.2c-1.1-3.3-2.8-5-4.9-5c-3.2,0.1-6.4,3.7-6.5,3.8
								c-0.3,0.4-0.9,0.4-1.3,0.2c-0.4-0.3-0.5-0.8-0.3-1.2c0-0.1,2.6-5.2,0.7-8.1c-0.9-1.5-2.9-2.2-5.9-2.1c-3,0.1-5,0.9-5.8,2.4
								c-1.7,3,1.1,8,1.2,8c0.2,0.4,0.1,0.9-0.2,1.2c-0.4,0.3-0.9,0.3-1.2,0c0,0-3.8-2.9-7-2.8c-2.2,0.1-3.6,1.5-4.4,4.5
								c-0.6,2.4-0.4,4.2,0.6,5.5c1.8,2.2,5.5,2.3,7.1,2.3c0.5,0,0.9-0.1,0.9-0.1c0.5-0.1,0.9,0.2,1,0.7c0.1,0.5-0.1,0.9-0.5,1.2
								c-0.1,0-5.1,2.6-5.4,6c-0.1,1.8,1.1,3.5,3.6,5.3c1.8,1.3,3.4,1.9,4.8,1.9c4.3-0.1,5.1-7.5,5.1-7.6c0-0.5,0.4-0.9,0.9-0.9h0
								C735.4,373.1,735.9,373.5,735.9,374z"/>
							<path class="st3" d="M728.9,363.6c0.1,3.3,2.8,5.8,6.1,5.8c3.3-0.1,5.8-2.8,5.8-6.1c-0.1-3.3-2.8-5.8-6.1-5.8
								C731.4,357.6,728.8,360.3,728.9,363.6z"/>
						</g>
						<g>
							<path class="st3" d="M702.4,521.2c-2-3.3-2.4-6.1-1.2-8.3c1.2-2.2,3.6-3.2,5.7-3.8c-1.9-1.1-3.9-2.8-4.6-5.3
								c-0.6-2.2,0.1-4.5,2-6.9c3.1-3.9,6.1-3.7,8.1-2.9c1.8,0.8,3.3,2.3,4.4,3.6c0.2-2.1,0.9-4.8,3-6.3c2-1.5,4.7-1.5,8.2,0
								c3.5,1.4,5.4,3.4,5.8,5.9c0.3,2.3-0.8,4.5-2.1,6.1c1.7-0.3,3.7-0.4,5.4,0.3c1.9,0.8,4.1,2.9,3.6,8.5
								c-0.3,3.6-1.5,5.9-3.5,7.1c-1.8,1.1-4.1,1.1-6.9,0.1c1,1.8,1.7,4.2,1,6.5c-0.8,2.3-3,4-6.5,4.8c-2.5,0.6-4.5,0.5-6.2-0.1
								c0,0,0,0,0,0c-3.2-1.3-3.9-4.7-3.8-7.4c-1.9,2-4.7,4-8,2.6C705.2,525,703.7,523.5,702.4,521.2z M717.2,519.8
								c0,0.1-1.8,7.2,2.2,8.9v0c1.2,0.5,2.9,0.5,5,0c2.9-0.7,4.6-1.8,5.1-3.5c1.1-3.3-2.7-7.7-2.7-7.7c-0.3-0.4-0.3-0.9,0-1.3
								c0.3-0.4,0.9-0.4,1.3-0.2c0,0,5,3.4,8.1,1.5c1.4-0.9,2.3-2.8,2.5-5.6c0.3-3.5-0.5-5.7-2.4-6.5c-2.9-1.2-7.4,0.8-7.4,0.8
								c-0.4,0.2-1,0-1.2-0.4c-0.3-0.4-0.2-1,0.2-1.3c0,0,4.5-3.7,4-7.1c-0.3-1.7-1.8-3.2-4.6-4.3c-2.8-1.2-4.9-1.2-6.3-0.2
								c-2.8,2-2.2,7.8-2.2,7.8c0,0.5-0.2,0.9-0.7,1c-0.5,0.1-0.9-0.1-1.1-0.5c0,0-2.2-4.2-5.2-5.4c-2-0.9-4-0.1-5.8,2.3
								c-1.5,1.9-2.1,3.7-1.6,5.2c0.7,2.7,4.1,4.4,5.5,5c0.5,0.2,0.8,0.3,0.8,0.3c0.4,0.1,0.7,0.6,0.7,1.1c-0.1,0.5-0.5,0.8-0.9,0.8
								c-0.1,0-5.7,0.3-7.4,3.3c-0.8,1.5-0.4,3.7,1.1,6.3c1.1,1.9,2.4,3.1,3.6,3.7c4,1.7,7.7-4.7,7.8-4.8c0.2-0.4,0.8-0.6,1.2-0.4
								l0,0C717.1,518.8,717.3,519.3,717.2,519.8z"/>
							<path class="st3" d="M715,507.5c-1.3,3,0.2,6.5,3.2,7.7c3,1.3,6.5-0.2,7.7-3.2c1.3-3-0.2-6.5-3.2-7.7
								C719.7,503,716.2,504.4,715,507.5z"/>
						</g>
						<g>
							<path class="st3" d="M597.2,525c-2.8-2.6-4-5.1-3.5-7.6c0.5-2.4,2.6-4.1,4.4-5.2c-2.1-0.5-4.6-1.6-5.9-3.7
								c-1.2-1.9-1.2-4.4,0-7.2c1.8-4.6,4.8-5.3,7-5.1c2,0.2,3.8,1.2,5.3,2.2c-0.4-2.1-0.5-4.9,1-6.9c1.5-2,4.1-2.8,7.9-2.4
								c3.7,0.4,6.1,1.7,7.2,4c1,2.1,0.5,4.5-0.2,6.5c1.5-0.8,3.4-1.4,5.2-1.2c2.1,0.2,4.8,1.6,5.9,7.1c0.7,3.5,0.2,6.1-1.3,7.8
								c-1.4,1.5-3.6,2.2-6.5,2c1.4,1.5,2.9,3.6,2.8,5.9c-0.1,2.5-1.7,4.6-4.9,6.4c-2.2,1.3-4.2,1.8-5.9,1.6c0,0,0,0,0,0
								c-3.5-0.4-5.1-3.4-5.8-6c-1.2,2.4-3.4,5.2-6.9,4.8C601,527.8,599.2,526.8,597.2,525z M611,519.4c0,0.1,0.3,7.4,4.7,7.9v0
								c1.3,0.1,2.9-0.3,4.8-1.4c2.6-1.5,3.9-3.1,3.9-4.8c0.1-3.5-4.7-6.6-4.8-6.6c-0.4-0.3-0.6-0.8-0.4-1.2
								c0.2-0.4,0.7-0.7,1.2-0.5c0,0,5.8,1.8,8.2-0.8c1.1-1.2,1.4-3.3,0.8-6.1c-0.7-3.5-2.1-5.3-4.2-5.6c-3.1-0.3-6.9,2.8-6.9,2.9
								c-0.4,0.3-0.9,0.3-1.3,0c-0.4-0.3-0.4-0.9-0.2-1.3c0,0,3.2-4.8,1.8-7.9c-0.7-1.6-2.6-2.5-5.6-2.9c-3-0.3-5,0.2-6.1,1.6
								c-2.1,2.7,0.1,8.1,0.1,8.1c0.2,0.4,0,0.9-0.4,1.2c-0.4,0.3-0.9,0.2-1.2-0.1c0,0-3.3-3.4-6.6-3.7c-2.2-0.2-3.8,1-4.9,3.9
								c-0.9,2.3-0.9,4.1-0.1,5.5c1.4,2.4,5.2,3,6.7,3.2c0.5,0.1,0.9,0.1,0.9,0.1c0.5,0,0.9,0.4,0.9,0.8c0.1,0.5-0.2,0.9-0.7,1.1
								c-0.1,0-5.4,1.9-6.1,5.2c-0.4,1.7,0.6,3.6,2.9,5.7c1.6,1.5,3.1,2.3,4.5,2.5c4.3,0.5,6.1-6.7,6.1-6.8c0.1-0.5,0.6-0.8,1-0.7
								l0,0C610.6,518.5,611,518.9,611,519.4z"/>
							<path class="st3" d="M605.4,508.2c-0.3,3.3,2,6.2,5.3,6.5c3.3,0.4,6.2-2,6.5-5.2c0.4-3.3-2-6.2-5.3-6.5
								C608.7,502.6,605.8,505,605.4,508.2z"/>
						</g>
						<g>
							<path class="st3" d="M591.1,446.9c-2.8-2.6-4-5.1-3.5-7.6c0.5-2.4,2.6-4.1,4.4-5.2c-2.1-0.5-4.6-1.6-5.9-3.7
								c-1.2-1.9-1.2-4.4,0-7.2c1.8-4.6,4.8-5.3,7-5.1c2,0.2,3.8,1.2,5.3,2.2c-0.4-2.1-0.5-4.9,1-6.9c1.5-2,4.1-2.8,7.9-2.4
								c3.7,0.4,6.1,1.7,7.2,4c1,2.1,0.5,4.5-0.2,6.5c1.5-0.8,3.4-1.4,5.2-1.2c2.1,0.2,4.8,1.6,5.9,7.1c0.7,3.5,0.3,6.1-1.3,7.8
								c-1.4,1.5-3.7,2.2-6.5,2c1.4,1.5,2.9,3.6,2.8,5.9c-0.1,2.5-1.7,4.6-4.9,6.4c-2.2,1.3-4.2,1.8-5.9,1.6c0,0,0,0,0,0
								c-3.5-0.4-5.1-3.4-5.8-6c-1.2,2.4-3.4,5.2-6.9,4.8C594.9,449.7,593,448.7,591.1,446.9z M604.9,441.3c0,0.1,0.3,7.4,4.7,7.9v0
								c1.3,0.1,2.9-0.3,4.8-1.4c2.6-1.5,3.9-3.1,3.9-4.8c0.1-3.5-4.7-6.6-4.8-6.6c-0.4-0.3-0.6-0.8-0.4-1.2
								c0.2-0.4,0.7-0.7,1.2-0.5c0,0,5.8,1.8,8.2-0.8c1.1-1.2,1.4-3.3,0.8-6.1c-0.7-3.5-2.1-5.3-4.2-5.6c-3.1-0.3-6.9,2.8-6.9,2.9
								c-0.4,0.3-0.9,0.3-1.3,0c-0.4-0.3-0.4-0.9-0.2-1.3c0-0.1,3.2-4.8,1.8-7.9c-0.7-1.6-2.6-2.5-5.6-2.9c-3-0.3-5,0.2-6.1,1.6
								c-2.1,2.7,0.1,8.1,0.1,8.1c0.2,0.4,0,0.9-0.4,1.2c-0.4,0.3-0.9,0.2-1.2-0.1c0,0-3.3-3.4-6.6-3.7c-2.2-0.2-3.8,1-4.9,3.9
								c-0.9,2.3-0.9,4.1-0.1,5.5c1.4,2.4,5.2,3,6.7,3.2c0.5,0.1,0.9,0.1,0.9,0.1c0.5,0,0.9,0.4,0.9,0.8c0.1,0.5-0.2,0.9-0.7,1.1
								c-0.1,0-5.4,1.9-6.1,5.2c-0.4,1.7,0.6,3.7,2.9,5.7c1.6,1.5,3.1,2.3,4.5,2.5c4.3,0.5,6.1-6.7,6.1-6.8c0.1-0.5,0.6-0.8,1-0.7
								l0,0C604.5,440.4,604.9,440.8,604.9,441.3z"/>
							<path class="st3" d="M599.3,430.1c-0.4,3.3,2,6.2,5.3,6.5c3.3,0.4,6.2-2,6.5-5.3c0.4-3.3-2-6.2-5.2-6.5
								C602.6,424.5,599.6,426.9,599.3,430.1z"/>
						</g>
						<g>
							<path class="st3" d="M617.4,345.6c-2.8-2.6-4-5.1-3.5-7.6c0.5-2.4,2.6-4.1,4.4-5.2c-2.1-0.5-4.6-1.6-5.9-3.7
								c-1.2-1.9-1.2-4.4,0-7.2c1.8-4.6,4.8-5.3,7-5.1c2,0.2,3.8,1.2,5.3,2.2c-0.4-2.1-0.5-4.9,1-6.9c1.5-2,4.1-2.8,7.9-2.4
								c3.7,0.4,6.1,1.7,7.2,4c1,2.1,0.5,4.5-0.2,6.5c1.5-0.8,3.4-1.4,5.2-1.2c2.1,0.2,4.8,1.6,5.9,7.1c0.7,3.5,0.2,6.1-1.3,7.8
								c-1.4,1.5-3.6,2.2-6.5,2c1.4,1.5,2.9,3.6,2.8,5.9c-0.1,2.5-1.7,4.6-4.9,6.4c-2.2,1.3-4.2,1.8-5.9,1.6c0,0,0,0,0,0
								c-3.5-0.4-5.1-3.4-5.8-6c-1.2,2.4-3.4,5.2-6.9,4.8C621.2,348.4,619.3,347.4,617.4,345.6z M631.2,340.1c0,0.1,0.3,7.4,4.7,7.9
								v0c1.3,0.1,2.9-0.3,4.8-1.4c2.6-1.5,3.9-3.1,3.9-4.8c0.1-3.5-4.7-6.6-4.8-6.6c-0.4-0.3-0.6-0.8-0.4-1.2
								c0.2-0.4,0.7-0.7,1.2-0.5c0,0,5.8,1.8,8.2-0.8c1.1-1.2,1.4-3.3,0.8-6.1c-0.7-3.5-2.1-5.3-4.2-5.6c-3.1-0.3-6.9,2.8-6.9,2.9
								c-0.4,0.3-0.9,0.3-1.3,0c-0.4-0.3-0.4-0.9-0.2-1.3c0,0,3.2-4.8,1.8-7.9c-0.7-1.6-2.6-2.5-5.6-2.9c-3-0.3-5,0.2-6.1,1.6
								c-2.1,2.7,0.1,8.1,0.1,8.1c0.2,0.4,0,0.9-0.4,1.2c-0.4,0.3-0.9,0.2-1.2-0.1c0,0-3.3-3.4-6.6-3.7c-2.2-0.2-3.8,1-4.9,3.9
								c-0.9,2.3-0.9,4.1-0.1,5.5c1.4,2.4,5.2,3,6.7,3.2c0.5,0.1,0.9,0.1,0.9,0.1c0.5,0,0.9,0.4,0.9,0.8c0.1,0.5-0.2,0.9-0.7,1.1
								c-0.1,0-5.4,1.9-6.1,5.2c-0.4,1.7,0.6,3.6,2.9,5.7c1.6,1.5,3.1,2.3,4.5,2.5c4.3,0.5,6.1-6.7,6.1-6.8c0.1-0.5,0.6-0.8,1-0.7
								l0,0C630.8,339.2,631.2,339.6,631.2,340.1z"/>
							<path class="st3" d="M625.6,328.9c-0.3,3.3,2,6.2,5.3,6.5c3.3,0.4,6.2-2,6.5-5.2c0.4-3.3-2-6.2-5.3-6.5
								C628.9,323.3,625.9,325.6,625.6,328.9z"/>
						</g>
						<g>
							<path class="st3" d="M563.7,385.4c-2.8-2.6-4-5.1-3.5-7.6c0.5-2.4,2.6-4.1,4.4-5.2c-2.1-0.5-4.6-1.6-5.9-3.7
								c-1.2-1.9-1.2-4.4,0-7.2c1.8-4.6,4.8-5.3,7-5.1c2,0.2,3.8,1.2,5.3,2.2c-0.4-2.1-0.5-4.9,1-6.9c1.5-2,4.1-2.8,7.9-2.4
								c3.7,0.4,6.1,1.7,7.2,4c1,2.1,0.5,4.5-0.2,6.5c1.5-0.8,3.4-1.4,5.2-1.2c2.1,0.2,4.8,1.6,5.9,7.1c0.7,3.5,0.2,6.1-1.3,7.8
								c-1.4,1.5-3.6,2.2-6.5,2c1.4,1.5,2.9,3.6,2.8,5.9c-0.1,2.5-1.7,4.6-4.9,6.4c-2.2,1.3-4.2,1.8-5.9,1.6c0,0,0,0,0,0
								c-3.5-0.4-5.1-3.4-5.8-6c-1.2,2.4-3.4,5.2-6.9,4.8C567.5,388.2,565.7,387.2,563.7,385.4z M577.5,379.9c0,0.1,0.3,7.4,4.7,7.9
								v0c1.3,0.1,2.9-0.3,4.8-1.4c2.6-1.5,3.9-3.1,3.9-4.8c0.1-3.5-4.7-6.6-4.8-6.6c-0.4-0.3-0.6-0.8-0.4-1.2
								c0.2-0.4,0.7-0.7,1.2-0.5c0,0,5.8,1.8,8.2-0.8c1.1-1.2,1.4-3.3,0.8-6.1c-0.7-3.5-2.1-5.3-4.2-5.6c-3.1-0.3-6.9,2.8-6.9,2.9
								c-0.4,0.3-0.9,0.3-1.3,0c-0.4-0.3-0.4-0.9-0.2-1.3c0,0,3.2-4.8,1.8-7.9c-0.7-1.6-2.6-2.5-5.6-2.9c-3-0.3-5,0.2-6.1,1.6
								c-2.1,2.7,0,8.1,0.1,8.1c0.2,0.4,0,0.9-0.4,1.2c-0.4,0.3-0.9,0.2-1.2-0.1c0,0-3.3-3.4-6.6-3.7c-2.2-0.2-3.8,1-4.9,3.9
								c-0.9,2.3-0.9,4.1-0.1,5.5c1.4,2.4,5.2,3,6.7,3.2c0.5,0.1,0.9,0.1,0.9,0.1c0.5,0,0.9,0.4,0.9,0.8c0.1,0.5-0.2,0.9-0.7,1.1
								c-0.1,0-5.4,1.9-6.1,5.2c-0.4,1.7,0.6,3.6,2.9,5.7c1.6,1.5,3.1,2.3,4.5,2.5c4.3,0.5,6.1-6.7,6.1-6.8c0.1-0.5,0.6-0.8,1-0.7
								l0,0C577.1,379,577.5,379.4,577.5,379.9z"/>
							<path class="st3" d="M571.9,368.7c-0.3,3.3,2,6.2,5.3,6.5c3.3,0.4,6.2-2,6.5-5.3c0.4-3.3-2-6.2-5.3-6.5
								C575.2,363.1,572.3,365.4,571.9,368.7z"/>
						</g>
						<g>
							<path class="st3" d="M519.4,467.6c-2.8-2.6-4-5.1-3.5-7.6c0.5-2.4,2.6-4.1,4.4-5.2c-2.1-0.5-4.6-1.6-5.9-3.7
								c-1.2-1.9-1.2-4.4,0-7.2c1.8-4.6,4.8-5.3,7-5.1c2,0.2,3.8,1.2,5.3,2.2c-0.4-2.1-0.5-4.9,1-6.9c1.5-2,4.1-2.8,7.9-2.4
								c3.7,0.4,6.1,1.7,7.2,4c1,2.1,0.5,4.5-0.2,6.5c1.5-0.8,3.4-1.4,5.2-1.2c2.1,0.2,4.8,1.6,5.9,7.1c0.7,3.5,0.3,6.1-1.3,7.8
								c-1.4,1.5-3.6,2.2-6.5,2c1.4,1.5,2.9,3.6,2.8,5.9c-0.1,2.5-1.7,4.6-4.9,6.4c-2.2,1.3-4.2,1.8-5.9,1.6c0,0,0,0,0,0
								c-3.5-0.4-5.1-3.4-5.8-6c-1.2,2.4-3.4,5.2-6.9,4.8C523.2,470.4,521.3,469.3,519.4,467.6z M533.2,462c0,0.1,0.3,7.4,4.7,7.9v0
								c1.3,0.1,2.9-0.3,4.8-1.4c2.6-1.5,3.9-3.1,3.9-4.8c0.1-3.5-4.7-6.6-4.8-6.6c-0.4-0.3-0.6-0.8-0.4-1.2
								c0.2-0.4,0.7-0.7,1.2-0.5c0,0,5.8,1.8,8.2-0.8c1.1-1.2,1.4-3.3,0.8-6.1c-0.7-3.5-2.1-5.3-4.2-5.6c-3.1-0.3-6.9,2.8-6.9,2.9
								c-0.4,0.3-0.9,0.3-1.3,0c-0.4-0.3-0.4-0.9-0.2-1.3c0-0.1,3.2-4.8,1.8-7.9c-0.7-1.6-2.6-2.5-5.6-2.9c-3-0.3-5,0.2-6.1,1.6
								c-2.1,2.7,0,8.1,0.1,8.1c0.2,0.4,0,0.9-0.4,1.2c-0.4,0.3-0.9,0.2-1.2-0.1c0,0-3.3-3.4-6.6-3.7c-2.2-0.2-3.8,1-4.9,3.9
								c-0.9,2.3-0.9,4.1-0.1,5.5c1.4,2.4,5.2,3,6.7,3.2c0.5,0.1,0.9,0.1,0.9,0.1c0.5,0,0.9,0.4,0.9,0.8c0.1,0.5-0.2,0.9-0.7,1.1
								c-0.1,0-5.4,1.9-6.1,5.2c-0.4,1.7,0.6,3.7,2.9,5.7c1.6,1.5,3.1,2.3,4.5,2.5c4.3,0.5,6.1-6.7,6.1-6.8c0.1-0.5,0.6-0.8,1-0.7
								l0,0C532.8,461.1,533.2,461.5,533.2,462z"/>
							<path class="st3" d="M527.6,450.8c-0.3,3.3,2,6.2,5.3,6.5c3.3,0.4,6.2-2,6.5-5.3c0.4-3.3-2-6.2-5.3-6.5
								C530.9,445.2,528,447.5,527.6,450.8z"/>
						</g>
						<g>
							<path class="st3" d="M515.4,557.2c-2-3.3-2.4-6.1-1.2-8.3c1.2-2.2,3.6-3.2,5.7-3.8c-1.9-1.1-3.9-2.8-4.6-5.3
								c-0.6-2.2,0.1-4.5,2-6.9c3.1-3.9,6.1-3.7,8.1-2.9c1.8,0.8,3.3,2.3,4.4,3.6c0.2-2.1,0.9-4.8,3-6.3c2-1.5,4.7-1.5,8.2-0.1
								c3.5,1.4,5.4,3.4,5.8,5.9c0.3,2.3-0.8,4.5-2.1,6.1c1.7-0.3,3.7-0.4,5.4,0.3c1.9,0.8,4.1,2.9,3.6,8.5
								c-0.3,3.6-1.5,5.9-3.5,7.1c-1.8,1.1-4.1,1.1-6.9,0.1c1,1.8,1.7,4.2,1,6.5c-0.8,2.3-3,4-6.5,4.8c-2.5,0.6-4.5,0.5-6.1-0.1
								c0,0,0,0,0,0c-3.2-1.3-3.9-4.7-3.8-7.4c-1.9,2-4.7,4-8,2.6C518.3,560.9,516.8,559.5,515.4,557.2z M530.2,555.7
								c0,0.1-1.8,7.2,2.2,8.9v0c1.2,0.5,2.9,0.5,5,0c2.9-0.7,4.6-1.8,5.1-3.5c1.1-3.3-2.7-7.7-2.7-7.7c-0.3-0.4-0.3-0.9,0-1.3
								c0.3-0.4,0.9-0.4,1.3-0.2c0,0,5,3.4,8.1,1.5c1.4-0.9,2.3-2.7,2.5-5.6c0.3-3.5-0.5-5.7-2.4-6.5c-2.9-1.2-7.4,0.8-7.4,0.8
								c-0.4,0.2-1,0-1.2-0.4c-0.3-0.4-0.2-1,0.2-1.3c0,0,4.5-3.7,4-7.1c-0.2-1.7-1.8-3.2-4.6-4.3c-2.8-1.2-4.9-1.2-6.3-0.2
								c-2.8,2-2.2,7.8-2.2,7.8c0,0.5-0.2,0.9-0.7,1c-0.5,0.1-0.9-0.1-1.1-0.5c0,0-2.2-4.2-5.2-5.4c-2-0.9-4-0.1-5.8,2.3
								c-1.5,1.9-2.1,3.7-1.7,5.2c0.7,2.7,4.1,4.4,5.5,5c0.5,0.2,0.8,0.3,0.8,0.3c0.4,0.1,0.7,0.6,0.7,1.1c-0.1,0.5-0.5,0.8-0.9,0.8
								c-0.1,0-5.7,0.3-7.4,3.3c-0.8,1.6-0.4,3.7,1.1,6.3c1.1,1.9,2.4,3.1,3.6,3.7c4,1.7,7.7-4.7,7.8-4.8c0.2-0.4,0.8-0.6,1.2-0.4
								l0,0C530.1,554.8,530.4,555.3,530.2,555.7z"/>
							<path class="st3" d="M528,543.4c-1.3,3,0.2,6.5,3.2,7.7c3,1.3,6.5-0.2,7.7-3.2c1.3-3-0.2-6.5-3.2-7.7
								C532.7,539,529.3,540.4,528,543.4z"/>
						</g>
						<g>
							<path class="st3" d="M898.2,494.1c-3.1-2.3-4.5-4.7-4.3-7.2c0.2-2.4,2.1-4.4,3.8-5.7c-2.2-0.3-4.7-1.1-6.3-3.1
								c-1.4-1.8-1.6-4.2-0.8-7.2c1.3-4.8,4.2-5.8,6.4-5.8c2,0,3.9,0.8,5.5,1.7c-0.6-2.1-1-4.8,0.3-7c1.3-2.1,3.8-3.2,7.6-3.2
								c3.8,0,6.3,1.1,7.6,3.2c1.2,2,1,4.5,0.5,6.4c1.4-0.9,3.2-1.8,5.1-1.8c2.1,0,5,1.1,6.6,6.5c1.1,3.4,0.9,6.1-0.5,7.9
								c-1.2,1.7-3.4,2.6-6.3,2.7c1.6,1.3,3.2,3.2,3.4,5.6c0.2,2.4-1.2,4.8-4.2,6.9c-2.1,1.5-4,2.2-5.7,2.2c0,0,0,0,0,0
								c-3.5,0-5.4-2.9-6.4-5.4c-1,2.5-2.8,5.5-6.3,5.5C902.3,496.5,900.3,495.7,898.2,494.1z M911.4,487.1c0,0.1,1.1,7.3,5.5,7.3h0
								c1.3,0,2.9-0.6,4.6-1.9c2.4-1.7,3.5-3.5,3.4-5.2c-0.3-3.4-5.4-6-5.5-6.1c-0.4-0.2-0.6-0.7-0.5-1.2c0.2-0.5,0.6-0.7,1.1-0.6
								c0,0,5.9,1.2,8.1-1.7c1-1.3,1-3.4,0.2-6.2c-1.1-3.4-2.6-5.1-4.8-5.1c-3.2,0-6.5,3.5-6.6,3.6c-0.3,0.4-0.9,0.4-1.3,0.1
								c-0.4-0.3-0.5-0.8-0.3-1.3c0-0.1,2.7-5.1,0.9-8.1c-0.9-1.5-2.9-2.2-5.9-2.2c-3,0-5,0.8-5.9,2.2c-1.8,3,0.9,8,0.9,8.1
								c0.2,0.4,0.1,0.9-0.2,1.2c-0.4,0.3-0.9,0.3-1.2,0c0,0-3.7-3-6.9-3c-2.2,0-3.7,1.4-4.5,4.4c-0.7,2.3-0.5,4.2,0.5,5.5
								c1.7,2.2,5.4,2.5,7,2.5c0.5,0,0.9,0,0.9,0c0.5,0,0.9,0.3,1,0.7c0.1,0.5-0.1,0.9-0.5,1.1c-0.1,0-5.2,2.5-5.5,5.9
								c-0.2,1.7,1,3.6,3.5,5.4c1.8,1.3,3.4,2,4.7,2c4.3,0,5.3-7.3,5.3-7.4c0.1-0.5,0.5-0.9,1-0.9c0,0,0,0,0,0
								C910.9,486.3,911.3,486.6,911.4,487.1z"/>
							<path class="st3" d="M904.6,476.6c0,3.3,2.6,5.9,5.9,5.9c3.3,0,5.9-2.7,5.9-5.9c0-3.3-2.6-5.9-5.9-5.9
								C907.2,470.7,904.6,473.3,904.6,476.6z"/>
						</g>
						<g>
							<path class="st3" d="M967.9,482.9c-3.7-1.1-5.8-2.9-6.4-5.4c-0.6-2.4,0.6-4.8,1.7-6.6c-2.1,0.4-4.8,0.5-6.9-0.9
								c-1.9-1.3-2.9-3.4-3.1-6.5c-0.3-5,2.1-6.9,4.1-7.6c1.9-0.6,4-0.5,5.7-0.2c-1.3-1.8-2.5-4.2-2-6.7c0.5-2.4,2.5-4.3,6.1-5.5
								c3.5-1.2,6.3-1.1,8.2,0.5c1.8,1.5,2.4,3.9,2.5,5.9c1-1.4,2.5-2.7,4.2-3.4c2-0.7,5-0.6,8.4,3.9c2.1,2.9,2.8,5.4,2.2,7.6
								c-0.6,2-2.3,3.6-5,4.6c1.9,0.7,4.1,2,5.1,4.1c1,2.2,0.4,4.9-1.7,7.9c-1.5,2.1-3,3.4-4.7,4c0,0,0,0,0,0c-3.3,1.1-6-0.9-7.8-3
								c-0.1,2.7-0.9,6.1-4.2,7.3C972.5,483.7,970.4,483.6,967.9,482.9z M978,471.9c0,0.1,3.5,6.5,7.6,5.1h0
								c1.2-0.4,2.5-1.5,3.7-3.3c1.7-2.4,2.2-4.4,1.5-6c-1.4-3.2-7.1-3.9-7.2-3.9c-0.5-0.1-0.9-0.5-0.9-1c0-0.5,0.4-0.9,0.8-1
								c0,0,6-0.8,7.1-4.3c0.5-1.6-0.1-3.6-1.9-5.9c-2.1-2.8-4.2-3.9-6.2-3.2c-3,1-5,5.5-5,5.5c-0.2,0.4-0.7,0.7-1.2,0.5
								c-0.5-0.1-0.8-0.6-0.7-1.1c0-0.1,0.9-5.7-1.8-7.9c-1.3-1.1-3.5-1.2-6.3-0.2c-2.8,1-4.5,2.4-4.8,4.1c-0.7,3.4,3.5,7.3,3.5,7.3
								c0.3,0.3,0.4,0.8,0.2,1.2c-0.2,0.4-0.7,0.6-1.2,0.4c0,0-4.5-1.6-7.5-0.6c-2.1,0.7-3,2.6-2.8,5.6c0.2,2.4,0.9,4.1,2.3,5
								c2.3,1.5,6,0.5,7.4,0c0.5-0.2,0.8-0.3,0.8-0.3c0.4-0.2,0.9,0,1.2,0.3c0.3,0.4,0.2,0.9-0.1,1.2c0,0-4.1,4-3.3,7.3
								c0.4,1.7,2.1,3,5.1,4c2.1,0.7,3.8,0.8,5.1,0.3c4.1-1.4,2.6-8.7,2.6-8.8c-0.1-0.5,0.2-1,0.6-1.1c0,0,0,0,0,0
								C977.2,471.3,977.8,471.5,978,471.9z"/>
							<path class="st3" d="M968.1,464.2c1.1,3.1,4.5,4.7,7.5,3.6c3.1-1.1,4.7-4.5,3.6-7.5c-1.1-3.1-4.4-4.7-7.5-3.6
								C968.7,457.7,967,461.1,968.1,464.2z"/>
						</g>
						<g>
							<path class="st3" d="M938.5,551.9c-2.8-2.6-3.9-5.2-3.3-7.6c0.6-2.4,2.6-4.1,4.5-5.2c-2.1-0.6-4.5-1.6-5.8-3.8
								c-1.1-2-1.1-4.4,0.1-7.2c1.9-4.6,4.9-5.2,7.1-5c1.9,0.2,3.8,1.3,5.2,2.3c-0.4-2.1-0.4-4.9,1.2-6.9c1.5-2,4.2-2.7,7.9-2.2
								c3.7,0.5,6.1,1.9,7.1,4.1c0.9,2.1,0.4,4.5-0.4,6.5c1.5-0.7,3.4-1.4,5.3-1.1c2.1,0.3,4.8,1.7,5.8,7.2c0.6,3.5,0.1,6.1-1.4,7.8
								c-1.4,1.5-3.7,2.2-6.6,1.9c1.4,1.5,2.8,3.6,2.7,5.9c-0.1,2.4-1.8,4.6-5,6.4c-2.2,1.2-4.2,1.7-6,1.5l0,0
								c-3.5-0.4-5-3.5-5.7-6.1c-1.3,2.4-3.5,5.1-7,4.7C942.3,554.8,940.4,553.8,938.5,551.9z M952.4,546.6c0,0.1,0.2,7.4,4.5,7.9
								l0,0c1.3,0.2,2.9-0.3,4.8-1.3c2.6-1.4,3.9-3,4-4.7c0.1-3.5-4.6-6.7-4.7-6.7c-0.4-0.3-0.6-0.8-0.3-1.2
								c0.2-0.4,0.7-0.7,1.2-0.5c0,0,5.7,1.9,8.2-0.7c1.1-1.2,1.5-3.3,0.9-6.1c-0.6-3.5-2-5.4-4.1-5.6c-3.1-0.4-6.9,2.7-7,2.7
								c-0.4,0.3-0.9,0.3-1.3,0c-0.4-0.3-0.4-0.9-0.1-1.3c0,0,3.3-4.7,1.9-7.9c-0.7-1.6-2.6-2.6-5.6-3c-3-0.4-5,0.1-6.1,1.5
								c-2.1,2.7-0.1,8.1-0.1,8.1c0.2,0.4,0,0.9-0.4,1.2c-0.4,0.2-0.9,0.2-1.2-0.2c0,0-3.3-3.4-6.5-3.8c-2.2-0.3-3.8,1-5,3.8
								c-0.9,2.2-1,4.1-0.2,5.5c1.4,2.4,5.1,3.1,6.6,3.3c0.5,0.1,0.9,0.1,0.9,0.1c0.5,0,0.9,0.4,0.9,0.8c0.1,0.5-0.2,0.9-0.7,1.1
								c-0.1,0-5.5,1.8-6.2,5.1c-0.4,1.7,0.5,3.7,2.8,5.8c1.6,1.5,3.1,2.4,4.4,2.6c4.3,0.5,6.2-6.6,6.2-6.7c0.1-0.5,0.6-0.8,1.1-0.7
								c0,0,0,0,0,0C952,545.7,952.4,546.1,952.4,546.6z"/>
							<path class="st3" d="M947,535.3c-0.4,3.2,1.9,6.2,5.1,6.6c3.2,0.4,6.2-1.9,6.6-5.1s-1.9-6.2-5.1-6.6
								C950.4,529.8,947.4,532.1,947,535.3z"/>
						</g>
						<g>
							<path class="st3" d="M1007.5,573.7c-3.4-1.8-5.1-4-5.3-6.5c-0.1-2.5,1.5-4.7,2.9-6.2c-2.2,0-4.8-0.4-6.6-2.1
								c-1.6-1.6-2.2-3.9-1.8-7c0.6-4.9,3.3-6.4,5.5-6.7c1.9-0.3,4,0.2,5.7,0.8c-0.9-2-1.7-4.6-0.7-7c0.9-2.3,3.3-3.7,7-4.3
								c3.7-0.5,6.4,0.2,7.9,2.1c1.5,1.8,1.6,4.3,1.4,6.3c1.3-1.1,2.9-2.2,4.8-2.5c2.1-0.3,5.1,0.4,7.5,5.4c1.5,3.2,1.8,5.9,0.7,7.9
								c-1,1.8-3,3.1-5.8,3.6c1.8,1.1,3.7,2.7,4.2,5c0.6,2.4-0.5,4.9-3.2,7.5c-1.8,1.8-3.6,2.8-5.3,3.1l0,0
								c-3.5,0.5-5.8-2.1-7.1-4.4c-0.6,2.7-2,5.8-5.5,6.4C1011.9,575.4,1009.8,574.9,1007.5,573.7z M1019.4,564.8
								c0,0.1,2.2,7.1,6.5,6.5h0c1.3-0.2,2.7-1,4.3-2.5c2.1-2.1,3-3.9,2.6-5.6c-0.8-3.4-6.2-5.2-6.3-5.2c-0.5-0.2-0.7-0.6-0.7-1.1
								c0.1-0.5,0.5-0.8,1-0.8c0,0,6,0.3,7.8-2.9c0.8-1.5,0.5-3.5-0.7-6.1c-1.5-3.2-3.4-4.7-5.4-4.4c-3.1,0.5-6,4.5-6,4.5
								c-0.3,0.4-0.8,0.5-1.3,0.3c-0.4-0.2-0.6-0.7-0.5-1.2c0-0.1,1.9-5.5-0.2-8.1c-1.1-1.3-3.2-1.8-6.1-1.4c-3,0.4-4.8,1.5-5.5,3.1
								c-1.3,3.2,2.1,7.8,2.1,7.8c0.3,0.4,0.3,0.9-0.1,1.2c-0.3,0.3-0.8,0.4-1.2,0.2c0,0-4.1-2.4-7.3-2c-2.2,0.3-3.4,2-3.8,5
								c-0.3,2.4,0.1,4.2,1.3,5.4c2,2,5.7,1.6,7.3,1.4c0.5-0.1,0.8-0.2,0.9-0.2c0.4-0.1,0.9,0.1,1.1,0.6c0.2,0.4,0,0.9-0.4,1.2
								c0,0-4.8,3.2-4.6,6.6c0.1,1.8,1.5,3.4,4.2,4.8c2,1,3.6,1.5,5,1.3c4.3-0.6,4.2-8,4.2-8.1c0-0.5,0.3-0.9,0.8-1c0,0,0,0,0,0
								C1018.9,564.1,1019.3,564.4,1019.4,564.8z"/>
							<path class="st3" d="M1011.2,555.4c0.5,3.2,3.5,5.5,6.7,5c3.2-0.5,5.5-3.5,5-6.7c-0.5-3.2-3.5-5.5-6.7-5
								C1013,549.2,1010.8,552.2,1011.2,555.4z"/>
						</g>
						<g>
							<path class="st3" d="M853.9,458.2c-3.8-0.6-6.2-2-7.1-4.3c-0.9-2.3-0.2-4.9,0.7-6.8c-2,0.8-4.7,1.3-7,0.2c-2-1-3.4-3-4.1-6
								c-1.1-4.9,1-7.1,2.9-8.1c1.7-0.9,3.9-1.1,5.6-1.1c-1.5-1.5-3.1-3.8-3-6.3c0.1-2.5,1.9-4.6,5.2-6.4c3.3-1.8,6.1-2,8.2-0.7
								c2,1.2,2.9,3.5,3.4,5.5c0.8-1.5,2-3.1,3.7-3.9c1.9-1,4.9-1.3,8.9,2.6c2.5,2.5,3.6,4.9,3.3,7.2c-0.3,2-1.8,3.9-4.3,5.4
								c2,0.4,4.4,1.4,5.6,3.3c1.3,2.1,1.2,4.8-0.5,8.1c-1.1,2.3-2.5,3.9-4,4.7c0,0,0,0,0,0c-3.1,1.6-6.1,0-8.2-1.8
								c0.3,2.7,0.1,6.2-3,7.8C858.7,458.4,856.5,458.6,853.9,458.2z M862.3,445.8c0,0.1,4.4,6,8.3,3.9h0c1.2-0.6,2.2-1.9,3.2-3.8
								c1.3-2.6,1.5-4.7,0.6-6.2c-1.9-2.9-7.6-2.8-7.7-2.8c-0.5,0-0.9-0.3-1-0.8c-0.1-0.5,0.2-0.9,0.7-1.1c0,0,5.8-1.7,6.4-5.3
								c0.2-1.6-0.7-3.5-2.7-5.5c-2.5-2.5-4.7-3.3-6.6-2.3c-2.8,1.5-4.1,6.2-4.1,6.2c-0.1,0.5-0.6,0.8-1.1,0.7
								c-0.5-0.1-0.8-0.5-0.8-1c0-0.1,0-5.8-2.9-7.6c-1.5-0.9-3.6-0.6-6.3,0.8c-2.7,1.4-4.1,3-4.2,4.7c-0.2,3.4,4.6,6.7,4.6,6.7
								c0.4,0.3,0.5,0.8,0.4,1.2c-0.2,0.4-0.6,0.7-1.1,0.6c0,0-4.6-0.9-7.5,0.6c-2,1-2.6,3-1.9,6c0.5,2.4,1.5,3.9,3,4.6
								c2.5,1.2,6-0.4,7.3-1.1c0.5-0.2,0.8-0.4,0.8-0.4c0.4-0.3,0.9-0.2,1.2,0.2c0.3,0.3,0.3,0.9,0.1,1.3c0,0-3.4,4.6-2.2,7.8
								c0.7,1.6,2.5,2.7,5.6,3.1c2.2,0.3,3.9,0.2,5.1-0.4c3.8-2,1.3-9,1.2-9.1c-0.2-0.5,0-1,0.5-1.2c0,0,0,0,0,0
								C861.4,445.3,862,445.5,862.3,445.8z"/>
							<path class="st3" d="M851.3,439.7c1.5,2.9,5.1,4,8,2.5c2.9-1.5,4-5.1,2.5-8c-1.5-2.9-5.1-4-8-2.5
								C850.9,433.2,849.8,436.8,851.3,439.7z"/>
						</g>
						<g>
							<path class="st3" d="M900,405.5c-1.7-3.4-1.9-6.2-0.6-8.3c1.3-2.1,3.9-3,6-3.4c-1.8-1.2-3.7-3.1-4.2-5.6
								c-0.4-2.2,0.4-4.5,2.5-6.8c3.3-3.7,6.4-3.3,8.3-2.3c1.8,0.9,3.2,2.5,4.1,3.9c0.4-2.1,1.3-4.8,3.4-6.1
								c2.1-1.3,4.8-1.1,8.2,0.5c3.3,1.7,5.1,3.8,5.3,6.3c0.2,2.3-1.1,4.4-2.5,6c1.7-0.2,3.7-0.1,5.3,0.7c1.9,0.9,3.9,3.2,3,8.7
								c-0.6,3.5-1.9,5.8-4,6.9c-1.8,0.9-4.2,0.8-6.8-0.4c0.8,1.9,1.4,4.4,0.6,6.5c-0.9,2.3-3.2,3.7-6.9,4.3
								c-2.5,0.4-4.6,0.2-6.1-0.6c0,0,0,0,0,0c-3.1-1.6-3.5-5-3.3-7.7c-2,1.8-5,3.6-8.1,2.1C902.6,409.5,901.2,407.9,900,405.5z
								 M914.9,405.2c0,0.1-2.3,7,1.6,9v0c1.2,0.6,2.8,0.7,4.9,0.4c2.9-0.5,4.7-1.5,5.4-3.1c1.3-3.2-2.1-7.8-2.2-7.9
								c-0.3-0.4-0.3-0.9,0.1-1.3c0.4-0.3,0.9-0.4,1.3-0.1c0,0,4.8,3.8,8,2.1c1.5-0.7,2.5-2.6,2.9-5.4c0.6-3.5-0.1-5.7-2-6.7
								c-2.8-1.4-7.4,0.2-7.5,0.2c-0.5,0.2-1,0-1.2-0.5c-0.2-0.4-0.1-1,0.3-1.2c0,0,4.7-3.4,4.5-6.8c-0.1-1.7-1.6-3.3-4.2-4.7
								c-2.7-1.4-4.8-1.6-6.3-0.6c-2.9,1.8-2.8,7.6-2.8,7.6c0,0.5-0.3,0.9-0.8,1c-0.5,0.1-0.9-0.1-1.1-0.6c0,0-1.9-4.3-4.8-5.8
								c-2-1-3.9-0.4-6,1.9c-1.6,1.8-2.3,3.5-2,5.1c0.5,2.7,3.8,4.6,5.1,5.3c0.5,0.2,0.8,0.4,0.8,0.4c0.4,0.2,0.7,0.6,0.6,1.1
								c-0.1,0.5-0.5,0.8-1,0.8c-0.1,0-5.7-0.1-7.6,2.7c-0.9,1.5-0.7,3.6,0.7,6.4c1,2,2.1,3.3,3.3,3.9c3.9,1.9,8-4.2,8.1-4.2
								c0.3-0.4,0.8-0.5,1.2-0.3l0,0C914.8,404.2,915,404.7,914.9,405.2z"/>
							<path class="st3" d="M913.5,392.7c-1.5,2.9-0.3,6.5,2.6,8c2.9,1.5,6.5,0.3,8-2.6c1.5-2.9,0.3-6.5-2.6-7.9
								C918.6,388.6,915,389.8,913.5,392.7z"/>
						</g>
						<g>
							<path class="st3" d="M844.8,381.3c-3.1-2.2-4.6-4.6-4.5-7c0.2-2.5,2-4.4,3.7-5.8c-2.2-0.2-4.7-0.9-6.3-2.9
								c-1.4-1.8-1.8-4.2-1-7.2c1.2-4.8,4-5.9,6.2-6c2-0.1,4,0.7,5.5,1.5c-0.7-2.1-1.1-4.8,0.1-7c1.2-2.2,3.7-3.3,7.5-3.4
								c3.7-0.1,6.3,0.9,7.6,3c1.2,1.9,1.1,4.4,0.6,6.4c1.4-1,3.2-1.9,5-1.9c2.1-0.1,5,1,6.8,6.3c1.2,3.4,1.1,6-0.2,7.9
								c-1.2,1.7-3.3,2.7-6.2,2.9c1.6,1.3,3.3,3.2,3.6,5.5c0.3,2.4-1.1,4.8-4,7c-2,1.5-3.9,2.4-5.7,2.4c0,0,0,0,0,0
								c-3.5,0.1-5.5-2.7-6.6-5.2c-0.9,2.6-2.7,5.6-6.2,5.7C849,383.6,847,382.8,844.8,381.3z M857.8,374c0,0.1,1.3,7.3,5.7,7.2l0,0
								c1.3,0,2.8-0.7,4.5-2c2.3-1.8,3.4-3.6,3.3-5.3c-0.4-3.4-5.6-5.9-5.6-5.9c-0.4-0.2-0.7-0.7-0.5-1.2c0.1-0.5,0.6-0.8,1.1-0.7
								c0,0,6,1.1,8-1.9c0.9-1.4,0.9-3.4,0-6.2c-1.1-3.3-2.8-5-4.9-5c-3.2,0.1-6.4,3.7-6.5,3.8c-0.3,0.4-0.9,0.4-1.3,0.2
								c-0.4-0.3-0.5-0.8-0.3-1.2c0-0.1,2.6-5.2,0.7-8.1c-0.9-1.5-2.9-2.2-5.9-2.1c-3,0.1-5,0.9-5.8,2.4c-1.7,3,1.1,8,1.2,8
								c0.2,0.4,0.1,0.9-0.2,1.2c-0.4,0.3-0.9,0.3-1.2,0c0,0-3.8-2.9-7-2.8c-2.2,0.1-3.6,1.5-4.4,4.5c-0.6,2.4-0.4,4.2,0.6,5.5
								c1.8,2.2,5.5,2.3,7.1,2.3c0.5,0,0.9-0.1,0.9-0.1c0.5-0.1,0.9,0.2,1,0.7c0.1,0.5-0.1,0.9-0.5,1.2c-0.1,0-5.1,2.6-5.4,6
								c-0.1,1.8,1.1,3.5,3.6,5.3c1.8,1.3,3.4,1.9,4.8,1.9c4.3-0.1,5.1-7.5,5.1-7.6c0-0.5,0.4-0.9,0.9-0.9h0
								C857.3,373.1,857.7,373.5,857.8,374z"/>
							<path class="st3" d="M850.7,363.6c0.1,3.3,2.8,5.8,6.1,5.8c3.3-0.1,5.8-2.8,5.8-6.1c-0.1-3.3-2.8-5.8-6.1-5.8
								C853.2,357.6,850.6,360.3,850.7,363.6z"/>
						</g>
						<g>
							<path class="st3" d="M903.5,343.5c-3.8,0.3-6.5-0.6-7.9-2.6c-1.4-2-1.3-4.7-0.9-6.8c-1.8,1.2-4.3,2.3-6.7,1.8
								c-2.2-0.5-4-2.1-5.3-4.9c-2.2-4.5-0.7-7.1,1-8.6c1.5-1.3,3.5-2,5.2-2.4c-1.8-1.2-3.9-3-4.4-5.5c-0.4-2.4,0.8-4.9,3.6-7.4
								c2.8-2.5,5.4-3.3,7.8-2.6c2.2,0.7,3.7,2.7,4.6,4.6c0.5-1.6,1.3-3.5,2.6-4.7c1.6-1.4,4.5-2.4,9.2,0.5c3,1.9,4.7,4,4.9,6.3
								c0.2,2.1-0.8,4.2-2.9,6.2c2.1,0,4.6,0.3,6.2,1.9c1.8,1.7,2.2,4.4,1.4,8c-0.6,2.5-1.5,4.3-2.8,5.5c0,0,0,0,0,0
								c-2.6,2.3-6,1.4-8.4,0.2c1,2.5,1.5,6-1.2,8.3C908.1,342.6,906.1,343.3,903.5,343.5z M908.7,329.5c0.1,0.1,5.6,4.8,8.9,1.9
								l0,0c1-0.9,1.7-2.4,2.2-4.4c0.7-2.9,0.4-4.9-0.9-6.1c-2.5-2.4-8.1-1-8.1-1c-0.5,0.1-1-0.1-1.2-0.6c-0.2-0.5,0-1,0.4-1.2
								c0,0,5.3-3,5-6.6c-0.1-1.6-1.5-3.2-3.9-4.8c-3-1.8-5.3-2.1-6.9-0.7c-2.4,2.1-2.6,7-2.6,7c0,0.5-0.4,0.9-0.9,0.9
								c-0.5,0-0.9-0.3-1-0.8c0-0.1-1.3-5.6-4.6-6.7c-1.7-0.5-3.6,0.2-5.9,2.2c-2.3,2-3.3,3.9-3,5.6c0.6,3.4,6,5.4,6,5.5
								c0.4,0.2,0.7,0.6,0.6,1.1c-0.1,0.5-0.5,0.8-0.9,0.8c0,0-4.7,0.2-7.2,2.3c-1.7,1.5-1.8,3.5-0.5,6.3c1.1,2.2,2.4,3.5,4,3.8
								c2.7,0.6,5.7-1.7,6.9-2.7c0.4-0.3,0.6-0.6,0.6-0.6c0.3-0.3,0.9-0.4,1.2-0.1c0.4,0.3,0.5,0.8,0.3,1.2c0,0-2.3,5.3-0.3,8
								c1,1.4,3.1,2,6.2,1.8c2.2-0.2,3.9-0.7,4.9-1.6c3.3-2.9-0.8-9-0.9-9.1c-0.3-0.4-0.2-1,0.2-1.3c0,0,0,0,0,0
								C907.8,329.2,908.4,329.2,908.7,329.5z"/>
							<path class="st3" d="M896.7,326.1c2.2,2.5,5.9,2.7,8.4,0.6c2.5-2.2,2.7-5.9,0.6-8.4c-2.2-2.5-5.9-2.7-8.4-0.6
								C894.8,319.9,894.5,323.6,896.7,326.1z"/>
						</g>
						<g>
							<path class="st3" d="M824.2,521.2c-2-3.3-2.4-6.1-1.2-8.3c1.2-2.2,3.6-3.2,5.7-3.8c-1.9-1.1-3.9-2.8-4.6-5.3
								c-0.6-2.2,0.1-4.5,2-6.9c3.1-3.9,6.1-3.7,8.1-2.9c1.8,0.8,3.3,2.3,4.4,3.6c0.2-2.1,0.9-4.8,3-6.3c2-1.5,4.7-1.5,8.2,0
								c3.5,1.4,5.4,3.4,5.8,5.9c0.3,2.3-0.8,4.5-2.1,6.1c1.7-0.3,3.7-0.4,5.4,0.3c1.9,0.8,4.1,2.9,3.6,8.5
								c-0.3,3.6-1.5,5.9-3.5,7.1c-1.8,1.1-4.1,1.1-6.9,0.1c1,1.8,1.7,4.2,1,6.5c-0.8,2.3-3,4-6.5,4.8c-2.5,0.6-4.5,0.5-6.2-0.1
								c0,0,0,0,0,0c-3.2-1.3-3.9-4.7-3.8-7.4c-1.9,2-4.7,4-8,2.6C827.1,525,825.6,523.5,824.2,521.2z M839,519.8
								c0,0.1-1.8,7.2,2.2,8.9v0c1.2,0.5,2.9,0.5,5,0c2.9-0.7,4.6-1.8,5.1-3.5c1.1-3.3-2.7-7.7-2.7-7.7c-0.3-0.4-0.3-0.9,0-1.3
								c0.3-0.4,0.9-0.4,1.3-0.2c0,0,5,3.4,8.1,1.5c1.4-0.9,2.3-2.8,2.5-5.6c0.3-3.5-0.5-5.7-2.4-6.5c-2.9-1.2-7.4,0.8-7.4,0.8
								c-0.4,0.2-1,0-1.2-0.4c-0.3-0.4-0.2-1,0.2-1.3c0,0,4.5-3.7,4-7.1c-0.3-1.7-1.8-3.2-4.6-4.3c-2.8-1.2-4.9-1.2-6.3-0.2
								c-2.8,2-2.2,7.8-2.2,7.8c0,0.5-0.2,0.9-0.7,1c-0.5,0.1-0.9-0.1-1.1-0.5c0,0-2.2-4.2-5.2-5.4c-2-0.9-4-0.1-5.8,2.3
								c-1.5,1.9-2.1,3.7-1.7,5.2c0.7,2.7,4.1,4.4,5.5,5c0.5,0.2,0.8,0.3,0.8,0.3c0.4,0.1,0.7,0.6,0.7,1.1c-0.1,0.5-0.5,0.8-0.9,0.8
								c-0.1,0-5.7,0.3-7.4,3.3c-0.8,1.5-0.4,3.7,1.1,6.3c1.1,1.9,2.4,3.1,3.6,3.7c4,1.7,7.7-4.7,7.8-4.8c0.2-0.4,0.8-0.6,1.2-0.4
								l0,0C838.9,518.8,839.2,519.3,839,519.8z"/>
							<path class="st3" d="M836.8,507.5c-1.3,3,0.2,6.5,3.2,7.7c3,1.3,6.5-0.2,7.7-3.2c1.3-3-0.2-6.5-3.2-7.7
								C841.5,503,838.1,504.4,836.8,507.5z"/>
						</g>
						<g>
							<path class="st3" d="M660.2,482.6c-3.6-1.3-5.7-3.2-6.1-5.7c-0.4-2.4,0.8-4.8,2.1-6.5c-2.2,0.3-4.8,0.3-6.9-1.2
								c-1.8-1.3-2.7-3.6-2.8-6.7c-0.1-5,2.4-6.8,4.5-7.4c1.9-0.5,4-0.3,5.7,0.1c-1.2-1.8-2.3-4.4-1.7-6.8c0.6-2.4,2.8-4.1,6.4-5.2
								c3.6-1,6.3-0.7,8.2,1c1.7,1.6,2.2,4,2.2,6.1c1.1-1.3,2.6-2.6,4.4-3.1c2-0.6,5.1-0.3,8.2,4.4c2,3,2.6,5.6,1.8,7.7
								c-0.7,1.9-2.5,3.4-5.3,4.4c1.9,0.8,4,2.2,4.8,4.4c0.9,2.3,0.2,4.9-2.1,7.8c-1.6,2-3.2,3.3-4.9,3.8c0,0,0,0,0,0
								c-3.4,1-6-1.3-7.6-3.4c-0.2,2.7-1.2,6.1-4.6,7C664.8,483.8,662.7,483.5,660.2,482.6z M670.9,472.2c0,0.1,3.1,6.7,7.3,5.5l0,0
								c1.3-0.4,2.6-1.4,3.9-3.1c1.8-2.3,2.4-4.3,1.8-5.9c-1.2-3.2-6.9-4.3-6.9-4.3c-0.5-0.1-0.8-0.5-0.8-1c0-0.5,0.4-0.9,0.9-0.9
								c0,0,6-0.5,7.3-3.9c0.6-1.5,0-3.6-1.6-6c-1.9-3-4-4.2-6-3.6c-3,0.9-5.3,5.2-5.3,5.3c-0.2,0.4-0.7,0.6-1.2,0.5
								c-0.5-0.2-0.7-0.6-0.6-1.1c0-0.1,1.2-5.7-1.3-8c-1.3-1.2-3.4-1.4-6.3-0.5c-2.9,0.8-4.6,2.1-5,3.8c-0.9,3.3,3.1,7.4,3.2,7.5
								c0.3,0.3,0.4,0.8,0.1,1.2c-0.3,0.4-0.8,0.5-1.2,0.4c0,0-4.4-1.8-7.5-0.9c-2.1,0.6-3.1,2.4-3.1,5.5c0,2.4,0.7,4.2,2,5.1
								c2.2,1.7,5.9,0.9,7.4,0.4c0.5-0.2,0.8-0.3,0.8-0.3c0.4-0.2,0.9,0,1.2,0.4c0.2,0.4,0.2,0.9-0.2,1.2c0,0-4.3,3.8-3.7,7.2
								c0.3,1.7,2,3.1,4.8,4.2c2.1,0.8,3.8,1,5.1,0.6c4.2-1.2,3.1-8.5,3.1-8.6c-0.1-0.5,0.2-0.9,0.7-1.1c0,0,0,0,0,0
								C670.2,471.6,670.7,471.8,670.9,472.2z"/>
							<path class="st3" d="M661.4,464c0.9,3.1,4.2,5,7.3,4c3.1-0.9,4.9-4.2,4-7.3c-0.9-3.1-4.2-5-7.3-4
								C662.3,457.6,660.5,460.9,661.4,464z"/>
						</g>
						<g>
							<path class="st3" d="M764.7,559.4c-1.7-3.4-1.9-6.2-0.6-8.3c1.3-2.1,3.9-3,6-3.3c-1.8-1.2-3.7-3.1-4.2-5.6
								c-0.4-2.2,0.5-4.5,2.5-6.8c3.4-3.7,6.4-3.3,8.3-2.3c1.7,0.9,3.1,2.5,4.1,4c0.4-2.1,1.3-4.8,3.4-6.1c2.1-1.3,4.8-1.1,8.2,0.6
								c3.3,1.7,5.1,3.8,5.3,6.3c0.2,2.3-1.2,4.4-2.5,6c1.7-0.2,3.7-0.1,5.3,0.7c1.9,0.9,3.9,3.2,3,8.8c-0.6,3.5-1.9,5.8-4,6.9
								c-1.8,0.9-4.2,0.8-6.8-0.4c0.8,1.9,1.4,4.4,0.5,6.5c-0.9,2.3-3.2,3.7-6.9,4.3c-2.5,0.4-4.6,0.2-6.1-0.6c0,0,0,0,0,0
								c-3.1-1.6-3.5-5-3.3-7.7c-2,1.8-5,3.6-8.1,2C767.3,563.4,765.9,561.8,764.7,559.4z M779.6,559.1c0,0.1-2.3,7,1.6,9v0
								c1.2,0.6,2.8,0.7,4.9,0.4c2.9-0.5,4.7-1.5,5.4-3.1c1.3-3.2-2.1-7.8-2.1-7.9c-0.3-0.4-0.2-0.9,0.1-1.3
								c0.4-0.3,0.9-0.4,1.3-0.1c0,0,4.7,3.8,8,2.1c1.5-0.7,2.5-2.6,3-5.4c0.6-3.5-0.1-5.7-1.9-6.7c-2.8-1.4-7.4,0.2-7.5,0.2
								c-0.5,0.2-1,0-1.2-0.5c-0.2-0.4-0.1-1,0.3-1.2c0,0,4.7-3.3,4.5-6.8c-0.1-1.7-1.5-3.3-4.2-4.7c-2.7-1.4-4.8-1.6-6.3-0.7
								c-2.9,1.8-2.8,7.6-2.8,7.6c0,0.5-0.3,0.9-0.8,1c-0.5,0.1-0.9-0.1-1.1-0.6c0,0-1.9-4.3-4.8-5.8c-2-1-3.9-0.4-6,1.9
								c-1.6,1.8-2.3,3.5-2,5.1c0.5,2.7,3.7,4.7,5.1,5.4c0.5,0.2,0.8,0.4,0.8,0.4c0.4,0.2,0.7,0.6,0.6,1.1c-0.1,0.5-0.5,0.8-1,0.8
								c-0.1,0-5.7-0.2-7.6,2.7c-1,1.5-0.7,3.6,0.7,6.4c1,2,2.1,3.3,3.3,3.9c3.9,2,8.1-4.1,8.1-4.2c0.3-0.4,0.8-0.5,1.2-0.3
								c0,0,0,0,0,0C779.5,558.1,779.8,558.6,779.6,559.1z"/>
							<path class="st3" d="M778.3,546.6c-1.5,2.9-0.3,6.5,2.6,8c2.9,1.5,6.5,0.3,8-2.6c1.5-2.9,0.3-6.5-2.6-8
								C783.4,542.6,779.8,543.7,778.3,546.6z"/>
						</g>
						<g>
							<path class="st3" d="M662.9,570c-3.7-0.8-6-2.5-6.8-4.9c-0.7-2.3,0.2-4.9,1.2-6.7c-2.1,0.6-4.8,0.9-7-0.3
								c-2-1.1-3.2-3.2-3.6-6.3c-0.7-4.9,1.5-7,3.5-7.9c1.8-0.8,3.9-0.8,5.7-0.7c-1.4-1.6-2.8-4-2.5-6.5c0.3-2.5,2.2-4.5,5.7-6
								c3.4-1.5,6.2-1.5,8.2-0.1c1.9,1.3,2.7,3.7,3,5.7c0.9-1.4,2.2-2.9,3.9-3.7c1.9-0.8,5-1,8.6,3.3c2.3,2.7,3.3,5.2,2.7,7.4
								c-0.5,2-2.1,3.7-4.7,5c2,0.6,4.3,1.7,5.4,3.7c1.2,2.2,0.8,4.9-1.1,8c-1.3,2.2-2.8,3.7-4.4,4.3c0,0,0,0,0,0
								c-3.2,1.4-6.1-0.5-8-2.4c0.1,2.7-0.4,6.2-3.6,7.6C667.6,570.6,665.5,570.6,662.9,570z M672.2,558.3c0,0.1,3.9,6.3,7.9,4.5
								l0,0c1.2-0.5,2.4-1.7,3.5-3.6c1.5-2.5,1.9-4.6,1-6.1c-1.6-3-7.4-3.4-7.4-3.4c-0.5,0-0.9-0.4-0.9-0.9c0-0.5,0.3-0.9,0.8-1
								c0,0,5.9-1.3,6.7-4.8c0.4-1.6-0.4-3.5-2.3-5.7c-2.3-2.7-4.5-3.6-6.4-2.8c-2.9,1.3-4.6,5.9-4.6,5.9c-0.2,0.5-0.6,0.7-1.1,0.6
								c-0.5-0.1-0.8-0.5-0.8-1c0-0.1,0.4-5.8-2.4-7.8c-1.4-1-3.5-0.9-6.3,0.3c-2.8,1.2-4.3,2.7-4.5,4.4c-0.4,3.4,4,7,4.1,7
								c0.4,0.3,0.5,0.8,0.3,1.2c-0.2,0.4-0.7,0.6-1.1,0.5c0,0-4.6-1.3-7.5,0c-2,0.9-2.8,2.8-2.4,5.8c0.3,2.4,1.2,4,2.6,4.8
								c2.4,1.4,6,0.1,7.4-0.5c0.5-0.2,0.8-0.4,0.8-0.4c0.4-0.2,0.9-0.1,1.2,0.3c0.3,0.4,0.3,0.9,0,1.3c0,0-3.8,4.3-2.7,7.6
								c0.5,1.7,2.3,2.9,5.4,3.6c2.2,0.5,3.9,0.5,5.1-0.1c4-1.7,1.9-8.9,1.9-8.9c-0.1-0.5,0.1-1,0.5-1.2c0,0,0,0,0,0
								C671.4,557.8,671.9,557.9,672.2,558.3z"/>
							<path class="st3" d="M661.8,551.4c1.3,3,4.8,4.4,7.8,3.1c3-1.3,4.4-4.8,3.1-7.8c-1.3-3-4.8-4.4-7.8-3.1
								C661.8,544.9,660.5,548.4,661.8,551.4z"/>
						</g>
						<g>
							<path class="st3" d="M776.4,654.3c-3.1-2.3-4.5-4.7-4.3-7.2c0.2-2.4,2.1-4.4,3.8-5.7c-2.2-0.3-4.7-1.1-6.3-3.1
								c-1.4-1.8-1.6-4.2-0.8-7.2c1.3-4.8,4.2-5.8,6.4-5.8c2,0,3.9,0.8,5.5,1.6c-0.6-2.1-1-4.8,0.3-7c1.3-2.1,3.8-3.2,7.6-3.2
								c3.8,0,6.3,1.1,7.6,3.2c1.2,2,1,4.5,0.5,6.4c1.4-0.9,3.2-1.8,5.1-1.8c2.1,0,5,1.1,6.6,6.5c1.1,3.4,0.9,6.1-0.5,7.9
								c-1.2,1.7-3.4,2.6-6.3,2.7c1.6,1.3,3.2,3.2,3.4,5.6c0.2,2.4-1.2,4.8-4.2,6.9c-2.1,1.5-4,2.2-5.7,2.2c0,0,0,0,0,0
								c-3.5,0-5.4-2.9-6.4-5.4c-1,2.5-2.8,5.5-6.3,5.5C780.5,656.6,778.5,655.8,776.4,654.3z M789.5,647.3c0,0.1,1.1,7.3,5.5,7.3h0
								c1.3,0,2.9-0.6,4.6-1.9c2.4-1.7,3.5-3.5,3.4-5.2c-0.3-3.4-5.4-6-5.5-6.1c-0.4-0.2-0.6-0.7-0.5-1.2c0.2-0.5,0.6-0.7,1.1-0.6
								c0,0,5.9,1.2,8.1-1.7c1-1.3,1-3.4,0.2-6.2c-1.1-3.4-2.7-5.1-4.8-5.1c-3.2,0-6.5,3.5-6.6,3.6c-0.3,0.4-0.9,0.4-1.3,0.1
								c-0.4-0.3-0.5-0.8-0.3-1.3c0-0.1,2.7-5.1,0.9-8.1c-0.9-1.5-2.9-2.2-5.9-2.2c-3,0-5,0.8-5.9,2.2c-1.8,3,0.9,8,0.9,8.1
								c0.2,0.4,0.1,0.9-0.2,1.2c-0.4,0.3-0.9,0.3-1.2,0c0,0-3.7-3-6.9-3c-2.2,0-3.7,1.4-4.5,4.4c-0.7,2.3-0.5,4.2,0.5,5.5
								c1.7,2.2,5.4,2.5,7,2.5c0.5,0,0.9,0,0.9,0c0.5,0,0.9,0.3,1,0.7c0.1,0.5-0.1,0.9-0.5,1.1c-0.1,0-5.2,2.5-5.5,5.9
								c-0.2,1.7,1,3.6,3.5,5.4c1.8,1.3,3.4,2,4.7,2c4.3,0,5.3-7.3,5.3-7.4c0.1-0.5,0.5-0.9,1-0.9c0,0,0,0,0,0
								C789,646.4,789.4,646.8,789.5,647.3z"/>
							<path class="st3" d="M782.7,636.7c0,3.3,2.7,5.9,5.9,5.9c3.3,0,5.9-2.7,5.9-5.9c0-3.3-2.7-5.9-5.9-5.9
								C785.4,630.8,782.7,633.5,782.7,636.7z"/>
						</g>
						<g>
							<path class="st3" d="M732.1,618.3c-3.8-0.6-6.2-2-7.1-4.3c-0.9-2.3-0.2-4.9,0.7-6.8c-2,0.8-4.7,1.3-7,0.2c-2-1-3.4-3-4.1-6
								c-1.1-4.9,1-7.1,2.9-8.1c1.7-0.9,3.9-1.1,5.6-1.1c-1.5-1.5-3.1-3.8-3-6.3c0.1-2.5,1.9-4.6,5.2-6.4c3.3-1.7,6.1-2,8.2-0.7
								c2,1.2,2.9,3.5,3.4,5.5c0.8-1.5,2-3.1,3.7-3.9c1.9-1,4.9-1.3,8.9,2.6c2.5,2.5,3.6,4.9,3.3,7.2c-0.3,2-1.8,3.9-4.3,5.3
								c2,0.4,4.4,1.4,5.6,3.3c1.3,2.1,1.2,4.8-0.5,8.1c-1.1,2.3-2.5,3.9-4,4.7c0,0,0,0,0,0c-3.1,1.6-6.1,0-8.2-1.8
								c0.3,2.7,0.1,6.2-3,7.8C736.8,618.5,734.7,618.7,732.1,618.3z M740.4,606c0,0.1,4.4,6,8.3,3.9h0c1.2-0.6,2.2-1.9,3.2-3.8
								c1.3-2.6,1.5-4.7,0.6-6.2c-1.9-2.9-7.6-2.8-7.7-2.8c-0.5,0-0.9-0.3-1-0.8c-0.1-0.5,0.2-0.9,0.7-1.1c0,0,5.8-1.7,6.4-5.3
								c0.2-1.6-0.7-3.5-2.7-5.5c-2.5-2.5-4.7-3.3-6.6-2.3c-2.8,1.5-4.1,6.2-4.1,6.2c-0.1,0.5-0.6,0.8-1.1,0.7
								c-0.5-0.1-0.8-0.5-0.8-1c0-0.1,0-5.8-2.9-7.6c-1.5-0.9-3.6-0.6-6.3,0.8c-2.7,1.4-4.1,3-4.2,4.7c-0.2,3.4,4.6,6.7,4.6,6.7
								c0.4,0.3,0.5,0.8,0.4,1.2c-0.2,0.4-0.6,0.7-1.1,0.6c0,0-4.6-0.9-7.5,0.6c-2,1-2.6,3-1.9,6c0.5,2.4,1.5,3.9,3,4.6
								c2.5,1.2,6-0.4,7.3-1.1c0.5-0.2,0.8-0.4,0.8-0.4c0.4-0.3,0.9-0.2,1.2,0.2c0.3,0.3,0.3,0.9,0.1,1.3c0,0-3.4,4.6-2.2,7.8
								c0.7,1.6,2.5,2.7,5.6,3.1c2.2,0.3,3.9,0.2,5.1-0.5c3.8-2,1.3-9,1.2-9.1c-0.2-0.5,0-1,0.5-1.2c0,0,0,0,0,0
								C739.6,605.5,740.1,605.6,740.4,606z"/>
							<path class="st3" d="M729.5,599.9c1.5,2.9,5.1,4,8,2.5c2.9-1.5,4-5.1,2.5-8c-1.5-2.9-5.1-4-8-2.5
								C729.1,593.4,728,597,729.5,599.9z"/>
						</g>
						<g>
							<path class="st3" d="M702.4,681.4c-2-3.3-2.4-6.1-1.2-8.3c1.2-2.2,3.6-3.2,5.7-3.8c-1.9-1.1-3.9-2.8-4.6-5.3
								c-0.6-2.2,0.1-4.5,2-6.9c3.1-3.9,6.1-3.7,8.1-2.9c1.8,0.8,3.3,2.3,4.4,3.6c0.2-2.1,0.9-4.8,3-6.3c2-1.5,4.7-1.5,8.2,0
								c3.5,1.4,5.4,3.4,5.8,5.9c0.3,2.3-0.8,4.5-2.1,6.1c1.7-0.3,3.7-0.4,5.4,0.3c1.9,0.8,4.1,2.9,3.6,8.5
								c-0.3,3.6-1.5,5.9-3.5,7.1c-1.8,1.1-4.1,1.1-6.9,0.1c1,1.8,1.7,4.2,1,6.5c-0.8,2.3-3,4-6.5,4.8c-2.5,0.6-4.5,0.5-6.2-0.1
								c0,0,0,0,0,0c-3.2-1.3-3.9-4.7-3.8-7.4c-1.9,2-4.7,4-8,2.6C705.2,685.1,703.7,683.7,702.4,681.4z M717.2,679.9
								c0,0.1-1.8,7.2,2.2,8.9v0c1.2,0.5,2.9,0.5,5,0c2.9-0.7,4.6-1.8,5.1-3.5c1.1-3.3-2.7-7.7-2.7-7.7c-0.3-0.4-0.3-0.9,0-1.3
								c0.3-0.4,0.9-0.4,1.3-0.2c0,0,5,3.4,8.1,1.5c1.4-0.9,2.3-2.8,2.5-5.6c0.3-3.5-0.5-5.7-2.4-6.5c-2.9-1.2-7.4,0.8-7.4,0.8
								c-0.4,0.2-1,0-1.2-0.4c-0.3-0.4-0.2-1,0.2-1.3c0,0,4.5-3.7,4-7.1c-0.3-1.7-1.8-3.2-4.6-4.3c-2.8-1.2-4.9-1.2-6.3-0.2
								c-2.8,2-2.2,7.8-2.2,7.8c0,0.5-0.2,0.9-0.7,1c-0.5,0.1-0.9-0.1-1.1-0.5c0,0-2.2-4.2-5.2-5.4c-2-0.9-4-0.1-5.8,2.3
								c-1.5,1.9-2.1,3.7-1.6,5.2c0.7,2.7,4.1,4.4,5.5,5c0.5,0.2,0.8,0.3,0.8,0.3c0.4,0.1,0.7,0.6,0.7,1.1c-0.1,0.5-0.5,0.8-0.9,0.8
								c-0.1,0-5.7,0.3-7.4,3.3c-0.8,1.5-0.4,3.7,1.1,6.3c1.1,1.9,2.4,3.1,3.6,3.7c4,1.7,7.7-4.7,7.8-4.8c0.2-0.4,0.8-0.6,1.2-0.4
								l0,0C717.1,679,717.3,679.5,717.2,679.9z"/>
							<path class="st3" d="M715,667.6c-1.3,3,0.2,6.5,3.2,7.7c3,1.3,6.5-0.2,7.7-3.2c1.3-3-0.2-6.5-3.2-7.7
								C719.7,663.2,716.2,664.6,715,667.6z"/>
						</g>
						<g>
							<path class="st3" d="M660.2,642.8c-3.6-1.3-5.7-3.2-6.1-5.7c-0.4-2.4,0.8-4.8,2.1-6.5c-2.2,0.3-4.8,0.3-6.9-1.2
								c-1.8-1.3-2.7-3.6-2.8-6.7c-0.1-5,2.4-6.8,4.5-7.4c1.9-0.5,4-0.3,5.7,0.1c-1.2-1.8-2.3-4.4-1.7-6.8c0.6-2.4,2.8-4.1,6.4-5.2
								c3.6-1,6.3-0.7,8.2,1c1.7,1.6,2.2,4,2.2,6.1c1.1-1.3,2.6-2.6,4.4-3.1c2-0.6,5.1-0.3,8.2,4.4c2,3,2.6,5.6,1.8,7.7
								c-0.7,1.9-2.5,3.4-5.3,4.4c1.9,0.8,4,2.2,4.8,4.4c0.9,2.3,0.2,4.9-2.1,7.8c-1.6,2-3.2,3.3-4.9,3.8c0,0,0,0,0,0
								c-3.4,1-6-1.3-7.6-3.4c-0.2,2.7-1.2,6.1-4.6,7C664.8,643.9,662.7,643.7,660.2,642.8z M670.9,632.4c0,0.1,3.1,6.7,7.3,5.5l0,0
								c1.3-0.4,2.6-1.4,3.9-3.1c1.8-2.3,2.4-4.3,1.8-5.9c-1.2-3.2-6.9-4.3-6.9-4.3c-0.5-0.1-0.8-0.5-0.8-1c0-0.5,0.4-0.9,0.9-0.9
								c0,0,6-0.5,7.3-3.9c0.6-1.6,0-3.6-1.6-6c-1.9-2.9-4-4.2-6-3.6c-3,0.9-5.3,5.2-5.3,5.3c-0.2,0.4-0.7,0.6-1.2,0.5
								c-0.5-0.2-0.7-0.6-0.6-1.1c0-0.1,1.2-5.7-1.3-8c-1.3-1.2-3.4-1.4-6.3-0.5c-2.9,0.8-4.6,2.1-5,3.8c-0.9,3.3,3.1,7.4,3.2,7.5
								c0.3,0.3,0.4,0.8,0.1,1.2c-0.3,0.4-0.8,0.5-1.2,0.4c0,0-4.4-1.8-7.5-0.9c-2.1,0.6-3.1,2.4-3.1,5.5c0,2.4,0.7,4.2,2,5.1
								c2.2,1.7,5.9,0.9,7.4,0.4c0.5-0.2,0.8-0.3,0.8-0.3c0.4-0.2,0.9,0,1.2,0.4c0.2,0.4,0.2,0.9-0.2,1.2c0,0-4.3,3.8-3.7,7.2
								c0.3,1.7,2,3.1,4.8,4.2c2.1,0.8,3.8,1,5.1,0.6c4.2-1.2,3.1-8.5,3.1-8.6c-0.1-0.5,0.2-0.9,0.7-1.1c0,0,0,0,0,0
								C670.2,631.7,670.7,631.9,670.9,632.4z"/>
							<path class="st3" d="M661.4,624.2c0.9,3.1,4.2,5,7.3,4c3.1-0.9,4.9-4.2,4-7.3c-0.9-3.1-4.2-5-7.3-4
								C662.3,617.7,660.5,621,661.4,624.2z"/>
						</g>
						<g>
							<path class="st3" d="M599.1,610.7c-3.6-1.3-5.6-3.2-6.1-5.7c-0.4-2.4,0.8-4.8,2.1-6.5c-2.2,0.3-4.8,0.3-6.9-1.2
								c-1.8-1.3-2.7-3.6-2.8-6.7c-0.1-5,2.4-6.8,4.5-7.4c1.9-0.5,4-0.3,5.7,0.1c-1.2-1.8-2.3-4.4-1.7-6.8c0.6-2.4,2.8-4.1,6.4-5.2
								c3.6-1,6.3-0.7,8.2,1c1.7,1.6,2.2,4,2.2,6.1c1.1-1.3,2.6-2.6,4.4-3.1c2-0.6,5.1-0.3,8.2,4.4c2,3,2.6,5.6,1.8,7.7
								c-0.7,1.9-2.5,3.4-5.3,4.4c1.9,0.8,4,2.2,4.8,4.4c0.9,2.3,0.2,4.9-2.1,7.8c-1.6,2-3.2,3.3-4.9,3.8c0,0,0,0,0,0
								c-3.4,1-6-1.3-7.6-3.4c-0.2,2.7-1.2,6.1-4.6,7C603.7,611.8,601.6,611.6,599.1,610.7z M609.7,600.3c0,0.1,3.1,6.7,7.3,5.5l0,0
								c1.3-0.4,2.6-1.4,3.9-3.1c1.8-2.3,2.4-4.3,1.8-5.9c-1.2-3.2-6.9-4.3-6.9-4.3c-0.5-0.1-0.8-0.5-0.8-1c0-0.5,0.4-0.9,0.9-0.9
								c0,0,6-0.5,7.3-3.9c0.6-1.6,0-3.6-1.6-6c-1.9-2.9-4-4.2-6-3.6c-3,0.9-5.3,5.2-5.3,5.3c-0.2,0.4-0.7,0.6-1.2,0.5
								c-0.5-0.2-0.7-0.6-0.6-1.1c0-0.1,1.2-5.7-1.3-8c-1.3-1.2-3.4-1.4-6.3-0.5c-2.9,0.8-4.6,2.1-5,3.8c-0.9,3.3,3.1,7.4,3.2,7.5
								c0.3,0.3,0.4,0.8,0.1,1.2c-0.3,0.4-0.8,0.5-1.2,0.4c0,0-4.4-1.8-7.5-0.9c-2.1,0.6-3.1,2.4-3.1,5.5c0,2.4,0.7,4.2,2,5.1
								c2.2,1.7,5.9,0.9,7.4,0.4c0.5-0.2,0.8-0.3,0.8-0.3c0.4-0.2,0.9,0,1.2,0.4c0.2,0.4,0.2,0.9-0.2,1.2c0,0-4.3,3.8-3.7,7.2
								c0.3,1.7,1.9,3.1,4.8,4.2c2.1,0.8,3.8,1,5.1,0.6c4.2-1.2,3.1-8.5,3.1-8.6c-0.1-0.5,0.2-0.9,0.7-1.1c0,0,0,0,0,0
								C609.1,599.6,609.5,599.9,609.7,600.3z"/>
							<path class="st3" d="M600.3,592.1c0.9,3.1,4.2,5,7.3,4c3.1-0.9,5-4.2,4-7.3c-0.9-3.1-4.2-5-7.3-4
								C601.2,585.6,599.4,588.9,600.3,592.1z"/>
						</g>
						<g>
							<path class="st3" d="M598.5,691.9c-3-2.4-4.3-4.9-3.9-7.4c0.4-2.4,2.3-4.3,4.1-5.5c-2.1-0.4-4.7-1.3-6.1-3.4
								c-1.3-1.9-1.4-4.3-0.4-7.2c1.6-4.7,4.5-5.6,6.7-5.5c2,0.1,3.9,1,5.4,1.9c-0.5-2.1-0.7-4.9,0.7-7c1.4-2.1,4-3,7.7-2.8
								c3.7,0.2,6.2,1.4,7.4,3.6c1.1,2,0.7,4.5,0.1,6.5c1.5-0.9,3.3-1.6,5.2-1.5c2.1,0.1,4.9,1.4,6.3,6.8c0.9,3.5,0.6,6.1-0.9,7.9
								c-1.3,1.6-3.5,2.4-6.4,2.4c1.5,1.4,3,3.4,3.1,5.7c0.1,2.5-1.5,4.7-4.6,6.7c-2.1,1.4-4.1,2-5.8,1.9c0,0,0,0,0,0
								c-3.5-0.2-5.2-3.2-6.1-5.7c-1.1,2.5-3.1,5.3-6.6,5.1C602.5,694.5,600.5,693.6,598.5,691.9z M612,685.6c0,0.1,0.7,7.4,5.1,7.6
								l0,0c1.3,0.1,2.9-0.5,4.7-1.6c2.5-1.6,3.7-3.3,3.7-5c-0.1-3.5-5.1-6.3-5.1-6.4c-0.4-0.2-0.6-0.8-0.4-1.2
								c0.2-0.5,0.7-0.7,1.1-0.6c0,0,5.9,1.5,8.2-1.3c1-1.3,1.2-3.3,0.5-6.2c-0.9-3.4-2.4-5.2-4.5-5.3c-3.2-0.2-6.7,3.2-6.8,3.2
								c-0.4,0.3-0.9,0.4-1.3,0.1c-0.4-0.3-0.5-0.8-0.2-1.3c0,0,3-5,1.4-8c-0.8-1.5-2.7-2.4-5.8-2.6c-3-0.2-5,0.5-6,1.9
								c-1.9,2.9,0.5,8,0.5,8.1c0.2,0.4,0.1,0.9-0.3,1.2c-0.4,0.3-0.9,0.2-1.2-0.1c0,0-3.5-3.2-6.7-3.4c-2.2-0.1-3.8,1.2-4.7,4.1
								c-0.8,2.3-0.7,4.2,0.2,5.5c1.6,2.3,5.3,2.8,6.8,2.8c0.5,0,0.9,0,0.9,0c0.5,0,0.9,0.3,1,0.8c0.1,0.5-0.2,0.9-0.6,1.1
								c-0.1,0-5.3,2.2-5.8,5.5c-0.3,1.7,0.8,3.6,3.2,5.6c1.7,1.4,3.3,2.2,4.6,2.2c4.3,0.2,5.7-7.1,5.7-7.1c0.1-0.5,0.5-0.8,1-0.8
								c0,0,0,0,0,0C611.6,684.8,611.9,685.2,612,685.6z"/>
							<path class="st3" d="M605.8,674.8c-0.2,3.3,2.3,6.1,5.6,6.2c3.3,0.2,6.1-2.3,6.2-5.6c0.2-3.3-2.3-6.1-5.6-6.2
								C608.8,669,606,671.5,605.8,674.8z"/>
						</g>
						<g>
							<path class="st3" d="M764.7,719.6c-1.7-3.4-1.9-6.2-0.6-8.3c1.3-2.1,3.9-3,6-3.3c-1.8-1.2-3.7-3.1-4.2-5.6
								c-0.4-2.2,0.5-4.5,2.5-6.8c3.4-3.7,6.4-3.3,8.3-2.3c1.7,0.9,3.1,2.5,4.1,4c0.4-2.1,1.3-4.8,3.4-6.1c2.1-1.3,4.8-1.1,8.2,0.6
								c3.3,1.7,5.1,3.8,5.3,6.3c0.2,2.3-1.2,4.4-2.5,6c1.7-0.2,3.7-0.1,5.3,0.7c1.9,0.9,3.9,3.2,3,8.8c-0.6,3.5-1.9,5.8-4,6.9
								c-1.8,0.9-4.2,0.8-6.8-0.4c0.8,1.9,1.4,4.4,0.5,6.5c-0.9,2.3-3.2,3.7-6.9,4.3c-2.5,0.4-4.6,0.2-6.1-0.6c0,0,0,0,0,0
								c-3.1-1.6-3.5-5-3.3-7.7c-2,1.8-5,3.6-8.1,2C767.3,723.5,765.9,721.9,764.7,719.6z M779.6,719.3c0,0.1-2.3,7,1.6,9v0
								c1.2,0.6,2.8,0.7,4.9,0.4c2.9-0.5,4.7-1.5,5.4-3.1c1.3-3.2-2.1-7.8-2.1-7.9c-0.3-0.4-0.2-0.9,0.1-1.3
								c0.4-0.3,0.9-0.4,1.3-0.1c0,0,4.7,3.8,8,2.1c1.5-0.7,2.5-2.6,3-5.4c0.6-3.5-0.1-5.7-1.9-6.7c-2.8-1.4-7.4,0.2-7.5,0.2
								c-0.5,0.2-1,0-1.2-0.5c-0.2-0.4-0.1-1,0.3-1.2c0,0,4.7-3.3,4.5-6.8c-0.1-1.7-1.5-3.3-4.2-4.7c-2.7-1.4-4.8-1.6-6.3-0.7
								c-2.9,1.8-2.8,7.6-2.8,7.6c0,0.5-0.3,0.9-0.8,1c-0.5,0.1-0.9-0.1-1.1-0.6c0,0-1.9-4.3-4.8-5.8c-2-1-3.9-0.4-6,1.9
								c-1.6,1.8-2.3,3.5-2,5.1c0.5,2.7,3.7,4.7,5.1,5.4c0.5,0.2,0.8,0.4,0.8,0.4c0.4,0.2,0.7,0.6,0.6,1.1c-0.1,0.5-0.5,0.8-1,0.8
								c-0.1,0-5.7-0.2-7.6,2.7c-1,1.5-0.7,3.6,0.7,6.4c1,2,2.1,3.3,3.3,3.9c3.9,2,8.1-4.1,8.1-4.2c0.3-0.4,0.8-0.5,1.2-0.3
								c0,0,0,0,0,0C779.5,718.3,779.8,718.8,779.6,719.3z"/>
							<path class="st3" d="M778.3,706.8c-1.5,2.9-0.3,6.5,2.6,8c2.9,1.5,6.5,0.3,8-2.6c1.5-2.9,0.3-6.5-2.6-8
								C783.4,702.7,779.8,703.9,778.3,706.8z"/>
						</g>
						<g>
							<path class="st3" d="M663.3,735.4c-3.7-0.8-6-2.5-6.8-4.9c-0.7-2.3,0.2-4.9,1.2-6.7c-2.1,0.6-4.8,0.9-7-0.3
								c-2-1.1-3.2-3.2-3.6-6.3c-0.7-4.9,1.5-7,3.5-7.9c1.8-0.8,3.9-0.8,5.7-0.7c-1.4-1.6-2.8-4-2.5-6.5c0.3-2.5,2.2-4.5,5.7-6
								c3.4-1.5,6.2-1.5,8.2-0.1c1.9,1.3,2.7,3.7,3,5.7c0.9-1.4,2.2-2.9,3.9-3.7c1.9-0.8,5-1,8.6,3.3c2.3,2.7,3.3,5.2,2.7,7.4
								c-0.5,2-2.1,3.7-4.7,5c2,0.6,4.3,1.7,5.4,3.7c1.2,2.2,0.8,4.9-1.1,8c-1.3,2.2-2.8,3.7-4.4,4.3c0,0,0,0,0,0
								c-3.2,1.4-6.1-0.5-8-2.4c0.1,2.7-0.4,6.2-3.6,7.6C668,735.9,665.9,736,663.3,735.4z M672.6,723.7c0,0.1,3.9,6.3,7.9,4.5l0,0
								c1.2-0.5,2.4-1.7,3.5-3.6c1.5-2.5,1.9-4.6,1-6.1c-1.6-3-7.4-3.4-7.4-3.4c-0.5,0-0.9-0.4-0.9-0.9c0-0.5,0.3-0.9,0.8-1
								c0,0,5.9-1.3,6.7-4.8c0.4-1.6-0.4-3.5-2.3-5.7c-2.3-2.7-4.5-3.6-6.4-2.8c-2.9,1.3-4.6,5.9-4.6,5.9c-0.2,0.5-0.6,0.7-1.1,0.6
								c-0.5-0.1-0.8-0.5-0.8-1c0-0.1,0.4-5.8-2.4-7.8c-1.4-1-3.5-0.9-6.3,0.3c-2.8,1.2-4.3,2.7-4.5,4.4c-0.4,3.4,4,7,4.1,7
								c0.4,0.3,0.5,0.8,0.3,1.2c-0.2,0.4-0.7,0.6-1.1,0.5c0,0-4.6-1.3-7.5,0c-2,0.9-2.8,2.8-2.4,5.8c0.3,2.4,1.2,4,2.6,4.8
								c2.4,1.4,6,0.1,7.4-0.5c0.5-0.2,0.8-0.4,0.8-0.4c0.4-0.2,0.9-0.1,1.2,0.3c0.3,0.4,0.3,0.9,0,1.3c0,0-3.8,4.3-2.7,7.6
								c0.5,1.7,2.3,2.9,5.4,3.6c2.2,0.5,3.9,0.5,5.1-0.1c4-1.7,1.9-8.9,1.9-8.9c-0.1-0.5,0.1-1,0.5-1.2c0,0,0,0,0,0
								C671.8,723.1,672.3,723.3,672.6,723.7z"/>
							<path class="st3" d="M662.2,716.8c1.3,3,4.8,4.4,7.8,3.1c3-1.3,4.4-4.8,3.1-7.8c-1.3-3-4.8-4.4-7.8-3.1
								C662.2,710.3,660.9,713.8,662.2,716.8z"/>
						</g>
						<g>
							<path class="st3" d="M713,775.6c-2.9-2.5-4.1-5-3.6-7.5c0.5-2.4,2.5-4.2,4.3-5.3c-2.1-0.5-4.6-1.5-6-3.6
								c-1.2-1.9-1.3-4.3-0.2-7.2c1.7-4.7,4.7-5.4,6.9-5.2c2,0.2,3.9,1.1,5.3,2.1c-0.4-2.1-0.6-4.9,0.9-6.9c1.4-2,4.1-2.9,7.8-2.5
								c3.7,0.3,6.2,1.6,7.3,3.8c1,2.1,0.6,4.5-0.1,6.5c1.5-0.8,3.4-1.5,5.2-1.3c2.1,0.2,4.8,1.5,6,7c0.8,3.5,0.4,6.1-1.1,7.9
								c-1.4,1.6-3.6,2.3-6.5,2.2c1.5,1.5,2.9,3.5,2.9,5.8c0,2.5-1.6,4.7-4.8,6.6c-2.2,1.3-4.2,1.9-5.9,1.7c0,0,0,0,0,0
								c-3.5-0.3-5.1-3.3-5.9-5.9c-1.2,2.5-3.3,5.2-6.8,4.9C716.9,778.3,715,777.3,713,775.6z M726.7,769.7c0,0.1,0.5,7.4,4.8,7.8
								l0,0c1.3,0.1,2.9-0.4,4.7-1.5c2.5-1.5,3.8-3.2,3.8-4.9c0-3.5-4.9-6.5-4.9-6.5c-0.4-0.3-0.6-0.8-0.4-1.2
								c0.2-0.5,0.7-0.7,1.2-0.5c0,0,5.8,1.7,8.2-1c1.1-1.2,1.3-3.3,0.7-6.1c-0.8-3.5-2.2-5.3-4.3-5.5c-3.2-0.3-6.8,3-6.9,3
								c-0.4,0.3-0.9,0.3-1.3,0c-0.4-0.3-0.4-0.9-0.2-1.3c0,0,3.1-4.9,1.6-8c-0.8-1.6-2.7-2.5-5.7-2.7c-3-0.3-5,0.3-6.1,1.7
								c-2,2.8,0.2,8.1,0.3,8.1c0.2,0.4,0,0.9-0.3,1.2c-0.4,0.3-0.9,0.2-1.2-0.1c0,0-3.4-3.3-6.6-3.6c-2.2-0.2-3.8,1.1-4.9,4
								c-0.9,2.3-0.8,4.1,0,5.5c1.5,2.4,5.2,2.9,6.7,3.1c0.5,0,0.9,0,0.9,0c0.5,0,0.9,0.3,1,0.8c0.1,0.5-0.2,0.9-0.6,1.1
								c-0.1,0-5.4,2-6,5.4c-0.3,1.7,0.7,3.6,3,5.7c1.7,1.5,3.2,2.3,4.5,2.4c4.3,0.4,5.9-6.9,5.9-6.9c0.1-0.5,0.5-0.8,1-0.8
								c0,0,0,0,0,0C726.3,768.8,726.6,769.2,726.7,769.7z"/>
							<path class="st3" d="M720.8,758.7c-0.3,3.3,2.1,6.1,5.4,6.4c3.3,0.3,6.1-2.1,6.4-5.4c0.3-3.3-2.1-6.1-5.4-6.4
								C724,753,721.1,755.4,720.8,758.7z"/>
						</g>
						<g>
							<path class="st3" d="M597.2,775.4c-2.9-2.5-4.1-5-3.6-7.5c0.5-2.4,2.5-4.2,4.3-5.3c-2.1-0.5-4.6-1.5-6-3.6
								c-1.2-1.9-1.3-4.3-0.2-7.2c1.7-4.7,4.7-5.4,6.9-5.2c2,0.2,3.9,1.1,5.3,2.1c-0.4-2.1-0.6-4.9,0.9-6.9c1.4-2,4.1-2.9,7.8-2.5
								c3.7,0.3,6.2,1.6,7.3,3.8c1,2.1,0.6,4.5-0.1,6.5c1.5-0.8,3.4-1.5,5.2-1.3c2.1,0.2,4.8,1.5,6,7c0.8,3.5,0.4,6.1-1.1,7.9
								c-1.4,1.6-3.6,2.3-6.5,2.2c1.5,1.5,2.9,3.5,2.9,5.8c0,2.5-1.6,4.7-4.8,6.6c-2.2,1.3-4.2,1.9-5.9,1.7c0,0,0,0,0,0
								c-3.5-0.3-5.1-3.3-5.9-5.9c-1.2,2.5-3.3,5.2-6.8,4.9C601.1,778.1,599.2,777.1,597.2,775.4z M610.9,769.5
								c0,0.1,0.5,7.4,4.8,7.8v0c1.3,0.1,2.9-0.4,4.7-1.5c2.5-1.5,3.8-3.2,3.8-4.9c0-3.5-4.9-6.5-4.9-6.5c-0.4-0.3-0.6-0.8-0.4-1.2
								c0.2-0.5,0.7-0.7,1.2-0.5c0,0,5.8,1.7,8.2-1c1.1-1.2,1.3-3.3,0.7-6.1c-0.8-3.5-2.2-5.3-4.3-5.5c-3.2-0.3-6.8,3-6.9,3
								c-0.4,0.3-0.9,0.3-1.3,0c-0.4-0.3-0.4-0.9-0.2-1.3c0,0,3.1-4.9,1.6-8c-0.8-1.6-2.7-2.5-5.7-2.7c-3-0.3-5,0.3-6.1,1.7
								c-2,2.8,0.2,8.1,0.3,8.1c0.2,0.4,0,0.9-0.3,1.2c-0.4,0.3-0.9,0.2-1.2-0.1c0,0-3.4-3.3-6.6-3.6c-2.2-0.2-3.8,1.1-4.9,4
								c-0.9,2.3-0.8,4.1,0,5.5c1.5,2.4,5.2,2.9,6.7,3.1c0.5,0,0.9,0,0.9,0c0.5,0,0.9,0.3,1,0.8c0.1,0.5-0.2,0.9-0.6,1.1
								c0,0-5.4,2-6,5.3c-0.3,1.7,0.7,3.6,3,5.7c1.7,1.5,3.2,2.3,4.5,2.4c4.3,0.4,5.9-6.9,5.9-6.9c0.1-0.5,0.5-0.8,1-0.8
								c0,0,0,0,0,0C610.5,768.7,610.8,769,610.9,769.5z"/>
							<path class="st3" d="M605,758.5c-0.3,3.3,2.1,6.1,5.4,6.4c3.3,0.3,6.1-2.1,6.4-5.4c0.3-3.3-2.1-6.1-5.4-6.4
								C608.2,752.8,605.3,755.2,605,758.5z"/>
						</g>
						<g>
							<path class="st3" d="M766.4,845.6c-3.7-0.8-6-2.4-6.8-4.8c-0.8-2.3,0.1-4.9,1.2-6.7c-2.1,0.6-4.7,0.9-7-0.3
								c-2-1.1-3.2-3.2-3.7-6.2c-0.7-4.9,1.5-7,3.5-7.9c1.8-0.8,3.9-0.9,5.7-0.7c-1.4-1.6-2.9-4-2.6-6.5c0.3-2.5,2.2-4.5,5.6-6
								c3.4-1.5,6.2-1.6,8.2-0.2c1.9,1.3,2.7,3.7,3,5.7c0.9-1.4,2.2-2.9,3.9-3.7c1.9-0.9,5-1,8.7,3.2c2.4,2.7,3.3,5.2,2.8,7.4
								c-0.4,2-2,3.8-4.6,5.1c2,0.6,4.3,1.7,5.4,3.7c1.2,2.2,0.8,4.9-1,8c-1.3,2.2-2.7,3.7-4.3,4.4c0,0,0,0,0,0
								c-3.2,1.4-6.1-0.4-8-2.3c0.2,2.7-0.4,6.2-3.6,7.6C771.1,846.1,769,846.2,766.4,845.6z M775.6,833.9c0,0.1,4,6.2,8,4.5l0,0
								c1.2-0.5,2.4-1.7,3.4-3.6c1.5-2.6,1.8-4.6,1-6.1c-1.7-3-7.4-3.3-7.5-3.3c-0.5,0-0.9-0.4-0.9-0.9c0-0.5,0.3-0.9,0.8-1
								c0,0,5.9-1.3,6.7-4.9c0.4-1.6-0.4-3.5-2.4-5.7c-2.3-2.7-4.5-3.6-6.4-2.7c-2.9,1.3-4.5,5.9-4.5,5.9c-0.2,0.5-0.6,0.7-1.1,0.6
								c-0.5-0.1-0.8-0.5-0.8-1c0-0.1,0.4-5.8-2.4-7.7c-1.4-1-3.5-0.9-6.3,0.3c-2.8,1.2-4.3,2.7-4.5,4.4c-0.4,3.4,4.1,6.9,4.1,7
								c0.4,0.3,0.5,0.8,0.3,1.2c-0.2,0.4-0.7,0.6-1.1,0.5c0,0-4.6-1.2-7.5,0.1c-2,0.9-2.8,2.8-2.3,5.8c0.4,2.4,1.3,4,2.7,4.8
								c2.5,1.3,6,0,7.4-0.6c0.5-0.2,0.8-0.4,0.8-0.4c0.4-0.2,0.9-0.1,1.2,0.2c0.3,0.4,0.3,0.9,0,1.3c0,0-3.7,4.4-2.7,7.6
								c0.6,1.7,2.4,2.8,5.4,3.5c2.2,0.5,3.9,0.4,5.1-0.1c4-1.8,1.9-8.9,1.8-9c-0.1-0.5,0.1-1,0.5-1.2c0,0,0,0,0,0
								C774.8,833.3,775.3,833.5,775.6,833.9z"/>
							<path class="st3" d="M765.1,827c1.3,3,4.8,4.3,7.8,3c3-1.3,4.3-4.8,3-7.8c-1.3-3-4.8-4.3-7.8-3
								C765.1,820.5,763.8,824,765.1,827z"/>
						</g>
						<g>
							<path class="st3" d="M643.2,821.8c-1.9-3.3-2.3-6.1-1.1-8.3c1.2-2.1,3.7-3.2,5.8-3.7c-1.9-1.1-3.9-2.9-4.5-5.3
								c-0.5-2.2,0.2-4.5,2.1-6.9c3.1-3.9,6.2-3.7,8.2-2.8c1.8,0.8,3.3,2.3,4.4,3.7c0.3-2.1,1-4.8,3.1-6.3c2-1.5,4.8-1.4,8.2,0.1
								c3.4,1.5,5.3,3.5,5.7,5.9c0.3,2.3-0.9,4.5-2.1,6.1c1.7-0.3,3.7-0.4,5.4,0.4c1.9,0.8,4.1,3,3.5,8.6c-0.4,3.5-1.6,5.9-3.6,7.1
								c-1.8,1-4.2,1-6.9,0c0.9,1.9,1.7,4.3,0.9,6.5c-0.8,2.3-3,3.9-6.6,4.7c-2.5,0.5-4.6,0.5-6.2-0.2c0,0,0,0,0,0
								c-3.2-1.4-3.8-4.8-3.7-7.5c-1.9,2-4.8,3.9-8,2.5C646.1,825.6,644.6,824.1,643.2,821.8z M658.1,820.6c0,0.1-1.9,7.2,2.1,8.9
								l0,0c1.2,0.5,2.9,0.6,5,0.1c2.9-0.6,4.6-1.8,5.2-3.4c1.1-3.3-2.6-7.7-2.6-7.7c-0.3-0.4-0.3-0.9,0-1.3
								c0.3-0.4,0.9-0.4,1.3-0.2c0,0,5,3.5,8.1,1.6c1.4-0.8,2.3-2.7,2.6-5.6c0.4-3.5-0.4-5.7-2.3-6.6c-2.9-1.3-7.4,0.7-7.5,0.7
								c-0.5,0.2-1,0-1.2-0.4c-0.3-0.4-0.2-1,0.2-1.3c0,0,4.5-3.6,4.1-7c-0.2-1.7-1.7-3.2-4.5-4.4c-2.8-1.2-4.9-1.3-6.3-0.3
								c-2.8,2-2.3,7.7-2.3,7.8c0,0.5-0.3,0.9-0.7,1c-0.5,0.1-0.9-0.1-1.1-0.5c0,0-2.2-4.2-5.2-5.5c-2-0.9-4-0.1-5.9,2.2
								c-1.5,1.9-2.1,3.7-1.7,5.2c0.7,2.7,4,4.4,5.4,5c0.5,0.2,0.8,0.3,0.8,0.3c0.4,0.1,0.7,0.6,0.7,1.1c-0.1,0.5-0.5,0.8-0.9,0.8
								c-0.1,0-5.7,0.2-7.4,3.2c-0.9,1.5-0.5,3.7,1.1,6.3c1.1,1.9,2.3,3.2,3.5,3.7c4,1.7,7.8-4.6,7.8-4.7c0.3-0.4,0.8-0.6,1.2-0.4
								c0,0,0,0,0,0C658,819.6,658.2,820.1,658.1,820.6z"/>
							<path class="st3" d="M656.1,808.2c-1.3,3,0.1,6.5,3.1,7.8c3,1.3,6.5-0.1,7.8-3.1c1.3-3-0.1-6.5-3.1-7.8
								C660.8,803.9,657.4,805.2,656.1,808.2z"/>
						</g>
						<g>
							<path class="st3" d="M804,789.6c-1.9-3.3-2.3-6.1-1.1-8.3c1.2-2.1,3.7-3.2,5.8-3.7c-1.9-1.1-3.9-2.9-4.5-5.3
								c-0.5-2.2,0.2-4.5,2.1-6.9c3.1-3.9,6.2-3.7,8.2-2.8c1.8,0.8,3.3,2.3,4.4,3.7c0.3-2.1,1-4.8,3.1-6.3c2-1.5,4.8-1.4,8.2,0.1
								c3.4,1.5,5.3,3.5,5.7,5.9c0.3,2.3-0.9,4.5-2.1,6.1c1.7-0.3,3.7-0.4,5.4,0.4c1.9,0.8,4.1,3,3.5,8.6c-0.4,3.5-1.6,5.9-3.6,7.1
								c-1.8,1-4.2,1-6.9,0c0.9,1.9,1.7,4.3,0.9,6.5c-0.8,2.3-3,3.9-6.6,4.7c-2.5,0.5-4.6,0.5-6.2-0.2c0,0,0,0,0,0
								c-3.2-1.4-3.8-4.8-3.7-7.5c-1.9,2-4.8,3.9-8,2.5C806.8,793.4,805.3,791.9,804,789.6z M818.8,788.4c0,0.1-1.9,7.2,2.1,8.9l0,0
								c1.2,0.5,2.9,0.6,5,0.1c2.9-0.6,4.6-1.8,5.2-3.4c1.1-3.3-2.6-7.7-2.6-7.7c-0.3-0.4-0.3-0.9,0-1.3c0.3-0.4,0.9-0.4,1.3-0.2
								c0,0,5,3.5,8.1,1.6c1.4-0.8,2.3-2.7,2.6-5.6c0.4-3.5-0.4-5.7-2.3-6.6c-2.9-1.3-7.4,0.7-7.5,0.7c-0.5,0.2-1,0-1.2-0.4
								c-0.3-0.4-0.2-1,0.2-1.3c0,0,4.5-3.6,4.1-7c-0.2-1.7-1.7-3.2-4.5-4.4c-2.8-1.2-4.9-1.3-6.3-0.3c-2.8,2-2.3,7.7-2.3,7.8
								c0,0.5-0.3,0.9-0.7,1c-0.5,0.1-0.9-0.1-1.1-0.5c0,0-2.2-4.2-5.2-5.5c-2-0.9-4-0.1-5.9,2.2c-1.5,1.9-2.1,3.7-1.7,5.2
								c0.7,2.7,4,4.4,5.4,5c0.5,0.2,0.8,0.3,0.8,0.3c0.4,0.1,0.7,0.6,0.7,1.1c-0.1,0.5-0.5,0.8-0.9,0.8c-0.1,0-5.7,0.2-7.4,3.2
								c-0.9,1.5-0.5,3.7,1.1,6.3c1.1,1.9,2.3,3.2,3.5,3.7c4,1.7,7.8-4.6,7.8-4.7c0.2-0.4,0.8-0.6,1.2-0.4c0,0,0,0,0,0
								C818.7,787.4,818.9,787.9,818.8,788.4z"/>
							<path class="st3" d="M816.8,776c-1.3,3,0.1,6.5,3.1,7.8c3,1.3,6.5-0.1,7.8-3.1c1.3-3-0.1-6.5-3.1-7.8
								C821.6,771.6,818.1,773,816.8,776z"/>
						</g>
						<g>
							<path class="st3" d="M856.2,861.6c-2.9-2.5-4.1-5-3.7-7.5c0.5-2.4,2.5-4.2,4.3-5.3c-2.1-0.5-4.6-1.5-6-3.6
								c-1.2-1.9-1.3-4.3-0.2-7.2c1.7-4.7,4.7-5.4,6.8-5.3c2,0.2,3.9,1.1,5.3,2.1c-0.4-2.1-0.6-4.9,0.9-6.9c1.4-2,4.1-2.9,7.8-2.6
								c3.7,0.3,6.2,1.6,7.3,3.8c1,2.1,0.6,4.5-0.1,6.5c1.5-0.8,3.4-1.5,5.2-1.4c2.1,0.2,4.8,1.5,6.1,7c0.8,3.5,0.4,6.1-1.1,7.9
								c-1.4,1.6-3.6,2.3-6.5,2.2c1.5,1.5,3,3.5,2.9,5.8c0,2.5-1.6,4.7-4.8,6.6c-2.2,1.3-4.2,1.9-5.9,1.8c0,0,0,0,0,0
								c-3.5-0.3-5.1-3.3-5.9-5.9c-1.2,2.5-3.3,5.2-6.8,4.9C860.1,864.3,858.2,863.3,856.2,861.6z M869.9,855.7
								c0,0.1,0.5,7.4,4.9,7.8v0c1.3,0.1,2.9-0.4,4.7-1.5c2.5-1.5,3.8-3.2,3.8-4.9c0-3.5-4.9-6.5-4.9-6.5c-0.4-0.3-0.6-0.8-0.4-1.2
								c0.2-0.5,0.7-0.7,1.2-0.5c0,0,5.8,1.7,8.2-1c1.1-1.2,1.3-3.3,0.7-6.1c-0.8-3.5-2.2-5.3-4.3-5.5c-3.2-0.3-6.8,3-6.9,3
								c-0.4,0.3-0.9,0.3-1.3,0c-0.4-0.3-0.5-0.9-0.2-1.3c0,0,3.1-4.9,1.6-8c-0.8-1.6-2.7-2.5-5.7-2.7c-3-0.3-5,0.3-6,1.8
								c-2,2.8,0.3,8.1,0.3,8.1c0.2,0.4,0,0.9-0.3,1.2c-0.4,0.3-0.9,0.2-1.2-0.1c0,0-3.4-3.3-6.6-3.5c-2.2-0.2-3.8,1.1-4.8,4
								c-0.8,2.3-0.8,4.1,0,5.5c1.5,2.4,5.2,2.9,6.8,3c0.5,0,0.9,0,0.9,0c0.5,0,0.9,0.3,1,0.8c0.1,0.5-0.2,0.9-0.6,1.1
								c-0.1,0-5.4,2-6,5.4c-0.3,1.7,0.7,3.6,3,5.7c1.7,1.5,3.2,2.3,4.5,2.4c4.3,0.4,5.9-6.9,5.9-7c0.1-0.5,0.5-0.8,1-0.8
								c0,0,0,0,0,0C869.5,854.8,869.9,855.2,869.9,855.7z"/>
							<path class="st3" d="M864,844.6c-0.3,3.3,2.2,6.1,5.4,6.4c3.3,0.3,6.1-2.1,6.4-5.4c0.3-3.3-2.1-6.1-5.4-6.4
								C867.1,838.9,864.3,841.3,864,844.6z"/>
						</g>
						<g>
							<path class="st3" d="M542.7,820.3c-1.7-3.4-1.8-6.3-0.4-8.3c1.4-2,3.9-2.9,6-3.2c-1.8-1.3-3.7-3.2-4.1-5.7
								c-0.4-2.2,0.5-4.5,2.6-6.7c3.4-3.6,6.4-3.2,8.4-2.1c1.7,0.9,3.1,2.6,4.1,4c0.4-2.1,1.4-4.7,3.5-6c2.1-1.3,4.9-1,8.2,0.7
								c3.3,1.8,5.1,3.9,5.2,6.4c0.1,2.3-1.2,4.4-2.6,5.9c1.7-0.2,3.7-0.1,5.3,0.8c1.9,1,3.9,3.3,2.8,8.8c-0.7,3.5-2,5.8-4.1,6.8
								c-1.9,0.9-4.2,0.7-6.8-0.5c0.8,1.9,1.3,4.4,0.4,6.5c-1,2.3-3.3,3.7-7,4.2c-2.5,0.3-4.6,0.1-6.1-0.7c0,0,0,0,0,0
								c-3.1-1.6-3.4-5.1-3.1-7.7c-2,1.8-5.1,3.5-8.2,1.9C545.2,824.4,543.9,822.7,542.7,820.3z M557.6,820.3c0,0.1-2.5,7,1.4,9l0,0
								c1.2,0.6,2.8,0.8,4.9,0.5c2.9-0.4,4.7-1.4,5.4-3c1.4-3.2-2-7.9-2-7.9c-0.3-0.4-0.2-1,0.1-1.3c0.4-0.3,0.9-0.4,1.3,0
								c0,0,4.7,3.9,7.9,2.3c1.5-0.7,2.5-2.5,3-5.4c0.7-3.5,0-5.7-1.8-6.7c-2.8-1.5-7.4,0.1-7.5,0.1c-0.5,0.2-1,0-1.2-0.5
								c-0.2-0.4-0.1-1,0.3-1.2c0,0,4.8-3.3,4.6-6.7c-0.1-1.7-1.5-3.3-4.1-4.7c-2.7-1.4-4.8-1.7-6.3-0.8c-2.9,1.8-2.9,7.5-2.9,7.6
								c0,0.5-0.3,0.9-0.8,1c-0.5,0.1-0.9-0.2-1.1-0.6c0,0-1.8-4.4-4.7-5.9c-2-1-3.9-0.5-6,1.8c-1.7,1.8-2.4,3.5-2.1,5.1
								c0.5,2.8,3.7,4.7,5,5.5c0.5,0.2,0.8,0.4,0.8,0.4c0.4,0.2,0.7,0.7,0.6,1.1c-0.1,0.5-0.5,0.8-1,0.8c-0.1,0-5.7-0.3-7.6,2.6
								c-1,1.5-0.8,3.6,0.6,6.4c1,2,2.1,3.3,3.2,4c3.8,2,8.1-4,8.2-4.1c0.3-0.4,0.8-0.5,1.2-0.3l0,0
								C557.6,819.3,557.8,819.8,557.6,820.3z"/>
							<path class="st3" d="M556.6,807.8c-1.5,2.9-0.4,6.5,2.5,8c2.9,1.5,6.5,0.4,8-2.5c1.5-2.9,0.4-6.5-2.5-8
								C561.7,803.8,558.1,804.9,556.6,807.8z"/>
						</g>
					</g>
				</g>
			</g>
			<g>
				<path class="st12" d="M615.3,392.4c-23.8,54-41.4,67.4-31.7,119.6c-4.7,4.7-9.7,9.6-14.9,14.4c-1.9-17.4-2.3-37.5,2.5-54
					C581.9,435.1,601.7,417,615.3,392.4z"/>
				<path class="st12" d="M634.6,656c30.5,74.3,86.3,139.2,189.6,139.2C748,810.2,647.8,762.7,634.6,656z"/>
				<path class="st12" d="M690.9,519.2c25.1,52.8,57.5,57.2,92.8,59.5C737.5,587,704.6,573.5,690.9,519.2z"/>
			</g>
			<g>
				<path class="st12" d="M877.7,478.7c-0.5,0-1.1-0.3-1.4-0.7c-0.2-0.3-21.6-30.8-31-46.1c-0.5-0.8-0.2-1.8,0.6-2.3
					c0.8-0.5,1.8-0.2,2.3,0.6c9.3,15.2,30.6,45.6,30.9,45.9c0.5,0.8,0.4,1.8-0.4,2.4C878.4,478.6,878.1,478.7,877.7,478.7z"/>
				<path class="st12" d="M582.9,512.6c-0.8,0-1.5-0.5-1.7-1.3c-0.3-1.5-7.7-36.1,7.3-66.8c8.6-17.6,14.4-30,18.7-39.1
					c3.1-6.6,5.1-10.9,6.6-13.8c0.4-0.8,1.4-1.2,2.3-0.7c0.8,0.4,1.2,1.4,0.7,2.3c-1.4,2.8-3.5,7.1-6.6,13.7
					c-4.3,9.1-10.2,21.5-18.7,39.2c-14.4,29.6-7.1,64.2-7,64.6c0.2,0.9-0.4,1.8-1.3,2C583.1,512.6,583,512.6,582.9,512.6z"/>
				<path class="st12" d="M777.4,798.5c-0.1,0-0.2,0-0.3,0c-71.2-11.9-106.6-50-123.8-79.8c-18.6-32.3-20.4-62.3-20.4-62.6
					c-0.1-0.9,0.7-1.7,1.6-1.8c1,0,1.7,0.7,1.8,1.6c0,0.3,1.8,29.6,20,61.2c16.8,29.1,51.5,66.3,121.3,78c0.9,0.2,1.5,1,1.4,2
					C778.9,797.9,778.2,798.5,777.4,798.5z"/>
			</g>
		</g>
		<g>
			<path class="st27" d="M531.6,336.5c11.7-11.7,24.3-47.7,24.3-60.7c0-13-2.5-58.4-16.2-43.1c-15.2,15.2-21.7,6.9-32.5,2.4
				c-7.9-7.9-16.5-15.7-24.4,2.4c-5.5,2.4-8.3,7.3-8.3,12.7c-3,3-6.3,11-6.3,15.1c-7.6,7.6-5,13.9,0,24.1c6.4,13,17,33.7,17,47.1
				c0,13.4-29.6,149.2-29.6,189.9c0,49.7,32.1,58.1,54.6,47.6c10.9-5,19.8-26.2,19.8-63.1C530.1,485.9,518,384,531.6,336.5z"/>
			<g>
				<path class="st27" d="M546.6,236.9l-32.4,60.6c-1.4,2.6-4.4,3.9-7.3,3.1c-6-1.7-15.4-5.4-17.8-13.1c-3.5-11.4,25.7-68,25.7-68
					L546.6,236.9z"/>
				<path class="st12" d="M581.4,158.2l10.9,3.3c3.3,1,5.4,4.2,4.8,7.7c-1.5,9.9-5.9,31.6-18.3,60.3c-1.4,3.2-5,4.9-8.3,3.9
					l-9.7-2.9L581.4,158.2z"/>
				<g>
					<path class="st7" d="M527.5,129l51.5,15.4c7.6,2.3,7.3,25.6-0.7,52.1s-20.5,46.2-28.1,43.9L498.7,225L527.5,129z"/>
					<path class="st12" d="M499.4,172.9c-7.9,26.5-8.2,49.9-0.7,52.1c7.6,2.3,20.2-17.4,28.1-43.9c7.9-26.5,8.2-49.9,0.7-52.1
						C519.9,126.7,507.3,146.4,499.4,172.9z"/>
				</g>
				<path class="st27" d="M430.3,66.9l95.5,73.6l-0.3,6.6c-1.2,24.9-9.2,49.8-22.7,70.6l0,0l-119,0.7L430.3,66.9z"/>
				<path class="st27" d="M367.3,130.8c-12.7,42.3-7.3,81.3,12,87.1c14.9,4.5,33.9-12.3,47.5-39.7c4-8,7.5-16.9,10.4-26.4
					c2.6-8.6,4.4-17.1,5.5-25.2c4.4-31.6-2.2-57.3-17.5-61.9C405.8,58.9,379.9,88.5,367.3,130.8z"/>
				<path class="st12" d="M406.7,142.6c-7.9,26.3-8.8,51.3-3.7,67.8c13.3-11,26.3-32.4,34.2-58.7c7.9-26.3,8.8-51.3,3.7-67.8
					C427.5,94.9,414.6,116.3,406.7,142.6z"/>
				<g>
					<path class="st5" d="M406.3,123.6l-10.3,34.5l30.9,19.9c4-8,7.5-16.9,10.4-26.4c2.6-8.6,4.4-17.1,5.5-25.2L406.3,123.6z"/>
					<path class="st12" d="M393.2,138.5c-2.9,9.5-1.6,18.3,2.7,19.6c4.3,1.3,10.2-5.4,13-14.9c2.9-9.5,1.6-18.3-2.7-19.6
						C401.9,122.3,396.1,129,393.2,138.5z"/>
				</g>
			</g>
			<g>
				<path class="st27" d="M506.5,234.1c4.1,2.5,33.1,34.5,19.1,36.4c6.2,7.8,2.5,14.4-9.2,11.3c4.9,10.1-1.4,13.8-9,10.1
					c0,9-8.6,9.7-27.5-4.4"/>
				<g>
					<path class="st1" d="M501.5,299.8c-5.8,0-15.2-5.4-28.7-16.5c-0.5-0.4-0.6-1.1-0.2-1.6c0.4-0.5,1.1-0.6,1.6-0.2
						c18.4,15.2,25.9,16.9,29,15.7c2-0.8,2.6-3.2,2.9-5.4l0.2-1.4l1.3,0.4c4.1,1.3,7,1.4,8.2,0.2c1.3-1.3,1.1-4.3-0.5-8.8l-0.7-1.9
						l2,0.4c6.7,1.4,9.1,0.4,9.9-0.6c1.6-2.1-0.9-7-1.9-9.1l-0.7-1.4l1.6-0.2c2.2-0.3,2.6-1.3,2.7-1.6c1.8-5.5-13.7-23-23.9-32.8
						c-0.5-0.4-0.5-1.1,0-1.6c0.4-0.5,1.1-0.5,1.6,0c2.8,2.7,27.3,26.5,24.5,35.1c-0.3,1-1.1,2.2-3,2.8c1.8,3.9,3,7.6,1,10.2
						c-1.6,2.1-5,2.7-10.3,1.8c1,3.3,1.6,7.1-0.6,9.3c-1.7,1.8-4.8,2-9.2,0.8c-0.5,2.4-1.4,4.9-4.1,5.9
						C503.3,299.6,502.5,299.8,501.5,299.8z"/>
					<path class="st1" d="M525.6,271.6c-0.3,0-0.5-0.1-0.7-0.3c-0.2-0.1-16.7-13.9-32.7-25.4c-0.5-0.4-0.6-1.1-0.3-1.6
						c0.4-0.5,1.1-0.6,1.6-0.3c16.1,11.6,32.7,25.4,32.9,25.5c0.5,0.4,0.5,1.1,0.1,1.6C526.2,271.5,525.9,271.6,525.6,271.6z"/>
					<path class="st1" d="M516.3,283c-0.2,0-0.5-0.1-0.7-0.2c-0.2-0.1-18.5-14.4-32-24c-0.5-0.4-0.6-1.1-0.3-1.6
						c0.4-0.5,1.1-0.6,1.6-0.3c13.6,9.6,31.9,23.9,32.1,24.1c0.5,0.4,0.6,1.1,0.2,1.6C517,282.8,516.7,283,516.3,283z"/>
					<path class="st1" d="M507.3,293c-0.2,0-0.5-0.1-0.7-0.2c-0.2-0.1-15.4-12.2-27.3-20.6c-0.5-0.4-0.6-1.1-0.3-1.6
						c0.4-0.5,1.1-0.6,1.6-0.3c12,8.4,27.2,20.6,27.4,20.7c0.5,0.4,0.6,1.1,0.2,1.6C508,292.9,507.6,293,507.3,293z"/>
				</g>
			</g>
		</g>
		<g>
			<path class="st12" d="M772.9,745.9c7.5,0,10.7-0.5,17.8-1.7c10.1,1.9,53.9-7.6,65.7,0c-5.1-14.3-19.8-51.3-19.8-51.3
				S787.2,720.4,772.9,745.9z"/>
			<g>
				<path class="st27" d="M1040.6,578.8c11.7,19.7-28.2,80.2-149.6,151.8c-15.4,12.5-26.9,15.3-38.1,4.2c-7.4-7.4-30.6-0.2-40,2.8
					c-9.4,3-25.6,12.2-27.1,2.3c-7.9,4.8-20,9.7-20,2.2c-7.5,3-13.8-4.7-1.4-17.1c10.7-10.7,33.1-33.5,52.3-44.4
					c-14.3,0-34.2,11.4-52,16.2c-14.5,3.9-14.8-3.9-5.2-8.5c6.1-2.9,38.6-16.6,55.2-23.6c16.6-7,31,9.9,58.9,25
					c22.2-13.6,65.3-74.9,85.5-99.4C979.2,565.7,1027.4,556.5,1040.6,578.8z"/>
				<path class="st1" d="M785.7,740.9c-0.2,0-0.5-0.1-0.7-0.2c-0.5-0.4-0.6-1.1-0.2-1.6c0.4-0.5,10.3-13.3,47-25.4
					c0.6-0.2,1.2,0.1,1.4,0.7c0.2,0.6-0.1,1.2-0.7,1.4c-35.9,11.9-45.8,24.5-45.9,24.6C786.4,740.8,786.1,740.9,785.7,740.9z"/>
				<path class="st1" d="M765.7,743.1c-0.1,0-0.1,0-0.2,0c-0.6-0.1-1-0.6-0.9-1.2c0.1-1.2,3-12.4,59-46.1c0.5-0.3,1.2-0.2,1.6,0.4
					c0.3,0.5,0.2,1.2-0.4,1.6c-55,33.1-57.8,44-57.9,44.5C766.7,742.7,766.3,743.1,765.7,743.1z"/>
			</g>
		</g>
		<g>
			<path class="st27" d="M643.9,104.1c-14.4,60.6-4.9,137.4,27.9,162.4c11,8.3,30.1,5.2,39.1,3c0,17.5-5.5,31.1-71.8,31.1
				c26,35.8,107.5,111.4,226.2,20.4c-41.5-10.2-101.7-22.3-90.1-107.4c3.9-28.6-8.8-41.5-14.1-75.4
				C687.4,145.4,677.9,108,643.9,104.1z"/>
			<g>
				<path class="st1" d="M709.2,281c1.3-3.6,1.7-7.5,1.7-11.6c25.7-9.2,41.7-17.2,58.6-39.8C760.2,249.7,732.1,288.2,709.2,281z"/>
			</g>
		</g>
	</g>
	<g>
		<g>
			<path class="st12" d="M1225.4,749.3h-207.3c-19.9,0-36,15.7-36,35.1v50.8c0,19.4,16.1,35,36,35h141.4v39.4l51.8-39.4h14
				c19.9,0,36-15.7,36-35v-50.8C1261.4,765,1245.3,749.3,1225.4,749.3z"/>
			<g>
				<path class="st3" d="M1149,790.3h-132c-1.9,0-3.4-1.5-3.4-3.4c0-1.9,1.5-3.4,3.4-3.4h132c1.9,0,3.4,1.5,3.4,3.4
					C1152.4,788.8,1150.9,790.3,1149,790.3z"/>
				<path class="st3" d="M1229.2,790.3h-57.4c-1.9,0-3.4-1.5-3.4-3.4c0-1.9,1.5-3.4,3.4-3.4h57.4c1.9,0,3.4,1.5,3.4,3.4
					C1232.5,788.8,1231,790.3,1229.2,790.3z"/>
				<path class="st3" d="M1088.5,814.8H1017c-1.9,0-3.4-1.5-3.4-3.4c0-1.9,1.5-3.4,3.4-3.4h71.5c1.9,0,3.4,1.5,3.4,3.4
					C1091.9,813.3,1090.3,814.8,1088.5,814.8z"/>
				<path class="st3" d="M1229.2,814.8h-120.8c-1.9,0-3.4-1.5-3.4-3.4c0-1.9,1.5-3.4,3.4-3.4h120.8c1.9,0,3.4,1.5,3.4,3.4
					C1232.5,813.3,1231,814.8,1229.2,814.8z"/>
				<path class="st3" d="M1127.7,839.2H1017c-1.9,0-3.4-1.5-3.4-3.4c0-1.9,1.5-3.4,3.4-3.4h110.7c1.9,0,3.4,1.5,3.4,3.4
					C1131.1,837.7,1129.6,839.2,1127.7,839.2z"/>
				<path class="st3" d="M1229.2,839.2H1149c-1.9,0-3.4-1.5-3.4-3.4c0-1.9,1.5-3.4,3.4-3.4h80.1c1.9,0,3.4,1.5,3.4,3.4
					C1232.5,837.7,1231,839.2,1229.2,839.2z"/>
			</g>
		</g>
		<g>
			<g>
				
					<ellipse transform="matrix(0.2651 -0.9642 0.9642 0.2651 663.6249 1097.3628)" class="st7" cx="1051.7" cy="113.3" rx="62.8" ry="62.8"/>
				<path class="st3" d="M1014.2,100c2.4-17.3,25.6-23.5,37.5-5.4c11.9-18.1,35.1-11.9,37.5,5.4c3.2,23.1-18.6,42.6-37.5,54.4
					C1032.8,142.6,1011,123.1,1014.2,100z"/>
			</g>
			<g>
				<path class="st7" d="M1203,253.3c0,27.8-22.5,50.3-50.3,50.3c-27.8,0-50.3-22.5-50.3-50.3c0-27.8,22.5-50.3,50.3-50.3
					C1180.5,203,1203,225.6,1203,253.3z"/>
				<path class="st3" d="M1122.6,242.7c1.9-13.9,20.5-18.8,30.1-4.3c9.5-14.5,28.2-9.6,30.1,4.3c2.6,18.5-14.9,34.1-30.1,43.6
					C1137.6,276.8,1120,261.2,1122.6,242.7z"/>
			</g>
			<g>
				<circle class="st7" cx="1102.4" cy="369.5" r="39.2"/>
				<path class="st3" d="M1079,361.2c1.5-10.8,16-14.7,23.4-3.4c7.4-11.3,21.9-7.5,23.4,3.4c2,14.4-11.6,26.6-23.4,34
					C1090.6,387.8,1077,375.6,1079,361.2z"/>
			</g>
		</g>
		<g>
			<g>
				<path class="st12" d="M426.7,647.5c0,23.1-18.7,41.8-41.8,41.8c-23.1,0-41.8-18.7-41.8-41.8c0-23.1,18.7-41.8,41.8-41.8
					C407.9,605.7,426.7,624.4,426.7,647.5z"/>
				<path class="st27" d="M407.5,634.8c-2.7,0-5,1.9-5.6,4.4l-10.7-5.1c-2.3-3.1-6.4-8.6-10.6-14c-4.1-5.4-11.3-2.5-8.8,4.2
					c0.7,2,2.6,6.3,4,9.9l-8.6,0c-5.4,0-8.1,2.8-8.1,5.9c0,1.4,0.5,2.7,1.3,3.7c-0.8,1-1.3,2.3-1.3,3.7c0,1.4,0.5,2.7,1.3,3.7
					c-0.8,1-1.3,2.3-1.3,3.7c0,1.4,0.5,2.7,1.3,3.7c-0.8,1-1.3,2.3-1.3,3.7c0,3.1,2.3,5.5,5.3,5.9v0.1c0,0,24.5,0,27.4,0
					c2.2,0,7.5-2.3,10.3-3.5c0.9,2.1,3,3.5,5.4,3.5c3.2,0,5.8-2.6,5.8-5.8v-21.8C413.3,637.4,410.7,634.8,407.5,634.8z"/>
			</g>
			<g>
				<path class="st12" d="M297.7,585.7c1.2,37.2-29.3,67.7-66.5,66.5c-33.7-1.1-61.2-28.6-62.3-62.3c-1.2-37.3,29.3-67.7,66.5-66.5
					C269.1,524.5,296.6,552,297.7,585.7z"/>
				<path class="st27" d="M269.3,568.3c-4.7-0.5-8.7,2.5-9.7,6.7l-16.5-7.9c-3.6-4.8-9.9-13.3-16.3-21.6c-6.3-8.2-17.3-3.8-13.5,6.4
					c1.2,3.1,3.9,9.7,6.2,15.3l-13.3,0c-8.3,0-12.5,4.4-12.5,9.1c0,2.2,0.8,4.1,2,5.7c-1.2,1.6-2,3.5-2,5.7c0,2.2,0.8,4.1,2,5.7
					c-1.2,1.6-2,3.5-2,5.7c0,2.2,0.8,4.1,2,5.7c-1.2,1.6-2,3.5-2,5.7c0,4.7,3.6,8.5,8.1,9.1v0.2c0,0,37.7,0,42.2,0
					c3.3,0,11.5-3.5,15.8-5.4c1.5,3.5,5.1,5.8,9.2,5.4c4.6-0.5,8.1-4.6,8.1-9.2v-32.9C277.2,573,273.8,568.9,269.3,568.3z"/>
			</g>
			<g>
				<path class="st12" d="M383.7,773.9c0,18.8-15.2,34-34,34c-18.8,0-34-15.2-34-34c0-18.8,15.2-34,34-34
					C368.5,739.9,383.7,755.1,383.7,773.9z"/>
				<path class="st27" d="M368.2,763.6c-2.2,0-4.1,1.5-4.6,3.6l-8.7-4.2c-1.9-2.6-5.2-7-8.6-11.4c-3.3-4.4-9.1-2-7.1,3.4
					c0.6,1.6,2.1,5.1,3.3,8l-7,0c-4.4,0-6.6,2.3-6.6,4.8c0,1.1,0.4,2.2,1.1,3c-0.7,0.8-1.1,1.9-1.1,3c0,1.1,0.4,2.2,1.1,3
					c-0.7,0.8-1.1,1.9-1.1,3c0,1.1,0.4,2.2,1.1,3c-0.7,0.8-1.1,1.9-1.1,3c0,2.5,1.9,4.5,4.3,4.8v0.1c0,0,19.9,0,22.3,0
					c1.7,0,6.1-1.9,8.4-2.9c0.7,1.7,2.4,2.9,4.4,2.9c2.6,0,4.7-2.1,4.7-4.7v-17.7C372.9,765.7,370.8,763.6,368.2,763.6z"/>
			</g>
		</g>
		<g>
			<path class="st7" d="M391.3,409.5c0,7.5-6.1,13.6-13.6,13.6h-316c-7.5,0-13.6-6.1-13.6-13.6v-104c0-7.5,6.1-13.6,13.6-13.6h316
				c7.5,0,13.6,6.1,13.6,13.6V409.5z"/>
			<g>
				<polygon class="st3" points="97.2,308.8 104.8,324.3 121.9,326.8 109.5,338.8 112.4,355.8 97.2,347.8 81.9,355.8 84.8,338.8 
					72.5,326.8 89.5,324.3 				"/>
				<polygon class="st3" points="158.4,308.8 166,324.3 183.1,326.8 170.8,338.8 173.7,355.8 158.4,347.8 143.2,355.8 146.1,338.8 
					133.7,326.8 150.8,324.3 				"/>
				<polygon class="st3" points="219.7,308.8 227.3,324.3 244.3,326.8 232,338.8 234.9,355.8 219.7,347.8 204.4,355.8 207.3,338.8 
					195,326.8 212,324.3 				"/>
				<polygon class="st3" points="280.9,308.8 288.5,324.3 305.6,326.8 293.2,338.8 296.2,355.8 280.9,347.8 265.6,355.8 
					268.6,338.8 256.2,326.8 273.3,324.3 				"/>
				<polygon class="st3" points="342.1,308.8 349.8,324.3 366.8,326.8 354.5,338.8 357.4,355.8 342.1,347.8 326.9,355.8 
					329.8,338.8 317.4,326.8 334.5,324.3 				"/>
			</g>
			<g>
				<path class="st3" d="M361.6,384H140.5c-1.5,0-2.7-1.2-2.7-2.7c0-1.5,1.2-2.7,2.7-2.7h221.1c1.5,0,2.7,1.2,2.7,2.7
					C364.4,382.8,363.1,384,361.6,384z"/>
				<path class="st3" d="M311.8,405.6H140.5c-1.5,0-2.7-1.2-2.7-2.7c0-1.5,1.2-2.7,2.7-2.7h171.3c1.5,0,2.7,1.2,2.7,2.7
					C314.5,404.4,313.3,405.6,311.8,405.6z"/>
			</g>
			<path class="st3" d="M109.7,392.3c0,7.5-6.1,13.6-13.6,13.6c-7.5,0-13.6-6.1-13.6-13.6s6.1-13.6,13.6-13.6
				C103.7,378.8,109.7,384.8,109.7,392.3z"/>
		</g>
	</g>
</g>
<g>
	<g>
		<path class="st1" d="M700.7,212.4c-10.6,13.9-28.2,18.4-44.3,11.9c3.8,1,7.8,1.6,11.7,1.6c11.5,0,22.4-6.4,28.4-16.1
			C696.4,209.7,700.7,212.4,700.7,212.4L700.7,212.4z"/>
	</g>
	<g>
		<path class="st1" d="M705.7,216.7c-6.2-0.6-10.4-4.6-14.1-9.3C697.5,206,704.5,210.7,705.7,216.7L705.7,216.7z"/>
	</g>
	<g>
		<path class="st1" d="M672.4,168.9c-0.3,4-4.1,7.4-8.1,8c-1.6,0.4-3.7-0.4-5-0.1c-3.9,1.7-3.4,6.6-1.5,9.9c1.5,2.7,3.9,5,7.5,6
			c-3.8,1-8.1-0.8-10.6-3.9c-4.8-5.3-4.3-14.8,3.7-16.8c2-0.4,3.9,0.7,5.6,0.9C667.3,173.1,670.3,171.5,672.4,168.9L672.4,168.9z"/>
	</g>
</g>
<path class="st4" d="M1197.1,579.6c5-2.6,10.9-2.7,15.9-0.2c12.9,6.5,27.4,10.1,42.7,10.1c33.1,0,64.1-17.4,81.4-45.5
	c0.7-1.2,0.3-2.7-0.9-3.4l-13-7.6c-10.1-5.9-22.9-5-31.8,2.6c-9.8,8.4-22.5,13.2-35.7,13.2c-33.7,0-60.4-30.5-54-65.3
	c3.1-16.9,14.3-31.5,29.8-39c21.2-10.2,44.3-5.8,60.1,7.8c8.7,7.5,21.4,8.4,31.3,2.6l13.3-7.8c1.2-0.7,1.6-2.2,0.9-3.4
	c-24.2-39.3-75-57.6-121.2-36.8c-29.2,13.1-50.1,40.8-54.8,72.5c-3.2,21.7,1,42.4,10.4,59.8c2.8,5.2,2.9,11.4,0.1,16.6l-23.5,44.4
	c-1.1,2.2,1.2,4.5,3.4,3.4L1197.1,579.6z"/>
<path class="st4" d="M245.4,170.5c-3-1.6-6.5-1.6-9.5-0.1c-7.7,3.9-16.4,6.1-25.6,6.1c-19.9,0-38.4-10.4-48.8-27.3
	c-0.4-0.7-0.2-1.6,0.5-2l7.8-4.5c6.1-3.5,13.7-3,19.1,1.6c5.9,5,13.5,7.9,21.4,7.9c20.2,0,36.2-18.3,32.4-39.2
	c-1.9-10.1-8.6-18.9-17.9-23.4c-12.7-6.1-26.6-3.5-36,4.7c-5.2,4.5-12.8,5-18.8,1.6l-8-4.7c-0.7-0.4-0.9-1.3-0.5-2
	c14.5-23.6,45-34.5,72.7-22.1c17.5,7.9,30,24.5,32.8,43.5c1.9,13-0.6,25.4-6.2,35.8c-1.7,3.1-1.7,6.8-0.1,9.9l14.1,26.6
	c0.7,1.3-0.7,2.7-2,2L245.4,170.5z"/>
</svg>
