<svg width="461" height="462" viewBox="0 0 461 462" fill="none" xmlns="http://www.w3.org/2000/svg">
<path d="M284.787 412.45H134.477C129.661 412.45 125.721 408.515 125.721 403.705V116.959C125.721 112.15 129.661 108.215 134.477 108.215H284.787C289.603 108.215 293.543 112.15 293.543 116.959V403.705C293.543 408.515 289.603 412.45 284.787 412.45Z" fill="#5633EF"/>
<path d="M284.787 139.473H134.477V380.456H284.787V139.473Z" fill="white" stroke="#5633EF" stroke-width="0.75" stroke-miterlimit="10"/>
<path d="M161.912 188.952C169.689 188.952 175.994 182.656 175.994 174.888C175.994 167.121 169.689 160.824 161.912 160.824C154.134 160.824 147.829 167.121 147.829 174.888C147.829 182.656 154.134 188.952 161.912 188.952Z" fill="#5633EF"/>
<path d="M271.434 172.996H183.072C182.05 172.996 181.248 173.798 181.248 174.818C181.248 175.838 182.05 176.64 183.072 176.64H271.434C272.455 176.64 273.258 175.838 273.258 174.818C273.258 173.871 272.455 172.996 271.434 172.996Z" fill="#5633EF"/>
<path d="M271.434 332.945H148.413C147.392 332.945 146.589 333.747 146.589 334.767C146.589 335.787 147.392 336.589 148.413 336.589H271.434C272.455 336.589 273.258 335.787 273.258 334.767C273.258 333.747 272.455 332.945 271.434 332.945Z" fill="#5633EF"/>
<path d="M271.434 342.129H148.413C147.392 342.129 146.589 342.93 146.589 343.951C146.589 344.971 147.392 345.772 148.413 345.772H271.434C272.455 345.772 273.258 344.971 273.258 343.951C273.258 343.003 272.455 342.129 271.434 342.129Z" fill="#5633EF"/>
<path d="M271.434 351.383H148.413C147.392 351.383 146.589 352.184 146.589 353.205C146.589 354.225 147.392 355.026 148.413 355.026H271.434C272.455 355.026 273.258 354.225 273.258 353.205C273.258 352.184 272.455 351.383 271.434 351.383Z" fill="#5633EF"/>
<path d="M204.743 360.562H148.413C147.392 360.562 146.589 361.364 146.589 362.384C146.589 363.404 147.392 364.206 148.413 364.206H204.743C205.765 364.206 206.567 363.404 206.567 362.384C206.567 361.437 205.765 360.562 204.743 360.562Z" fill="#5633EF"/>
<path d="M215.542 123.223H198.541C197.519 123.223 196.717 124.024 196.717 125.044C196.717 126.065 197.519 126.866 198.541 126.866H215.542C216.563 126.866 217.366 126.065 217.366 125.044C217.439 124.024 216.563 123.223 215.542 123.223Z" fill="white" stroke="#5633EF" stroke-width="0.75" stroke-miterlimit="10"/>
<path d="M220.723 123.223C219.701 123.223 218.898 124.024 218.898 125.044C218.898 126.065 219.701 126.866 220.723 126.866C221.744 126.866 222.547 126.065 222.547 125.044C222.547 124.024 221.744 123.223 220.723 123.223Z" fill="white" stroke="#5633EF" stroke-width="0.75" stroke-miterlimit="10"/>
<path d="M273.696 208.627V313.124C273.696 317.933 269.756 321.868 264.94 321.868H156.148C151.332 321.868 147.392 317.933 147.392 313.124V208.627C147.392 203.818 151.332 199.883 156.148 199.883H264.867C269.756 199.883 273.696 203.818 273.696 208.627Z" fill="white" stroke="#5633EF" stroke-width="0.75" stroke-miterlimit="10"/>
<path d="M273.696 277.273V313.199C273.696 318.008 269.756 321.943 264.94 321.943H156.148C151.332 321.943 147.392 318.008 147.392 313.199V259.566C152.572 253.226 163.59 242.223 177.016 242.223C195.768 242.223 201.751 274.213 219.117 277.492C236.483 280.771 241.664 266.634 258.227 266.634C264.794 266.561 269.902 271.371 273.696 277.273Z" fill="#150D3E"/>
<path d="M235.681 246.229C243.942 246.229 250.639 239.54 250.639 231.29C250.639 223.04 243.942 216.352 235.681 216.352C227.419 216.352 220.723 223.04 220.723 231.29C220.723 239.54 227.419 246.229 235.681 246.229Z" fill="#150D3E"/>
<path d="M209.632 405.379C215.112 405.379 219.555 400.942 219.555 395.469C219.555 389.996 215.112 385.559 209.632 385.559C204.151 385.559 199.708 389.996 199.708 395.469C199.708 400.942 204.151 405.379 209.632 405.379Z" fill="white"/>
<path d="M189.064 26.2292L183.272 28.7907L180.956 29.8649L176.488 31.848C176.157 32.0133 175.826 31.7654 175.743 31.4349C175.412 29.3691 174.585 27.386 173.757 25.5681C173.261 24.5766 172.847 23.3371 172.185 22.2629C171.523 21.1888 170.779 20.1972 169.703 19.6188C168.545 18.9577 167.056 18.7925 165.814 19.2883C162.919 20.6103 163.746 23.585 164.491 25.9813C165.401 28.7907 166.476 31.6001 166.394 34.5748C166.311 36.6405 165.814 38.6236 164.325 40.1936C163.167 41.3504 162.339 42.2594 160.933 43.2509C160.685 43.4162 160.685 43.6641 160.767 43.912L169.124 62.5037C169.207 62.7516 169.538 62.9168 169.869 62.7516L174.998 60.4379C175.164 60.3553 175.329 60.3553 175.495 60.4379C177.15 61.3469 179.135 61.5121 180.956 60.6858L188.981 57.1327L194.773 54.4886L197.089 53.4144C199.406 52.3402 200.482 49.6134 199.406 47.2172C199.158 46.6387 198.744 46.0603 198.248 45.7298C198.082 45.5646 198 45.3167 198.082 45.0688C198.661 43.9946 198.496 42.1767 197.917 40.9373L197.669 40.4415C197.42 39.8631 197.007 39.2847 196.51 38.9542C196.345 38.7889 196.262 38.541 196.345 38.2931C196.924 37.2189 197.007 35.8969 196.428 34.6574L196.179 34.1616C195.931 33.5832 195.517 33.0048 195.021 32.6743C194.856 32.509 194.773 32.2612 194.856 32.0133C195.435 30.9391 195.517 29.617 194.938 28.3776C194.194 26.2292 191.463 25.155 189.064 26.2292Z" stroke="white" stroke-width="3" stroke-miterlimit="10"/>
<path d="M165.649 67.0495L159.858 69.6111C158.699 70.1068 157.376 69.6111 156.879 68.4542L148.192 49.0362C147.695 47.8794 148.192 46.5573 149.35 46.0616L155.142 43.5C156.3 43.0042 157.624 43.5 158.12 44.6568L166.808 64.0749C167.304 65.149 166.808 66.5537 165.649 67.0495Z" stroke="white" stroke-width="3" stroke-miterlimit="10"/>
<path d="M345 101.5C345 79.1327 363.133 61 385.5 61C407.867 61 426 79.1327 426 101.5C426 123.867 407.867 142 385.5 142C373.665 142 362.916 136.897 355.532 128.753C349.017 121.587 345 112.032 345 101.5Z" fill="#150D3E"/>
<path d="M402 98.7552C402 93.6608 398.381 89 393.058 89C388.8 89 386.352 92.1434 385.5 95.0699C384.648 92.1434 382.2 89 377.942 89C372.619 89 369 93.5525 369 98.6469C369 98.6469 369 98.6469 369 98.7552C369 99.8392 369 111.003 385.5 120C402 111.003 402 99.8392 402 98.7552Z" fill="white"/>
<path d="M356.734 107L335 147L379 132.013L356.734 107Z" fill="#150D3E"/>
<path d="M92.7948 144.861C92.7948 129.448 80.33 117 64.8974 117C49.4648 117 37 129.448 37 144.861C37 160.273 49.4648 172.722 64.8974 172.722C73.0886 172.722 80.4487 169.165 85.5534 163.593C90.0644 158.614 92.7948 152.093 92.7948 144.861Z" fill="#150D3E"/>
<path d="M54.5176 143.781C54.5176 140.528 56.7342 137.516 60.2342 137.516C62.9176 137.516 64.5509 139.564 65.0176 141.371C65.6009 139.443 67.1176 137.516 69.8009 137.516C73.1842 137.516 75.5176 140.528 75.5176 143.781C75.5176 144.504 75.5176 151.612 65.0176 157.516C54.5176 151.732 54.5176 144.504 54.5176 143.781Z" fill="white"/>
<path d="M84.3145 148.516L99.5176 176.516L68.5176 166.031L84.3145 148.516Z" fill="#150D3E"/>
<path d="M64.1808 234.613C64.1808 234.613 61.7432 236.428 56.4728 236.428C51.2023 236.428 49.3577 235.456 49.0283 236.039C48.6989 236.622 51.1364 244.981 62.2702 248.804C62.2702 248.804 60.0962 251.719 56.6045 252.886C53.1787 254.117 51.4658 257.357 61.0185 256.968C70.5712 256.579 78.6745 250.942 79.7944 242C80.9144 233.058 77.0933 227.875 77.0933 227.875L77.9498 222.691L73.7993 223.404C73.7993 223.404 67.1454 219.257 62.8632 225.218C59.4374 230.207 64.1808 234.613 64.1808 234.613Z" stroke="white" stroke-width="3" stroke-miterlimit="10"/>
<path d="M342.876 258.638L323.824 272.024C319.758 274.882 318.779 280.523 321.64 284.584L335.044 303.61C337.906 307.671 343.553 308.649 347.62 305.791L366.671 292.405C370.738 289.547 371.716 283.907 368.855 279.846L355.451 260.819C352.59 256.758 346.942 255.78 342.876 258.638Z" stroke="white" stroke-width="3" stroke-miterlimit="10"/>
<path d="M344.909 293.46C351.064 293.46 356.053 288.476 356.053 282.329C356.053 276.182 351.064 271.199 344.909 271.199C338.754 271.199 333.764 276.182 333.764 282.329C333.764 288.476 338.754 293.46 344.909 293.46Z" stroke="white" stroke-width="3" stroke-miterlimit="10"/>
<path d="M346.415 266.233C346.955 266.233 347.394 265.795 347.394 265.255C347.394 264.715 346.955 264.277 346.415 264.277C345.874 264.277 345.436 264.715 345.436 265.255C345.436 265.795 345.874 266.233 346.415 266.233Z" stroke="white" stroke-width="3" stroke-miterlimit="10"/>
<path d="M329.215 265.331L322.44 270.09L323.826 272.058L330.601 267.299L329.215 265.331Z" fill="white"/>
</svg>
