<?xml version="1.0" encoding="utf-8"?>
<!-- Generator: Adobe Illustrator 26.2.1, SVG Export Plug-In . SVG Version: 6.00 Build 0)  -->
<svg version="1.1" id="Layer_1" xmlns="http://www.w3.org/2000/svg" xmlns:xlink="http://www.w3.org/1999/xlink" x="0px" y="0px"
	 viewBox="0 0 1384.9 948.1" style="enable-background:new 0 0 1384.9 948.1;" xml:space="preserve">
<style type="text/css">
	.st0{fill:#150D3E;}
	.st1{fill:#5633EF;}
	.st2{fill:#2DD2D8;}
	.st3{fill:#FFFFFF;}
	.st4{fill:#2CD3DB;}
	.st5{fill:#FFFFFF;stroke:#5633EF;stroke-miterlimit:10;}
	.st6{fill:#5333ED;}
	.st7{fill:#5633EF;stroke:#5633EF;stroke-miterlimit:10;}
	.st8{fill:#FFFFFF;stroke:#5633EF;stroke-width:2.2462;stroke-miterlimit:10;}
	.st9{fill:none;stroke:#5633EF;stroke-width:1.5;stroke-miterlimit:10;}
	.st10{fill:#ED975D;}
	.st11{fill:#2CD3DB;stroke:#5633EF;stroke-width:1.393;stroke-miterlimit:10;}
	.st12{fill:#211D53;}
	.st13{fill:#211D53;stroke:#5633EF;stroke-width:1.393;stroke-miterlimit:10;}
	.st14{fill:#5633EF;stroke:#5633EF;stroke-width:1.5;stroke-miterlimit:10;}
	.st15{fill:none;stroke:#5633EF;stroke-miterlimit:10;}
	.st16{fill:#FFB27D;}
	.st17{fill:#7F2722;}
	.st18{fill:#FFFFFF;stroke:#5633EF;stroke-width:1.2838;stroke-miterlimit:10;}
	.st19{fill:#5633EF;stroke:#FFFFFF;stroke-width:1.393;stroke-miterlimit:10;}
	.st20{fill:#211D53;stroke:#FFFFFF;stroke-width:1.393;stroke-miterlimit:10;}
	.st21{fill:none;stroke:#FFFFFF;stroke-width:1.393;stroke-miterlimit:10;}
	.st22{fill:none;stroke:#5633EF;stroke-width:1.393;stroke-miterlimit:10;}
	.st23{clip-path:url(#SVGID_00000120537080825749362740000001738633220946532992_);fill:#FFFFFF;}
	
		.st24{clip-path:url(#SVGID_00000120537080825749362740000001738633220946532992_);fill:#5633EF;stroke:#5633EF;stroke-miterlimit:10;}
	.st25{fill:#FFFFFF;stroke:#5633EF;stroke-width:1.8358;stroke-miterlimit:10;}
	.st26{opacity:0.4;fill:#AF444A;}
	.st27{fill:#FFFFFF;stroke:#5633EF;stroke-width:2;stroke-miterlimit:10;}
	.st28{fill:none;stroke:#5633EF;stroke-width:2;stroke-miterlimit:10;}
	.st29{fill:#211D53;stroke:#211D53;stroke-width:11;stroke-miterlimit:10;}
	.st30{fill:#211D53;stroke:#211D53;stroke-width:6;stroke-miterlimit:10;}
	.st31{fill:#211D53;stroke:#211D53;stroke-width:3;stroke-miterlimit:10;}
	.st32{fill:#211D53;stroke:#211D53;stroke-width:8;stroke-miterlimit:10;}
	.st33{fill:#211D53;stroke:#5633EF;stroke-width:2;stroke-miterlimit:10;}
	.st34{fill:url(#SVGID_00000079470530136817234390000016629528414767226802_);}
	.st35{fill:url(#SVGID_00000046301169266108142460000005014764554756713359_);}
	.st36{fill-rule:evenodd;clip-rule:evenodd;fill:#5633EF;stroke:#5633EF;stroke-miterlimit:10;}
	.st37{fill:#2CD3DB;stroke:#5633EF;stroke-width:2;stroke-miterlimit:10;}
	.st38{fill:#F5938C;}
	.st39{fill:#F8928C;}
	.st40{opacity:0.22;}
	.st41{fill:#020202;}
	.st42{fill:#2CD3DB;stroke:#5633EF;stroke-width:5;stroke-miterlimit:10;}
	.st43{fill:#FAFAFA;}
	.st44{fill:#E0E0E0;}
	.st45{opacity:0.6;}
	.st46{opacity:0.6;fill:#FFFFFF;enable-background:new    ;}
	.st47{fill:#5433ED;stroke:#5433ED;stroke-miterlimit:10;}
	.st48{fill:#EB996E;}
	.st49{fill:#5433ED;stroke:#5633EF;stroke-width:0.5;stroke-miterlimit:10;}
	.st50{fill:#2CD3DB;stroke:#5433ED;stroke-width:2;stroke-miterlimit:10;}
	.st51{fill:#F7F8F8;}
	.st52{fill:#150D3E;stroke:#5633EF;stroke-miterlimit:10;}
	.st53{fill:#FFFFFF;stroke:#5633EF;stroke-width:0.75;stroke-miterlimit:10;}
	.st54{fill:#5633EF;stroke:#FFFFFF;stroke-width:0.5;stroke-miterlimit:10;}
	.st55{fill:#150D3E;stroke:#FFFFFF;stroke-width:0.5;stroke-miterlimit:10;}
	.st56{fill:#5633EF;stroke:#FFFFFF;stroke-width:0.75;stroke-miterlimit:10;}
	.st57{fill:#3C1DCC;stroke:#FFFFFF;stroke-miterlimit:10;}
	.st58{fill:#2CD3DB;stroke:#FFFFFF;stroke-width:0.5;stroke-miterlimit:10;}
	.st59{fill:#8A9EDD;}
	.st60{fill:#7689D6;}
	.st61{fill:#F5FAFF;}
	.st62{fill:#F7F8F8;stroke:#5633EF;stroke-miterlimit:10;}
	.st63{fill:#696969;}
	.st64{fill:#2CD3DB;stroke:#FFFFFF;stroke-miterlimit:10;}
	.st65{fill:#1D3F70;}
	.st66{fill:#D8B09A;}
	.st67{fill:#F4D4BE;}
	.st68{fill:#FFFFFF;stroke:#5633EF;stroke-width:0.5;stroke-miterlimit:10;}
	.st69{fill:#2CD3DB;stroke:#F7F8F8;stroke-width:0.5;stroke-miterlimit:10;}
	.st70{fill:#5433ED;}
	.st71{fill:none;stroke:#FFFFFF;stroke-width:3;stroke-miterlimit:10;}
	.st72{fill:#2CD3DB;stroke:#5633EF;stroke-miterlimit:10;}
	.st73{fill:#5633EF;stroke:#FFFFFF;stroke-miterlimit:10;}
	.st74{fill:#211D53;stroke:#FFFFFF;stroke-miterlimit:10;}
	.st75{fill:#FFFFFF;stroke:#211D53;stroke-width:1.393;stroke-miterlimit:10;}
	.st76{clip-path:url(#XMLID_00000072987856795743026210000011286963239827044761_);fill:#211D53;}
	.st77{clip-path:url(#XMLID_00000017493704409790965370000005005076030700918923_);fill:#211D53;}
	.st78{clip-path:url(#XMLID_00000017493704409790965370000005005076030700918923_);}
	.st79{opacity:0.21;fill:#D18161;}
	.st80{clip-path:url(#XMLID_00000126321282157133226780000002482508606406178952_);}
	.st81{clip-path:url(#XMLID_00000000933176653494449040000002060961911106868122_);fill:#211D53;}
	.st82{clip-path:url(#XMLID_00000142155656266741838550000014355589189972941204_);fill:#211D53;}
	.st83{clip-path:url(#XMLID_00000028313584317033925440000000199361700644541084_);fill:#211D53;}
	.st84{clip-path:url(#XMLID_00000028313584317033925440000000199361700644541084_);}
	.st85{clip-path:url(#XMLID_00000097483086571490356540000001121651211164694719_);}
	.st86{clip-path:url(#XMLID_00000172408154743356409930000011549408827590439090_);fill:#211D53;}
	.st87{fill:#1A2E35;}
	.st88{fill:#5633EF;stroke:#FFFFFF;stroke-width:4;stroke-miterlimit:10;}
	.st89{fill:none;stroke:#FFFFFF;stroke-width:3;stroke-linecap:round;stroke-linejoin:round;stroke-miterlimit:10;}
	.st90{fill:none;stroke:#211D53;stroke-width:1.393;stroke-miterlimit:10;}
	.st91{fill:none;stroke:#4E585D;stroke-miterlimit:10;}
	.st92{fill:#F6F6F6;}
	.st93{fill:#251462;}
	.st94{fill:#050233;}
	.st95{fill:#00B0F9;}
	.st96{fill:#D5EDFF;}
	.st97{fill:#211D53;stroke:#5633EF;stroke-miterlimit:10;}
	.st98{fill:#121B46;}
	.st99{fill:#3CDEBC;}
	.st100{clip-path:url(#SVGID_00000079457033710122025570000016185021107099199158_);}
	.st101{fill:#F28766;}
	.st102{fill:none;stroke:#FFFFFF;stroke-miterlimit:10;}
	.st103{fill:#FFFFFF;stroke:#5633EF;stroke-width:3;stroke-miterlimit:10;}
	.st104{fill:#2CD3DB;stroke:#5633EF;stroke-width:3;stroke-miterlimit:10;}
	.st105{fill:none;stroke:#5633EF;stroke-width:3;stroke-miterlimit:10;}
	.st106{fill:#211D53;stroke:#5633EF;stroke-width:3;stroke-miterlimit:10;}
	.st107{fill:none;stroke:#5633EF;stroke-linecap:round;stroke-linejoin:round;stroke-miterlimit:10;}
	.st108{fill:#FFFFFF;stroke:#5633EF;stroke-linecap:round;stroke-miterlimit:10;}
	.st109{fill:none;stroke:#5633EF;stroke-linecap:round;stroke-miterlimit:10;}
	.st110{fill:#FFFFFF;stroke:#5633EF;stroke-linejoin:round;stroke-miterlimit:10;}
	.st111{fill:none;stroke:#000000;stroke-width:1.0596;stroke-miterlimit:10;}
	.st112{clip-path:url(#SVGID_00000134937158064398038640000005396218579099076790_);}
	.st113{fill:#FFFFFF;stroke:#5633EF;stroke-width:2;stroke-linecap:round;stroke-miterlimit:10;}
	.st114{fill:none;stroke:#5633EF;stroke-width:2;stroke-linecap:round;stroke-miterlimit:10;}
	.st115{fill:#AE4F32;}
	.st116{fill:#5633EF;stroke:#5633EF;stroke-width:0.75;stroke-miterlimit:10;}
	.st117{fill:#211D53;stroke:#211D53;stroke-miterlimit:10;}
</style>
<path class="st27" d="M826.5,801.6H624.7c-3.1,0-5.5-2.5-5.5-5.5v-16.6c0-3.1,2.5-5.5,5.5-5.5h201.8c3.1,0,5.5,2.5,5.5,5.5v16.6
	C832,799.1,829.5,801.6,826.5,801.6z"/>
<path class="st27" d="M826.5,773.5H624.7c-3.1,0-5.5-2.5-5.5-5.5v-16.6c0-3.1,2.5-5.5,5.5-5.5h201.8c3.1,0,5.5,2.5,5.5,5.5v16.6
	C832,771,829.5,773.5,826.5,773.5z"/>
<path class="st27" d="M826.5,829.3H624.7c-3.1,0-5.5-2.5-5.5-5.5v-16.6c0-3.1,2.5-5.5,5.5-5.5h201.8c3.1,0,5.5,2.5,5.5,5.5v16.6
	C832,826.8,829.5,829.3,826.5,829.3z"/>
<path class="st27" d="M667.9,829.2h114.7c0,0-15.3,30.5-59.7,30.5C676.5,859.7,667.9,829.2,667.9,829.2z"/>
<g>
	<g>
		<g>
			<g>
				<g>
					<path class="st12" d="M1189.2,174.2c4.8-15.1,7.7-30.8,8.5-46.7l3.8-8.9c5.5-6.1,15.3-7.1,22.7-3.4
						c7.4,3.7,12.3,11.2,14.4,19.1c2.1,7.9,1.8,16.3,0.9,24.5c-0.6,5.3-1.1,11.6,2.9,15.1c1.4,1.2,3.3,1.9,4.6,3.3
						c2.4,2.6,1.9,7-0.5,9.5c-2.5,2.5-6.5,3.1-9.8,2c1.3,5.1-2.1,10.9-7.2,12.2c-5.1,1.3-10.9-2.2-12.1-7.3
						c-1.1,3.7-4.9,6.2-8.7,6.7c-3.8,0.5-7.7-0.7-11.2-2.4c-4.6-2.3-9-6-10.1-11.1C1186.5,182.6,1187.9,178.3,1189.2,174.2z"/>
				</g>
			</g>
			<g>
				<g>
					<g>
						<path class="st12" d="M1224.8,200.6c0,0,0.3,0.1,1,0.2c0.6,0,1.6-0.2,2.6-0.9c1-0.7,2.1-1.9,2.5-3.7c0.4-1.7,0.2-3.8-0.5-5.8
							c-0.7-2.1-1.9-4.1-2.9-6.3c-1-2.2-1.8-4.8-2.1-7.5c-0.6-5.5,0.5-11.6,1.9-17.9c1.4-6.3,2.7-12.5,2.2-18.2
							c-0.4-5.7-2.6-10.7-5.9-13.7c-3.2-3-6.8-4.1-9.1-4.2c-2.4-0.1-3.7,0.5-3.7,0.5c0,0.1,1.3-0.3,3.6-0.1c2.3,0.2,5.7,1.4,8.7,4.3
							c3,2.9,5.1,7.7,5.4,13.2c0.4,5.5-0.8,11.6-2.3,17.9c-1.5,6.3-2.6,12.5-1.9,18.2c0.3,2.8,1.1,5.5,2.2,7.8
							c1.1,2.3,2.3,4.2,3,6.2c0.7,1.9,0.9,3.9,0.6,5.4c-0.3,1.6-1.2,2.8-2.1,3.5C1226.3,200.9,1224.8,200.5,1224.8,200.6z"/>
					</g>
				</g>
			</g>
		</g>
		<g>
			<g>
				<g>
					<g>
						<path class="st7" d="M1213,130.6c-0.6-3.1-1.4-6.2-3-8.9c-1.7-2.7-4.4-4.9-7.5-5.2c-3.1-0.3-6.6,1.6-7.3,4.7l1.8-1.4
							c-4.8,6.1-6.9,14.2-5.8,21.8c0.8,5.2,3.6,10.7,8.7,12c5.1,1.3,10.4-2.5,12.5-7.4C1214.4,141.4,1214,135.8,1213,130.6z"/>
					</g>
				</g>
				<g>
					<g>
						<g>
							<g>
								<g>
									<g>
										<g>
											<path class="st12" d="M1190.9,99.5c0.1-5.2-4.6-9.2-9.5-11.1c-4.8-1.9-10.2-2.6-14.5-5.5c-3.8-2.6-6.4-6.6-9.6-9.8
												c-7.9-8-20.2-11.3-31.1-8.4c-10.9,3-19.8,12.1-22.5,23c-1.9,7.4-0.6,16.1,5.2,21c6.7,5.7,16.7,4.4,25.4,2.7
												c8.6-1.8,18.4-3.5,25.6,1.6c4.4,3.1,6.8,8,9.5,12.7c2.7,4.6,6,9.3,11,11c5,1.7,11.9-1.3,12.1-6.6"/>
										</g>
									</g>
								</g>
							</g>
						</g>
						<g>
							<g>
								<g>
									<g>
										<path class="st12" d="M1190.6,102.4c-0.6,4.3,2.6,8.2,5.7,11.3c3.1,3.1,6.7,6.3,7.2,10.7c0.6,5.1-3.1,10.1-2,15.1
											c0.7,3.2,3.2,5.6,4.6,8.5c2.1,4,2.2,8.9,0.9,13.3c-1.3,4.4-3.3,14.1-6.4,17.5c-8.4,9.4-21.8,17.5-34.1,20.3
											c-12.3,2.8-25,2.8-37.6,2.1c-10.3-0.6-22.1-0.2-30.7-14.3c-4.4-7.3-6.6-17.1-9-25.3c-2-7.1-3.8-14.7-1.7-21.8
											c1.2-4.1,3.7-7.8,4.9-11.9c1.5-5.2,1-10.7,1.6-16c1.3-11.6,8.5-22.3,18.7-28c10.2-5.6,23.1-6.1,33.6-1.1"/>
									</g>
								</g>
							</g>
						</g>
					</g>
					<g>
						<g>
							<g>
								<g>
									<path class="st27" d="M1124.5,88.9l46,11.7c4.5,0.5,7.8,4.3,7.7,8.8c0,0,8.1,20.1,6.4,36.2c-2.1,19.5-14.1,36.5-14,45.5
										c0.3,16.5,2.5,26.7,2.5,26.7c-0.1,1.8-0.5,3.7-1.3,5.3c-3.4,7.5-14.8,26.6-39.4,18.9c-6-1.9-8.8-8.5-10-15.3
										c0-0.8-0.3-1.5-0.3-2.3c-1-7.8-0.2-15.2-0.2-15.2c-0.1-9-0.5-11.7-0.5-11.7s-8.6,1.3-14.8-4.7c-1.8-1.7-9.4-10.3-11.3-24
										c-2.5-18.9,1.3-45.3,4.7-56C1105.5,96,1117.5,88.1,1124.5,88.9z"/>
								</g>
							</g>
						</g>
						<g>
							<g>
								<path class="st1" d="M1126.1,170.9c-6.1,5.7-15.3,6.3-22.2,1.8c3.4,1.5,7.3,2.3,10.9,1.5c3.5-0.7,6.8-2.7,9-5.3
									C1123.9,168.9,1126.1,170.9,1126.1,170.9L1126.1,170.9z"/>
							</g>
							<g>
								<path class="st1" d="M1127.9,173.2c-3.1-0.5-4.9-2.8-5.9-5.6C1125.1,167.2,1128.2,170,1127.9,173.2L1127.9,173.2z"/>
							</g>
							<g>
								<path class="st1" d="M1114.4,145.9c0,2.6-3,4.6-5.5,4.1c-0.8-0.1-0.6-0.1-1.2,0.3c-0.2,0.2-0.4,0.3-0.5,0.5
									c-1,2.3,1,5.7,3.7,6.5c-4.5,1.4-9-5-5.8-8.8c0.7-0.7,1.3-1.3,2.4-1.5c0.8-0.1,1.5,0.1,1.8,0.2
									C1111.2,148.1,1112.9,147.6,1114.4,145.9L1114.4,145.9z"/>
							</g>
						</g>
						<g>
							<g>
								<g>
									<g>
										<g>
											<g>
												<g>
													<g>
														<g>
															<g>
																<g>
																	<g>
																		<g>
																			<g>
																				<g>
																					<g>
																						<g>
																							<g>
																								<g>
																									<path class="st1" d="M1121.4,196.6c0,0,20.9-2.2,33.6-8.6c0,0-7.9,17.4-33.2,16.4L1121.4,196.6z"/>
																								</g>
																							</g>
																						</g>
																					</g>
																				</g>
																			</g>
																		</g>
																	</g>
																</g>
															</g>
														</g>
													</g>
												</g>
											</g>
										</g>
									</g>
								</g>
							</g>
						</g>
					</g>
				</g>
			</g>
			<g>
				<g>
					<path class="st12" d="M1108.9,84.8c-2.8,13.3,5.2,28.2,17.9,33.1c0.3-3.1,0.6-6.1,0.9-9.2c3.8,7,12.3,9.5,19.9,11.8
						c7.6,2.3,16,6,18.2,13.6c1.7,5.9-1,12.3,0.2,18.3c0.7,3.3,2.5,6.2,3.3,9.4c1.3,4.7,0.5,9.7,1.4,14.5c0.9,4.8,4.5,9.8,9.4,9.5
						c3.1-0.2,5.6-2.7,6.9-5.5c1.3-2.8,1.5-6,1.7-9.1c0.8-12.6,1.4-25.2,1-37.9c-0.4-10.9-1.8-22.5-8.4-31.2
						c-7.3-9.5-19.6-13.7-31.4-16c-11.8-2.2-24.1-3.1-35-8"/>
				</g>
			</g>
			<g>
				<g>
					<g>
						<path class="st3" d="M1175.2,195.5c0,0,0.3,0.4,1.1,1.1l0.1,0.1l0.1,0c2.2-0.8,7.5-3.3,13-8.8c2.8-2.7,5.4-6.2,8-10.1
							c0.7-0.9,1.4-1.8,2.3-2.6c0.9-0.8,1.8-1.5,2.9-2.3c2.1-1.5,4-3.6,5-6.1c1.3-3,1.6-6.2,1.4-9.2c-0.3-3-1.2-5.8-2.4-8.3
							c-1.3-2.4-2.8-4.5-3.7-6.7c-1-2.1-1.1-4.3-0.8-6.3c0.3-2,0.8-3.8,1.2-5.3c0.4-1.6,0.6-3,0.6-4.1c0.1-1.2-0.1-2.1-0.3-2.6
							c-0.2-0.6-0.3-0.9-0.3-0.9c-0.1,0,0.4,1.2,0.2,3.5c-0.1,1.1-0.4,2.5-0.8,4c-0.4,1.6-1,3.3-1.4,5.4c-0.4,2-0.3,4.5,0.7,6.8
							c0.9,2.3,2.4,4.4,3.6,6.8c1.2,2.4,2,5,2.3,7.9c0.2,2.8-0.1,5.9-1.3,8.6c-1,2.3-2.7,4.2-4.7,5.7c-1,0.8-2,1.5-2.9,2.4
							c-0.9,0.9-1.7,1.8-2.4,2.8c-2.6,4-5.1,7.4-7.8,10.1c-5.3,5.5-10.4,8.1-12.5,9.1l0.1,0C1175.7,195.8,1175.3,195.5,1175.2,195.5
							z"/>
					</g>
				</g>
			</g>
		</g>
	</g>
	<g>
		<path class="st4" d="M787.7,169.5c-5.4-8.5-14-15-24.5-17.5c-21.7-5.3-43.5,8-48.8,29.7c-5.3,21.7,8,43.5,29.7,48.8
			c10.8,2.6,21.5,0.5,30.3-4.8l0.5-0.3l-27.4,112.4l88.3,21.5l-0.3-0.5c-5.3-8.8-7.4-19.5-4.8-30.3c5.3-21.7,27.1-34.9,48.8-29.7
			c21.7,5.3,34.9,27.1,29.7,48.8c-2.6,10.5-9.1,19.1-17.5,24.5l-0.9,0.5l95,23.2c20.5-45.7,32.4-107.2,7.2-177.4
			C952.3,105.1,858.7,69.6,826.7,60.6l-11-2.7l-27.4,112.4L787.7,169.5z"/>
		<g>
			<path class="st4" d="M787.7,169.5c0,0,0.1,0.1,0.6,0.8l0,0c1-4.5,10.7-45,27.1-112.5l0.1-0.4l0.4,0.1c3,0.7,6,1.4,9.1,2.2
				c3.1,0.7,6.1,1.8,9.3,2.7c6.2,2,12.6,4.4,19,7.1c12.8,5.4,26.1,12.1,39.2,20.5c13.1,8.5,26.1,18.4,38.4,30.2
				c12.1,12,23.8,25.5,34,40.7c2.6,3.8,4.8,7.9,7.3,11.8c1.2,2,2.4,4,3.6,6c1.1,2.1,2.1,4.2,3.2,6.3c2.1,4.3,4.3,8.5,6.4,12.9
				c1.8,4.5,3.6,9,5.5,13.5c7.3,18.2,12.5,37.8,15.2,58.3c2.4,20.5,2.5,41.9-0.9,63.2c-0.7,5.4-1.9,10.7-3,16
				c-1.3,5.3-2.6,10.6-4.2,15.9c-3.2,10.5-7,21-11.6,31.2l-0.2,0.5l-0.5-0.1c-21.2-5.2-43.6-10.6-66.3-16.2
				c-9.6-2.3-19.2-4.7-28.7-7l-1.5-0.4l1.3-0.8c7.1-4.3,12.7-10.7,16-18.2c1.7-3.7,2.6-7.7,3-11.8c0.5-4,0.2-8.1-0.6-12.1
				c-0.3-2-1-3.9-1.6-5.8c-0.8-1.8-1.5-3.7-2.5-5.4c-2-3.5-4.3-6.7-7.3-9.5c-5.7-5.5-13.1-9.2-20.9-10.5c-7.7-1.3-15.8-0.3-22.8,2.9
				c-7.1,3.1-13.1,8.4-17.2,14.8c-2,3.2-3.7,6.6-4.7,10.3c-1.1,3.6-1.6,7.4-1.6,11.1c0,7.5,2.2,14.9,6.1,21l0.8,1.2l-1.4-0.3
				c-30.9-7.5-60.4-14.8-88.3-21.6l-0.5-0.1l0.1-0.5c10.1-41.1,19.2-78.7,27.5-112.4l0.7,0.5c-6.3,4-13.5,6.1-20.5,6.3
				c-7.1,0.2-13.9-1.5-19.8-4.6c-12-6.1-19.4-17.9-21.3-29.4c-1.9-11.7,1.5-22.9,7.5-31c6.1-8.1,14.4-12.9,22.4-15.1
				c4-1,7.9-1.4,11.6-1.3c3.6,0.2,7,0.7,10.1,1.6c6.1,1.8,10.7,4.7,14.1,7.4c3.3,2.8,5.5,5.3,6.8,7.1
				C787.2,168.5,787.7,169.5,787.7,169.5s-0.2-0.2-0.5-0.7c-0.3-0.5-0.8-1.1-1.5-2c-1.3-1.7-3.5-4.3-6.8-7c-3.4-2.7-8-5.5-14-7.2
				c-3-0.8-6.4-1.4-10-1.6c-3.6-0.1-7.5,0.3-11.4,1.3c-7.8,2.1-16.1,6.9-22,14.9c-5.9,7.9-9.2,19-7.3,30.5
				c1.9,11.3,9.2,22.8,21,28.8c5.8,3,12.5,4.7,19.4,4.5c6.9-0.2,13.9-2.3,20-6.1l1-0.6l-0.3,1.1c-8.2,33.7-17.3,71.3-27.3,112.4
				l-0.4-0.7c28,6.8,57.4,14,88.3,21.5l-0.6,0.9c-4.1-6.4-6.3-14-6.3-21.7c0-3.8,0.5-7.7,1.7-11.4c1-3.7,2.7-7.3,4.8-10.6
				c4.2-6.6,10.4-12,17.7-15.2c7.2-3.3,15.6-4.4,23.5-3c8,1.3,15.6,5.1,21.5,10.8c3,2.8,5.5,6.2,7.5,9.7c1.1,1.8,1.8,3.7,2.6,5.6
				c0.6,2,1.3,3.9,1.7,6c0.8,4.1,1.1,8.3,0.6,12.4c-0.5,4.1-1.4,8.3-3.1,12.1c-3.3,7.7-9.2,14.4-16.5,18.8l-0.2-1.1
				c9.5,2.3,19.1,4.6,28.7,7c22.7,5.5,45.1,11,66.3,16.2l-0.7,0.4c4.5-10.2,8.4-20.5,11.5-31c1.6-5.2,2.9-10.5,4.2-15.8
				c1.1-5.3,2.3-10.6,3-15.9c3.4-21.2,3.4-42.5,1-62.9c-2.7-20.4-7.8-39.9-15.1-58c-1.8-4.5-3.6-9-5.4-13.5
				c-2.1-4.3-4.3-8.6-6.4-12.8c-1.1-2.1-2.1-4.2-3.2-6.3c-1.2-2-2.4-4-3.6-6c-2.4-4-4.7-8-7.2-11.8c-10.2-15.2-21.8-28.7-33.8-40.6
				c-12.3-11.7-25.2-21.7-38.2-30.1c-13-8.5-26.2-15.1-39-20.6c-6.4-2.7-12.7-5-18.9-7.1c-3.1-0.9-6.2-2-9.2-2.7
				c-3.1-0.8-6.1-1.5-9-2.2L816,58c-16.5,67.4-26.5,108-27.7,112.4l0,0.1l0-0.1C787.8,169.6,787.7,169.5,787.7,169.5z"/>
		</g>
	</g>
	<g>
		<g>
			<path class="st27" d="M982.7,195.3c0,0-3.3-16.4-3.5-21.7c-0.2-5.3-14.6-13.8-14.6-13.8l3.8,7.3l0.9,2.5c0,0-0.8,4.3-3.3,3.5
				c-2.5-0.8-28.8-18.2-28.8-18.2c-5.6-3.7-7.4-0.2-7.4-0.2s-3.8-2.7-5.8-0.3c-1.3,1.5,1.2,5.7,1.2,5.7s-3.6-3.6-6.5-1.4
				c-3,2.1,3.3,9,3.3,9c-2,4.6,10,18,13.1,21.7c3.1,3.7,35.3,29.6,35.3,29.6l18.1-15.9L982.7,195.3z"/>
		</g>
	</g>
	<g>
		<g>
			<path class="st27" d="M1304,727.6c-11.3-6.2-34.8-10-34.8-10l-16,28.8l38.7,8.3"/>
			<path class="st27" d="M1322.1,734.1c0,0-7.8-4.7-14.2-6.4c-4.6-1.2-5.9-1.9-5.9-1.9s-0.9-0.8-1.6,0.1s-1.2,11-5.7,18.8
				c-4.5,7.8-8.4,7-9.3,9.1s1.1,2.6,5.2,3.1c4.9,0.6,9.1,4.4,9.1,4.4"/>
			<g>
				<g>
					<g>
						<g>
							<g>
								<g>
									<path class="st27" d="M1299.1,758.4c0,0-2.7,2.4-2.5,3.3c0.6,2.9-2.8,17.8-2.8,17.8s-8.7,3.5-11.9,5.2
										c-5.8,3.2-6.6,10.6-4.9,12.3c0.8,0.7,8.3,2.2,22.4,1.8c3.9-0.1,16.1-7.8,22.8-34.6c3.3-13.5,6.3-6.5,10.3-23.8
										c0.3-1.2-7.8-6.9-19.3-10.9"/>
								</g>
							</g>
						</g>
					</g>
				</g>
			</g>
			<path class="st28" d="M1276.5,791.8c0,0,11.2,1.9,22.7,0.6c7.6-0.9,14.2-18.6,19.6-32c2.7-6.8,6.5-12.4,7.3-14.1
				c2.2-5.2,1.5-9.9,1.5-9.9"/>
			<path class="st27" d="M1299.1,758.4c0,0,4.9-4,11-10.7c6.1-6.8,9.2-15.3,3.2-18.1"/>
			<path class="st113" d="M1294.3,776.6c0,0,3.3,1.3,6.3-0.4"/>
			<path class="st113" d="M1293.8,779.7c0,0,2.2,2.8,5.6,2.8"/>
			<path class="st114" d="M1294.4,768c0,0,0.1,4.8-2.8,4.5c-2.9-0.3,2.9-5.4,2.9-5.4s2.4,6.9,6.1,5.7c3.7-1.2-5.3-6-5.3-6
				s1.9-2.2,7-0.1"/>
		</g>
		<g>
			<g>
				<g>
					<g>
						<path class="st27" d="M1158.3,457.5c0,0,10.9,39.8,8.8,53.3c-0.7,4.6-4.1,18.5-6.4,29.3c-4,18.7-8,42.1-9.1,46.8l11.4,33.1
							l117.6,95.5c-5.3,22.1-14.6,40.6-29.3,54l-113.8-72.2l-4,31.3c0,0,1,72.8-1.8,108.3l-55.6-1.9l-9.5-183.8l-15.4-190.6
							L1158.3,457.5z"/>
					</g>
				</g>
			</g>
		</g>
		<g>
			<g>
				<g>
					<g>
						<path class="st7" d="M1191.9,275.3l-24.8,122.6c0,0,25.3,57.4,22.4,79.9c-1.7,13.1-0.6,38.5-15.8,37.1
							c-11.7-1-111.5-44.1-124.1-45.8c-15.7-2.1,12-141.1,19.9-167.7c11.2-37.5,45.8-81.1,45.8-81.1l0,0c0,0-5.4-14.5,0.7-12.8
							c6.1,1.7,59.2-5.4,63,0.9c3.8,6.3-0.4,12.9-0.4,12.9S1199,244.6,1191.9,275.3z"/>
					</g>
				</g>
			</g>
			<g>
				<path class="st3" d="M1165.9,510.3c2-5.9,3.2-11.9,5.1-17.7C1170.7,498.7,1168.9,504.9,1165.9,510.3L1165.9,510.3z"/>
			</g>
			<g>
				<path class="st3" d="M1149.9,505.1c2-5.9,3.2-11.9,5.1-17.7C1154.7,493.5,1152.9,499.7,1149.9,505.1L1149.9,505.1z"/>
			</g>
			<g>
				<path class="st3" d="M1132.9,499c2-5.9,3.2-11.9,5.1-17.7C1137.7,487.4,1135.9,493.6,1132.9,499L1132.9,499z"/>
			</g>
			<g>
				<path class="st3" d="M1115.3,492.5c2-5.9,3.2-11.9,5.1-17.7C1120.1,480.9,1118.3,487.1,1115.3,492.5L1115.3,492.5z"/>
			</g>
			<g>
				<path class="st3" d="M1098.8,487c2-5.9,3.2-11.9,5.1-17.7C1103.6,475.4,1101.8,481.6,1098.8,487L1098.8,487z"/>
			</g>
			<g>
				<path class="st3" d="M1080.7,478.5c2-5.9,3.2-11.9,5.1-17.7C1085.5,467,1083.7,473.1,1080.7,478.5L1080.7,478.5z"/>
			</g>
			<g>
				<path class="st7" d="M1051.5,321.5c9.2,0.2,115.6-19.2,115.6-19.2"/>
			</g>
		</g>
		<g>
			<g>
				<g>
					<g>
						<g>
							<path class="st7" d="M1165.3,235.8c7.8,1,7.6,4.1,16.7,13.8c9.1,9.7-0.1,37.8-0.1,37.8l-27.4,20.9c0,0-100,18.5-119.8,13.1
								c-19.8-5.4-78.5-106.1-78.5-106.1c8.2-12.5,18.8-18.9,31.3-20.9l63.1,67.5L1165.3,235.8z"/>
						</g>
					</g>
				</g>
			</g>
		</g>
	</g>
</g>
<g>
	<path class="st3" d="M1056.8,442.6c19.5,12,40.6,21,61.9,29.2c15.9,6,32.5,11.3,48.8,16.1c5.5,1.6,11,3,16.5,4.6
		c-5.6-1.2-11.2-2.5-16.8-3.8c-16.5-4.1-33.4-9.1-49.3-15.1C1096.6,465.6,1075.3,456.3,1056.8,442.6L1056.8,442.6z"/>
</g>
<path class="st27" d="M981.1,587.1l-52.2,71.5L850,636.5c-7.6,9.1-13.7,19.3-18,30.6c0,0,95.8,48,112.3,40.9
	c16.5-7.1,78.9-98.5,78.9-98.5L981.1,587.1z"/>
<path class="st4" d="M870.6,461.2l0.7-0.7c6.8-7.1,11-16.8,11-27.4c0-21.9-17.7-39.6-39.6-39.6s-39.6,17.7-39.6,39.6
	c0,10.9,4.5,20.6,11.6,27.7l0.4,0.4l-94.3,0l0,105.8l0.4-0.4c7.2-7.1,16.9-11.6,27.7-11.6c21.9,0,39.6,17.7,39.6,39.6
	c0,21.9-17.7,39.6-39.6,39.6c-10.6,0-20.3-4.2-27.4-11l-0.7-0.7l0,121.3h106.3c0,0,4.8-40.5,9.7-71.3c4.8-30.8,73.7-93.5,93.4-119.7
	c8-10.5,27.6-45.1,36.2-91.7H870.6z"/>
<g>
	<path class="st4" d="M870.6,461.2c2.5,0,34.9-0.1,95.9-0.3l0.4,0l-0.1,0.4c-3.4,18.1-9.1,38.4-18.4,59.7
		c-4.8,10.6-10.2,21.6-17.6,32c-7.8,10.1-16.9,19.7-26.2,29.8c-9.3,10.1-19,20.4-28.7,31.4c-9.6,11-19.4,22.6-27.9,35.5
		c-4.1,6.5-8.2,13.3-10.1,20.9c-1.5,7.7-2.5,15.8-3.7,23.8c-2.3,16.1-4.4,32.7-6.4,49.5l-0.1,0.5h-0.5c-34.2,0-69.7,0-106.3,0
		l-0.6,0v-0.6c0-27.1,0-55.6,0-84.6c0-12.3,0-24.6,0-36.7V621l1.1,1.1c5.7,5.8,13.2,9.7,21.1,11c3.9,0.7,8,0.7,11.9,0.2
		c4-0.5,7.8-1.7,11.4-3.4c1.8-0.8,3.5-1.9,5.2-2.9c1.6-1.2,3.2-2.3,4.6-3.7c2.9-2.7,5.4-5.7,7.3-9.1c3.9-6.7,5.7-14.6,5.1-22.3
		c-0.5-7.7-3.4-15.1-8.1-21.1c-4.6-6-11-10.5-18.1-13c-3.5-1.2-7.2-2-10.9-2.1c-3.7-0.3-7.4,0.1-10.9,1c-7.1,1.7-13.6,5.6-18.6,10.7
		l-1,1.1l0-1.4c0-37.3,0-72.7,0.1-105.8l0-0.5l0.5,0c34,0,65.5,0.1,94.3,0.1l-0.3,0.8c-5.3-5.1-9-11.5-10.8-18.2
		c-1.8-6.7-1.7-13.7-0.1-20.1c3.1-12.9,12.8-22.7,23.4-27.1c10.8-4.4,22.4-3.7,31.4,0.4c9.2,4,15.6,11.1,19.3,18.2
		c1.9,3.6,3,7.3,3.7,10.8c0.3,1.8,0.6,3.5,0.6,5.2c0.1,1.7,0.1,3.3,0,4.9c-0.4,6.3-2.2,11.3-4.1,15.1c-1.9,3.8-4,6.4-5.4,8
		c-0.7,0.8-1.3,1.4-1.7,1.8C870.9,460.9,870.8,461.1,870.6,461.2c0.1-0.1,0.3-0.3,0.6-0.6c0.4-0.4,0.9-1,1.6-1.9
		c1.4-1.7,3.4-4.3,5.3-8.1c1.9-3.8,3.6-8.9,4-15c0.1-1.5,0.1-3.2,0-4.8c0-1.7-0.4-3.4-0.6-5.1c-0.8-3.5-1.8-7.2-3.7-10.7
		c-3.7-7.1-10.1-14-19.1-17.9c-8.9-3.9-20.3-4.6-30.9-0.3c-10.4,4.4-19.8,14-22.9,26.6c-1.6,6.2-1.7,13.1,0.1,19.6
		c1.8,6.6,5.4,12.8,10.5,17.8l0.8,0.8l-1.1,0c-28.7,0-60.3,0-94.3,0.1l0.5-0.5c0,33.1,0,68.5,0.1,105.8l-1-0.4
		c5.2-5.4,11.8-9.3,19.2-11.1c3.7-0.9,7.5-1.3,11.3-1c3.8,0.1,7.6,0.9,11.2,2.1c7.3,2.5,13.8,7.2,18.6,13.3
		c4.8,6.1,7.8,13.8,8.3,21.7c0.6,7.9-1.2,16.1-5.3,23c-2,3.5-4.6,6.7-7.5,9.4c-1.4,1.4-3.1,2.6-4.7,3.8c-1.7,1.1-3.4,2.2-5.3,3
		c-3.7,1.7-7.6,3-11.7,3.5c-4.1,0.5-8.2,0.6-12.3-0.2c-8.2-1.4-15.9-5.4-21.8-11.3l1.1-0.4c0,12.1,0,24.4,0,36.7c0,29,0,57.5,0,84.6
		l-0.6-0.6c36.6,0,72.2,0,106.3,0l-0.6,0.5c2.1-16.9,4.2-33.4,6.5-49.5c1.2-8.1,2.2-16,3.7-23.9c2-7.9,6.1-14.8,10.3-21.3
		c8.6-13,18.4-24.5,28-35.6c9.7-11,19.4-21.4,28.7-31.4c9.3-10.1,18.5-19.6,26.2-29.7c7.4-10.3,12.8-21.3,17.6-31.8
		c9.4-21.2,15.1-41.5,18.5-59.5l0.3,0.4C905.5,461.3,873.1,461.2,870.6,461.2z"/>
</g>
<g>
	<g>
		<path class="st12" d="M1087.2,418.8c-0.4-1.3-1.3-2.4-2.4-3.4c-3.3-3.1-7.9-4.8-12.4-4.6c3.2-2.6,6.4-5.4,8.4-9.1
			c2-3.7,2.5-8.4,0.4-11.9c-2.1-3.5-6.4-5.1-10.4-5.8c-5.6-0.9-11.6-0.3-16.6,2.4c-5,2.8-8.8,7.8-9.3,13.5l8.1,12.3
			c1.8,5.1,5,9.8,9.2,13.2c1.9,1.6,4.5,3,6.8,2c1.9-0.9,2.8-3.3,2.5-5.4c-0.2-2.1-1.4-4-2.5-5.8c3.5,3.2,7.8,5.6,12.4,6.8
			c1.6,0.4,3.5,0.6,4.7-0.4C1087.3,421.7,1087.6,420.1,1087.2,418.8z"/>
		<g>
			<path class="st12" d="M1054.9,406.6c0.2-0.3,3.2,3.3,8.5,4.4c5.2,1.2,9.4-0.8,9.5-0.5c0.1,0.1-0.9,0.8-2.6,1.4
				c-1.7,0.6-4.4,0.9-7.2,0.3c-2.8-0.6-5-2-6.4-3.3C1055.3,407.7,1054.8,406.7,1054.9,406.6z"/>
		</g>
		<g>
			<path class="st12" d="M1083.3,390.8c-0.1,0.2-2.1-0.3-5.4-0.4c-3.3-0.1-7.9,0.3-12.5,2.4c-4.6,2.1-8,5.2-10.1,7.7
				c-2.1,2.5-3,4.4-3.2,4.3c-0.1,0,0.5-2.1,2.5-4.9c2-2.8,5.5-6.2,10.2-8.3c4.8-2.2,9.7-2.5,13-2.1
				C1081.3,389.8,1083.3,390.6,1083.3,390.8z"/>
		</g>
	</g>
	<path class="st4" d="M1054.2,410.5c0-1.1-0.4-2.2-0.9-3.2c-1.7-4.1-3.6-8.4-7.3-10.9c-0.7-0.4-1.5-0.8-2.2-0.5
		c-1.2,0.4-1.3,2-0.9,3.2c0.5,1.2,1.3,2.2,1.5,3.4l3.9,8.2c0.3,0.9,0.9,1.8,1.7,2.3c0.8,0.6,1.9,0.7,2.8,0.3
		C1053.8,412.8,1054.2,411.6,1054.2,410.5z"/>
	<g>
		<g>
			<g>
				<path class="st12" d="M1059.4,472.7c1.3-10.2,2.6-20.4,2.2-30.7c-0.4-10.3-2.7-20.6-7.9-29.4c-0.8-1.3-7.1-10.1-8.6-9.7
					c-1.1,0.3,3.4,8.8,3,9.8c-3.6,10-3,21.1-0.2,31.3C1050.6,454.3,1054.5,463.2,1059.4,472.7"/>
			</g>
			<g>
				<g>
					<path class="st27" d="M1047.8,562.1c15.6-3.2,25.7-18.3,22.8-34c0,0-7.1-11.4-11.1-26.7s1.1-42.5-1.8-63.6
						c-2.9-21.1-26.4-48.2-51.7-43.6l-2.3,0.6c-11.5,2.8-29.9,13.6-32.5,38.8c-3.9,36.6,2.7,68.7,14.1,85.8
						c5.1,7.6,11.3,9.4,16.3,9.3c5.1-0.1,9-2.3,9-2.3c0.1,0,1.2,5.6,2.6,12.7C1016.3,555,1031.9,565.4,1047.8,562.1L1047.8,562.1z"
						/>
				</g>
			</g>
			<g>
				<g>
					<path class="st1" d="M1002.1,493.2c-5.5,5.1-13.9,5.7-20.1,1.6c3.1,1.3,6.5,2,9.8,1.2c3.1-0.6,6-2.4,8-4.8
						C999.8,491.2,1002.1,493.2,1002.1,493.2L1002.1,493.2z"/>
				</g>
				<g>
					<path class="st1" d="M1003.6,495.1c-2.9-0.3-4.5-2.4-5.3-5C1001.1,489.5,1004,492.1,1003.6,495.1L1003.6,495.1z"/>
				</g>
				<g>
					<path class="st1" d="M990.6,464.8c-0.3,2.6-2.7,4.8-5.3,5.1c-1.1,0.2-2.4-0.3-3.3-0.1c-0.5,0.2-1.3,0.9-1.6,1.4
						c-1.5,3.7,1.6,8.2,5.6,9.2c-5.5,1.2-10.7-5.4-8.2-10.6c1.1-2.1,3.7-3.5,6-2.6C986.3,468.1,988.8,467.1,990.6,464.8L990.6,464.8
						z"/>
				</g>
			</g>
			<g>
				<g>
					<g>
						<path class="st1" d="M1009.8,525.5c0,0,14.9-5.3,29.7-23.6c0,0-1.2,24.1-26.9,34.2L1009.8,525.5z"/>
					</g>
				</g>
			</g>
			<g>
				<g>
					<path class="st3" d="M1052.5,448.1c0.4-0.3,11.3-15.2,14.7,1.4c3.4,16.5-11.5,20.9-11.6,20.4"/>
					<path class="st1" d="M1052.5,448.1c7-10.2,14.2-9.3,15.8,3.5c0.9,6.1-1.7,12.8-7.1,16.1c-1.7,1-3.6,2.1-5.6,2.1
						c3.8-0.8,7.1-3.8,9.1-7c2.1-3.3,2.6-7.3,2.2-11.1C1065.2,439.6,1060.1,440.1,1052.5,448.1L1052.5,448.1z"/>
				</g>
			</g>
			<g>
				<path class="st12" d="M974.6,417.4c-3-0.9-2.7-9.2,9.1-15.9c9.7-5.5,23.7-12.3,33.4-11.5c11.7,0.9,22,4.6,29.5,13.6
					c7.5,9,12,20.3,13.9,31.8c0.6,3.5,1,7.2-0.3,10.6c-1.6,4.1-5.6,7.3-4.4,12.3c0.4,1.8,0.3,3.8-0.7,5.4c-2.4,3.8-6.7,1.5-9-1.2
					c-4.9-5.8-6.9-13.4-8.7-20.8c-1.3-5.2-3.1-26.8-16.8-26.1c-7.9,0.4-14.7,3.6-21.9,4.5c-5.1,0.7-11.6-0.6-12.9-1.2
					c-6.9-3.4-8.9-6.1-8.9-6.1L974.6,417.4z"/>
			</g>
		</g>
	</g>
	<g>
		<path class="st12" d="M1015.8,387.9c-9.7-1.2-20,1-27.7,7.1c-4.1,3.2-7.4,7.8-7.8,13c-0.4,5.2,2.9,10.8,8,11.8l0.4,0.1
			c7.5,1,11.9-0.9,18.5-4.7c5.5-3.2,10.1-7.9,15.6-11.1c5.9-3.4,12.8-5,19.6-4.5C1034.6,393.6,1025.5,389.1,1015.8,387.9z"/>
		<g>
			<path class="st12" d="M1040,397.5c0,0.3-3.2-1.2-8.4-0.1c-2.5,0.5-5.4,1.7-8.3,3.6c-2.9,1.9-5.7,4.4-8.7,7.2
				c-2.9,2.8-5.8,5.4-8.8,7.4c-2.9,2-5.9,3.4-8.6,4c-2.6,0.6-4.9,0.6-6.4,0.4c-1.5-0.2-2.3-0.6-2.2-0.6c0-0.2,3.3,0.9,8.4-0.6
				c2.5-0.7,5.3-2,8.1-4.1c2.8-2,5.6-4.6,8.6-7.4c2.9-2.8,5.9-5.4,8.9-7.3c3-1.9,6.1-3.1,8.8-3.5c2.7-0.5,4.9-0.2,6.4,0.1
				C1039.3,397,1040,397.4,1040,397.5z"/>
		</g>
		<g>
			<path class="st12" d="M1031.9,393.5c0,0.3-3-0.8-7.7,0.4c-2.3,0.6-4.9,1.7-7.5,3.4c-2.6,1.7-5.2,4.1-7.7,6.7
				c-2.6,2.6-4.9,5.3-7.3,7.5c-2.3,2.2-4.7,4-6.8,5.3c-2.1,1.3-4,2-5.3,2.4c-1.3,0.4-2.1,0.4-2.1,0.3c-0.1-0.2,2.9-0.8,6.9-3.5
				c2-1.3,4.2-3.1,6.4-5.4c2.3-2.2,4.6-4.9,7.2-7.5c2.6-2.7,5.2-5.1,8-6.8c2.8-1.8,5.5-2.8,8-3.3c2.4-0.5,4.5-0.4,5.8-0.1
				C1031.2,393.1,1031.9,393.4,1031.9,393.5z"/>
		</g>
		<g>
			<path class="st12" d="M1053.4,411.1c0.1,0,0.2,1.9-0.3,4.9c-0.5,3-1.9,7.1-4.2,11.1c-2.4,4-5.3,7.2-7.7,9.1
				c-2.4,1.9-4.1,2.8-4.1,2.7c-0.3-0.3,6.2-4.5,10.8-12.4C1052.4,418.7,1053,411.1,1053.4,411.1z"/>
		</g>
		<g>
			<path class="st12" d="M1057.8,422.4c0.1,0,0.6,1.8,0,4.6c-0.6,2.8-2.5,6.5-5.7,9.6c-3.2,3-6.7,4.9-9.2,6.2
				c-2.5,1.3-4.2,1.9-4.2,1.7c-0.1-0.2,1.4-1.1,3.8-2.5c2.4-1.5,5.7-3.4,8.8-6.3c3-2.9,4.9-6.3,5.7-8.9
				C1057.7,424.2,1057.5,422.4,1057.8,422.4z"/>
		</g>
		<g>
			<path class="st12" d="M992.1,395.9c0.2,0.1-0.6,1.4-1.7,3.4c-1.1,2-2.6,4.8-3.4,8.2c-0.8,3.3-0.5,6.5,0.2,8.7
				c0.7,2.2,1.6,3.3,1.4,3.4c-0.1,0.1-1.3-0.9-2.2-3.1c-1-2.2-1.4-5.7-0.5-9.2c0.9-3.6,2.6-6.4,3.9-8.4
				C991,396.9,992,395.9,992.1,395.9z"/>
		</g>
	</g>
</g>
<g>
	<path class="st7" d="M1202.9,760.4c0,0,30.9,89.4,30.2,102.8c-0.7,13.3-3.5,33.8-11,33.5c-7.4-0.3-70.9-5.5-70.9-5.5l-39.3-10.4
		l-8.1-71.5L1202.9,760.4z"/>
</g>
<g>
	<g>
		<g>
			<path class="st27" d="M1147.5,831.4c-12.8-1.9-36.1,2.6-36.1,2.6l-5.1,32.5l39.2-5.5"/>
			<path class="st27" d="M1166.8,831.2c0,0-9-1.7-15.5-1.1c-4.7,0.4-6.2,0.3-6.2,0.3s-1.1-0.4-1.4,0.6s2.7,10.7,1.1,19.6
				c-1.5,8.9-5.5,9.5-5.6,11.7s1.9,2.1,5.9,1.1c4.8-1.1,10.1,1,10.1,1"/>
			<g>
				<g>
					<g>
						<g>
							<g>
								<g>
									<path class="st27" d="M1153.5,862c0,0-1.7,3.2-1.2,4c1.6,2.5,3.5,17.7,3.5,17.7s-6.9,1.5-9.3,4.2c-4.4,5-2.5,12.2-0.3,13.2
										c1,0.4,8.1,2.5,22.3-0.3c3.9-0.8,11.7-13.8,8.7-41.2c-1.5-13.8,3.7-8.2,1.5-25.9c-0.1-1.2-9.7-3.8-21.8-3.6"/>
								</g>
							</g>
						</g>
					</g>
				</g>
			</g>
			<path class="st28" d="M1143.8,896.3c0,0,12.6,2.1,23.6-1.7c7.3-2.5,4.8-23.2,5.2-37.6c0.2-7.3,1.8-13.9,1.9-15.8
				c0.3-5.6-2-9.8-2-9.8"/>
			<path class="st27" d="M1153.5,862c0,0,3.2-5.4,6.6-13.8c3.4-8.4,3.4-17.5-3.2-18.1"/>
			<path class="st113" d="M1155.3,880.8c0,0,3.5,0.1,5.8-2.5"/>
			<path class="st113" d="M1155.9,883.8c0,0,3,1.9,6.3,0.7"/>
			<path class="st114" d="M1152.5,872.6c0,0,1.8,4.5-1.1,5.2c-2.8,0.7,0.9-6,0.9-6s4.6,5.6,7.7,3.2s-7.1-3.8-7.1-3.8s1-2.7,6.5-2.5"
				/>
		</g>
		<g>
			<path class="st4" d="M1052.4,777.7c0,0-102.4,32.1-125.1,50.5c-11.5,9.3-13.7,46.9,4.8,62.3c18.5,15.3,43,7.8,57.1,7
				c14.2-0.8,127.7-20.2,127.7-20.2c4.5-17.3,9.4-34.8,0.3-45.8l0.3-41.9L1052.4,777.7z"/>
		</g>
	</g>
	<g>
		<path class="st27" d="M1126.3,859c-7.8-10.3-27.5-23.5-27.5-23.5l-26.5,19.6l31.8,23.6"/>
		<path class="st27" d="M1140.1,872.4c0,0-5.2-7.5-10.3-11.7c-3.7-3-4.6-4.2-4.6-4.2s-0.5-1.1-1.4-0.6c-0.9,0.5-5.6,9.5-12.9,14.8
			c-7.3,5.3-10.6,2.9-12.2,4.4c-1.6,1.6-0.1,2.8,3.4,5c4.2,2.6,6.5,7.8,6.5,7.8"/>
		<g>
			<g>
				<g>
					<g>
						<g>
							<g>
								<path class="st27" d="M1109.1,885c0,0-3.5,1.1-3.7,2c-0.6,2.9-9.9,15.1-9.9,15.1s-5.8,1.5-12.5,3.5
									c-9.3,2.8-10.4,12.6-9.5,14.8c0.4,1,7.9,1.8,22.5,2.3c3.9,0.1,9.7-1.8,29.8-20.5c10.1-9.5,10.3-5.6,21.1-19.7
									c0.7-1-4.2-9.5-13-17.9"/>
							</g>
						</g>
					</g>
				</g>
			</g>
		</g>
		<path class="st28" d="M1073.5,915.6c0,0,9.2,0.6,20.8,1c8.3,0.3,21.4-11.8,31.8-21.7c5.3-5,11-8.6,12.5-9.9
			c4.2-3.8,5.4-8.4,5.4-8.4"/>
		<path class="st27" d="M1109.1,885c0,0,6.1-1.6,14.4-5.2c8.3-3.6,14.7-10.1,10.4-15.2"/>
		<path class="st113" d="M1097.2,899.6c0,0,2.4,2.6,5.9,2.3"/>
		<path class="st113" d="M1095.4,902.1c0,0,0.8,3.4,4,4.9"/>
		<path class="st114" d="M1100.9,891.8c0,0-1.9,4.4-4.4,3c-2.5-1.5,4.9-3.7,4.9-3.7s-0.7,7.3,3.2,7.7s-2.3-7.7-2.3-7.7
			s2.6-1.2,6.4,2.8"/>
	</g>
	<g>
		<path class="st4" d="M1014.8,702.1c-10.6-2.9-22.3-3.8-32.8-0.5c-5.9,1.8-11.6,5.2-15,10.1c-11.2,15.8-18.3,41.6-6.7,59
			c9.8,14.6,107.3,107.7,107.3,107.7c22.4-2.4,40.7-10.4,52.1-28.6l-23.7-31.6c0,0,41.9,14.2,59.6,10.6
			c17.7-3.6,46.8-20.7,43.1-48.5l-4.9-8.6c-8.4-15-22.5-26-39.1-30.7L1014.8,702.1z"/>
	</g>
</g>
<g>
	<g>
		<path class="st115" d="M859.5,596.5c0.1-0.4-2-1.3-4.3-2.8c-2.4-1.4-4.1-2.9-4.4-2.6c-0.3,0.2,1.2,2.2,3.7,3.7
			C857,596.4,859.4,596.8,859.5,596.5z"/>
	</g>
</g>
<g>
	<g>
		<path class="st115" d="M853.9,605.4c0.2-0.3-0.4-1.2-1.5-2.1c-1.1-0.9-2.1-1.4-2.4-1.1c-0.2,0.3,0.4,1.2,1.5,2.1
			C852.6,605.2,853.7,605.7,853.9,605.4z"/>
	</g>
</g>
<g>
	<g>
		<path class="st115" d="M855.8,612.7c0-0.4-1.1-0.8-2.4-1.3c-1.3-0.5-2.4-0.9-2.6-0.6c-0.2,0.3,0.6,1.3,2.1,1.9
			C854.5,613.2,855.8,613,855.8,612.7z"/>
	</g>
</g>
<g>
	<g>
		<path class="st115" d="M852.7,578c0,0.2,1.1,0.6,2.8,1.5c1.7,0.9,4,2.3,6.5,3.8c0.6,0.4,1.2,0.8,2,1.1c0.7,0.3,1.6,0.4,2.3,0.3
			c1.4-0.2,2.5-0.7,3.4-1.2c1.7-1,2.7-1.7,2.6-1.8c-0.1-0.2-1.3,0.2-3,1c-0.9,0.3-2,0.8-3.1,0.8c-1.2,0.1-2.2-0.5-3.5-1.3
			c-2.5-1.6-4.9-2.9-6.8-3.6C854,577.9,852.7,577.8,852.7,578z"/>
	</g>
</g>
<g>
	<g>
		<g>
			<g>
				<path class="st12" d="M999.8,553.2c0,0-12.8,4.3-31.3,47.6L957.1,624l54.5,20.7l8.2-15.4L999.8,553.2z"/>
			</g>
			<g>
				<path class="st12" d="M1175,629.7c-14.9-83.9-38.7-103-52.1-111.3c-13.3-8.3-53.1-8.9-59.8-6c-3.8,1.7-12,19.1-22.5,27.5
					c-7.7,6.2-16.5,4.1-25.9,4.4c-4.7,0.2-11.7,4.8-17.8,10.7l37.4,152.5c0,0,77.6,27.9,101.4,33.9c23.8,5.9,35.3,25.4,49.4,34.7
					c11.4,7.5,17.2-6.2,17.2-6.2s-10.3-22.7-20.9-78.7C1178.6,676.2,1178.2,647.4,1175,629.7z"/>
			</g>
		</g>
		<g>
			<g>
				<path class="st1" d="M1072.9,721.1c49,13.5,86.1,26.8,118.9,58.1c1.3,1.3,5.8,6.7,8.1,12.1c1.9,4.5,5.3-13.7,5.7-18.6
					c0.6-8.9-3.9-16.2-9.8-22c-5.9-5.8-13.5-9.7-21.1-13.1C1141.8,723,1107.1,714.4,1072.9,721.1"/>
				<path class="st1" d="M1072.9,721.1c35,9.4,70.4,20.4,100,41.8c3.1,2.4,7,5.3,10,7.8c3.3,2.7,6.4,5.6,9.5,8.5
					c3.3,3.6,6,7.7,8.1,12.1c0,0,0.1,0.1,0.1,0.1c0,0,0,0,0,0c0,0,0,0,0,0l0.1-0.1c1.9-3.4,2.4-7.5,3.2-11.3
					c0.6-3.3,1.3-6.6,1.1-9.9c-0.1-3.3-1-6.6-2.5-9.5c-6.2-12.3-19-18.9-31.2-24c-18.6-8-38.1-14.2-58.2-16.5
					C1099.8,718.4,1086.2,718.7,1072.9,721.1c13.3-2.6,26.9-3,40.4-1.6c16.8,1.8,33.2,6.5,49,12.5c12.4,5.1,25.8,9.7,35.2,19.8
					c8.1,8.6,10.1,17,7.4,28.4c-0.5,1.8-2.3,13.7-5,12c-0.3-0.2-0.5-0.7-0.6-1c-1.9-4.2-4.5-8-7.6-11.4c-6-5.8-12.6-11.3-19.3-16.3
					C1143,742,1107.6,731,1072.9,721.1L1072.9,721.1z"/>
			</g>
		</g>
	</g>
	<g>
		<g>
			<g>
				<path class="st27" d="M1091.5,571.1c-12.7-7.4-31.9,0.4-31.9,0.4s-23.5,54.6-30.1,53.5c-15.4-2.6-115.3-26.2-115.3-26.2
					c-7.9-5.5-28.5-19.7-29.1-20h0c0,0-10-7.6-11.5-8.5l-20,4.4c-2.4,1.5-1,3.3-1,3.3c0,0,0,0,0,0c-1.3-0.4-2.5-0.5-3.1-0.1
					c-2.5,1.3-5.1,6-3.3,8.4c1.8,2.4,5.1,5.4,5.1,5.4s-5.5,2.8-2.8,7.8l1.8,3.1c0,0-5.1,4.4,1.5,8.9c0,0-3,4,3.4,8.7
					c6.4,4.7,14.7,7.3,16.7,7.7s16.8,1.5,18.2,1.5c1.3,0,19.1,4.2,19.1,4.2v0c0,0,88.4,36.8,120.3,41.3c31.8,4.5,35.2-3.1,45.2-19
					l32.2-59.7C1106.9,596.3,1104.2,578.5,1091.5,571.1z M861.9,582c0,0-2.9-1.6-5.9-2.8c3.9,0.6,9.1-0.5,9.1-0.5l3.2,3.1
					c-1.7,0.3-2.7,0.5-2.7,0.5L861.9,582z"/>
				<g>
					<g>
						<path class="st12" d="M1092.6,518.1c-8.3,3.4-18.6,15.5-22.2,21.8c-8.8,15.6-20,40-20,40l43.2,29c3.3,2.2,6.5,7.5,7.9,7.3
							c2.2-0.3,6.5-8.9,7.7-10.9c7.1-12.3,18.6-33.5,22.9-49.7"/>
						<path class="st3" d="M1092.7,518.2c-5.8,2.6-10.4,7.3-14.5,12c-4.3,4.7-7.6,10.1-10.4,15.8c-2.9,5.6-5.7,11.3-8.4,17.1
							c-2.7,5.7-5.4,11.5-8,17.3c0,0-0.4-1.2-0.4-1.2l27.1,18.5c0.8,0.6,15.1,10.3,15.2,10.4c2.9,1.8,4.9,4.9,7.3,7.2
							c0.2,0.2,0.5,0.4,0.7,0.5c0.7-0.1,1.4-0.9,1.9-1.5c3.3-4.3,5.6-9.3,8.5-14c5.4-9.5,10.5-19.2,14.9-29.2
							c2.1-5,4.1-10.1,5.6-15.4c-1.4,5.3-3.3,10.4-5.3,15.5c-4.2,10.1-9.1,19.9-14.4,29.5c-2.8,4.8-5,9.7-8.4,14.2
							c-1,1.3-2.4,2.8-4,1.2c-2-1.9-3.6-4.1-5.7-5.9c-2-1.6-14.6-9.7-17-11.3c0,0-27.4-18.1-27.4-18.1l-0.7-0.5
							c2.8-6,5.8-12,8.8-17.9c2.9-5.7,5.8-11.3,8.9-16.9c3-5.7,6.4-11.1,10.9-15.7c4.3-4.6,9.1-9.2,15-11.7
							C1092.6,518.1,1092.7,518.2,1092.7,518.2L1092.7,518.2z"/>
					</g>
				</g>
			</g>
		</g>
	</g>
</g>
<g>
	<path class="st27" d="M417.6,857.2c0.5-12.9,9.4-35,9.4-35l32.9,1.1L447,860.8"/>
	<path class="st27" d="M413.8,876.1c0,0,0-9.1,1.8-15.4c1.3-4.6,1.4-6.1,1.4-6.1s-0.2-1.2,0.9-1.3s10,4.6,19,4.8
		c9,0.2,10.3-3.6,12.6-3.3c2.2,0.4,1.7,2.3,0,6c-2,4.5-0.9,10.1-0.9,10.1"/>
	<g>
		<g>
			<g>
				<g>
					<g>
						<g>
							<path class="st27" d="M446.5,868.9c0,0,3.5-1.1,4.1-0.5c3.2,3.1,25.1,3.5,34.7,8.9c5.8,3.2,6.4,10.7,4.7,12.3
								c-0.8,0.7-8.3,2.1-22.4,1.5c-3.9-0.2-22.4-1-26.6-1.1c-13.9-0.4-25.8,0-27-1.7c-0.7-1-1.9-10.2,0.6-22.1"/>
						</g>
					</g>
				</g>
			</g>
		</g>
	</g>
	<path class="st27" d="M490.6,884.4c0,0-11.2,1.8-22.7,0.2s-39.8-0.1-45.4-0.9s-9.5-1.9-9.5-1.9"/>
	<path class="st27" d="M446.5,868.9c0,0-5.9,2.1-14.8,3.8c-8.9,1.7-17.9,0-17.1-6.6"/>
	<path class="st113" d="M466.4,871.7c0,0,0.3,3.5-2.2,5.9"/>
	<path class="st113" d="M471.9,872.8c0,0,0.3,3.5-2.2,5.9"/>
	<path class="st113" d="M477.9,873.9c0,0,0.3,3.5-2.2,5.9"/>
	<path class="st114" d="M457.1,869.9c0,0,4.1,2.6,5.3-0.1c1.2-2.6-6.1-0.3-6.1-0.3s4.7,5.6,1.7,8.1c-3,2.5-2.4-7.6-2.4-7.6
		s-2.8,0.5-3.7,5.9"/>
</g>
<g>
	<g>
		<g>
			<g>
				<g>
					<g>
						<g>
							<g>
								<g>
									<g>
										<g>
											<g>
												<g>
													<g>
														<g>
															<g>
																<g>
																	<g>
																		<g>
																			<path class="st44" d="M419.2,850.2c-1.7-0.2-3.4,1.2-3.6,2.9c-0.2,1.7,1.1,3.4,2.8,3.6c1.7,0.2,3.8-1.4,3.8-3.1
																				c0-1.7-1.7-3.7-3.4-3.4"/>
																		</g>
																	</g>
																</g>
															</g>
														</g>
													</g>
												</g>
											</g>
										</g>
									</g>
								</g>
							</g>
						</g>
					</g>
				</g>
			</g>
		</g>
	</g>
	<g>
		<g>
			<path class="st7" d="M510.3,448.8c0,0,35.4,147.4,35.6,196.1c0.1,32.9-94.1,203.2-94.1,203.2c-13.8,0.2-27-4.8-39.7-13.8
				c0,0,31.7-129.5,40.9-149.8l10.3-18.3L382,460.5L510.3,448.8z"/>
		</g>
		<g>
			<path class="st27" d="M385.2,873.3c0.5-12.9,0-35,0-35l32.9,1.1l-3.5,37.5"/>
			<path class="st27" d="M381.4,892.1c0,0,0-9.1,1.8-15.4c1.3-4.6,1.4-6.1,1.4-6.1s-0.2-1.2,0.9-1.3c1.1-0.1,10,4.6,19,4.8
				s10.3-3.6,12.6-3.3c2.2,0.4,1.7,2.3,0,6c-2,4.5-0.9,10.1-0.9,10.1"/>
			<g>
				<g>
					<g>
						<g>
							<g>
								<g>
									<path class="st27" d="M414.1,884.9c0,0,3.5-1.1,4.1-0.5c3.2,3.1,25.1,3.5,34.7,8.9c5.8,3.2,6.4,10.7,4.7,12.3
										c-0.8,0.7-8.3,2.1-22.4,1.5c-3.9-0.2-22.4-1-26.6-1.1c-13.9-0.4-25.8,0-27-1.7c-0.7-1-1.9-10.2,0.6-22.1"/>
								</g>
							</g>
						</g>
					</g>
				</g>
			</g>
			<path class="st27" d="M458.2,900.4c0,0-11.2,1.8-22.7,0.2c-11.5-1.6-39.8-0.1-45.4-0.9c-5.6-0.8-9.5-1.9-9.5-1.9"/>
			<path class="st27" d="M414.1,884.9c0,0-5.9,2.1-14.8,3.8c-8.9,1.7-17.9,0-17.1-6.6"/>
			<path class="st113" d="M434,887.8c0,0,0.3,3.5-2.2,5.9"/>
			<path class="st113" d="M439.6,888.8c0,0,0.3,3.5-2.2,5.9"/>
			<path class="st113" d="M445.6,889.9c0,0,0.3,3.5-2.2,5.9"/>
			<path class="st114" d="M424.8,886c0,0,4.1,2.6,5.3-0.1c1.2-2.6-6.1-0.3-6.1-0.3s4.7,5.6,1.7,8.1c-3,2.5-2.4-7.6-2.4-7.6
				s-2.8,0.5-3.7,5.9"/>
		</g>
		<g>
			<path class="st7" d="M462.6,451.1c1,4.1-47,241.8-47,241.8l6.2,170.4c-13.8,5.8-23.1,6.1-43,1.2c0,0-33.4-92.6-34.4-147.4
				c-1-54.8,5.2-64.1,0.7-98.3c-4.7-36-33.6-110.3-20.5-160.7c11-42.1,39.2-62.4,39.2-62.4L462.6,451.1z"/>
		</g>
	</g>
	<g>
		<g>
			<path class="st7" d="M365.3,112.5l102.6,2.8c0.6,49.5,13.3,89.5,28.4,130.8c3.8,10.5,8.7,20.4,11.6,31.3
				c2.9,10.9,3.7,23.4-0.6,33.6c-8.7-2.5-27.4,2.1-36.1-0.4c-0.1-3.4-0.2-6.7-0.2-10.1c-0.6,4.4-3.3,8.3-6.6,10.3
				c-4.2,2.5-9.1,2.5-13.8,2.3c-27.2-1.1-54.2-5.7-80.6-13.7c-3.5-1.1-24.5,4.9-24.5,4.9C333.8,254.2,350.1,167.4,365.3,112.5z"/>
		</g>
	</g>
	<g>
		<g>
			<path class="st12" d="M477.7,211.8l16.9,55.9c0,0-0.6-4.4,0,0c2.9,22,14.5,48.5,1.9,74.1l-3.4,31.1c0,0,20.5,69.2,22.7,79.5
				c1.6,21.7-180.6,7.5-186.1-10.2c0,0-0.6-2.9-0.2-12.8c0.4-9.9,24.2-60.6,24.2-60.6l-1.6-93.8c-1.3-31.2,0.3-63.5,0.3-63.5
				l43.7-6.3l44.8,3.3L477.7,211.8z"/>
		</g>
		<g>
			<polygon class="st12" points="475.9,211.8 565.5,211.8 564,268.7 491.9,285.1 			"/>
		</g>
		<g>
			<g>
				<path class="st4" d="M486.4,226.8c-0.2,0.1,0.5,2.8,1.6,7.2c1.1,4.4,2.5,10.6,3.6,17.5c1.1,6.9,1.8,13.2,2.2,17.7
					c0.4,4.6,0.6,7.4,0.8,7.4c0.2,0,0.3-2.8,0.1-7.4c-0.2-4.6-0.7-10.9-1.8-17.9c-1.2-6.9-2.7-13.1-4-17.5
					C487.6,229.4,486.5,226.7,486.4,226.8z"/>
			</g>
		</g>
	</g>
	<g>
		<path class="st27" d="M667.7,169.7c1-1.1,0.7-12,0.7-12l12.6-10.3l12.5,16.7l-7.8,27.6L667.7,169.7z"/>
		<path class="st12" d="M562.1,229.9l49.8,0.9l56.7-62.3l17,23.2c0,0-38.3,72.9-44.2,79.8c-5.9,6.9-91.1,5.4-91.1,5.4L562.1,229.9z"
			/>
		<g>
			<path class="st7" d="M666.2,199.6c10.5-1.7,20.7,1,28.8,6.6l0.8,0.6L678.1,94.6l0,0l-11,1.7c-32,6.2-126.4,33.3-175.3,140.8
				c-30.3,66.6-23.7,127.7-7.3,174l11.7-1.8l90.9-14.3l-0.6,0.8c-5.6,8.1-8.3,18.3-6.6,28.8c3.4,21.6,23.7,36.4,45.3,32.9
				c21.6-3.4,36.4-23.7,32.9-45.3c-1.7-10.7-7.6-19.6-15.7-25.6l-0.5-0.3l2.5-0.4l77.7-12.3l-17.7-112.1l-0.3,0.5
				c-6,8.1-14.9,14-25.6,15.7c-21.6,3.4-41.9-11.3-45.3-32.9C629.8,223.3,644.6,203,666.2,199.6z"/>
			<g>
				<path class="st4" d="M666.2,199.6c0,0-0.9,0.2-2.6,0.6c-0.9,0.2-2,0.5-3.2,0.9c-0.6,0.2-1.3,0.4-2,0.7c-0.7,0.3-1.5,0.6-2.3,1
					c-3.2,1.5-7,3.7-10.7,7.2c-3.7,3.5-7.3,8.4-9.7,14.6c-0.7,1.5-1,3.2-1.5,4.9c-0.3,1.7-0.8,3.5-0.9,5.3
					c-0.4,3.7-0.2,7.6,0.6,11.6c1.5,8,6,16.2,13.2,22.3c7.2,6.1,17.5,10,28.3,9c5.4-0.4,10.8-2,15.8-4.7c5-2.8,9.5-6.8,12.9-11.7
					l0.6-0.9l0.2,1c5.2,33,11.2,70.7,17.8,112.1l0.1,0.5l-0.5,0.1c-25.2,4-52.1,8.3-80.2,12.7l0.2-1c6,4.2,10.8,10,13.8,16.9
					c1.4,3.4,2.5,7.1,2.9,10.8c0.6,3.7,0.3,7.6-0.2,11.3c-0.6,3.8-1.8,7.4-3.4,10.9c-1.7,3.5-3.9,6.7-6.5,9.6
					c-2.6,2.9-5.7,5.3-9,7.4c-3.4,2.1-7.1,3.5-10.9,4.5c-3.9,1-7.9,1.3-11.9,1.2c-4-0.2-8-1.1-11.8-2.4c-7.6-2.8-14.4-7.9-19.1-14.7
					c-1.2-1.6-2.2-3.5-3.2-5.3c-0.8-1.9-1.7-3.8-2.2-5.8c-1.2-3.9-1.9-8.1-1.9-12.3c0-8.3,2.8-16.7,7.8-23.5l0.6,1
					c-21.2,3.3-43.6,6.9-66.3,10.5c-12.3,1.9-24.4,3.9-36.2,5.7l-0.5,0.1l-0.2-0.5c-7-20.2-11.6-41-13.2-61.6
					c-0.9-10.3-0.8-20.6-0.3-30.8c0.4-5.1,0.7-10.1,1.5-15.1c0.4-2.5,0.6-5,1-7.5c0.5-2.5,0.9-4.9,1.4-7.4
					c3.8-19.6,10.3-38.2,18.5-55.3c2.1-4.2,4.3-8.5,6.4-12.7l1.6-3.1c0.6-1,1.2-2,1.8-3c1.2-2,2.4-4,3.6-6c1.2-2,2.4-3.9,3.6-5.9
					l1.8-2.9l2-2.8c2.7-3.7,5.3-7.4,8-11c1.3-1.9,2.8-3.5,4.2-5.2c1.4-1.7,2.9-3.4,4.3-5.1c1.4-1.7,2.9-3.4,4.3-5.1
					c1.5-1.6,3.1-3.1,4.6-4.7c3.1-3.1,6-6.2,9.2-9.2c3.2-2.8,6.4-5.6,9.6-8.4c13-10.7,26.5-19.9,40.1-27.4
					c13.7-7.4,27.5-13.3,41-17.7c13.5-4.5,26.6-7.7,39.3-9.3l0.4,0l0.1,0.4c7.9,50.8,13.9,88.9,17.5,112.2l0.1,0.5l-0.4-0.3
					c-8.6-6.3-16.8-7.5-21.9-7.7c-2.6-0.1-4.5,0.1-5.8,0.2C666.8,199.6,666.2,199.6,666.2,199.6s0.6-0.1,1.9-0.3
					c1.3-0.1,3.2-0.3,5.8-0.3c5.1,0.2,13.3,1.3,22.1,7.6l-0.3,0.2c-3.7-23.3-9.8-61.3-17.9-112.1l0.4,0.3
					c-12.5,1.6-25.6,4.8-39.1,9.3c-13.4,4.5-27.1,10.4-40.8,17.7c-13.6,7.5-27,16.6-39.9,27.4c-3.1,2.8-6.3,5.6-9.5,8.4
					c-3.1,2.9-6,6.1-9.1,9.2c-1.5,1.6-3.1,3.1-4.5,4.7c-1.4,1.7-2.8,3.3-4.3,5c-1.4,1.7-2.9,3.4-4.3,5.1c-1.4,1.7-2.9,3.4-4.2,5.2
					c-2.6,3.6-5.3,7.3-7.9,11l-2,2.8l-1.8,2.9c-1.2,2-2.4,3.9-3.6,5.9c-1.2,2-2.4,3.9-3.6,5.9c-0.6,1-1.2,2-1.8,3l-1.6,3.1
					c-2.1,4.2-4.2,8.4-6.3,12.6c-8.1,17.1-14.6,35.6-18.4,55c-0.5,2.4-0.9,4.9-1.4,7.3c-0.4,2.5-0.7,4.9-1,7.4c-0.8,5-1,10-1.5,15
					c-0.5,10.1-0.6,20.3,0.3,30.6c1.5,20.6,6.1,41.2,13.1,61.3l-0.7-0.4c11.8-1.9,24-3.8,36.2-5.7c22.7-3.6,45.2-7.1,66.3-10.5
					l1.5-0.2l-0.9,1.2c-4.9,6.6-7.5,14.7-7.6,22.8c-0.1,4,0.6,8.1,1.8,11.9c0.5,1.9,1.4,3.8,2.2,5.6c1,1.7,1.9,3.5,3.1,5.1
					c4.5,6.6,11.1,11.5,18.5,14.3c3.7,1.3,7.5,2.1,11.4,2.4c3.9,0.1,7.8-0.2,11.5-1.1c3.7-1,7.3-2.4,10.6-4.4c3.2-2,6.3-4.4,8.8-7.2
					c2.5-2.8,4.7-5.9,6.3-9.3c1.6-3.4,2.8-6.9,3.4-10.6c0.5-3.7,0.8-7.4,0.2-11c-0.4-3.6-1.4-7.2-2.8-10.5
					c-2.8-6.6-7.6-12.4-13.4-16.4l-1.2-0.8l1.4-0.2c28.1-4.4,55.1-8.7,80.3-12.6l-0.4,0.6c-6.5-41.4-12.4-79.1-17.6-112.1l0.8,0.2
					c-3.5,5.1-8.1,9.1-13.2,11.9c-5.1,2.8-10.7,4.4-16.2,4.8c-11,0.9-21.4-3-28.8-9.3c-7.4-6.3-11.9-14.6-13.4-22.7
					c-0.8-4-1-8-0.6-11.7c0.1-1.9,0.6-3.7,0.9-5.4c0.5-1.7,0.9-3.4,1.6-4.9c2.5-6.3,6.1-11.2,9.9-14.7c3.8-3.5,7.6-5.7,10.8-7.2
					c0.8-0.3,1.6-0.7,2.3-1c0.7-0.3,1.4-0.5,2.1-0.7c1.3-0.4,2.3-0.7,3.2-0.9C665.3,199.8,666.2,199.6,666.2,199.6z"/>
			</g>
		</g>
		<g>
			<g>
				<path class="st27" d="M692,180.6c0,0,4.6-4.3,5.4-6.5c0.8-2.1,0.5-4.9-0.8-6c-1.2-1.1-1.2-1.1-1.2-1.1s2.1-6.7-0.4-9.5
					c0,0,2.2-6.4-1.4-8.9c0,0,2.5-5-0.4-6.7c-2.9-1.7-7.3-1-9.5,0.3c-2.2,1.2-9.8,3.9-9.8,5.3c0,0,0,3.8,2.1,4
					c2.1,0.3,3.1,0.4,3.1,0.4s-6.9,2.2-7.1,4c-0.2,1.7,0.4,5,3.5,4.7c0,0-2.2,1.9-1.3,3.3c0.9,1.5,2.2,3.3,4.1,2.9
					c1.9-0.4,3.8-0.6,3.8-0.6s-2.7,1.2-1.9,2.5c0.8,1.3,0.8,2.8,3.3,3.3c2.5,0.5,7.4,2,7.4,2L692,180.6z"/>
			</g>
			<g>
				<g>
					<path class="st116" d="M682.3,167c0.1,0.1,0.7-0.4,1.9-0.8c1.2-0.5,2.9-0.9,4.9-0.8c1.9,0.1,3.6,0.8,4.7,1.4
						c1.1,0.6,1.7,1.2,1.8,1.1c0.1,0-0.5-0.7-1.6-1.5c-1.1-0.8-2.9-1.5-4.9-1.7c-2.1-0.1-3.9,0.4-5.1,1
						C682.8,166.4,682.2,166.9,682.3,167z"/>
				</g>
			</g>
			<g>
				<g>
					<path class="st116" d="M694.9,157.8c0-0.1-1.1-0.4-2.8-0.7c-1.8-0.3-4.3-0.4-7.1-0.1c-2.8,0.3-5.2,1-6.9,1.7
						c-1.7,0.7-2.7,1.2-2.6,1.3c0.1,0.2,4.1-1.8,9.6-2.3C690.5,157,694.9,158.1,694.9,157.8z"/>
				</g>
			</g>
			<g>
				<g>
					<path class="st116" d="M693.7,149.1c0-0.2-3.4-0.2-7.5,0.8c-4.1,0.9-7.2,2.5-7.1,2.6c0.1,0.2,3.2-1.1,7.2-2
						C690.4,149.5,693.8,149.3,693.7,149.1z"/>
				</g>
			</g>
		</g>
	</g>
	<g>
		<g>
			<g>
				<path class="st27" d="M526.1,321.9c0,0,13.6-11.9,17.3-16.3c3.7-4.4,18.9-14,18.9-14s2.2,1.4,0.9,5.5c-0.4,1.3-8.2,10-8.2,10
					s-2.6,5.8,0.1,6.8c2.7,1,36.7,3.2,36.7,3.2c7.3,0.5,6.5,4.7,6.5,4.7s5,0.2,5.2,3.6c0.1,2.2-4.8,4-4.8,4s5.4-0.7,6.5,3
					c1.2,3.8-8.7,5.5-8.7,5.5c-1.3,5.3-20.4,8.9-25.4,10c-5.1,1.1-49.7,2.2-49.7,2.2l-5-25.5L526.1,321.9z"/>
			</g>
			<g>
				<path class="st116" d="M562.9,323.9c0,0.1,2,0.5,5.3,0.8c3.3,0.3,7.9,0.4,12.9,0.1c5-0.3,9.6-0.9,12.8-1.5
					c3.2-0.6,5.2-1.1,5.2-1.2c0-0.1-2,0.1-5.3,0.6c-3.3,0.4-7.8,1-12.8,1.3c-5,0.3-9.5,0.3-12.8,0.2
					C565,323.9,562.9,323.7,562.9,323.9z"/>
			</g>
			<g>
				<path class="st116" d="M563.3,332.7c0,0.1,2,0.2,5.1,0.1c3.2-0.1,7.5-0.2,12.3-0.6c4.8-0.4,9.1-1,12.2-1.6c3.1-0.6,5-1.1,5-1.2
					c0-0.1-2,0.1-5.1,0.6c-3.1,0.4-7.4,0.9-12.2,1.3c-4.6,0.3-8.8,0.7-12.3,0.9C565.3,332.3,563.3,332.6,563.3,332.7z"/>
			</g>
			<g>
				<path class="st116" d="M567.3,341c0,0.1,1.7,0.4,4.5,0.5c2.8,0.1,6.7-0.1,10.9-0.7c4.2-0.6,8-1.5,10.7-2.3
					c2.7-0.8,4.3-1.4,4.3-1.5c-0.1-0.3-6.7,1.6-15.1,2.8c-4.2,0.6-8,0.9-10.8,1C569,340.9,567.3,340.8,567.3,341z"/>
			</g>
		</g>
		<path class="st12" d="M352.4,211.5c0,0-24.9,14.7-27.4,40.2c-2.4,24.4,2.8,105,29.2,129c6,5.5,47.3,4.5,86.5-3.5
			c43-8.7,83.9-24.7,83.9-24.7c3.4-9.1,3.2-19.4-0.8-30.8l-123.8,3L352.4,211.5z"/>
		<g>
			<path class="st3" d="M337.7,352.6c4.2,8.9,11.5,25.5,20.2,30.2c1.5,0.7,3.3,0.8,4.9,1c7,0.6,14.1,0.5,21.2,0.2
				c35.4-1.6,70.7-8,104.4-19.2c-33.4,12.1-68.8,19-104.3,20.7c-7.1,0.3-14.2,0.4-21.4-0.1c-1.8-0.2-3.7-0.3-5.4-1.1
				C347.9,379.2,341.2,362.4,337.7,352.6L337.7,352.6z"/>
		</g>
	</g>
	<g>
		<g>
			<g>
				<path class="st7" d="M453.5,248.2c0.4-6.1-3.5-11.4-6.4-16.7c-5.4-9.9-7.5-21.6-6-32.8l38.5,12.1c-2.6,3.6-4.3,12.3-2.6,17.9
					c1.8,5.5,4.7,10.8,4.5,16.6c-0.3,8.6-7.6,15.4-10,23.7c-2.6,9.1,7.9,20,4.7,27.6c-3.2,7.6-14.3,6.7-23.2,0.9
					c-8.9-5.8-9.7-23.5-5.4-34.7C449.6,257.8,453.2,253.4,453.5,248.2z"/>
			</g>
		</g>
		<g>
			<g>
				<g>
					<g>
						<g>
							<g>
								<g>
									<g>
										<path class="st7" d="M363.9,118.2c4-16.9,8-34.5,22.1-44.8c12.5-9.1,26.4-11.4,41.9-10.2c7.6,0.6,16.1,4.4,22.6,8.3
											c8.9,5.4,12.4,16,16.5,25.6c8.2,19.3,6.2,44.9,0,51.9l-80.7,39.3c-13.8-7.8-23.1-11.5-26.3-27
											C357.8,150.8,361.5,128.7,363.9,118.2z"/>
									</g>
								</g>
							</g>
							<g>
								<g>
									<g>
										<path class="st27" d="M387.2,89.1L437.6,76c16.2-1.8,25.5,18.2,28.2,34.2c4.3,25.4,5.4,45.3-2.6,65.2
											c-4.3,10.8-11.2,17.6-14.8,19.5c-3.7,1.9-7.8,1.9-7.8,1.9s0.2,2.2,0.2,6.1L441,221c-6.7,21.9-28.9,19.3-56.7,7.9l-5.6-130
											C378.6,93.9,382.3,89.7,387.2,89.1z"/>
									</g>
								</g>
								<g>
									<g>
										<g>
											<g>
												<path class="st1" d="M442.1,195.8c0,0-21.3,1.7-37.4-9.1c0,0,9.1,18.9,36.1,16.1L442.1,195.8z"/>
											</g>
										</g>
									</g>
								</g>
							</g>
						</g>
					</g>
				</g>
				<g>
					<g>
						<path class="st7" d="M438.1,72.9c1.2,10.9-0.6,22.1-5.3,32.1c-1.3,2.8-2.9,5.5-5.2,7.5c-2.3,2-5.5,3.2-8.5,2.5
							c4.7-5.9,7.6-13.2,8-20.8c-3.4,7.6-7,15.3-12.6,21.4c-5.6,6.1-13.8,10.5-22.1,9.6l0.7-5.5c-1.3,3.9-3.4,7.8-6.9,10.2
							c-3.4,2.3-8.5,2.7-11.6-0.1c3.2-13.5-4.7-28.4,0.9-41c3.8-8.8,13.2-13.8,22.4-16.4c12.9-3.7,26.9-3.9,39.9-0.5"/>
					</g>
				</g>
				<g>
					<g>
						<g>
							<path class="st4" d="M437,73.1c0,0.2,0.1,0.4,0.1,0.6l-0.1,0C437,73.5,437,73.3,437,73.1z"/>
						</g>
					</g>
					<g>
						<g>
							<path class="st7" d="M437.1,73.7l1.7-0.6c5.2-2.5,8.6-5.4,16.3,1.8c4.2,3.9,7.9,9.7,10.5,15.6c2.3,5.3,4.8,11,5.5,16.7
								c0.9,7.4,1.1,12.9,0,20.8c-4.5-3.2-6.7-8.7-8-14c-1.3-5.3-2-10.9-4.6-15.8c0.7,4.5,1.3,9.2,0.4,13.7
								c-0.2,1.2-0.6,2.5-1.6,3.3c-1,0.8-2.6,0.9-3.4-0.1c1.8-5.2,1.6-10.9,0.4-16.3c-1.2-5.4-3.5-10.4-5.7-15.4
								c1,9.2,0.4,18.5-1.8,27.5c-0.3,1.3-0.7,2.6-1.6,3.6c-1.4,1.4-3.7,1.4-5.6,1c-1.9-0.3-4-0.9-5.9-0.4
								C438.6,101.8,439.8,87.4,437.1,73.7z"/>
						</g>
					</g>
				</g>
			</g>
		</g>
		<g>
			<path class="st7" d="M391.8,115.6c6.3,14.4-3.7,31-1.3,46.6c1.7,11.2,9.8,21,9.6,32.4c-0.2,11.5-8.9,22-7.4,33.3
				c0.9,7,5.6,12.9,9.1,19c8.1,13.8,14.7,39.1,8.1,46.3s-27.8,10.2-36-0.1c-8.2-10.2-1.2-24.9-6.3-36.1c-3.3-7.2-7.9-14.1-8.6-22
				c-0.7-7.2,1.8-14.3,2.7-21.6c1.6-13.1-2.5-26.2-4.8-39.2c-2.3-13-2.6-27.5,5.3-38.1"/>
		</g>
	</g>
</g>
<g>
	<path class="st12" d="M623,744.1c0,0-4.8-40.5-9.7-71.3c-4.8-30.8-73.7-93.5-93.4-119.7c-8-10.5-27.6-45.1-36.2-91.7h90.8l-0.7,0.7
		c-6.8,7.1-11,16.8-11,27.4c0,21.9,17.7,39.6,39.6,39.6c21.9,0,39.6-17.7,39.6-39.6c0-10.9-4.5-20.6-11.6-27.7l-0.4-0.4l88.4,0.6
		l0,105.8c0,0,8.2-12.6,28.1-12c19.9,0.6,34.9,14.7,38.1,28.9c3.2,14.3,0.5,41.2-26.3,48.5c-26.8,7.2-40.3-11.6-40.3-11.6l0.3,122.7
		L623,744.1z"/>
	<g>
		<g>
			<path class="st27" d="M517.2,433.6l4.6,4.1c0,0,7.8,8,7.6,8.2c-0.1,0.2-0.3,8.5-0.3,8.5l-0.5,8.2c0,0-3.7-1.1-4.3-4.6l-0.8,3.7
				c0,0-5.4-1.2-4.9-7.7c0.3-3.7,0.3-6.5,0.2-8.4l-1.5-1.3c-0.4,0.2-13.1,4.4-13.1,4.1c0-0.3-1.5-9.1-1.5-9.1L517.2,433.6z"/>
		</g>
		<g>
			<path class="st27" d="M475.7,462l18.7-28.3l25.4-5.4l14.5,12.2l3,8.9c-1.4,1.3-6.5-0.9-10.1-5.7c-3.5-4.6-9.3-7.4-9.3-7.4
				l-13.4,5.9l0.7,7.1l-24.3,22.5L475.7,462z"/>
		</g>
		<g>
			<path class="st27" d="M478.3,466.9l7.3,13.8l14.2-8.6c1.8-1.1,3.3-2.6,4.5-4.3c3.1-4.6,9.3-13.8,11.6-15.3
				c3-2.1,13.6-8.8,12.6-11.7c-1-2.9-3.6-5.5-9.7-1.5c-6.1,4-21.2,11.4-21.2,11.4"/>
		</g>
	</g>
	<g>
		<g>
			<g>
				<g>
					<g>
						<g>
							<g>
								<g>
									<path class="st1" d="M186.3,403.3c-2.8-0.6-3.8-4.9-1.6-6.7c-2-1.1-1.5-4.4,0.1-6c1.6-1.7,3.9-2.7,5.1-4.7
										c-2.6,0.7-5.5-1.5-5.7-4.1c-1.7,0.2-3.5-1-4-2.6c-0.6-1.6,0.1-3.6,1.6-4.5c-2.2-0.2-2-3.8-0.2-5c1.8-1.2,4.2-1.1,6.2-2.1
										c3.6-4,8.4-6.9,13.7-8c-3-2.2-6-4.4-8.9-6.7c-0.7-0.5-1.4-1.1-1.8-1.9c-0.8-1.8,0.6-3.7,2.1-5c3.1-2.7,7-4.4,11.1-4.9
										c1.3-0.2,3,0,3.4,1.3c2.8-1.3,6-1.2,9.1-1c1.7,0.1,3.6,0.3,4.8,1.5c-0.7-1.6-2-2.7-3.2-4c-1.2-1.3-2.2-2.8-2.1-4.5
										c0.2-1.7,2.2-3.2,3.7-2.2c-1.6-0.7-1.4-3.3,0-4.4c1.4-1.1,3.3-1.2,5-1.3c1.2,0,2.8,0.2,3.1,1.4c0.6-2.7,5.2-3.1,6.2-0.5
										c1.6-1.6,4.7-1.4,6.1,0.5c2.7-1.7,6.8-0.2,7.7,2.9c-1.6-2.7-3.2-5.3-4.8-8c-0.9-1.5-1.1-4.3,0.7-4.1
										c-2.5,0-3.9-3.4-2.7-5.6c1.2-2.2,4.1-3,6.5-2.7c0.7,1,1.4,2.1,2.2,3.1c1.7-1.2,4.1-1.1,5.8,0.1c1.7,1.2,2.4,3.5,1.8,5.5
										c1-1.1,3-0.5,3.8,0.8c0.8,1.2,0.8,2.8,0.7,4.3c2.4-2,6.9,0.3,6.6,3.5c2.2-1.1,4.7-1.7,7.2-1.5c-1.1-1.8-0.9-4.3,0.5-5.9
										c1.4-1.6,3.9-2,5.8-1.1c0.2-2.8,3.6-4.9,6.2-3.9c0.8-2.9,4.6-5.1,6.9-3.1c2.4,2,1.1,5.8-0.4,8.6c-1.6,3-3.2,5.9-4.8,8.9
										c5.2-2.8,10.4-5.6,15.5-8.3c0.5-0.3,1-0.5,1.6-0.5c0.8,0.1,1.3,0.8,2,1.1c0.9,0.5,2.1,0.2,3.1,0.5c2.7,0.8,2.7,5,0.8,7.2
										c-1.9,2.2-4.8,3.2-6.9,5.1c2.3,0.4,4.6,0.9,6.9,1.3c0.9-3.8,5.5-6.2,9.1-4.8c0.9-2.5,4.4-2.9,7.1-2.8
										c2.4,0.1,5.1,0.3,6.8,2c2.2,2.2,1.8,6.1-0.1,8.6c-1.9,2.5-4.8,4-7.5,5.3c0.5,2.1,3.1,2.7,5.2,2.4c2.1-0.3,4.3-1.1,6.3-0.4
										c2.7,1,3.8,4.5,6.5,5.5c0.8,0.3,1.7,0.3,2.5,0.8c1,0.7,1.4,2,1.7,3.2c0.3,1.5,0.7,3,1,4.5c0.2,0.7,0.3,1.5,0.2,2.3
										c-0.5,2.4-3.9,3-6.2,2c-2.3-0.9-4.3-2.8-6.7-3.1c3.2,1.6,6.7,3.4,8.5,6.5c1.8,3.1,1.1,8-2.3,9.2c-3.5,1.2-6.9-1.7-9.4-4.4
										c-2.5-2.7-6.1-5.5-9.5-4"/>
									<path class="st15" d="M186.3,403.3c-2.8-0.6-3.8-4.9-1.6-6.7c-2-1.1-1.5-4.4,0.1-6c1.6-1.7,3.9-2.7,5.1-4.7
										c-2.6,0.7-5.5-1.5-5.7-4.1c-1.7,0.2-3.5-1-4-2.6c-0.6-1.6,0.1-3.6,1.6-4.5c-2.2-0.2-2-3.8-0.2-5c1.8-1.2,4.2-1.1,6.2-2.1
										c3.6-4,8.4-6.9,13.7-8c-3-2.2-6-4.4-8.9-6.7c-0.7-0.5-1.4-1.1-1.8-1.9c-0.8-1.8,0.6-3.7,2.1-5c3.1-2.7,7-4.4,11.1-4.9
										c1.3-0.2,3,0,3.4,1.3c2.8-1.3,6-1.2,9.1-1c1.7,0.1,3.6,0.3,4.8,1.5c-0.7-1.6-2-2.7-3.2-4c-1.2-1.3-2.2-2.8-2.1-4.5
										c0.2-1.7,2.2-3.2,3.7-2.2c-1.6-0.7-1.4-3.3,0-4.4c1.4-1.1,3.3-1.2,5-1.3c1.2,0,2.8,0.2,3.1,1.4c0.6-2.7,5.2-3.1,6.2-0.5
										c1.6-1.6,4.7-1.4,6.1,0.5c2.7-1.7,6.8-0.2,7.7,2.9c-1.6-2.7-3.2-5.3-4.8-8c-0.9-1.5-1.1-4.3,0.7-4.1
										c-2.5,0-3.9-3.4-2.7-5.6c1.2-2.2,4.1-3,6.5-2.7c0.7,1,1.4,2.1,2.2,3.1c1.7-1.2,4.1-1.1,5.8,0.1c1.7,1.2,2.4,3.5,1.8,5.5
										c1-1.1,3-0.5,3.8,0.8c0.8,1.2,0.8,2.8,0.7,4.3c2.4-2,6.9,0.3,6.6,3.5c2.2-1.1,4.7-1.7,7.2-1.5c-1.1-1.8-0.9-4.3,0.5-5.9
										c1.4-1.6,3.9-2,5.8-1.1c0.2-2.8,3.6-4.9,6.2-3.9c0.8-2.9,4.6-5.1,6.9-3.1c2.4,2,1.1,5.8-0.4,8.6c-1.6,3-3.2,5.9-4.8,8.9
										c5.2-2.8,10.4-5.6,15.5-8.3c0.5-0.3,1-0.5,1.6-0.5c0.8,0.1,1.3,0.8,2,1.1c0.9,0.5,2.1,0.2,3.1,0.5c2.7,0.8,2.7,5,0.8,7.2
										c-1.9,2.2-4.8,3.2-6.9,5.1c2.3,0.4,4.6,0.9,6.9,1.3c0.9-3.8,5.5-6.2,9.1-4.8c0.9-2.5,4.4-2.9,7.1-2.8
										c2.4,0.1,5.1,0.3,6.8,2c2.2,2.2,1.8,6.1-0.1,8.6c-1.9,2.5-4.8,4-7.5,5.3c0.5,2.1,3.1,2.7,5.2,2.4c2.1-0.3,4.3-1.1,6.3-0.4
										c2.7,1,3.8,4.5,6.5,5.5c0.8,0.3,1.7,0.3,2.5,0.8c1,0.7,1.4,2,1.7,3.2c0.3,1.5,0.7,3,1,4.5c0.2,0.7,0.3,1.5,0.2,2.3
										c-0.5,2.4-3.9,3-6.2,2c-2.3-0.9-4.3-2.8-6.7-3.1c3.2,1.6,6.7,3.4,8.5,6.5c1.8,3.1,1.1,8-2.3,9.2c-3.5,1.2-6.9-1.7-9.4-4.4
										c-2.5-2.7-6.1-5.5-9.5-4"/>
								</g>
							</g>
						</g>
					</g>
				</g>
				<g>
					<g>
						<g>
							<g>
								<g>
									<path class="st1" d="M191.2,401.1c-2.6-2-7.1,0.6-6.7,3.9c-3.2,0.9-5.8,3.7-6.5,6.9c-0.7,3.3,0.5,6.9,3.1,9
										c2,1.7,6.1,1.8,6.5-0.8c0.8,2.2,2.8,3.9,5.1,4.4c-2.2,3.2-0.8,8.3,2.8,9.9c-4.2,2.9-3.4,10.4,1.3,12.3
										c-1.2,2.7,0.1,6.3,2.9,7.5c2.7,1.2,6.3-0.2,7.5-2.9c0.9,2.1,1.9,4.4,3.8,5.7c1.9,1.3,5,1.1,6-1c1.1,4.6,7.1,7.1,11.1,4.7
										c-0.3,2.5,1.6,5.1,4.2,5.5c2.5,0.4,5.2-1.3,5.8-3.8c4.3,0.3,8.7,0.7,13,1c2.9,0.2,5.8,0.4,8.7,0.1
										c3.7-0.4,7.2-1.7,10.3-3.7c1-0.7,2-1.4,3.2-1.6c1.4-0.2,2.7,0.5,3.9,1c6.7,2.6,14.8,1.4,20.4-3c0.9-0.7,1.8-1.5,2.8-1.9
										c1.2-0.4,2.6-0.3,3.9-0.2c3.2,0.2,6.4,0,9.6-0.5c2.7-0.5,5.6-1.5,7-3.8c1.5-2.3,0.3-6.2-2.4-6.4c-0.1-1.8,0.5-3.7,1.9-4.8
										c1.4-1.1,3.7-1.2,4.8,0.2c1.1,1.4,0.3,4-1.5,4.1c2.8,2.3,7.6-0.2,8-3.7c0.4-3.6-2.9-6.8-6.5-7.2c0.9-2.5,1.2-5.2,0.9-7.9
										c1.6,2.5,5.4,3.2,7.8,1.6c1.3,2.4,3.4,4.5,6.1,5.2c2.7,0.7,5.8-0.5,6.9-3c1.1-2.5-0.9-6-3.6-5.9c2.2-2.9-0.3-7.8-3.9-7.8
										c0.9-3.4-1-7.4-4.2-8.9c2,1.5,5.3,0.5,6.2-1.8c1.4,2.8,5.5,2.5,8.3,1.1c2.2-1,4.4-2.6,4-5.8c-0.2-1.5-0.9-2.9-2-3.9
										c-2.6-2.4-6.2-2.9-9.6-3.3c-1.7-4.2-2.7-8.8-2.9-13.3c3.8,0.5,7.9-2,8.7-5.8L329,360.7c0,0-43.7-6.7-45.2-6.7
										c-1.6,0-92.8,47-92.8,47c-2.1,2.2-6.2,1.2-7.8-1.4c-1.5-2.6-0.9-6.1,0.7-8.7c1.7-2.6,4.2-4.4,6.7-6.2
										c-2.9-0.2-6-0.5-8.2-2.6c-1.3-1.3-2-3.3-1.3-5c1.1-2.5,4-2.3,5.8-3.8c1.1-0.8,1.7-2.1,2.4-3.3"/>
									<path class="st15" d="M191.2,401.1c-2.6-2-7.1,0.6-6.7,3.9c-3.2,0.9-5.8,3.7-6.5,6.9c-0.7,3.3,0.5,6.9,3.1,9
										c2,1.7,6.1,1.8,6.5-0.8c0.8,2.2,2.8,3.9,5.1,4.4c-2.2,3.2-0.8,8.3,2.8,9.9c-4.2,2.9-3.4,10.4,1.3,12.3
										c-1.2,2.7,0.1,6.3,2.9,7.5c2.7,1.2,6.3-0.2,7.5-2.9c0.9,2.1,1.9,4.4,3.8,5.7c1.9,1.3,5,1.1,6-1c1.1,4.6,7.1,7.1,11.1,4.7
										c-0.3,2.5,1.6,5.1,4.2,5.5c2.5,0.4,5.2-1.3,5.8-3.8c4.3,0.3,8.7,0.7,13,1c2.9,0.2,5.8,0.4,8.7,0.1
										c3.7-0.4,7.2-1.7,10.3-3.7c1-0.7,2-1.4,3.2-1.6c1.4-0.2,2.7,0.5,3.9,1c6.7,2.6,14.8,1.4,20.4-3c0.9-0.7,1.8-1.5,2.8-1.9
										c1.2-0.4,2.6-0.3,3.9-0.2c3.2,0.2,6.4,0,9.6-0.5c2.7-0.5,5.6-1.5,7-3.8c1.5-2.3,0.3-6.2-2.4-6.4c-0.1-1.8,0.5-3.7,1.9-4.8
										c1.4-1.1,3.7-1.2,4.8,0.2c1.1,1.4,0.3,4-1.5,4.1c2.8,2.3,7.6-0.2,8-3.7c0.4-3.6-2.9-6.8-6.5-7.2c0.9-2.5,1.2-5.2,0.9-7.9
										c1.6,2.5,5.4,3.2,7.8,1.6c1.3,2.4,3.4,4.5,6.1,5.2c2.7,0.7,5.8-0.5,6.9-3c1.1-2.5-0.9-6-3.6-5.9c2.2-2.9-0.3-7.8-3.9-7.8
										c0.9-3.4-1-7.4-4.2-8.9c2,1.5,5.3,0.5,6.2-1.8c1.4,2.8,5.5,2.5,8.3,1.1c2.2-1,4.4-2.6,4-5.8c-0.2-1.5-0.9-2.9-2-3.9
										c-2.6-2.4-6.2-2.9-9.6-3.3c-1.7-4.2-2.7-8.8-2.9-13.3c3.8,0.5,7.9-2,8.7-5.8L329,360.7c0,0-43.7-6.7-45.2-6.7
										c-1.6,0-92.8,47-92.8,47c-2.1,2.2-6.2,1.2-7.8-1.4c-1.5-2.6-0.9-6.1,0.7-8.7c1.7-2.6,4.2-4.4,6.7-6.2
										c-2.9-0.2-6-0.5-8.2-2.6c-1.3-1.3-2-3.3-1.3-5c1.1-2.5,4-2.3,5.8-3.8c1.1-0.8,1.7-2.1,2.4-3.3"/>
								</g>
							</g>
						</g>
					</g>
				</g>
			</g>
		</g>
		<g>
			<g>
				<g>
					<g>
						<g>
							<g>
								<g>
									<g>
										<g>
											<path class="st27" d="M287.7,500.7c0,0-0.3-28-0.3-27.9c0,0,7.6,1.1,12.5-1.8c6.5-3.9,11-13.4,13.3-28.3
												c2-12.9,1.2-34.1,0-51.5c-1.1-15.6-11.6-34.7-27.1-32.9l-48.4,12.6c-4.7,0.5-8.2,4.6-8.1,9.3l4.6,97.7L287.7,500.7z"/>
										</g>
									</g>
								</g>
							</g>
						</g>
					</g>
					<g>
						<g>
							<path class="st1" d="M274.7,438.9c4.9,5.7,13.3,8,20.5,5.5c1.1-0.3,2.1-0.8,3.1-1.2c-2,1.1-4,2.1-6.2,2.7
								c-5.6,1.6-11.9,0.4-16.7-2.7c-1-0.7-1.9-1.3-2.9-2.2L274.7,438.9L274.7,438.9z"/>
						</g>
						<g>
							<path class="st1" d="M270.1,443.7c0-3.6,3.4-6.7,7-6.5C275.6,440.2,273.6,442.9,270.1,443.7L270.1,443.7z"/>
						</g>
					</g>
					<g>
						<g>
							<g>
								<g>
									<g>
										<g>
											<g>
												<g>
													<g>
														<g>
															<g>
																<g>
																	<g>
																		<g>
																			<g>
																				<g>
																					<g>
																						<g>
																							<g>
																								<g>
																									<g>
																										<path class="st1" d="M287.8,471.9c0,0-17.4-2.3-32.3-16c0,0,6,20.5,32,23.2L287.8,471.9z"/>
																									</g>
																								</g>
																							</g>
																						</g>
																					</g>
																				</g>
																			</g>
																		</g>
																	</g>
																</g>
															</g>
														</g>
													</g>
												</g>
											</g>
										</g>
									</g>
								</g>
							</g>
						</g>
					</g>
				</g>
			</g>
		</g>
		<g>
			<g>
				<g>
					<g>
						<g>
							<g>
								<path class="st1" d="M229.5,406.9c-0.7,1.7-0.2,4,1.2,5c1.4,1,3.4,0.4,4.3-1.2c1.1,1.5,3.7,0,3.4-2c1.4,0.8,3.3-1.1,2.8-2.9
									c1.6,0.6,2.6-2,3.5-3.8c0.5-1,1.1-1.8,1.7-2.7c1.8-2.8,2.7-6.3,2.7-9.8c2.1-2.4,2.7-6.1,3.1-9.6c0.3-2.2,0.5-4.3,0.8-6.5
									c0.4-0.5,0.8-1,1.2-1.5c-0.1,1.6,1.1,2.9,2.3,3.4c1.3,0.4,2.6,0.2,3.9,0c1.3-0.2,2.6-0.5,3.9-0.7c0.8,0.2,1.6,0.5,2.4,0.7
									c-0.7,2,0,4.3,0.7,6.3c0.5,1.4,1.1,2.9,2.2,3.5c1.2,0.6,2.9-0.5,2.6-1.9c0.8,1,2.4,0.6,3.1-0.5c0.8-1.1,0.9-2.6,0.9-4
									c-0.1-3.4-1.2-6.8-3.1-9.4c2.2,2.1,4.5,4.2,6.7,6.3c0.5,0.5,1,0.9,1.6,1c-0.2,1.1,0.9,2.1,1.9,2c1-0.1,1.8-0.9,2.5-1.7
									c1.6-1.7,3.4-4.6,1.9-6.6c0.8-0.1,1.2-1.4,0.7-2.1c2.5,1.9,5.1,3.9,7.6,5.8c-0.8-0.4-1.6,0.7-1.4,1.7c0.2,1,0.9,1.7,1.6,2.3
									c-0.7,1-1,2.3-0.9,3.6c-1.4-1.2-3.4,1-3,3c0.4,2,2.3,3,4,3.2c1.4,0.1,3.1-0.6,3.4-2.2c1.7,0.4,3.3-1.9,2.7-3.8
									c1.2,0.8,2.3-1.4,2.4-3c0.1-3-0.3-6.1-1.3-8.9c0,0.4,0.4,0.8,0.7,0.6c0.3-0.2,0.2-0.9-0.1-1c1.4,3.5,2.8,7,4.3,10.5
									c1.1,2.8,2.3,5.7,2.3,8.7c0,1.3,0.2,3,1.2,3.1c0.3,0,0.6-0.1,0.8-0.2c3-1.5,5.4-4.5,6.9-8c0.5-1.2,0.9-2.4,1.1-3.7
									c0.2-2.7-0.9-5.3-1-8c-0.1-1.2,0-2.4-0.2-3.6c-0.4-1.9-1.6-3.3-2.7-4.6c-4.1-4.8-8.4-9.7-13.9-11.6c-3.4-1.2-7-1.2-10.3-2.3
									c-2.1-0.7-4-1.9-6.1-2.8c-8.3-3.9-17.5-4.5-26.4-3.7c-5,0.4-10,1.2-14.6,3.4c-5.1,2.4-9.6,6.3-13.8,10.5
									c-6.3,6.2-12.2,13.2-16.2,21.7c-3.1,6.5-5,14.1-3.9,21.5c1.1,7.4,5.6,14.3,11.8,15.8c0.8-0.9,1.6-1.8,2.4-2.8"/>
								<path class="st15" d="M229.5,406.9c-0.7,1.7-0.2,4,1.2,5c1.4,1,3.4,0.4,4.3-1.2c1.1,1.5,3.7,0,3.4-2
									c1.4,0.8,3.3-1.1,2.8-2.9c1.6,0.6,2.6-2,3.5-3.8c0.5-1,1.1-1.8,1.7-2.7c1.8-2.8,2.7-6.3,2.7-9.8c2.1-2.4,2.7-6.1,3.1-9.6
									c0.3-2.2,0.5-4.3,0.8-6.5c0.4-0.5,0.8-1,1.2-1.5c-0.1,1.6,1.1,2.9,2.3,3.4c1.3,0.4,2.6,0.2,3.9,0c1.3-0.2,2.6-0.5,3.9-0.7
									c0.8,0.2,1.6,0.5,2.4,0.7c-0.7,2,0,4.3,0.7,6.3c0.5,1.4,1.1,2.9,2.2,3.5c1.2,0.6,2.9-0.5,2.6-1.9c0.8,1,2.4,0.6,3.1-0.5
									c0.8-1.1,0.9-2.6,0.9-4c-0.1-3.4-1.2-6.8-3.1-9.4c2.2,2.1,4.5,4.2,6.7,6.3c0.5,0.5,1,0.9,1.6,1c-0.2,1.1,0.9,2.1,1.9,2
									c1-0.1,1.8-0.9,2.5-1.7c1.6-1.7,3.4-4.6,1.9-6.6c0.8-0.1,1.2-1.4,0.7-2.1c2.5,1.9,5.1,3.9,7.6,5.8c-0.8-0.4-1.6,0.7-1.4,1.7
									c0.2,1,0.9,1.7,1.6,2.3c-0.7,1-1,2.3-0.9,3.6c-1.4-1.2-3.4,1-3,3c0.4,2,2.3,3,4,3.2c1.4,0.1,3.1-0.6,3.4-2.2
									c1.7,0.4,3.3-1.9,2.7-3.8c1.2,0.8,2.3-1.4,2.4-3c0.1-3-0.3-6.1-1.3-8.9c0,0.4,0.4,0.8,0.7,0.6c0.3-0.2,0.2-0.9-0.1-1
									c1.4,3.5,2.8,7,4.3,10.5c1.1,2.8,2.3,5.7,2.3,8.7c0,1.3,0.2,3,1.2,3.1c0.3,0,0.6-0.1,0.8-0.2c3-1.5,5.4-4.5,6.9-8
									c0.5-1.2,0.9-2.4,1.1-3.7c0.2-2.7-0.9-5.3-1-8c-0.1-1.2,0-2.4-0.2-3.6c-0.4-1.9-1.6-3.3-2.7-4.6c-4.1-4.8-8.4-9.7-13.9-11.6
									c-3.4-1.2-7-1.2-10.3-2.3c-2.1-0.7-4-1.9-6.1-2.8c-8.3-3.9-17.5-4.5-26.4-3.7c-5,0.4-10,1.2-14.6,3.4
									c-5.1,2.4-9.6,6.3-13.8,10.5c-6.3,6.2-12.2,13.2-16.2,21.7c-3.1,6.5-5,14.1-3.9,21.5c1.1,7.4,5.6,14.3,11.8,15.8
									c0.8-0.9,1.6-1.8,2.4-2.8"/>
							</g>
						</g>
					</g>
				</g>
			</g>
		</g>
		<g>
			<g>
				<g>
					<g>
						<g>
							<g>
								<g>
									<g>
										<g>
											<g>
												<g>
													<g>
														<g>
															<g>
																<g>
																	<path class="st3" d="M236.6,411.9c-0.4-0.2-14.5-4.6-14.3,9.9c0.1,14.5,14.7,11.4,14.7,11"/>
																	<path class="st1" d="M236.6,411.9c-4.8-1-11.3-0.3-12.7,5.2c-0.9,3.1-0.8,6.9,0.3,9.9c1.8,5,8,6.8,12.8,5.8
																		c-5.1,2.4-12.4,0.5-14.6-5C218.5,416.8,224.5,406.9,236.6,411.9L236.6,411.9z"/>
																</g>
															</g>
														</g>
													</g>
												</g>
											</g>
										</g>
									</g>
								</g>
							</g>
						</g>
					</g>
				</g>
			</g>
		</g>
		<g>
			<g>
				<g>
					<g>
						<g>
							<g>
								<path class="st117" d="M284,407.4c-0.1,0,0-1.5-0.7-4.2c-0.7-2.6-2.4-6.4-6.3-9.3c-1.9-1.4-4.3-2.7-7.1-3.1
									c-2.8-0.5-5.9-0.4-8.9,0.8c-1.5,0.5-2.9,1.3-4.3,2.3c-1.3,1-2.6,2.2-3.6,3.6c-2.1,2.8-3.2,6.3-3.3,10c0,3.7,1.2,7.2,3.3,10
									c1,1.4,2.2,2.6,3.6,3.6c1.3,1,2.8,1.8,4.3,2.3c3,1.1,6.1,1.2,8.9,0.8c2.8-0.5,5.2-1.7,7.1-3.1c3.9-2.9,5.6-6.7,6.3-9.3
									C284,409,283.9,407.4,284,407.4c0,0,0,0.4,0,1.1c0,0.4,0,0.8-0.1,1.3c-0.1,0.5-0.1,1.1-0.3,1.8c-0.6,2.6-2.3,6.6-6.2,9.6
									c-2,1.5-4.4,2.8-7.3,3.3c-2.9,0.5-6.1,0.4-9.2-0.7c-1.6-0.5-3.1-1.3-4.4-2.4c-1.4-1-2.7-2.3-3.7-3.7
									c-2.2-2.9-3.4-6.6-3.4-10.4c0-3.8,1.3-7.5,3.4-10.4c1-1.5,2.3-2.7,3.7-3.7c1.4-1,2.9-1.8,4.4-2.4c3.1-1.2,6.3-1.2,9.2-0.7
									c2.9,0.5,5.4,1.8,7.3,3.3c4,3.1,5.6,7,6.2,9.6c0.2,0.7,0.3,1.3,0.3,1.8c0.1,0.5,0.1,1,0.1,1.3
									C284,407.1,284,407.4,284,407.4z"/>
							</g>
						</g>
					</g>
				</g>
			</g>
			<g>
				<g>
					<g>
						<g>
							<g>
								<path class="st117" d="M325,407.4c-0.1,0,0-1.5-0.7-4.2c-0.7-2.6-2.4-6.4-6.3-9.3c-1.9-1.4-4.3-2.7-7.1-3.1
									c-2.8-0.5-5.9-0.4-8.9,0.8c-1.5,0.5-2.9,1.3-4.3,2.3c-1.3,1-2.6,2.2-3.6,3.6c-2.1,2.8-3.2,6.3-3.3,10c0,3.7,1.2,7.2,3.3,10
									c1,1.4,2.2,2.6,3.6,3.6c1.3,1,2.8,1.8,4.3,2.3c3,1.1,6.1,1.2,8.9,0.8c2.8-0.5,5.2-1.7,7.1-3.1c3.9-2.9,5.6-6.7,6.3-9.3
									C325,409,324.9,407.4,325,407.4c0,0,0,0.4,0,1.1c0,0.4,0,0.8-0.1,1.3c-0.1,0.5-0.1,1.1-0.3,1.8c-0.6,2.6-2.3,6.6-6.2,9.6
									c-2,1.5-4.4,2.8-7.3,3.3c-2.9,0.5-6.1,0.4-9.2-0.7c-1.6-0.5-3.1-1.3-4.4-2.4c-1.4-1-2.7-2.3-3.7-3.7
									c-2.2-2.9-3.4-6.6-3.4-10.4c0-3.8,1.3-7.5,3.4-10.4c1-1.5,2.3-2.7,3.7-3.7c1.4-1,2.9-1.8,4.4-2.4c3.1-1.2,6.3-1.2,9.2-0.7
									c2.9,0.5,5.4,1.8,7.3,3.3c4,3.1,5.6,7,6.2,9.6c0.2,0.7,0.3,1.3,0.3,1.8c0.1,0.5,0.1,1,0.1,1.3
									C325,407.1,325,407.4,325,407.4z"/>
							</g>
						</g>
					</g>
				</g>
			</g>
			<g>
				<path class="st3" d="M289,414.4c0,0,0.9,2.8,4.1,3.4c2.2,0.4,3.1-1.3,5.3,0.9c2.6,2.7-0.2,9.1-5.4,9.2"/>
				<path class="st1" d="M289,414.4c1.3,1.6,3.2,2.3,4.7,2.2c1-0.2,1.8-0.7,3.2-0.5c4.6,1.1,4.9,6.6,2.1,9.6c-1.5,1.8-4,2.7-6,2.1
					c2-0.6,3.4-1.9,4.2-3.4c1.1-2.1,1.2-4.5-0.8-5.5c-0.7-0.1-1.9,0.2-2.8,0C291.2,418.7,289.2,416.7,289,414.4L289,414.4z"/>
			</g>
			<g>
				<g>
					<g>
						<g>
							<g>
								<path class="st117" d="M291.3,403.4c-0.1,0.2-1.7-0.5-3.9-0.6c-2.2-0.1-3.9,0.5-3.9,0.3c-0.1-0.1,1.6-1,3.9-0.9
									C289.8,402.3,291.4,403.3,291.3,403.4z"/>
							</g>
						</g>
					</g>
				</g>
			</g>
			<g>
				<g>
					<g>
						<g>
							<g>
								<path class="st117" d="M249.5,409.1c0,0.2-3.2,1.2-7.2,1.8c-4.1,0.7-7.5,0.7-7.5,0.5c0-0.2,3.3-0.5,7.4-1.2
									C246.2,409.7,249.4,409,249.5,409.1z"/>
							</g>
						</g>
					</g>
				</g>
			</g>
			<g>
				<g>
					<g>
						<g>
							<g>
								<path class="st3" d="M282.2,404.7c0.1,0,0.2,1.3-0.2,3.2c-0.3,2-1.2,4.7-2.9,7.3c-1.7,2.6-3.7,4.6-5.5,5.6
									c-1.8,1.1-3.2,0.8-3.2,0.7c0-0.1,1.3,0,2.9-1.1c1.6-1.1,3.6-3.1,5.2-5.6c1.6-2.5,2.5-5.1,3-7.1
									C282,406,282.1,404.7,282.2,404.7z"/>
							</g>
						</g>
					</g>
				</g>
			</g>
		</g>
		<g>
			<g>
				<g>
					<g>
						<g>
							<path class="st117" d="M226.3,432.2c0,0.1-0.4,0.2-0.9,0.6c-0.6,0.4-1.3,1.2-1.7,2.4c-0.4,1.2-0.3,2.8,0.9,4
								c1.1,1.2,3,1.9,4.8,1.4c1.8-0.5,3.1-2.2,3.4-3.8c0.4-1.6-0.1-3.1-0.8-4.2c-0.7-1.1-1.6-1.7-2.2-2c-0.6-0.3-1-0.5-1-0.5
								c0,0,0.4,0,1.1,0.3c0.7,0.3,1.7,0.9,2.5,2c0.8,1.1,1.4,2.8,1,4.6c-0.4,1.8-1.7,3.6-3.8,4.3c-2.1,0.6-4.3-0.3-5.5-1.6
								c-0.6-0.7-1-1.5-1.1-2.4c-0.1-0.8,0-1.6,0.2-2.2c0.5-1.3,1.3-2.1,2-2.5C225.9,432.2,226.3,432.2,226.3,432.2z"/>
						</g>
					</g>
				</g>
			</g>
		</g>
	</g>
	<g>
		<g>
			<g>
				<path class="st27" d="M157,817.5c12.6-6.9,38.6-11.1,38.6-11.1l17.7,31.9l-42.9,9.2"/>
				<path class="st27" d="M136.9,824.7c0,0,8.7-5.2,15.7-7.1c5.1-1.3,6.6-2.1,6.6-2.1s1-0.9,1.7,0.1c0.7,1,1.3,12.2,6.3,20.8
					c5,8.7,9.4,7.7,10.3,10.1c0.9,2.3-1.2,2.9-5.7,3.4c-5.4,0.7-10.1,4.9-10.1,4.9"/>
				<g>
					<g>
						<g>
							<g>
								<g>
									<g>
										<path class="st27" d="M162.4,851.6c0,0,3,2.7,2.8,3.7c-0.7,3.2,3.1,19.8,3.1,19.8s9.6,3.9,13.2,5.8
											c6.5,3.5,7.3,11.8,5.4,13.6c-0.9,0.8-9.2,2.4-24.8,2c-4.4-0.1-17.9-8.7-25.2-38.4c-3.7-15-7-7.2-11.5-26.4
											c-0.3-1.3,8.6-7.6,21.4-12.1"/>
									</g>
								</g>
							</g>
						</g>
					</g>
				</g>
				<path class="st28" d="M187.5,888.6c0,0-12.4,2.2-25.2,0.6c-8.5-1-15.7-20.6-21.7-35.4c-3-7.5-7.2-13.7-8-15.7
					c-2.5-5.8-1.6-10.9-1.6-10.9"/>
				<path class="st27" d="M162.4,851.6c0,0-5.4-4.4-12.1-11.9c-6.7-7.5-10.2-17-3.5-20.1"/>
				<path class="st113" d="M167.7,871.8c0,0-3.6,1.5-7-0.4"/>
				<path class="st113" d="M168.3,875.2c0,0-2.4,3.1-6.3,3.1"/>
				<path class="st114" d="M167.5,862.3c0,0-0.1,5.3,3.1,5s-3.2-6-3.2-6s-2.7,7.6-6.7,6.3c-4.1-1.4,5.9-6.7,5.9-6.7
					s-2.1-2.4-7.8-0.1"/>
			</g>
			<g>
				<path class="st12" d="M172,807.3l103.1-33.2l-103.6,3.2l-7.2-69.4l197.3,17.2l27.9,40.1l-7.3,50.3l-192.2,48.9
					C175.4,847,169.4,828,172,807.3z"/>
			</g>
			<g>
				<path class="st27" d="M332.1,876.3c0.6-14.5,0-39.2,0-39.2l36.9,1.3l-3.9,42"/>
				<path class="st27" d="M327.9,897.4c0,0,0-10.2,2.1-17.3c1.5-5.1,1.6-6.8,1.6-6.8s-0.2-1.3,1-1.4c1.2-0.1,11.2,5.2,21.3,5.4
					c10.1,0.2,11.6-4.1,14.1-3.7c2.5,0.4,1.9,2.6,0,6.8c-2.2,5-1,11.3-1,11.3"/>
				<g>
					<g>
						<g>
							<g>
								<g>
									<g>
										<path class="st27" d="M364.5,889.4c0,0,3.9-1.2,4.6-0.5c3.6,3.4,28.1,3.9,38.9,10c6.5,3.6,7.2,12,5.2,13.8
											c-0.9,0.8-9.3,2.3-25.2,1.6c-4.4-0.2-25.1-1.1-29.9-1.3c-15.6-0.4-29,0-30.3-1.9c-0.8-1.1-2.1-11.5,0.7-24.8"/>
									</g>
								</g>
							</g>
						</g>
					</g>
				</g>
				<path class="st27" d="M414,906.7c0,0-12.6,2-25.5,0.3c-12.9-1.7-44.6-0.1-50.9-1s-10.7-2.1-10.7-2.1"/>
				<path class="st27" d="M364.5,889.4c0,0-6.7,2.4-16.7,4.3s-20,0-19.2-7.4"/>
				<path class="st113" d="M386.8,892.6c0,0,0.4,4-2.5,6.6"/>
				<path class="st113" d="M393,893.7c0,0,0.4,4-2.5,6.6"/>
				<path class="st113" d="M399.8,894.9c0,0,0.4,4-2.5,6.6"/>
				<path class="st114" d="M376.5,890.5c0,0,4.6,2.9,6-0.1c1.4-3-6.8-0.3-6.8-0.3s5.2,6.3,1.9,9.1c-3.3,2.8-2.7-8.6-2.7-8.6
					s-3.2,0.5-4.2,6.7"/>
			</g>
			<g>
				<path class="st12" d="M386.9,850.2c0,0,12.5-138.5,2.6-190.8c-2.2-11.4-15.3-17.9-18.1-19.3l0,0c-12.8-6.8-28.2-8.2-42.2-3.9
					l-128,39L131,691.7c0,0-7.6,17.9-9,39.8c-1.9,30.5,11.9,51.2,57.2,49.5s150.3-54.8,150.3-54.8l-8.6,123
					C341.8,856.5,360.7,857.8,386.9,850.2z"/>
			</g>
		</g>
	</g>
	<g>
		<g>
			<path class="st64" d="M492.8,480.5c-0.9,9-86.4,72.3-87.1,70c-8.1,6.2-121,0.5-121,0.5l4.9-53.1l101.9,1.6c0,0,80.3-40.8,84.1-43
				C479.5,454.3,493.5,474.4,492.8,480.5z"/>
		</g>
		<path class="st27" d="M340.3,613.5c0,0,18,2,24.5,3.7c6.6,1.7,21.9,9.4,21.9,13.6c0,0.6-0.5,1.9-0.2,2.9c0.3,1.2,1.5,2.2,1.5,3.6
			c0,1.1-1,2.4-1,3.5c0,0.2,1.1,1.4,1,2.8c0,1.4-0.9,2.2-1.1,3.8c-0.1,0.5,1.1,2.2,1.1,2.7c0,1.4-1.3,2.3-3.3,2.3
			c-1,0-8.1-2.7-14.7-6.5c-7-4-13.6-9.1-19.2-8.7L340.3,613.5z"/>
		<g>
			<path class="st4" d="M287.5,486.8c-0.1,2.3,20.7,58,20.4,80.3c-0.3,29.2-31,51.7-31,51.7l-31.1,49.7
				c-47.3,32.1-109.5,63.9-119.2,24.6c-6.6-26.6,22.1-57.9,38.1-89.9c16-31.9,12.3-48.1,28.5-79.8c9.3-18.2,25.3-34.4,31.2-40.1
				l18.5-12.4L287.5,486.8z"/>
		</g>
		<g>
			<path class="st64" d="M245.9,509.5L245.9,509.5c12.3,4.1,19.7,16.6,17.4,29.4l-15,79.8c0,0,88.8-13.4,95-12.5
				c6.2,0.9,11.7,24.5,10.9,36.6c0,0-85.1,26.9-133.8,32.5c-22.8,2.6-29.3-6.6-30.4-12.4c-3.4-18.1,0,0,0,0
				c-5.8-8.2,16.9-127.5,16.9-127.5"/>
		</g>
		<g>
			<path class="st43" d="M151.6,700.8c-0.2,0.3-3.2-1.2-6.4-3.9c-3.2-2.7-5.3-5.4-5-5.6c0.3-0.2,2.7,2,5.8,4.6
				C149.1,698.5,151.8,700.5,151.6,700.8z"/>
		</g>
		<path class="st4" d="M228.3,480.5c0,0-0.6-11.3,4-14.2c2.2-1.4,13.8,4.7,26.7,10c13.9,5.7,29,10.8,29,10.8
			c5.3,1.4,8.4,6.1,5.7,10.8l0.3,1.3c0,0,1.1,3.9-3.9,4c0,0-8.5,0.5-38-12.1"/>
		<g>
			<g>
				<path class="st43" d="M240.6,554.8c-0.3,0.2-2.1-2.9-3.1-7.1c-1-4.2-0.9-7.7-0.5-7.7c0.4,0,0.8,3.4,1.8,7.4
					C239.7,551.4,241,554.6,240.6,554.8z"/>
			</g>
			<g>
				<path class="st43" d="M222.2,565.6c0.3,0.2-1.5,2.8-4.5,5.4c-2.9,2.6-5.8,4.1-5.9,3.8c-0.2-0.3,2.3-2.2,5.1-4.7
					C219.7,567.6,221.9,565.4,222.2,565.6z"/>
			</g>
			<g>
				<path class="st43" d="M241.4,590.4c-0.3,0.2-2.1-1.6-3.4-4.5c-1.4-2.9-1.7-5.5-1.3-5.5c0.4-0.1,1.2,2.3,2.5,5
					C240.4,588.1,241.7,590.2,241.4,590.4z"/>
			</g>
			<g>
				<path class="st43" d="M218.6,608.1c-0.3-0.1,0.2-3.2,1.2-7c1-3.8,2.1-6.7,2.4-6.6c0.3,0.1-0.2,3.2-1.2,7
					C220,605.2,218.9,608.1,218.6,608.1z"/>
			</g>
			<g>
				<path class="st43" d="M206.9,629.7c-0.3,0.1-1.5-2-2.6-4.8c-1.1-2.8-1.7-5.1-1.4-5.2c0.3-0.1,1.5,2,2.6,4.8
					C206.5,627.2,207.2,629.6,206.9,629.7z"/>
			</g>
			<g>
				<path class="st43" d="M241.9,614.5c0.2,0.3-2.4,2.3-5.3,4.9c-3,2.6-5.3,4.9-5.5,4.6c-0.3-0.2,1.7-2.9,4.7-5.6
					C238.8,615.8,241.7,614.3,241.9,614.5z"/>
			</g>
			<g>
				<path class="st43" d="M211.1,665.3c-0.3,0.1-2.1-3.1-4.4-6.9c-2.3-3.8-4.4-6.8-4.1-7.1c0.3-0.2,2.8,2.5,5.2,6.4
					C210.1,661.6,211.4,665.1,211.1,665.3z"/>
			</g>
			<g>
				<path class="st43" d="M234.2,654.4c-0.2,0.3-2.8-1.4-6.2-3.2c-3.4-1.7-6.3-2.8-6.2-3.2c0.1-0.3,3.3,0.2,6.8,2
					C232.1,652,234.5,654.2,234.2,654.4z"/>
			</g>
			<g>
				<path class="st43" d="M253.9,650.5c0.3,0.2-1.2,2.2-2.4,4.9c-1.3,2.7-1.8,5.1-2.2,5c-0.3,0-0.3-2.7,1-5.6
					C251.6,652,253.6,650.3,253.9,650.5z"/>
			</g>
			<g>
				<path class="st43" d="M267.4,634.9c-0.2,0.3-2.6-1.1-5.6-2.5c-3.1-1.4-5.7-2.3-5.6-2.7c0.1-0.3,2.9,0.1,6.1,1.5
					C265.5,632.7,267.6,634.6,267.4,634.9z"/>
			</g>
			<g>
				<path class="st43" d="M278.3,644.9c0.3,0.2-0.9,2-2.5,4c-1.7,2-3.2,3.4-3.5,3.2c-0.3-0.2,0.9-2,2.5-4
					C276.4,646.1,278,644.7,278.3,644.9z"/>
			</g>
			<g>
				<path class="st43" d="M289.9,629.3c-0.4,0.1-1.2-2.2-2.8-4.6c-1.6-2.4-3.4-4-3.2-4.3c0.2-0.3,2.5,1,4.2,3.6
					C289.9,626.6,290.2,629.2,289.9,629.3z"/>
			</g>
			<g>
				<path class="st43" d="M302.2,638.5c-0.3-0.1,0.2-3.5,1.2-7.6c1-4.1,2.1-7.3,2.4-7.3c0.3,0.1-0.2,3.5-1.2,7.6
					C303.6,635.3,302.6,638.6,302.2,638.5z"/>
			</g>
			<g>
				<path class="st43" d="M328.4,643.6c-0.2,0.3-2.6-1.1-5.4-3.1c-2.8-2-4.9-3.8-4.7-4.1c0.2-0.3,2.6,1.1,5.4,3.1
					C326.5,641.5,328.6,643.3,328.4,643.6z"/>
			</g>
			<g>
				<path class="st43" d="M335.9,615.3c0.3,0.1-0.5,2.3-2.3,4.4c-1.8,2.1-3.9,3.1-4.1,2.8c-0.2-0.3,1.4-1.7,3.1-3.7
					C334.4,616.9,335.6,615.1,335.9,615.3z"/>
			</g>
			<g>
				<path class="st43" d="M227.9,525.6c0.2,0.3-1.5,2.2-3.8,4.5c-2.3,2.2-4.4,3.8-4.6,3.5c-0.2-0.3,1.5-2.2,3.8-4.5
					C225.6,527,227.6,525.4,227.9,525.6z"/>
			</g>
			<g>
				<path class="st43" d="M252,535.5c-0.3,0.1-1.3-2.5-2.1-5.8c-0.8-3.3-1.2-6.1-0.9-6.1c0.3-0.1,1.3,2.5,2.1,5.8
					C251.9,532.7,252.3,535.4,252,535.5z"/>
			</g>
			<g>
				<path class="st43" d="M247.8,496.3c0,0.3-2.4,0.4-5.3,0c-2.9-0.3-5.2-0.9-5.1-1.2c0-0.3,2.4-0.4,5.3,0
					C245.6,495.4,247.9,496,247.8,496.3z"/>
			</g>
			<g>
				<path class="st43" d="M265.8,523.6c-0.3,0.1-1-1.7-1-4c0-2.3,0.7-4.1,1-4c0.3,0.1,0.2,1.9,0.2,4
					C266,521.7,266.2,523.5,265.8,523.6z"/>
			</g>
			<g>
				<path class="st43" d="M287.9,530.7c-0.2,0.3-2.8-1.7-5.6-4.3c-2.9-2.6-5-5-4.8-5.3c0.2-0.3,2.8,1.7,5.6,4.3
					C286,528.1,288.2,530.4,287.9,530.7z"/>
			</g>
			<g>
				<path class="st43" d="M280.3,546c0.2,0.3-1.2,1.5-3.1,2.7c-1.9,1.2-3.6,2-3.7,1.7c-0.2-0.3,1.2-1.5,3.1-2.7
					C278.4,546.5,280.1,545.7,280.3,546z"/>
			</g>
			<g>
				<path class="st43" d="M293.9,567.2c-0.3,0-0.7-2.9,0-6.5c0.8-3.6,2.3-6.1,2.6-6c0.3,0.2-0.7,2.8-1.4,6.2
					C294.4,564.3,294.3,567.2,293.9,567.2z"/>
			</g>
			<g>
				<path class="st43" d="M281.5,577.6c-0.3,0.2-1.6-1.9-3-4.5c-1.3-2.7-2.2-4.9-1.8-5.1c0.3-0.2,1.6,1.9,3,4.5
					C280.9,575.2,281.8,577.5,281.5,577.6z"/>
			</g>
			<g>
				<path class="st43" d="M263.1,583.3c0.3,0.1-0.6,2.9-2,6.1c-1.4,3.2-2.9,5.7-3.2,5.5c-0.3-0.1,0.6-2.9,2-6.1
					C261.4,585.6,262.8,583.1,263.1,583.3z"/>
			</g>
			<g>
				<path class="st43" d="M279.9,600.1c0,0.4-3.2,0.5-7,1c-3.8,0.5-6.9,1.2-7,0.9c-0.1-0.3,2.9-1.6,6.9-2.1
					C276.6,599.3,279.9,599.7,279.9,600.1z"/>
			</g>
			<g>
				<path class="st43" d="M188,580.4c-0.3,0.1-1.2-2.6-2-6.1c-0.8-3.4-1.1-6.3-0.8-6.3c0.3-0.1,1.2,2.6,2,6.1
					C188,577.5,188.4,580.4,188,580.4z"/>
			</g>
			<g>
				<path class="st43" d="M203.4,545.2c0.2,0.3-1.6,1.5-4,1.8c-2.5,0.4-4.5-0.3-4.4-0.6c0.1-0.4,2-0.3,4.2-0.6
					C201.4,545.4,203.2,544.9,203.4,545.2z"/>
			</g>
			<g>
				<path class="st43" d="M174.5,611.2c-0.1-0.3,2.7-1.5,6.2-2.6c3.5-1.1,6.5-1.7,6.6-1.4c0.1,0.3-2.7,1.5-6.2,2.6
					C177.6,610.9,174.6,611.6,174.5,611.2z"/>
			</g>
			<g>
				<path class="st43" d="M164.4,636.9c-0.3,0-0.9-3-1.2-6.8c-0.3-3.8-0.3-6.8,0-6.9c0.3,0,0.9,3,1.2,6.8
					C164.8,633.8,164.8,636.9,164.4,636.9z"/>
			</g>
			<g>
				<path class="st43" d="M172.3,666.6c-0.3-0.2,1.2-3.5,3.5-7.5c2.2-4,4.3-7.1,4.6-6.9c0.3,0.2-1.2,3.5-3.5,7.5
					C174.6,663.7,172.6,666.8,172.3,666.6z"/>
			</g>
			<g>
				<path class="st43" d="M132.9,669.9c-0.3-0.2,1.2-3.5,3.5-7.5c2.2-4,4.3-7.1,4.6-6.9c0.3,0.2-1.2,3.5-3.5,7.5
					C135.2,667,133.2,670.1,132.9,669.9z"/>
			</g>
			<g>
				<path class="st43" d="M156.8,675.4c-0.3,0.1-1.5-3-2.7-6.8c-1.1-3.9-1.8-7.1-1.5-7.2c0.3-0.1,1.5,3,2.7,6.8
					C156.4,672.1,157.1,675.3,156.8,675.4z"/>
			</g>
			<g>
				<path class="st43" d="M189,684.9c0.1,0.3-2.5,1.6-5.5,3.3c-3.1,1.7-5.4,3.4-5.7,3.1c-0.2-0.3,1.9-2.4,5-4.2
					C186,685.4,188.8,684.6,189,684.9z"/>
			</g>
			<g>
				<path class="st43" d="M211.8,520.8c-0.3,0-0.4-3-0.1-6.7c0.3-3.7,0.9-6.6,1.2-6.6c0.3,0,0.4,3,0.1,6.7
					C212.7,517.8,212.2,520.8,211.8,520.8z"/>
			</g>
			<g>
				<path class="st43" d="M243.4,481.9c-0.3,0.1-1-1.1-1.4-2.6c-0.4-1.5-0.5-2.9-0.2-3c0.3-0.1,1,1.1,1.4,2.6
					C243.7,480.5,243.7,481.8,243.4,481.9z"/>
			</g>
			<g>
				<path class="st43" d="M268.2,487.5c0,0.3-2.8,0.2-5.9-1c-3.1-1.2-5.1-3.1-4.9-3.4c0.2-0.3,2.5,1,5.4,2.2
					C265.8,486.5,268.3,487.1,268.2,487.5z"/>
			</g>
			<g>
				<path class="st43" d="M288.7,492.7c0.2,0.3-1.3,1.7-3.6,2.6c-2.3,0.9-4.4,0.9-4.4,0.6c0-0.4,1.8-0.9,4-1.7
					C286.8,493.3,288.5,492.4,288.7,492.7z"/>
			</g>
			<g>
				<path class="st43" d="M311.9,517.9c-0.2-0.3,1.4-1.7,3.1-3.7c1.7-1.9,2.9-3.7,3.3-3.6c0.3,0.1-0.5,2.3-2.3,4.4
					C314.1,517.2,312.1,518.2,311.9,517.9z"/>
			</g>
			<g>
				<path class="st43" d="M329.9,543.2c-0.2,0.2-2.9-2-5.8-5c-3-3-5.2-5.6-4.9-5.9c0.2-0.2,2.9,2,5.8,5
					C327.9,540.3,330.1,543,329.9,543.2z"/>
			</g>
			<g>
				<path class="st43" d="M343.2,517.6c0.3,0.2-1.1,2.9-3.1,6.1c-2,3.2-3.9,5.6-4.2,5.4c-0.3-0.2,1.1-2.9,3.1-6.1
					C341,519.8,342.9,517.4,343.2,517.6z"/>
			</g>
			<g>
				<path class="st43" d="M364.3,541.6c-0.3,0.2-1.5-1.3-2.6-3.3c-1.1-2-1.8-3.7-1.5-3.9c0.3-0.2,1.5,1.3,2.6,3.3
					C364,539.7,364.6,541.4,364.3,541.6z"/>
			</g>
			<g>
				<path class="st43" d="M367.5,512.8c-0.3,0.2-1.4-1-2.5-2.7c-1.1-1.7-1.8-3.2-1.5-3.3c0.3-0.2,1.4,1,2.5,2.7
					C367.1,511.1,367.8,512.6,367.5,512.8z"/>
			</g>
			<g>
				<path class="st43" d="M389,533.4c0.2,0.2-1.1,2-3,4c-1.9,1.9-3.7,3.3-3.9,3.1c-0.2-0.2,1.1-2,3-4
					C387,534.5,388.7,533.1,389,533.4z"/>
			</g>
			<g>
				<path class="st43" d="M388.8,521.9c0,0.3-1.9,0.9-4.3,1.2c-2.4,0.3-4.4,0.3-4.5,0c0-0.3,1.9-0.9,4.3-1.2
					C386.7,521.5,388.7,521.5,388.8,521.9z"/>
			</g>
			<g>
				<path class="st43" d="M399.7,509.9c-0.3,0.2-2-1.9-3.9-4.7c-1.9-2.8-3.2-5.2-2.9-5.4c0.3-0.2,2,1.9,3.9,4.7
					C398.7,507.3,399.9,509.7,399.7,509.9z"/>
			</g>
			<g>
				<path class="st43" d="M410,526c0.3,0.2-0.8,1.8-2.4,3.6c-1.6,1.7-3.1,3-3.3,2.7c-0.3-0.2,0.8-1.8,2.4-3.6
					C408.3,527,409.8,525.7,410,526z"/>
			</g>
			<g>
				<path class="st43" d="M421.6,503.9c-0.3,0.2-1.7-1.5-3.9-3c-2.1-1.5-4.2-2.3-4.1-2.6c0.1-0.3,2.5-0.1,4.8,1.6
					C420.8,501.6,421.9,503.8,421.6,503.9z"/>
			</g>
			<g>
				<path class="st43" d="M441.2,502.7c0.3,0.2-0.7,2.1-2.3,4.2c-1.5,2.1-3,3.6-3.3,3.4c-0.3-0.2,0.7-2.1,2.3-4.2
					C439.4,504,440.9,502.4,441.2,502.7z"/>
			</g>
			<g>
				<path class="st43" d="M443,492.3c-0.3,0.1-1.6-2.4-2.9-5.7c-1.3-3.3-2.1-6.1-1.8-6.2c0.3-0.1,1.6,2.4,2.9,5.7
					C442.5,489.4,443.3,492.1,443,492.3z"/>
			</g>
			<g>
				<path class="st43" d="M458.1,477.1c-0.3-0.2,0.9-2.3,2.7-4.8c1.8-2.4,3.4-4.2,3.7-4c0.3,0.2-0.9,2.3-2.7,4.8
					C460.1,475.5,458.4,477.3,458.1,477.1z"/>
			</g>
			<g>
				<path class="st43" d="M474.5,483.4c-0.1,0.3-2.4-0.1-5.2-0.2c-2.8-0.1-5.1,0.3-5.2-0.1c-0.1-0.3,2.2-1.3,5.3-1.2
					C472.4,482,474.6,483.1,474.5,483.4z"/>
			</g>
		</g>
	</g>
</g>
<g>
	<path class="st3" d="M929.8,154.7c0,0,13.7,15.4,23.4,21.4"/>
	<path class="st1" d="M930.5,154c6.9,7.9,14,16,22.6,22.1c-2.3-1.3-4.4-2.9-6.5-4.5c-6.3-5-12-10.5-17.6-16.2
		C929,155.4,930.5,154,930.5,154L930.5,154z"/>
</g>
<g>
	<path class="st3" d="M924.4,159.4c0,0,10.4,14.1,22.4,23"/>
	<path class="st1" d="M925,158.9c6.3,8.6,13.4,16.8,21.8,23.5c-8.7-6.3-16.3-14.2-23-22.6C923.8,159.9,925,158.9,925,158.9
		L925,158.9z"/>
</g>
<g>
	<path class="st3" d="M920.8,166.1c0,0,12.8,14.8,21.3,21.2"/>
	<path class="st1" d="M921.4,165.5c6.4,7.6,13,15.3,20.6,21.8c-2-1.5-4-3.1-5.9-4.7c-5.7-5-10.9-10.4-16.1-15.9
		C920.1,166.6,921.4,165.5,921.4,165.5L921.4,165.5z"/>
</g>
<g>
	<g>
		<path class="st1" d="M432,164.6c4.9,5.7,13.3,8,20.5,5.5c1.1-0.3,2.1-0.8,3.1-1.2c-2,1.1-4,2.1-6.2,2.7
			c-5.6,1.6-11.9,0.4-16.7-2.7c-1-0.7-1.9-1.3-2.9-2.2L432,164.6L432,164.6z"/>
	</g>
	<g>
		<path class="st1" d="M427.4,169.4c0-3.6,3.4-6.7,7-6.5C432.9,166,430.9,168.6,427.4,169.4L427.4,169.4z"/>
	</g>
	<g>
		<path class="st1" d="M446.3,140.1c1.3,1.6,3.2,2.3,4.7,2.2c1-0.2,1.8-0.7,3.2-0.5c4.6,1.1,4.9,6.6,2.1,9.6c-1.5,1.8-4,2.7-6,2.1
			c2-0.6,3.4-1.9,4.2-3.4c1.1-2.1,1.2-4.5-0.8-5.5c-0.7-0.1-1.9,0.2-2.8,0C448.5,144.4,446.5,142.5,446.3,140.1L446.3,140.1z"/>
	</g>
</g>
<g>
	<path class="st3" d="M450.4,518c-9.2,48.8-24.3,125.7-34.1,175.1c1,27,3.5,100.8,4.3,127.6c0,0,1.2,42.6,1.2,42.6
		s-1.9-42.6-1.9-42.6c-1.2-26.9-4-100-5-127.8C424.7,643.4,440.1,566.8,450.4,518L450.4,518z"/>
</g>
<g>
	<path class="st3" d="M390.4,302c3.1,7,5.4,14.5,9.1,21.2c0.2,0.3,0.5,0.6,0.6,0.7c0,0-0.3,0-0.1,0c1.9-0.1,10.2-0.3,12.2-0.3
		c34.2-0.8,77.5-1.6,111.6-1.8c-34,1.4-77.4,2.6-111.5,3.5c-1.6,0-10.1,0.3-11.6,0.3c-0.3,0-0.8,0.1-1.2-0.1
		c-0.7-0.3-1.1-0.9-1.4-1.4c-0.9-1.4-1.5-2.8-2.1-4.3C393.6,314,391.8,308,390.4,302L390.4,302z"/>
</g>
<g>
	<path class="st3" d="M391.8,337.8c0.8-2.9,1.8-5.8,3-8.6c1-2,1.8-4.4,3.7-5.8c1.6-0.9,2.2,0.9,2.4,2.2c0.5,3.1-1.2,6.1-1.5,9.1
		c-0.5,3-0.7,6-0.9,9c-0.3-3-0.4-6.1-0.2-9.1c0-2.9,1.6-6,1.1-8.8c-0.1-0.4-0.2-0.9-0.4-1.2c0,0,0,0,0.1,0.1c0,0,0.1,0,0.1,0
		c-1.5,1.3-2.3,3.4-3.3,5.1C395.9,329.7,391.8,337.8,391.8,337.8L391.8,337.8z"/>
</g>
<g>
	<path class="st3" d="M1164.1,144.4c0,0,5.2-9.3,12.1-5.6c6.9,3.7,1.9,22.9-8.1,26.6"/>
	<path class="st1" d="M1164.1,144.4c1.5-3.4,4.4-6.7,8.3-7.2c2.4-0.1,5.1,0.9,6.3,3.1c4.2,8-2.2,22.5-10.7,25.1
		c7.6-3.3,13.2-17,9.4-24.3c-1-1.7-3.1-2.4-4.9-2.4C1169,139,1166.4,141.7,1164.1,144.4L1164.1,144.4z"/>
</g>
<g>
	<path class="st3" d="M1152.4,344.8c3.5,18.8,9.9,37.1,16.5,55.1c1,2.6,1.9,5.1,2.9,7.7c-4.7-10-8.6-20.2-11.9-30.7
		C1156.6,366.4,1153.7,355.7,1152.4,344.8L1152.4,344.8z"/>
</g>
<g>
	<path class="st3" d="M1050.5,261.3c28.5-8.6,57.4-15.9,86.8-20.4c6-0.9,12.5-1.6,18.6-1.8c3.7-0.1,7.5-0.1,11.2,0.7
		c-9.9-0.2-19.6,2-29.3,3.6C1108.6,248.6,1079.7,255.2,1050.5,261.3L1050.5,261.3z"/>
</g>
<g>
	<path class="st3" d="M1048.4,278.1c0.5-5.7,1.3-11.3,1.9-17c0,0.3,0.5,0.4,0.6,0.1c-0.2,1.5-1,3.2-1.7,4.7c-1,1.9-2,3.9-3.5,5.4
		c-0.2,0.2-0.5,0.4-0.8,0.3c0.6,0.1,1-0.7,1.3-1.1c1.8-2.8,3.3-5.9,4.1-9.1c0-0.1,0.1-0.3,0.1-0.4c0.1-0.3,0.6-0.2,0.6,0.1
		C1050.3,266.9,1049.4,272.5,1048.4,278.1L1048.4,278.1z"/>
</g>
<g>
	<path class="st3" d="M1059.6,321.8c25.3-2,50.5-4.4,75.5-8.6c9.3-1.7,18.7-3.4,27.5-6.9c2.3-0.9,4.6-2.2,6.6-3.6
		c0.7-0.3,1.2,0.6,0.7,1c-2.4,2.8-5.3,5.2-8.3,7.3c-7.8,5.5-16.6,9.4-25.5,12.7c11.9-4.9,24.2-10.6,32.9-20.4c0,0,0.2-0.2,0.2-0.2
		c-0.2,0.3,0.2,0.7,0.5,0.5C1150.8,317.4,1084.8,321,1059.6,321.8L1059.6,321.8z"/>
</g>
<g>
	<path class="st3" d="M198.2,778.3c46.3-12.1,90.6-31.2,132.6-54c0,0-0.2,2-0.2,2l-9.7,122.9c0,0,7.5-123,7.5-123
		c0,0,1.7,1.1,1.7,1.1C288.2,749,244,766.9,198.2,778.3L198.2,778.3z"/>
</g>
<g>
	<path class="st3" d="M352.4,693.1c-4.3,6-8.6,12.1-13,18c-3.3,4.8-7.2,9.5-9.7,14.8c0,0,0,0.1,0,0.1c0,0,0,0.1,0,0
		c0-0.2-0.1-0.3-0.3-0.5c-0.1-0.1-0.3-0.1-0.3-0.1c-0.3-0.1-0.2,0-0.2,0c0.4-0.2,0.9-0.5,1.3-0.8c6.3-4.5,11.7-10.2,17-16
		c4.9-5.5,9.5-11.3,12.7-18c-4.5,12.3-18.1,27.7-28.7,35.5c-0.9,0.5-2.5,1.8-3.3,0.5c-0.2-0.4-0.1-0.8,0-1.2
		c0.9-2.3,2.4-4.2,3.7-6.2C338.1,710.1,345.1,701.5,352.4,693.1L352.4,693.1z"/>
</g>
<g>
	<path class="st3" d="M172,807.3c33.1-11.4,69.5-23.2,102.9-34.1c9.2-4.2,20.2-7.7,30.5-9.8c3.5-0.7,7-1.2,10.6-1.6
		c-3.5,0.8-7,1.5-10.4,2.5c-10.3,2.7-20.4,6.2-30.1,10.6C242,785.7,205.6,797.3,172,807.3L172,807.3z"/>
</g>
<g>
	<polygon class="st3" points="220.2,775.8 273.5,773.8 273.6,774.8 220.2,775.8 	"/>
</g>
<g>
	<path class="st3" d="M307.9,562.8c-2.7-20.2-8.5-39.7-14.7-59.1c4.3,9.3,7.8,18.9,10.5,28.8C306.3,542.3,308.3,552.6,307.9,562.8
		L307.9,562.8z"/>
</g>
<g>
	<path class="st3" d="M238.7,485.4c12.1,5.2,24.4,9.8,37,13.6c3.3,0.8,16.4,5.6,18.3,2.6c0.5-1.1,0-2.5-0.2-3.7
		c0.6,1.2,1.3,2.5,0.8,4c-2.5,5.3-22.4-2.1-27-3.5C257.6,494.8,247.9,490.6,238.7,485.4L238.7,485.4z"/>
</g>
<g>
	<path class="st12" d="M1126.3,571.7c0,0,3.3,9,0,37.4"/>
	<path class="st3" d="M1126.3,571.7c2.5,9.1,1.8,18.8,1.1,28.1c-0.2,2.3-0.8,7-1.1,9.3c0.4-5.3,1-13.5,1.1-18.7
		C1127.6,584.2,1127.7,577.8,1126.3,571.7L1126.3,571.7z"/>
</g>
<g>
	<path class="st3" d="M1014.4,550.3c6.1,4.1,14.2,3.3,21,1.7c9.8-3.3,16.3-12.2,22-20.4c3.2-4.9,6.3-10,8.5-15.5
		c-1.8,5.6-4.7,10.9-7.7,16c-5.5,8.7-12.2,17.9-22.3,21.4C1028.8,555.3,1020,555.6,1014.4,550.3L1014.4,550.3z"/>
</g>
<g>
	<path class="st3" d="M1076.6,720.5c22.2,2.5,44.4,6.6,65.8,13.2c10.7,3.3,21.3,7.3,31.2,12.8c9.9,5.5,18.9,12.9,25.5,22.1
		c10.2,13.7,14.4,30.6,18.4,46.9c4.1,15.7,9.5,32.9,11.2,49.1c0.6,5.6,0.8,11.3-0.1,16.8c-0.8,5.5-2.8,11.1-6.6,15.2
		c5.5-6.5,6.6-15.4,6.4-23.6c-0.8-19.1-7.8-38.7-12.8-57c-4.3-16-8.5-32.5-18.4-46.1c-6.4-9-15.1-16.3-24.6-21.8
		c-9.6-5.5-20-9.6-30.6-13.1C1120.8,728.1,1098.7,723.6,1076.6,720.5L1076.6,720.5z"/>
</g>
<g>
	<path class="st3" d="M1184.9,744c0.2,7.5-4.5,14.8-10.6,18.9C1178.4,756.8,1182.3,750.9,1184.9,744L1184.9,744z"/>
</g>
<g>
	<path class="st3" d="M1164.2,734.8c-4,3.5-6.8,7.9-9.5,12.4c-1.4,2.3-1.4,2.3-0.9-0.4c0.6-2.3,1.5-4.5,2.9-6.5
		C1158.6,737.9,1161.1,735.5,1164.2,734.8L1164.2,734.8z"/>
</g>
<g>
	<path class="st3" d="M1140.1,726.8c-3.8,3.7-6.2,8.2-9.1,12.6C1131.2,734,1134.7,728.1,1140.1,726.8L1140.1,726.8z"/>
</g>
<g>
	<path class="st3" d="M1120.7,721.9c-0.9,1.9-2,4.5-2.8,6.5c-1,2.2-1.8,4.4-3.1,6.5c-0.1-1.3,0-2.5,0.2-3.7
		C1115.7,727.6,1117.4,723.8,1120.7,721.9L1120.7,721.9z"/>
</g>
<g>
	<path class="st3" d="M1104.4,719c-1.1,3.2-2.7,6-4.8,8.7C1099,724.2,1101.2,720.4,1104.4,719L1104.4,719z"/>
</g>
<g>
	<path class="st3" d="M1091.1,719.9c0.4,2.2-0.5,4.2-2.2,5.6C1088,723.4,1089.1,720.9,1091.1,719.9L1091.1,719.9z"/>
</g>
<g>
	<path class="st3" d="M1200.7,758.4c3.5,8-0.7,17.6-7.3,22.6c0.5-0.9,1.1-1.8,1.6-2.7C1198.6,772.3,1201.2,765.6,1200.7,758.4
		L1200.7,758.4z"/>
</g>
<g>
	<path class="st3" d="M1201.3,794.4c7.2,18.8,27.5,80.2,18.7,97.2c-0.6,0.9-1.4,1.7-2.4,2.1c1-0.5,1.7-1.3,2.2-2.3
		C1226.6,877.8,1206,812.7,1201.3,794.4L1201.3,794.4z"/>
</g>
<g>
	<path class="st3" d="M1208.3,779.7c2.5,10.5,0.7,22.2-4.7,31.5C1206.4,800.8,1208.1,790.4,1208.3,779.7L1208.3,779.7z"/>
</g>
<g>
	<path class="st3" d="M1216.9,802.5c2.3,12,1.2,25.9-5.4,36.4C1215.5,827.1,1216.3,814.9,1216.9,802.5L1216.9,802.5z"/>
</g>
<g>
	<path class="st3" d="M1223.7,828.5c1,11.2,0,27.7-6.5,37.1C1221.5,853.7,1221.7,841,1223.7,828.5L1223.7,828.5z"/>
</g>
<g>
	<path class="st3" d="M1230.4,856.5c2,11.8-1.1,26.3-11.7,33.1C1227.1,880.7,1229.5,868.3,1230.4,856.5L1230.4,856.5z"/>
</g>
<g>
	<path class="st1" d="M970.4,782.4c0,0,98.1,95,98.1,95c0,0-1-0.4-1-0.4c15.1-0.7,30.2-6.1,41.8-15.9c3.9-3.3,7.3-7.1,10.3-11.3
		c-2.8,4.3-6,8.3-9.8,11.8c-11.5,10.6-26.7,16.7-42.2,18.2c0,0-0.6,0-0.6,0C1066.5,879.5,970.8,782.8,970.4,782.4L970.4,782.4z"/>
</g>
<g>
	<path class="st1" d="M944.4,851.9c5.7-8.2,13.6-15.2,23-18.7c9.6-2.9,19.7-3.7,29.6-4.5c6.6-0.5,13.3-0.7,19.9-0.8c0,0,0,1,0,1
		c-6.6,0.3-13.2,0.7-19.8,1.2c-9.8,0.9-19.8,1.5-29.3,4.4C958.6,837.8,950.8,844.4,944.4,851.9L944.4,851.9z"/>
</g>
<g>
	<path class="st1" d="M945.3,836.1c7.2-3.9,15.7-4.3,23.6-3.1c0,0-0.2,1-0.2,1C961,832.6,952.5,832.6,945.3,836.1L945.3,836.1z"/>
</g>
<g>
	<path class="st1" d="M1001.3,729.6c10.8,0.7,21.9,3.3,30.8,9.8c12.9,12.6,23.6,27.3,35.1,41.2c17.9,22.6,35.3,45.5,52.6,68.5
		c0,0-0.8,0.6-0.8,0.6c-8.7-11.4-17.6-22.8-26.4-34.2c-17.7-22.6-35.2-45.6-54-67.4c-2.4-2.7-4.8-5.4-7.4-7.7
		C1022.6,734,1011.7,731.4,1001.3,729.6L1001.3,729.6z"/>
</g>
<g>
	<path class="st1" d="M1018.8,719.9c7.6,6.6,14.4,14.7,17.8,24.4c0,0-1,0.3-1,0.3C1032.7,735,1026.2,726.7,1018.8,719.9
		L1018.8,719.9z"/>
</g>
<path class="st15" d="M1082.6,801.6c0,0,14.9,27.8,69.6,28.5"/>
</svg>
