<svg width="52" height="52" viewBox="0 0 52 52" fill="none" xmlns="http://www.w3.org/2000/svg">
<g clip-path="url(#clip0_4825_49443)">
<path d="M18.5254 23.4869C19.7042 23.1974 20.5762 22.4387 20.5762 21.5666C20.5762 20.6945 19.7042 19.9357 18.5254 19.6462V23.4869Z" fill="#2BD4D9"/>
<path d="M17.5 7.22095C11.2806 7.22095 6.2207 12.2808 6.2207 18.5002C6.2207 24.7196 11.2806 29.7795 17.5 29.7795C23.7194 29.7795 28.7793 24.7196 28.7793 18.5002C28.7793 12.2808 23.7194 7.22095 17.5 7.22095ZM22.627 21.5664C22.627 23.5475 20.8627 25.204 18.5254 25.585V26.7034C18.5254 27.2701 18.0668 27.7288 17.5 27.7288C16.9332 27.7288 16.4746 27.2701 16.4746 26.7034V25.585C14.1373 25.204 12.373 23.5475 12.373 21.5664C12.373 20.9997 12.8317 20.541 13.3984 20.541C13.9652 20.541 14.4238 20.9997 14.4238 21.5664C14.4238 22.4385 15.2958 23.1973 16.4746 23.4868V19.4327C14.1373 19.0516 12.373 17.3951 12.373 15.4141C12.373 13.433 14.1373 11.7766 16.4746 11.3955V10.2871C16.4746 9.72037 16.9332 9.26175 17.5 9.26175C18.0668 9.26175 18.5254 9.72037 18.5254 10.2871V11.3955C20.8627 11.7766 22.627 13.433 22.627 15.4141C22.627 15.9809 22.1683 16.4395 21.6016 16.4395C21.0348 16.4395 20.5762 15.9809 20.5762 15.4141C20.5762 14.542 19.7042 13.7832 18.5254 13.4937V17.5479C20.8627 17.9288 22.627 19.5853 22.627 21.5664Z" fill="#2BD4D9"/>
<path d="M16.4746 13.4939C15.2958 13.7834 14.4238 14.5422 14.4238 15.4142C14.4238 16.2863 15.2958 17.0451 16.4746 17.3346V13.4939Z" fill="#2BD4D9"/>
<path d="M17.5 1.00024C7.88799 1.00024 0 8.88823 0 18.5002C0 28.1123 7.88799 36.0002 17.5 36.0002C27.112 36.0002 35 28.1123 35 18.5002C35 8.88823 27.112 1.00024 17.5 1.00024ZM17.5 31.8303C10.15 31.8303 4.16992 25.8502 4.16992 18.5002C4.16992 11.1502 10.15 5.17017 17.5 5.17017C24.85 5.17017 30.8301 11.1502 30.8301 18.5002C30.8301 25.8502 24.85 31.8303 17.5 31.8303Z" fill="#2BD4D9"/>
<path d="M37.9337 25.6992C37.6059 26.0337 37.4223 26.4833 37.4223 26.9515C37.4223 27.4198 37.6059 27.8694 37.9337 28.2039L40.7961 31.0663C41.1306 31.3941 41.5802 31.5777 42.0485 31.5777C42.5167 31.5777 42.9663 31.3941 43.3008 31.0663L50.0453 24.3217C50.9449 26.3096 51.2173 28.5245 50.8261 30.6712C50.435 32.8178 49.399 34.7943 47.8561 36.3372C46.3132 37.8801 44.3367 38.9161 42.19 39.3072C40.0434 39.6984 37.8285 39.426 35.8406 38.5264L23.4786 50.8885C22.7669 51.6002 21.8016 52 20.7951 52C19.7885 52 18.8233 51.6002 18.1115 50.8885C17.3998 50.1767 17 49.2115 17 48.2049C17 47.1984 17.3998 46.2331 18.1115 45.5214L30.4736 33.1594C29.574 31.1715 29.3016 28.9566 29.6928 26.81C30.0839 24.6633 31.1199 22.6868 32.6628 21.1439C34.2057 19.601 36.1822 18.565 38.3288 18.1739C40.4755 17.7827 42.6904 18.0551 44.6783 18.9547L37.9516 25.6814L37.9337 25.6992Z" fill="#5433ED"/>
</g>
<defs>
<clipPath id="clip0_4825_49443">
<rect width="52" height="52" fill="white"/>
</clipPath>
</defs>
</svg>
