<svg width="876" height="546" viewBox="0 0 876 546" fill="none" xmlns="http://www.w3.org/2000/svg">
<path d="M-210.597 420.92C-187.35 459.784 -144.536 482.704 -101.122 488.315C50 602.817 228 433.331 410.172 528.783C410.172 528.783 469.931 552.049 500.12 544.489C566.077 528.003 598.105 443.732 661.852 419.447C692.372 407.813 725.908 411.626 758.37 412.19C790.833 412.753 826.084 408.68 849.806 385.457C881.772 354.109 880.553 300.081 866.936 256.472C844.516 184.636 788.002 119.32 716.279 111.565C678.135 107.449 639.866 119.623 601.556 117.739C587.186 117.007 572.971 114.29 559.279 109.658C557.481 108.532 555.725 107.384 553.969 106.192C515.497 78.8974 377.5 -1.41734 341.983 0.0190198C261.395 3.27815 184.076 34.2807 121.98 88.233C76.9339 127.596 40.4839 178.7 -10.9679 208.184C-56.4066 234.202 -109.532 240.983 -157.244 262.04C-174.25 269.535 -190.822 279.089 -203.406 293.235C-233.223 326.77 -233.822 382.077 -210.597 420.92Z" fill="url(#paint0_linear_97_5301)"/>
<defs>
<linearGradient id="paint0_linear_97_5301" x1="324.5" y1="-1.18067" x2="324.5" y2="547.275" gradientUnits="userSpaceOnUse">
<stop stop-color="#2BD4D9"/>
<stop offset="1" stop-color="#5433ED"/>
</linearGradient>
</defs>
</svg>
