<svg width="15" height="16" viewBox="0 0 15 16" fill="none" xmlns="http://www.w3.org/2000/svg">
<path fill-rule="evenodd" clip-rule="evenodd" d="M7.5 0.114258C5.46281 0.114258 5.20781 0.123633 4.40812 0.159258C3.60937 0.196758 3.06469 0.322383 2.5875 0.508008C2.09438 0.700195 1.67625 0.956133 1.25906 1.37332C0.841875 1.78957 0.585938 2.2077 0.39375 2.70176C0.208125 3.17988 0.0815624 3.72363 0.0449999 4.52051C0.00749987 5.32301 0 5.57801 0 7.61426C0 9.65051 0.00937487 9.90645 0.0449999 10.708C0.0824999 11.5049 0.208125 12.0486 0.39375 12.5268C0.585938 13.0199 0.841875 13.4389 1.25906 13.8552C1.67625 14.2724 2.09344 14.5283 2.5875 14.7205C3.06563 14.9061 3.60937 15.0327 4.40812 15.0693C5.20781 15.1068 5.46281 15.1143 7.5 15.1143C9.53719 15.1143 9.79219 15.1049 10.5919 15.0693C11.3906 15.0318 11.9353 14.9061 12.4125 14.7205C12.9056 14.5283 13.3237 14.2724 13.7409 13.8552C14.1581 13.4389 14.4141 13.0208 14.6062 12.5268C14.7919 12.0486 14.9184 11.5049 14.955 10.708C14.9925 9.90645 15 9.65145 15 7.61426C15 5.57707 14.9906 5.32207 14.955 4.52051C14.9175 3.72363 14.7919 3.17988 14.6062 2.70176C14.4141 2.20863 14.1581 1.78957 13.7409 1.37332C13.3237 0.956133 12.9066 0.700195 12.4125 0.508008C11.9344 0.322383 11.3906 0.19582 10.5919 0.159258C9.79219 0.121758 9.53719 0.114258 7.5 0.114258ZM7.5 1.46426C9.5025 1.46426 9.74062 1.47363 10.5309 1.50926C11.2622 1.54301 11.6588 1.66488 11.9231 1.76801C12.2738 1.90395 12.5231 2.06613 12.7856 2.32863C13.0481 2.59113 13.2103 2.84145 13.3463 3.19113C13.4494 3.45551 13.5712 3.85207 13.605 4.58332C13.6406 5.37457 13.6491 5.61176 13.6491 7.61426C13.6491 9.61676 13.6397 9.85488 13.6041 10.6452C13.5712 11.3764 13.4484 11.773 13.3453 12.0374C13.2094 12.3871 13.0472 12.6374 12.7847 12.8999C12.5222 13.1624 12.2728 13.3246 11.9222 13.4605C11.6578 13.5636 11.2613 13.6855 10.53 13.7193C9.73875 13.7568 9.50156 13.7633 7.49906 13.7633C5.49656 13.7633 5.25844 13.7539 4.46812 13.7183C3.73687 13.6846 3.34031 13.5627 3.07594 13.4596C2.72531 13.3236 2.47594 13.1614 2.21344 12.8989C1.95094 12.6364 1.78875 12.3861 1.65281 12.0364C1.54969 11.7721 1.42781 11.3755 1.39406 10.6443C1.35938 9.85488 1.35 9.61676 1.35 7.61426C1.35 5.61176 1.35937 5.37363 1.395 4.58332C1.42781 3.85207 1.55062 3.45551 1.65375 3.19113C1.78969 2.84145 1.95187 2.59113 2.21438 2.32863C2.47688 2.06613 2.72625 1.90395 3.07687 1.76801C3.34125 1.66488 3.73781 1.54301 4.46906 1.50926C5.26031 1.47176 5.4975 1.4652 7.5 1.4652V1.46426ZM7.5 3.76395C9.62813 3.76395 11.3512 5.48895 11.3512 7.6152C11.3512 9.74332 9.62625 11.4664 7.5 11.4664C5.37187 11.4664 3.64875 9.74145 3.64875 7.6152C3.64875 5.48707 5.37375 3.76395 7.5 3.76395ZM7.5 10.1155C8.88094 10.1155 10.0003 8.99613 10.0003 7.6152C10.0003 6.23426 8.88094 5.11488 7.5 5.11488C6.11906 5.11488 4.99969 6.23426 4.99969 7.6152C4.99969 8.99613 6.11906 10.1155 7.5 10.1155ZM12.4031 3.61113C12.4031 4.10801 12 4.51113 11.5031 4.51113C11.0063 4.51113 10.6031 4.10801 10.6031 3.61113C10.6031 3.11426 11.0063 2.71113 11.5031 2.71113C12 2.71113 12.4031 3.11426 12.4031 3.61113Z" fill="#5433ED"/>
</svg>
