<svg width="37" height="37" viewBox="0 0 37 37" fill="none" xmlns="http://www.w3.org/2000/svg">
<path d="M14.7339 14.9011C13.6287 14.9011 12.5484 14.5734 11.6295 13.9594C10.7106 13.3454 9.99439 12.4727 9.57146 11.4517C9.14854 10.4306 9.03788 9.30714 9.25349 8.22322C9.46909 7.1393 10.0013 6.14366 10.7827 5.3622C11.5642 4.58074 12.5598 4.04856 13.6438 3.83296C14.7277 3.61735 15.8512 3.72801 16.8722 4.15093C17.8932 4.57385 18.7659 5.29005 19.3799 6.20895C19.9939 7.12785 20.3216 8.20819 20.3216 9.31334C20.3216 10.7953 19.7329 12.2166 18.685 13.2645C17.6371 14.3124 16.2158 14.9011 14.7339 14.9011ZM14.7339 5.58817C13.9971 5.58817 13.2769 5.80665 12.6643 6.21598C12.0517 6.6253 11.5742 7.20709 11.2923 7.88778C11.0103 8.56846 10.9365 9.31747 11.0803 10.0401C11.224 10.7627 11.5788 11.4265 12.0998 11.9474C12.6208 12.4684 13.2845 12.8232 14.0071 12.9669C14.7297 13.1107 15.4787 13.0369 16.1594 12.7549C16.8401 12.473 17.4219 11.9955 17.8312 11.3829C18.2406 10.7703 18.459 10.0501 18.459 9.31334C18.459 8.32536 18.0666 7.37785 17.368 6.67925C16.6694 5.98064 15.7218 5.58817 14.7339 5.58817Z" fill="#2BD4D9"/>
<path d="M14.7335 27.939C12.6683 27.9376 10.6291 27.4783 8.76272 26.5943C6.89633 25.7102 5.24917 24.4233 3.93984 22.8262L3.45557 22.2302L3.93984 21.6434C5.25027 20.0484 6.89792 18.7637 8.76425 17.8816C10.6306 16.9995 12.6692 16.542 14.7335 16.542C16.7978 16.542 18.8364 16.9995 20.7028 17.8816C22.5691 18.7637 24.2167 20.0484 25.5272 21.6434L26.0114 22.2302L25.5272 22.8262C24.2178 24.4233 22.5707 25.7102 20.7043 26.5943C18.8379 27.4783 16.7987 27.9376 14.7335 27.939ZM5.89555 22.2395C7.02822 23.452 8.39805 24.4188 9.92 25.0798C11.442 25.7408 13.0835 26.0819 14.7428 26.0819C16.4021 26.0819 18.0437 25.7408 19.5656 25.0798C21.0876 24.4188 22.4574 23.452 23.5901 22.2395C22.4574 21.0269 21.0876 20.0601 19.5656 19.3991C18.0437 18.7382 16.4021 18.3971 14.7428 18.3971C13.0835 18.3971 11.442 18.7382 9.92 19.3991C8.39805 20.0601 7.02822 21.0269 5.89555 22.2395Z" fill="#2BD4D9"/>
<path d="M14.7338 27.9388C11.5607 27.9409 8.48135 26.8626 6.00268 24.8814C3.524 22.9003 1.79367 20.1342 1.09649 17.0386C0.399307 13.943 0.776814 10.7023 2.16688 7.84982C3.55694 4.99734 5.87672 2.70312 8.74442 1.34473C11.6121 -0.0136474 14.8568 -0.355235 17.9445 0.376193C21.0322 1.10762 23.7789 2.86848 25.7325 5.36895C27.6861 7.86942 28.7302 10.9605 28.6929 14.1334C28.6557 17.3064 27.5393 20.3721 25.5275 22.826C24.2182 24.423 22.571 25.7099 20.7046 26.594C18.8382 27.4781 16.799 27.9374 14.7338 27.9388ZM14.7338 1.86259C12.3393 1.86259 9.99861 2.57264 8.00765 3.90295C6.0167 5.23327 4.46495 7.12409 3.54861 9.33631C2.63228 11.5485 2.39252 13.9828 2.85967 16.3313C3.32681 18.6798 4.47987 20.837 6.17303 22.5302C7.8662 24.2233 10.0234 25.3764 12.3719 25.8435C14.7204 26.3107 17.1547 26.0709 19.3669 25.1546C21.5791 24.2383 23.4699 22.6865 24.8003 20.6956C26.1306 18.7046 26.8406 16.3639 26.8406 13.9694C26.8406 10.7585 25.5651 7.67905 23.2946 5.40859C21.0242 3.13813 17.9447 1.86259 14.7338 1.86259Z" fill="#2BD4D9"/>
<path d="M4.65735 22.2392C4.65735 22.2392 14.0355 32.7163 23.5812 23.2823L24.8105 22.2392C24.8105 22.2392 16.8386 13.9694 8.74572 18.9332L4.65735 22.2392Z" fill="#2BD4D9"/>
<path d="M14.7336 13.9692C17.3053 13.9692 19.3901 11.8844 19.3901 9.31271C19.3901 6.74102 17.3053 4.65625 14.7336 4.65625C12.1619 4.65625 10.0771 6.74102 10.0771 9.31271C10.0771 11.8844 12.1619 13.9692 14.7336 13.9692Z" fill="#2BD4D9"/>
<path d="M22.6635 15.5651L18.4612 22.4094C18.3786 22.5759 18.211 22.6729 18.0367 22.6729C17.966 22.6729 17.8942 22.657 17.8268 22.6233C17.5826 22.5023 17.3235 22.4449 17.0682 22.4449C16.4379 22.4449 15.8321 22.7943 15.5331 23.3972L15.2803 23.9071C14.8606 24.7543 15.2074 25.7812 16.0541 26.2009L31.648 33.9275C31.8923 34.0485 32.1513 34.1059 32.4067 34.1059C33.0369 34.1059 33.6428 33.7565 33.9418 33.1537L34.1946 32.6437C34.6142 31.7966 34.2675 30.7696 33.4207 30.3499C33.1865 30.2337 33.0906 29.9499 33.2064 29.7156L36.1068 22.2262C37.5138 18.5931 35.9177 14.4866 32.427 12.7569C31.3556 12.2262 30.2139 11.9727 29.0874 11.9727C26.5434 11.9727 24.0765 13.2639 22.6635 15.5651Z" fill="#5433ED"/>
<path d="M25.5166 36.0395C26.6246 36.5346 27.659 36.0583 28.2056 35.3937L24.4011 33.5088C24.1169 34.4925 24.5665 35.5687 25.5166 36.0395Z" fill="#5433ED"/>
<path d="M35.4047 11.2817C35.4199 11.2544 35.4355 11.227 35.4495 11.1988C35.944 10.2007 35.5358 8.9909 34.538 8.49646C33.3633 8.06789 32.3015 8.35693 31.8356 9.40799C31.8215 9.43685 31.8104 9.46609 31.7979 9.49496C32.4492 9.67149 33.0839 9.91057 33.6886 10.2103C34.2997 10.5131 34.8729 10.8732 35.4047 11.2817Z" fill="#5433ED"/>
</svg>
