<svg width="810" height="493" viewBox="0 0 810 493" fill="none" xmlns="http://www.w3.org/2000/svg">
<path d="M12.0458 379.172C29.117 414.184 60.5583 434.831 92.4396 439.886C124.321 444.921 156.658 435.944 186.9 422.048C219.828 406.904 251.771 385.691 286.596 381.456C330.268 376.147 373.484 398.454 410.343 429.055C429.493 444.94 447.55 463.187 467.914 476.341C488.278 489.475 511.798 497.301 533.968 490.49C582.405 475.639 605.925 399.722 652.738 377.845C675.151 367.365 699.779 370.8 723.617 371.307C747.456 371.815 773.344 368.146 790.764 347.225C814.239 318.986 813.344 270.313 803.344 231.028C786.879 166.314 745.378 107.474 692.707 100.487C664.695 96.7795 636.592 107.747 608.459 106.049C597.906 105.39 587.467 102.943 577.412 98.7701C576.092 97.7553 574.802 96.7209 573.513 95.6476C544.393 71.4481 521.753 34.8561 490.388 15.8867C489.811 15.5355 489.234 15.2037 488.643 14.8719C486.196 12.8556 483.663 11.0182 481.055 9.36848C465.775 -0.291808 417.839 0.000956138 417.839 0.000956138C358.658 2.93696 301.878 30.8658 256.277 79.469C223.197 114.929 196.43 160.967 158.646 187.528C125.277 210.966 86.2638 217.075 51.2261 236.044C38.7376 242.796 26.5678 251.403 17.3266 264.146C-4.57011 294.357 -5.01015 344.181 12.0458 379.172Z" fill="url(#paint0_linear_4825_48139)"/>
<defs>
<linearGradient id="paint0_linear_4825_48139" x1="405" y1="-1.07982" x2="405" y2="493" gradientUnits="userSpaceOnUse">
<stop stop-color="#2BD4D9"/>
<stop offset="1" stop-color="#5433ED"/>
</linearGradient>
</defs>
</svg>
