<svg width="199" height="74" viewBox="0 0 199 74" fill="none" xmlns="http://www.w3.org/2000/svg">
<path d="M19.6007 63.5649C19.8772 63.4213 20.1859 63.3505 20.4973 63.359C20.8088 63.3676 21.1131 63.4552 21.3814 63.6137C26.553 66.6168 32.4282 68.1959 38.4085 68.1902C44.2294 68.1785 49.9507 66.6815 55.0315 63.841C60.1124 61.0005 64.3848 56.9104 67.4435 51.9578C67.5032 51.8588 67.5419 51.7488 67.5586 51.6344C67.5752 51.52 67.5693 51.4034 67.5403 51.2915C67.5114 51.1795 67.4603 51.0745 67.3902 50.9825C67.3201 50.8906 67.2322 50.8135 67.132 50.7558L62.4902 48.0624C60.7354 47.0266 58.7029 46.5593 56.6718 46.7247C54.6408 46.8901 52.7108 47.6802 51.1467 48.9863C48.0617 51.6308 44.2306 53.2505 40.1842 53.6212C36.1378 53.9919 32.0764 53.0952 28.5622 51.0552C25.048 49.0153 22.2552 45.9331 20.5703 42.2355C18.8854 38.538 18.3923 34.408 19.1587 30.4176C19.8083 27.0356 21.338 23.8847 23.5935 21.2824C25.849 18.6801 28.7503 16.7184 32.0057 15.595C35.2611 14.4717 38.755 14.2264 42.1354 14.8838C45.5158 15.5413 48.6634 17.0783 51.2604 19.34C52.7728 20.6203 54.6467 21.3974 56.6213 21.5631C58.5959 21.7288 60.573 21.2749 62.2776 20.2646L67.1215 17.4483C67.2213 17.3901 67.3086 17.3126 67.3783 17.2204C67.4479 17.1282 67.4983 17.023 67.527 16.9111C67.5557 16.7991 67.562 16.6826 67.5452 16.5682C67.5285 16.4538 67.4891 16.344 67.4295 16.2449C65.0805 12.4186 61.9986 9.09436 58.3606 6.46323C54.7226 3.8321 50.6 1.94599 46.2306 0.913353C41.8612 -0.119285 37.3312 -0.278089 32.9002 0.446065C28.4692 1.17022 24.2251 2.76306 20.4117 5.133C16.5984 7.50293 13.291 10.6032 10.6798 14.2557C8.06873 17.9081 6.20546 22.0406 5.19684 26.4156C4.18821 30.7906 4.05406 35.3219 4.80254 39.7488C5.55101 44.1758 7.16714 48.4111 9.55798 52.2114C9.7244 52.4806 9.81699 52.7889 9.8267 53.1053C9.83641 53.4217 9.763 53.735 9.61341 54.014L0.102517 72.0152C0.0140885 72.1826 -0.0183011 72.3739 0.00990552 72.5611C0.0381121 72.7483 0.125147 72.9215 0.258974 73.0554C0.3928 73.1893 0.566416 73.2769 0.753602 73.3052C0.940788 73.3335 1.132 73.3011 1.29945 73.2128L19.6007 63.5649Z" fill="#5433ED"/>
<path d="M51 26.7617H48.2511C48.2028 26.7618 48.1563 26.781 48.122 26.8152C48.0878 26.8494 48.0688 26.8958 48.0687 26.9442V40.5457C48.0688 40.594 48.0878 40.6403 48.122 40.6744C48.1563 40.7085 48.2028 40.7275 48.2511 40.7274H51C51.0239 40.7275 51.0474 40.7228 51.0695 40.7137C51.0915 40.7046 51.1115 40.6912 51.1284 40.6743C51.1453 40.6574 51.1586 40.6373 51.1677 40.6153C51.1768 40.5932 51.1818 40.5696 51.1817 40.5457V26.9442C51.1818 26.8959 51.1625 26.8495 51.1284 26.8153C51.0943 26.7811 51.0483 26.7618 51 26.7617Z" fill="#5433ED"/>
<path d="M143.458 38.14C142.607 38.1402 141.775 37.8879 141.067 37.4152C140.359 36.9425 139.808 36.2706 139.482 35.4844C139.156 34.6982 139.071 33.833 139.237 32.9983C139.403 32.1636 139.813 31.3969 140.415 30.7951C141.016 30.1932 141.783 29.7834 142.618 29.6173C143.452 29.4512 144.317 29.5364 145.103 29.862C145.89 30.1877 146.562 30.7392 147.035 31.4468C147.508 32.1543 147.76 32.9862 147.76 33.8373C147.758 34.9779 147.305 36.0715 146.498 36.8781C145.692 37.6848 144.599 38.1386 143.458 38.14ZM150.444 26.7621H148.806C148.529 26.7621 148.263 26.8724 148.066 27.0687C147.87 27.265 147.76 27.5313 147.76 27.8089C146.703 27.051 145.465 26.585 144.171 26.4575C142.877 26.3301 141.572 26.5457 140.387 27.0829C139.203 27.62 138.181 28.4596 137.424 29.5172C136.668 30.5748 136.203 31.813 136.077 33.1074C135.996 34.5044 136.305 35.8963 136.969 37.128C137.633 38.3597 138.626 39.383 139.837 40.0837C141.048 40.7844 142.431 41.1351 143.829 41.0968C145.228 41.0584 146.589 40.6325 147.76 39.8664V40.5568C147.76 40.5793 147.764 40.6017 147.773 40.6224C147.782 40.6432 147.794 40.6621 147.81 40.678C147.826 40.6939 147.845 40.7064 147.866 40.715C147.886 40.7236 147.909 40.7279 147.932 40.7278H150.444C150.468 40.7279 150.492 40.7232 150.514 40.714C150.537 40.7048 150.557 40.6912 150.575 40.6741C150.592 40.657 150.605 40.6367 150.614 40.6144C150.623 40.592 150.628 40.5681 150.628 40.5439V26.946C150.628 26.9219 150.623 26.8979 150.614 26.8756C150.605 26.8533 150.591 26.833 150.574 26.8159C150.557 26.7989 150.536 26.7853 150.514 26.7761C150.492 26.7668 150.468 26.7621 150.444 26.7621Z" fill="#5433ED"/>
<path d="M61.4237 26.4143C60.5293 26.3827 59.638 26.5318 58.8025 26.8526C57.967 27.1735 57.205 27.6594 56.5616 28.2815C55.9182 28.9036 55.4069 29.6491 55.0581 30.4733C54.7093 31.2975 54.5298 32.1836 54.5312 33.0785V40.5546C54.5312 40.5776 54.5357 40.6004 54.5445 40.6217C54.5533 40.643 54.5661 40.6623 54.5824 40.6786C54.5987 40.6949 54.618 40.7078 54.6392 40.7166C54.6605 40.7254 54.6836 40.7299 54.7066 40.7299H57.4688C57.5154 40.73 57.5607 40.7116 57.5937 40.6787C57.6267 40.6458 57.6448 40.6012 57.6449 40.5546V33.1159C57.6455 32.5901 57.7614 32.0708 57.9845 31.5947C58.2075 31.1185 58.5322 30.6971 58.9358 30.3601C59.3394 30.023 59.8125 29.7786 60.3208 29.6441C60.8291 29.5095 61.3609 29.488 61.8784 29.5812C62.7554 29.7546 63.5438 30.23 64.1066 30.9246C64.6695 31.6193 64.9713 32.4892 64.9591 33.3832V40.5546C64.9592 40.6012 64.9773 40.6458 65.0103 40.6787C65.0433 40.7116 65.0879 40.73 65.1345 40.7299H67.8974C67.9204 40.7299 67.9428 40.7254 67.964 40.7166C67.9853 40.7078 68.0046 40.6949 68.0209 40.6786C68.0371 40.6623 68.0507 40.643 68.0595 40.6217C68.0683 40.6004 68.0728 40.5776 68.0728 40.5546V33.0038C68.0613 31.2495 67.355 29.5712 66.109 28.3362C64.863 27.1012 63.1781 26.4101 61.4237 26.4143Z" fill="#5433ED"/>
<path d="M93.966 26.413C92.6225 26.3784 91.3016 26.7628 90.1865 27.513V22.0895C90.1865 22.0653 90.1817 22.0415 90.1725 22.0192C90.1632 21.9969 90.1496 21.9767 90.1325 21.9597C90.1154 21.9426 90.0951 21.9292 90.0728 21.92C90.0505 21.9108 90.0268 21.9062 90.0027 21.9063H87.2573C87.2086 21.9062 87.162 21.9254 87.1275 21.9598C87.093 21.9941 87.0736 22.0408 87.0735 22.0895V40.5447C87.0735 40.5689 87.0783 40.5928 87.0875 40.6151C87.0968 40.6374 87.1104 40.6577 87.1275 40.6748C87.1446 40.6919 87.1648 40.7054 87.1871 40.7147C87.2095 40.7239 87.2331 40.7286 87.2573 40.7286H90.0027C90.0268 40.7287 90.0512 40.724 90.0735 40.7148C90.0959 40.7056 90.1161 40.692 90.1332 40.6749C90.1503 40.6578 90.1632 40.6375 90.1725 40.6152C90.1817 40.5928 90.1866 40.5689 90.1865 40.5447V33.1146C90.1872 32.5888 90.3036 32.0694 90.5268 31.5932C90.7499 31.1171 91.0745 30.6956 91.4781 30.3586C91.8818 30.0216 92.3547 29.7772 92.8631 29.6426C93.3715 29.5081 93.9031 29.4867 94.4206 29.5799C95.2977 29.7533 96.0861 30.2287 96.6489 30.9233C97.2118 31.618 97.5135 32.4879 97.5014 33.3819V40.5447C97.5014 40.5689 97.5061 40.5929 97.5154 40.6153C97.5247 40.6376 97.5382 40.6579 97.5554 40.675C97.5725 40.6921 97.5926 40.7056 97.615 40.7148C97.6374 40.724 97.6617 40.7287 97.6859 40.7286H100.431C100.455 40.7287 100.479 40.724 100.501 40.7148C100.524 40.7056 100.544 40.692 100.561 40.6749C100.578 40.6578 100.592 40.6375 100.601 40.6152C100.61 40.5928 100.615 40.5689 100.615 40.5447V33.0025C100.604 31.2483 99.8973 29.57 98.6513 28.335C97.4053 27.1001 95.7203 26.409 93.966 26.413Z" fill="#5433ED"/>
<path d="M126.262 26.413C124.919 26.3784 123.598 26.7628 122.483 27.513V22.0895C122.483 22.0653 122.478 22.0415 122.469 22.0192C122.459 21.9969 122.446 21.9767 122.429 21.9597C122.411 21.9426 122.391 21.9292 122.369 21.92C122.347 21.9108 122.323 21.9062 122.299 21.9063H119.553C119.529 21.9062 119.506 21.9108 119.483 21.92C119.461 21.9292 119.441 21.9426 119.424 21.9597C119.407 21.9767 119.393 21.9969 119.384 22.0192C119.374 22.0415 119.37 22.0653 119.37 22.0895V40.5447C119.369 40.5689 119.374 40.5928 119.383 40.6152C119.392 40.6375 119.406 40.6578 119.423 40.6749C119.44 40.692 119.46 40.7056 119.483 40.7148C119.505 40.724 119.529 40.7287 119.553 40.7286H122.299C122.323 40.7287 122.347 40.724 122.369 40.7148C122.391 40.7056 122.411 40.692 122.429 40.6749C122.446 40.6578 122.459 40.6375 122.469 40.6152C122.478 40.5928 122.483 40.5689 122.483 40.5447V33.1146C122.483 32.5888 122.599 32.0694 122.822 31.5932C123.045 31.1171 123.37 30.6956 123.774 30.3586C124.177 30.0216 124.65 29.7772 125.158 29.6426C125.667 29.5081 126.198 29.4867 126.716 29.5799C127.593 29.7533 128.381 30.2287 128.944 30.9233C129.507 31.618 129.809 32.4879 129.797 33.3819V40.5447C129.797 40.5689 129.801 40.5929 129.811 40.6153C129.82 40.6376 129.834 40.6579 129.851 40.675C129.868 40.6921 129.889 40.7056 129.911 40.7148C129.934 40.724 129.957 40.7287 129.981 40.7286H132.727C132.751 40.7286 132.774 40.7239 132.797 40.7147C132.819 40.7054 132.839 40.6919 132.856 40.6748C132.874 40.6577 132.887 40.6374 132.896 40.6151C132.906 40.5928 132.91 40.5689 132.91 40.5447V33.0025C132.899 31.2483 132.193 29.57 130.947 28.335C129.701 27.1001 128.016 26.409 126.262 26.413Z" fill="#5433ED"/>
<path d="M84.2482 37.3225L83.2294 36.7313C82.8508 36.5129 82.4138 36.417 81.9785 36.4569C81.5432 36.4968 81.1311 36.6704 80.7984 36.954C80.1341 37.5183 79.3114 37.8625 78.4431 37.9392C77.5749 38.0158 76.7039 37.8211 75.951 37.3818C75.1982 36.9426 74.6004 36.2805 74.2398 35.487C73.8793 34.6934 73.7738 33.8075 73.9381 32.9516C74.0776 32.2246 74.4061 31.5472 74.8909 30.9878C75.3757 30.4284 75.9998 30.0067 76.6996 29.7653C77.3994 29.5239 78.1501 29.4713 78.8767 29.6128C79.6033 29.7544 80.2803 30.085 80.8384 30.5714C81.1628 30.8463 81.5645 31.0132 81.9883 31.049C82.412 31.0848 82.8368 30.9877 83.2028 30.7711L84.246 30.164C84.2675 30.1515 84.2865 30.1348 84.3015 30.115C84.3164 30.0952 84.3276 30.0726 84.3337 30.0485C84.3399 30.0245 84.3409 29.9994 84.3373 29.9748C84.3336 29.9503 84.3255 29.9267 84.3127 29.9054C83.4759 28.5383 82.2151 27.482 80.7226 26.8973C79.2301 26.3126 77.5878 26.2316 76.045 26.6665C74.5023 27.1014 73.1437 28.0285 72.1764 29.3066C71.2091 30.5847 70.6858 32.1439 70.6862 33.7467C70.6867 35.3496 71.2105 36.9085 72.1785 38.1861C73.1466 39.4636 74.5055 40.3899 76.0485 40.824C77.5916 41.258 79.234 41.1761 80.7261 40.5906C82.2183 40.005 83.4788 38.9481 84.3148 37.5805C84.3276 37.5593 84.3357 37.5357 84.3394 37.5112C84.343 37.4866 84.342 37.4616 84.3359 37.4376C84.3297 37.4136 84.3185 37.3911 84.3036 37.3713C84.2886 37.3515 84.2696 37.335 84.2482 37.3225Z" fill="#5433ED"/>
<path d="M160.322 26.3967C157.009 26.4707 154.302 28.3501 154.302 32.8555C154.302 35.8743 154.303 39.6821 154.303 40.5636C154.303 40.5872 154.308 40.6105 154.317 40.6323C154.326 40.654 154.339 40.6738 154.356 40.6903C154.373 40.7069 154.393 40.72 154.415 40.7288C154.436 40.7376 154.46 40.742 154.484 40.7418H157.232C157.281 40.7417 157.328 40.7223 157.363 40.6878C157.397 40.6533 157.416 40.6066 157.416 40.5578V33.1414C157.416 30.4121 158.744 29.5356 160.422 29.509C160.799 29.5028 161.175 29.547 161.541 29.6404C161.895 29.7378 162.271 29.7146 162.611 29.5744C162.95 29.4341 163.233 29.1849 163.415 28.866L164.113 27.6073C164.143 27.5548 164.15 27.4929 164.134 27.4351C164.118 27.3772 164.079 27.3281 164.027 27.2983C162.893 26.6763 161.615 26.3653 160.322 26.3967Z" fill="#5433ED"/>
<path d="M110.696 32.0532C107.318 31.7364 106.966 31.3024 106.966 30.6264C106.966 30.3376 107.404 30.0832 107.593 29.987C108.897 29.3231 111.208 29.3001 113.146 30.1385C113.369 30.2334 113.61 30.2816 113.852 30.2801C114.971 30.2513 115.559 29.0336 115.817 28.2684C115.833 28.2171 115.832 28.1617 115.814 28.1109C115.796 28.0602 115.761 28.017 115.715 27.9883C112.613 26.0312 108.514 26.024 106.18 27.2123C105.508 27.502 104.932 27.9769 104.52 28.5814C104.108 29.1859 103.877 29.8951 103.852 30.6264C103.852 34.4334 107.64 34.6848 110.423 34.9463C113.695 35.2158 113.696 36.3171 113.696 36.6929C113.696 37.4616 112.418 38.0414 110.724 38.0414C109.373 38.0392 108.04 37.7343 106.821 37.1491C106.548 37.0166 106.246 36.9536 105.942 36.9659C105.907 36.9659 105.875 36.973 105.841 36.9759C105.779 36.9817 105.717 36.9889 105.657 37.0003C104.762 37.2044 104.265 38.2878 104.052 38.8963C104.034 38.9461 104.033 39.0005 104.049 39.0511C104.065 39.1016 104.096 39.1455 104.14 39.1758C106.1 40.4469 108.389 41.1158 110.724 41.0998C114.307 41.0998 116.809 39.3202 116.809 36.6929C116.809 34.7581 115.745 32.4684 110.696 32.0532Z" fill="#5433ED"/>
<path d="M45.3592 37.3214L44.3405 36.7301C43.9618 36.5117 43.5248 36.4159 43.0895 36.4557C42.6542 36.4956 42.2421 36.6692 41.9094 36.9528C41.2451 37.5171 40.4217 37.8613 39.5534 37.938C38.6852 38.0146 37.8149 37.8199 37.0621 37.3806C36.3092 36.9414 35.7114 36.2793 35.3508 35.4858C34.9903 34.6923 34.8848 33.8064 35.0492 32.9504C35.1887 32.2234 35.5171 31.5461 36.0019 30.9868C36.4868 30.4274 37.1109 30.0058 37.8107 29.7644C38.5104 29.5231 39.2612 29.4704 39.9877 29.6119C40.7143 29.7534 41.3906 30.0839 41.9487 30.5702C42.2732 30.8451 42.6756 31.012 43.0993 31.0478C43.5231 31.0836 43.9471 30.9865 44.3131 30.7699L45.3571 30.1628C45.3785 30.1503 45.3975 30.1336 45.4125 30.1138C45.4275 30.094 45.4379 30.0714 45.4441 30.0473C45.4502 30.0233 45.4519 29.9982 45.4483 29.9736C45.4447 29.9491 45.4358 29.9255 45.423 29.9042C44.5861 28.5373 43.3253 27.4813 41.8329 26.8969C40.3405 26.3125 38.6986 26.2317 37.1561 26.6667C35.6135 27.1018 34.2552 28.0289 33.2881 29.307C32.321 30.5851 31.798 32.1441 31.7986 33.7468C31.7992 35.3496 32.3236 36.9082 33.2917 38.1856C34.2597 39.4629 35.6181 40.389 37.161 40.8229C38.7039 41.2568 40.3466 41.1748 41.8385 40.5892C43.3305 40.0037 44.5899 38.9468 45.4258 37.5793C45.4385 37.558 45.4469 37.5344 45.4504 37.5099C45.4539 37.4853 45.4524 37.4604 45.4462 37.4364C45.44 37.4124 45.4296 37.3899 45.4146 37.3701C45.3996 37.3504 45.3806 37.3338 45.3592 37.3214Z" fill="#5433ED"/>
<path d="M168.734 32.3579C169.011 31.5353 169.538 30.8204 170.243 30.314C170.948 29.8076 171.794 29.5351 172.662 29.5351C173.53 29.5351 174.376 29.8076 175.081 30.314C175.785 30.8204 176.313 31.5353 176.59 32.3579H168.734ZM165.34 34.1525C165.413 35.6415 165.94 37.0726 166.85 38.2533C167.76 39.4341 169.01 40.308 170.431 40.7577C171.852 41.2073 173.378 41.2111 174.801 40.7686C176.225 40.326 177.479 39.4583 178.395 38.2821C178.429 38.2364 178.445 38.1794 178.438 38.1226C178.432 38.0658 178.405 38.0134 178.361 37.9761C176.843 36.7095 175.581 36.9257 174.739 37.3977C174.053 37.7316 173.302 37.9064 172.539 37.9092C171.924 37.892 171.319 37.74 170.769 37.4639C170.218 37.1879 169.735 36.7945 169.353 36.3114L169.351 36.3122L169.318 36.2655C169.143 36.0401 168.992 35.7975 168.867 35.5413C168.834 35.4797 168.805 35.4164 168.779 35.3516L168.763 35.3171H168.765C168.74 35.2586 168.725 35.1965 168.72 35.1332H178.706C179.032 35.1359 179.346 35.0153 179.586 34.7956C179.826 34.5759 179.974 34.2735 180 33.9492C180.02 32.1105 179.361 30.3291 178.148 28.947C176.935 27.5649 175.255 26.6795 173.429 26.4609C171.556 26.267 169.681 26.8003 168.19 27.9504C166.7 29.1006 165.708 30.7796 165.421 32.6402C165.323 33.138 165.296 33.6471 165.34 34.1525Z" fill="#5433ED"/>
<path d="M73.124 58H78.4194C78.6245 58 78.7832 57.9341 78.8955 57.8022C79.0127 57.6704 79.0713 57.5166 79.0713 57.3408C79.0713 57.165 79.0127 57.0112 78.8955 56.8794C78.7832 56.7476 78.6245 56.6816 78.4194 56.6816H73.9443V48.3174C73.9443 48.0635 73.8638 47.8657 73.7026 47.7241C73.5415 47.5825 73.3486 47.5117 73.124 47.5117C72.8945 47.5117 72.6968 47.5825 72.5308 47.7241C72.3647 47.8657 72.2817 48.0635 72.2817 48.3174V57.1724C72.2817 57.4019 72.3647 57.5972 72.5308 57.7583C72.7017 57.9194 72.8994 58 73.124 58ZM83.4585 58.1172C84.5278 58.1172 85.4409 57.7827 86.1978 57.1138C86.2759 57.0503 86.332 56.9795 86.3662 56.9014C86.4053 56.8232 86.4248 56.7427 86.4248 56.6597C86.4248 56.5718 86.4028 56.4888 86.3589 56.4106C86.3198 56.3325 86.2637 56.2715 86.1904 56.2275C86.1221 56.1787 86.0464 56.1543 85.9634 56.1543C85.9146 56.1543 85.8657 56.1641 85.8169 56.1836C85.7729 56.1982 85.7266 56.2227 85.6777 56.2568C85.3311 56.5107 84.9917 56.7134 84.6597 56.8647C84.3276 57.0112 83.9614 57.0845 83.561 57.0845C82.8872 57.0747 82.3428 56.8721 81.9277 56.4766C81.5127 56.0811 81.2954 55.478 81.2759 54.6675H86.1831C86.3394 54.6675 86.4565 54.6162 86.5347 54.5137C86.6128 54.4111 86.6519 54.2793 86.6519 54.1182C86.6421 53.6299 86.5688 53.1807 86.4321 52.7705C86.3003 52.3555 86.105 51.9819 85.8462 51.6499C85.5923 51.3179 85.248 51.0566 84.8135 50.8662C84.3838 50.6758 83.8882 50.5806 83.3267 50.5806C82.7749 50.5806 82.272 50.6831 81.8179 50.8882C81.3687 51.0884 80.9976 51.3618 80.7046 51.7085C80.4116 52.0503 80.1846 52.4434 80.0234 52.8877C79.8672 53.332 79.7891 53.8032 79.7891 54.3013C79.7891 55.4731 80.1284 56.4009 80.8071 57.0845C81.4907 57.7632 82.3745 58.1074 83.4585 58.1172ZM81.2905 53.7739C81.3149 53.4956 81.3735 53.2295 81.4663 52.9756C81.564 52.7217 81.6958 52.4897 81.8618 52.2798C82.0327 52.0649 82.25 51.8965 82.5137 51.7744C82.7773 51.6475 83.0703 51.584 83.3926 51.584C84.0176 51.584 84.4937 51.7915 84.8208 52.2065C85.1479 52.6167 85.3335 53.1392 85.3774 53.7739H81.2905ZM90.3433 58.1172C91.3687 58.1172 92.0986 57.6704 92.5332 56.7769V57.3188C92.5332 57.4653 92.5674 57.5923 92.6357 57.6997C92.709 57.8022 92.7969 57.8804 92.8994 57.9341C93.0068 57.9829 93.124 58.0073 93.251 58.0073C93.4463 58.0073 93.6172 57.9463 93.7637 57.8242C93.9102 57.6973 93.9834 57.5239 93.9834 57.3042V53.1733C93.9834 52.2847 93.7246 51.6304 93.207 51.2104C92.6895 50.7905 91.9814 50.5806 91.083 50.5806C90.043 50.5806 89.1445 50.7856 88.3877 51.1958C88.3047 51.2397 88.2437 51.2959 88.2046 51.3643C88.1655 51.4277 88.146 51.501 88.146 51.584C88.146 51.6279 88.1509 51.6719 88.1606 51.7158C88.1753 51.7598 88.1924 51.8037 88.2119 51.8477C88.2363 51.8867 88.2632 51.9258 88.2925 51.9648C88.3267 51.999 88.3633 52.0308 88.4023 52.0601C88.4414 52.0845 88.4829 52.104 88.5269 52.1187C88.5708 52.1333 88.6172 52.1406 88.666 52.1406C88.7295 52.1406 88.7905 52.1284 88.8491 52.104C89.103 51.9966 89.3057 51.9136 89.457 51.855C89.6133 51.7964 89.8428 51.7354 90.1455 51.6719C90.4482 51.6035 90.7437 51.5693 91.0317 51.5693C92.0181 51.5693 92.5112 52.0625 92.5112 53.0488V53.7666C91.9839 53.7666 91.5371 53.7739 91.1709 53.7886C90.8096 53.7983 90.4482 53.8228 90.0869 53.8618C89.7305 53.896 89.4375 53.9473 89.208 54.0156C88.9834 54.084 88.771 54.1743 88.5708 54.2866C88.3706 54.394 88.2168 54.5283 88.1094 54.6895C88.002 54.8457 87.9165 55.0337 87.853 55.2534C87.7944 55.4683 87.7651 55.7197 87.7651 56.0078C87.7651 56.6816 88.0044 57.2017 88.4829 57.5679C88.9614 57.9341 89.5815 58.1172 90.3433 58.1172ZM90.4897 57.1504C90.0845 57.1504 89.7622 57.0527 89.5229 56.8574C89.2837 56.6621 89.1641 56.3594 89.1641 55.9492C89.1641 55.7539 89.1836 55.5879 89.2227 55.4512C89.2617 55.3096 89.335 55.1875 89.4424 55.085C89.5547 54.9824 89.6865 54.9019 89.8379 54.8433C89.9893 54.7847 90.1968 54.7383 90.4604 54.7041C90.729 54.665 91.0195 54.6406 91.332 54.6309C91.6445 54.6162 92.0352 54.6089 92.5039 54.6089V54.814C92.5039 55.4927 92.3013 56.0518 91.896 56.4912C91.4907 56.9307 91.022 57.1504 90.4897 57.1504ZM96.8032 58C97.0034 58 97.1792 57.939 97.3306 57.8169C97.4819 57.6948 97.5576 57.5239 97.5576 57.3042V53.7227C97.5576 53.1025 97.7407 52.6411 98.1069 52.3384C98.478 52.0356 98.9883 51.8843 99.6377 51.8843C99.7988 51.8843 99.9233 51.8257 100.011 51.7085C100.099 51.5913 100.143 51.4521 100.143 51.291C100.143 51.1152 100.094 50.9639 99.9966 50.8369C99.8989 50.71 99.7622 50.6465 99.5864 50.6465C99.0933 50.6465 98.6587 50.8003 98.2827 51.1079C97.9116 51.4155 97.665 51.7964 97.543 52.2505L97.5576 51.3496C97.5576 51.2666 97.543 51.1909 97.5137 51.1226C97.4893 51.0493 97.4526 50.9883 97.4038 50.9395C97.3599 50.8906 97.3062 50.8491 97.2427 50.8149C97.1841 50.7759 97.1182 50.749 97.0449 50.7344C96.9766 50.7148 96.9033 50.7051 96.8252 50.7051C96.625 50.7051 96.4492 50.7661 96.2979 50.8882C96.1514 51.0054 96.0781 51.1714 96.0781 51.3862V57.3042C96.0781 57.5288 96.1489 57.7021 96.2905 57.8242C96.4321 57.9414 96.603 58 96.8032 58ZM102.23 58C102.431 58 102.604 57.939 102.75 57.8169C102.897 57.6899 102.97 57.5166 102.97 57.2969V53.8179C102.99 53.1343 103.19 52.5923 103.571 52.1919C103.952 51.7866 104.413 51.584 104.955 51.584C105.438 51.584 105.822 51.7378 106.105 52.0454C106.388 52.353 106.53 52.7998 106.53 53.3857V57.2969C106.53 57.5166 106.601 57.6899 106.742 57.8169C106.889 57.939 107.062 58 107.262 58C107.462 58 107.636 57.939 107.782 57.8169C107.934 57.6899 108.009 57.5166 108.009 57.2969V53.4004C108.009 52.9219 107.941 52.4995 107.804 52.1333C107.667 51.7622 107.475 51.4668 107.226 51.2471C106.981 51.0225 106.701 50.8564 106.383 50.749C106.071 50.6367 105.727 50.5806 105.351 50.5806C104.794 50.5806 104.306 50.6929 103.886 50.9175C103.471 51.1421 103.166 51.4668 102.97 51.8916V51.3716C102.97 51.1616 102.897 50.998 102.75 50.8809C102.609 50.7637 102.438 50.7051 102.238 50.7051C102.038 50.7051 101.864 50.7661 101.718 50.8882C101.571 51.0054 101.498 51.1738 101.498 51.3936V57.2969C101.498 57.5166 101.569 57.6899 101.71 57.8169C101.857 57.939 102.03 58 102.23 58ZM110.851 58C111.051 58 111.225 57.9341 111.371 57.8022C111.522 57.6704 111.598 57.4897 111.598 57.2603V51.4375C111.598 51.208 111.525 51.0273 111.378 50.8955C111.232 50.7637 111.061 50.6978 110.866 50.6978C110.666 50.6978 110.49 50.7637 110.338 50.8955C110.192 51.0273 110.119 51.208 110.119 51.4375V57.2603C110.119 57.4995 110.189 57.6826 110.331 57.8096C110.473 57.9365 110.646 58 110.851 58ZM110.858 49.0938C111.132 49.0938 111.352 49.0156 111.518 48.8594C111.688 48.6982 111.774 48.4883 111.774 48.2295C111.774 47.9707 111.691 47.7607 111.525 47.5996C111.359 47.4385 111.139 47.3579 110.866 47.3579C110.587 47.3579 110.363 47.4385 110.192 47.5996C110.021 47.7607 109.936 47.9707 109.936 48.2295C109.936 48.4883 110.021 48.6982 110.192 48.8594C110.363 49.0156 110.585 49.0938 110.858 49.0938ZM114.418 58C114.618 58 114.792 57.939 114.938 57.8169C115.084 57.6899 115.158 57.5166 115.158 57.2969V53.8179C115.177 53.1343 115.377 52.5923 115.758 52.1919C116.139 51.7866 116.601 51.584 117.143 51.584C117.626 51.584 118.009 51.7378 118.292 52.0454C118.576 52.353 118.717 52.7998 118.717 53.3857V57.2969C118.717 57.5166 118.788 57.6899 118.93 57.8169C119.076 57.939 119.25 58 119.45 58C119.65 58 119.823 57.939 119.97 57.8169C120.121 57.6899 120.197 57.5166 120.197 57.2969V53.4004C120.197 52.9219 120.128 52.4995 119.992 52.1333C119.855 51.7622 119.662 51.4668 119.413 51.2471C119.169 51.0225 118.888 50.8564 118.571 50.749C118.258 50.6367 117.914 50.5806 117.538 50.5806C116.981 50.5806 116.493 50.6929 116.073 50.9175C115.658 51.1421 115.353 51.4668 115.158 51.8916V51.3716C115.158 51.1616 115.084 50.998 114.938 50.8809C114.796 50.7637 114.625 50.7051 114.425 50.7051C114.225 50.7051 114.052 50.7661 113.905 50.8882C113.759 51.0054 113.686 51.1738 113.686 51.3936V57.2969C113.686 57.5166 113.756 57.6899 113.898 57.8169C114.044 57.939 114.218 58 114.418 58ZM125.331 61.1494C126.43 61.1494 127.299 60.8809 127.938 60.3438C128.578 59.8066 128.898 58.9985 128.898 57.9194V51.3936C128.898 51.1738 128.83 51.0029 128.693 50.8809C128.556 50.7588 128.393 50.6978 128.202 50.6978C128.031 50.6978 127.88 50.749 127.748 50.8516C127.616 50.9541 127.541 51.0981 127.521 51.2837V51.8843C127.277 51.4644 126.969 51.1421 126.598 50.9175C126.232 50.6929 125.746 50.5806 125.141 50.5806C124.105 50.5806 123.288 50.9395 122.687 51.6572C122.091 52.3701 121.793 53.2808 121.793 54.3892C121.793 55.4585 122.096 56.3276 122.702 56.9966C123.312 57.6655 124.14 58 125.185 58C125.717 58 126.178 57.8853 126.569 57.6558C126.964 57.4214 127.267 57.0942 127.477 56.6743V58C127.477 58.6836 127.282 59.2109 126.891 59.582C126.505 59.958 125.951 60.146 125.229 60.146C125.009 60.146 124.787 60.1265 124.562 60.0874C124.337 60.0483 124.171 60.0142 124.064 59.9849C123.957 59.9556 123.786 59.897 123.551 59.8091C123.317 59.7261 123.19 59.6797 123.17 59.6699C123.107 59.6455 123.043 59.6333 122.98 59.6333C122.912 59.6333 122.848 59.6455 122.79 59.6699C122.731 59.6992 122.68 59.7358 122.636 59.7798C122.597 59.8286 122.565 59.8823 122.541 59.9409C122.516 60.0044 122.504 60.0679 122.504 60.1313C122.504 60.3267 122.597 60.478 122.782 60.5854C123.051 60.7417 123.41 60.8735 123.859 60.981C124.308 61.0933 124.799 61.1494 125.331 61.1494ZM125.419 57.0259C125.126 57.0259 124.853 56.9722 124.599 56.8647C124.345 56.7573 124.118 56.5986 123.917 56.3887C123.717 56.1738 123.559 55.8931 123.441 55.5464C123.324 55.1948 123.266 54.7944 123.266 54.3452C123.266 54.0425 123.29 53.7568 123.339 53.4883C123.393 53.2197 123.476 52.9683 123.588 52.7339C123.7 52.4995 123.839 52.2993 124.005 52.1333C124.171 51.9624 124.374 51.8281 124.613 51.7305C124.857 51.6328 125.126 51.584 125.419 51.584C125.722 51.584 125.99 51.6328 126.225 51.7305C126.464 51.8281 126.659 51.96 126.811 52.126C126.967 52.292 127.094 52.4946 127.191 52.7339C127.294 52.9683 127.365 53.2173 127.404 53.481C127.448 53.7446 127.47 54.0303 127.47 54.3379C127.47 55.2119 127.279 55.8784 126.898 56.3374C126.518 56.7964 126.024 57.0259 125.419 57.0259ZM139.884 58.1611C141.022 58.1611 142.011 57.895 142.851 57.3628C143.1 57.2017 143.224 56.9966 143.224 56.7476C143.224 56.5767 143.166 56.4277 143.048 56.3008C142.931 56.1689 142.79 56.103 142.624 56.103C142.526 56.103 142.428 56.1299 142.331 56.1836C142.077 56.3203 141.864 56.4277 141.693 56.5059C141.527 56.584 141.303 56.6597 141.02 56.7329C140.741 56.8013 140.456 56.8354 140.163 56.8354C139.591 56.8354 139.086 56.7354 138.646 56.5352C138.207 56.3301 137.851 56.0444 137.577 55.6782C137.304 55.3071 137.099 54.875 136.962 54.3818C136.825 53.8887 136.757 53.3418 136.757 52.7412C136.757 52.1406 136.825 51.5938 136.962 51.1006C137.099 50.6025 137.301 50.168 137.57 49.7969C137.838 49.4258 138.188 49.1377 138.617 48.9326C139.047 48.7227 139.54 48.6177 140.097 48.6177C140.316 48.6177 140.524 48.6299 140.719 48.6543C140.915 48.6787 141.093 48.7178 141.254 48.7715C141.415 48.8203 141.542 48.8618 141.635 48.896C141.728 48.9302 141.84 48.9814 141.972 49.0498C142.104 49.1133 142.179 49.1499 142.199 49.1597C142.238 49.1792 142.277 49.1938 142.316 49.2036C142.36 49.2085 142.401 49.2109 142.44 49.2109C142.553 49.2109 142.658 49.1792 142.755 49.1157C142.858 49.0522 142.938 48.9692 142.997 48.8667C143.056 48.7593 143.085 48.6494 143.085 48.5371C143.085 48.4248 143.053 48.3198 142.99 48.2222C142.926 48.1196 142.829 48.0342 142.697 47.9658C141.862 47.5166 140.976 47.292 140.038 47.292C139.037 47.292 138.151 47.5288 137.379 48.0024C136.613 48.4712 136.024 49.1182 135.614 49.9434C135.204 50.7686 134.999 51.7085 134.999 52.7632C134.999 53.7935 135.194 54.7163 135.585 55.5317C135.976 56.3472 136.544 56.9893 137.292 57.458C138.039 57.9268 138.903 58.1611 139.884 58.1611ZM148.351 58.1172C149.42 58.1172 150.333 57.7827 151.09 57.1138C151.168 57.0503 151.225 56.9795 151.259 56.9014C151.298 56.8232 151.317 56.7427 151.317 56.6597C151.317 56.5718 151.295 56.4888 151.251 56.4106C151.212 56.3325 151.156 56.2715 151.083 56.2275C151.015 56.1787 150.939 56.1543 150.856 56.1543C150.807 56.1543 150.758 56.1641 150.709 56.1836C150.666 56.1982 150.619 56.2227 150.57 56.2568C150.224 56.5107 149.884 56.7134 149.552 56.8647C149.22 57.0112 148.854 57.0845 148.454 57.0845C147.78 57.0747 147.235 56.8721 146.82 56.4766C146.405 56.0811 146.188 55.478 146.168 54.6675H151.076C151.232 54.6675 151.349 54.6162 151.427 54.5137C151.505 54.4111 151.544 54.2793 151.544 54.1182C151.535 53.6299 151.461 53.1807 151.325 52.7705C151.193 52.3555 150.998 51.9819 150.739 51.6499C150.485 51.3179 150.141 51.0566 149.706 50.8662C149.276 50.6758 148.781 50.5806 148.219 50.5806C147.667 50.5806 147.165 50.6831 146.71 50.8882C146.261 51.0884 145.89 51.3618 145.597 51.7085C145.304 52.0503 145.077 52.4434 144.916 52.8877C144.76 53.332 144.682 53.8032 144.682 54.3013C144.682 55.4731 145.021 56.4009 145.7 57.0845C146.383 57.7632 147.267 58.1074 148.351 58.1172ZM146.183 53.7739C146.208 53.4956 146.266 53.2295 146.359 52.9756C146.457 52.7217 146.588 52.4897 146.754 52.2798C146.925 52.0649 147.143 51.8965 147.406 51.7744C147.67 51.6475 147.963 51.584 148.285 51.584C148.91 51.584 149.386 51.7915 149.713 52.2065C150.041 52.6167 150.226 53.1392 150.27 53.7739H146.183ZM153.954 58C154.154 58 154.328 57.939 154.474 57.8169C154.621 57.6899 154.694 57.5166 154.694 57.2969V53.8179C154.713 53.1343 154.914 52.5923 155.294 52.1919C155.675 51.7866 156.137 51.584 156.679 51.584C157.162 51.584 157.545 51.7378 157.829 52.0454C158.112 52.353 158.253 52.7998 158.253 53.3857V57.2969C158.253 57.5166 158.324 57.6899 158.466 57.8169C158.612 57.939 158.786 58 158.986 58C159.186 58 159.359 57.939 159.506 57.8169C159.657 57.6899 159.733 57.5166 159.733 57.2969V53.4004C159.733 52.9219 159.665 52.4995 159.528 52.1333C159.391 51.7622 159.198 51.4668 158.949 51.2471C158.705 51.0225 158.424 50.8564 158.107 50.749C157.794 50.6367 157.45 50.5806 157.074 50.5806C156.518 50.5806 156.029 50.6929 155.609 50.9175C155.194 51.1421 154.889 51.4668 154.694 51.8916V51.3716C154.694 51.1616 154.621 50.998 154.474 50.8809C154.333 50.7637 154.162 50.7051 153.961 50.7051C153.761 50.7051 153.588 50.7661 153.441 50.8882C153.295 51.0054 153.222 51.1738 153.222 51.3936V57.2969C153.222 57.5166 153.292 57.6899 153.434 57.8169C153.581 57.939 153.754 58 153.954 58ZM164.267 58.0879C164.286 58.0879 164.308 58.0879 164.333 58.0879C164.362 58.0879 164.386 58.0879 164.406 58.0879C164.43 58.0879 164.455 58.0879 164.479 58.0879C164.503 58.0879 164.528 58.0879 164.552 58.0879C164.577 58.0879 164.599 58.0879 164.618 58.0879C164.726 58.0879 164.818 58.0854 164.896 58.0806C164.975 58.0806 165.06 58.0757 165.153 58.0659C165.25 58.0562 165.331 58.0415 165.395 58.022C165.458 58.0073 165.521 57.9854 165.585 57.9561C165.653 57.9268 165.707 57.8926 165.746 57.8535C165.785 57.8096 165.817 57.7559 165.841 57.6924C165.866 57.6289 165.878 57.5581 165.878 57.48C165.878 57.3286 165.824 57.1968 165.717 57.0845C165.614 56.9673 165.473 56.9087 165.292 56.9087C165.277 56.9087 165.263 56.9087 165.248 56.9087L164.728 56.938C164.704 56.938 164.679 56.938 164.655 56.938C164.357 56.938 164.142 56.8257 164.01 56.6011C163.878 56.3765 163.812 56.0298 163.812 55.561V51.7305H165.124C165.299 51.7305 165.431 51.689 165.519 51.606C165.607 51.5181 165.651 51.4033 165.651 51.2617C165.651 51.1201 165.607 51.0029 165.519 50.9102C165.431 50.8174 165.299 50.771 165.124 50.771H163.812V48.6763C163.812 48.4858 163.759 48.3418 163.651 48.2441C163.549 48.1465 163.417 48.0977 163.256 48.0977C163.065 48.0977 162.902 48.1587 162.765 48.2808C162.633 48.4028 162.555 48.5566 162.531 48.7422L162.333 50.771H161.476C161.3 50.771 161.166 50.8149 161.073 50.9028C160.985 50.9907 160.941 51.1055 160.941 51.2471C160.941 51.3887 160.988 51.5059 161.081 51.5986C161.173 51.6865 161.308 51.7305 161.483 51.7305H162.333V55.8687C162.333 56.5962 162.506 57.1479 162.853 57.5239C163.2 57.8999 163.671 58.0879 164.267 58.0879ZM170.543 58.1172C171.613 58.1172 172.526 57.7827 173.283 57.1138C173.361 57.0503 173.417 56.9795 173.451 56.9014C173.49 56.8232 173.51 56.7427 173.51 56.6597C173.51 56.5718 173.488 56.4888 173.444 56.4106C173.405 56.3325 173.349 56.2715 173.275 56.2275C173.207 56.1787 173.131 56.1543 173.048 56.1543C173 56.1543 172.951 56.1641 172.902 56.1836C172.858 56.1982 172.812 56.2227 172.763 56.2568C172.416 56.5107 172.077 56.7134 171.745 56.8647C171.413 57.0112 171.046 57.0845 170.646 57.0845C169.972 57.0747 169.428 56.8721 169.013 56.4766C168.598 56.0811 168.38 55.478 168.361 54.6675H173.268C173.424 54.6675 173.542 54.6162 173.62 54.5137C173.698 54.4111 173.737 54.2793 173.737 54.1182C173.727 53.6299 173.654 53.1807 173.517 52.7705C173.385 52.3555 173.19 51.9819 172.931 51.6499C172.677 51.3179 172.333 51.0566 171.898 50.8662C171.469 50.6758 170.973 50.5806 170.412 50.5806C169.86 50.5806 169.357 50.6831 168.903 50.8882C168.454 51.0884 168.083 51.3618 167.79 51.7085C167.497 52.0503 167.27 52.4434 167.108 52.8877C166.952 53.332 166.874 53.8032 166.874 54.3013C166.874 55.4731 167.213 56.4009 167.892 57.0845C168.576 57.7632 169.459 58.1074 170.543 58.1172ZM168.375 53.7739C168.4 53.4956 168.458 53.2295 168.551 52.9756C168.649 52.7217 168.781 52.4897 168.947 52.2798C169.118 52.0649 169.335 51.8965 169.599 51.7744C169.862 51.6475 170.155 51.584 170.478 51.584C171.103 51.584 171.579 51.7915 171.906 52.2065C172.233 52.6167 172.418 53.1392 172.462 53.7739H168.375ZM176.154 58C176.354 58 176.53 57.939 176.681 57.8169C176.833 57.6948 176.908 57.5239 176.908 57.3042V53.7227C176.908 53.1025 177.091 52.6411 177.458 52.3384C177.829 52.0356 178.339 51.8843 178.988 51.8843C179.149 51.8843 179.274 51.8257 179.362 51.7085C179.45 51.5913 179.494 51.4521 179.494 51.291C179.494 51.1152 179.445 50.9639 179.347 50.8369C179.25 50.71 179.113 50.6465 178.937 50.6465C178.444 50.6465 178.009 50.8003 177.633 51.1079C177.262 51.4155 177.016 51.7964 176.894 52.2505L176.908 51.3496C176.908 51.2666 176.894 51.1909 176.864 51.1226C176.84 51.0493 176.803 50.9883 176.754 50.9395C176.71 50.8906 176.657 50.8491 176.593 50.8149C176.535 50.7759 176.469 50.749 176.396 50.7344C176.327 50.7148 176.254 50.7051 176.176 50.7051C175.976 50.7051 175.8 50.7661 175.648 50.8882C175.502 51.0054 175.429 51.1714 175.429 51.3862V57.3042C175.429 57.5288 175.5 57.7021 175.641 57.8242C175.783 57.9414 175.954 58 176.154 58Z" fill="#5433ED"/>
</svg>
