<svg xmlns="http://www.w3.org/2000/svg" width="14" height="13" viewBox="0 0 14 13" fill="none">
<path d="M13.1536 12.4322C12.3807 12.4138 11.6262 12.4138 10.8533 12.4322C10.6877 12.4322 10.6509 12.3954 10.6509 12.2298C10.6509 10.868 10.6509 9.48785 10.6509 8.12609C10.6509 7.81325 10.6325 7.50041 10.5405 7.20598C10.2645 6.24906 9.16033 5.89942 8.36904 6.5435C7.94579 6.87474 7.78017 7.33479 7.78017 7.88686C7.78017 9.17502 7.78017 10.4632 7.78017 11.7513C7.78017 11.9169 7.76177 12.0826 7.78017 12.2666C7.79857 12.4138 7.72496 12.4506 7.59615 12.4322C6.80485 12.4322 6.03196 12.4322 5.24066 12.4322C5.09345 12.4322 5.05664 12.3954 5.05664 12.2482C5.07504 11.0888 5.07504 9.92951 5.07504 8.75176C5.07504 7.31639 5.07504 5.88102 5.05664 4.46405C5.05664 4.29843 5.09345 4.26163 5.24066 4.26163C6.03196 4.26163 6.80485 4.26163 7.59615 4.26163C7.74336 4.26163 7.78017 4.29843 7.78017 4.44565C7.78017 4.74008 7.78017 5.03452 7.78017 5.38416C7.83538 5.32895 7.85378 5.31055 7.87218 5.29215C8.58987 4.24322 9.60199 3.94879 10.7981 4.13281C12.1783 4.35364 13.0616 5.31055 13.2824 6.78273C13.3376 7.13237 13.356 7.48201 13.356 7.83165C13.356 9.30383 13.356 10.7576 13.356 12.2298C13.356 12.377 13.3192 12.4322 13.1536 12.4322Z" fill="#5433ED"/>
<path d="M3.58464 8.34676C3.58464 9.63492 3.58464 10.9231 3.58464 12.2112C3.58464 12.3768 3.54784 12.4321 3.38222 12.4321C2.60932 12.4137 1.83643 12.4321 1.06354 12.4321C0.916321 12.4321 0.879517 12.3953 0.879517 12.248C0.879517 9.65332 0.879517 7.04021 0.879517 4.4455C0.879517 4.31668 0.916321 4.26147 1.06354 4.26147C1.85483 4.26147 2.64613 4.26147 3.43742 4.26147C3.60304 4.26147 3.62144 4.31668 3.62144 4.4639C3.58464 5.75205 3.58464 7.04021 3.58464 8.34676Z" fill="#5433ED"/>
<path d="M3.71343 2.12705C3.52941 2.86314 2.77492 3.28639 1.91001 3.13917C0.989902 2.99196 0.47464 2.09025 0.80588 1.20694C1.02671 0.654875 1.56037 0.323635 2.24125 0.342037C3.27178 0.323635 3.95266 1.15173 3.71343 2.12705Z" fill="#5433ED"/>
</svg>