<svg width="52" height="52" viewBox="0 0 52 52" fill="none" xmlns="http://www.w3.org/2000/svg">
<path fill-rule="evenodd" clip-rule="evenodd" d="M30.8712 0.43457H4.83613C2.18357 0.43457 0.0323486 2.58522 0.0323486 5.23835V25.7761C0.0323486 28.267 2.05187 30.2865 4.54278 30.2865L4.48909 34.2702L9.00743 30.2865H30.8712C33.5243 30.2865 35.6755 28.1353 35.6755 25.4822V5.23835C35.6755 2.58522 33.5243 0.43457 30.8712 0.43457Z" fill="#2BD4D9"/>
<path fill-rule="evenodd" clip-rule="evenodd" d="M15.8918 22.1284V26.398H51.5344V22.1284C51.5344 19.9314 49.7534 18.1504 47.5564 18.1504H45.196V19.6437C45.196 20.8866 44.1849 21.8972 42.942 21.8972C41.699 21.8972 40.6879 20.8866 40.6879 19.6437V18.1504H26.7383V19.6437C26.7383 20.8866 25.7271 21.8972 24.4842 21.8972C23.2413 21.8972 22.229 20.8866 22.229 19.6437V18.1504H19.8698C17.6728 18.1504 15.8918 19.9314 15.8918 22.1284Z" fill="#5433ED"/>
<path fill-rule="evenodd" clip-rule="evenodd" d="M51.5348 27.8838V43.5307C51.5348 45.7277 49.7543 47.5087 47.5568 47.5087L47.6625 51.9372L40.3423 47.5087H27.4062C28.0895 46.107 28.4722 44.5323 28.4722 42.8677C28.4722 37.003 23.7182 32.2495 17.8535 32.2495C17.1837 32.2495 16.528 32.3111 15.8922 32.431V27.8838H51.5348Z" fill="#5433ED"/>
<path fill-rule="evenodd" clip-rule="evenodd" d="M41.828 16.6574V19.6435C41.828 20.2584 42.3271 20.7569 42.942 20.7569C43.557 20.7569 44.0555 20.2584 44.0555 19.6435V16.6574C44.0555 16.0425 43.557 15.5439 42.942 15.5439C42.3271 15.5439 41.828 16.0425 41.828 16.6574Z" fill="#5433ED"/>
<path fill-rule="evenodd" clip-rule="evenodd" d="M23.2012 16.6574V19.6435C23.2012 20.2584 23.6998 20.7569 24.3153 20.7569C24.9297 20.7569 25.4288 20.2584 25.4288 19.6435V16.6574C25.4288 16.0425 24.9297 15.5439 24.3153 15.5439C23.6998 15.5439 23.2012 16.0425 23.2012 16.6574Z" fill="#5433ED"/>
<path fill-rule="evenodd" clip-rule="evenodd" d="M26.7454 42.868C26.7454 47.7786 22.7646 51.76 17.854 51.76C12.9434 51.76 8.96198 47.7786 8.96198 42.868C8.96198 37.9574 12.9434 33.9766 17.854 33.9766C22.7646 33.9766 26.7454 37.9574 26.7454 42.868Z" fill="#5433ED"/>
<path fill-rule="evenodd" clip-rule="evenodd" d="M21.4562 43.4686H17.2532V37.5383C17.2532 37.2065 17.5223 36.9375 17.8535 36.9375C18.1853 36.9375 18.4543 37.2065 18.4543 37.5383V42.2675H21.4562C21.7874 42.2675 22.0565 42.536 22.0565 42.8678C22.0565 43.1995 21.7874 43.4686 21.4562 43.4686Z" fill="white"/>
</svg>
