<svg width="52" height="52" viewBox="0 0 52 52" fill="none" xmlns="http://www.w3.org/2000/svg">
<g clip-path="url(#clip0_2768_6035)">
<path d="M32.9233 22.4006L27.8833 17.3139C27.8599 17.2847 27.8294 17.2618 27.7947 17.2475C27.76 17.2332 27.7223 17.228 27.685 17.2323C27.6474 17.2337 27.6104 17.2427 27.5763 17.2587C27.5422 17.2748 27.5117 17.2975 27.4867 17.3256L24.1267 20.8839C23.9094 21.115 23.6474 21.2993 23.3565 21.4257C23.0657 21.5521 22.7521 21.6178 22.435 21.6189C22.1179 21.6178 21.8043 21.5521 21.5135 21.4257C21.2226 21.2993 20.9606 21.115 20.7433 20.8839L13.5333 13.1956C13.482 13.1497 13.4155 13.1243 13.3467 13.1243C13.2778 13.1243 13.2113 13.1497 13.16 13.1956L1.93666 21.9456L0.48999 20.0673L11.6667 11.3173C12.1796 10.9184 12.8233 10.726 13.471 10.7778C14.1187 10.8296 14.7236 11.122 15.1667 11.5973L22.365 19.2856L25.7017 15.7273C25.9404 15.4699 26.229 15.2638 26.5499 15.1214C26.8708 14.979 27.2173 14.9033 27.5683 14.8989C27.9194 14.8898 28.2687 14.9535 28.5939 15.0861C28.9192 15.2186 29.2135 15.417 29.4583 15.6689L34.4983 20.7556L32.9233 22.4006Z" fill="#2BD4D9"/>
<path d="M30.4267 35H4.57333C3.36041 35 2.19716 34.5182 1.3395 33.6605C0.481832 32.8028 0 31.6396 0 30.4267V4.57333C0 3.36041 0.481832 2.19716 1.3395 1.3395C2.19716 0.481832 3.36041 0 4.57333 0H30.4267C31.6396 0 32.8028 0.481832 33.6605 1.3395C34.5182 2.19716 35 3.36041 35 4.57333V30.4267C35 31.6396 34.5182 32.8028 33.6605 33.6605C32.8028 34.5182 31.6396 35 30.4267 35ZM4.57333 2.33333C3.97925 2.33333 3.4095 2.56933 2.98941 2.98941C2.56933 3.4095 2.33333 3.97925 2.33333 4.57333V30.4267C2.33333 30.7208 2.39127 31.0121 2.50384 31.2839C2.61641 31.5556 2.78141 31.8026 2.98941 32.0106C3.19742 32.2186 3.44435 32.3836 3.71612 32.4962C3.98789 32.6087 4.27917 32.6667 4.57333 32.6667H30.4267C30.7208 32.6667 31.0121 32.6087 31.2839 32.4962C31.5556 32.3836 31.8026 32.2186 32.0106 32.0106C32.2186 31.8026 32.3836 31.5556 32.4962 31.2839C32.6087 31.0121 32.6667 30.7208 32.6667 30.4267V4.57333C32.6667 4.27917 32.6087 3.98789 32.4962 3.71612C32.3836 3.44435 32.2186 3.19742 32.0106 2.98941C31.8026 2.78141 31.5556 2.61641 31.2839 2.50384C31.0121 2.39127 30.7208 2.33333 30.4267 2.33333H4.57333Z" fill="#2BD4D9"/>
<path d="M22.5517 12.6354C23.8403 12.6354 24.885 11.5907 24.885 10.3021C24.885 9.01342 23.8403 7.96875 22.5517 7.96875C21.263 7.96875 20.2183 9.01342 20.2183 10.3021C20.2183 11.5907 21.263 12.6354 22.5517 12.6354Z" fill="#2BD4D9"/>
<path d="M1.16666 21.584L12.285 12.6356L14.3383 12.3906L21.07 19.5773C21.07 19.5773 22.2367 21.1756 23.2283 20.079L26.5767 16.5206C26.5767 16.5206 27.2417 15.0623 28.665 16.5206C30.0883 17.979 33.8333 22.7506 33.8333 22.7506L33.7517 31.1856C33.7517 31.1856 33.4017 33.834 29.9717 33.834C26.5417 33.834 4.30499 33.4723 4.30499 33.4723C4.30499 33.4723 1.16666 34.2423 1.16666 30.4273C1.16666 26.6123 1.16666 21.584 1.16666 21.584Z" fill="#2BD4D9"/>
<path d="M49.3012 24.6988C48.446 23.8432 47.4306 23.1645 46.313 22.7014C45.1954 22.2383 43.9975 22 42.7878 22C41.5781 22 40.3802 22.2383 39.2626 22.7014C38.145 23.1645 37.1296 23.8432 36.2744 24.6988L34.4996 26.4737L32.7247 24.6988C30.9972 22.9714 28.6543 22.0009 26.2113 22.0009C23.7683 22.0009 21.4254 22.9714 19.6979 24.6988C17.9705 26.4263 17 28.7692 17 31.2122C17 33.6552 17.9705 35.9981 19.6979 37.7256L21.4728 39.5004L34.4996 52.5272L47.5263 39.5004L49.3012 37.7256C50.1568 36.8704 50.8355 35.855 51.2986 34.7374C51.7617 33.6198 52 32.4219 52 31.2122C52 30.0025 51.7617 28.8046 51.2986 27.687C50.8355 26.5694 50.1568 25.554 49.3012 24.6988Z" fill="#5433ED"/>
</g>
<defs>
<clipPath id="clip0_2768_6035">
<rect width="52" height="52" fill="white"/>
</clipPath>
</defs>
</svg>
