<svg width="52" height="52" viewBox="0 0 52 52" fill="none" xmlns="http://www.w3.org/2000/svg">
<g clip-path="url(#clip0_2768_6092)">
<path d="M18.5254 23.4862C19.7042 23.1967 20.5762 22.4379 20.5762 21.5659C20.5762 20.6938 19.7042 19.935 18.5254 19.6455V23.4862Z" fill="#2BD4D9"/>
<path d="M17.5 7.2207C11.2806 7.2207 6.2207 12.2806 6.2207 18.5C6.2207 24.7194 11.2806 29.7793 17.5 29.7793C23.7194 29.7793 28.7793 24.7194 28.7793 18.5C28.7793 12.2806 23.7194 7.2207 17.5 7.2207ZM22.627 21.5662C22.627 23.5472 20.8627 25.2037 18.5254 25.5848V26.7031C18.5254 27.2699 18.0668 27.7285 17.5 27.7285C16.9332 27.7285 16.4746 27.2699 16.4746 26.7031V25.5848C14.1373 25.2037 12.373 23.5472 12.373 21.5662C12.373 20.9994 12.8317 20.5408 13.3984 20.5408C13.9652 20.5408 14.4238 20.9994 14.4238 21.5662C14.4238 22.4383 15.2958 23.197 16.4746 23.4865V19.4324C14.1373 19.0514 12.373 17.3949 12.373 15.4138C12.373 13.4328 14.1373 11.7763 16.4746 11.3953V10.2869C16.4746 9.72013 16.9332 9.2615 17.5 9.2615C18.0668 9.2615 18.5254 9.72013 18.5254 10.2869V11.3953C20.8627 11.7763 22.627 13.4328 22.627 15.4138C22.627 15.9806 22.1683 16.4392 21.6016 16.4392C21.0348 16.4392 20.5762 15.9806 20.5762 15.4138C20.5762 14.5418 19.7042 13.783 18.5254 13.4935V17.5476C20.8627 17.9286 22.627 19.5851 22.627 21.5662Z" fill="#2BD4D9"/>
<path d="M16.4746 13.4932C15.2958 13.7827 14.4238 14.5415 14.4238 15.4135C14.4238 16.2856 15.2958 17.0444 16.4746 17.3339V13.4932Z" fill="#2BD4D9"/>
<path d="M17.5 1C7.88799 1 0 8.88799 0 18.5C0 28.112 7.88799 36 17.5 36C27.112 36 35 28.112 35 18.5C35 8.88799 27.112 1 17.5 1ZM17.5 31.8301C10.15 31.8301 4.16992 25.85 4.16992 18.5C4.16992 11.15 10.15 5.16992 17.5 5.16992C24.85 5.16992 30.8301 11.15 30.8301 18.5C30.8301 25.85 24.85 31.8301 17.5 31.8301Z" fill="#2BD4D9"/>
<path d="M37.9337 25.6992C37.6059 26.0337 37.4223 26.4833 37.4223 26.9515C37.4223 27.4198 37.6059 27.8694 37.9337 28.2039L40.7961 31.0663C41.1306 31.3941 41.5802 31.5777 42.0485 31.5777C42.5167 31.5777 42.9663 31.3941 43.3008 31.0663L50.0453 24.3217C50.9449 26.3096 51.2173 28.5245 50.8261 30.6712C50.435 32.8178 49.399 34.7943 47.8561 36.3372C46.3132 37.8801 44.3367 38.9161 42.19 39.3072C40.0434 39.6984 37.8285 39.426 35.8406 38.5264L23.4786 50.8885C22.7669 51.6002 21.8016 52 20.7951 52C19.7885 52 18.8233 51.6002 18.1115 50.8885C17.3998 50.1767 17 49.2115 17 48.2049C17 47.1984 17.3998 46.2331 18.1115 45.5214L30.4736 33.1594C29.574 31.1715 29.3016 28.9566 29.6928 26.81C30.0839 24.6633 31.1199 22.6868 32.6628 21.1439C34.2057 19.601 36.1822 18.565 38.3288 18.1739C40.4755 17.7827 42.6904 18.0551 44.6783 18.9547L37.9516 25.6814L37.9337 25.6992Z" fill="#5433ED"/>
</g>
<defs>
<clipPath id="clip0_2768_6092">
<rect width="52" height="52" fill="white"/>
</clipPath>
</defs>
</svg>
