<svg width="37" height="37" viewBox="0 0 37 37" fill="none" xmlns="http://www.w3.org/2000/svg">
<path fill-rule="evenodd" clip-rule="evenodd" d="M22.2125 0H3.45963C1.54901 0 -0.000488281 1.30561 -0.000488281 2.91627V15.3843C-0.000488281 16.8964 1.45416 18.1224 3.24834 18.1224H6.46419H22.2125C24.1235 18.1224 25.673 16.8165 25.673 15.2058V2.91627C25.673 1.30561 24.1235 0 22.2125 0Z" fill="#2BD4D9"/>
<rect x="-0.000488281" y="19.6328" width="25.6735" height="1.5102" rx="0.755101" fill="#2BD4D9"/>
<rect x="-0.000488281" y="21.8984" width="25.6735" height="1.5102" rx="0.755102" fill="#2BD4D9"/>
<path fill-rule="evenodd" clip-rule="evenodd" d="M11.3077 15.7455V18.7836H36.6688V15.7455C36.6688 14.1823 35.4016 12.915 33.8383 12.915H32.1589V13.9776C32.1589 14.862 31.4394 15.581 30.555 15.581C29.6706 15.581 28.9511 14.862 28.9511 13.9776V12.915H19.0255V13.9776C19.0255 14.862 18.306 15.581 17.4216 15.581C16.5372 15.581 15.8169 14.862 15.8169 13.9776V12.915H14.1382C12.575 12.915 11.3077 14.1823 11.3077 15.7455Z" fill="#5433ED"/>
<path fill-rule="evenodd" clip-rule="evenodd" d="M36.6691 19.8398V30.9732C36.6691 32.5365 35.4022 33.8037 33.8386 33.8037L33.9138 36.9548L28.7052 33.8037H19.5007C19.9869 32.8063 20.2592 31.6859 20.2592 30.5015C20.2592 26.3285 16.8765 22.9462 12.7035 22.9462C12.227 22.9462 11.7604 22.9901 11.308 23.0753V19.8398H36.6691Z" fill="#5433ED"/>
<path fill-rule="evenodd" clip-rule="evenodd" d="M29.7623 11.8528V13.9775C29.7623 14.4151 30.1174 14.7698 30.555 14.7698C30.9926 14.7698 31.3473 14.4151 31.3473 13.9775V11.8528C31.3473 11.4153 30.9926 11.0605 30.555 11.0605C30.1174 11.0605 29.7623 11.4153 29.7623 11.8528Z" fill="#5433ED"/>
<path fill-rule="evenodd" clip-rule="evenodd" d="M16.5087 11.8528V13.9775C16.5087 14.4151 16.8634 14.7698 17.3014 14.7698C17.7385 14.7698 18.0936 14.4151 18.0936 13.9775V11.8528C18.0936 11.4153 17.7385 11.0605 17.3014 11.0605C16.8634 11.0605 16.5087 11.4153 16.5087 11.8528Z" fill="#5433ED"/>
<path fill-rule="evenodd" clip-rule="evenodd" d="M19.0306 30.5024C19.0306 33.9965 16.198 36.8294 12.704 36.8294C9.20987 36.8294 6.37695 33.9965 6.37695 30.5024C6.37695 27.0083 9.20987 24.1758 12.704 24.1758C16.198 24.1758 19.0306 27.0083 19.0306 30.5024Z" fill="#5433ED"/>
<path fill-rule="evenodd" clip-rule="evenodd" d="M15.2669 30.9293H12.2764V26.7097C12.2764 26.4737 12.4678 26.2822 12.7035 26.2822C12.9396 26.2822 13.131 26.4737 13.131 26.7097V30.0747H15.2669C15.5026 30.0747 15.694 30.2658 15.694 30.5018C15.694 30.7379 15.5026 30.9293 15.2669 30.9293Z" fill="white"/>
</svg>
