<svg width="51" height="48" viewBox="0 0 51 48" fill="none" xmlns="http://www.w3.org/2000/svg">
<path fill-rule="evenodd" clip-rule="evenodd" d="M37.8756 26.6513V7.15625H0.230042V26.6513C0.230042 27.9785 1.3338 29.0538 2.69385 29.0538H35.4099C36.7718 29.0538 37.8756 27.9785 37.8756 26.6513Z" fill="#2BD4D9"/>
<path fill-rule="evenodd" clip-rule="evenodd" d="M37.8756 5.40227V2.79546C37.8756 1.46884 36.7718 0.393555 35.4099 0.393555H2.69385C1.3338 0.393555 0.230042 1.46884 0.230042 2.79546V5.40227H37.8756ZM4.92923 2.63575C4.92923 2.97251 4.65685 3.24489 4.32071 3.24489C3.98457 3.24489 3.71218 2.97251 3.71218 2.63575C3.71218 2.29898 3.98457 2.0266 4.32071 2.0266C4.65685 2.0266 4.92923 2.29898 4.92923 2.63575ZM7.17018 2.63575C7.17018 2.97251 6.89842 3.24489 6.56228 3.24489C6.22552 3.24489 5.95314 2.97251 5.95314 2.63575C5.95314 2.29898 6.22552 2.0266 6.56228 2.0266C6.89842 2.0266 7.17018 2.29898 7.17018 2.63575ZM9.31333 2.63575C9.31333 2.97251 9.04095 3.24489 8.7048 3.24489C8.36804 3.24489 8.09628 2.97251 8.09628 2.63575C8.09628 2.29898 8.36804 2.0266 8.7048 2.0266C9.04095 2.0266 9.31333 2.29898 9.31333 2.63575Z" fill="#2BD4D9"/>
<path fill-rule="evenodd" clip-rule="evenodd" d="M17 22V13L24 17.4996L17 22Z" fill="white"/>
<path fill-rule="evenodd" clip-rule="evenodd" d="M31.4285 21H43.5715V27.4292V32.8575H31.4285V27.4371L31.4286 27.4292L31.4285 27.4213V21ZM45.5715 28.4292V32.8575H51V28.4292H45.5715ZM51 26.4292H45.5715V21H48.057C49.6824 21 51 22.3176 51 23.943V26.4292ZM29.4285 21V26.4292H24V23.943C24 22.3176 25.3176 21 26.943 21H29.4285ZM29.4285 28.4292H24V32.8575H29.4285V28.4292ZM24 34.8575H29.4285V40.5708H24V34.8575ZM24 42.5708V45.057C24 46.6824 25.3176 48 26.943 48H29.4285V42.5708H24ZM31.4285 41.5787V48H43.5715V41.5708V34.8575H31.4285V41.5629L31.4286 41.5708L31.4285 41.5787ZM45.5715 48V42.5708H51V45.057C51 46.6824 49.6824 48 48.057 48H45.5715ZM45.5715 40.5708H51V34.8575H45.5715V40.5708Z" fill="#5433ED"/>
</svg>
