<svg width="39" height="40" viewBox="0 0 39 40" fill="none" xmlns="http://www.w3.org/2000/svg">
<path d="M23.4999 29H17.5C16.3969 29 15.5 29.8969 15.5 31V36.9999C15.5 38.1029 16.3969 38.9999 17.5 38.9999H23.4999C24.6029 38.9999 25.4999 38.1029 25.4999 36.9999V31C25.4998 29.8969 24.6029 29 23.4999 29Z" fill="#5433ED"/>
<path d="M37.1445 32.6522C37.7708 33.0439 37.7708 33.9561 37.1445 34.3478L31.0303 38.172C30.3642 38.5886 29.5 38.1098 29.5 37.3242L29.5 29.6758C29.5 28.8902 30.3642 28.4114 31.0303 28.828L37.1445 32.6522Z" fill="#5433ED"/>
<circle cx="32.5" cy="22" r="5" fill="#5433ED"/>
<path d="M19.7058 17.0381C20.106 16.5149 20.894 16.5149 21.2942 17.0381L22.555 18.686C22.6731 18.8403 22.8335 18.9569 23.0168 19.0215L24.9736 19.7113C25.5949 19.9303 25.8383 20.6797 25.4645 21.222L24.2868 22.9304C24.1765 23.0903 24.1153 23.2789 24.1104 23.4732L24.0591 25.5474C24.0428 26.2059 23.4053 26.6691 22.774 26.4811L20.7854 25.889C20.5992 25.8335 20.4008 25.8335 20.2146 25.889L18.226 26.4811C17.5947 26.6691 16.9572 26.2059 16.9409 25.5474L16.8896 23.4732C16.8847 23.2789 16.8235 23.0903 16.7132 22.9304L15.5355 21.222C15.1617 20.6797 15.4051 19.9303 16.0264 19.7113L17.9832 19.0215C18.1665 18.9569 18.3269 18.8403 18.445 18.686L19.7058 17.0381Z" fill="#5633EF"/>
<path fill-rule="evenodd" clip-rule="evenodd" d="M8.16672 0H20.8333V6.66672V12.3334H8.16672V0ZM22.8333 7.66672V12.3334H28.5V7.66672C28.5 7.66672 28.5 7.66672 28.4999 7.66672H22.8333ZM28.5 5.66672C28.5 5.66672 28.5 5.66672 28.4999 5.66672H22.8333V0H25.448C27.1336 0 28.5 1.36643 28.5 3.052V5.66672ZM6.16672 12.3334V7.66672H0.5V12.3334H6.16672ZM6.16672 0V5.66672H0.5V3.052C0.5 1.36643 1.86643 0 3.552 0H6.16672ZM0.5 14.3334H6.16672V20.3333H0.5V14.3334ZM0.5 22.3333V24.948C0.5 26.6336 1.86643 28 3.552 28H6.16672V22.3333H0.5ZM8.16672 14.3334H20.8333V21.3333V28H8.16672V14.3334ZM22.8333 28V22.3333H28.4999H28.5V24.948C28.5 26.6336 27.1336 28 25.448 28H22.8333ZM28.4999 20.3333H28.5V14.3334H22.8333V20.3333H28.4999Z" fill="#2BD4D9"/>
</svg>
