<svg width="52" height="54" viewBox="0 0 52 54" fill="none" xmlns="http://www.w3.org/2000/svg">
<path fill-rule="evenodd" clip-rule="evenodd" d="M32.4559 0.496582H4.85806C2.25014 0.496582 0.13623 2.64761 0.13623 5.30062V25.8364C0.13623 28.3267 2.12127 30.3456 4.56923 30.3456L4.51666 34.3297L8.95758 30.3456H32.4559C35.0638 30.3456 37.1777 28.1951 37.1777 25.5421V5.30062C37.1777 2.64761 35.0638 0.496582 32.4559 0.496582Z" fill="#2BD4D9"/>
<path fill-rule="evenodd" clip-rule="evenodd" d="M40.5736 24.1549C33.7514 21.9226 27.5459 28.2164 29.7412 35.142C30.537 37.6508 32.4915 39.6345 34.9638 40.4423C41.7843 42.6689 47.9853 36.3791 45.7928 29.4564C44.9986 26.9476 43.0453 24.9633 40.5736 24.1549Z" fill="#5433ED"/>
<path fill-rule="evenodd" clip-rule="evenodd" d="M51.2408 32.2281L51.6144 29.8786L50.4885 27.7922L50.0906 25.4467L48.357 23.8444L47.2311 21.7569L45.0788 20.8117L43.3469 19.2094L41.0086 19.0236L38.8563 18.0791L36.5864 18.6746L34.2486 18.4905L32.2924 19.8026L30.0214 20.3986L28.5919 22.2831L26.634 23.5946L25.8846 25.8489L24.4534 27.7351L24.4653 30.1146L23.7158 32.3689L24.4879 34.6163L24.4992 36.9958L25.949 38.8653L26.7216 41.1121L28.6909 42.404L30.1395 44.2746L32.4156 44.8475L34.386 46.1388L36.7209 45.9305L38.997 46.5029L41.1403 45.5364L43.4758 45.3276L45.1929 43.708L47.3346 42.7409L48.4401 40.6424L50.1578 39.0205L50.5326 36.6721L51.6387 34.5736L51.2408 32.2281ZM40.8724 42.247C32.826 44.6473 25.5986 37.3183 27.9606 29.1516C28.9051 25.8841 31.4418 23.309 34.6613 22.3483C42.7066 19.948 49.9334 27.2769 47.5725 35.4431C46.628 38.7112 44.0919 41.2863 40.8724 42.247Z" fill="#5433ED"/>
<path fill-rule="evenodd" clip-rule="evenodd" d="M37.7668 26.7395L39.3759 30.0486L42.9747 30.5794L40.3707 33.1557L40.9851 36.793L37.7668 35.0753L34.5478 36.793L35.1628 33.1557L32.5588 30.5794L36.157 30.0486L37.7668 26.7395Z" fill="white"/>
<path fill-rule="evenodd" clip-rule="evenodd" d="M50.5677 47.0559L45.7175 48.1498L44.6391 53.0722L39.8076 48.117C42.9107 47.709 45.73 46.3814 47.9914 44.4138L50.5677 47.0559Z" fill="#5433ED"/>
<path fill-rule="evenodd" clip-rule="evenodd" d="M24.9729 47.0559L29.823 48.1498L30.9009 53.0722L35.7329 48.117C32.6299 47.709 29.8106 46.3814 27.5492 44.4138L24.9729 47.0559Z" fill="#5433ED"/>
<path fill-rule="evenodd" clip-rule="evenodd" d="M25.4189 21.4716C25.0306 21.4716 24.67 21.4734 24.31 21.4716C23.7764 21.4682 23.4633 21.1543 23.4627 20.6154C23.4605 19.1296 23.4605 17.6444 23.4627 16.1587C23.4639 15.6325 23.7838 15.3111 24.2998 15.3088C24.6548 15.307 25.0097 15.307 25.3652 15.3053C25.376 15.3053 25.3873 15.2984 25.4042 15.292C25.5032 13.864 25.2703 12.5144 24.4722 11.2791C24.4281 11.3177 24.3869 11.3506 24.3495 11.3875C23.7838 11.9512 23.1253 11.9501 22.5522 11.3858C21.8914 10.7349 21.1092 10.3224 20.1946 10.1914C18.7901 9.99063 17.5641 10.3836 16.5382 11.3783C16.1872 11.7187 15.8001 11.8976 15.3253 11.7574C15.1393 11.702 14.9715 11.5722 14.8064 11.4591C14.7397 11.4135 14.7041 11.3223 14.638 11.2283C13.8088 12.5046 13.5731 13.853 13.6732 15.3088H14.3938C14.5283 15.3088 14.6634 15.3076 14.7979 15.3088C15.2801 15.3134 15.6096 15.6359 15.6124 16.1246C15.6186 16.8955 15.6147 17.6658 15.6147 18.4366C15.6147 19.1579 15.6158 19.8785 15.6141 20.5998C15.6124 21.1537 15.3049 21.4699 14.7635 21.4711C14.2367 21.4728 13.7099 21.4814 13.1831 21.4653C12.1584 21.4341 11.3269 20.5831 11.3094 19.5439C11.2959 18.773 11.2975 18.0022 11.3089 17.2319C11.3213 16.3826 11.9023 15.6296 12.7213 15.3907C12.8485 15.3538 12.8813 15.3001 12.8785 15.1743C12.8592 14.321 12.8751 13.4693 13.1356 12.6471C13.9676 10.0218 15.7108 8.38082 18.3775 7.86556C21.9236 7.18125 25.3489 9.57634 26.0718 13.1647C26.2029 13.8149 26.2091 14.4733 26.1972 15.1322C26.195 15.2805 26.2238 15.3538 26.3849 15.4022C27.2067 15.6492 27.7612 16.4091 27.7697 17.2832C27.7765 17.9912 27.7725 18.6998 27.7714 19.4083C27.7697 20.3898 27.2361 21.1202 26.3142 21.4064C26.2803 21.4174 26.2464 21.4301 26.2001 21.4462C26.2001 21.6961 26.2012 21.9442 26.2001 22.1923C26.1927 23.4167 25.3573 24.2585 24.1472 24.2597C23.1858 24.2602 22.2243 24.2597 21.2522 24.2597C21.2279 24.3185 21.2069 24.3751 21.1809 24.4287C20.9622 24.8857 20.6135 25.1857 20.1104 25.2313C19.7283 25.2654 19.3378 25.2694 18.9562 25.2296C18.2492 25.1557 17.7427 24.513 17.7761 23.7842C17.8083 23.0809 18.3905 22.4912 19.0879 22.4739C19.4485 22.4652 19.8137 22.4542 20.1698 22.5016C20.6536 22.5656 20.9933 22.8656 21.1866 23.318C21.2369 23.4363 21.2945 23.4703 21.4155 23.4698C22.3345 23.4651 23.253 23.4698 24.1715 23.4663C24.9204 23.4634 25.4161 22.958 25.4189 22.2027C25.4195 21.9673 25.4189 21.7324 25.4189 21.4716Z" fill="white"/>
</svg>
