<svg width="19" height="16" viewBox="0 0 19 16" fill="none" xmlns="http://www.w3.org/2000/svg">
<path d="M1.448 6.97656C0.895713 6.97656 0.447998 7.42428 0.447998 7.97656C0.447998 8.52885 0.895713 8.97656 1.448 8.97656V6.97656ZM18.1551 8.68367C18.5456 8.29315 18.5456 7.65998 18.1551 7.26946L11.7911 0.905495C11.4006 0.51497 10.7675 0.51497 10.3769 0.905495C9.98641 1.29602 9.98641 1.92918 10.3769 2.31971L16.0338 7.97656L10.3769 13.6334C9.98641 14.0239 9.98641 14.6571 10.3769 15.0476C10.7675 15.4382 11.4006 15.4382 11.7911 15.0476L18.1551 8.68367ZM1.448 8.97656H17.448V6.97656H1.448V8.97656Z" fill="#2BD4D9"/>
</svg>
