<svg width="19" height="16" viewBox="0 0 19 16" fill="none" xmlns="http://www.w3.org/2000/svg">
<path d="M17.4479 8.97656C18.0002 8.97656 18.4479 8.52885 18.4479 7.97656C18.4479 7.42428 18.0002 6.97656 17.4479 6.97656L17.4479 8.97656ZM0.740829 7.26946C0.350306 7.65998 0.350306 8.29315 0.74083 8.68367L7.10479 15.0476C7.49532 15.4382 8.12848 15.4382 8.51901 15.0476C8.90953 14.6571 8.90953 14.0239 8.51901 13.6334L2.86215 7.97656L8.519 2.31971C8.90953 1.92918 8.90953 1.29602 8.519 0.905495C8.12848 0.514971 7.49531 0.514971 7.10479 0.905496L0.740829 7.26946ZM17.4479 6.97656L1.44794 6.97656L1.44794 8.97656L17.4479 8.97656L17.4479 6.97656Z" fill="white"/>
</svg>
