<svg width="37" height="37" viewBox="0 0 37 37" fill="none" xmlns="http://www.w3.org/2000/svg">
<path fill-rule="evenodd" clip-rule="evenodd" d="M7.66672 0H20.3333V6.66672V12.3334H7.66672V0ZM22.3333 7.66672V12.3334H28V7.66672C28 7.66672 28 7.66672 27.9999 7.66672H22.3333ZM28 5.66672C28 5.66672 28 5.66672 27.9999 5.66672H22.3333V0H24.948C26.6336 0 28 1.36643 28 3.052V5.66672ZM5.66672 12.3334V7.66672H0V12.3334H5.66672ZM5.66672 0V5.66672H0V3.052C0 1.36643 1.36643 0 3.052 0H5.66672ZM0 14.3334H5.66672V20.3333H0V14.3334ZM0 22.3333V24.948C0 26.6336 1.36643 28 3.052 28H5.66672V22.3333H0ZM7.66672 14.3334H20.3333V21.3333V28H7.66672V14.3334ZM22.3333 28V22.3333H27.9999H28V24.948C28 26.6336 26.6336 28 24.948 28H22.3333ZM27.9999 20.3333H28V14.3334H22.3333V20.3333H27.9999Z" fill="#2BD4D9"/>
<path d="M34.3638 17.8333C34.3638 19.5534 32.9695 20.9479 31.2493 20.9479C29.5291 20.9479 28.1348 19.5534 28.1348 17.8333C28.1348 16.1133 29.5291 14.7188 31.2493 14.7188C32.9695 14.7188 34.3638 16.1133 34.3638 17.8333Z" fill="#5433ED"/>
<path d="M31.2503 21.6667C29.1361 21.6667 27.417 19.9474 27.417 17.8333C27.417 15.7193 29.1361 14 31.2503 14C33.3644 14 35.0835 15.7193 35.0835 17.8333C35.0835 19.9474 33.3644 21.6667 31.2503 21.6667ZM31.2503 15.4375C29.9287 15.4375 28.8545 16.5128 28.8545 17.8333C28.8545 19.1539 29.9287 20.2292 31.2503 20.2292C32.5718 20.2292 33.646 19.1539 33.646 17.8333C33.646 16.5128 32.5718 15.4375 31.2503 15.4375Z" fill="#5433ED"/>
<path d="M34.3638 33.1674C34.3638 34.8874 32.9695 36.2819 31.2493 36.2819C29.5291 36.2819 28.1348 34.8874 28.1348 33.1674C28.1348 31.4472 29.5291 30.0527 31.2493 30.0527C32.9695 30.0527 34.3638 31.4472 34.3638 33.1674Z" fill="#5433ED"/>
<path d="M31.2503 36.9997C29.1361 36.9997 27.417 35.2804 27.417 33.1664C27.417 31.0523 29.1361 29.333 31.2503 29.333C33.3644 29.333 35.0835 31.0523 35.0835 33.1664C35.0835 35.2804 33.3644 36.9997 31.2503 36.9997ZM31.2503 30.7705C29.9287 30.7705 28.8545 31.8458 28.8545 33.1664C28.8545 34.4869 29.9287 35.5622 31.2503 35.5622C32.5718 35.5622 33.646 34.4869 33.646 33.1664C33.646 31.8458 32.5718 30.7705 31.2503 30.7705Z" fill="#5433ED"/>
<path d="M20.9479 25.5003C20.9479 27.2204 19.5534 28.6148 17.8333 28.6148C16.1133 28.6148 14.7188 27.2204 14.7188 25.5003C14.7188 23.7801 16.1133 22.3857 17.8333 22.3857C19.5534 22.3857 20.9479 23.7801 20.9479 25.5003Z" fill="#5433ED"/>
<path d="M17.8333 29.3335C15.7193 29.3335 14 27.6144 14 25.5003C14 23.3861 15.7193 21.667 17.8333 21.667C19.9474 21.667 21.6667 23.3861 21.6667 25.5003C21.6667 27.6144 19.9474 29.3335 17.8333 29.3335ZM17.8333 23.1045C16.5118 23.1045 15.4375 24.1796 15.4375 25.5003C15.4375 26.8209 16.5118 27.896 17.8333 27.896C19.1549 27.896 20.2292 26.8209 20.2292 25.5003C20.2292 24.1796 19.1549 23.1045 17.8333 23.1045Z" fill="#5433ED"/>
<path d="M20.096 25.0402C19.7624 25.0402 19.4385 24.8666 19.2621 24.5562C19.0005 24.0972 19.1616 23.5116 19.6206 23.2489L28.5128 18.1794C28.9719 17.9159 29.5575 18.077 29.8201 18.5378C30.0818 18.9968 29.9207 19.5824 29.4616 19.845L20.5693 24.9145C20.4198 24.9998 20.2569 25.0402 20.096 25.0402Z" fill="#5433ED"/>
<path d="M28.9873 32.9462C28.8262 32.9462 28.6634 32.9059 28.5139 32.8206L19.6215 27.7511C19.1624 27.4895 19.0015 26.9039 19.2632 26.4438C19.5237 25.9839 20.1102 25.8219 20.5703 26.0855L29.4627 31.155C29.9217 31.4166 30.0826 32.0022 29.821 32.4623C29.6438 32.7727 29.3198 32.9462 28.9873 32.9462Z" fill="#5433ED"/>
</svg>
