<svg width="24" height="24" viewBox="0 0 24 24" fill="none" xmlns="http://www.w3.org/2000/svg">
<path d="M23.9374 9.20634C23.7803 8.72037 23.3493 8.3752 22.8393 8.32924L15.9123 7.70026L13.1731 1.28902C12.9712 0.819161 12.5112 0.515015 12.0001 0.515015C11.4891 0.515015 11.0291 0.819161 10.8271 1.29012L8.08797 7.70026L1.15982 8.32924C0.65077 8.3763 0.220828 8.72037 0.0628038 9.20634C-0.0952203 9.69231 0.0507185 10.2253 0.435799 10.5614L5.67183 15.1534L4.12785 21.9547C4.01487 22.4547 4.20897 22.9716 4.62389 23.2716C4.84692 23.4327 5.10785 23.5148 5.37098 23.5148C5.59786 23.5148 5.8229 23.4536 6.02487 23.3327L12.0001 19.7615L17.9732 23.3327C18.4103 23.5957 18.9612 23.5717 19.3752 23.2716C19.7904 22.9707 19.9843 22.4536 19.8713 21.9547L18.3273 15.1534L23.5633 10.5623C23.9484 10.2253 24.0955 9.69323 23.9374 9.20634Z" fill="#FFC107"/>
</svg>
