<svg width="1440" height="494" viewBox="0 0 1440 494" fill="none" xmlns="http://www.w3.org/2000/svg">
<mask id="mask0_374_359" style="mask-type:alpha" maskUnits="userSpaceOnUse" x="0" y="0" width="1440" height="494">
<rect width="1440" height="494" fill="#C4C4C4"/>
</mask>
<g mask="url(#mask0_374_359)">
<path opacity="0.05" d="M1642.05 245.454C1629.51 220.34 1604.99 204.729 1579.59 200.002C1554.2 195.288 1527.99 200.353 1503.29 208.933C1476.4 218.287 1450.11 231.92 1422.05 233.576C1386.87 235.651 1352.96 218.439 1324.41 195.668C1309.58 183.846 1295.7 170.414 1279.81 160.456C1263.91 150.512 1245.31 144.161 1227.32 148.092C1188.01 156.66 1166.68 208.847 1128.44 222.387C1110.13 228.874 1090.5 225.551 1071.41 224.303C1052.31 223.056 1031.44 224.651 1016.79 238.623C997.055 257.484 996.183 291.542 1002.92 319.378C1014 365.233 1045.35 407.919 1087.34 414.776C1109.67 418.417 1132.56 411.802 1155.05 414.043C1163.49 414.899 1171.78 417.001 1179.7 420.294C1180.73 421.053 1181.73 421.824 1182.73 422.623C1205.28 440.63 1222.23 467.057 1246.75 481.492C1247.2 481.759 1247.66 482.013 1248.12 482.267C1250.01 483.768 1251.99 485.147 1254.02 486.398C1265.95 493.723 1279.85 496.054 1293.58 494.891C1297.18 495.169 1300.79 495.296 1304.39 495.314C1351.92 495.478 1398.35 478.081 1436.49 445.813C1464.17 422.264 1487.13 391.084 1518.28 373.932C1545.8 358.797 1577.27 355.988 1605.97 344.04C1616.2 339.787 1626.24 334.227 1634.06 325.664C1652.6 305.366 1654.58 270.554 1642.05 245.454Z" fill="#2BD4D9"/>
<path opacity="0.2" d="M1.63897 395.279C1.21413 394.926 0.583661 394.985 0.230768 395.41C-0.122125 395.834 -0.0638047 396.465 0.36103 396.818L1.63897 395.279ZM256.911 480.142L257.367 481.032C257.396 481.017 257.423 481.001 257.45 480.984L256.911 480.142ZM1150.96 341.115L1151.4 340.217C1151.37 340.203 1151.34 340.19 1151.31 340.179L1150.96 341.115ZM1440.5 341.979C1440.98 341.701 1441.14 341.089 1440.86 340.612C1440.59 340.134 1439.97 339.973 1439.5 340.252L1440.5 341.979ZM4.29013 400.065C4.71669 400.416 5.34687 400.355 5.69768 399.928C6.04849 399.502 5.98708 398.872 5.56053 398.521L4.29013 400.065ZM13.4533 404.944C13.0231 404.597 12.3936 404.665 12.0473 405.096C11.701 405.526 11.769 406.155 12.1992 406.502L13.4533 404.944ZM20.1795 412.851C20.6137 413.192 21.2423 413.117 21.5837 412.683C21.925 412.249 21.8497 411.62 21.4155 411.279L20.1795 412.851ZM29.4526 417.517C29.0142 417.181 28.3865 417.264 28.0507 417.702C27.7149 418.141 27.798 418.769 28.2365 419.104L29.4526 417.517ZM36.3761 425.252C36.8191 425.581 37.4456 425.49 37.7754 425.047C38.1051 424.604 38.0133 423.977 37.5703 423.647L36.3761 425.252ZM45.7742 429.66C45.3262 429.337 44.7012 429.438 44.3781 429.886C44.0551 430.334 44.1563 430.959 44.6043 431.282L45.7742 429.66ZM52.9271 437.182C53.3803 437.498 54.0036 437.387 54.3192 436.933C54.6349 436.48 54.5234 435.857 54.0702 435.541L52.9271 437.182ZM62.4645 441.279C62.0057 440.971 61.3845 441.094 61.077 441.553C60.7696 442.011 60.8922 442.633 61.351 442.94L62.4645 441.279ZM69.8823 448.539C70.347 448.838 70.9657 448.703 71.2641 448.238C71.5625 447.774 71.4277 447.155 70.963 446.857L69.8823 448.539ZM79.572 452.257C79.101 451.969 78.4854 452.117 78.197 452.588C77.9086 453.059 78.0566 453.675 78.5276 453.963L79.572 452.257ZM87.2934 459.192C87.7711 459.469 88.383 459.306 88.6603 458.829C88.9375 458.351 88.775 457.739 88.2974 457.462L87.2934 459.192ZM97.1449 462.448C96.6603 462.183 96.0527 462.361 95.7879 462.846C95.5231 463.33 95.7013 463.938 96.1859 464.203L97.1449 462.448ZM105.216 468.974C105.708 469.225 106.31 469.03 106.561 468.538C106.812 468.046 106.616 467.443 106.125 467.192L105.216 468.974ZM115.245 471.669C114.745 471.433 114.149 471.648 113.914 472.147C113.678 472.647 113.892 473.243 114.392 473.478L115.245 471.669ZM123.713 477.679C124.221 477.897 124.809 477.662 125.027 477.155C125.245 476.647 125.01 476.059 124.503 475.841L123.713 477.679ZM133.901 479.673C133.386 479.474 132.807 479.731 132.609 480.246C132.41 480.762 132.667 481.34 133.182 481.539L133.901 479.673ZM142.799 485.016C143.322 485.193 143.889 484.912 144.066 484.389C144.243 483.866 143.962 483.298 143.439 483.122L142.799 485.016ZM153.111 486.142C152.58 485.99 152.026 486.297 151.874 486.828C151.722 487.359 152.029 487.913 152.56 488.065L153.111 486.142ZM162.46 490.632C162.998 490.757 163.535 490.422 163.66 489.884C163.784 489.346 163.449 488.808 162.911 488.684L162.46 490.632ZM172.846 490.695C172.301 490.601 171.784 490.966 171.69 491.51C171.596 492.055 171.961 492.572 172.505 492.666L172.846 490.695ZM182.652 494.1C183.201 494.16 183.695 493.764 183.755 493.215C183.815 492.666 183.419 492.172 182.87 492.112L182.652 494.1ZM192.953 492.877C192.401 492.854 191.935 493.283 191.912 493.835C191.889 494.386 192.318 494.852 192.87 494.875L192.953 492.877ZM203.121 494.934C203.673 494.917 204.107 494.455 204.09 493.903C204.073 493.351 203.611 492.918 203.059 492.935L203.121 494.934ZM213.141 492.237C212.592 492.296 212.195 492.79 212.255 493.339C212.314 493.888 212.808 494.285 213.357 494.225L213.141 492.237ZM223.505 492.713C224.048 492.609 224.404 492.086 224.3 491.543C224.197 491.001 223.673 490.645 223.131 490.748L223.505 492.713ZM232.968 488.451C232.436 488.598 232.124 489.149 232.272 489.682C232.42 490.214 232.971 490.525 233.503 490.378L232.968 488.451ZM243.269 487.228C243.787 487.037 244.052 486.462 243.861 485.944C243.67 485.426 243.095 485.16 242.577 485.351L243.269 487.228ZM251.895 481.478C251.394 481.711 251.177 482.305 251.409 482.806C251.641 483.307 252.236 483.525 252.737 483.293L251.895 481.478ZM261.617 478.332C262.084 478.037 262.223 477.419 261.927 476.952C261.632 476.485 261.014 476.347 260.548 476.642L261.617 478.332ZM268.954 471.383C268.485 471.674 268.339 472.29 268.63 472.76C268.92 473.23 269.536 473.375 270.006 473.085L268.954 471.383ZM278.467 467.914C278.94 467.628 279.091 467.014 278.806 466.541C278.52 466.068 277.906 465.916 277.433 466.202L278.467 467.914ZM285.958 461.111C285.483 461.392 285.325 462.005 285.606 462.481C285.886 462.956 286.499 463.114 286.975 462.834L285.958 461.111ZM295.522 457.847C296 457.571 296.164 456.959 295.888 456.481C295.612 456.003 295.001 455.839 294.522 456.114L295.522 457.847ZM303.152 451.194C302.671 451.465 302.5 452.075 302.772 452.556C303.043 453.037 303.653 453.208 304.134 452.936L303.152 451.194ZM312.793 448.111C313.277 447.845 313.453 447.237 313.187 446.753C312.92 446.269 312.312 446.093 311.828 446.36L312.793 448.111ZM320.535 441.618C320.049 441.88 319.867 442.486 320.129 442.973C320.39 443.459 320.997 443.641 321.483 443.379L320.535 441.618ZM330.233 438.722C330.722 438.465 330.91 437.861 330.653 437.372C330.395 436.883 329.791 436.695 329.302 436.952L330.233 438.722ZM338.116 432.368C337.625 432.621 337.431 433.224 337.684 433.715C337.936 434.206 338.539 434.4 339.03 434.147L338.116 432.368ZM347.852 429.663C348.345 429.415 348.544 428.814 348.296 428.321C348.048 427.827 347.447 427.628 346.954 427.876L347.852 429.663ZM355.846 423.459C355.35 423.703 355.145 424.302 355.389 424.798C355.632 425.294 356.231 425.498 356.727 425.255L355.846 423.459ZM365.65 420.924C366.148 420.685 366.358 420.088 366.119 419.59C365.88 419.092 365.283 418.882 364.785 419.121L365.65 420.924ZM373.742 414.872C373.242 415.107 373.027 415.702 373.261 416.202C373.496 416.702 374.091 416.918 374.591 416.683L373.742 414.872ZM383.581 412.517C384.083 412.287 384.304 411.694 384.074 411.191C383.844 410.689 383.251 410.469 382.748 410.699L383.581 412.517ZM391.801 406.6C391.297 406.826 391.071 407.418 391.297 407.922C391.522 408.426 392.114 408.652 392.618 408.426L391.801 406.6ZM401.67 404.423C402.176 404.202 402.407 403.612 402.186 403.106C401.964 402.6 401.375 402.369 400.869 402.59L401.67 404.423ZM409.98 398.655C409.472 398.872 409.236 399.46 409.453 399.968C409.67 400.475 410.257 400.712 410.765 400.495L409.98 398.655ZM419.902 396.641C420.412 396.428 420.653 395.843 420.44 395.333C420.228 394.823 419.642 394.582 419.133 394.795L419.902 396.641ZM428.305 391.018C427.793 391.226 427.547 391.809 427.755 392.321C427.963 392.832 428.547 393.078 429.058 392.87L428.305 391.018ZM438.25 389.175C438.763 388.971 439.014 388.39 438.81 387.876C438.607 387.363 438.025 387.112 437.512 387.316L438.25 389.175ZM446.756 383.689C446.241 383.889 445.985 384.468 446.185 384.983C446.384 385.498 446.964 385.754 447.479 385.554L446.756 383.689ZM456.73 382.012C457.247 381.817 457.507 381.24 457.312 380.723C457.117 380.206 456.54 379.946 456.023 380.141L456.73 382.012ZM465.319 376.67C464.801 376.861 464.536 377.436 464.727 377.954C464.918 378.472 465.493 378.737 466.011 378.546L465.319 376.67ZM475.324 375.155C475.843 374.968 476.113 374.395 475.926 373.875C475.739 373.356 475.166 373.086 474.647 373.273L475.324 375.155ZM484 369.952C483.479 370.135 483.204 370.705 483.387 371.226C483.57 371.748 484.14 372.022 484.661 371.839L484 369.952ZM494.025 368.6C494.547 368.421 494.826 367.853 494.648 367.33C494.469 366.807 493.901 366.529 493.378 366.707L494.025 368.6ZM502.783 363.537C502.259 363.711 501.976 364.277 502.15 364.801C502.324 365.325 502.89 365.609 503.414 365.435L502.783 363.537ZM512.83 362.344C513.355 362.174 513.643 361.61 513.473 361.084C513.303 360.559 512.739 360.271 512.214 360.441L512.83 362.344ZM521.668 357.42C521.141 357.586 520.849 358.148 521.015 358.675C521.181 359.201 521.743 359.494 522.269 359.328L521.668 357.42ZM531.73 356.387C532.259 356.225 532.555 355.665 532.393 355.137C532.232 354.609 531.672 354.313 531.144 354.474L531.73 356.387ZM540.643 351.603C540.114 351.761 539.813 352.318 539.971 352.847C540.129 353.376 540.685 353.677 541.215 353.52L540.643 351.603ZM550.725 350.725C551.256 350.572 551.561 350.017 551.408 349.487C551.254 348.956 550.699 348.651 550.169 348.804L550.725 350.725ZM559.711 346.081C559.179 346.231 558.87 346.783 559.019 347.314C559.169 347.846 559.721 348.156 560.253 348.006L559.711 346.081ZM569.798 345.362C570.33 345.217 570.644 344.667 570.499 344.134C570.354 343.602 569.804 343.287 569.271 343.433L569.798 345.362ZM578.862 340.855C578.329 340.997 578.01 341.544 578.152 342.078C578.293 342.612 578.84 342.93 579.374 342.789L578.862 340.855ZM588.962 340.292C589.497 340.154 589.82 339.61 589.683 339.075C589.546 338.54 589.001 338.217 588.466 338.354L588.962 340.292ZM598.079 335.929C597.543 336.062 597.217 336.605 597.35 337.141C597.483 337.677 598.025 338.003 598.561 337.87L598.079 335.929ZM608.199 335.518C608.736 335.389 609.066 334.849 608.938 334.312C608.809 333.775 608.269 333.444 607.732 333.573L608.199 335.518ZM617.391 331.294C616.853 331.418 616.518 331.956 616.643 332.494C616.768 333.032 617.305 333.367 617.843 333.242L617.391 331.294ZM627.493 331.043C628.032 330.922 628.372 330.387 628.251 329.848C628.13 329.31 627.596 328.97 627.057 329.091L627.493 331.043ZM636.76 326.958C636.221 327.074 635.877 327.607 635.994 328.146C636.11 328.686 636.642 329.029 637.182 328.913L636.76 326.958ZM646.879 326.859C647.42 326.747 647.767 326.218 647.655 325.677C647.542 325.136 647.013 324.789 646.472 324.901L646.879 326.859ZM656.185 322.922C655.643 323.031 655.292 323.557 655.4 324.099C655.508 324.64 656.035 324.992 656.576 324.884L656.185 322.922ZM666.31 322.978C666.852 322.874 667.208 322.35 667.104 321.808C667 321.265 666.476 320.91 665.933 321.014L666.31 322.978ZM675.693 319.182C675.15 319.282 674.79 319.803 674.89 320.346C674.99 320.889 675.511 321.249 676.055 321.149L675.693 319.182ZM685.794 319.398C686.338 319.303 686.701 318.784 686.606 318.24C686.51 317.697 685.992 317.333 685.448 317.429L685.794 319.398ZM695.236 315.748C694.691 315.839 694.324 316.355 694.415 316.899C694.507 317.444 695.022 317.812 695.567 317.72L695.236 315.748ZM705.354 316.118C705.9 316.031 706.271 315.518 706.184 314.973C706.097 314.427 705.584 314.056 705.039 314.143L705.354 316.118ZM714.832 312.618C714.286 312.701 713.91 313.211 713.993 313.757C714.076 314.303 714.586 314.678 715.132 314.596L714.832 312.618ZM724.938 313.148C725.485 313.069 725.864 312.562 725.786 312.016C725.707 311.469 725.2 311.09 724.654 311.168L724.938 313.148ZM734.495 309.795C733.948 309.869 733.564 310.373 733.639 310.92C733.713 311.467 734.217 311.851 734.764 311.776L734.495 309.795ZM744.574 310.487C745.122 310.417 745.509 309.916 745.439 309.368C745.37 308.82 744.869 308.433 744.321 308.503L744.574 310.487ZM754.172 307.288C753.624 307.353 753.232 307.851 753.297 308.399C753.363 308.947 753.86 309.339 754.409 309.274L754.172 307.288ZM764.268 308.138C764.817 308.077 765.212 307.583 765.151 307.034C765.09 306.485 764.596 306.09 764.047 306.15L764.268 308.138ZM773.901 305.097C773.351 305.153 772.952 305.644 773.008 306.194C773.065 306.743 773.556 307.143 774.105 307.086L773.901 305.097ZM783.965 306.113C784.515 306.061 784.918 305.574 784.866 305.024C784.814 304.474 784.326 304.07 783.776 304.122L783.965 306.113ZM793.68 303.228C793.129 303.275 792.722 303.76 792.769 304.31C792.817 304.86 793.301 305.268 793.851 305.22L793.68 303.228ZM803.71 304.413C804.261 304.37 804.672 303.889 804.63 303.338C804.587 302.788 804.106 302.376 803.555 302.419L803.71 304.413ZM813.452 301.692C812.901 301.73 812.485 302.208 812.523 302.758C812.561 303.309 813.039 303.725 813.59 303.687L813.452 301.692ZM823.498 303.044C824.049 303.011 824.469 302.537 824.435 301.986C824.402 301.434 823.928 301.014 823.377 301.048L823.498 303.044ZM833.267 300.492C832.716 300.52 832.292 300.99 832.321 301.542C832.349 302.094 832.82 302.517 833.371 302.489L833.267 300.492ZM843.268 302.019C843.82 301.995 844.248 301.528 844.224 300.976C844.201 300.425 843.734 299.997 843.182 300.02L843.268 302.019ZM853.121 299.636C852.569 299.655 852.137 300.118 852.156 300.67C852.175 301.222 852.637 301.654 853.189 301.635L853.121 299.636ZM863.069 301.342C863.621 301.328 864.058 300.869 864.044 300.317C864.03 299.765 863.571 299.328 863.019 299.342L863.069 301.342ZM872.949 299.137C872.397 299.146 871.956 299.601 871.965 300.153C871.974 300.706 872.429 301.146 872.981 301.137L872.949 299.137ZM882.907 301.024C883.459 301.02 883.904 300.57 883.9 300.017C883.896 299.465 883.445 299.02 882.893 299.024L882.907 301.024ZM892.789 299.004C892.237 299.002 891.788 299.449 891.786 300.001C891.785 300.553 892.231 301.002 892.784 301.004L892.789 299.004ZM902.708 301.078C903.26 301.084 903.713 300.642 903.72 300.09C903.727 299.538 903.284 299.085 902.732 299.078L902.708 301.078ZM912.671 299.248C912.119 299.236 911.661 299.674 911.649 300.226C911.637 300.778 912.075 301.235 912.627 301.248L912.671 299.248ZM922.49 301.514C923.042 301.531 923.504 301.098 923.521 300.546C923.539 299.994 923.106 299.532 922.554 299.515L922.49 301.514ZM932.507 299.883C931.956 299.86 931.489 300.288 931.466 300.84C931.443 301.392 931.871 301.858 932.423 301.881L932.507 299.883ZM942.324 302.349C942.875 302.378 943.346 301.954 943.375 301.403C943.404 300.851 942.98 300.381 942.428 300.352L942.324 302.349ZM952.286 300.921C951.735 300.886 951.26 301.305 951.225 301.856C951.19 302.407 951.609 302.882 952.16 302.917L952.286 300.921ZM962.099 303.597C962.649 303.637 963.129 303.224 963.17 302.673C963.21 302.122 962.797 301.643 962.246 301.602L962.099 303.597ZM972.134 302.387C971.584 302.34 971.1 302.748 971.053 303.299C971.006 303.849 971.414 304.333 971.965 304.38L972.134 302.387ZM981.802 305.271C982.352 305.324 982.84 304.921 982.893 304.371C982.946 303.821 982.544 303.333 981.994 303.28L981.802 305.271ZM991.913 304.293C991.364 304.233 990.87 304.63 990.811 305.18C990.752 305.729 991.149 306.222 991.698 306.281L991.913 304.293ZM1001.51 307.399C1002.06 307.465 1002.56 307.074 1002.62 306.525C1002.69 305.977 1002.3 305.479 1001.75 305.413L1001.51 307.399ZM1011.61 306.656C1011.06 306.584 1010.56 306.969 1010.48 307.517C1010.41 308.064 1010.8 308.567 1011.34 308.639L1011.61 306.656ZM1021.18 310.002C1021.72 310.081 1022.23 309.702 1022.31 309.156C1022.39 308.609 1022.01 308.102 1021.46 308.023L1021.18 310.002ZM1031.23 309.502C1030.68 309.416 1030.17 309.788 1030.08 310.333C1030 310.879 1030.37 311.391 1030.91 311.477L1031.23 309.502ZM1040.74 313.097C1041.28 313.19 1041.8 312.825 1041.89 312.28C1041.98 311.736 1041.62 311.219 1041.07 311.126L1040.74 313.097ZM1050.84 312.871C1050.3 312.77 1049.78 313.128 1049.68 313.671C1049.58 314.214 1049.93 314.736 1050.48 314.837L1050.84 312.871ZM1060.17 316.708C1060.72 316.817 1061.24 316.466 1061.35 315.924C1061.46 315.383 1061.11 314.856 1060.57 314.747L1060.17 316.708ZM1070.33 316.776C1069.79 316.66 1069.26 317.003 1069.14 317.543C1069.03 318.083 1069.37 318.615 1069.91 318.731L1070.33 316.776ZM1079.53 320.878C1080.07 321.002 1080.6 320.667 1080.73 320.128C1080.85 319.59 1080.52 319.053 1079.98 318.929L1079.53 320.878ZM1089.67 321.248C1089.14 321.116 1088.6 321.443 1088.46 321.979C1088.33 322.515 1088.66 323.057 1089.19 323.19L1089.67 321.248ZM1098.78 325.644C1099.32 325.785 1099.86 325.467 1100.01 324.933C1100.15 324.399 1099.83 323.852 1099.3 323.71L1098.78 325.644ZM1108.85 326.321C1108.32 326.171 1107.76 326.481 1107.61 327.012C1107.46 327.544 1107.77 328.096 1108.3 328.246L1108.85 326.321ZM1117.85 331.03C1118.38 331.189 1118.94 330.89 1119.1 330.361C1119.25 329.832 1118.95 329.274 1118.43 329.115L1117.85 331.03ZM1127.86 332.046C1127.33 331.877 1126.77 332.167 1126.6 332.693C1126.43 333.219 1126.72 333.782 1127.25 333.95L1127.86 332.046ZM1136.69 337.076C1137.22 337.255 1137.78 336.976 1137.96 336.453C1138.14 335.93 1137.86 335.362 1137.34 335.184L1136.69 337.076ZM1146.69 338.477C1146.17 338.289 1145.6 338.557 1145.41 339.076C1145.22 339.595 1145.49 340.169 1146.01 340.357L1146.69 338.477ZM1155.25 344.308C1155.75 344.547 1156.35 344.338 1156.59 343.841C1156.83 343.343 1156.62 342.745 1156.12 342.506L1155.25 344.308ZM1165.36 346.9C1164.86 346.665 1164.27 346.88 1164.03 347.381C1163.8 347.881 1164.01 348.476 1164.52 348.71L1165.36 346.9ZM1173.94 353.067C1174.45 353.295 1175.04 353.073 1175.27 352.571C1175.5 352.068 1175.27 351.475 1174.77 351.246L1173.94 353.067ZM1184.12 355.428C1183.61 355.206 1183.02 355.435 1182.8 355.941C1182.58 356.446 1182.81 357.036 1183.31 357.259L1184.12 355.428ZM1192.78 361.347C1193.29 361.562 1193.88 361.324 1194.09 360.816C1194.31 360.307 1194.07 359.72 1193.56 359.505L1192.78 361.347ZM1203.11 363.46C1202.59 363.252 1202.01 363.499 1201.8 364.011C1201.6 364.523 1201.84 365.106 1202.36 365.313L1203.11 363.46ZM1211.93 369.096C1212.45 369.295 1213.02 369.038 1213.22 368.522C1213.42 368.007 1213.16 367.428 1212.65 367.23L1211.93 369.096ZM1222.21 370.808C1221.7 370.619 1221.12 370.888 1220.93 371.407C1220.75 371.926 1221.01 372.5 1221.53 372.688L1222.21 370.808ZM1231.32 376.119C1231.84 376.296 1232.41 376.015 1232.59 375.492C1232.76 374.969 1232.48 374.401 1231.96 374.225L1231.32 376.119ZM1241.76 377.404C1241.23 377.24 1240.67 377.535 1240.51 378.062C1240.35 378.59 1240.64 379.15 1241.17 379.314L1241.76 377.404ZM1251.08 382.24C1251.61 382.389 1252.16 382.078 1252.31 381.547C1252.46 381.015 1252.15 380.463 1251.62 380.314L1251.08 382.24ZM1261.55 382.922C1261.01 382.791 1260.47 383.119 1260.34 383.655C1260.2 384.192 1260.53 384.733 1261.07 384.865L1261.55 382.922ZM1271.15 387.144C1271.69 387.256 1272.22 386.908 1272.33 386.367C1272.44 385.826 1272.09 385.297 1271.55 385.186L1271.15 387.144ZM1281.64 387.053C1281.09 386.964 1280.58 387.334 1280.49 387.879C1280.4 388.424 1280.77 388.938 1281.31 389.027L1281.64 387.053ZM1291.56 390.453C1292.11 390.516 1292.6 390.122 1292.67 389.574C1292.73 389.025 1292.34 388.529 1291.79 388.466L1291.56 390.453ZM1301.98 389.361C1301.43 389.328 1300.96 389.748 1300.92 390.3C1300.89 390.851 1301.31 391.325 1301.86 391.358L1301.98 389.361ZM1312.19 391.674C1312.74 391.674 1313.19 391.227 1313.19 390.674C1313.19 390.122 1312.75 389.674 1312.19 389.674L1312.19 391.674ZM1322.43 389.344C1321.88 389.38 1321.46 389.856 1321.5 390.407C1321.53 390.958 1322.01 391.376 1322.56 391.34L1322.43 389.344ZM1332.88 390.302C1333.43 390.228 1333.82 389.724 1333.74 389.177C1333.67 388.629 1333.16 388.246 1332.62 388.321L1332.88 390.302ZM1342.68 386.585C1342.14 386.698 1341.79 387.228 1341.91 387.769C1342.02 388.309 1342.55 388.656 1343.09 388.543L1342.68 386.585ZM1353.16 386.064C1353.69 385.914 1354 385.361 1353.85 384.83C1353.7 384.298 1353.15 383.99 1352.62 384.14L1353.16 386.064ZM1362.37 381.032C1361.85 381.216 1361.57 381.787 1361.76 382.308C1361.94 382.829 1362.51 383.101 1363.03 382.917L1362.37 381.032ZM1372.69 379.178C1373.2 378.964 1373.44 378.378 1373.23 377.869C1373.01 377.359 1372.43 377.12 1371.92 377.333L1372.69 379.178ZM1381.27 373.14C1380.77 373.377 1380.56 373.974 1380.79 374.473C1381.03 374.971 1381.63 375.183 1382.13 374.946L1381.27 373.14ZM1391.38 370.319C1391.87 370.064 1392.06 369.459 1391.81 368.97C1391.55 368.48 1390.95 368.291 1390.46 368.546L1391.38 370.319ZM1399.49 363.668C1399 363.936 1398.83 364.545 1399.1 365.028C1399.37 365.51 1399.98 365.684 1400.46 365.415L1399.49 363.668ZM1409.43 360.314C1409.9 360.037 1410.07 359.425 1409.79 358.947C1409.51 358.469 1408.9 358.306 1408.42 358.583L1409.43 360.314ZM1417.31 353.369C1416.84 353.651 1416.68 354.264 1416.96 354.739C1417.24 355.215 1417.86 355.372 1418.33 355.091L1417.31 353.369ZM1427.19 349.836C1427.66 349.554 1427.82 348.941 1427.53 348.466C1427.25 347.991 1426.64 347.835 1426.16 348.117L1427.19 349.836ZM1435.02 342.873C1434.55 343.153 1434.39 343.766 1434.67 344.242C1434.95 344.718 1435.56 344.876 1436.04 344.596L1435.02 342.873ZM0.36103 396.818C1.66797 397.903 2.97771 398.986 4.29013 400.065L5.56053 398.521C4.25068 397.443 2.94346 396.363 1.63897 395.279L0.36103 396.818ZM12.1992 406.502C14.8495 408.635 17.5099 410.752 20.1795 412.851L21.4155 411.279C18.7522 409.185 16.0979 407.072 13.4533 404.944L12.1992 406.502ZM28.2365 419.104C30.9414 421.176 33.6548 423.226 36.3761 425.252L37.5703 423.647C34.8566 421.628 32.1505 419.583 29.4526 417.517L28.2365 419.104ZM44.6043 431.282C47.3716 433.278 50.1462 435.245 52.9271 437.182L54.0702 435.541C51.2986 433.611 48.533 431.649 45.7742 429.66L44.6043 431.282ZM61.351 442.94C64.1893 444.842 67.0334 446.71 69.8823 448.539L70.963 446.857C68.1255 445.034 65.2924 443.174 62.4645 441.279L61.351 442.94ZM78.5276 453.963C81.4456 455.75 84.3679 457.494 87.2934 459.192L88.2974 457.462C85.3859 455.772 82.4771 454.036 79.572 452.257L78.5276 453.963ZM96.1859 464.203C99.1936 465.846 102.204 467.438 105.216 468.974L106.125 467.192C103.13 465.665 100.137 464.082 97.1449 462.448L96.1859 464.203ZM114.392 473.478C117.499 474.942 120.606 476.344 123.713 477.679L124.503 475.841C121.418 474.515 118.331 473.123 115.245 471.669L114.392 473.478ZM133.182 481.539C136.39 482.774 139.596 483.935 142.799 485.016L143.439 483.122C140.263 482.05 137.084 480.898 133.901 479.673L133.182 481.539ZM152.56 488.065C155.864 489.011 159.165 489.869 162.46 490.632L162.911 488.684C159.651 487.928 156.384 487.08 153.111 486.142L152.56 488.065ZM172.505 492.666C175.895 493.251 179.278 493.731 182.652 494.1L182.87 492.112C179.538 491.748 176.196 491.274 172.846 490.695L172.505 492.666ZM192.87 494.875C196.298 495.018 199.716 495.039 203.121 494.934L203.059 492.935C199.704 493.039 196.334 493.018 192.953 492.877L192.87 494.875ZM213.357 494.225C216.755 493.857 220.138 493.354 223.505 492.713L223.131 490.748C219.817 491.38 216.487 491.874 213.141 492.237L213.357 494.225ZM233.503 490.378C236.776 489.469 240.032 488.421 243.269 487.228L242.577 485.351C239.392 486.526 236.189 487.557 232.968 488.451L233.503 490.378ZM252.737 483.293C254.285 482.574 255.829 481.821 257.367 481.032L256.455 479.252C254.94 480.029 253.42 480.771 251.895 481.478L252.737 483.293ZM257.45 480.984C258.836 480.097 260.225 479.213 261.617 478.332L260.548 476.642C259.153 477.525 257.761 478.411 256.372 479.3L257.45 480.984ZM270.006 473.085C272.814 471.348 275.635 469.625 278.467 467.914L277.433 466.202C274.595 467.916 271.769 469.643 268.954 471.383L270.006 473.085ZM286.975 462.834C289.813 461.159 292.662 459.496 295.522 457.847L294.522 456.114C291.657 457.767 288.802 459.433 285.958 461.111L286.975 462.834ZM304.134 452.936C307.01 451.315 309.896 449.707 312.793 448.111L311.828 446.36C308.926 447.958 306.033 449.57 303.152 451.194L304.134 452.936ZM321.483 443.379C324.39 441.814 327.307 440.262 330.233 438.722L329.302 436.952C326.37 438.495 323.448 440.05 320.535 441.618L321.483 443.379ZM339.03 434.147C341.962 432.64 344.902 431.145 347.852 429.663L346.954 427.876C343.999 429.361 341.053 430.858 338.116 432.368L339.03 434.147ZM356.727 425.255C359.693 423.799 362.667 422.355 365.65 420.924L364.785 419.121C361.796 420.554 358.817 422.001 355.846 423.459L356.727 425.255ZM374.591 416.683C377.58 415.282 380.577 413.893 383.581 412.517L382.748 410.699C379.738 412.077 376.736 413.469 373.742 414.872L374.591 416.683ZM392.618 408.426C395.628 407.079 398.645 405.745 401.67 404.423L400.869 402.59C397.839 403.915 394.816 405.251 391.801 406.6L392.618 408.426ZM410.765 400.495C413.804 399.198 416.85 397.913 419.902 396.641L419.133 394.795C416.075 396.069 413.024 397.356 409.98 398.655L410.765 400.495ZM429.058 392.87C432.116 391.626 435.18 390.394 438.25 389.175L437.512 387.316C434.437 388.537 431.367 389.771 428.305 391.018L429.058 392.87ZM447.479 385.554C450.557 384.361 453.641 383.18 456.73 382.012L456.023 380.141C452.928 381.312 449.839 382.494 446.756 383.689L447.479 385.554ZM466.011 378.546C469.11 377.403 472.214 376.273 475.324 375.155L474.647 373.273C471.532 374.393 468.423 375.525 465.319 376.67L466.011 378.546ZM484.661 371.839C487.778 370.747 490.899 369.667 494.025 368.6L493.378 366.707C490.248 367.776 487.121 368.858 484 369.952L484.661 371.839ZM503.414 365.435C506.549 364.392 509.687 363.362 512.83 362.344L512.214 360.441C509.066 361.461 505.923 362.492 502.783 363.537L503.414 365.435ZM522.269 359.328C525.419 358.335 528.573 357.355 531.73 356.387L531.144 354.474C527.982 355.444 524.823 356.426 521.668 357.42L522.269 359.328ZM541.215 353.52C544.382 352.576 547.552 351.644 550.725 350.725L550.169 348.804C546.991 349.725 543.816 350.657 540.643 351.603L541.215 353.52ZM560.253 348.006C563.432 347.112 566.614 346.231 569.798 345.362L569.271 343.433C566.082 344.303 562.895 345.186 559.711 346.081L560.253 348.006ZM579.374 342.789C582.568 341.944 585.765 341.111 588.962 340.292L588.466 338.354C585.263 339.175 582.062 340.009 578.862 340.855L579.374 342.789ZM598.561 337.87C601.772 337.073 604.985 336.289 608.199 335.518L607.732 333.573C604.513 334.346 601.295 335.131 598.079 335.929L598.561 337.87ZM617.843 333.242C621.059 332.496 624.276 331.763 627.493 331.043L627.057 329.091C623.834 329.812 620.612 330.547 617.391 331.294L617.843 333.242ZM637.182 328.913C640.414 328.215 643.647 327.531 646.879 326.859L646.472 324.901C643.235 325.574 639.997 326.259 636.76 326.958L637.182 328.913ZM656.576 324.884C659.821 324.235 663.066 323.6 666.31 322.978L665.933 321.014C662.684 321.637 659.435 322.273 656.185 322.922L656.576 324.884ZM676.055 321.149C679.302 320.552 682.549 319.969 685.794 319.398L685.448 317.429C682.197 318 678.946 318.584 675.693 319.182L676.055 321.149ZM695.567 317.72C698.831 317.173 702.093 316.639 705.354 316.118L705.039 314.143C701.773 314.664 698.505 315.199 695.236 315.748L695.567 317.72ZM715.132 314.596C718.403 314.1 721.671 313.617 724.938 313.148L724.654 311.168C721.382 311.638 718.108 312.121 714.832 312.618L715.132 314.596ZM734.764 311.776C738.037 311.333 741.307 310.903 744.574 310.487L744.321 308.503C741.049 308.92 737.773 309.35 734.495 309.795L734.764 311.776ZM754.409 309.274C757.699 308.881 760.985 308.503 764.268 308.138L764.047 306.15C760.759 306.516 757.467 306.895 754.172 307.288L754.409 309.274ZM774.105 307.086C777.396 306.748 780.682 306.424 783.965 306.113L783.776 304.122C780.489 304.433 777.197 304.758 773.901 305.097L774.105 307.086ZM793.851 305.22C797.142 304.937 800.429 304.668 803.71 304.413L803.555 302.419C800.268 302.674 796.976 302.944 793.68 303.228L793.851 305.22ZM813.59 303.687C816.898 303.458 820.201 303.244 823.498 303.044L823.377 301.048C820.074 301.248 816.766 301.463 813.452 301.692L813.59 303.687ZM833.371 302.489C836.676 302.317 839.976 302.161 843.268 302.019L843.182 300.02C839.883 300.163 836.578 300.32 833.267 300.492L833.371 302.489ZM853.189 301.635C856.49 301.522 859.783 301.424 863.069 301.342L863.019 299.342C859.727 299.425 856.427 299.523 853.121 299.636L853.189 301.635ZM872.981 301.137C876.297 301.084 879.606 301.046 882.907 301.024L882.893 299.024C879.586 299.046 876.271 299.084 872.949 299.137L872.981 301.137ZM892.784 301.004C896.1 301.013 899.408 301.037 902.708 301.078L902.732 299.078C899.427 299.037 896.112 299.013 892.789 299.004L892.784 301.004ZM912.627 301.248C915.924 301.32 919.212 301.409 922.49 301.514L922.554 299.515C919.269 299.41 915.975 299.321 912.671 299.248L912.627 301.248ZM932.423 301.881C935.734 302.021 939.034 302.177 942.324 302.349L942.428 300.352C939.132 300.179 935.825 300.023 932.507 299.883L932.423 301.881ZM952.16 302.917C955.485 303.126 958.798 303.353 962.099 303.597L962.246 301.602C958.938 301.358 955.618 301.131 952.286 300.921L952.16 302.917ZM971.965 304.38C975.257 304.659 978.536 304.956 981.802 305.271L981.994 303.28C978.72 302.965 975.433 302.667 972.134 302.387L971.965 304.38ZM991.698 306.281C994.983 306.636 998.254 307.008 1001.51 307.399L1001.75 305.413C998.484 305.022 995.205 304.648 991.913 304.293L991.698 306.281ZM1011.34 308.639C1014.64 309.075 1017.91 309.529 1021.18 310.002L1021.46 308.023C1018.19 307.548 1014.91 307.093 1011.61 306.656L1011.34 308.639ZM1030.91 311.477C1034.2 311.998 1037.48 312.537 1040.74 313.097L1041.07 311.126C1037.81 310.565 1034.53 310.023 1031.23 309.502L1030.91 311.477ZM1050.48 314.837C1053.73 315.441 1056.96 316.065 1060.17 316.708L1060.57 314.747C1057.34 314.102 1054.1 313.476 1050.84 312.871L1050.48 314.837ZM1069.91 318.731C1073.14 319.426 1076.34 320.142 1079.53 320.878L1079.98 318.929C1076.78 318.191 1073.57 317.473 1070.33 316.776L1069.91 318.731ZM1089.19 323.19C1092.41 323.986 1095.61 324.804 1098.78 325.644L1099.3 323.71C1096.11 322.868 1092.9 322.047 1089.67 321.248L1089.19 323.19ZM1108.3 328.246C1111.51 329.151 1114.69 330.079 1117.85 331.03L1118.43 329.115C1115.26 328.161 1112.06 327.23 1108.85 326.321L1108.3 328.246ZM1127.25 333.95C1130.42 334.969 1133.57 336.01 1136.69 337.076L1137.34 335.184C1134.21 334.114 1131.04 333.068 1127.86 332.046L1127.25 333.95ZM1146.01 340.357C1147.55 340.916 1149.08 341.481 1150.61 342.052L1151.31 340.179C1149.78 339.606 1148.24 339.038 1146.69 338.477L1146.01 340.357ZM1150.52 342.014C1152.11 342.789 1153.69 343.554 1155.25 344.308L1156.12 342.506C1154.56 341.753 1152.98 340.99 1151.4 340.217L1150.52 342.014ZM1164.52 348.71C1167.71 350.207 1170.85 351.659 1173.94 353.067L1174.77 351.246C1171.68 349.841 1168.55 348.393 1165.36 346.9L1164.52 348.71ZM1183.31 357.259C1186.52 358.67 1189.68 360.032 1192.78 361.347L1193.56 359.505C1190.46 358.194 1187.32 356.836 1184.12 355.428L1183.31 357.259ZM1202.36 365.313C1205.6 366.629 1208.79 367.889 1211.93 369.096L1212.65 367.23C1209.52 366.027 1206.34 364.771 1203.11 363.46L1202.36 365.313ZM1221.53 372.688C1224.86 373.895 1228.12 375.038 1231.32 376.119L1231.96 374.225C1228.78 373.148 1225.53 372.01 1222.21 370.808L1221.53 372.688ZM1241.17 379.314C1244.54 380.361 1247.84 381.336 1251.08 382.24L1251.62 380.314C1248.4 379.415 1245.12 378.446 1241.76 377.404L1241.17 379.314ZM1261.07 384.865C1264.51 385.707 1267.86 386.466 1271.15 387.144L1271.55 385.186C1268.29 384.513 1264.96 383.759 1261.55 382.922L1261.07 384.865ZM1281.31 389.027C1284.81 389.598 1288.23 390.072 1291.56 390.453L1291.79 388.466C1288.49 388.089 1285.1 387.619 1281.64 387.053L1281.31 389.027ZM1301.86 391.358C1305.39 391.57 1308.83 391.674 1312.19 391.674L1312.19 389.674C1308.87 389.674 1305.47 389.571 1301.98 389.361L1301.86 391.358ZM1322.56 391.34C1326.08 391.109 1329.52 390.76 1332.88 390.302L1332.62 388.321C1329.3 388.772 1325.9 389.116 1322.43 389.344L1322.56 391.34ZM1343.09 388.543C1346.51 387.827 1349.86 386.998 1353.16 386.064L1352.62 384.14C1349.36 385.061 1346.05 385.879 1342.68 386.585L1343.09 388.543ZM1363.03 382.917C1366.29 381.765 1369.5 380.515 1372.69 379.178L1371.92 377.333C1368.76 378.657 1365.58 379.893 1362.37 381.032L1363.03 382.917ZM1382.13 374.946C1385.22 373.475 1388.3 371.93 1391.38 370.319L1390.46 368.546C1387.39 370.147 1384.33 371.682 1381.27 373.14L1382.13 374.946ZM1400.46 365.415C1403.43 363.764 1406.41 362.061 1409.43 360.314L1408.42 358.583C1405.42 360.326 1402.44 362.023 1399.49 363.668L1400.46 365.415ZM1418.33 355.091C1421.24 353.37 1424.19 351.616 1427.19 349.836L1426.16 348.117C1423.17 349.897 1420.22 351.65 1417.31 353.369L1418.33 355.091ZM1436.04 344.596C1437.51 343.728 1439 342.856 1440.5 341.979L1439.5 340.252C1437.99 341.13 1436.5 342.003 1435.02 342.873L1436.04 344.596Z" fill="#2BD4D9"/>
<g opacity="0.1">
<circle cx="724.58" cy="143.58" r="2.58013" fill="#2BD4D9"/>
<circle cx="740.061" cy="143.58" r="2.58013" fill="#2BD4D9"/>
<circle cx="755.542" cy="143.58" r="2.58013" fill="#2BD4D9"/>
<circle cx="771.023" cy="143.58" r="2.58013" fill="#2BD4D9"/>
<circle cx="786.503" cy="143.58" r="2.58013" fill="#2BD4D9"/>
<circle cx="801.984" cy="143.58" r="2.58013" fill="#2BD4D9"/>
<circle cx="817.465" cy="143.58" r="2.58013" fill="#2BD4D9"/>
<circle cx="832.946" cy="143.58" r="2.58013" fill="#2BD4D9"/>
<circle cx="848.426" cy="143.58" r="2.58013" fill="#2BD4D9"/>
<circle cx="863.907" cy="143.58" r="2.58013" fill="#2BD4D9"/>
<circle cx="879.388" cy="143.58" r="2.58013" fill="#2BD4D9"/>
<circle cx="894.869" cy="143.58" r="2.58013" fill="#2BD4D9"/>
<circle cx="724.58" cy="164.221" r="2.58013" fill="#2BD4D9"/>
<circle cx="740.061" cy="164.221" r="2.58013" fill="#2BD4D9"/>
<circle cx="755.542" cy="164.221" r="2.58013" fill="#2BD4D9"/>
<circle cx="771.023" cy="164.221" r="2.58013" fill="#2BD4D9"/>
<circle cx="786.503" cy="164.221" r="2.58013" fill="#2BD4D9"/>
<circle cx="801.984" cy="164.221" r="2.58013" fill="#2BD4D9"/>
<circle cx="817.465" cy="164.221" r="2.58013" fill="#2BD4D9"/>
<circle cx="832.946" cy="164.221" r="2.58013" fill="#2BD4D9"/>
<circle cx="848.426" cy="164.221" r="2.58013" fill="#2BD4D9"/>
<circle cx="863.907" cy="164.221" r="2.58013" fill="#2BD4D9"/>
<circle cx="879.388" cy="164.221" r="2.58013" fill="#2BD4D9"/>
<circle cx="894.869" cy="164.221" r="2.58013" fill="#2BD4D9"/>
<circle cx="724.58" cy="184.861" r="2.58013" fill="#2BD4D9"/>
<circle cx="740.061" cy="184.861" r="2.58013" fill="#2BD4D9"/>
<circle cx="755.542" cy="184.861" r="2.58013" fill="#2BD4D9"/>
<circle cx="771.023" cy="184.861" r="2.58013" fill="#2BD4D9"/>
<circle cx="786.503" cy="184.861" r="2.58013" fill="#2BD4D9"/>
<circle cx="801.984" cy="184.861" r="2.58013" fill="#2BD4D9"/>
<circle cx="817.465" cy="184.861" r="2.58013" fill="#2BD4D9"/>
<circle cx="832.946" cy="184.861" r="2.58013" fill="#2BD4D9"/>
<circle cx="848.426" cy="184.861" r="2.58013" fill="#2BD4D9"/>
<circle cx="863.907" cy="184.861" r="2.58013" fill="#2BD4D9"/>
<circle cx="879.388" cy="184.861" r="2.58013" fill="#2BD4D9"/>
<circle cx="894.869" cy="184.861" r="2.58013" fill="#2BD4D9"/>
<circle cx="724.58" cy="205.502" r="2.58013" fill="#2BD4D9"/>
<circle cx="740.061" cy="205.502" r="2.58013" fill="#2BD4D9"/>
<circle cx="755.542" cy="205.502" r="2.58013" fill="#2BD4D9"/>
<circle cx="771.023" cy="205.502" r="2.58013" fill="#2BD4D9"/>
<circle cx="786.503" cy="205.502" r="2.58013" fill="#2BD4D9"/>
<circle cx="801.984" cy="205.502" r="2.58013" fill="#2BD4D9"/>
<circle cx="817.465" cy="205.502" r="2.58013" fill="#2BD4D9"/>
<circle cx="832.946" cy="205.502" r="2.58013" fill="#2BD4D9"/>
<circle cx="848.426" cy="205.502" r="2.58013" fill="#2BD4D9"/>
<circle cx="863.907" cy="205.502" r="2.58013" fill="#2BD4D9"/>
<circle cx="879.388" cy="205.502" r="2.58013" fill="#2BD4D9"/>
<circle cx="894.869" cy="205.502" r="2.58013" fill="#2BD4D9"/>
<circle cx="724.58" cy="226.143" r="2.58013" fill="#2BD4D9"/>
<circle cx="740.061" cy="226.143" r="2.58013" fill="#2BD4D9"/>
<circle cx="755.542" cy="226.143" r="2.58013" fill="#2BD4D9"/>
<circle cx="771.023" cy="226.143" r="2.58013" fill="#2BD4D9"/>
<circle cx="786.503" cy="226.143" r="2.58013" fill="#2BD4D9"/>
<circle cx="801.984" cy="226.143" r="2.58013" fill="#2BD4D9"/>
<circle cx="817.465" cy="226.143" r="2.58013" fill="#2BD4D9"/>
<circle cx="832.946" cy="226.143" r="2.58013" fill="#2BD4D9"/>
<circle cx="848.426" cy="226.143" r="2.58013" fill="#2BD4D9"/>
<circle cx="863.907" cy="226.143" r="2.58013" fill="#2BD4D9"/>
<circle cx="879.388" cy="226.143" r="2.58013" fill="#2BD4D9"/>
<circle cx="894.869" cy="226.143" r="2.58013" fill="#2BD4D9"/>
<circle cx="724.58" cy="246.787" r="2.58013" fill="#2BD4D9"/>
<circle cx="740.061" cy="246.787" r="2.58013" fill="#2BD4D9"/>
<circle cx="755.542" cy="246.787" r="2.58013" fill="#2BD4D9"/>
<circle cx="771.023" cy="246.787" r="2.58013" fill="#2BD4D9"/>
<circle cx="786.503" cy="246.787" r="2.58013" fill="#2BD4D9"/>
<circle cx="801.984" cy="246.787" r="2.58013" fill="#2BD4D9"/>
<circle cx="817.465" cy="246.787" r="2.58013" fill="#2BD4D9"/>
<circle cx="832.946" cy="246.787" r="2.58013" fill="#2BD4D9"/>
<circle cx="848.426" cy="246.787" r="2.58013" fill="#2BD4D9"/>
<circle cx="863.907" cy="246.787" r="2.58013" fill="#2BD4D9"/>
<circle cx="879.388" cy="246.787" r="2.58013" fill="#2BD4D9"/>
<circle cx="894.869" cy="246.787" r="2.58013" fill="#2BD4D9"/>
<circle cx="724.58" cy="267.428" r="2.58013" fill="#2BD4D9"/>
<circle cx="740.061" cy="267.428" r="2.58013" fill="#2BD4D9"/>
<circle cx="755.542" cy="267.428" r="2.58013" fill="#2BD4D9"/>
<circle cx="771.023" cy="267.428" r="2.58013" fill="#2BD4D9"/>
<circle cx="786.503" cy="267.428" r="2.58013" fill="#2BD4D9"/>
<circle cx="801.984" cy="267.428" r="2.58013" fill="#2BD4D9"/>
<circle cx="817.465" cy="267.428" r="2.58013" fill="#2BD4D9"/>
<circle cx="832.946" cy="267.428" r="2.58013" fill="#2BD4D9"/>
<circle cx="848.426" cy="267.428" r="2.58013" fill="#2BD4D9"/>
<circle cx="863.907" cy="267.428" r="2.58013" fill="#2BD4D9"/>
<circle cx="879.388" cy="267.428" r="2.58013" fill="#2BD4D9"/>
<circle cx="894.869" cy="267.428" r="2.58013" fill="#2BD4D9"/>
<circle cx="724.58" cy="288.068" r="2.58013" fill="#2BD4D9"/>
<circle cx="740.061" cy="288.068" r="2.58013" fill="#2BD4D9"/>
<circle cx="755.542" cy="288.068" r="2.58013" fill="#2BD4D9"/>
<circle cx="771.023" cy="288.068" r="2.58013" fill="#2BD4D9"/>
<circle cx="786.503" cy="288.068" r="2.58013" fill="#2BD4D9"/>
<circle cx="801.984" cy="288.068" r="2.58013" fill="#2BD4D9"/>
<circle cx="817.465" cy="288.068" r="2.58013" fill="#2BD4D9"/>
<circle cx="832.946" cy="288.068" r="2.58013" fill="#2BD4D9"/>
<circle cx="848.426" cy="288.068" r="2.58013" fill="#2BD4D9"/>
<circle cx="863.907" cy="288.068" r="2.58013" fill="#2BD4D9"/>
<circle cx="879.388" cy="288.068" r="2.58013" fill="#2BD4D9"/>
<circle cx="894.869" cy="288.068" r="2.58013" fill="#2BD4D9"/>
</g>
<path opacity="0.05" d="M364.555 202.763C352.042 177.061 327.529 161.103 302.142 156.291C276.755 151.492 250.534 156.708 225.827 165.522C198.925 175.13 172.611 189.119 144.554 190.846C109.369 193.011 75.4728 175.424 46.9506 152.138C32.1313 140.049 18.2668 126.311 2.38303 116.132C-13.5014 105.968 -32.0934 99.4846 -50.0923 103.53C-89.4155 112.347 -110.808 165.811 -149.065 179.719C-167.381 186.381 -187.008 183 -206.1 181.744C-225.192 180.488 -246.066 182.145 -260.73 196.469C-280.492 215.805 -281.402 250.68 -274.7 279.177C-263.667 326.119 -232.367 369.794 -190.38 376.768C-168.05 380.471 -145.156 373.672 -122.661 375.942C-114.224 376.809 -105.938 378.952 -98.0179 382.315C-96.9936 383.091 -95.9943 383.88 -94.9964 384.696C-72.4636 403.11 -55.5391 430.152 -31.0312 444.906C-30.5808 445.179 -30.1296 445.438 -29.6664 445.698C-27.7726 447.233 -25.8035 448.643 -23.7686 449.922C-11.8429 457.409 2.05298 459.781 15.7868 458.574C19.382 458.854 22.9966 458.981 26.5921 458.995C74.1293 459.11 120.578 441.243 158.757 408.159C186.46 384.013 209.456 352.06 240.632 334.461C268.164 318.933 299.641 316.021 328.361 303.754C338.598 299.388 348.641 293.683 356.475 284.906C375.038 264.1 377.057 228.451 364.555 202.763Z" fill="#2BD4D9"/>
<rect opacity="0.5" x="521.949" y="216.949" width="78.1734" height="56.5067" rx="3.7977" stroke="#F7F7F7" stroke-width="1.89885"/>
<rect x="534.125" y="241.535" width="13.4647" height="18.8374" rx="2.58027" fill="#2BD4D9" fill-opacity="0.4"/>
<rect x="554.303" y="230.035" width="13.4647" height="30.3356" rx="2.58027" fill="#2BD4D9" fill-opacity="0.19"/>
<rect x="574.482" y="234.93" width="13.4647" height="25.4427" rx="2.58027" fill="#BBD8E6"/>
<rect opacity="0.5" x="525.76" y="225.496" width="68.4262" height="41.4212" fill="white"/>
</g>
</svg>
