<svg width="539" height="128" viewBox="0 0 539 128" fill="none" xmlns="http://www.w3.org/2000/svg">
<path d="M7.84844 60.432C6.63244 60.432 5.68844 60.096 5.01644 59.424C4.37644 58.752 4.05644 57.776 4.05644 56.496V30.048C4.05644 28.8 4.39244 27.84 5.06444 27.168C5.73644 26.496 6.69644 26.16 7.94444 26.16H24.3604C25.3204 26.16 26.0404 26.416 26.5204 26.928C27.0324 27.408 27.2884 28.112 27.2884 29.04C27.2884 30 27.0324 30.736 26.5204 31.248C26.0404 31.728 25.3204 31.968 24.3604 31.968H11.4964V40.224H23.3044C24.2644 40.224 25.0004 40.48 25.5124 40.992C26.0244 41.472 26.2804 42.176 26.2804 43.104C26.2804 44.032 26.0244 44.752 25.5124 45.264C25.0004 45.776 24.2644 46.032 23.3044 46.032H11.4964V56.496C11.4964 59.12 10.2804 60.432 7.84844 60.432ZM36.3773 60.384C35.1933 60.384 34.2813 60.048 33.6413 59.376C33.0333 58.672 32.7293 57.696 32.7293 56.448V40.032C32.7293 38.752 33.0333 37.776 33.6413 37.104C34.2813 36.4 35.1933 36.048 36.3773 36.048C37.5293 36.048 38.4093 36.4 39.0173 37.104C39.6573 37.776 39.9773 38.752 39.9773 40.032V56.448C39.9773 57.696 39.6733 58.672 39.0653 59.376C38.4573 60.048 37.5613 60.384 36.3773 60.384ZM36.3773 32.112C35.0333 32.112 33.9933 31.808 33.2573 31.2C32.5533 30.56 32.2013 29.664 32.2013 28.512C32.2013 27.328 32.5533 26.432 33.2573 25.824C33.9933 25.184 35.0333 24.864 36.3773 24.864C37.7213 24.864 38.7453 25.184 39.4493 25.824C40.1533 26.432 40.5053 27.328 40.5053 28.512C40.5053 29.664 40.1533 30.56 39.4493 31.2C38.7453 31.808 37.7213 32.112 36.3773 32.112ZM49.2211 60.432C48.0371 60.432 47.1251 60.112 46.4851 59.472C45.8771 58.832 45.5731 57.92 45.5731 56.736V39.696C45.5731 38.512 45.8771 37.616 46.4851 37.008C47.1251 36.368 48.0051 36.048 49.1251 36.048C50.2771 36.048 51.1571 36.368 51.7651 37.008C52.3731 37.616 52.6771 38.512 52.6771 39.696V42.432L52.1491 40.848C52.8851 39.28 53.9731 38.08 55.4131 37.248C56.8851 36.384 58.5491 35.952 60.4051 35.952C62.2931 35.952 63.8451 36.32 65.0611 37.056C66.2771 37.76 67.1891 38.848 67.7971 40.32C68.4051 41.76 68.7091 43.6 68.7091 45.84V56.736C68.7091 57.92 68.3891 58.832 67.7491 59.472C67.1411 60.112 66.2451 60.432 65.0611 60.432C63.9091 60.432 63.0131 60.112 62.3731 59.472C61.7651 58.832 61.4611 57.92 61.4611 56.736V46.176C61.4611 44.544 61.1571 43.376 60.5491 42.672C59.9731 41.936 59.0771 41.568 57.8611 41.568C56.3251 41.568 55.0931 42.048 54.1651 43.008C53.2691 43.968 52.8211 45.248 52.8211 46.848V56.736C52.8211 59.2 51.6211 60.432 49.2211 60.432ZM83.2879 60.528C81.2399 60.528 79.4319 60.032 77.8639 59.04C76.3279 58.048 75.1279 56.624 74.2639 54.768C73.3999 52.912 72.9679 50.72 72.9679 48.192C72.9679 45.664 73.3999 43.488 74.2639 41.664C75.1279 39.84 76.3279 38.432 77.8639 37.44C79.4319 36.448 81.2399 35.952 83.2879 35.952C85.1439 35.952 86.7759 36.4 88.1839 37.296C89.6239 38.192 90.5999 39.36 91.1119 40.8H90.5839V29.424C90.5839 28.208 90.8879 27.296 91.4959 26.688C92.1039 26.048 92.9999 25.728 94.1839 25.728C95.3359 25.728 96.2319 26.048 96.8719 26.688C97.5119 27.296 97.8319 28.208 97.8319 29.424V56.736C97.8319 57.92 97.5119 58.832 96.8719 59.472C96.2639 60.112 95.3839 60.432 94.2319 60.432C93.0799 60.432 92.1839 60.112 91.5439 59.472C90.9359 58.832 90.6319 57.92 90.6319 56.736V53.472L91.1599 55.344C90.7119 56.912 89.7519 58.176 88.2799 59.136C86.8399 60.064 85.1759 60.528 83.2879 60.528ZM85.4479 55.104C86.5039 55.104 87.4159 54.848 88.1839 54.336C88.9519 53.824 89.5599 53.072 90.0079 52.08C90.4559 51.056 90.6799 49.76 90.6799 48.192C90.6799 45.856 90.1999 44.144 89.2399 43.056C88.2799 41.936 87.0159 41.376 85.4479 41.376C84.4239 41.376 83.5119 41.616 82.7119 42.096C81.9439 42.576 81.3359 43.328 80.8879 44.352C80.4719 45.344 80.2639 46.624 80.2639 48.192C80.2639 50.528 80.7439 52.272 81.7039 53.424C82.6639 54.544 83.9119 55.104 85.4479 55.104ZM388.596 60.384C387.412 60.384 386.5 60.048 385.86 59.376C385.252 58.672 384.948 57.696 384.948 56.448V40.032C384.948 38.752 385.252 37.776 385.86 37.104C386.5 36.4 387.412 36.048 388.596 36.048C389.748 36.048 390.628 36.4 391.236 37.104C391.876 37.776 392.196 38.752 392.196 40.032V56.448C392.196 57.696 391.892 58.672 391.284 59.376C390.676 60.048 389.78 60.384 388.596 60.384ZM388.596 32.112C387.252 32.112 386.212 31.808 385.476 31.2C384.772 30.56 384.42 29.664 384.42 28.512C384.42 27.328 384.772 26.432 385.476 25.824C386.212 25.184 387.252 24.864 388.596 24.864C389.94 24.864 390.964 25.184 391.668 25.824C392.372 26.432 392.724 27.328 392.724 28.512C392.724 29.664 392.372 30.56 391.668 31.2C390.964 31.808 389.94 32.112 388.596 32.112ZM401.44 60.432C400.256 60.432 399.344 60.112 398.704 59.472C398.096 58.832 397.792 57.92 397.792 56.736V39.696C397.792 38.512 398.096 37.616 398.704 37.008C399.344 36.368 400.224 36.048 401.344 36.048C402.496 36.048 403.376 36.368 403.984 37.008C404.592 37.616 404.896 38.512 404.896 39.696V42.432L404.368 40.848C405.104 39.28 406.192 38.08 407.632 37.248C409.104 36.384 410.768 35.952 412.624 35.952C414.512 35.952 416.064 36.32 417.28 37.056C418.496 37.76 419.408 38.848 420.016 40.32C420.624 41.76 420.928 43.6 420.928 45.84V56.736C420.928 57.92 420.608 58.832 419.968 59.472C419.36 60.112 418.464 60.432 417.28 60.432C416.128 60.432 415.232 60.112 414.592 59.472C413.984 58.832 413.68 57.92 413.68 56.736V46.176C413.68 44.544 413.376 43.376 412.768 42.672C412.192 41.936 411.296 41.568 410.08 41.568C408.544 41.568 407.312 42.048 406.384 43.008C405.488 43.968 405.04 45.248 405.04 46.848V56.736C405.04 59.2 403.84 60.432 401.44 60.432ZM446.177 69.072C445.345 69.072 444.657 68.848 444.113 68.4C443.569 67.952 443.249 67.36 443.153 66.624C443.057 65.92 443.185 65.168 443.537 64.368L446.753 57.264V60.24L438.257 40.752C437.937 39.92 437.825 39.152 437.921 38.448C438.049 37.712 438.401 37.136 438.977 36.72C439.585 36.272 440.417 36.048 441.473 36.048C442.337 36.048 443.025 36.256 443.537 36.672C444.081 37.056 444.577 37.808 445.025 38.928L450.689 53.328H449.153L455.009 38.88C455.457 37.792 455.953 37.056 456.497 36.672C457.073 36.256 457.841 36.048 458.801 36.048C459.633 36.048 460.289 36.272 460.769 36.72C461.281 37.136 461.585 37.696 461.681 38.4C461.809 39.104 461.681 39.872 461.297 40.704L450.017 66.288C449.537 67.376 448.993 68.112 448.385 68.496C447.809 68.88 447.073 69.072 446.177 69.072ZM476.104 60.528C473.576 60.528 471.368 60.032 469.48 59.04C467.624 58.048 466.184 56.624 465.16 54.768C464.136 52.912 463.624 50.72 463.624 48.192C463.624 46.304 463.912 44.608 464.488 43.104C465.064 41.6 465.896 40.32 466.984 39.264C468.104 38.176 469.432 37.36 470.968 36.816C472.504 36.24 474.216 35.952 476.104 35.952C478.632 35.952 480.824 36.448 482.68 37.44C484.568 38.432 486.024 39.84 487.048 41.664C488.104 43.488 488.632 45.664 488.632 48.192C488.632 50.112 488.328 51.824 487.72 53.328C487.144 54.832 486.312 56.128 485.224 57.216C484.136 58.304 482.808 59.136 481.24 59.712C479.704 60.256 477.992 60.528 476.104 60.528ZM476.104 55.104C477.16 55.104 478.072 54.848 478.84 54.336C479.608 53.824 480.216 53.072 480.664 52.08C481.112 51.056 481.336 49.76 481.336 48.192C481.336 45.856 480.856 44.144 479.896 43.056C478.936 41.936 477.672 41.376 476.104 41.376C475.08 41.376 474.168 41.616 473.368 42.096C472.6 42.576 471.992 43.328 471.544 44.352C471.128 45.344 470.92 46.624 470.92 48.192C470.92 50.528 471.4 52.272 472.36 53.424C473.32 54.544 474.568 55.104 476.104 55.104ZM501.73 60.528C499.746 60.528 498.098 60.16 496.786 59.424C495.474 58.688 494.498 57.584 493.858 56.112C493.25 54.608 492.946 52.752 492.946 50.544V39.696C492.946 38.48 493.25 37.568 493.858 36.96C494.498 36.352 495.394 36.048 496.546 36.048C497.698 36.048 498.594 36.352 499.234 36.96C499.874 37.568 500.194 38.48 500.194 39.696V50.736C500.194 52.144 500.482 53.2 501.058 53.904C501.634 54.576 502.546 54.912 503.794 54.912C505.17 54.912 506.29 54.432 507.154 53.472C508.05 52.48 508.498 51.184 508.498 49.584V39.696C508.498 38.48 508.802 37.568 509.41 36.96C510.05 36.352 510.946 36.048 512.098 36.048C513.282 36.048 514.178 36.352 514.786 36.96C515.426 37.568 515.746 38.48 515.746 39.696V56.736C515.746 59.2 514.578 60.432 512.242 60.432C511.09 60.432 510.21 60.112 509.602 59.472C508.994 58.832 508.69 57.92 508.69 56.736V53.52L509.41 55.392C508.706 57.024 507.698 58.288 506.386 59.184C505.074 60.08 503.522 60.528 501.73 60.528ZM525.098 60.432C523.882 60.432 522.954 60.112 522.314 59.472C521.674 58.832 521.354 57.92 521.354 56.736V39.696C521.354 38.512 521.658 37.616 522.266 37.008C522.906 36.368 523.786 36.048 524.906 36.048C526.058 36.048 526.938 36.368 527.546 37.008C528.154 37.616 528.458 38.512 528.458 39.696V42.192H527.978C528.362 40.272 529.21 38.784 530.522 37.728C531.834 36.672 533.53 36.08 535.61 35.952C536.41 35.888 537.018 36.096 537.434 36.576C537.882 37.024 538.122 37.776 538.154 38.832C538.218 39.824 538.01 40.608 537.53 41.184C537.082 41.76 536.314 42.112 535.226 42.24L534.122 42.336C532.298 42.496 530.938 43.024 530.042 43.92C529.178 44.816 528.746 46.112 528.746 47.808V56.736C528.746 57.92 528.426 58.832 527.786 59.472C527.178 60.112 526.282 60.432 525.098 60.432ZM246.83 108.528C245.102 108.528 243.55 108.192 242.174 107.52C240.798 106.848 239.726 105.936 238.958 104.784C238.19 103.632 237.806 102.336 237.806 100.896C237.806 99.168 238.254 97.808 239.15 96.816C240.046 95.792 241.502 95.072 243.518 94.656C245.534 94.208 248.206 93.984 251.534 93.984H254.078V97.728H251.582C249.95 97.728 248.622 97.824 247.598 98.016C246.606 98.176 245.886 98.464 245.438 98.88C245.022 99.296 244.814 99.872 244.814 100.608C244.814 101.504 245.118 102.24 245.726 102.816C246.366 103.392 247.278 103.68 248.462 103.68C249.39 103.68 250.206 103.472 250.91 103.056C251.646 102.608 252.222 102.016 252.638 101.28C253.054 100.512 253.262 99.648 253.262 98.688V93.168C253.262 91.76 252.942 90.768 252.302 90.192C251.662 89.584 250.574 89.28 249.038 89.28C248.174 89.28 247.23 89.392 246.206 89.616C245.214 89.808 244.11 90.144 242.894 90.624C242.19 90.944 241.566 91.024 241.022 90.864C240.478 90.672 240.062 90.352 239.774 89.904C239.486 89.424 239.342 88.912 239.342 88.368C239.342 87.792 239.502 87.248 239.822 86.736C240.142 86.192 240.67 85.792 241.406 85.536C242.91 84.928 244.318 84.512 245.63 84.288C246.974 84.064 248.206 83.952 249.326 83.952C251.79 83.952 253.806 84.32 255.374 85.056C256.974 85.76 258.174 86.864 258.974 88.368C259.774 89.84 260.174 91.744 260.174 94.08V104.736C260.174 105.92 259.886 106.832 259.31 107.472C258.734 108.112 257.902 108.432 256.814 108.432C255.726 108.432 254.878 108.112 254.27 107.472C253.694 106.832 253.406 105.92 253.406 104.736V102.96L253.742 103.248C253.55 104.336 253.134 105.28 252.494 106.08C251.886 106.848 251.102 107.456 250.142 107.904C249.182 108.32 248.078 108.528 246.83 108.528ZM269.229 117.072C268.045 117.072 267.133 116.752 266.493 116.112C265.885 115.504 265.581 114.592 265.581 113.376V87.696C265.581 86.512 265.885 85.616 266.493 85.008C267.133 84.368 268.013 84.048 269.133 84.048C270.317 84.048 271.213 84.368 271.821 85.008C272.429 85.616 272.733 86.512 272.733 87.696V90.96L272.205 89.088C272.685 87.552 273.645 86.32 275.085 85.392C276.557 84.432 278.237 83.952 280.125 83.952C282.173 83.952 283.965 84.448 285.501 85.44C287.069 86.432 288.285 87.84 289.149 89.664C290.013 91.488 290.445 93.664 290.445 96.192C290.445 98.72 290.013 100.912 289.149 102.768C288.285 104.624 287.085 106.048 285.549 107.04C284.013 108.032 282.205 108.528 280.125 108.528C278.269 108.528 276.621 108.08 275.181 107.184C273.741 106.256 272.765 105.056 272.253 103.584H272.829V113.376C272.829 114.592 272.509 115.504 271.869 116.112C271.261 116.752 270.381 117.072 269.229 117.072ZM277.965 103.104C278.989 103.104 279.885 102.848 280.653 102.336C281.453 101.824 282.061 101.072 282.477 100.08C282.925 99.056 283.149 97.76 283.149 96.192C283.149 93.856 282.669 92.144 281.709 91.056C280.749 89.936 279.501 89.376 277.965 89.376C276.941 89.376 276.029 89.616 275.229 90.096C274.461 90.576 273.853 91.328 273.405 92.352C272.957 93.344 272.733 94.624 272.733 96.192C272.733 98.528 273.213 100.272 274.173 101.424C275.133 102.544 276.397 103.104 277.965 103.104ZM298.526 117.072C297.342 117.072 296.43 116.752 295.79 116.112C295.182 115.504 294.878 114.592 294.878 113.376V87.696C294.878 86.512 295.182 85.616 295.79 85.008C296.43 84.368 297.31 84.048 298.43 84.048C299.614 84.048 300.51 84.368 301.118 85.008C301.726 85.616 302.03 86.512 302.03 87.696V90.96L301.502 89.088C301.982 87.552 302.942 86.32 304.382 85.392C305.854 84.432 307.534 83.952 309.422 83.952C311.47 83.952 313.262 84.448 314.798 85.44C316.366 86.432 317.582 87.84 318.446 89.664C319.31 91.488 319.742 93.664 319.742 96.192C319.742 98.72 319.31 100.912 318.446 102.768C317.582 104.624 316.382 106.048 314.846 107.04C313.31 108.032 311.502 108.528 309.422 108.528C307.566 108.528 305.918 108.08 304.478 107.184C303.038 106.256 302.062 105.056 301.55 103.584H302.126V113.376C302.126 114.592 301.806 115.504 301.166 116.112C300.558 116.752 299.678 117.072 298.526 117.072ZM307.262 103.104C308.286 103.104 309.182 102.848 309.95 102.336C310.75 101.824 311.358 101.072 311.774 100.08C312.222 99.056 312.446 97.76 312.446 96.192C312.446 93.856 311.966 92.144 311.006 91.056C310.046 89.936 308.798 89.376 307.262 89.376C306.238 89.376 305.326 89.616 304.526 90.096C303.758 90.576 303.15 91.328 302.702 92.352C302.254 93.344 302.03 94.624 302.03 96.192C302.03 98.528 302.51 100.272 303.47 101.424C304.43 102.544 305.694 103.104 307.262 103.104ZM346.605 108.528C345.197 108.528 343.741 108.4 342.237 108.144C340.765 107.888 339.421 107.456 338.205 106.848C337.565 106.528 337.101 106.128 336.813 105.648C336.557 105.136 336.445 104.624 336.477 104.112C336.509 103.6 336.669 103.136 336.957 102.72C337.277 102.304 337.677 102.032 338.157 101.904C338.669 101.744 339.229 101.792 339.837 102.048C341.149 102.592 342.349 102.976 343.437 103.2C344.525 103.424 345.597 103.536 346.653 103.536C348.029 103.536 349.021 103.328 349.629 102.912C350.269 102.464 350.589 101.888 350.589 101.184C350.589 100.544 350.381 100.064 349.965 99.744C349.549 99.424 348.941 99.2 348.141 99.072L343.101 98.16C341.117 97.808 339.581 97.088 338.493 96C337.437 94.88 336.909 93.456 336.909 91.728C336.909 90.128 337.357 88.752 338.253 87.6C339.149 86.416 340.381 85.52 341.949 84.912C343.549 84.272 345.357 83.952 347.373 83.952C348.813 83.952 350.141 84.08 351.357 84.336C352.573 84.592 353.741 85.008 354.861 85.584C355.437 85.872 355.837 86.256 356.061 86.736C356.317 87.216 356.397 87.712 356.301 88.224C356.237 88.736 356.045 89.2 355.725 89.616C355.405 90.032 354.989 90.304 354.477 90.432C353.997 90.56 353.437 90.496 352.797 90.24C351.773 89.76 350.829 89.424 349.965 89.232C349.101 89.008 348.269 88.896 347.469 88.896C346.029 88.896 344.989 89.136 344.349 89.616C343.709 90.064 343.389 90.64 343.389 91.344C343.389 91.888 343.565 92.352 343.917 92.736C344.301 93.088 344.877 93.328 345.645 93.456L350.685 94.368C352.765 94.72 354.349 95.424 355.437 96.48C356.525 97.504 357.069 98.912 357.069 100.704C357.069 103.136 356.109 105.056 354.189 106.464C352.301 107.84 349.773 108.528 346.605 108.528ZM372.54 108.528C370.332 108.528 368.476 108.16 366.972 107.424C365.5 106.688 364.396 105.616 363.66 104.208C362.956 102.8 362.604 101.024 362.604 98.88V89.856H360.588C359.692 89.856 358.988 89.616 358.476 89.136C357.995 88.656 357.755 88 357.755 87.168C357.755 86.272 357.995 85.6 358.476 85.152C358.988 84.672 359.692 84.432 360.588 84.432H362.604V80.784C362.604 79.568 362.924 78.656 363.564 78.048C364.204 77.408 365.1 77.088 366.252 77.088C367.436 77.088 368.332 77.408 368.94 78.048C369.548 78.656 369.852 79.568 369.852 80.784V84.432H374.412C375.308 84.432 375.996 84.672 376.476 85.152C376.956 85.6 377.196 86.272 377.196 87.168C377.196 88 376.956 88.656 376.476 89.136C375.996 89.616 375.308 89.856 374.412 89.856H369.852V98.592C369.852 99.936 370.156 100.944 370.764 101.616C371.404 102.288 372.412 102.624 373.788 102.624C374.268 102.624 374.716 102.576 375.132 102.48C375.548 102.384 375.932 102.32 376.284 102.288C376.732 102.256 377.1 102.4 377.388 102.72C377.676 103.008 377.82 103.664 377.82 104.688C377.82 105.456 377.692 106.128 377.436 106.704C377.18 107.28 376.732 107.696 376.092 107.952C375.676 108.112 375.1 108.24 374.364 108.336C373.66 108.464 373.052 108.528 372.54 108.528ZM391.471 108.528C388.943 108.528 386.735 108.032 384.847 107.04C382.991 106.048 381.551 104.624 380.527 102.768C379.503 100.912 378.991 98.72 378.991 96.192C378.991 94.304 379.279 92.608 379.855 91.104C380.431 89.6 381.263 88.32 382.351 87.264C383.471 86.176 384.799 85.36 386.335 84.816C387.871 84.24 389.583 83.952 391.471 83.952C393.999 83.952 396.191 84.448 398.047 85.44C399.935 86.432 401.391 87.84 402.415 89.664C403.471 91.488 403.999 93.664 403.999 96.192C403.999 98.112 403.695 99.824 403.087 101.328C402.511 102.832 401.679 104.128 400.591 105.216C399.503 106.304 398.175 107.136 396.607 107.712C395.071 108.256 393.359 108.528 391.471 108.528ZM391.471 103.104C392.527 103.104 393.439 102.848 394.207 102.336C394.975 101.824 395.583 101.072 396.031 100.08C396.479 99.056 396.703 97.76 396.703 96.192C396.703 93.856 396.223 92.144 395.263 91.056C394.303 89.936 393.039 89.376 391.471 89.376C390.447 89.376 389.535 89.616 388.735 90.096C387.967 90.576 387.359 91.328 386.911 92.352C386.495 93.344 386.287 94.624 386.287 96.192C386.287 98.528 386.767 100.272 387.727 101.424C388.687 102.544 389.935 103.104 391.471 103.104ZM412.153 108.432C410.937 108.432 410.009 108.112 409.369 107.472C408.729 106.832 408.409 105.92 408.409 104.736V87.696C408.409 86.512 408.713 85.616 409.321 85.008C409.961 84.368 410.841 84.048 411.961 84.048C413.113 84.048 413.993 84.368 414.601 85.008C415.209 85.616 415.513 86.512 415.513 87.696V90.192H415.033C415.417 88.272 416.265 86.784 417.577 85.728C418.889 84.672 420.585 84.08 422.665 83.952C423.465 83.888 424.073 84.096 424.489 84.576C424.937 85.024 425.177 85.776 425.209 86.832C425.273 87.824 425.065 88.608 424.585 89.184C424.137 89.76 423.369 90.112 422.281 90.24L421.177 90.336C419.353 90.496 417.993 91.024 417.097 91.92C416.233 92.816 415.801 94.112 415.801 95.808V104.736C415.801 105.92 415.481 106.832 414.841 107.472C414.233 108.112 413.337 108.432 412.153 108.432ZM440.008 108.528C437.224 108.528 434.824 108.032 432.808 107.04C430.824 106.016 429.288 104.592 428.2 102.768C427.144 100.912 426.616 98.736 426.616 96.24C426.616 93.808 427.128 91.68 428.152 89.856C429.176 88 430.6 86.56 432.424 85.536C434.28 84.48 436.376 83.952 438.712 83.952C440.408 83.952 441.944 84.24 443.32 84.816C444.696 85.36 445.88 86.16 446.872 87.216C447.864 88.24 448.616 89.504 449.128 91.008C449.64 92.48 449.896 94.128 449.896 95.952C449.896 96.56 449.704 97.024 449.32 97.344C448.936 97.632 448.376 97.776 447.64 97.776H432.568V94.032H444.664L443.896 94.704C443.896 93.392 443.704 92.304 443.32 91.44C442.936 90.544 442.376 89.872 441.64 89.424C440.936 88.976 440.056 88.752 439 88.752C437.816 88.752 436.808 89.024 435.976 89.568C435.144 90.112 434.504 90.896 434.056 91.92C433.608 92.944 433.384 94.176 433.384 95.616V96C433.384 98.432 433.944 100.224 435.064 101.376C436.216 102.528 437.912 103.104 440.152 103.104C440.92 103.104 441.8 103.008 442.792 102.816C443.784 102.624 444.712 102.32 445.576 101.904C446.312 101.552 446.968 101.44 447.544 101.568C448.12 101.664 448.568 101.92 448.888 102.336C449.208 102.752 449.384 103.232 449.416 103.776C449.48 104.32 449.368 104.864 449.08 105.408C448.792 105.92 448.312 106.352 447.64 106.704C446.552 107.312 445.32 107.76 443.944 108.048C442.6 108.368 441.288 108.528 440.008 108.528ZM457.616 97.584C456.88 97.584 456.304 97.36 455.888 96.912C455.472 96.464 455.216 95.808 455.12 94.944L453.584 78.528C453.424 77.088 453.696 75.936 454.4 75.072C455.104 74.176 456.176 73.728 457.616 73.728C458.992 73.728 460.032 74.176 460.736 75.072C461.44 75.936 461.712 77.088 461.552 78.528L460.016 94.944C459.92 95.808 459.664 96.464 459.248 96.912C458.864 97.36 458.32 97.584 457.616 97.584ZM457.616 108.24C456.336 108.24 455.312 107.856 454.544 107.088C453.808 106.32 453.44 105.328 453.44 104.112C453.44 102.928 453.808 101.968 454.544 101.232C455.312 100.464 456.336 100.08 457.616 100.08C458.896 100.08 459.888 100.464 460.592 101.232C461.328 101.968 461.696 102.928 461.696 104.112C461.696 105.328 461.328 106.32 460.592 107.088C459.888 107.856 458.896 108.24 457.616 108.24Z" fill="white"/>
<path d="M137.156 91.3092C137.553 91.1029 137.996 91.0012 138.444 91.0134C138.891 91.0257 139.328 91.1516 139.714 91.3793C147.143 95.6932 155.582 97.9615 164.173 97.9533C172.534 97.9364 180.753 95.7861 188.051 91.7058C195.35 87.6254 201.487 81.7501 205.881 74.6359C205.966 74.4937 206.022 74.3357 206.046 74.1714C206.07 74.007 206.061 73.8395 206.02 73.6788C205.978 73.518 205.905 73.3671 205.804 73.235C205.703 73.1028 205.577 72.9921 205.433 72.9093L198.765 69.0403C196.245 67.5523 193.325 66.8811 190.408 67.1187C187.49 67.3563 184.718 68.4912 182.471 70.3675C178.039 74.1662 172.536 76.4928 166.724 77.0253C160.911 77.5578 155.077 76.2697 150.029 73.3394C144.981 70.4091 140.969 65.9816 138.549 60.6702C136.128 55.3587 135.42 49.4261 136.521 43.694C137.454 38.8359 139.651 34.3097 142.891 30.5715C146.131 26.8334 150.299 24.0155 154.975 22.4018C159.652 20.7881 164.67 20.4358 169.526 21.3802C174.382 22.3247 178.904 24.5326 182.634 27.7813C184.807 29.6204 187.498 30.7367 190.335 30.9747C193.171 31.2128 196.011 30.5608 198.46 29.1095L205.418 25.064C205.562 24.9804 205.687 24.8691 205.787 24.7366C205.887 24.6041 205.959 24.4531 206.001 24.2923C206.042 24.1314 206.051 23.964 206.027 23.7998C206.003 23.6355 205.946 23.4776 205.861 23.3354C202.486 17.839 198.059 13.0638 192.833 9.28425C187.607 5.5047 181.686 2.79536 175.409 1.31201C169.132 -0.17135 162.625 -0.399467 156.26 0.64076C149.895 1.68099 143.799 3.96905 138.321 7.3734C132.843 10.7778 128.092 15.2312 124.341 20.4779C120.59 25.7245 117.914 31.6607 116.465 37.9453C115.016 44.2299 114.824 50.7389 115.899 57.0981C116.974 63.4573 119.295 69.5412 122.73 75.0002C122.969 75.387 123.102 75.8298 123.116 76.2842C123.13 76.7387 123.024 77.1888 122.809 77.5895L109.147 103.448C109.02 103.688 108.974 103.963 109.014 104.232C109.055 104.501 109.18 104.75 109.372 104.942C109.564 105.134 109.814 105.26 110.083 105.301C110.351 105.342 110.626 105.295 110.867 105.168L137.156 91.3092Z" fill="white"/>
<path d="M182.26 38.4453H178.311C178.241 38.4454 178.175 38.4731 178.125 38.5222C178.076 38.5713 178.049 38.638 178.049 38.7074V58.2456C178.049 58.315 178.076 58.3815 178.125 58.4304C178.175 58.4794 178.241 58.5068 178.311 58.5067H182.26C182.294 58.5067 182.328 58.5 182.359 58.4869C182.391 58.4738 182.42 58.4546 182.444 58.4303C182.468 58.4061 182.487 58.3773 182.5 58.3456C182.514 58.3139 182.521 58.2799 182.521 58.2456V38.7074C182.521 38.6381 182.493 38.5715 182.444 38.5223C182.395 38.4732 182.329 38.4455 182.26 38.4453Z" fill="#5433ED"/>
<path d="M315.074 54.7859C313.852 54.7861 312.656 54.4238 311.639 53.7448C310.623 53.0657 309.831 52.1005 309.363 50.9712C308.895 49.8418 308.773 48.599 309.011 47.4C309.249 46.201 309.838 45.0996 310.702 44.2351C311.566 43.3706 312.668 42.7818 313.867 42.5432C315.066 42.3047 316.308 42.427 317.437 42.8948C318.567 43.3626 319.533 44.1548 320.212 45.1712C320.891 46.1877 321.253 47.3827 321.253 48.6051C321.251 50.2437 320.599 51.8146 319.441 52.9733C318.282 54.132 316.713 54.7838 315.074 54.7859ZM325.109 38.4419H322.757C322.358 38.4419 321.975 38.6004 321.693 38.8823C321.412 39.1643 321.253 39.5467 321.253 39.9455C319.735 38.8569 317.957 38.1874 316.098 38.0043C314.239 37.8213 312.364 38.1311 310.663 38.9026C308.962 39.6742 307.494 40.8802 306.407 42.3994C305.32 43.9186 304.652 45.6974 304.471 47.5566C304.355 49.5634 304.799 51.5628 305.753 53.3322C306.706 55.1015 308.133 56.5714 309.873 57.5779C311.613 58.5845 313.598 59.0883 315.607 59.0332C317.617 58.9781 319.571 58.3662 321.253 57.2658V58.2576C321.253 58.2899 321.26 58.322 321.272 58.3518C321.285 58.3817 321.303 58.4088 321.326 58.4316C321.349 58.4544 321.375 58.4725 321.405 58.4848C321.435 58.4971 321.468 58.5033 321.5 58.5032H325.109C325.144 58.5033 325.178 58.4966 325.21 58.4834C325.242 58.4701 325.272 58.4506 325.296 58.4261C325.321 58.4015 325.34 58.3724 325.353 58.3403C325.366 58.3082 325.373 58.2738 325.373 58.239V38.7061C325.373 38.6714 325.366 38.637 325.353 38.6049C325.34 38.5729 325.32 38.5437 325.295 38.5192C325.271 38.4947 325.242 38.4752 325.21 38.4619C325.178 38.4486 325.144 38.4418 325.109 38.4419" fill="#5433ED"/>
<path d="M197.234 37.9395C195.949 37.8942 194.668 38.1083 193.468 38.5692C192.268 39.03 191.174 39.7281 190.249 40.6218C189.325 41.5154 188.591 42.5862 188.09 43.7702C187.588 44.9541 187.331 46.2269 187.333 47.5125V58.2517C187.333 58.2848 187.339 58.3175 187.352 58.3481C187.364 58.3787 187.383 58.4065 187.406 58.4298C187.43 58.4532 187.457 58.4718 187.488 58.4844C187.518 58.4971 187.552 58.5036 187.585 58.5035H191.552C191.619 58.5036 191.684 58.4772 191.732 58.43C191.779 58.3828 191.805 58.3186 191.805 58.2517V47.5662C191.806 46.8109 191.973 46.065 192.293 45.381C192.614 44.697 193.08 44.0916 193.66 43.6075C194.24 43.1234 194.919 42.7723 195.649 42.579C196.379 42.3857 197.143 42.3548 197.887 42.4887C199.146 42.7378 200.279 43.4207 201.087 44.4185C201.896 45.4163 202.329 46.666 202.312 47.9501V58.2517C202.312 58.3186 202.338 58.3828 202.386 58.43C202.433 58.4772 202.497 58.5036 202.564 58.5035H206.533C206.566 58.5036 206.598 58.4971 206.629 58.4844C206.659 58.4718 206.687 58.4532 206.71 58.4298C206.734 58.4065 206.753 58.3787 206.766 58.3481C206.778 58.3175 206.785 58.2848 206.785 58.2517V47.4052C206.768 44.8852 205.754 42.4743 203.964 40.7002C202.174 38.9262 199.754 37.9336 197.234 37.9395" fill="#5433ED"/>
<path d="M243.981 37.9426C242.051 37.8928 240.153 38.445 238.551 39.5226V31.7319C238.551 31.6973 238.545 31.663 238.531 31.631C238.518 31.599 238.498 31.5699 238.474 31.5455C238.449 31.521 238.42 31.5017 238.388 31.4885C238.356 31.4753 238.322 31.4686 238.287 31.4688H234.344C234.274 31.4687 234.207 31.4963 234.157 31.5457C234.108 31.595 234.08 31.662 234.08 31.7319V58.2424C234.08 58.2771 234.087 58.3114 234.1 58.3435C234.113 58.3755 234.133 58.4047 234.157 58.4292C234.182 58.4538 234.211 58.4732 234.243 58.4865C234.275 58.4998 234.309 58.5066 234.344 58.5066H238.287C238.322 58.5067 238.357 58.4999 238.389 58.4867C238.421 58.4734 238.45 58.454 238.475 58.4294C238.499 58.4049 238.518 58.3757 238.531 58.3436C238.544 58.3115 238.551 58.2771 238.551 58.2424V47.5693C238.552 46.8139 238.72 46.0679 239.04 45.3838C239.361 44.6998 239.827 44.0944 240.407 43.6103C240.987 43.1262 241.666 42.7751 242.396 42.5818C243.127 42.3886 243.89 42.3578 244.634 42.4917C245.894 42.7409 247.026 43.4237 247.835 44.4216C248.643 45.4194 249.077 46.669 249.059 47.9532V58.2424C249.059 58.2772 249.066 58.3116 249.079 58.3437C249.093 58.3758 249.112 58.405 249.137 58.4295C249.161 58.4541 249.19 58.4735 249.222 58.4867C249.254 58.4999 249.289 58.5067 249.324 58.5066H253.267C253.301 58.5067 253.336 58.4999 253.368 58.4867C253.401 58.4734 253.43 58.454 253.454 58.4294C253.479 58.4049 253.498 58.3757 253.512 58.3436C253.525 58.3115 253.532 58.2771 253.532 58.2424V47.4083C253.515 44.8883 252.501 42.4775 250.711 40.7035C248.921 38.9295 246.501 37.9368 243.981 37.9426" fill="#5433ED"/>
<path d="M290.371 37.9426C288.441 37.8928 286.544 38.445 284.942 39.5226V31.7319C284.942 31.6973 284.935 31.663 284.922 31.631C284.909 31.599 284.889 31.5699 284.865 31.5455C284.84 31.521 284.811 31.5017 284.779 31.4885C284.747 31.4753 284.713 31.4686 284.678 31.4688H280.734C280.7 31.4686 280.666 31.4753 280.634 31.4885C280.602 31.5017 280.573 31.521 280.548 31.5455C280.523 31.5699 280.504 31.599 280.491 31.631C280.477 31.663 280.47 31.6973 280.47 31.7319V58.2424C280.47 58.2771 280.476 58.3115 280.49 58.3436C280.503 58.3757 280.522 58.4049 280.547 58.4294C280.572 58.454 280.601 58.4734 280.633 58.4867C280.665 58.4999 280.7 58.5067 280.734 58.5066H284.678C284.713 58.5067 284.747 58.4999 284.779 58.4867C284.811 58.4734 284.84 58.454 284.865 58.4294C284.889 58.4049 284.909 58.3757 284.922 58.3436C284.935 58.3115 284.942 58.2771 284.942 58.2424V47.5693C284.943 46.8139 285.109 46.0679 285.43 45.3838C285.75 44.6998 286.217 44.0944 286.797 43.6103C287.376 43.1262 288.056 42.7751 288.786 42.5818C289.516 42.3886 290.28 42.3578 291.023 42.4917C292.283 42.7409 293.416 43.4237 294.224 44.4216C295.033 45.4194 295.466 46.669 295.449 47.9532V58.2424C295.449 58.2772 295.456 58.3116 295.469 58.3437C295.482 58.3758 295.502 58.405 295.526 58.4295C295.551 58.4541 295.581 58.4735 295.613 58.4867C295.645 58.4999 295.679 58.5067 295.714 58.5066H299.657C299.692 58.5066 299.726 58.4998 299.758 58.4865C299.79 58.4732 299.819 58.4538 299.844 58.4292C299.868 58.4047 299.888 58.3755 299.901 58.3435C299.915 58.3114 299.922 58.2771 299.922 58.2424V47.4083C299.905 44.8883 298.89 42.4775 297.101 40.7035C295.311 38.9295 292.891 37.9368 290.371 37.9426Z" fill="#5433ED"/>
<path d="M230.019 53.6135L228.556 52.7642C228.012 52.4505 227.384 52.3128 226.759 52.3701C226.133 52.4274 225.542 52.6768 225.064 53.0841C224.109 53.8947 222.928 54.3892 221.68 54.4993C220.433 54.6094 219.182 54.3296 218.101 53.6987C217.019 53.0678 216.16 52.1167 215.642 50.9768C215.124 49.8369 214.973 48.5643 215.209 47.3347C215.409 46.2904 215.881 45.3174 216.578 44.5139C217.274 43.7103 218.171 43.1046 219.176 42.7578C220.181 42.411 221.259 42.3355 222.303 42.5388C223.347 42.7421 224.319 43.217 225.121 43.9157C225.587 44.3106 226.164 44.5504 226.773 44.6018C227.382 44.6532 227.992 44.5137 228.517 44.2026L230.016 43.3305C230.047 43.3126 230.074 43.2886 230.096 43.2601C230.117 43.2316 230.133 43.1992 230.142 43.1646C230.151 43.1301 230.152 43.0941 230.147 43.0588C230.142 43.0235 230.13 42.9896 230.112 42.959C228.91 40.9952 227.099 39.4779 224.955 38.638C222.811 37.7981 220.452 37.6817 218.236 38.3065C216.019 38.9312 214.068 40.2629 212.678 42.0988C211.289 43.9348 210.537 46.1745 210.538 48.477C210.538 50.7795 211.291 53.0188 212.681 54.854C214.072 56.6891 216.024 58.0197 218.241 58.6432C220.457 59.2667 222.816 59.149 224.96 58.3079C227.103 57.4669 228.914 55.9486 230.115 53.984C230.133 53.9536 230.145 53.9197 230.15 53.8845C230.155 53.8493 230.154 53.8134 230.145 53.7789C230.136 53.7444 230.12 53.712 230.099 53.6836C230.077 53.6552 230.05 53.6314 230.019 53.6135" fill="#5433ED"/>
<path d="M339.299 37.9172C334.54 38.0235 330.651 40.7232 330.651 47.195C330.651 51.5315 330.652 57.0012 330.652 58.2675C330.652 58.3014 330.66 58.3349 330.673 58.3662C330.686 58.3974 330.705 58.4258 330.729 58.4496C330.753 58.4734 330.781 58.4922 330.813 58.5049C330.844 58.5175 330.879 58.5238 330.913 58.5234H334.86C334.93 58.5233 334.998 58.4954 335.048 58.4459C335.097 58.3964 335.124 58.3293 335.124 58.2593V47.6058C335.124 43.6851 337.032 42.4261 339.442 42.3879C339.984 42.379 340.524 42.4425 341.049 42.5767C341.558 42.7166 342.099 42.6832 342.586 42.4818C343.074 42.2803 343.481 41.9223 343.742 41.4642L344.745 39.6561C344.787 39.5808 344.797 39.4919 344.774 39.4088C344.751 39.3257 344.696 39.2551 344.621 39.2124C342.992 38.3188 341.156 37.872 339.299 37.9172" fill="#5433ED"/>
<path d="M268.01 46.0431C263.158 45.5879 262.653 44.9646 262.653 43.9935C262.653 43.5786 263.282 43.2133 263.554 43.075C265.427 42.1214 268.746 42.0884 271.531 43.2927C271.851 43.429 272.196 43.4982 272.544 43.496C274.151 43.4547 274.996 41.7055 275.366 40.6064C275.39 40.5327 275.389 40.453 275.362 40.3801C275.336 40.3072 275.286 40.2452 275.22 40.2039C270.764 37.3927 264.876 37.3824 261.524 39.0893C260.559 39.5055 259.731 40.1875 259.139 41.0559C258.547 41.9242 258.215 42.9431 258.18 43.9935C258.18 49.4621 263.62 49.8233 267.618 50.199C272.319 50.586 272.32 52.1681 272.32 52.7078C272.32 53.8121 270.484 54.6449 268.052 54.6449C266.11 54.6418 264.195 54.2038 262.445 53.3631C262.052 53.1728 261.618 53.0824 261.182 53.1C261.132 53.1 261.086 53.1103 261.036 53.1144C260.947 53.1227 260.859 53.133 260.772 53.1495C259.487 53.4426 258.773 54.9989 258.467 55.873C258.441 55.9446 258.439 56.0227 258.462 56.0953C258.485 56.1679 258.531 56.2309 258.593 56.2745C261.408 58.1005 264.696 59.0613 268.052 59.0382C273.198 59.0382 276.792 56.4819 276.792 52.7078C276.792 49.9286 275.263 46.6396 268.01 46.0431Z" fill="#5433ED"/>
<path d="M174.157 53.6118L172.694 52.7625C172.15 52.4488 171.522 52.3111 170.897 52.3684C170.272 52.4257 169.68 52.6751 169.202 53.0824C168.248 53.893 167.065 54.3875 165.818 54.4976C164.57 54.6077 163.32 54.3279 162.239 53.697C161.157 53.0661 160.299 52.115 159.781 50.9751C159.263 49.8352 159.111 48.5626 159.347 47.333C159.548 46.2888 160.02 45.3159 160.716 44.5124C161.412 43.7089 162.309 43.1033 163.314 42.7565C164.319 42.4098 165.398 42.3342 166.442 42.5374C167.485 42.7406 168.457 43.2154 169.258 43.914C169.724 44.3088 170.303 44.5487 170.911 44.6001C171.52 44.6515 172.129 44.512 172.655 44.2009L174.154 43.3288C174.185 43.3108 174.213 43.2869 174.234 43.2584C174.256 43.2299 174.271 43.1975 174.279 43.1629C174.288 43.1284 174.291 43.0924 174.285 43.0571C174.28 43.0218 174.268 42.9879 174.249 42.9573C173.047 40.9938 171.236 39.4769 169.092 38.6374C166.948 37.7979 164.59 37.6818 162.374 38.3068C160.158 38.9317 158.207 40.2635 156.818 42.0994C155.429 43.9353 154.677 46.1749 154.678 48.4771C154.679 50.7794 155.432 53.0184 156.823 54.8533C158.213 56.6882 160.165 58.0185 162.381 58.6418C164.597 59.265 166.957 59.1472 169.1 58.3061C171.243 57.465 173.052 55.9467 174.253 53.9823C174.271 53.9518 174.283 53.9179 174.288 53.8826C174.294 53.8474 174.291 53.8115 174.282 53.7771C174.273 53.7426 174.259 53.7102 174.237 53.6819C174.216 53.6535 174.188 53.6297 174.157 53.6118" fill="#5433ED"/>
<path d="M351.383 46.48C351.78 45.2985 352.538 44.2715 353.551 43.544C354.563 42.8166 355.779 42.4252 357.026 42.4252C358.272 42.4252 359.487 42.8166 360.5 43.544C361.512 44.2715 362.27 45.2985 362.667 46.48H351.383ZM346.508 49.058C346.612 51.1969 347.369 53.2525 348.677 54.9487C349.984 56.6448 351.779 57.9002 353.821 58.5461C355.862 59.192 358.054 59.1974 360.098 58.5617C362.143 57.926 363.945 56.6796 365.261 54.99C365.31 54.9244 365.332 54.8424 365.323 54.7608C365.314 54.6792 365.274 54.604 365.212 54.5504C363.032 52.7309 361.218 53.0416 360.009 53.7196C359.024 54.1992 357.944 54.4504 356.849 54.4544C355.965 54.4296 355.096 54.2113 354.305 53.8147C353.514 53.4182 352.821 52.8531 352.272 52.1592L352.269 52.1602L352.221 52.0931C351.97 51.7695 351.753 51.4209 351.573 51.0529C351.526 50.9645 351.484 50.8735 351.447 50.7804L351.425 50.7309H351.427C351.392 50.6468 351.37 50.5576 351.363 50.4667H365.708C366.175 50.4706 366.627 50.2973 366.972 49.9818C367.317 49.6662 367.528 49.2318 367.565 48.7659C367.595 46.1247 366.648 43.5658 364.906 41.5804C363.164 39.595 360.75 38.3232 358.127 38.0092C355.437 37.7307 352.743 38.4967 350.602 40.1489C348.461 41.801 347.036 44.2129 346.624 46.8856C346.483 47.6007 346.444 48.332 346.508 49.058" fill="#5433ED"/>
</svg>
