<svg width="1440" height="800" viewBox="0 0 1440 800" fill="none" xmlns="http://www.w3.org/2000/svg">
<mask id="mask0_4185_5515" style="mask-type:alpha" maskUnits="userSpaceOnUse" x="0" y="0" width="1440" height="800">
<rect width="1440" height="800" fill="#C4C4C4"/>
</mask>
<g mask="url(#mask0_4185_5515)">
<path opacity="0.05" d="M1649.05 385.454C1636.51 360.34 1611.99 344.729 1586.59 340.002C1561.2 335.288 1534.99 340.353 1510.29 348.933C1483.4 358.287 1457.11 371.92 1429.05 373.576C1393.87 375.651 1359.96 358.439 1331.41 335.668C1316.58 323.846 1302.7 310.414 1286.81 300.456C1270.91 290.512 1252.31 284.161 1234.32 288.092C1195.01 296.66 1173.68 348.847 1135.44 362.387C1117.13 368.874 1097.5 365.551 1078.41 364.303C1059.31 363.056 1038.44 364.651 1023.79 378.623C1004.06 397.484 1003.18 431.542 1009.92 459.378C1021 505.233 1052.35 547.919 1094.34 554.776C1116.67 558.417 1139.56 551.802 1162.05 554.043C1170.49 554.899 1178.78 557.001 1186.7 560.294C1187.73 561.053 1188.73 561.824 1189.73 562.623C1212.28 580.63 1229.23 607.057 1253.75 621.492C1254.2 621.759 1254.66 622.013 1255.12 622.267C1257.01 623.768 1258.99 625.147 1261.02 626.398C1272.95 633.723 1286.85 636.054 1300.58 634.891C1304.18 635.169 1307.79 635.296 1311.39 635.314C1358.92 635.478 1405.35 618.081 1443.49 585.813C1471.17 562.264 1494.13 531.084 1525.28 513.932C1552.8 498.797 1584.27 495.988 1612.97 484.04C1623.2 479.787 1633.24 474.227 1641.06 465.664C1659.6 445.366 1661.58 410.554 1649.05 385.454Z" fill="#2BD4D9"/>
<path opacity="0.2" d="M0.5 529.994C83 613.494 176.5 682.494 256.5 632.494C528.5 420.294 920.015 357.747 1150.86 463.037C1320.65 563.927 1359.38 520.332 1440 463.037" stroke="#2BD4D9" stroke-width="2" stroke-linecap="round" stroke-linejoin="round" stroke-dasharray="10 10"/>
<g opacity="0.1">
<circle cx="724.58" cy="143.58" r="2.58013" fill="#2BD4D9"/>
<circle cx="740.061" cy="143.58" r="2.58013" fill="#2BD4D9"/>
<circle cx="755.542" cy="143.58" r="2.58013" fill="#2BD4D9"/>
<circle cx="771.022" cy="143.58" r="2.58013" fill="#2BD4D9"/>
<circle cx="786.503" cy="143.58" r="2.58013" fill="#2BD4D9"/>
<circle cx="801.984" cy="143.58" r="2.58013" fill="#2BD4D9"/>
<circle cx="817.465" cy="143.58" r="2.58013" fill="#2BD4D9"/>
<circle cx="832.945" cy="143.58" r="2.58013" fill="#2BD4D9"/>
<circle cx="848.426" cy="143.58" r="2.58013" fill="#2BD4D9"/>
<circle cx="863.907" cy="143.58" r="2.58013" fill="#2BD4D9"/>
<circle cx="879.388" cy="143.58" r="2.58013" fill="#2BD4D9"/>
<circle cx="894.869" cy="143.58" r="2.58013" fill="#2BD4D9"/>
<circle cx="724.58" cy="164.221" r="2.58013" fill="#2BD4D9"/>
<circle cx="740.061" cy="164.221" r="2.58013" fill="#2BD4D9"/>
<circle cx="755.542" cy="164.221" r="2.58013" fill="#2BD4D9"/>
<circle cx="771.022" cy="164.221" r="2.58013" fill="#2BD4D9"/>
<circle cx="786.503" cy="164.221" r="2.58013" fill="#2BD4D9"/>
<circle cx="801.984" cy="164.221" r="2.58013" fill="#2BD4D9"/>
<circle cx="817.465" cy="164.221" r="2.58013" fill="#2BD4D9"/>
<circle cx="832.945" cy="164.221" r="2.58013" fill="#2BD4D9"/>
<circle cx="848.426" cy="164.221" r="2.58013" fill="#2BD4D9"/>
<circle cx="863.907" cy="164.221" r="2.58013" fill="#2BD4D9"/>
<circle cx="879.388" cy="164.221" r="2.58013" fill="#2BD4D9"/>
<circle cx="894.869" cy="164.221" r="2.58013" fill="#2BD4D9"/>
<circle cx="724.58" cy="184.861" r="2.58013" fill="#2BD4D9"/>
<circle cx="740.061" cy="184.861" r="2.58013" fill="#2BD4D9"/>
<circle cx="755.542" cy="184.861" r="2.58013" fill="#2BD4D9"/>
<circle cx="771.023" cy="184.861" r="2.58013" fill="#2BD4D9"/>
<circle cx="786.503" cy="184.861" r="2.58013" fill="#2BD4D9"/>
<circle cx="801.984" cy="184.861" r="2.58013" fill="#2BD4D9"/>
<circle cx="817.465" cy="184.861" r="2.58013" fill="#2BD4D9"/>
<circle cx="832.946" cy="184.861" r="2.58013" fill="#2BD4D9"/>
<circle cx="848.426" cy="184.861" r="2.58013" fill="#2BD4D9"/>
<circle cx="863.907" cy="184.861" r="2.58013" fill="#2BD4D9"/>
<circle cx="879.388" cy="184.861" r="2.58013" fill="#2BD4D9"/>
<circle cx="894.869" cy="184.861" r="2.58013" fill="#2BD4D9"/>
<circle cx="724.58" cy="205.502" r="2.58013" fill="#2BD4D9"/>
<circle cx="740.061" cy="205.502" r="2.58013" fill="#2BD4D9"/>
<circle cx="755.542" cy="205.502" r="2.58013" fill="#2BD4D9"/>
<circle cx="771.023" cy="205.502" r="2.58013" fill="#2BD4D9"/>
<circle cx="786.503" cy="205.502" r="2.58013" fill="#2BD4D9"/>
<circle cx="801.984" cy="205.502" r="2.58013" fill="#2BD4D9"/>
<circle cx="817.465" cy="205.502" r="2.58013" fill="#2BD4D9"/>
<circle cx="832.946" cy="205.502" r="2.58013" fill="#2BD4D9"/>
<circle cx="848.426" cy="205.502" r="2.58013" fill="#2BD4D9"/>
<circle cx="863.907" cy="205.502" r="2.58013" fill="#2BD4D9"/>
<circle cx="879.388" cy="205.502" r="2.58013" fill="#2BD4D9"/>
<circle cx="894.869" cy="205.502" r="2.58013" fill="#2BD4D9"/>
<circle cx="724.58" cy="226.143" r="2.58013" fill="#2BD4D9"/>
<circle cx="740.061" cy="226.143" r="2.58013" fill="#2BD4D9"/>
<circle cx="755.542" cy="226.143" r="2.58013" fill="#2BD4D9"/>
<circle cx="771.023" cy="226.143" r="2.58013" fill="#2BD4D9"/>
<circle cx="786.503" cy="226.143" r="2.58013" fill="#2BD4D9"/>
<circle cx="801.984" cy="226.143" r="2.58013" fill="#2BD4D9"/>
<circle cx="817.465" cy="226.143" r="2.58013" fill="#2BD4D9"/>
<circle cx="832.946" cy="226.143" r="2.58013" fill="#2BD4D9"/>
<circle cx="848.426" cy="226.143" r="2.58013" fill="#2BD4D9"/>
<circle cx="863.907" cy="226.143" r="2.58013" fill="#2BD4D9"/>
<circle cx="879.388" cy="226.143" r="2.58013" fill="#2BD4D9"/>
<circle cx="894.869" cy="226.143" r="2.58013" fill="#2BD4D9"/>
<circle cx="724.58" cy="246.783" r="2.58013" fill="#2BD4D9"/>
<circle cx="740.061" cy="246.783" r="2.58013" fill="#2BD4D9"/>
<circle cx="755.542" cy="246.783" r="2.58013" fill="#2BD4D9"/>
<circle cx="771.023" cy="246.783" r="2.58013" fill="#2BD4D9"/>
<circle cx="786.503" cy="246.783" r="2.58013" fill="#2BD4D9"/>
<circle cx="801.984" cy="246.783" r="2.58013" fill="#2BD4D9"/>
<circle cx="817.465" cy="246.783" r="2.58013" fill="#2BD4D9"/>
<circle cx="832.946" cy="246.783" r="2.58013" fill="#2BD4D9"/>
<circle cx="848.426" cy="246.783" r="2.58013" fill="#2BD4D9"/>
<circle cx="863.907" cy="246.783" r="2.58013" fill="#2BD4D9"/>
<circle cx="879.388" cy="246.783" r="2.58013" fill="#2BD4D9"/>
<circle cx="894.869" cy="246.783" r="2.58013" fill="#2BD4D9"/>
<circle cx="724.58" cy="267.424" r="2.58013" fill="#2BD4D9"/>
<circle cx="740.061" cy="267.424" r="2.58013" fill="#2BD4D9"/>
<circle cx="755.542" cy="267.424" r="2.58013" fill="#2BD4D9"/>
<circle cx="771.023" cy="267.424" r="2.58013" fill="#2BD4D9"/>
<circle cx="786.503" cy="267.424" r="2.58013" fill="#2BD4D9"/>
<circle cx="801.984" cy="267.424" r="2.58013" fill="#2BD4D9"/>
<circle cx="817.465" cy="267.424" r="2.58013" fill="#2BD4D9"/>
<circle cx="832.946" cy="267.424" r="2.58013" fill="#2BD4D9"/>
<circle cx="848.426" cy="267.424" r="2.58013" fill="#2BD4D9"/>
<circle cx="863.907" cy="267.424" r="2.58013" fill="#2BD4D9"/>
<circle cx="879.388" cy="267.424" r="2.58013" fill="#2BD4D9"/>
<circle cx="894.869" cy="267.424" r="2.58013" fill="#2BD4D9"/>
<circle cx="724.58" cy="288.065" r="2.58013" fill="#2BD4D9"/>
<circle cx="740.061" cy="288.065" r="2.58013" fill="#2BD4D9"/>
<circle cx="755.542" cy="288.065" r="2.58013" fill="#2BD4D9"/>
<circle cx="771.023" cy="288.065" r="2.58013" fill="#2BD4D9"/>
<circle cx="786.503" cy="288.065" r="2.58013" fill="#2BD4D9"/>
<circle cx="801.984" cy="288.065" r="2.58013" fill="#2BD4D9"/>
<circle cx="817.465" cy="288.065" r="2.58013" fill="#2BD4D9"/>
<circle cx="832.946" cy="288.065" r="2.58013" fill="#2BD4D9"/>
<circle cx="848.426" cy="288.065" r="2.58013" fill="#2BD4D9"/>
<circle cx="863.907" cy="288.065" r="2.58013" fill="#2BD4D9"/>
<circle cx="879.388" cy="288.065" r="2.58013" fill="#2BD4D9"/>
<circle cx="894.869" cy="288.065" r="2.58013" fill="#2BD4D9"/>
</g>
<g opacity="0.1">
<circle cx="1242.58" cy="518.58" r="2.58013" fill="#2BD4D9"/>
<circle cx="1258.06" cy="518.58" r="2.58013" fill="#2BD4D9"/>
<circle cx="1273.54" cy="518.58" r="2.58013" fill="#2BD4D9"/>
<circle cx="1289.02" cy="518.58" r="2.58013" fill="#2BD4D9"/>
<circle cx="1304.5" cy="518.58" r="2.58013" fill="#2BD4D9"/>
<circle cx="1319.98" cy="518.58" r="2.58013" fill="#2BD4D9"/>
<circle cx="1335.46" cy="518.58" r="2.58013" fill="#2BD4D9"/>
<circle cx="1350.95" cy="518.58" r="2.58013" fill="#2BD4D9"/>
<circle cx="1366.43" cy="518.58" r="2.58013" fill="#2BD4D9"/>
<circle cx="1381.91" cy="518.58" r="2.58013" fill="#2BD4D9"/>
<circle cx="1397.39" cy="518.58" r="2.58013" fill="#2BD4D9"/>
<circle cx="1412.87" cy="518.58" r="2.58013" fill="#2BD4D9"/>
<circle cx="1242.58" cy="539.221" r="2.58013" fill="#2BD4D9"/>
<circle cx="1258.06" cy="539.221" r="2.58013" fill="#2BD4D9"/>
<circle cx="1273.54" cy="539.221" r="2.58013" fill="#2BD4D9"/>
<circle cx="1289.02" cy="539.221" r="2.58013" fill="#2BD4D9"/>
<circle cx="1304.5" cy="539.221" r="2.58013" fill="#2BD4D9"/>
<circle cx="1319.98" cy="539.221" r="2.58013" fill="#2BD4D9"/>
<circle cx="1335.46" cy="539.221" r="2.58013" fill="#2BD4D9"/>
<circle cx="1350.95" cy="539.221" r="2.58013" fill="#2BD4D9"/>
<circle cx="1366.43" cy="539.221" r="2.58013" fill="#2BD4D9"/>
<circle cx="1381.91" cy="539.221" r="2.58013" fill="#2BD4D9"/>
<circle cx="1397.39" cy="539.221" r="2.58013" fill="#2BD4D9"/>
<circle cx="1412.87" cy="539.221" r="2.58013" fill="#2BD4D9"/>
<circle cx="1242.58" cy="559.861" r="2.58013" fill="#2BD4D9"/>
<circle cx="1258.06" cy="559.861" r="2.58013" fill="#2BD4D9"/>
<circle cx="1273.54" cy="559.861" r="2.58013" fill="#2BD4D9"/>
<circle cx="1289.02" cy="559.861" r="2.58013" fill="#2BD4D9"/>
<circle cx="1304.5" cy="559.861" r="2.58013" fill="#2BD4D9"/>
<circle cx="1319.98" cy="559.861" r="2.58013" fill="#2BD4D9"/>
<circle cx="1335.46" cy="559.861" r="2.58013" fill="#2BD4D9"/>
<circle cx="1350.95" cy="559.861" r="2.58013" fill="#2BD4D9"/>
<circle cx="1366.43" cy="559.861" r="2.58013" fill="#2BD4D9"/>
<circle cx="1381.91" cy="559.861" r="2.58013" fill="#2BD4D9"/>
<circle cx="1397.39" cy="559.861" r="2.58013" fill="#2BD4D9"/>
<circle cx="1412.87" cy="559.861" r="2.58013" fill="#2BD4D9"/>
<circle cx="1242.58" cy="580.502" r="2.58013" fill="#2BD4D9"/>
<circle cx="1258.06" cy="580.502" r="2.58013" fill="#2BD4D9"/>
<circle cx="1273.54" cy="580.502" r="2.58013" fill="#2BD4D9"/>
<circle cx="1289.02" cy="580.502" r="2.58013" fill="#2BD4D9"/>
<circle cx="1304.5" cy="580.502" r="2.58013" fill="#2BD4D9"/>
<circle cx="1319.98" cy="580.502" r="2.58013" fill="#2BD4D9"/>
<circle cx="1335.46" cy="580.502" r="2.58013" fill="#2BD4D9"/>
<circle cx="1350.95" cy="580.502" r="2.58013" fill="#2BD4D9"/>
<circle cx="1366.43" cy="580.502" r="2.58013" fill="#2BD4D9"/>
<circle cx="1381.91" cy="580.502" r="2.58013" fill="#2BD4D9"/>
<circle cx="1397.39" cy="580.502" r="2.58013" fill="#2BD4D9"/>
<circle cx="1412.87" cy="580.502" r="2.58013" fill="#2BD4D9"/>
<circle cx="1242.58" cy="601.143" r="2.58013" fill="#2BD4D9"/>
<circle cx="1258.06" cy="601.143" r="2.58013" fill="#2BD4D9"/>
<circle cx="1273.54" cy="601.143" r="2.58013" fill="#2BD4D9"/>
<circle cx="1289.02" cy="601.143" r="2.58013" fill="#2BD4D9"/>
<circle cx="1304.5" cy="601.143" r="2.58013" fill="#2BD4D9"/>
<circle cx="1319.98" cy="601.143" r="2.58013" fill="#2BD4D9"/>
<circle cx="1335.46" cy="601.143" r="2.58013" fill="#2BD4D9"/>
<circle cx="1350.95" cy="601.143" r="2.58013" fill="#2BD4D9"/>
<circle cx="1366.43" cy="601.143" r="2.58013" fill="#2BD4D9"/>
<circle cx="1381.91" cy="601.143" r="2.58013" fill="#2BD4D9"/>
<circle cx="1397.39" cy="601.143" r="2.58013" fill="#2BD4D9"/>
<circle cx="1412.87" cy="601.143" r="2.58013" fill="#2BD4D9"/>
<circle cx="1242.58" cy="621.783" r="2.58013" fill="#2BD4D9"/>
<circle cx="1258.06" cy="621.783" r="2.58013" fill="#2BD4D9"/>
<circle cx="1273.54" cy="621.783" r="2.58013" fill="#2BD4D9"/>
<circle cx="1289.02" cy="621.783" r="2.58013" fill="#2BD4D9"/>
<circle cx="1304.5" cy="621.783" r="2.58013" fill="#2BD4D9"/>
<circle cx="1319.98" cy="621.783" r="2.58013" fill="#2BD4D9"/>
<circle cx="1335.46" cy="621.783" r="2.58013" fill="#2BD4D9"/>
<circle cx="1350.95" cy="621.783" r="2.58013" fill="#2BD4D9"/>
<circle cx="1366.43" cy="621.783" r="2.58013" fill="#2BD4D9"/>
<circle cx="1381.91" cy="621.783" r="2.58013" fill="#2BD4D9"/>
<circle cx="1397.39" cy="621.783" r="2.58013" fill="#2BD4D9"/>
<circle cx="1412.87" cy="621.783" r="2.58013" fill="#2BD4D9"/>
<circle cx="1242.58" cy="642.424" r="2.58013" fill="#2BD4D9"/>
<circle cx="1258.06" cy="642.424" r="2.58013" fill="#2BD4D9"/>
<circle cx="1273.54" cy="642.424" r="2.58013" fill="#2BD4D9"/>
<circle cx="1289.02" cy="642.424" r="2.58013" fill="#2BD4D9"/>
<circle cx="1304.5" cy="642.424" r="2.58013" fill="#2BD4D9"/>
<circle cx="1319.98" cy="642.424" r="2.58013" fill="#2BD4D9"/>
<circle cx="1335.46" cy="642.424" r="2.58013" fill="#2BD4D9"/>
<circle cx="1350.95" cy="642.424" r="2.58013" fill="#2BD4D9"/>
<circle cx="1366.43" cy="642.424" r="2.58013" fill="#2BD4D9"/>
<circle cx="1381.91" cy="642.424" r="2.58013" fill="#2BD4D9"/>
<circle cx="1397.39" cy="642.424" r="2.58013" fill="#2BD4D9"/>
<circle cx="1412.87" cy="642.424" r="2.58013" fill="#2BD4D9"/>
<circle cx="1242.58" cy="663.065" r="2.58013" fill="#2BD4D9"/>
<circle cx="1258.06" cy="663.065" r="2.58013" fill="#2BD4D9"/>
<circle cx="1273.54" cy="663.065" r="2.58013" fill="#2BD4D9"/>
<circle cx="1289.02" cy="663.065" r="2.58013" fill="#2BD4D9"/>
<circle cx="1304.5" cy="663.065" r="2.58013" fill="#2BD4D9"/>
<circle cx="1319.98" cy="663.065" r="2.58013" fill="#2BD4D9"/>
<circle cx="1335.46" cy="663.065" r="2.58013" fill="#2BD4D9"/>
<circle cx="1350.95" cy="663.065" r="2.58013" fill="#2BD4D9"/>
<circle cx="1366.43" cy="663.065" r="2.58013" fill="#2BD4D9"/>
<circle cx="1381.91" cy="663.065" r="2.58013" fill="#2BD4D9"/>
<circle cx="1397.39" cy="663.065" r="2.58013" fill="#2BD4D9"/>
<circle cx="1412.87" cy="663.065" r="2.58013" fill="#2BD4D9"/>
</g>
<path opacity="0.05" d="M364.555 202.759C352.042 177.057 327.529 161.099 302.142 156.287C276.755 151.488 250.534 156.704 225.827 165.518C198.925 175.126 172.611 189.115 144.554 190.843C109.369 193.007 75.4728 175.42 46.9506 152.135C32.1313 140.046 18.2668 126.307 2.38303 116.128C-13.5014 105.964 -32.0934 99.4807 -50.0923 103.526C-89.4155 112.344 -110.808 165.807 -149.065 179.715C-167.381 186.377 -187.008 182.996 -206.1 181.74C-225.192 180.484 -246.066 182.141 -260.73 196.465C-280.492 215.801 -281.402 250.676 -274.7 279.173C-263.667 326.115 -232.367 369.79 -190.38 376.764C-168.05 380.467 -145.156 373.669 -122.661 375.938C-114.224 376.805 -105.938 378.948 -98.0179 382.311C-96.9936 383.087 -95.9943 383.876 -94.9964 384.693C-72.4636 403.106 -55.5391 430.149 -31.0312 444.902C-30.5808 445.175 -30.1296 445.434 -29.6664 445.694C-27.7726 447.229 -25.8035 448.639 -23.7686 449.918C-11.8429 457.405 2.05298 459.777 15.7868 458.57C19.382 458.85 22.9966 458.977 26.5921 458.991C74.1293 459.106 120.578 441.239 158.757 408.155C186.46 384.009 209.456 352.056 240.632 334.457C268.164 318.929 299.641 316.017 328.361 303.75C338.598 299.384 348.641 293.679 356.475 284.902C375.038 264.096 377.057 228.447 364.555 202.759Z" fill="#2BD4D9"/>
<rect opacity="0.5" x="521.949" y="216.949" width="78.1734" height="56.5067" rx="3.7977" stroke="#F7F7F7" stroke-width="1.89885"/>
<rect x="534.125" y="241.531" width="13.4647" height="18.8374" rx="2.58027" fill="#2BD4D9" fill-opacity="0.4"/>
<rect x="554.303" y="230.031" width="13.4647" height="30.3356" rx="2.58027" fill="#2BD4D9" fill-opacity="0.19"/>
<rect x="574.482" y="234.922" width="13.4647" height="25.4427" rx="2.58027" fill="#BBD8E6"/>
<rect opacity="0.5" x="525.76" y="225.5" width="68.4262" height="41.4212" fill="white"/>
</g>
</svg>
