<svg xmlns="http://www.w3.org/2000/svg" width="14" height="16" viewBox="0 0 14 16" fill="none">
<path d="M13.1441 6.72294C13.0217 6.73481 12.8988 6.74104 12.7757 6.74159C12.1116 6.74168 11.4578 6.57665 10.8735 6.2614C10.2892 5.94614 9.79278 5.49058 9.42896 4.93584V11.0849C9.42896 11.9837 9.16197 12.8624 8.66176 13.6098C8.16156 14.3572 7.45059 14.9397 6.61878 15.2837C5.78697 15.6277 4.87166 15.7177 3.98861 15.5423C3.10556 15.3669 2.29443 14.9341 1.65779 14.2985C1.02114 13.6629 0.587585 12.8531 0.411935 11.9715C0.236286 11.0899 0.326435 10.1761 0.670984 9.34568C1.01553 8.51523 1.599 7.80544 2.34762 7.30605C3.09623 6.80667 3.97636 6.54012 4.87671 6.54012C4.97174 6.54012 5.06463 6.54865 5.15806 6.55451V8.79411C5.06463 8.78292 4.97281 8.76586 4.87671 8.76586C4.26051 8.76586 3.66956 9.01025 3.23384 9.44524C2.79812 9.88024 2.55334 10.4702 2.55334 11.0854C2.55334 11.7006 2.79812 12.2906 3.23384 12.7256C3.66956 13.1606 4.26051 13.405 4.87671 13.405C6.16012 13.405 7.29351 12.3955 7.29351 11.1142L7.31593 0.670898H9.46206C9.56011 1.60186 9.98283 2.46878 10.6563 3.12009C11.3298 3.7714 12.2111 4.16565 13.1462 4.2339V6.72294" fill="#5433ED"/>
</svg>