<svg width="40" height="38" viewBox="0 0 40 38" fill="none" xmlns="http://www.w3.org/2000/svg">
<path d="M10.196 32.9463C10.3352 32.8719 10.4905 32.8352 10.6472 32.8396C10.804 32.8441 10.9571 32.8895 11.0921 32.9717C13.6944 34.5282 16.6508 35.3466 19.6601 35.3437C22.5892 35.3376 25.4681 34.5617 28.0248 33.0894C30.5815 31.6172 32.7313 29.4972 34.2705 26.9303C34.3005 26.8789 34.32 26.8219 34.3284 26.7626C34.3368 26.7033 34.3338 26.6429 34.3192 26.5849C34.3046 26.5269 34.2789 26.4724 34.2437 26.4248C34.2084 26.3771 34.1642 26.3372 34.1137 26.3073L31.778 24.9112C30.895 24.3743 29.8722 24.1321 28.8502 24.2179C27.8282 24.3036 26.857 24.7131 26.07 25.3901C24.5176 26.7608 22.5898 27.6003 20.5537 27.7924C18.5175 27.9845 16.4738 27.5198 14.7055 26.4625C12.9371 25.4051 11.5318 23.8076 10.684 21.8911C9.83614 19.9746 9.58799 17.834 9.97363 15.7657C10.3005 14.0128 11.0702 12.3797 12.2052 11.0309C13.3402 9.68208 14.8001 8.6653 16.4382 8.08306C18.0763 7.50081 19.8345 7.37367 21.5355 7.71444C23.2365 8.05522 24.8203 8.85188 26.1272 10.0241C26.8882 10.6877 27.8312 11.0905 28.8248 11.1764C29.8184 11.2623 30.8132 11.027 31.671 10.5033L34.1084 9.04364C34.1587 9.01347 34.2026 8.97332 34.2377 8.92551C34.2727 8.87771 34.2981 8.82321 34.3125 8.76518C34.3269 8.70715 34.3301 8.64674 34.3217 8.58747C34.3133 8.5282 34.2934 8.47124 34.2634 8.41991C33.0814 6.4367 31.5306 4.7137 29.7 3.34996C27.8693 1.98621 25.7949 1.00863 23.5962 0.4734C21.3975 -0.0618268 19.118 -0.144136 16.8884 0.2312C14.6587 0.606536 12.523 1.43212 10.6042 2.66048C8.6853 3.88885 7.021 5.49577 5.70709 7.38886C4.39318 9.28195 3.45559 11.4239 2.94805 13.6915C2.44051 15.9591 2.37301 18.3077 2.74964 20.6022C3.12627 22.8968 3.9395 25.092 5.14257 27.0617C5.22631 27.2013 5.2729 27.361 5.27779 27.525C5.28267 27.689 5.24573 27.8514 5.17046 27.996L0.384594 37.3262C0.340097 37.413 0.323799 37.5121 0.337992 37.6091C0.352186 37.7062 0.395982 37.796 0.463323 37.8654C0.530664 37.9348 0.618027 37.9802 0.712219 37.9948C0.806411 38.0095 0.902628 37.9927 0.986888 37.9469L10.196 32.9463Z" fill="#2BD4D9"/>
<path d="M22 24H38" stroke="#5433ED" stroke-width="4" stroke-linecap="round" stroke-linejoin="round"/>
<path d="M22 30H38" stroke="#5433ED" stroke-width="4" stroke-linecap="round" stroke-linejoin="round"/>
<path d="M28 18L26 36" stroke="#5433ED" stroke-width="4" stroke-linecap="round" stroke-linejoin="round"/>
<path d="M34 18L32 36" stroke="#5433ED" stroke-width="4" stroke-linecap="round" stroke-linejoin="round"/>
</svg>
