<svg width="24" height="24" viewBox="0 0 24 24" fill="none" xmlns="http://www.w3.org/2000/svg">
<g filter="url(#filter0_b_51_3627)">
<circle cx="12" cy="12" r="12" fill="#2BD4D9"/>
</g>
<path d="M16.7707 9.55487C16.7783 9.66151 16.7783 9.76817 16.7783 9.8748C16.7783 13.1273 14.3028 16.875 9.77813 16.875C8.38418 16.875 7.08926 16.4713 6 15.7705C6.19805 15.7934 6.38846 15.801 6.59414 15.801C7.74432 15.801 8.80312 15.4125 9.64863 14.7498C8.56699 14.727 7.66054 14.0186 7.34823 13.0436C7.50059 13.0664 7.65292 13.0816 7.8129 13.0816C8.03379 13.0816 8.2547 13.0511 8.46035 12.9979C7.33301 12.7693 6.48748 11.7791 6.48748 10.5832V10.5527C6.81501 10.7356 7.1959 10.8498 7.59958 10.865C6.93688 10.4232 6.50272 9.66913 6.50272 8.816C6.50272 8.35898 6.62457 7.94003 6.83787 7.5744C8.04901 9.06737 9.86952 10.0424 11.9109 10.149C11.8728 9.9662 11.85 9.77579 11.85 9.58535C11.85 8.22948 12.9469 7.125 14.3103 7.125C15.0187 7.125 15.6586 7.42207 16.108 7.90195C16.664 7.79532 17.1972 7.58964 17.6695 7.30781C17.4867 7.87912 17.0982 8.359 16.5879 8.66367C17.083 8.61037 17.5629 8.47323 18.0047 8.28282C17.6696 8.7703 17.2506 9.20446 16.7707 9.55487Z" fill="white"/>
<defs>
<filter id="filter0_b_51_3627" x="-20" y="-20" width="64" height="64" filterUnits="userSpaceOnUse" color-interpolation-filters="sRGB">
<feFlood flood-opacity="0" result="BackgroundImageFix"/>
<feGaussianBlur in="BackgroundImage" stdDeviation="10"/>
<feComposite in2="SourceAlpha" operator="in" result="effect1_backgroundBlur_51_3627"/>
<feBlend mode="normal" in="SourceGraphic" in2="effect1_backgroundBlur_51_3627" result="shape"/>
</filter>
</defs>
</svg>
