<svg xmlns="http://www.w3.org/2000/svg" width="16" height="13" viewBox="0 0 16 13" fill="none">
<path d="M13.5062 3.39116C13.5062 3.52966 13.5062 3.66817 13.5062 3.78689C13.5062 7.88273 10.4126 12.6118 4.77371 12.6118C3.03114 12.6118 1.42562 12.0973 0.0550537 11.2267C0.290008 11.2465 0.544541 11.2663 0.779495 11.2663C2.2088 11.2663 3.5402 10.7716 4.5975 9.94055C3.24651 9.92076 2.1109 9.01058 1.73889 7.7838C1.93469 7.82337 2.1109 7.84316 2.32628 7.84316C2.60039 7.84316 2.8745 7.80359 3.12904 7.72444C1.71931 7.44743 0.662018 6.20087 0.662018 4.69708C0.662018 4.67729 0.662018 4.67729 0.662018 4.6575C1.07319 4.89494 1.5431 5.03345 2.05216 5.05324C1.22982 4.49921 0.681598 3.54945 0.681598 2.46118C0.681598 1.88737 0.838234 1.35313 1.09277 0.898033C2.60039 2.77777 4.87161 4.00454 7.41695 4.14305C7.35821 3.9254 7.33863 3.66817 7.33863 3.43073C7.33863 1.70929 8.70919 0.324219 10.4126 0.324219C11.2937 0.324219 12.0964 0.700166 12.6447 1.29377C13.3495 1.15526 13.9957 0.898033 14.6026 0.541872C14.3677 1.27398 13.8782 1.86758 13.2516 2.26331C13.8782 2.18417 14.4656 2.02587 15.0138 1.76865C14.6222 2.40182 14.1131 2.95585 13.5062 3.39116Z" fill="#5433ED"/>
</svg>