<svg width="53" height="53" viewBox="0 0 53 53" fill="none" xmlns="http://www.w3.org/2000/svg">
<path d="M11.9924 38.1528C12.1513 38.0679 12.3287 38.0261 12.5077 38.0311C12.6866 38.0362 12.8616 38.088 13.0157 38.1816C15.9878 39.9557 19.3642 40.8885 22.8011 40.8852C26.1463 40.8782 29.4343 39.9939 32.3542 38.3159C35.2741 36.6378 37.7295 34.2216 39.4873 31.2958C39.5216 31.2373 39.5439 31.1724 39.5534 31.1048C39.563 31.0372 39.5596 30.9683 39.5429 30.9022C39.5263 30.8361 39.4969 30.774 39.4567 30.7197C39.4164 30.6653 39.3659 30.6198 39.3083 30.5858L36.6407 28.9946C35.6322 28.3827 34.4641 28.1066 33.2969 28.2043C32.1297 28.3021 31.0205 28.7688 30.1217 29.5404C28.3487 31.1026 26.147 32.0595 23.8216 32.2785C21.4961 32.4974 19.1621 31.9677 17.1425 30.7626C15.1229 29.5575 13.5179 27.7367 12.5496 25.5524C11.5813 23.368 11.2979 20.9282 11.7383 18.5709C12.1116 16.573 12.9908 14.7115 14.287 13.1742C15.5832 11.6369 17.2506 10.478 19.1214 9.81438C20.9923 9.15075 23.0002 9.00584 24.9429 9.39424C26.8856 9.78265 28.6945 10.6907 30.187 12.0267C31.0561 12.7831 32.1331 13.2421 33.2679 13.34C34.4027 13.4379 35.5389 13.1698 36.5185 12.5729L39.3022 10.9092C39.3596 10.8748 39.4098 10.8291 39.4498 10.7746C39.4898 10.7201 39.5188 10.658 39.5353 10.5918C39.5518 10.5257 39.5554 10.4568 39.5458 10.3893C39.5362 10.3217 39.5135 10.2568 39.4792 10.1983C38.1293 7.93791 36.3582 5.97409 34.2674 4.41974C32.1767 2.86539 29.8075 1.75116 27.2964 1.14113C24.7853 0.531094 22.182 0.43728 19.6355 0.865077C17.0891 1.29287 14.65 2.23385 12.4585 3.6339C10.267 5.03395 8.3662 6.86546 6.86561 9.02315C5.36502 11.1808 4.29422 13.6221 3.71457 16.2067C3.13492 18.7912 3.05782 21.4681 3.48797 24.0833C3.91811 26.6986 4.84689 29.2006 6.22089 31.4456C6.31653 31.6047 6.36974 31.7868 6.37532 31.9737C6.3809 32.1606 6.33871 32.3457 6.25274 32.5105L0.786897 43.1448C0.736078 43.2437 0.717464 43.3567 0.733674 43.4673C0.749884 43.5779 0.799903 43.6802 0.876812 43.7593C0.953721 43.8384 1.0535 43.8901 1.16107 43.9069C1.26865 43.9236 1.37853 43.9045 1.47476 43.8523L11.9924 38.1528Z" fill="#2BD4D9"/>
<path fill-rule="evenodd" clip-rule="evenodd" d="M30.1041 21.5156H44.5325V35.4492H30.1041V28.9937L30.1041 28.9844L30.1041 28.975V21.5156ZM28.1041 21.5156V27.9844H21.6367V24.9342C21.6367 23.0462 23.1672 21.5156 25.0553 21.5156H28.1041ZM28.1041 29.9844H21.6367V35.4492H28.1041V29.9844ZM21.6367 37.4492H28.1041V44.4102H21.6367L21.6367 37.4492ZM21.6367 46.4102L21.6367 49.4603C21.6367 51.3484 23.1672 52.8789 25.0553 52.8789H28.1041V46.4102H21.6367ZM30.1041 45.4195V52.8789H44.5325V37.4492H30.1041V45.4008L30.1041 45.4102L30.1041 45.4195ZM46.5325 37.4492V44.4102H52.9999L52.9999 37.4492H46.5325ZM46.5325 52.8789V46.4102H52.9999L53 49.4603C53 51.3484 51.4694 52.8789 49.5814 52.8789H46.5325ZM52.9999 27.9844L53 24.9342C53 23.0462 51.4694 21.5156 49.5814 21.5156H46.5325V27.9844H52.9999ZM52.9999 29.9844H46.5325V35.4492H52.9999L52.9999 29.9844Z" fill="#5433ED"/>
</svg>
